<svg xmlns="http://www.w3.org/2000/svg" viewBox="0 0 40.44 48.41">
  <defs>
    <style>
      .cls-1 {
        fill: #cc9c25;
      }
    </style>
  </defs>
  <title>Ресурс 6play1</title>
  <g id="Слой_2" data-name="Слой 2">
    <g id="музыка">
      <path class="cls-1" d="M38.15,18.82C28.86,10.47,13.66,10.24,5,1.4A1.71,1.71,0,0,0,3.48.28l-.36,0a1.4,1.4,0,0,0-.87.22A1.27,1.27,0,0,0,0,1.2C.05,9.5.84,17.81,1.25,26.09q.28,5.91.46,11.82c.06,2.26-.4,5.58.59,7.75,1.2,2.63,3.17,3.47,5.79,2.1,2.26-1.18,4.16-4.13,6.06-5.88a92.31,92.31,0,0,1,10.27-8.23,96.4,96.4,0,0,1,8.75-5.34c1.84-1,4.92-1.7,6.26-3.3C41.4,22.66,40.21,20.67,38.15,18.82Z"/>
    </g>
  </g>
</svg>
