<svg xmlns="http://www.w3.org/2000/svg" viewBox="0 0 43.19 40.57">
  <defs>
    <style>
      .cls-1 {
        fill: #cc9c25;
      }
    </style>
  </defs>
  <title>Ресурс 5stop</title>
  <g id="Слой_2" data-name="Слой 2">
    <g id="музыка">
      <path class="cls-1" d="M39.81,1.46A2,2,0,0,0,37.9,0C25.89.19,13.94.64,2,1.83A1.89,1.89,0,0,0,.18,3.65,10.64,10.64,0,0,0,.43,8.71c.62,9.89,1.35,19.7,1.06,29.64a1.66,1.66,0,0,0,1.22,1.59c12.94,2.27,25.48-2.33,38.44-2.8a2.06,2.06,0,0,0,2-2A303.66,303.66,0,0,0,39.81,1.46Z"/>
    </g>
  </g>
</svg>
