<svg xmlns="http://www.w3.org/2000/svg" viewBox="0 0 235.46 239.63">
  <defs>
    <style>
      .cls-1 {
        fill: #5b4069;
      }

      .cls-2 {
        fill: #312537;
      }

      .cls-3 {
        fill: #9261a8;
      }
    </style>
  </defs>
  <title>Ресурс 9accordeon</title>
  <g id="Слой_2" data-name="Слой 2">
    <g id="Слой_33" data-name="Слой 33">
      <path class="cls-1" d="M139.16,5.42C133.1-.93,121.65.84,113.92,1.92c-12,1.68-24.23,2.36-35.8,6.27C65.75,12.37,56.3,21,46.58,29.4,36.4,38.17,26.33,47.22,19.14,58.71,12.55,69.25,9.52,81,6.24,92.85c-1.83,6.64-4.13,13.21-5.37,20a65.55,65.55,0,0,0-.1,20.64c3.37,25.87,14.13,52.29,32.76,71C49.31,220.33,71,229.31,92.07,235.72a97.49,97.49,0,0,0,42.62,2.75c12.85-1.86,26.65-6.1,37.44-13.61,4.6-3.21,9.11-6.83,13.59-10.24,5.61-4.26,11.46-8.19,17-12.59,9.94-7.92,19.22-17.13,25.45-28.32,7.16-12.86,8-26.11,7-40.47-.84-12.37-.1-24.6-.11-37,0-14.77-4.07-28.07-14.08-39.21-7.81-8.68-15.26-17.66-23.06-26.35-8.23-9.18-17.4-18.28-28.4-24.11C156.28-.39,142.6-.29,128,.19c-9,.3-9.07,13.78,0,14.07,10.72.34,22,.11,31.72,5.19,8.42,4.38,15.36,10.89,21.75,17.81,6.54,7.07,12.46,14.67,18.7,22,6.39,7.51,13.37,13.87,16.41,23.54,3.09,9.83,3,19.7,2.82,29.89-.24,11.6,1.5,23,1.5,34.59,0,5.75-.3,11.64-2.15,17.13-1.93,5.71-5.38,11.1-8.66,16.12-6.59,10.08-15.75,20.29-25.52,27.39-8.9,6.47-19.87,10.55-30.52,13.23-12.16,3.06-24.56,5.47-37.15,5-12.43-.44-23.63-3.58-35.29-7.68C72.74,215.38,63.94,212,56,206.93c-8.75-5.53-15.1-13.56-21-22a117.72,117.72,0,0,1-15.82-31.52c-3.62-11.28-6.24-23.59-5.38-35.48.83-11.53,4.33-23.36,6.9-34.63,3-13,8.56-24.67,18-34.31,9-9.21,19.28-18.57,29.89-25.85,11.86-8.14,25.91-9.79,39.85-11.42,4.3-.51,8.57-1.22,12.88-1.69,3.37-.36,10-2.23,13,.2,3.37,2.72,8-1.59,4.86-4.86Z"/>
    </g>
    <g id="Слой_135" data-name="Слой 135">
      <g id="Слой_136" data-name="Слой 136">
        <path class="cls-2" d="M115.65,87.45c-1-5.54-1.94-11.23-4.42-16.29a.82.82,0,0,0,.21-1.12,5.39,5.39,0,0,0-1.94-1.89c-.1-.15-.2-.31-.31-.46a.46.46,0,0,0-.75,0,10,10,0,0,0-4.33-.36c-3.73.4-7.37,1.78-11,2.74a43.76,43.76,0,0,1-13.42,1.53,101.16,101.16,0,0,0-13,0A119.59,119.59,0,0,0,53.5,73.49c-2.15.42-4.3.88-6.44,1.35-1.6.34-3.65.49-5,1.5-2.64,1.94-1.76,6.76-1.33,9.49.7,4.38,1.89,8.71,2.81,13.06,1.91,8.92,3.65,17.88,5.41,26.84.87,4.45,2,8.92,2.44,13.44.44,4.22.18,8.46,1.22,12.61,1,4,2.77,7.76,3.6,11.8.86,4.22.4,8.6,1.73,12.74a42.3,42.3,0,0,0,2,4.84A9.77,9.77,0,0,0,62.5,185c2.88,2.22,7.06.37,10.12-.45,4.78-1.29,9.53-2.67,14.22-4.26s9.28-4.12,14.44-3.92a68.2,68.2,0,0,0,13.85-.5,51.48,51.48,0,0,0,13.26-4.26.71.71,0,0,0,.35-.61C125.47,143,120.81,115.13,115.65,87.45Z"/>
        <path class="cls-2" d="M205.47,102.22a67.17,67.17,0,0,0-5.14-7.11c-2.49-3.31-5.45-6.45-9.69-7.07a2,2,0,0,0-2.11-.88c-.6.1-.47,1.15.14,1.07a1.37,1.37,0,0,1,.81.1.94.94,0,0,0,.28,1.15,9.26,9.26,0,0,1-1,2.28l-1.52,2.62c-1,1.74-2,3.48-3,5.23l-5.75,9.87c-1.89,3.24-3.79,6.49-6,9.55-2,2.78-4.15,5.39-6,8.24a69.45,69.45,0,0,0-4.67,9.08q-2.35,5.07-4.91,10.06c-3.36,6.55-7,13-10.82,19.24-1.91,3.13-4,7.3-8.31,6-2.5-.75-4.91-2.37-7.51-1a.57.57,0,0,0-.2.78c5.19,7.8,15.21,9.9,23.9,11.09,4,.56,7.37-.14,9.56-3.81,2.75-4.64,5.37-9.35,8.16-14s5.68-9.26,8.66-13.8c2.81-4.29,5.84-8.45,8.48-12.84,2.8-4.65,5.05-9.64,7.47-14.49s5-9.94,7.44-14.92C204.58,106.82,206.65,104.31,205.47,102.22Z"/>
      </g>
      <g id="Слой_137" data-name="Слой 137">
        <path class="cls-3" d="M187.27,86.73a6.91,6.91,0,0,1,.17-1.73.78.78,0,0,0-.21-.77,3.25,3.25,0,0,0-3.49-.38c0-.17.11-.34.18-.52a.76.76,0,0,0-.2-.74,3.56,3.56,0,0,0-4.43-.55c-.06-.77-.11-1.54-.17-2.32a.7.7,0,0,0-.69-.69,3.42,3.42,0,0,0-3.11,1.28,7.92,7.92,0,0,1,0-2.18.68.68,0,0,0-.49-.64,3.64,3.64,0,0,0-3.21.49c-.22-1.58-1.1-3-2.83-3.23a3.07,3.07,0,0,0-3.16,2.15,1.9,1.9,0,0,1,.21-1.8.64.64,0,0,0-.23-.87,3.07,3.07,0,0,0-3.76.94,6.88,6.88,0,0,1-.15-2.45.65.65,0,0,0-.31-.56,2.8,2.8,0,0,0-3.18.35c-.54-1.54-1.57-2.87-3.43-2.51a3.62,3.62,0,0,1-2.77-.21,4,4,0,0,0-1.52-.56,5.71,5.71,0,0,0-2.94.63c-.51-1.3-2.55-1.7-3.83-2a71.32,71.32,0,0,0-10-1.18c-3.51-.24-7-.35-10.52-.34s-7.27.62-10.72-.13a.59.59,0,0,0-.65.26l-.61,1.09a5.9,5.9,0,0,0-4.2,0,.6.6,0,0,0-.14,1,.55.55,0,0,0,.21.61c2.49,1.76,3,5.05,3.75,7.81.86,3.3,1.68,6.62,2.46,9.93q2.38,10.13,4.37,20.33c2.61,13.39,4.92,26.85,7,40.33,1.19,7.73,2.29,15.48,3.4,23.22.06.45.59.59,1,.54a16.78,16.78,0,0,1,11.48,2.57.79.79,0,0,0,.94-.13c9.45-11.46,15.4-25.05,23.25-37.55q3-4.71,6.29-9.16a72.37,72.37,0,0,0,6.39-9.53c1.73-3.34,2.65-7,4-10.45A49,49,0,0,1,187,97.85a40.48,40.48,0,0,0,2.92-4.74c.67-1.33,1.78-3.36,1.71-4.87C191.52,86.17,189,86,187.27,86.73Z"/>
        <path class="cls-3" d="M88,175.59c-.23-.67-.86-1.13-1.18-1.76A11.87,11.87,0,0,1,86,170.1c-1.17-8.87-3-17.66-4.58-26.46-1.64-9-3.28-18-5.21-26.93q-2.39-11.07-5.38-21.95c-.75-3.64-1.55-7.27-2.15-10.94-.23-1.42-.45-2.83-.65-4.25a11.49,11.49,0,0,0-.69-3.34c-.94-2-2.25-1-4-.84a6.58,6.58,0,0,0-2.42.56,13.35,13.35,0,0,1-4.46,1c-2.86.24-5.64-.28-8.49-.16-2.27.1-9.44,1.38-6.22,5,.49.56.59.51.46,1.22-.06.33-.18.65-.21,1a4.77,4.77,0,0,0,.65,2.48c.67,1.44-.41,3.21,1.25,4.19a2.79,2.79,0,0,0,.1,2.67c.53.86.66.59.55,1.71a4.12,4.12,0,0,0,.18,2c.15.38.61.68.73,1,.2.54-.27,1.16-.34,1.75a4.22,4.22,0,0,0,1.07,3.27c-.65,1.42.35,2.31.42,3.66s.23,2.6,1.37,3.48a3.7,3.7,0,0,0-.15,3.35c.12.27.77.86.83,1.12.1.42-.27,1-.32,1.43a3.63,3.63,0,0,0,.24,1.69,5.68,5.68,0,0,1,.16,1.74,2.68,2.68,0,0,0,1.58,2.22,3.9,3.9,0,0,0,.67,4,3.35,3.35,0,0,0,.27,4c-1.1.74-1.09,4,1.05,4.39a3.1,3.1,0,0,0,.87,3.47,2.45,2.45,0,0,0,.48,4.34,2.85,2.85,0,0,0,.82,3.6,2.87,2.87,0,0,0,1.11,3.51,3.63,3.63,0,0,0,.77,4.23,3.86,3.86,0,0,0,.32,4.08,3.08,3.08,0,0,0,1.07,3.74,4.89,4.89,0,0,0,0,2.49c.05.23.4.93.44,1.14a2.38,2.38,0,0,1-.13.93A3.44,3.44,0,0,0,59.27,169a3.48,3.48,0,0,0,.44,3.05,3.15,3.15,0,0,0,.54,3.42c-1,1.15.19,3.76,1,4.94-1.29,1.84.62,4,2.66,4,1.81,0,3.59-.92,5.24-1.57,2.11-.84,4.22-1.7,6.37-2.44a36.71,36.71,0,0,1,5.93-1.56c1.66-.28,4.05.1,5.52-.86A2.08,2.08,0,0,0,88,175.59Z"/>
        <path class="cls-3" d="M163,164.82a2.21,2.21,0,0,0-.06-.34s0-.07,0,0a1,1,0,0,0-1.44-.8,1.22,1.22,0,0,0-.54.58,1,1,0,0,0-.2.2,1.21,1.21,0,0,0,1.34,1.71,1,1,0,0,0,.64-.44.66.66,0,0,0,.12-.17A1.28,1.28,0,0,0,163,164.82Z"/>
        <path class="cls-3" d="M165,164.53a1.25,1.25,0,0,0-.51-.79,1,1,0,0,0-1.08,0,1.1,1.1,0,0,0-.32,1.24,1,1,0,0,0,.11.61.92.92,0,0,0,1,.44,1,1,0,0,0,.71-.57A1.38,1.38,0,0,0,165,164.53Z"/>
        <path class="cls-3" d="M170.27,163.09a.75.75,0,0,0-1-.45.79.79,0,0,0-.46.55.37.37,0,0,0-.07.14,1,1,0,0,0-.06.33l-.09-.23a.71.71,0,0,0-.48-.37.8.8,0,0,0-.43-.1.84.84,0,0,0-.81.8.75.75,0,0,0-.29-.44.77.77,0,0,0-.85-.07.76.76,0,0,0-.35.7.41.41,0,0,0,0,.11.66.66,0,0,0,0,.28.8.8,0,0,0,0,.31.6.6,0,0,0,0,.23.44.44,0,0,0,.63.26,2,2,0,0,0,.37-.35.54.54,0,0,0,.15-.09,1,1,0,0,0,.33-.51,1.67,1.67,0,0,0,.18.56.82.82,0,0,0,1.1.29,1.22,1.22,0,0,0,.54-.7,1.85,1.85,0,0,0,0-.23,1.22,1.22,0,0,0,.14.33.66.66,0,0,0,1,.13A1.67,1.67,0,0,0,170.27,163.09Z"/>
        <path class="cls-3" d="M172,162.31h0a.67.67,0,0,0-.34-.3l-.07,0a.79.79,0,0,0,.23-.33,1.21,1.21,0,0,0-.75-1.62.67.67,0,0,0-.75.31,1.17,1.17,0,0,0,0,1.43.7.7,0,0,0,.45.18.8.8,0,0,0,.19.13.55.55,0,0,0-.19.21,1.28,1.28,0,0,0-.11.82.47.47,0,0,0,.06.15h0a.63.63,0,0,0,.29.72.65.65,0,0,0,.76-.1,1.41,1.41,0,0,0,.36-.84.59.59,0,0,0,0-.14A1.1,1.1,0,0,0,172,162.31Z"/>
        <path class="cls-3" d="M173.69,160.35h0a.6.6,0,0,0-.75-.57.9.9,0,0,0-.24.12.84.84,0,0,0-.31.19.87.87,0,0,0-.09,1.06.78.78,0,0,0,1,.27.87.87,0,0,0,.39-.62A.84.84,0,0,0,173.69,160.35Z"/>
        <path class="cls-3" d="M169.57,161.58a1,1,0,0,0-.09-.48h0a.58.58,0,0,0-.77-.22,1,1,0,0,0-.47.64.76.76,0,0,0,.17.64,2.56,2.56,0,0,0,.11.24.51.51,0,0,0,.88,0A1.35,1.35,0,0,0,169.57,161.58Z"/>
        <path class="cls-3" d="M167.82,160.86a.6.6,0,0,0-1-.26c.09-.06-.09.08-.09.07l-.1.11a1.12,1.12,0,0,0-.25.4.81.81,0,0,0,.16.91l.08.06a.5.5,0,0,0,.73.34C167.92,162.24,168,161.35,167.82,160.86Z"/>
        <path class="cls-3" d="M165.82,161.39a.79.79,0,0,0-1.21.79.55.55,0,0,0,.2.32,1.05,1.05,0,0,0,.41.57.58.58,0,0,0,.8-.21,1.35,1.35,0,0,0,.24-.72A.85.85,0,0,0,165.82,161.39Z"/>
        <path class="cls-3" d="M164.23,162.11a.58.58,0,0,0-.27-.47.64.64,0,0,0-.31-.07.61.61,0,0,0-.8.72l.06.18a0,0,0,0,1,0,0v0a.63.63,0,0,0,.26.49l0,0a.45.45,0,0,0,.57.07A1.08,1.08,0,0,0,164.23,162.11Z"/>
        <path class="cls-3" d="M165.33,159.51a1,1,0,0,0-1-.35,1.06,1.06,0,0,0-.58,1.58.74.74,0,0,0,1,.26,1.07,1.07,0,0,0,.46-.41l0,0A.76.76,0,0,0,165.33,159.51Z"/>
        <path class="cls-3" d="M167.2,158.47a.67.67,0,0,0-.91.24,2.46,2.46,0,0,0-.24.84.64.64,0,0,0,.28.55.65.65,0,0,0,.15.18.61.61,0,0,0,.7.1,1,1,0,0,0,.55-.92A1.2,1.2,0,0,0,167.2,158.47Z"/>
        <path class="cls-3" d="M169.34,158.91a1.26,1.26,0,0,0-.11-.51h0a.52.52,0,0,0-.34-.27.59.59,0,0,0-.64.27,2,2,0,0,0-.19.69.74.74,0,0,0,.18.65l.07.06.06,0,0,0h.1l.1,0a.67.67,0,0,0,.76-.65Z"/>
        <path class="cls-3" d="M175.34,157.5l0-.07h0v0h0a.61.61,0,0,0-.19-.33.77.77,0,0,0-1,0,.83.83,0,0,0-.27.45.49.49,0,0,0-.13.12,1.05,1.05,0,0,0-.69-.24l-.15,0a.51.51,0,0,0-.21,0,.7.7,0,0,0-.69.69l0,.38h0a.59.59,0,0,0,0,.45,1,1,0,0,0,.27.44,1.17,1.17,0,0,0,.46.26,1.23,1.23,0,0,0,.71,0,1,1,0,0,0,.68-.68.54.54,0,0,0,0-.1.77.77,0,0,0,.66-.05.79.79,0,0,0,.3-.3.74.74,0,0,0,.37-.65A.85.85,0,0,0,175.34,157.5Z"/>
        <path class="cls-3" d="M176.79,155a.9.9,0,0,0-.23-.2.72.72,0,0,0-.25-.18.71.71,0,0,0-.76.15.89.89,0,0,0-.31.5.91.91,0,1,0,1.69.64.88.88,0,0,0,0-.28A.8.8,0,0,0,176.79,155Z"/>
        <path class="cls-3" d="M174.5,155.82a1.16,1.16,0,0,0-.8-.82.81.81,0,0,0-.92.37,2.67,2.67,0,0,0-.25.93.84.84,0,0,0,.85.84.64.64,0,0,0,.2,0,.84.84,0,0,0,.49-.09A1.06,1.06,0,0,0,174.5,155.82Z"/>
        <path class="cls-3" d="M170.8,157a.92.92,0,0,0,.32.36l.06,0a.62.62,0,0,0,.33.07h.09a.78.78,0,0,0,.69-.76.43.43,0,0,0,0-.12.22.22,0,0,0,0-.08.68.68,0,0,0-.55-.65.63.63,0,0,0-.65.13.9.9,0,0,0-.34.66s0,0,0-.05a.81.81,0,0,0-1.5.31,1.41,1.41,0,0,0-.25.54.64.64,0,0,0,.22.65.59.59,0,0,0,.56.09.79.79,0,0,0,0,.62.88.88,0,0,0,.17.28.69.69,0,0,0,1,.73,1.7,1.7,0,0,0,.68-.86,1.1,1.1,0,0,0-.26-1.06,1,1,0,0,0-.84-.3.68.68,0,0,0,.18-.26A.75.75,0,0,0,170.8,157Z"/>
        <path class="cls-3" d="M168.76,156.83a.5.5,0,0,0-.84-.34,1.7,1.7,0,0,0-.49.77.57.57,0,0,0,.32.66.56.56,0,0,0,.69-.23.78.78,0,0,0,.05-.14A1.16,1.16,0,0,0,168.76,156.83Z"/>
        <path class="cls-3" d="M167,157.47a1.18,1.18,0,0,0-.1-.52.89.89,0,0,0-.8-.49.74.74,0,0,0-.53.19,1.34,1.34,0,0,0-.28.47,1.27,1.27,0,0,0-.06.47.83.83,0,0,0,.1.38.81.81,0,0,0,.3.28,9,9,0,0,1,.88,0,.54.54,0,0,0,.23-.15h0A.93.93,0,0,0,167,157.47Z"/>
        <path class="cls-3" d="M168.21,154.09a1.08,1.08,0,0,0-1.1-.3.93.93,0,0,0-.6,1.16.75.75,0,0,0,.06.13.89.89,0,0,0,.65.82,1,1,0,0,0,1.16-.5A1.13,1.13,0,0,0,168.21,154.09Z"/>
        <path class="cls-3" d="M172.5,153.4a.69.69,0,0,0-.7-.37l-.14,0a.88.88,0,0,0-.81.62.94.94,0,0,0,0,.16l0,0v0a.76.76,0,0,0-.73-.56h0a.43.43,0,0,0,0-.07A1.53,1.53,0,0,0,170,152a.74.74,0,0,0-1-.39,1,1,0,0,0-.35,1.09.86.86,0,0,0,.84.74h0a.66.66,0,0,0-.21.35,3.17,3.17,0,0,1-.12.44,1,1,0,0,0-.12.71.74.74,0,0,0,.62.53.77.77,0,0,0,.64-.22.8.8,0,0,0,.37-.28.87.87,0,0,0,.75.34,1.11,1.11,0,0,0,.92-.59A1.19,1.19,0,0,0,172.5,153.4Z"/>
        <path class="cls-3" d="M174.23,153.76a.65.65,0,0,0,0-.24c0-.05-.08-.13-.1-.19v0h0c0,.06,0,.06,0,0a.38.38,0,0,0,0-.1h0a.66.66,0,0,0-.38-.42.68.68,0,0,0-.72.13.88.88,0,0,0-.28.69v.05a1.49,1.49,0,0,0,0,.21.64.64,0,0,0,.8.59A.75.75,0,0,0,174.23,153.76Z"/>
        <path class="cls-3" d="M175.83,153.19a.28.28,0,0,0,0-.13.48.48,0,0,0-.24-.36l0,0a.81.81,0,0,0-1,0,.9.9,0,0,0-.25,1.12,1,1,0,0,0,.23.46.7.7,0,0,0,1.07-.14A1.41,1.41,0,0,0,175.83,153.19Z"/>
        <path class="cls-3" d="M177.74,153a.54.54,0,0,0-.71-.76.91.91,0,0,0-.39.41l0,0a.5.5,0,0,0,0,.58.3.3,0,0,0,0,.1.55.55,0,0,0,1-.05A.49.49,0,0,0,177.74,153Z"/>
        <path class="cls-3" d="M171.32,150.9a.55.55,0,0,0-.32.22.67.67,0,0,0-.41.81.58.58,0,0,0-.32.46.33.33,0,0,0,.33.33,1,1,0,0,0,.56-.21.87.87,0,0,0,1-.55C172.32,151.46,171.93,150.75,171.32,150.9Z"/>
        <g>
          <path class="cls-3" d="M175.93,151.13v0S175.92,151.21,175.93,151.13Z"/>
          <path class="cls-3" d="M175.89,150.78a1.33,1.33,0,0,0-.09-.21l-.06-.1,0-.05a.52.52,0,0,0-.28-.3.58.58,0,0,0-.67.09,1.12,1.12,0,0,0-.35.71.8.8,0,0,0,0,.79.52.52,0,0,0,.7.18l.08-.06a.78.78,0,0,0,.77-.68c0-.05,0-.12,0-.14A1,1,0,0,0,175.89,150.78Z"/>
        </g>
        <g>
          <path class="cls-3" d="M177.59,150.63a1.25,1.25,0,0,0-.58-.75.61.61,0,0,0-.71.09,1.17,1.17,0,0,0-.16,1.44.67.67,0,0,0,.47.31h.17a.45.45,0,0,0,.45,0,.83.83,0,0,0,.35-.49A1.18,1.18,0,0,0,177.59,150.63Z"/>
          <path class="cls-3" d="M176.49,150.9h0Z"/>
          <polygon class="cls-3" points="176.5 150.93 176.5 150.93 176.5 150.93 176.5 150.93"/>
        </g>
        <path class="cls-3" d="M179.36,150.45a.66.66,0,0,0-.2-.58l-.1-.13a.55.55,0,0,0-.53-.14,1.13,1.13,0,0,0-.6,1.38.68.68,0,0,0,.66.5.71.71,0,0,0,.66-.5,1.55,1.55,0,0,0,.05-.23h0a.67.67,0,0,0,.06-.28Z"/>
        <path class="cls-3" d="M180.86,147.25l-.18-.1a.54.54,0,0,0-.78-.1l0,0a1.13,1.13,0,0,0-.3,1.76.79.79,0,0,0,1.3-.28,1.6,1.6,0,0,0,.25-.27A.76.76,0,0,0,180.86,147.25Z"/>
        <path class="cls-3" d="M178.82,147.66a.66.66,0,0,0-.6-.35.94.94,0,0,0-.91,1.16v0a1.85,1.85,0,0,0,.06.57.71.71,0,0,0,1,.41,1.3,1.3,0,0,0,.6-.81A1.39,1.39,0,0,0,178.82,147.66Z"/>
        <path class="cls-3" d="M176.73,148a1,1,0,0,0-.48-.1.87.87,0,0,0-.8.19.59.59,0,0,0-.1.71l0,0a.84.84,0,0,0,.13.46.64.64,0,0,0,.7.28.62.62,0,0,0,.19-.07h0a1,1,0,0,0,.61-1A.57.57,0,0,0,176.73,148Z"/>
        <path class="cls-3" d="M174.41,148.11a.54.54,0,0,0-.35.06.63.63,0,0,0-.42.53v.05c0,.09-.07.18-.1.27a.87.87,0,0,0-.37-.39,1,1,0,0,0-.92,0,.79.79,0,0,0-.35.91.35.35,0,0,0,.07.15,1.13,1.13,0,0,0,.12.62.76.76,0,0,0,.54.37.69.69,0,0,0-.11.13,1.29,1.29,0,0,0-.23.69.2.2,0,0,0,0,.08.88.88,0,0,0,.14.91.68.68,0,0,0,.89.09c.51-.36.43-1.11.31-1.63a.58.58,0,0,0-.43-.4,1.09,1.09,0,0,0,.41-.55l0-.1.08.19a.49.49,0,0,0,.81.22,1.48,1.48,0,0,0,.41-.56,1.2,1.2,0,0,0,.27-.79A.89.89,0,0,0,174.41,148.11Z"/>
        <path class="cls-3" d="M171,149.2a1,1,0,0,0-1.11.66.58.58,0,0,0,.4.72.56.56,0,0,0,.39,0l.14.11a.63.63,0,0,0,.93-.59A1,1,0,0,0,171,149.2Z"/>
        <path class="cls-3" d="M172.39,146.34l-.17,0a.83.83,0,0,0-.87.38.93.93,0,0,0,1,1.37,1.06,1.06,0,0,0,.75-.77A.78.78,0,0,0,172.39,146.34Z"/>
        <path class="cls-3" d="M176.31,146a.89.89,0,0,0-1-.2.75.75,0,0,0-.37.31.63.63,0,0,0-.12-.11.85.85,0,0,0-.63-.17.75.75,0,0,0,.42-.45.64.64,0,0,0,0-.41.77.77,0,0,0-.1-.49.64.64,0,0,0-.93-.17.63.63,0,0,0-.18.22h0a.82.82,0,0,0-.2.35.85.85,0,0,0,.08.66.7.7,0,0,0,.63.35H174a1,1,0,0,0-.17.1,1,1,0,0,0-.26,1.16.61.61,0,0,0,.08.34.58.58,0,0,0,.78.2l.14-.09a1.12,1.12,0,0,0,.45-.33l.06-.09.09.09a.78.78,0,0,0,.31.17.87.87,0,0,0,.92-.3A.88.88,0,0,0,176.31,146Z"/>
        <path class="cls-3" d="M180.18,145.59s0-.05,0-.08,0-.08,0,0a.63.63,0,0,0-.79-.61,1.09,1.09,0,0,0-.53.33.76.76,0,0,0-.12.19,1,1,0,0,0-.18.33,1,1,0,0,0-.16-.22,1,1,0,0,0-.92-.24.83.83,0,0,0-.59.81,1.4,1.4,0,0,0,0,.58.65.65,0,0,0,.79.45,1.7,1.7,0,0,0,.84-.75.76.76,0,0,0,.74.56.93.93,0,0,0,.84-.52,1,1,0,0,0,.11-.51A1.63,1.63,0,0,0,180.18,145.59Z"/>
        <path class="cls-3" d="M182.06,144.81a1.42,1.42,0,0,0-.71,0,.8.8,0,0,0-.43.35.78.78,0,0,0-.2.54.94.94,0,0,0,.09.8.66.66,0,0,0,.88.23,2.48,2.48,0,0,0,.3-.25.87.87,0,0,0,.23-.16,1.3,1.3,0,0,0,.33-.61A.7.7,0,0,0,182.06,144.81Z"/>
        <path class="cls-3" d="M184.12,142.9a1.07,1.07,0,0,0-1.32-.75.88.88,0,0,0-.59,1,6.06,6.06,0,0,0,.44.78.6.6,0,0,0,.08.16.55.55,0,0,0,.41.21.71.71,0,0,0,.68-.47A1,1,0,0,0,184.12,142.9Z"/>
        <path class="cls-3" d="M181.93,143.13v0a.77.77,0,0,0-.75-.76.89.89,0,0,0-.76.39,1.13,1.13,0,0,0-.53.55v0a.76.76,0,0,0-.71-.48.85.85,0,0,0-.64.27l-.13.09a1.1,1.1,0,0,0-.27.51v0a.94.94,0,0,0-.18-.12.18.18,0,0,0-.07-.05.71.71,0,0,0-.9.16.88.88,0,0,0-.21,1.14.72.72,0,0,0,.55.33.49.49,0,0,0,.36-.07l0,0a1.21,1.21,0,0,0,.4-.35.8.8,0,0,0,.73.21l.13-.05a.72.72,0,0,0,.43-.2,1.81,1.81,0,0,0,.43-.64.93.93,0,0,0,.78.72,1.14,1.14,0,0,0,1.12-.58,1.23,1.23,0,0,0,.18-.46,1.32,1.32,0,0,0,0-.34C181.94,143.23,181.94,143.18,181.93,143.13Z"/>
        <path class="cls-3" d="M176.57,144.28a.71.71,0,0,0-.54-.76.83.83,0,0,0-.92.4,1.22,1.22,0,0,0,.07,1.13.6.6,0,0,0,.79.27.53.53,0,0,0,.34-.23.05.05,0,0,0,0,0A1,1,0,0,0,176.57,144.28Z"/>
        <path class="cls-3" d="M179.37,141.12a.55.55,0,0,0-.3-.26.84.84,0,0,0-1.1.1.94.94,0,0,0-.2.33.69.69,0,0,0-.29-.32.74.74,0,0,0-.87.12,1.41,1.41,0,0,0-.37.64,1.14,1.14,0,0,0-.15.23h0a1,1,0,0,0-1.36-.56,1.12,1.12,0,0,0-.51.64,1.47,1.47,0,0,0,0,.59.62.62,0,0,0,.38.89,1.22,1.22,0,0,0,1.19-.35,1.35,1.35,0,0,0,.3-.47.55.55,0,0,0,.25.27.72.72,0,0,0,.5.07,1.27,1.27,0,0,0,.45-.19l.08,0a.78.78,0,0,0,.36-.48,1.46,1.46,0,0,0,.1-.32l0,0a.85.85,0,0,0,0,.23.61.61,0,0,0,.87.35,1.17,1.17,0,0,0,.74-.91A1,1,0,0,0,179.37,141.12Z"/>
        <path class="cls-3" d="M180.87,140.53a.5.5,0,0,0-.21,0,.84.84,0,0,0-.56.08.9.9,0,0,0-.42.79,1,1,0,0,0,0,.25.93.93,0,0,0,0,.27.58.58,0,0,0,.73.38.8.8,0,0,0,.53-.13,1,1,0,0,0,.45-.81A.84.84,0,0,0,180.87,140.53Z"/>
        <path class="cls-3" d="M183.33,140.86a.62.62,0,0,0-.62-.62,1.06,1.06,0,0,0-.83.48,1.14,1.14,0,0,0-.17.9.7.7,0,0,0,.34.43.89.89,0,0,0,.56.08.8.8,0,0,0,.63-.73,1.21,1.21,0,0,0,0-.18.78.78,0,0,1,0-.22l0,.06Z"/>
        <path class="cls-3" d="M185.08,140.84c0-.12,0-.13,0-.05s0,.06,0,0l0-.13a.19.19,0,0,0,0-.08.7.7,0,0,0-.33-.64.75.75,0,0,0-.84.11,1.29,1.29,0,0,0-.43.78.71.71,0,0,0,0,.14v.15a1.09,1.09,0,0,0,0,.25.79.79,0,0,0,1.44.19,1.3,1.3,0,0,0,.18-.46A.38.38,0,0,0,185.08,140.84Z"/>
        <path class="cls-3" d="M186.14,137.85a.73.73,0,0,0-1.1-.14,1.29,1.29,0,0,0-.33.57.7.7,0,0,0-.25-.35.72.72,0,0,0-.59-.14,1.38,1.38,0,0,0-.35,0,.7.7,0,0,0-.48.85.7.7,0,0,0,.34.48.56.56,0,0,0,0,.12.64.64,0,0,0,1.16-.15l0-.16a.25.25,0,0,0,0-.07v0h0a.3.3,0,0,0,0-.08.59.59,0,0,0,0,.13.77.77,0,0,0,1.13.46,1.2,1.2,0,0,0,.55-.75A.88.88,0,0,0,186.14,137.85Z"/>
        <path class="cls-3" d="M186,135.61a.66.66,0,0,0-.12-.22.73.73,0,0,0-1-.32.89.89,0,0,0-.43.55,1,1,0,0,0-.11.23s0-.09,0-.14a.57.57,0,0,0-.42-.41.78.78,0,0,0-.49-.21,1,1,0,0,0-.94.64v0a.91.91,0,0,0-.88-.41,1,1,0,0,0-.71.52.88.88,0,0,0-.45-.2,1.07,1.07,0,0,0,.14-.16,1,1,0,0,0,.11-.23.43.43,0,0,0,.3.09,1.2,1.2,0,0,0,.81-1.83.57.57,0,0,0-1,0,1.54,1.54,0,0,0-.28.61.91.91,0,0,0-.31-.27.89.89,0,0,0-1.07.15.81.81,0,0,0-.23.39.69.69,0,0,0-.18.24,1,1,0,0,0,0,.91,1,1,0,0,0,.81.45.9.9,0,0,0-.14.2.47.47,0,0,0-.14.14.72.72,0,0,0-.14.41.62.62,0,0,0,0,.13l0,.14c0,.08,0,.08,0,0a.62.62,0,0,0,.6.6l.1,0a1.14,1.14,0,0,0-.33,1.05,1.29,1.29,0,0,1,0,1,.61.61,0,0,0,1,.27,2,2,0,0,0,.45-.58s0,0,0,0,0,.13,0,.17a2.37,2.37,0,0,0,.17.36.71.71,0,0,0,.81.33,1.13,1.13,0,0,0,.78-.78,1.67,1.67,0,0,0,.08-.91,1,1,0,0,0-1.21-.67,1,1,0,0,0-.49.33.85.85,0,0,0-.7-.73h-.09a1.34,1.34,0,0,0,.56-.66l.06.06a.76.76,0,0,0,.34.24.52.52,0,0,0,.18.12.64.64,0,0,0,.71-.13,1.79,1.79,0,0,0,.2-.28v0a.67.67,0,0,0,.16.18.9.9,0,0,0,.68.22.85.85,0,0,0,.5-.16,1.15,1.15,0,0,0,.46-.63.45.45,0,0,1,0,.11.72.72,0,0,0,.32.42.81.81,0,0,0,.53.07,1.12,1.12,0,0,0,.59-.4A.89.89,0,0,0,186,135.61Z"/>
        <path class="cls-3" d="M179.15,138.88a1,1,0,0,0-.88-.56.85.85,0,0,0-.75.5.18.18,0,0,0-.05-.07.84.84,0,0,0-1.19,0l-.1.12a1.38,1.38,0,0,0-.35.61,1.47,1.47,0,0,0,.11,1,.76.76,0,0,0,1,.27,1.65,1.65,0,0,0,.79-.9l.08.07.09.1a.68.68,0,0,0,.68.16l0,0a.58.58,0,0,0,.62-.41A1.1,1.1,0,0,0,179.15,138.88Z"/>
        <path class="cls-3" d="M178.86,136.4a.76.76,0,0,0-.73-.17h0a1,1,0,0,0-.9.63,1,1,0,0,0,.18,1.1,1.07,1.07,0,1,0,1.48-1.55Z"/>
        <path class="cls-3" d="M188.06,135.2a1,1,0,0,0-.33-.33.53.53,0,0,0-.2-.07.62.62,0,0,0-.19,0q-.27,0-.06,0c-.07,0-.32.08-.36.1a.47.47,0,0,0-.15.13,1.1,1.1,0,0,0-.29.32.8.8,0,0,0,.47,1.17.79.79,0,0,0,.88-.35l0-.06c0-.06.05-.12.07-.17s0,0,0,0h0l0-.07s0,0,0-.06a.07.07,0,0,1,0-.05h0A.44.44,0,0,0,188.06,135.2Z"/>
        <path class="cls-3" d="M183.59,133.59a.4.4,0,0,0-.45-.29.69.69,0,0,0-.51.21,1,1,0,0,0-.28.62.55.55,0,0,0,.12.35.4.4,0,0,0,.37.31.84.84,0,0,0,.65-.44A1.06,1.06,0,0,0,183.59,133.59Z"/>
        <path class="cls-3" d="M185.39,133.17a.38.38,0,0,0-.08-.11.58.58,0,0,0-.59-.21.93.93,0,0,0-.67,1.11.5.5,0,0,0,.33.65.82.82,0,0,0,.79-.26A.92.92,0,0,0,185.39,133.17Z"/>
        <path class="cls-3" d="M189.45,133.06v0a.65.65,0,0,0-.48-.63.91.91,0,0,0-1,.43.93.93,0,0,0-.14.36.62.62,0,0,0-.18-.38l0-.07v0h0a.71.71,0,0,0-.54-.32,1,1,0,0,0-.83.53.66.66,0,0,0,0,.65.83.83,0,0,0,1,.54.8.8,0,0,0,.43-.36.88.88,0,0,0,.18-.39.59.59,0,0,0,0,.13,1.11,1.11,0,0,0,.28.79.68.68,0,0,0,.91,0,1.3,1.3,0,0,0,.39-.63,1.41,1.41,0,0,0,.05-.35A1,1,0,0,0,189.45,133.06Z"/>
        <path class="cls-3" d="M191.25,130.61a1.16,1.16,0,0,0-1.11-.84.8.8,0,0,0-.8.7,1.67,1.67,0,0,0-.08.2,1,1,0,0,0-.34-.35,1.18,1.18,0,0,0-.37-.14.91.91,0,0,0-1.08.4,1.06,1.06,0,0,0-.13.39.9.9,0,0,0-.42-.55.73.73,0,0,0-.87.11,1.21,1.21,0,0,0-.38,1,.83.83,0,0,0,.33.61.66.66,0,0,0,1,.11,1.61,1.61,0,0,0,.35-.79.9.9,0,0,0,.08.21,1,1,0,0,0,1.87-.2.82.82,0,0,0,.59.45,1.17,1.17,0,0,0,1.33-1.29Z"/>
        <path class="cls-3" d="M185.49,131.06a1,1,0,0,0-.67-.45.76.76,0,0,0-.84.55,0,0,0,0,1,0,0h0a1.19,1.19,0,0,0-.12.51.93.93,0,0,0-.24-.46.92.92,0,0,0-1.16-.09,1,1,0,0,0-.42.55,1.24,1.24,0,0,0,0,.27.94.94,0,0,0-.95-.77,1,1,0,0,0-1,1,.71.71,0,0,0,.44.63.69.69,0,0,0,.76.32,1,1,0,0,0,.79-1,.56.56,0,1,1,.22.34.55.55,0,0,0,.19.15.89.89,0,0,0,.73.16.94.94,0,0,0,.7-.94,1.2,1.2,0,0,0,.13.39.7.7,0,0,0,.95.25A1.12,1.12,0,0,0,185.49,131.06Z"/>
        <path class="cls-3" d="M183.16,129.11a.89.89,0,0,0-1.33,0,1,1,0,0,0-.47,1,.9.9,0,0,0,.37.61.61.61,0,0,0,1,.18,1.16,1.16,0,0,0,.25-.29,1.25,1.25,0,0,0,.41-.57A.92.92,0,0,0,183.16,129.11Z"/>
        <path class="cls-3" d="M186.45,128.43a.89.89,0,0,0-1,.61.7.7,0,0,0,0,.14,1,1,0,0,0-1.21-.43.87.87,0,0,0-.48.52.55.55,0,0,0-.15.57,1.34,1.34,0,0,0,.12.24v0a.68.68,0,0,0,.63.48h.06a1,1,0,0,0,.42,0,1,1,0,0,0,.71-.84l.08.12a.76.76,0,0,0,.87.38,1,1,0,0,0,.73-.88A.93.93,0,0,0,186.45,128.43Z"/>
        <path class="cls-3" d="M184.55,127.06a1,1,0,0,0-.49-.41l-.06,0a.86.86,0,0,0-.59-.05.72.72,0,0,0-.42.32,1.07,1.07,0,0,0-.08,1.49.81.81,0,0,0,1.11.07.42.42,0,0,0,.27-.07.86.86,0,0,0,.4-.64A1,1,0,0,0,184.55,127.06Z"/>
        <path class="cls-3" d="M193.74,125.61a1.1,1.1,0,0,0-.6-.45,1.07,1.07,0,0,0-.78.09.65.65,0,0,0-.3.33,1.4,1.4,0,0,0-.16.26.85.85,0,0,0-.78-.63,1.12,1.12,0,0,0-.87.54.69.69,0,0,0-.11.13.9.9,0,0,0-.12.24,1.19,1.19,0,0,0-.71-.61.65.65,0,0,0-.28,0,1.18,1.18,0,0,0,.51-.61.64.64,0,0,0,.44.42,1.14,1.14,0,0,0,1.25-.37.7.7,0,0,0,.11-.21h0a.61.61,0,0,0,.33.26.94.94,0,0,0,1.22-.94,1,1,0,0,0-1.46-.83.84.84,0,0,0-.35.35.93.93,0,0,0-1.41.19,1,1,0,0,0-.15.47.35.35,0,0,0-.06-.14.91.91,0,0,0-1-.4,1,1,0,0,0-.61.43.87.87,0,0,0-1.39-.09,1,1,0,0,0-.21.84.8.8,0,0,0,.59.6.77.77,0,0,0,.45,0,.73.73,0,0,0,.58-.39.91.91,0,0,0,.18.21.56.56,0,0,0,.59.33.55.55,0,0,0-.26.26c0,.1-.09.19-.13.29h0a1.09,1.09,0,0,0-.52-.36,1,1,0,0,0-1,.27.61.61,0,0,0-.12.16,1,1,0,0,0-.57-.34,1,1,0,0,0-.53,0,1.25,1.25,0,0,0,.51-1.35v0a1,1,0,0,0,0-.17.59.59,0,0,0-.58-.57.55.55,0,0,0-.18,0,1,1,0,0,0-1,.25,1,1,0,0,0-.3,1,1,1,0,0,0,.26.45h0a.65.65,0,0,0,.82.62l.14-.05a1,1,0,0,0-.25.28,1,1,0,0,0-.11.79.35.35,0,0,0,0,.14.67.67,0,0,0,.18.56.83.83,0,0,0,.59.2,1.32,1.32,0,0,0,.86-.37h0a1,1,0,0,0,.82.54,1.18,1.18,0,0,0,.91-.54.73.73,0,0,0,.41.23,1.09,1.09,0,0,0,.57,0l-.1,0a.85.85,0,0,0-.37.4.53.53,0,0,0-.63-.23,1.48,1.48,0,0,0-.43.27.73.73,0,0,0-.26.14.67.67,0,0,0,0,.94.57.57,0,0,0,.12.15.86.86,0,0,0,.8.22c.2-.09.22-.1.08,0l.12,0a.77.77,0,0,0,.27-.17.7.7,0,0,0,.19-.26.66.66,0,0,0,.27.12.69.69,0,0,0,.72-.25l0,0a.42.42,0,0,0,.11-.15.76.76,0,0,0,.06.16.71.71,0,0,0,.61.38,1.34,1.34,0,0,0,.91-.46,1.18,1.18,0,0,0,.23-.35,1.35,1.35,0,0,0,.16-.58.64.64,0,0,0-.46-.61.79.79,0,0,0-.59.08.89.89,0,0,0-.25.14.4.4,0,0,0-.11,0,.67.67,0,0,0-.5.53.75.75,0,0,0-.87-.45,1.14,1.14,0,0,0,.47-.35,1.45,1.45,0,0,0,.32-.63s0,0,0,0a1,1,0,0,0,1.29.29,1.15,1.15,0,0,0,.48-.66,1,1,0,0,0,.46.53,1.08,1.08,0,0,0,1.25-.17A1,1,0,0,0,193.74,125.61Z"/>
        <path class="cls-3" d="M194.61,123.66a.78.78,0,0,0-.42-.5l0,0a.71.71,0,0,0-.79.07,1.14,1.14,0,0,0-.43.91.68.68,0,0,0,.67.67A1,1,0,0,0,194.61,123.66Z"/>
        <g>
          <path class="cls-3" d="M194.14,121.47Z"/>
          <path class="cls-3" d="M196.75,118A1.71,1.71,0,0,0,196,118a1,1,0,0,0-.56.48l0-.06a.94.94,0,0,0-1.3.08,1.5,1.5,0,0,0-.23.33.75.75,0,0,0-.15-.2.83.83,0,0,0-1.05-.08,1,1,0,0,0-.34.32.88.88,0,0,0,0,1,.65.65,0,0,0,.13.41.69.69,0,0,0,.57.32,1,1,0,0,0-.42.48,1.17,1.17,0,0,0-1.25,0,.77.77,0,0,0-.26.28.9.9,0,0,0-.19-.15.87.87,0,0,0-1.24.24s0,0,0,0l0,0a1,1,0,0,0-.16,1.13,1,1,0,0,0,1.8-.12.91.91,0,0,0,.58.45,1,1,0,0,0,1-.39l0,0a.89.89,0,0,0,.43,0,1.08,1.08,0,0,0,1.34-.52l0,0a.66.66,0,0,0,.78.32,1.19,1.19,0,0,0,.81-.79.57.57,0,0,0,0-.18.76.76,0,0,0,0-.21,1.06,1.06,0,0,0-.75-1,1,1,0,0,0-1.2.52,1.16,1.16,0,0,0-.94-.29,1.23,1.23,0,0,0,.47-.54l.09.08a.65.65,0,0,0,.73.27,1.49,1.49,0,0,0,.66-.4,1,1,0,0,0,.24.22.79.79,0,0,0,.92-.11.66.66,0,0,0,.35-.28,2.31,2.31,0,0,0,.27-1A.62.62,0,0,0,196.75,118Z"/>
        </g>
        <path class="cls-3" d="M188.91,121.64a.42.42,0,0,0-.14-.06l-.14,0a.74.74,0,0,0-.64.12l-.11.09a.88.88,0,0,0-.22.9.84.84,0,0,0,.73.57.41.41,0,0,0,.38.06.85.85,0,0,0,.59-.81A.92.92,0,0,0,188.91,121.64Z"/>
        <path class="cls-3" d="M187.16,121.62a1.08,1.08,0,0,0-1-.27h0a.75.75,0,0,0-.32.1.79.79,0,0,0-.38.71,1.75,1.75,0,0,0,0,.24.71.71,0,0,0,.64.7.56.56,0,0,0,.4.21.92.92,0,0,0,.88-.54A1,1,0,0,0,187.16,121.62Z"/>
        <path class="cls-3" d="M190.46,119.67a.93.93,0,0,0-1.13-.63,1,1,0,0,0-.7.63l-.08-.07a.83.83,0,0,0-.9-.28,1.07,1.07,0,0,0-.19,1.87,1,1,0,0,0,1.06,0,1,1,0,0,0,.41-.6l.12,0,.06.08a.75.75,0,0,0,.86.07A1,1,0,0,0,190.46,119.67Z"/>
        <path class="cls-3" d="M192.16,119.63l0-.09a.72.72,0,0,0-.54-.56.86.86,0,0,0-.7,1.54.69.69,0,0,0,1,0A.86.86,0,0,0,192.16,119.63Z"/>
        <path class="cls-3" d="M198.62,116h0a.61.61,0,0,0-.41-.73,1,1,0,0,0-1.07.47l0,0a1,1,0,0,0-.64-.53,1.09,1.09,0,0,0-1.22.48,1.26,1.26,0,0,0-.14.44.87.87,0,0,0-.57-.45.88.88,0,0,0-1,.42.79.79,0,0,0-.35-.27.8.8,0,0,0-.31,0,1,1,0,0,0-.76.24,1.1,1.1,0,0,0-.35.68,1,1,0,0,0-.34-.6.85.85,0,0,0-1.29.21,1.45,1.45,0,0,0-.11.25.69.69,0,0,0-.63-.48s0,0,0,0a.67.67,0,0,0-.28,0,.65.65,0,0,0-.49.36,1.23,1.23,0,0,0-.3.7.47.47,0,0,0,0,.21.94.94,0,0,0,.32.75.65.65,0,0,0,.77.1,1.55,1.55,0,0,0,.52-.59v0a.7.7,0,0,0,.43.64.76.76,0,0,0,.61,0l.07,0a1.45,1.45,0,0,0,.69-.94l0-.16a1.07,1.07,0,0,0,.45.65.74.74,0,0,0,.92-.16.91.91,0,0,0,.37-.24.64.64,0,0,0,.14-.22l0,0a2,2,0,0,0,.11.28.66.66,0,0,0,1,.13,1.6,1.6,0,0,0,.41-.74.78.78,0,0,0,.55.38,1,1,0,0,0,.64-.1,1,1,0,0,0,.51-.27.09.09,0,0,0,0,0,.77.77,0,0,0,1.05.5.8.8,0,0,0,.38-.37.61.61,0,0,0,.21-.37,1.09,1.09,0,0,0,0-.44c0-.07,0-.14,0-.2Z"/>
      </g>
      <g id="Слой_138" data-name="Слой 138">
        <g>
          <path class="cls-1" d="M77.57,116.39l0,0Z"/>
          <path class="cls-1" d="M111.16,150.88c-1.44-6.06-3.1-12.07-4.54-18.13q-4.37-18.47-7.13-37.25c-.94-6.32-.91-13.49-4-19.25a.94.94,0,0,0-1-.43L82.57,78c-3.27.58-6.9.84-9.7,2.78a1,1,0,0,0,.59,1.74c.78,3.29,1.59,6.57,2.39,9.86l-2.27.5c-.42.1-1,.44-1.21-.11a5.15,5.15,0,0,1,0-1.3,6.54,6.54,0,0,0-.08-.89c-.1-.49-.36-.92.26-1.15a5.28,5.28,0,0,1,1.26-.07,8.69,8.69,0,0,0,1.13-.13c.08,0,0-.13,0-.13a10.71,10.71,0,0,0-2.53.11c-.24,0-.52.06-.61.33s.05.28.09.43a6.08,6.08,0,0,1,.26,1.35,8.41,8.41,0,0,0,.09,2.07.16.16,0,0,0,.2.11c1.19-.23,2.38-.5,3.56-.76l.39,1.55h0a7.32,7.32,0,0,0-3.33.53.16.16,0,0,0-.11.2,10.6,10.6,0,0,1,.52,2.68c0,.27-.09.72.16.93s1-.17,1.23-.24l2.39-.67c.07.26.13.53.2.8.35,1.42.67,2.85.95,4.28-.65.07-1.29.21-1.92.32-.36.06-1,.35-1.21-.07a5.52,5.52,0,0,1-.06-1.17,9.18,9.18,0,0,0-.19-.91c-.12-.41-.41-.71-.11-1s1.13-.18,1.46-.19.82,0,1.22,0a.12.12,0,0,0,0-.24,5.6,5.6,0,0,0-2.16,0c-.29,0-.87.07-1,.38s.22,1,.31,1.35c.2.79,0,1.6.2,2.36a.19.19,0,0,0,.18.14,5.7,5.7,0,0,0,1.64-.23c.57-.1,1.16-.17,1.73-.3.3,1.58.57,3.17.82,4.77a19,19,0,0,0-1.94.49,5,5,0,0,1-.85.28c-.25-.09-.22-.54-.28-.77a6,6,0,0,0-1-2.64,11.67,11.67,0,0,1,3.46-.62,0,0,0,0,0,0-.08c-1.08-.6-2.69.16-3.77.49a.14.14,0,0,0-.06.24c.9.91,1.06,2.47,1.25,3.68a.16.16,0,0,0,.2.12,24.34,24.34,0,0,1,3-.82c.39,2.51.74,5,1.11,7.55.13.91.27,1.81.41,2.71l-2.71.57a5.3,5.3,0,0,0-.51-2.7c.07.19-.18-.28-.18-.24,0-.22.45-.46.61-.56a3.75,3.75,0,0,1,2.15-.49c.08,0,.09-.12,0-.13a3.27,3.27,0,0,0-3.08,1.11.12.12,0,0,0,0,.18c.77.44.81,2.26.67,3a.13.13,0,0,0,.17.17l2.89-.58c.23,1.41.47,2.81.72,4.22a.69.69,0,0,0-.4,0l-1.29.21a3.31,3.31,0,0,1-1,.07,4.4,4.4,0,0,1,.07-.77,3.16,3.16,0,0,0,0-.75,1.87,1.87,0,0,0-.48-1,15.36,15.36,0,0,1,2.34-.35c.07,0,.1-.12,0-.13a6.62,6.62,0,0,0-2.65.28.14.14,0,0,0-.06.23,2.15,2.15,0,0,1,.6,1.84c0,.25-.18.67,0,.9a6.72,6.72,0,0,0,2.7-.23.14.14,0,0,0,.23.14c.58,3.22,1.22,6.44,1.88,9.65a8.85,8.85,0,0,1-1.77.08c-.5-.09-.49-.21-.51-.67a1.7,1.7,0,0,0-.1-.63c-.18-.51-1.17-1.47-.19-1.77a7.59,7.59,0,0,1,1.83.15s0,0,0,0a3.69,3.69,0,0,0-2.24-.22c-.6.24-.11,1,.1,1.35a2.57,2.57,0,0,1,.35.75,4.61,4.61,0,0,1,0,.83c0,.15,0,.32.12.43s.86.05,1.09.05a10,10,0,0,0,1.34-.1c.12.56.23,1.11.35,1.67h0a13.26,13.26,0,0,0-2.56.54.12.12,0,0,0-.07.18,6.08,6.08,0,0,1,.62,3.22.13.13,0,0,0,.2.11c.8-.39,1.72-.09,2.53-.43l0,0c.31,1.49.63,3,1,4.49l-1.75.2c-.39,0-.53.19-.7-.26a5.73,5.73,0,0,1-.22-.93c-.09-.36-.53-1.43-.18-1.72.18-.16.75-.16,1-.19a9.24,9.24,0,0,1,1.05-.06c.14,0,.14-.2,0-.22a6.09,6.09,0,0,0-1.35,0c-.29,0-.87.05-1.1.27a.27.27,0,0,0-.11.22,4.52,4.52,0,0,0,.31,1.37c.11.48.18,1,.33,1.46,0,.17.07.32.22.41s.77,0,1,0l1.55-.17c.11.5.21,1,.32,1.49-.9,0-1.79.16-2.69.13a.14.14,0,0,0-.14.14c.16,1.3.3,2.6.4,3.91a.14.14,0,0,0,.18.14,5.83,5.83,0,0,1,1.64-.33c.35,0,.7.06,1,0a.16.16,0,0,0,.12-.13l0-.09c0-.13-.15-.29-.26-.15s-1,0-1.26,0a5.7,5.7,0,0,0-1.22.29,27.35,27.35,0,0,1-.31-3.1c0-.31-.09-.36.23-.46a3.81,3.81,0,0,1,.76,0,7.58,7.58,0,0,0,1.5-.25c.34,1.62.68,3.25,1,4.87a25.92,25.92,0,0,0-2.91.23.16.16,0,0,0-.11.27,4.22,4.22,0,0,1,.55,2.56c0,.28,0,1,.22,1.17s.9.06,1.2,0c.61-.07,1.25-.12,1.86-.25L89,159.76a6.56,6.56,0,0,1-2.08.15c-.58,0-1,.06-1.16-.71a4.78,4.78,0,0,1,0-1,3.63,3.63,0,0,0-.62-2.58c.91-.22,1.83-.35,2.75-.54a.07.07,0,0,0,0-.14,10.86,10.86,0,0,0-3,.45.15.15,0,0,0-.06.25,3.58,3.58,0,0,1,.61,2.85c0,.41-.16,1.42.23,1.74s1.34.07,1.78.06,1.24.12,1.67-.18l2.11,10.43a.93.93,0,0,0,.88.67,61.11,61.11,0,0,0,20.17-1.39.9.9,0,0,0,.64-.84C113.51,162.87,112.58,156.83,111.16,150.88ZM74.68,98l-.65.18a.38.38,0,0,1-.29-.51c-.08-.29-.06-.67-.11-1s-.21-.81-.26-1.21,0-.52.56-.67c.78-.21,1.59-.25,2.38-.4,0,0,0,0,0,0,.25,1,.49,2,.73,2.94Zm9.81,40.37c-.76.27-1.59.09-2.33.4a6.31,6.31,0,0,0-.62-3c.78-.22,1.58-.37,2.37-.59l0,0c.23,1.07.45,2.14.68,3.21A.13.13,0,0,0,84.49,138.35Zm2,15.42c-.29,0-.87.27-1.14.14-.57-.26-.47-.89-.48-1.36a4.17,4.17,0,0,0-.48-2.08,20,20,0,0,0,2.66-.34l.06.3c.21,1.06.43,2.12.64,3.18C87.35,153.64,86.93,153.71,86.51,153.77Z"/>
        </g>
        <path class="cls-1" d="M67.23,80c-2.35.28-4.66.82-7,1.18s-5.07.51-7.33,1.43a1.47,1.47,0,0,0-.64,2.22c-1.66.24-3.34.28-5,.43a10.42,10.42,0,0,0-4.26,1s0,.07,0,.06a28.18,28.18,0,0,1,5-.9c1.5-.1,3-.16,4.49-.4a1.36,1.36,0,0,0,.76.2,31.29,31.29,0,0,0,7-1.37c2.41-.58,4.87-1,7.26-1.66C68.7,81.9,68.52,79.87,67.23,80Z"/>
        <path class="cls-1" d="M68.26,84.47c-2.36.26-4.61,1.28-7,1.73-2.55.49-5.51.57-7.89,1.65a.93.93,0,0,0-.57,1,.1.1,0,0,0-.08,0,44.82,44.82,0,0,0-8.36,1.57c-.11,0-.07.21.05.17a46.88,46.88,0,0,1,8.31-1.5.15.15,0,0,0,.11-.09A1.35,1.35,0,0,0,54,90c2.55.19,5.51-.74,8-1.24a28.2,28.2,0,0,0,6.85-2A1.23,1.23,0,0,0,68.26,84.47Z"/>
        <path class="cls-1" d="M69.28,89.56c-2.75.36-5.49.75-8.23,1.2a21.59,21.59,0,0,0-3.15.77,21.07,21.07,0,0,0-3.06,1,.13.13,0,0,0-.11,0c-1.62.37-3.23.77-4.86,1.12a36.09,36.09,0,0,0-4.88,1s0,0,0,0a23,23,0,0,0,4.78-.78c1.53-.31,3.06-.63,4.58-1a.69.69,0,0,0,0,1c1.77,1.51,4.44,0,6.42-.38,2.95-.54,5.92-1,8.87-1.51C71,91.74,70.67,89.38,69.28,89.56Z"/>
        <path class="cls-1" d="M71.32,97.07c-1.18-.52-2-.1-3.22.2-1.44.37-2.89.65-4.35.88-2.32.36-5.83.1-7.79,1.55a.86.86,0,0,0,.43,1.58c1.33,0,2.66-.34,4-.4s2.68-.14,4-.32a43.15,43.15,0,0,0,4.37-.83c1.19-.3,2.17-.4,2.85-1.48A.86.86,0,0,0,71.32,97.07Z"/>
        <path class="cls-1" d="M71.73,101.12a40.07,40.07,0,0,1-7,1.67,41,41,0,0,0-7.15,1.26c-1.27.42-1.16,2.66.34,2.48,5-.58,10.11-1.08,14.79-3.16C74,102.81,73.06,100.68,71.73,101.12Z"/>
        <path class="cls-1" d="M72.87,107.19c-2.61.69-5.27,1.14-7.93,1.63-2.31.43-5.07.67-7,2.16-.71.57-.05,1.57.68,1.63,2.35.19,5-.82,7.33-1.24,2.55-.46,5.1-.93,7.61-1.62A1.33,1.33,0,0,0,72.87,107.19Z"/>
        <path class="cls-1" d="M74.59,112.51a3.59,3.59,0,0,0-3.24,0,15.42,15.42,0,0,1-3.92,1,37.73,37.73,0,0,0-7.67,1.29,1.08,1.08,0,0,0-.65,1.58,12,12,0,0,1-1.87.6,20.42,20.42,0,0,1-2.7.28,24.75,24.75,0,0,0-4.77.63c-.06,0-.05.12,0,.11,1.78-.2,3.54-.41,5.33-.52a9.63,9.63,0,0,0,4.13-.9,1.1,1.1,0,0,0,.81.4,15.18,15.18,0,0,0,3.67-.4c1.32-.21,2.66-.25,4-.4a14,14,0,0,0,3.14-.62,19,19,0,0,0,3.73-1.34A1,1,0,0,0,74.59,112.51Z"/>
        <path class="cls-1" d="M74.41,117.15a24.35,24.35,0,0,0-6.32,1,57.25,57.25,0,0,0-7,1.5,1.1,1.1,0,0,0-.8,1l0,.2V121a1.1,1.1,0,0,0,1,.8,26,26,0,0,0,6.5-.8c2.13-.43,4.37-1.31,6.55-1.3A1.27,1.27,0,0,0,74.41,117.15Z"/>
        <path class="cls-1" d="M76,123.9c-4.81.53-10.08.93-14.57,2.84a.87.87,0,0,0-.26,1.44,43.06,43.06,0,0,0-8.89,1.44s0,0,0,0c3-.44,6-1.07,9-1.27h0a1,1,0,0,0,.59.27c2.17.24,4.4-.72,6.52-1,2.62-.42,5.27-.69,7.89-1.14C77.79,126.21,77.47,123.74,76,123.9Z"/>
        <path class="cls-1" d="M76.66,128.59a31,31,0,0,1-8,1.27c-2.13.18-5.09.23-6.86,1.59a1.28,1.28,0,0,0-.35.45c-1.33.14-2.67.47-4,.71a26.75,26.75,0,0,0-4.45.88,0,0,0,0,0,0,.06,23.81,23.81,0,0,0,4.18-.68c1.39-.25,2.83-.42,4.2-.77-.22.82.29,1.82,1.3,1.43,4.69-1.78,9.94-.74,14.68-2.44C78.9,130.53,78.24,128,76.66,128.59Z"/>
        <path class="cls-1" d="M78.09,134.6c-4.56.87-9,2.47-13.57,3.22-1.39.23-.89,2.16.3,2.28,2.13.21,4.63-.65,6.69-1.12a47.21,47.21,0,0,0,7.25-1.93A1.27,1.27,0,0,0,78.09,134.6Z"/>
        <path class="cls-1" d="M79.45,140c-2.55.62-5,1.22-7.64,1.59-2.29.33-5.26.31-7.29,1.49a.68.68,0,0,0-.32.43l-4.44.68c-1.5.23-3,.38-4.53.73-.07,0-.06.13,0,.13,1.48-.1,3-.4,4.42-.62l4.51-.68a.75.75,0,0,0,.53.69c2.34.65,5.37-.2,7.75-.53a29.93,29.93,0,0,0,7.89-1.79C81.58,141.56,80.67,139.69,79.45,140Z"/>
        <path class="cls-1" d="M79.52,144.36a62.57,62.57,0,0,1-7.82,1.32c-2,.29-4.72.53-6.28,2a.61.61,0,0,0,.13,1c1.91.86,4.5-.27,6.48-.55a65.33,65.33,0,0,0,8.13-1.35A1.22,1.22,0,0,0,79.52,144.36Z"/>
        <path class="cls-1" d="M81.9,151.19c-2.42-.14-5,.65-7.34,1.18-1.21.28-2.42.54-3.64.77a22.63,22.63,0,0,0-4.2.83.78.78,0,0,0,0,1.49c2.37.64,5.21-.11,7.56-.59,2.62-.53,5.32-.87,7.92-1.47C83.48,153.1,83.12,151.26,81.9,151.19Z"/>
        <path class="cls-1" d="M82.78,156.12c-1.14-.68-2.36-.27-3.62-.11l-3.89.52c-2.42.36-5.64.41-7.6,2a.79.79,0,0,0,.35,1.32c2.35.57,5.26-.46,7.62-.78l4.15-.55c1.21-.16,2.29-.1,3.17-1A.91.91,0,0,0,82.78,156.12Z"/>
        <path class="cls-1" d="M83.62,161.44c-2.58.41-5.15.89-7.7,1.51-2.25.54-5.12,1-7,2.46a.89.89,0,0,0-.26,1.15,9.88,9.88,0,0,1-2.31.19,9,9,0,0,0-2,.41l-2.45.7a11.37,11.37,0,0,0-2.14.69s0,.08,0,.07a10.56,10.56,0,0,0,2.18-.55l2.45-.7a9.25,9.25,0,0,1,2.56-.41,5.88,5.88,0,0,0,1.88-.23.82.82,0,0,0,.53.2c2.39.13,5-.91,7.3-1.43q3.83-.87,7.71-1.46C86.05,163.79,85.33,161.17,83.62,161.44Z"/>
        <path class="cls-1" d="M84.78,166.22a10.33,10.33,0,0,0-4.15.49c-1.46.34-2.92.61-4.41.82-2.29.31-5.62.42-7,2.51a.42.42,0,0,0-.07.29c-1.64.25-3.27.53-4.92.74-.77.1-1.53.19-2.3.27a5.69,5.69,0,0,0-1.92.37s0,.06,0,0c3-.41,6.13-.65,9.16-1.23a.54.54,0,0,0,.33.28,9,9,0,0,0,3.22-.18c1.42-.2,2.85-.34,4.27-.52s2.55-.36,3.81-.64a22.15,22.15,0,0,0,4-.92C85.73,168.15,86.1,166.46,84.78,166.22Z"/>
        <path class="cls-1" d="M85.58,170.7c-1.16-.34-2.2.19-3.32.54a38.19,38.19,0,0,1-3.94,1.07c-2.49.49-5.53.13-7.72,1.58a.83.83,0,0,0-.33.37.11.11,0,0,0-.12-.08l-5.49.87-2.66.42c-.34.06-1.13,0-1.33.34a.07.07,0,0,0,0,.07l.06,0s0,0,0,0l0,0s0,0,0,0a4.41,4.41,0,0,1,1.08-.16l1-.15,2.5-.39,4.82-.76h0a.9.9,0,0,0,.81,1.11,27.34,27.34,0,0,0,8-.62A36.43,36.43,0,0,0,83,173.79c1.08-.33,2.31-.49,3.06-1.39A1,1,0,0,0,85.58,170.7Z"/>
        <path class="cls-1" d="M87,174.79a65.56,65.56,0,0,0-12.64,2.62c-4.14,1.4-8.65,1.16-12.81,2.48a.07.07,0,0,0,0,.13c2.09-.43,4.16-.85,6.27-1.15a34.62,34.62,0,0,0,6.4-1.23A68.76,68.76,0,0,1,87,175C87.1,175,87.07,174.78,87,174.79Z"/>
        <path class="cls-1" d="M83.67,159.83c-4,1.18-8.19,1.36-12.25,2.12-2.07.38-4.13.8-6.19,1.22s-4.23.76-6.29,1.3a.06.06,0,0,0,0,.12c4.19-.6,8.33-1.7,12.5-2.43s8.3-.91,12.27-2.09A.13.13,0,0,0,83.67,159.83Z"/>
        <path class="cls-1" d="M67.23,159c-1.5.18-3,.39-4.47.62a26.91,26.91,0,0,0-4.73.92s0,.09,0,.09a41,41,0,0,0,4.28-.7c1.63-.27,3.27-.49,4.91-.69C67.38,159.18,67.38,158.94,67.23,159Z"/>
        <path class="cls-1" d="M66.26,155.33c-2.93.56-6.15.19-9,1.36-.07,0-.05.13,0,.11,3-.76,6-.66,9-1.23C66.49,155.54,66.42,155.3,66.26,155.33Z"/>
        <path class="cls-1" d="M81.45,148.48a129.61,129.61,0,0,1-13.15,2c-3.87.39-7.91.68-11.53,2.22,0,0,0,.1,0,.08,4-1.35,8.1-1.72,12.27-2.14a119,119,0,0,0,12.44-1.92C81.68,148.69,81.61,148.44,81.45,148.48Z"/>
        <path class="cls-1" d="M65.36,147.12c-1.51.2-3,.45-4.51.76a29,29,0,0,0-4.7,1.23.09.09,0,0,0,0,.17c1.49-.29,2.94-.76,4.41-1.07s3.16-.6,4.76-.81C65.54,147.38,65.54,147.1,65.36,147.12Z"/>
        <path class="cls-1" d="M63,139.88c-2.75.24-5.77.27-8.36,1.32a.07.07,0,0,0,0,.13c1.44-.24,2.85-.62,4.3-.79s2.68-.26,4-.39C63.2,140.14,63.2,139.87,63,139.88Z"/>
        <path class="cls-1" d="M78.8,132.6a62.28,62.28,0,0,1-13.35,3c-2.07.19-4.15.2-6.22.39a14.15,14.15,0,0,0-5.51,1.32s0,.11,0,.09A28.66,28.66,0,0,1,60,136.16c2.09-.15,4.19-.18,6.27-.41a62.82,62.82,0,0,0,12.61-3A.1.1,0,0,0,78.8,132.6Z"/>
        <path class="cls-1" d="M75.64,121.12c-3.9,1-8,1.22-11.93,2.09-2,.44-4,.92-5.94,1.32s-4.12.61-6.16,1c0,0,0,.09,0,.08,4-.15,8.07-1.31,12-2.17s8.14-1.06,12.1-2.1A.13.13,0,0,0,75.64,121.12Z"/>
        <path class="cls-1" d="M60.1,119.7a46.22,46.22,0,0,0-9.54,2,.07.07,0,0,0,0,.13c1.55-.25,3.06-.72,4.59-1A48.07,48.07,0,0,1,60.1,120C60.26,119.93,60.26,119.68,60.1,119.7Z"/>
        <path class="cls-1" d="M57.79,112.79a53,53,0,0,0-8.93,1.55,0,0,0,0,0,0,.07c3-.4,6-1,9-1.4C57.94,113,57.91,112.78,57.79,112.79Z"/>
        <path class="cls-1" d="M73,105.35a2.82,2.82,0,0,0-1.89.4,12.71,12.71,0,0,1-3.26.89c-2.15.32-4.32.49-6.47.83s-4.35.78-6.51,1.25a62.41,62.41,0,0,0-6.76,1.69s0,0,0,0c2.12-.34,4.22-1,6.32-1.41s4.22-.88,6.35-1.23,4.23-.57,6.35-.83a18.45,18.45,0,0,0,2.67-.49c1-.28,2.11-1.1,3.14-.93C73.06,105.57,73.12,105.38,73,105.35Z"/>
        <path class="cls-1" d="M56.86,104.2a77.69,77.69,0,0,0-9.2,1.87.08.08,0,0,0,0,.15c3.09-.46,6.16-1.21,9.22-1.79C57.08,104.4,57,104.17,56.86,104.2Z"/>
        <path class="cls-1" d="M55.12,100.83l-4.29.65a20.33,20.33,0,0,0-4.26.75s0,0,0,0a20.13,20.13,0,0,0,4.15-.51l4.46-.67C55.35,101.05,55.28,100.8,55.12,100.83Z"/>
        <path class="cls-1" d="M70.68,93.59a12.14,12.14,0,0,0-2.87.37q-1.49.29-3,.63c-2,.47-4,1-6.07,1.4-4,.81-8.2.87-12.19,1.94-.12,0-.07.22.06.19,3.94-1,8-1.09,12-1.87,2-.39,4-.88,5.92-1.33,1-.23,2-.45,3-.64a27.79,27.79,0,0,0,3.13-.58C70.76,93.68,70.75,93.6,70.68,93.59Z"/>
        <path class="cls-1" d="M66.51,78.15a59.85,59.85,0,0,1-6,1.68,55.13,55.13,0,0,1-6.27.81c-3.79.34-7.87.43-11.44,1.89,0,0,0,.07,0,.06a56,56,0,0,1,6-1.15c2-.25,4-.38,6-.56a52.08,52.08,0,0,0,5.57-.74,48.74,48.74,0,0,0,6.14-1.74C66.73,78.35,66.67,78.1,66.51,78.15Z"/>
        <path class="cls-1" d="M79.51,113.29a6.18,6.18,0,0,1-1.64.42.41.41,0,0,1-.57-.17A.37.37,0,0,1,77,113a8,8,0,0,1,0-.85,2.39,2.39,0,0,0-.51-1.64,6.27,6.27,0,0,1,2.67-.66.09.09,0,0,0,0-.18,4.75,4.75,0,0,0-3,.7.13.13,0,0,0,0,.22c.7.52.53,1.65.52,2.41,0,.25-.08.72.11.93.47.52,2.24-.18,2.75-.34A.17.17,0,0,0,79.51,113.29Z"/>
        <path class="cls-1" d="M82.35,128.31a13,13,0,0,1-1.52.12c-.41,0-.6,0-.68-.43a4.93,4.93,0,0,1,0-.94c0-.42-.19-.81-.22-1.21,0-.83,1.23-.76,1.8-.74.07,0,.09-.11,0-.12-.47-.07-1.92-.19-2.12.43-.08.28.17.69.22,1,.15.73,0,1.44.06,2.17a.12.12,0,0,0,.12.12c.38,0,.76,0,1.14,0,.17,0,.87,0,1-.11a.11.11,0,0,0,.15.15c.13-.09.15-.1.15-.27S82.42,128.3,82.35,128.31Z"/>
        <path class="cls-1" d="M130.54,169.56a12,12,0,0,1-.86-1.91c-.21-2.77-.47-5.53-.76-8.29a65.32,65.32,0,0,0-.31-9.38c-.86-7.25-2.3-14.45-3.51-21.65-2.46-14.6-4.8-29.22-8-43.68-.87-4-1.79-8-2.72-11.91-.24-1-.49-2.07-.74-3.1a5.16,5.16,0,0,0-.59-1.8c-.43-.62-1.5-.82-1.78,0,0,.09.11.13.14,0,.35-1,1.46-.14,1.69.43a6.42,6.42,0,0,1,.23.86L114,72c.39,1.69.78,3.37,1.16,5.06q1.19,5.14,2.3,10.29c1.45,6.78,2.67,13.59,3.83,20.42q1.77,10.5,3.53,21c1.18,7,2.59,14,3.45,21a55,55,0,0,1,.37,6.77q-1.62-14.09-4.56-28c-.76-3.56-1.57-7.1-2.46-10.63s-1.82-7-2.43-10.56c-1.24-7.15-1.67-14.4-3.15-21.52-.84-4-1.86-8-2.88-12-.56-2.18-1.44-6.87-4.77-5.86a.07.07,0,0,0,0,.14c2-.59,3.33,1.39,3.85,3.06s.83,3.21,1.23,4.81c.85,3.4,1.65,6.81,2.34,10.24,1.37,6.81,1.82,13.72,2.94,20.56s3.21,13.58,4.68,20.38,2.69,13.51,3.69,20.32q.84,5.74,1.46,11.51l0,1.6a19.74,19.74,0,0,0,.85,7.14c.09,1.12.17,2.24.25,3.36,0,.18.29.18.28,0l-.18-2.5a8.38,8.38,0,0,0,.55,1A.13.13,0,0,0,130.54,169.56Zm-1.67-7.77c.15,1.47.28,3,.41,4.42A20.38,20.38,0,0,1,128.87,161.79Z"/>
        <path class="cls-1" d="M131.61,170.31c-.27-1.28-.53-2.56-.78-3.85-.28-3.43-.58-6.85-.88-10.28.16-2.48.56-4.94.84-7.43.8-7-.29-14-1.55-20.92-.65-3.58-1.35-7.14-1.87-10.74s-.84-7.4-1.14-11.11L124.4,83.79C124.08,80,124,76,122.65,72.35c-.32-.87-.68-1.71-1.06-2.55a11.06,11.06,0,0,0-1.14-2.25,2.05,2.05,0,0,0-2.8-.74c-.09.06,0,.21.09.15,1.93-1.26,3.07,1.64,3.65,3a26.42,26.42,0,0,1,1.8,5.1,76.32,76.32,0,0,1,1.09,10.46q.87,10.66,1.74,21.33c.28,3.35.57,6.71,1,10s1.11,6.74,1.73,10.1c1.27,6.81,2.46,13.74,1.85,20.69-.21,2.34-.59,4.65-.83,7q-1.25-14.15-2.69-28.27c-.35-3.44-.73-6.88-1.31-10.28s-1.41-7-2-10.45C122.54,98.79,122,91.88,121,85a94,94,0,0,0-2.25-11.27,32.33,32.33,0,0,0-1.59-4.91c-.48-1-1.27-2.12-2.55-2a.12.12,0,0,0,0,.24c1.77-.05,2.42,2.13,2.86,3.47.51,1.55,1,3.12,1.36,4.69.8,3.22,1.38,6.48,1.86,9.76,1,6.58,1.52,13.23,2.65,19.79.58,3.38,1.35,6.72,2,10.09s1.07,7,1.44,10.51q1.1,10.54,2.07,21.09c.31,3.29.61,6.59.9,9.88,0,.91-.07,1.81,0,2.73a51.41,51.41,0,0,0,.91,7.31c.11,1.31.23,2.61.34,3.91,0,.17.28.17.26,0,0-.51-.08-1-.13-1.53.12.55.23,1.1.34,1.64A.13.13,0,1,0,131.61,170.31Zm-1.7-10.94c0-.18,0-.37,0-.55l.36,4.18C130.1,161.8,130,160.59,129.91,159.37Z"/>
        <path class="cls-1" d="M135,89.87a216.39,216.39,0,0,0-.17-22.78.15.15,0,0,0-.15-.15l-3.76.08a.11.11,0,0,0,0,.22h2.35a3.69,3.69,0,0,1,1.1,0c.35.21.23,1,.25,1.36.09,1.73.15,3.46.2,5.19.08,3.46.07,6.92,0,10.38-.13,6.94-.49,13.87-.73,20.8s-.36,13.75-.07,20.62.93,13.52.75,20.32a126.53,126.53,0,0,1-2.24,20.64c.7-13.22.35-26.46,0-39.69q-.55-21.24-1.15-42.49-.17-6-.35-12c0-1.49,0-3.18-1-4.42a3,3,0,0,0-1.18-.94,2.09,2.09,0,0,0-.69-.19c-.11,0-1.63,0-1.3-.37a.11.11,0,0,0-.16-.15c-.43.4.28.7.63.76.77.13,1.33,0,2,.57a3.94,3.94,0,0,1,1.27,2.72c.2,1.67.13,3.39.18,5.06s.09,3.62.14,5.42q.3,10.75.59,21.51c.33,11.7.76,23.4,1,35.1-.31-3.78-.8-7.55-1.19-11.29-1.47-14.38-2.89-28.77-3.69-43.21q-.33-6.06-.53-12.13c0-1.11.31-3.18-.91-3.81a4,4,0,0,0-2-.23,13.23,13.23,0,0,0-2.73.4c-.1,0-.06.17,0,.15a16.19,16.19,0,0,1,2.69-.32,9.38,9.38,0,0,1,1.06,0,1.51,1.51,0,0,1,1.49,1.55c.15,1.68.07,3.41.13,5.1q.17,5.23.47,10.45c.4,7,.94,13.92,1.56,20.86s1.34,13.89,2.06,20.83,1.78,13.73,1.5,20.6c-.16,3.87-.93,7.67-1.3,11.52a43,43,0,0,0,.34,11.27c0,.14.22.08.2-.05a48.39,48.39,0,0,1-.33-10.89c.32-3.43,1-6.82,1.25-10.25,0,6.84-.11,13.68-.52,20.5-.05.24-.09.47-.14.7s.24.26.28.08v0a.13.13,0,0,0,.1-.13l0-.52a128,128,0,0,0,2.49-18.71,162,162,0,0,0-.34-19.83C133.65,116.65,134.51,103.27,135,89.87Z"/>
        <path class="cls-1" d="M140,71.87a5.13,5.13,0,0,0-1.52-3.72,3.08,3.08,0,0,0-3.23-.69c-.12.05-.07.24,0,.2a3.22,3.22,0,0,1,3.86,1.78c.77,1.5.6,3.3.47,4.93l-.87,10.47c-.58,7-1.37,13.94-1.6,20.91-.23,6.82.59,13.62.15,20.45s-1.19,13.74-1.82,20.6c-.72,7.84-1.38,15.68-2.17,23.51,0,.18.25.18.27,0,.6-7.22,1.31-14.44,2-21.66s1.44-14.4,2-21.62a97.63,97.63,0,0,0,.14-10.82c-.14-3.59-.33-7.19-.19-10.8.27-7.2,1.08-14.4,1.67-21.58.16-2,.33-4,.49-6.08A44.52,44.52,0,0,0,140,71.87Z"/>
        <path class="cls-1" d="M148.13,71.85c0-1.18-.25-2.61-1.39-3.24a1.79,1.79,0,0,0-2.41.42c-.06.09.08.16.14.08a1.66,1.66,0,0,1,2.22-.21,3,3,0,0,1,1.12,2.42,37.28,37.28,0,0,1-.1,4.84c-.16,3.43-.48,6.85-.91,10.26-.86,6.84-2.27,13.57-3.67,20.32a64,64,0,0,0-1.33,9.54c-.2,3.41-.34,6.82-.7,10.22-.74,6.88-2,13.69-3.2,20.51q-.51,2.93-1,5.84c1.06-8.15,1.76-16.35,2.44-24.54q1.8-21.87,3.56-43.73c.33-4,.67-8.1,1-12.16.11-1.33.21-3-1-4a1.89,1.89,0,0,0-2.52,0c-.08.08,0,.2.13.12a1.77,1.77,0,0,1,2.39.22,3.52,3.52,0,0,1,.78,2.66c0,1.62-.25,3.26-.38,4.89q-.44,5.14-.85,10.3l-1.68,20.61c-1.11,13.52-2,27.07-3.5,40.56q-.61,5.67-1.48,11.31c-.42,2.37-.83,4.75-1.25,7.13-.28,1.41-.57,2.82-.88,4.23,0,.14.18.2.21.06a3,3,0,0,0,.07-.32.11.11,0,0,0,.15-.08c.24-1.44.49-2.88.74-4.32q.54-2.88,1-5.77l2.07-11.79c1.25-7.11,2.59-14.22,3.41-21.4.41-3.62.56-7.24.78-10.87a72.9,72.9,0,0,1,1.67-10.89,207.05,207.05,0,0,0,3.62-21.29A91.62,91.62,0,0,0,148.13,71.85Z"/>
        <path class="cls-1" d="M153,69.68a7.27,7.27,0,0,0-3.91.54c-.1,0,0,.21.07.17a7.61,7.61,0,0,1,2.45-.52c.46,0,1.05-.07,1.2.44a5.57,5.57,0,0,1-.07,1.46c-.09,1.67-.23,3.34-.41,5-.37,3.43-.9,6.83-1.53,10.22-1.24,6.68-2.82,13.28-4.2,19.93s-2.32,13.53-3.3,20.33-2.1,13.74-3.45,20.56q-2.26,11.53-5.14,22.93a.12.12,0,0,0,.23.06c3.29-13.14,6-26.45,8.08-39.85,1-6.65,1.85-13.33,3.1-20s2.79-13,4.12-19.45a127.41,127.41,0,0,0,2.86-21.74A.14.14,0,0,0,153,69.68Z"/>
        <path class="cls-1" d="M160.88,72.48a7.64,7.64,0,0,0-2.9.15c0-.53.08-1,.09-1.58a.15.15,0,0,0-.16-.16L154,70.76c-.19,0-.19.3,0,.31l2.61.1c.35,0,.93-.11,1.13.22s-.07,1.2-.1,1.49a52.31,52.31,0,0,1-.88,5.54c-.73,3.59-1.51,7.18-2.27,10.77L150,110.6c-.73,3.44-1.49,6.88-2.44,10.27s-1.94,6.46-2.94,9.68c-2,6.4-3.86,12.9-4.29,19.62-.13,2-.09,4-.22,6-.55,2.19-1.09,4.38-1.6,6.58-1.21,2.52-2.88,4.87-3,7.75,0,.13.2.13.21,0,.12-2.54,1.47-4.68,2.61-6.87-.55,2.39-1.07,4.79-1.54,7.21,0,.09.13.13.15,0,.5-2.58,1-5.15,1.63-7.72.18-.36.36-.73.52-1.1a19.25,19.25,0,0,0,1.32-6.54c2-8,4.25-15.92,6.34-23.87a184.16,184.16,0,0,1,5.83-19,130.08,130.08,0,0,0,5.83-18.66A112.86,112.86,0,0,0,161,72.58.11.11,0,0,0,160.88,72.48Zm-21.77,88.84q-.17.42-.36.84c.42-1.79.85-3.59,1.3-5.38A17.64,17.64,0,0,1,139.11,161.32Zm21.61-87.94c0,.17,0,.33,0,.49l-.06,1.44c-.08,1.66-.21,3.31-.36,5q-.48,5-1.41,10a113.94,113.94,0,0,1-5.32,19c-1.18,3.14-2.44,6.25-3.48,9.44s-1.92,6.48-2.78,9.75q-2.62,10-5.23,20c-.56,2.15-1.12,4.31-1.67,6.46,0-.57.05-1.15.06-1.73a73.79,73.79,0,0,1,3.4-19.3c1.91-6.41,4.08-12.72,5.56-19.26,1.55-6.84,2.94-13.72,4.38-20.58l2.46-11.64A79.39,79.39,0,0,0,158,72.78c.68-.15,2-.46,2.54,0C160.79,73,160.73,73,160.72,73.38Z"/>
        <path class="cls-1" d="M165.6,74.31a.14.14,0,0,0-.13-.1l-2.3.3c-.14,0-.15.24,0,.22l1.32-.15a3.21,3.21,0,0,1,.65-.07c.17.08.27.49.31.64a9.05,9.05,0,0,1,0,2.6,34,34,0,0,1-.92,5.3c-.76,3.22-1.6,6.42-2.48,9.61-1.78,6.42-3.78,12.78-5.88,19.11-4.18,12.61-8.7,25.1-12.77,37.75-2.29,7.11-4.34,14.28-6.25,21.5a.08.08,0,0,0,.15,0c3-12.86,7.46-25.39,11.79-37.88s8.73-24.75,12.36-37.37Q163,90.44,164.38,85C165.23,81.51,166.16,77.93,165.6,74.31Z"/>
        <path class="cls-1" d="M169.47,76.17a2,2,0,0,0-2.59.07c-.1.1.06.26.16.16a1.74,1.74,0,0,1,2.12-.11,2.77,2.77,0,0,1,1.18,2.38,19.17,19.17,0,0,1-.66,4.81,77.55,77.55,0,0,1-2.74,9.58c-2.24,6.49-4.63,12.93-6.95,19.39s-4.53,12.82-7,19.17-5,12.52-7.42,18.82c-2.67,7-5.07,14.16-7.43,21.3,0,.11.14.16.17,0,2.1-6.81,4.5-13.55,7-20.22s5.36-13.22,7.92-19.88,5-13.62,7.44-20.44,5.13-13.67,7.35-20.61a51.09,51.09,0,0,0,2.54-11C170.71,78.42,170.58,77,169.47,76.17Z"/>
        <path class="cls-1" d="M174.75,78.2a9.72,9.72,0,0,0-3.8,0c-.13,0-.07.22.06.2a9.73,9.73,0,0,1,2.47-.1c.65.06,1,0,1,.65a11,11,0,0,1-.3,1.26c-.37,1.57-.76,3.14-1.19,4.69-.87,3.19-1.88,6.33-3,9.45-2.19,6.31-4.6,12.54-7,18.78-4.74,12.45-9.66,24.82-14.66,37.16-2.86,7.07-5.74,14.15-8.87,21.1a.09.09,0,1,0,.17.07c2.47-6.09,5-12.14,7.6-18.19s4.92-11.85,7.31-17.8c4.84-12,9.56-24.14,14-36.33a153.41,153.41,0,0,0,6.26-20.75A.13.13,0,0,0,174.75,78.2Z"/>
        <path class="cls-1" d="M179.36,80.2l-3.43-.2c-.15,0-.15.23,0,.24l3.25.24c-2.72,12.38-9.84,23.23-14.59,34.85-2.52,6.15-4.7,12.44-7.09,18.65a173.81,173.81,0,0,1-8.33,18.34c-3.33,6.37-6.79,12.72-9.23,19.5,0,.11.13.16.17,0a136.33,136.33,0,0,1,8.34-17.78,189.14,189.14,0,0,0,8.31-17.65c2.48-6.18,4.69-12.46,7.14-18.64s5.32-12,8.2-17.9c3.05-6.26,5.94-12.66,7.4-19.5A.15.15,0,0,0,179.36,80.2Z"/>
        <path class="cls-1" d="M181.57,82.08a1.15,1.15,0,0,0-1.55.85c0,.07.11.09.13,0,.15-.77,1.07-.84,1.66-.55,1,.49.77,1.83.49,2.69-.55,1.64-1.37,3.23-2.06,4.82l-4,9.27c-2.63,6.09-5.27,12.16-8,18.2q-8.06,17.81-17,35.15c-3.37,6.53-6.81,13-10.39,19.45-.05.1.1.18.15.09q10.26-18.7,19.59-37.87c6.24-12.87,12-25.92,17.7-39l2.46-5.72,1.2-2.79a9.54,9.54,0,0,0,.83-2.35A1.79,1.79,0,0,0,181.57,82.08Z"/>
        <path class="cls-1" d="M189,88.31c-.72-.76-1.81-.46-2.67-.1a7.59,7.59,0,0,0,.35-2.92.16.16,0,0,0-.12-.15,5.6,5.6,0,0,0-3.48.16c-.16.07-.09.33.08.27a5.45,5.45,0,0,1,2.23-.32c.45,0,.89,0,1,.49a3.74,3.74,0,0,1-.13,1.41,15.69,15.69,0,0,1-1.82,4.28q-2.32,4.33-4.64,8.67-4.6,8.59-9.23,17.18-9.27,17.25-18.54,34.5c-3.49,6.47-6.92,13-10.44,19.42-.06.12.12.22.18.1,6-11.33,12.16-22.6,18.23-33.9s12.17-22.59,18.28-33.87c1.72-3.18,3.45-6.36,5.16-9.55a35.5,35.5,0,0,0,2.83-5.61,3.18,3.18,0,0,1,1.93-.28c1,.31,1.08,1.39.79,2.26a26.09,26.09,0,0,1-2.24,4.16l-4.64,8.28-9.33,16.73c-6.18,11.09-12.31,22.21-18.51,33.29-3.47,6.21-6.94,12.41-10.66,18.47a.09.09,0,0,0,.15.09c7-11.46,13.26-23.35,19.86-35q10.06-17.77,20-35.62,1.41-2.52,2.81-5A54.16,54.16,0,0,0,189,90.9,2.4,2.4,0,0,0,189,88.31Z"/>
      </g>
    </g>
  </g>
</svg>
