<?xml version="1.0" encoding="utf-8"?>
<!-- Generator: Adobe Illustrator 21.1.0, SVG Export Plug-In . SVG Version: 6.00 Build 0)  -->
<svg version="1.1" id="Слой_1" xmlns="http://www.w3.org/2000/svg" xmlns:xlink="http://www.w3.org/1999/xlink" x="0px" y="0px"
	 viewBox="0 0 237.3 239.6" style="enable-background:new 0 0 237.3 239.6;" xml:space="preserve">
<style type="text/css">
	.st0{display:none;}
	.st1{display:inline;}
	.st2{fill:#DEDEDE;}
	.st3{fill:#5B4069;}
	.st4{fill:#9261A8;}
	.st5{fill:#312637;}
	.st6{fill:#C1B4CB;}
</style>
<g id="Слой_1_1_">
</g>
<g id="Слой_116" class="st0">
</g>
<g id="Слой_27__x28_копия_x29_">
	<g id="Слой_28__x28_копия_x29_">
	</g>
	<g id="Слой_30__x28_копия_x29_">
	</g>
	<g id="Слой_29__x28_копия_x29_">
	</g>
	<g id="Слой_109">
	</g>
	<g id="Слой_32__x28_копия_x29_">
	</g>
	<g id="Слой_31__x28_копия_x29_">
	</g>
</g>
<g id="Слой_16">
</g>
<g id="Слой_34__x28_копия_x29_">
	<g id="Слой_35__x28_копия_x29_">
	</g>
	<g id="Слой_36__x28_копия_x29_">
	</g>
	<g id="Слой_37__x28_копия_x29_">
	</g>
	<g id="Слой_38__x28_копия_x29_">
	</g>
	<g id="Слой_115">
	</g>
</g>
<g id="Слой_17">
</g>
<g id="Слой_9">
	<g id="Слой_10">
	</g>
	<g id="Слой_11">
	</g>
</g>
<g id="Слой_9__x28_копия_x29_">
	<g id="Слой_10__x28_копия_x29_">
	</g>
	<g id="Слой_11__x28_копия_x29_">
	</g>
</g>
<g id="Слой_2">
	<g id="Слой_3">
	</g>
	<g id="Слой_5">
	</g>
	<g id="Слой_4">
	</g>
	<g id="Слой_6">
	</g>
	<g id="Слой_7">
	</g>
</g>
<g id="Слой_8">
</g>
<g id="Слой_93__x28_копия_x29_">
	<g id="Слой_91__x28_копия_x29_">
	</g>
	<g id="Слой_94__x28_копия_x29_">
	</g>
	<g id="Слой_95__x28_копия_x29_">
	</g>
	<g id="Слой_102">
	</g>
</g>
<g id="Слой_12">
</g>
<g id="Слой_33">
</g>
<g id="Слой_18" class="st0">
	<g id="Слой_19" class="st1">
	</g>
	<g id="Слой_20" class="st1">
	</g>
	<g id="Слой_23" class="st1">
	</g>
	<g id="Слой_25" class="st1">
	</g>
	<g id="Слой_24" class="st1">
	</g>
	<g id="Слой_21" class="st1">
	</g>
	<g id="Слой_22" class="st1">
	</g>
	<g id="Слой_26" class="st1">
	</g>
</g>
<g id="Слой_27">
	<g id="Слой_28">
	</g>
	<g id="Слой_30">
	</g>
	<g id="Слой_29">
	</g>
	<g id="Слой_32">
	</g>
	<g id="Слой_31">
	</g>
</g>
<g id="Слой_34">
	<g id="Слой_35">
	</g>
	<g id="Слой_36">
	</g>
	<g id="Слой_37">
	</g>
	<g id="Слой_38">
	</g>
	<g id="Слой_12_1_">
		<circle class="st2" cx="118.3" cy="120.2" r="112.2"/>
	</g>
	<g id="Слой_33_1_">
		<g>
			<g>
				<path class="st3" d="M100.5,6.9C86.5,6.8,74,9,61.6,15.8c-11.6,6.4-21.1,15.4-30,25C22.5,50.6,14,60.9,9.3,73.5
					c-4.2,11.4-7.2,23.9-8.6,36c-5.1,43.9,17.8,89.8,56.3,111.6c22.9,13,52.1,20.9,78.5,17.9c13.1-1.5,24.8-6.6,35.8-13.8
					c4.9-3.2,9.6-6.7,14.1-10.4c5.4-4.4,10-9.5,15.4-13.9c9.6-7.9,18.8-15.8,23.9-27.5c5.3-12.2,7.4-25.9,9.9-39
					c2.4-13,4-26.2,1.1-39.2c-2.7-12.2-8.3-24.1-14.8-34.8c-6.7-10.9-14.4-21.2-23.5-30.1c-9-8.8-20.4-15.8-31.9-20.8
					c-11.9-5.2-24.2-8.4-37.2-9.2c-14.1-0.8-29-0.3-42.4,4.8c-6.2,2.3-3.5,12.4,2.8,10c39.9-15.2,87.8,6.2,114.8,36.3
					c6.9,7.7,12.6,16.6,16.7,26.1c5,11.6,6.1,24.4,5.6,36.9c-0.5,12.1-3.2,24.1-5.4,36c-2.3,12.5-5.3,24.1-14.4,33.6
					c-7.6,8-16.4,14.9-24.9,21.8c-9.4,7.7-19.6,14.1-31.2,17.9c-23.8,7.7-50.7,3.3-73.8-5.4c-38.5-14.5-65.5-50.8-67.3-92
					c-0.5-11.8,1.4-23,4.2-34.4c1.6-6.7,3.2-13.5,6.1-19.7c2.9-6.4,7.2-12,11.6-17.3c8.7-10.4,18.4-20.8,29.8-28.2
					c6.1-3.9,12.6-7.2,19.6-9.2c7.1-2.1,14.3-2.8,21.3-5.5C103.8,11,103.6,7,100.5,6.9L100.5,6.9z"/>
			</g>
		</g>
	</g>
	<g id="Слой_34_1_">
		<g id="Слой_35_1_">
			<path class="st3" d="M149.5,203.3c-0.2-4.9-2.3-9.3-4.9-13.3c-1.2-1.9-2.6-3.8-3.5-5.9s-1.2-4.3-1-6.5c0.3-4.6,2.2-8.9,3.4-13.3
				c1.3-5,1.2-9.9-0.2-14.9c-0.6-2-1.3-4.6-3.5-5.4c-2.1-0.8-4,0.4-4.5,2.6c-0.4,1.8-0.4,3.8-1.2,5.5c-0.8,2-2.7,2.4-4.7,1.9
				c-2.1-0.5-3.9-1.6-5.3-3.1c-1.3-1.4-2-3.2-3.1-4.8c-0.9-1.3-2-2.2-3.4-2.6c-0.1-1.1-1.8-1.8-2.5-0.6c-0.8,1.4-2.3,2.2-3.9,2.3
				c-1.8,0.1-3-1.1-3.5-2.8c-1.2-4.1,0.3-9-3.7-11.9c-1.6-1.2-3.8-1.5-5.5-0.4c-1.9,1.2-2.8,3.6-3.3,5.7c-1.1,4.7-0.4,9.7,0.8,14.3
				c1.2,5.1,2.9,10.2,2.6,15.4c-0.3,5-2.3,9.7-4.1,14.3c-3.4,8.4-6.7,19-0.6,27c5.6,7.4,15.6,10.4,24.5,11.5
				c4.8,0.6,9.8,0.6,14.6,0.4c4.3-0.2,8.7-0.9,12.1-3.7C148.5,212.2,149.7,207.6,149.5,203.3z"/>
		</g>
		<g id="Слой_36_1_">
			<path class="st4" d="M143.5,194.8c-1.4-2.5-2.8-5.1-4-7.8c-1.3-2.7-2.4-5.3-2.3-8.3c0.3-5.8,3.8-10.8,4.4-16.6
				c0.4-3.2-0.2-6.5-1-9.6c-0.4-1.5-0.7-3-1.2-4.5c-0.3-0.9-0.8-1.6-1.8-1.6c-0.3,0-0.6,0.3-0.6,0.6c0,3.7-2,7.3-5.1,9.2
				c-1.8,1.1-4.1,1.9-6.1,0.8s-3.8-2.6-5.6-4c-0.1,0-0.1-0.1-0.2-0.1c0-0.3-0.2-0.5-0.6-0.6c-1.4-0.1-2.7-0.4-4-1.1
				c-1.2-0.7-2-1.6-3-2.5c-0.6-0.6-1.4-1.2-2.3-1.3c-1.2-0.1-1.4,0.5-1.7,1.6c-0.6,2.5,0.2,5,0.8,7.4c0.4,1.4,0.9,2.8,0.7,4.3
				s-0.8,2.9-1.3,4.3c-1.6,4.7-4.4,10.4-2.9,15.5c0.7,2.2,2.1,4,4.5,4.4c2.6,0.5,5.4,0.5,8,0.8c5.3,0.8,10.3,2.4,14.2,6.2
				c1.8,1.7,3.4,3.7,4.9,5.6s3,4,5,5.3c1.5,1,3.7,1.7,3.8-0.8C146.4,199.3,144.8,196.9,143.5,194.8z"/>
		</g>
		<g id="Слой_37_1_">
			<path class="st4" d="M129.1,44.4c-1.5-5.3-4.6-10.4-4.1-16.1c0.1-1.3,0.4-2.7,1.1-3.9c0.5-1,1.4-1.8,1.9-2.9
				c0.9-2-0.4-4.3-2.2-5.4c-1.7-1.1-3.9-1.1-5.7-0.1c-2.2,1.3-2.7,3.7-3.3,6c-1.7,6-3.3,12-4.9,18c-0.4,1.6-0.8,3.2-1.2,4.9
				c-0.3,1.4-1,3-0.7,4.4c0.2,1,0.8,1.6,1.7,2c1.4,0.6,2.7,1.2,3.8,2.2c0.1,0.2,0.2,0.3,0.4,0.3c0.2,0.1,0.3,0.1,0.5,0
				c1.7,0,3.4,0.1,5.1,0.1c0.2,0,0.5-0.2,0.6-0.4c0.5-3.8,3.1-7.1,6.7-8.5C129,45,129.2,44.7,129.1,44.4z"/>
			<path class="st5" d="M125.5,202.3c0-0.2-0.3-0.4-0.6-0.4c-4,0-8.1,0.1-12.1,0.1c-0.3-0.4-1-0.2-1,0.4c0.1,2.6,0.2,5.3,0.3,7.9
				c0,0.3,0.3,0.5,0.6,0.6c4.3,0.4,8.6,0.6,12.9,0.6c0.3,0,0.6-0.3,0.6-0.6C126.1,208,125.9,205.2,125.5,202.3z"/>
			<path class="st5" d="M126.8,175.6c-2.6,0.2-5.2,0.1-7.8,0c-2.7-0.1-5.4-0.1-8.1-0.2c-0.3,0-0.5,0.2-0.5,0.4
				c-0.2,0.1-0.4,0.3-0.3,0.6c0.2,0.8,0.3,1.6,0.3,2.4c0,0.3,0.3,0.6,0.6,0.6c5.2-0.1,10.5-0.4,15.7-0.1c0.2,0,0.5-0.2,0.6-0.4
				c0.2-0.9,0.3-1.8,0.2-2.8C127.4,175.9,127.1,175.6,126.8,175.6z"/>
			<path class="st5" d="M122.5,117.5c-0.2-6.8,0.3-13.4,0.6-20.2c0.2-6.7-0.3-13.4-0.8-20.2c-0.5-7.6-0.8-15.2,0.1-22.8
				c0-0.3-0.3-0.6-0.6-0.6c-1.8-0.1-3.6-0.1-5.5-0.2c-0.2-0.4-1.1-0.3-1.1,0.3c-0.4,15.6-0.7,31.1-1,46.7
				c-0.3,15.7-0.6,31.4-0.7,47.1c0,2.1,0,4.3,0,6.4c0,1.1,0,2.3,0,3.4c0,0.7,0,1.3,0.5,1.8c1.1,0.9,3.4,0.8,4.7,0.8
				c2,0,3.9-0.4,5.8-1.2c0.2-0.1,0.4-0.3,0.4-0.6C124,144.9,122.9,131.2,122.5,117.5z"/>
			<path class="st5" d="M117.1,21.4c0.3-0.3,0.3-0.8-0.2-0.9c-1.2-0.2-1.8-0.5-2.2-1.7c-0.2-0.6-0.4-1.2-0.9-1.6
				c-1-0.6-2-0.1-2.4,0.7c-1.3-0.1-2,0.8-1.9,2.2c0,0.5,0.2,1,0.6,1.3c0.1,0,0.1,0.1,0.1,0.1l0,0c-0.1,0.2,0,0.6,0.1,0.8
				c0.5,1.5,2,1.2,3.1,0.8c0.6-0.2,1.2-0.4,1.8-0.4c0.4,0,0.8,0.1,1.2,0c0.5-0.1,0.9-0.5,0.8-1C117.2,21.5,117.2,21.5,117.1,21.4z"
				/>
			<path class="st5" d="M114.5,28.3c-0.8,0.1-1.6-1.7-2.1-2.2c-0.4-0.4-1-0.7-1.6-0.8c-1.1-0.2-1.4,0.3-1.8,1
				c-1.4-0.3-1.9,2-1.1,3.2c-0.6,1.2,1,2.6,2.2,2.5c0.4,0,0.8-0.2,1.2-0.4c0.8-0.3,1.4-0.4,2.2-0.5c0.9-0.1,1.4-0.7,1.4-1.6
				C115.5,29.2,115.2,28.2,114.5,28.3z"/>
			<path class="st5" d="M113.1,36.2c-0.9-0.5-1.7-1.1-2.3-2c-0.4-0.6-0.8-1.2-1.5-1.5c-1.1-0.4-1.8,0.2-2.1,1.1
				c-0.5-0.1-1,0.2-1.3,0.8c-0.5,0.9-0.2,1.9,0.3,2.7c-0.6,1,0.7,2.8,2,2.6c0.5-0.1,0.9-0.4,1.4-0.6c0.7-0.3,1.4-0.2,2.1-0.3
				c0.8-0.2,1.5-0.8,1.5-1.6C113.4,37.1,113.5,36.5,113.1,36.2z"/>
			<path class="st5" d="M111,43.6c-1.1-0.2-1.6-0.8-2-1.8c-0.2-0.5-0.5-1-0.9-1.3c-0.7-0.6-1.8-0.6-2.4,0.2
				c-0.1,0.2-0.2,0.4-0.3,0.5c0,0,0,0,0,0.1c0,0-0.1,0-0.2,0.1c-0.4,0.2-0.8,0.5-1,0.9c-0.5,0.8-0.3,1.7,0.3,2.4
				c-0.3,1.3,0.4,2.6,1.9,2.6c1,0,2-0.6,3-0.8c0.4-0.1,0.9-0.1,1.2-0.3c0.3-0.3,0.4-0.7,0.7-1c0.2-0.2,0.2-0.4,0.1-0.6
				C111.5,44.2,111.5,43.7,111,43.6z"/>
			<g>
				<g>
					<path class="st6" d="M114.4,208.2c-0.6-2.5,0.2-5.2,0.2-7.7c0-2.9,0-5.8,0-8.7s0-5.8,0-8.7c0-2.8-0.2-5.6-0.1-8.4
						c0.1-5.9,0.6-11.9,0.4-17.8c-0.1-2.7-0.4-5.4-0.2-8.2c0.2-3,1.3-5.9,1.3-9c0-2.8-0.7-5.3-0.4-8.1c0.3-2.7,0.1-5.3,0.1-8
						c0-2.9,0-5.8,0.1-8.8c0-3,0.5-6,0.6-9c0.1-6-0.2-11.8,0.5-17.7c0.3-2.5-0.2-4.9-0.3-7.4c0-2.9,0.4-5.8,0.3-8.8
						c-0.1-3.2-0.2-6.3,0-9.5c0.1-2.7,0.5-5.4,0.5-8.1c0-2-0.3-4.1-1.4-5.8c-1.2-2-3-2.6-5-3.5c-0.1,0.2-0.1,0.4-0.2,0.6
						c0.1,0,0.2,0,0.3,0c0.4,0,0.4-0.6,0-0.6c-0.1,0-0.2,0-0.3,0c-0.3,0-0.5,0.4-0.2,0.6c2.7,1.2,4.7,2.1,5.6,5.2
						c0.7,2.3,0.4,4.8,0.2,7.2c-0.5,5.3-0.1,10.6-0.2,15.9c-0.1,2.7-0.5,5.5-0.3,8.2c0.1,1.2,0.2,2.4,0.3,3.7
						c0.1,1.7-0.3,3.3-0.5,4.9c-0.7,5.3,0.2,10.8-0.1,16.1c-0.2,5.6-0.6,11.2-0.6,16.8c0,2.8,0.2,5.6-0.1,8.4
						c-0.3,2.7,0.4,5.1,0.4,7.7c0,2.7-0.8,5.3-1.2,8c-0.3,2.9,0,5.7,0.1,8.6c0.2,5.6,0,11.3-0.3,16.9c-0.2,2.9,0.1,5.9,0.1,8.9
						c-0.1,3.2,0,6.4,0,9.7c0,3.1,0.1,6.1,0,9.2c0,2.5-0.7,5-0.1,7.5C113.9,208.7,114.5,208.5,114.4,208.2L114.4,208.2z"/>
				</g>
			</g>
			<g>
				<g>
					<path class="st6" d="M124,208.5c-0.4-3-0.1-5.9-0.2-8.9c-0.1-3.6-0.3-7.2-0.5-10.7c-0.3-6.3-0.5-12.6,0.2-18.9
						c0.3-3.3,0.4-6.2,0-9.5c-0.4-3.1-0.9-6.3-1.2-9.4c-0.3-3-0.3-6-0.2-9.1c0.1-3.4,0.5-7.1,0.3-10.5c-0.2-2.7-0.8-5.3-0.7-8
						c0.1-3.6,0-7.1,0-10.7c0-6.4-0.3-12.9-0.3-19.3c0-3.2,0.5-6.4,0.5-9.6c0-3.3-0.2-6.5-0.2-9.8c0-2.4-0.4-4.5-0.8-6.9
						c-0.5-3.3,0.5-6.7,0.5-10.1c0-3.5,0.3-7,0.2-10.5c0-3.8-0.6-7.5-0.5-11.3c0.1-2.8,0.6-5.9-0.3-8.6c-0.6-1.8-1.8-4.5-3.5-5.4
						c-0.3-0.2-0.6,0.3-0.3,0.5c1.2,0.7,1.9,2.6,2.5,3.8c0.9,1.8,1,3.4,1,5.4c0,3-0.4,6-0.1,9c0.7,6,0.1,12.1,0.1,18.1
						c0,2.9-0.9,5.7-0.6,8.5c0.3,2.9,0.9,5.6,0.9,8.5c-0.1,2.7,0.1,5.3,0.2,8c0.1,3.3-0.5,6.6-0.5,10c0,6.3,0.3,12.6,0.3,18.8
						c0,3.1,0.1,6.2,0.1,9.3c0,2.8-0.2,5.5,0.3,8.3c1.1,6.1-0.3,12.6,0.1,18.8c0.4,6.3,2.4,12.6,1.8,18.9
						c-0.6,6.8-0.8,13.4-0.5,20.2c0.2,3.6,0.3,7.1,0.5,10.7c0.2,3.5-0.1,6.9,0.3,10.4C123.6,208.7,124,208.7,124,208.5L124,208.5z"
						/>
				</g>
			</g>
			<g>
				<g>
					<path class="st6" d="M117.6,208c-0.4-2.5,0.2-5.4,0.1-8c-0.1-3.1-0.1-6.3-0.3-9.4c-0.2-2.7-0.4-5.4-0.3-8.1
						c0.1-3,0.6-5.9,0.4-8.9c-0.2-5.7-1.3-11.6-0.7-17.3s1.4-11.1,0.7-16.9c-1.3-11.6,0.3-23.3,0.5-34.9c0.2-12,0.4-24.1,0.5-36.1
						c0-6.6-0.3-13.2-0.1-19.8c0.1-2.3,0.1-4.9-0.8-7.1c-0.9-2.1-2.6-3.3-4.6-4.2c-0.3-0.1-0.5,0.3-0.2,0.4c3.2,1.6,4.7,3.7,5,7.4
						c0.2,2.6-0.1,5.3-0.1,8c0,5.8,0.2,11.5,0.1,17.3c-0.1,11.7-0.3,23.3-0.5,35c-0.1,11.1-1.9,22.4-0.5,33.6
						c0.7,5.8,0.1,11.2-0.6,16.9c-0.6,5.3,0.2,11.1,0.6,16.5c0.3,3.1-0.2,6.2-0.3,9.3c-0.1,3.2,0.2,6.4,0.4,9.6
						c0.2,3.1,0.2,6.3,0.3,9.4c0.1,2.5-0.5,5.2,0,7.6C117.3,208.3,117.6,208.2,117.6,208L117.6,208z"/>
				</g>
			</g>
			<g>
				<g>
					<path class="st6" d="M120.7,207.7c-0.7-2.4-0.4-5.5-0.2-7.9c0.2-3-0.1-5.9-0.2-8.9c-0.1-3-0.8-6.1-0.6-9.1
						c0.1-2.7,1-5.4,0.8-8.1c-0.2-3.4-0.4-6.7-0.5-10.1c0-3.2-0.2-6.4-0.2-9.7c0-3.1,0.4-6.1,0.5-9.2c0.1-3-0.2-6-0.2-9
						c0-3.2-0.2-6.4-0.4-9.6s0.1-6.3,0.1-9.4c0-2.9-0.4-5.8-0.5-8.7c-0.1-3.3,0.1-6.5,0.4-9.8c0.8-12.4-0.8-24.6,0-37
						c0.2-3.5,0.6-7,0.4-10.5c-0.1-3.1-0.8-6.2-0.9-9.3c-0.1-4.7-0.1-10.2-5.1-12.2c-0.3-0.1-0.5,0.4-0.2,0.5
						c5.9,2.5,4.3,10.8,4.9,16c0.8,6.1,0.4,12,0,18.2c-0.4,5.9-0.3,12,0.3,17.9c0.6,5.8,0.2,11.6-0.2,17.4c-0.2,2.9-0.4,5.9-0.3,8.9
						c0.1,3.1,0.5,6.1,0.5,9.1s-0.3,5.9-0.1,9c0.3,3.2,0.4,6.4,0.4,9.6c0,2.7,0.2,5.4,0.2,8.1c0,3.1-0.4,6.1-0.5,9.2
						c-0.1,2.9,0.1,5.8,0.2,8.6c0.1,3.1-0.1,6.2,0.1,9.3c0.2,2.2,0.4,4,0.1,6.2c-0.2,1.2-0.4,2.4-0.5,3.7c-0.3,3.3,0.4,6.7,0.5,10
						s0.3,6.5,0.1,9.8c-0.1,2.3-0.3,5,0.3,7.2C120.3,208.1,120.7,208,120.7,207.7L120.7,207.7z"/>
				</g>
			</g>
		</g>
		<g id="Слой_38_1_">
			<g>
				<g>
					<path class="st3" d="M114.4,207.6c-0.5-0.2-1.1,0.3-1,0.9c0,0.7,0.9,1,1.4,0.5c0.5-0.4,0.4-1.2-0.2-1.5c-0.7-0.4-1.5,0.3-1.4,1
						s0.8,1,1.4,0.7c0.6-0.3,0.7-1.2,0.2-1.7s-1.3-0.3-1.6,0.3c-0.3,0.6,0,1.4,0.7,1.6c0.5,0.1,0.9-0.1,1.1-0.6
						c0.3-0.8-0.5-1.5-1.2-1.3c-0.8,0.2-1.1,1.4-0.3,1.8c0.5,0.3,1.3-0.1,1.2-0.7c0-0.5-0.4-0.3-1.1,0.4c-0.1-0.1-0.1-0.3-0.2-0.4
						c0-0.1,0-0.2,0-0.3C113.7,208.1,114,207.9,114.4,207.6c0,0.1,0.1,0.1,0.2,0.2c0.1,0.1,0.1,0.3,0.2,0.4c0,0.3,0,0.5-0.2,0.6
						c-0.1,0-0.3,0.1-0.4,0.1l0,0c-0.1,0-0.3-0.1-0.4-0.1c0,0-0.1,0-0.1-0.1c-0.1-0.1-0.1-0.2-0.2-0.4c0,0.1,0,0.1,0.1,0.2
						c0-0.1,0-0.3,0-0.4V208c0.1-0.1,0.2-0.2,0.3-0.3l0,0C114,207.7,114.2,207.6,114.4,207.6c0.1,0.1,0.3,0.3,0.5,0.4
						c0,0.1,0,0.3,0,0.4c0,0,0,0,0-0.1c-0.1,0.1-0.1,0.2-0.2,0.4c-0.1,0-0.1,0-0.2,0.1c-0.2,0-0.4-0.1-0.6-0.1c0.3,0,0.6,0,0.8-0.3
						C115,208.2,114.8,207.8,114.4,207.6L114.4,207.6z"/>
				</g>
			</g>
			<g>
				<g>
					<path class="st3" d="M116.9,207.7c-0.6,0.5,0,1.3,0.6,1.4c0.8,0,1.1-0.9,0.6-1.5c-0.6-0.7-1.8,0-1.6,0.9s1.5,1,1.8,0.1
						c0.2-0.8-0.5-1.4-1.2-1.2c-0.7,0.2-1.1,1-0.7,1.7c0.4,0.7,1.4,0.7,1.8,0c0.4-0.7,0-1.5-0.8-1.8c-0.5-0.2-0.9,0.2-1.1,0.6
						c-0.1,0.4-0.1,0.9,0.3,1.1c0.6,0.5,1.4,0.2,1.4-0.6c0-0.1,0-0.1,0-0.1c-0.4,0.2-0.7,0.4-1.1,0.6c-0.4-0.3-0.4-0.7-0.2-0.9
						c0.1-0.1,0.3-0.2,0.4-0.2h0.1c0.1,0,0.3,0.1,0.4,0.1c-0.2,0.3-0.3,0.7-0.5,1c-0.1-0.1-0.2-0.1-0.4-0.2l0,0
						c-0.1-0.1-0.1-0.2-0.2-0.4v-0.1c0-0.1,0.1-0.3,0.1-0.4c0,0,0,0,0,0.1c0.2-0.1,0.5-0.3,0.7-0.4c0,0,0,0-0.1,0
						c0.1,0,0.3,0.1,0.4,0.1h-0.1c0.1,0.1,0.2,0.2,0.3,0.3v-0.1c0,0.1,0.1,0.3,0.1,0.4v-0.1c0,0.1-0.1,0.3-0.1,0.4
						c0,0,0-0.1,0.1-0.1c-0.1,0.1-0.2,0.2-0.3,0.3h0.1c-0.3,0-0.5,0-0.8,0l-0.1-0.1c0-0.1-0.1-0.2-0.1-0.4c0,0,0,0,0,0.1
						c0-0.1,0.1-0.2,0.1-0.4c0.3-0.4,0.6-0.4,0.8-0.1c0.2,0.2,0.2,0.3,0.2,0.1C117.9,207.4,117.2,207.4,116.9,207.7L116.9,207.7z"/>
				</g>
			</g>
			<g>
				<g>
					<path class="st3" d="M120.2,207.5c-0.8,0.2-0.7,1.2-0.1,1.5c0.7,0.4,1.5-0.3,1.3-1.1c-0.2-0.9-1.4-1.1-1.8-0.3
						c-0.2,0.3-0.2,0.7,0,1.1c0.3,0.5,0.8,0.5,1.3,0.3c0.4-0.2,0.6-0.8,0.3-1.2c-0.5-0.6-1.3-0.8-1.8-0.1c-0.3,0.5-0.3,1.3,0.3,1.6
						c0.7,0.4,1.5-0.1,1.6-0.8c0.1-0.6-0.3-1.3-1-1.3s-1.3,0.7-1.1,1.4c0.2,0.7,1,1.1,1.6,0.7s0.7-1.3,0.2-1.8s-1.4-0.4-1.7,0.2
						c-0.2,0.3-0.2,0.6,0,0.9l0,0c0.3,0.4,1,0.6,1.3,0.2c0.1-0.1,0.1-0.2,0.2-0.3c-0.1,0.1-0.2,0.2-0.3,0.3c-0.2,0-0.3,0-0.5,0.1
						c-0.1-0.1-0.3-0.2-0.4-0.2c0-0.1-0.1-0.1-0.1-0.2c0-0.2,0-0.3,0-0.5c0-0.1,0.1-0.1,0.1-0.2c0.1-0.1,0.3-0.2,0.4-0.2
						c0.1,0,0.2,0,0.3,0c0.1,0.1,0.3,0.2,0.4,0.2c0,0.1,0.1,0.2,0.1,0.2c0,0.2,0,0.3,0,0.5c-0.1,0.1-0.1,0.2-0.2,0.3
						c-0.2,0-0.3,0.1-0.5,0.1H120c-0.1-0.1-0.3-0.2-0.4-0.2c-0.2-0.2-0.2-0.5-0.1-0.7c0.1-0.1,0.2-0.2,0.3-0.3
						c0.1,0,0.2-0.1,0.3-0.1s0.3,0.1,0.4,0.1c0,0,0,0-0.1,0c0.1,0.1,0.2,0.2,0.3,0.3c-0.1,0.3-0.1,0.5-0.2,0.8
						c-0.1,0-0.3,0.1-0.4,0.1c0,0,0,0,0.1,0c-0.1,0-0.3-0.1-0.4-0.1l0,0c0.1-0.5,0.1-0.9,0.2-1.4h-0.1c0.1,0,0.3-0.1,0.4-0.1
						c0,0,0,0-0.1,0c0.2,0.1,0.4,0.2,0.6,0.3l0,0c0.1,0.1,0.1,0.3,0.2,0.4c0,0.1,0,0.2,0,0.2c-0.1,0.1-0.1,0.2-0.2,0.4
						c0,0,0,0,0-0.1c-0.1,0.1-0.2,0.1-0.4,0.2h0.1c-0.2,0-0.4-0.1-0.6-0.1c0,0,0.1,0,0.1,0.1c-0.1-0.1-0.2-0.2-0.3-0.3
						c0,0,0,0.1,0.1,0.1c0-0.1-0.1-0.3-0.1-0.4c0.2-0.2,0.4-0.3,0.6-0.5c0.1,0,0.2,0.1,0.4,0.1c0,0,0.1,0.1,0.1,0.2
						C120.9,207.5,120.6,207.4,120.2,207.5L120.2,207.5z"/>
				</g>
			</g>
			<g>
				<g>
					<path class="st3" d="M123.7,207.7c-1.1-0.1-1,1.9,0.3,1.6c1.1-0.2,0.8-1.9-0.3-1.8c-1.2,0-1.1,2,0.1,2c0.5,0,0.9-0.5,0.9-1
						c0-0.6-0.4-0.9-0.9-1.1c-0.4-0.1-0.8,0.1-1,0.4c-0.8,1.2,1.1,2.4,1.8,1.2c0.8-1.3-1.4-2.4-2.1-1c-0.6,1.3,1.3,2.2,2,1
						c0.8-1.4-1.6-2.4-2-0.8c-0.2,1,1.1,1.6,1.6,0.7c0,0,0,0-0.1,0.1s-0.3,0.2-0.4,0.2c-0.2-0.1-0.4-0.1-0.5-0.2s-0.2-0.3-0.2-0.4
						v-0.1c0-0.2,0.1-0.3,0.1-0.5c0.3,0,0.6-0.1,0.9-0.1c0.1,0.1,0.2,0.3,0.2,0.4s0,0.1,0,0.2c-0.1,0.1-0.2,0.3-0.2,0.4
						c-0.2,0-0.4,0-0.6,0.1c-0.1-0.1-0.2-0.2-0.3-0.3c0,0,0,0,0-0.1c0-0.2,0-0.3,0-0.5V208c0.1-0.1,0.2-0.2,0.3-0.3
						c0.2-0.1,0.4-0.1,0.6,0c0.1,0.1,0.2,0.2,0.3,0.3v0.1c0,0.2,0,0.3,0,0.5l0,0c-0.3,0.1-0.7,0.3-1,0.4l0,0
						c-0.1-0.1-0.2-0.2-0.3-0.3c0-0.1,0-0.3,0-0.4c0.1-0.1,0.1-0.3,0.2-0.4l0,0C123.4,208,123.5,207.9,123.7,207.7
						c-0.1,0.1-0.1,0.1-0.1,0.1c0.2,0,0.3,0,0.5,0c0,0,0,0-0.1,0c0.1,0.1,0.2,0.1,0.4,0.2c0,0,0,0-0.1-0.1c0.1,0.1,0.1,0.2,0.2,0.4
						l0,0c0,0.1-0.1,0.3-0.1,0.4c0,0,0,0,0-0.1c-0.1,0.1-0.2,0.2-0.3,0.3c0,0,0,0,0.1,0c-0.2,0-0.4,0.1-0.6,0.1h0.1
						c-0.1-0.1-0.2-0.1-0.3-0.2c0,0,0,0,0.1,0.1c-0.1-0.1-0.1-0.2-0.2-0.3c0,0,0,0,0,0.1c0-0.1,0-0.3,0-0.4c0.1-0.1,0.1-0.2,0.2-0.3
						c0.1,0,0.2-0.1,0.4-0.1c0,0,0,0-0.1,0c0.2,0.1,0.3,0.1,0.5,0.2v0.1c0,0.2,0,0.3-0.1,0.5c0,0,0,0,0-0.1
						C124.5,208.2,124.1,207.8,123.7,207.7L123.7,207.7z"/>
				</g>
			</g>
		</g>
	</g>
</g>
<g id="Слой_39">
	<g id="Слой_40">
	</g>
	<g id="Слой_41">
	</g>
	<g id="Слой_42">
	</g>
</g>
<g id="Слой_43">
	<g id="Слой_44">
	</g>
	<g id="Слой_45">
	</g>
</g>
<g id="Слой_46">
	<g id="Слой_48">
	</g>
	<g id="Слой_47">
	</g>
	<g id="Слой_49">
	</g>
	<g id="Слой_50">
	</g>
	<g id="Слой_51">
	</g>
	<g id="Слой_52">
	</g>
	<g id="Слой_53">
	</g>
	<g id="Слой_54">
	</g>
	<g id="Слой_55">
	</g>
</g>
<g id="Слой_46__x28_копия_x29_">
	<g id="Слой_48__x28_копия_x29_">
	</g>
	<g id="Слой_47__x28_копия_x29_">
	</g>
	<g id="Слой_49__x28_копия_x29_">
	</g>
	<g id="Слой_50__x28_копия_x29_">
	</g>
	<g id="Слой_51__x28_копия_x29_">
	</g>
	<g id="Слой_52__x28_копия_x29_">
	</g>
	<g id="Слой_53__x28_копия_x29_">
	</g>
	<g id="Слой_55__x28_копия_x29_">
	</g>
	<g id="Слой_54__x28_копия_x29_">
	</g>
</g>
<g id="Слой_66">
	<g id="Слой_67">
	</g>
	<g id="Слой_68">
	</g>
	<g id="Слой_70">
	</g>
	<g id="Слой_69">
	</g>
</g>
<g id="Слой_72">
	<g id="Слой_75">
	</g>
	<g id="Слой_73">
	</g>
	<g id="Слой_74">
	</g>
	<g id="Слой_76">
	</g>
	<g id="Слой_77">
	</g>
	<g id="Слой_79">
	</g>
	<g id="Слой_78">
	</g>
</g>
<g id="Слой_89">
</g>
<g id="Слой_88">
	<g id="Слой_90">
	</g>
	<g id="Слой_92">
	</g>
</g>
<g id="Слой_93">
	<g id="Слой_91">
	</g>
	<g id="Слой_94">
	</g>
	<g id="Слой_95">
	</g>
</g>
<g id="Слой_98" class="st0">
</g>
<g id="Слой_80" class="st0">
	<g id="Слой_82" class="st1">
	</g>
	<g id="Слой_86" class="st1">
	</g>
	<g id="Слой_83" class="st1">
	</g>
	<g id="Слой_85" class="st1">
	</g>
	<g id="Слой_84" class="st1">
	</g>
	<g id="Слой_96" class="st1">
	</g>
	<g id="Слой_97" class="st1">
	</g>
	<g id="Слой_81" class="st1">
	</g>
</g>
<g id="Слой_71" class="st0">
</g>
<g id="Слой_117" class="st0">
	<g id="Слой_118" class="st1">
	</g>
	<g id="Слой_71__x28_копия_x29_" class="st1">
	</g>
	<g id="Слой_22__x28_копия_x29_" class="st1">
	</g>
</g>
</svg>
