<svg xmlns="http://www.w3.org/2000/svg" viewBox="0 0 240.41 241.85">
  <defs>
    <style>
      .cls-1 {
        fill: #5b4069;
      }

      .cls-2 {
        fill: #9161a0;
      }

      .cls-3 {
        fill: #312537;
      }

      .cls-4 {
        fill: #5c4069;
      }

      .cls-5 {
        fill: #9261a8;
      }
    </style>
  </defs>
  <title>Ресурс 10bongy</title>
  <g id="Слой_2" data-name="Слой 2">
    <g id="Слой_33" data-name="Слой 33">
      <path class="cls-1" d="M100,9.32c-10.28-2-21,2.59-30.12,7-10.45,5-22.2,9.47-30.48,17.84-9.52,9.62-18,21.57-25.45,32.86C7,77.47,3.4,90.13,1.82,102.5c-3.25,25.58-3.2,52.21,9.06,75.55,5.7,10.84,13.47,20.49,21.85,29.36s17.41,19.38,28.07,25.42c10.06,5.7,21.68,7.76,33.09,8.47,12.32.77,25.19.91,37.43-.78,13.38-1.84,26.12-6.12,38.44-11.6,11.9-5.29,24.24-11.3,33.76-20.37,7.79-7.42,13.5-18,18.44-27.4,5.83-11.13,11.76-23.34,15.08-35.47,7.11-25.89,2.52-55-9.41-78.81C215.25,42.18,193,27,168.71,15.41,154.88,8.81,140.46,3.05,125.22.83c-7.35-1.07-15-1.34-22.18.65C95.23,3.64,88.69,8.1,82.48,13.1c-3.81,3.08.31,9.52,4.72,8.1,5.47-1.77,10.79-4,16.26-5.72,5.84-1.87,11.91-1.76,17.9-.65,11.89,2.21,23.51,6.81,34.4,12,18.68,8.84,37.58,19.48,50.29,36.25,13.25,17.48,19.86,41.7,18.61,63.47-.7,12-4.85,23.26-9.06,34.44-3.43,9.12-6.59,19.54-12.53,27.38-13.44,17.75-35.92,28.14-56.79,34.36-11.51,3.44-22.8,4.52-34.76,4.53-10.13,0-20.45,0-30.41-2.05a47.62,47.62,0,0,1-13.2-4.51C63,218,59.13,214.08,55.06,210.29c-8.22-7.63-16.42-15.37-23.46-24.13s-12.92-18.73-16.06-29.5c-3.26-11.22-3.84-23-3.48-34.59.38-12.28,1.32-24.87,5.12-36.62C21.37,72.51,30.28,61.57,38.52,51c4.06-5.22,8-10.58,13.55-14.36,5.15-3.54,10.93-6,16.51-8.81C77.91,23.14,88.15,15.94,99,16.38c4,.16,5-6.29,1-7.06Z"/>
    </g>
    <g id="Слой_157" data-name="Слой 157">
      <path class="cls-2" d="M32.51,120c-.77-1.72-1.64-3.39-2.41-5.11a4.94,4.94,0,0,1-.66-3.3c.1-.47.36-.87.45-1.33a.75.75,0,0,0,0-.23.53.53,0,0,0-.38-.49l-.18,0a.78.78,0,0,0-.83.34c-2.1,3.41.55,7.75,1.82,11.06A1.18,1.18,0,1,0,32.51,120Z"/>
      <path class="cls-2" d="M198.32,112.72a.51.51,0,0,0-.92.39c.19,1.29.46,2.34-.22,3.56a14.25,14.25,0,0,1-1.78,2.18,31.07,31.07,0,0,0-3.13,4c-.51.82.72,1.82,1.37,1a56.07,56.07,0,0,0,4.65-5.9A4.64,4.64,0,0,0,198.32,112.72Z"/>
    </g>
    <g id="Слой_160" data-name="Слой 160">
      <path class="cls-3" d="M98.8,114.25c-9.86,1.13-20,3-29.92,2.58A122.12,122.12,0,0,1,54,115a140.17,140.17,0,0,1-15.23-2.94,3.92,3.92,0,0,0-4.23,1.09,3.24,3.24,0,0,0-3.32,3.4c.76,9.93,2.39,19.79,3.63,29.68a4.26,4.26,0,0,0,3,3.91c15.22,5,31.27,10.5,47.46,7.3a33.91,33.91,0,0,0,11-3.93c3.91-2.39,4-5.84,3.71-10a68.16,68.16,0,0,1,2.35-24.7C102.92,116.8,101.18,114,98.8,114.25Z"/>
      <path class="cls-3" d="M193.56,118.18a3.53,3.53,0,0,0-2.38-4.19c-2.49-.89-4.87-.09-7.29.64q-4,1.23-8.19,2.08a88.41,88.41,0,0,1-17.25,1.76,93,93,0,0,1-33.51-6.07c-3.59-1.34-5.59,3.15-3.81,5.73-.48,4.28.48,8.7.83,13q.26,3.27.35,6.55c.07,2.05-.26,4.41.41,6.38,1.24,3.65,6.21,5.42,9.41,6.95a70.47,70.47,0,0,0,11.24,4.23c15.84,4.48,32.28,3.84,47.19-3.37a4.25,4.25,0,0,0,2.15-3.74c-.24-5-.75-10-.49-15A143.86,143.86,0,0,1,193.56,118.18Z"/>
      <path class="cls-3" d="M41.48,156.46a13.1,13.1,0,0,1-4.58-.37,1.42,1.42,0,0,0-.75,2.73,16,16,0,0,0,5.33.61C43.39,159.32,43.38,156.3,41.48,156.46Z"/>
      <path class="cls-3" d="M95.91,159a18.75,18.75,0,0,1-4.43,0c-1.57,0-2.33,2.34-.83,3.08a10,10,0,0,0,6.25.44C99.22,162.08,98.25,158.43,95.91,159Z"/>
      <path class="cls-3" d="M130.44,158.84a1.84,1.84,0,0,0-1.83-1.62,8.35,8.35,0,0,1-1.65.13c-.54,0-1.06-.21-1.6-.24-1.37-.08-2.3,1.94-1.18,2.84a5.92,5.92,0,0,0,4.92,1A1.85,1.85,0,0,0,130.44,158.84Z"/>
      <path class="cls-3" d="M191.12,159.07c-1.45.1-2.92-.26-4.29.39a1.14,1.14,0,0,0,0,1.94c1.12.76,2.58.63,3.85.92a1.65,1.65,0,1,0,.44-3.25Z"/>
      <path class="cls-4" d="M110.16,111.33c-.48-2.41-1.19-7-3.34-8.61s-5.89.63-8.16,1.13c-7.17,1.6-14.58,1.72-21.89,1.84-7.53.13-15.15.58-22.68.25a79.06,79.06,0,0,1-11.44-1.57c-3.21-.64-6.5-1.15-9.23-3.08l-.2-.12a.92.92,0,0,0-1.37-.58,12,12,0,0,0-6.17,10.22,1.39,1.39,0,0,0,1,1.33c13.15,3.93,27.06,3.92,40.67,4.19,13.92.28,27.83,0,41.53-2.74A1.87,1.87,0,0,0,110.16,111.33Z"/>
      <path class="cls-4" d="M200.83,111.26a37.12,37.12,0,0,0-4.35-7.23,1.84,1.84,0,0,0-2.4-.63c-5.23,2.21-10.89,3-16.51,3.37-6,.41-12,.68-17.94.65a154.13,154.13,0,0,1-17.83-1.18c-3.05-.37-6.1-.82-9.14-1.3-2.45-.4-6.55-.34-8.23-2.39a1.34,1.34,0,0,0-2.06-.1c-4.27,1.1-5.73,5.74-6.19,9.75a1.69,1.69,0,0,0,1.21,1.59c12.62,4.87,27.29,4.71,40.61,4.77A202.1,202.1,0,0,0,199.74,114,1.85,1.85,0,0,0,200.83,111.26Z"/>
      <path class="cls-4" d="M123.67,127.39a24.59,24.59,0,0,0-1-4.67c-.52-1.62-1.52-3.19-1.48-4.93a1.6,1.6,0,0,0-2-1.52,82,82,0,0,1-15.74.58,1,1,0,0,0-1.74.32c-1.77,4.6-2.3,9.75-2.74,14.63a1.77,1.77,0,0,0,1.76,1.76l10.8-.32,5.89-.2c1.44,0,3.29.19,4.66-.26C124.39,132,123.9,129.34,123.67,127.39Z"/>
      <path class="cls-4" d="M98.46,150.24a68.82,68.82,0,0,1-30.87,4.63c-10.65-.9-21.05-4.47-31-8.28a.91.91,0,0,0-.68-.36,3.25,3.25,0,0,0-3.17,2.26c-.88,2.29.7,4.44.68,6.72a1.41,1.41,0,0,0,1.41,1.41c5.12-.65,9.84,1.3,14.66,2.7A69.86,69.86,0,0,0,64.7,162c10.62.66,21.47-1.19,32-2.25A1.47,1.47,0,0,0,98,159a32,32,0,0,0,2.26-6.94C100.45,151.06,99.58,149.81,98.46,150.24Z"/>
      <path class="cls-4" d="M191.12,149c-5.24,1.65-10.32,3.62-15.71,4.75a55.51,55.51,0,0,1-17.16.68c-6.41-.65-12.8-1.77-18.71-4.35-4.59-2-10.68-2-14.43-5.52a1.31,1.31,0,0,0-1.64-.18c-1.48.13-2.68.93-2.68,2.51,0,3.13.53,6.23.42,9.39a1.49,1.49,0,0,0,1.09,1.43c5.5.79,11,1.22,16.54,2,5.1.71,10,2.29,15.18,2.73a110.69,110.69,0,0,0,16.49.27c5.51-.38,10.83-2.05,16.33-2.46,1.86-.14,4.4.55,6.15-.11s1.87-2.59,2.06-4.15C195.44,152.77,195.66,147.6,191.12,149Z"/>
      <path class="cls-5" d="M91.8,95a65.3,65.3,0,0,0-9.75-1.43c-3.55-.19-7,.44-10.49.78-3.32.31-6.48-.34-9.78-.39s-6.91.28-10.34.46c-6.26.33-12.44.77-18.29,3.22a1.48,1.48,0,0,0-.85,2,1.09,1.09,0,0,0,.1,1.15c3.25,4.07,9.93,4.51,14.71,5.18a160.89,160.89,0,0,0,18.49,1.31,122.72,122.72,0,0,0,18.29-.47c6.45-.8,12.89-1.76,19.33-2.67a1.66,1.66,0,0,0,1.22-1.6C104.44,96.7,96.08,95.93,91.8,95Z"/>
      <path class="cls-5" d="M194.35,102.83c-1.72-3.41-3.78-5.85-7.51-7-4.38-1.4-9.33-1.73-13.89-2.17a147.68,147.68,0,0,0-15.17-.68c-3.93,0-8.5-.19-12.49.75-5.49.34-11,1-16.42,1.65-2.59.32-5.49.81-7,3.21a4.38,4.38,0,0,0,.71,5.8c2.2,1.88,6,2.54,8.73,3.26a41.64,41.64,0,0,0,11.34,1.25q12.27-.09,24.53-.23A107.91,107.91,0,0,0,180.4,108a101.87,101.87,0,0,0,13-2.88A1.57,1.57,0,0,0,194.35,102.83Z"/>
      <g id="Слой_161" data-name="Слой 161">
        <path class="cls-2" d="M49.11,115.39c-1.59-1.65-4.74-1.26-6.85-1.43s-5.5-1.16-7.18.46a.27.27,0,0,0,0,.34,3.83,3.83,0,0,0,2.67,1.31,6,6,0,0,0,.44,3.45c.42.89,1.94.26,1.6-.67a9.55,9.55,0,0,1-.61-2.67c.43,0,.86,0,1.26.08.87.08,1.82.23,2.78.37a1.18,1.18,0,0,0,0,.27,4.73,4.73,0,0,0,0,.54,6.06,6.06,0,0,0,.23,1.2c.34,1,1.88.56,1.56-.43a6.51,6.51,0,0,0-.57-1.19l-.15-.24a16.78,16.78,0,0,0,4.21.17A.93.93,0,0,0,49.11,115.39Z"/>
        <path class="cls-2" d="M75,115.11c-2.41-.16-4.9.29-7.33.3-2.16,0-4.46-.37-6.56.18a.56.56,0,0,0-.13,1,10,10,0,0,0,4.19,1.1,6.07,6.07,0,0,0,.55,1.67.95.95,0,1,0,1.58-.92c-.16-.21-.34-.44-.53-.67l.9,0c.78,0,1.59,0,2.41,0a2.84,2.84,0,0,0-.09,1.61,1,1,0,1,0,1.78-.49,4.91,4.91,0,0,0-.92-1.13,16.14,16.14,0,0,0,4.43-.66A1.06,1.06,0,0,0,75,115.11Z"/>
        <path class="cls-2" d="M97.32,113.9a14,14,0,0,0-3.56.49c-1.25.22-2.52.34-3.78.52s-1,2.32.32,2.36q.57,0,1.2,0a9.38,9.38,0,0,0-.26,1.43,1.17,1.17,0,0,0,1.33,1.15,1.16,1.16,0,0,0,1-1.46,9,9,0,0,1-.24-1.15c.53,0,1.06-.08,1.57-.15l-.06.43a3.1,3.1,0,0,0,.18,1.38,1.16,1.16,0,0,0,1.11.85,1.13,1.13,0,0,0,.82-.34,1.18,1.18,0,0,0,.19-1.4,3.69,3.69,0,0,1-.3-.7l-.18-.6a6.3,6.3,0,0,0,1.32-.55A1.24,1.24,0,0,0,97.32,113.9Z"/>
        <path class="cls-2" d="M140.17,117.36a62.54,62.54,0,0,1-7.11-.6,33.06,33.06,0,0,0-5.77-.77c-.4,0-.73.59-.36.88a14.1,14.1,0,0,0,4.87,2.33,1.54,1.54,0,0,0-.28.5,3.28,3.28,0,0,0-.08,1.17,1.15,1.15,0,0,0,.81,1.06l.08,0a1,1,0,0,0,1.13-.47,1.25,1.25,0,0,0,.09-1c-.08-.2-.23-.36-.32-.56s-.1-.25-.16-.37a27.18,27.18,0,0,0,3.79.52,1.25,1.25,0,0,0,.61.92.8.8,0,0,0,.79,0,.76.76,0,0,0,.38-.67,1,1,0,0,0,0-.17h1.55A1.38,1.38,0,0,0,140.17,117.36Z"/>
        <path class="cls-2" d="M122,121.08c-3.67.44-7.38.58-11.07.78-3.31.18-7-.08-10.19.84a.3.3,0,0,0,0,.58c3.23.69,6.91.12,10.19,0,3.69-.18,7.38-.5,11.07-.56C123,122.67,123,121,122,121.08Z"/>
        <path class="cls-2" d="M122.32,126.45c-7.53.65-15.25.61-22.72,1.67-.87.12-.6,1.42.2,1.46,7.41.38,15.13-.68,22.52-1.29C123.49,128.19,123.5,126.35,122.32,126.45Z"/>
        <path class="cls-2" d="M173.28,115.83a40.79,40.79,0,0,0-6.09.87c-2.45.38-4.9.69-7.36,1-.72.08-6.3.06-6.34,1v.31a.81.81,0,0,0,.41.71c1.55,1,3.71.87,5.75.61a5.24,5.24,0,0,0,.12,1.11c.31,1.31,2.44.72,2-.55a4.88,4.88,0,0,0-.36-.81c.46-.06.9-.13,1.31-.17.87-.09,1.79-.16,2.71-.24a2.58,2.58,0,0,0,.25,1.4c.49,1,2.2.28,1.79-.76-.11-.27-.27-.52-.38-.79a27,27,0,0,0,6.5-1.27A1.19,1.19,0,0,0,173.28,115.83Z"/>
        <path class="cls-2" d="M191.64,114.33c-1.24.31-2.46.68-3.71.93s-2.54.3-3.77.6-.79,1.86.27,2a11.63,11.63,0,0,0,1.33.06,6.66,6.66,0,0,1-.26.9,1,1,0,1,0,2,0,6.17,6.17,0,0,0-.29-1c.37,0,.75-.1,1.13-.17a2.26,2.26,0,0,0,.32,2.16,1,1,0,0,0,1.59-.21c.41-.74,0-1.57-.08-2.36a20.45,20.45,0,0,0,2.09-.7A1.15,1.15,0,0,0,191.64,114.33Z"/>
      </g>
    </g>
  </g>
</svg>
