<svg xmlns="http://www.w3.org/2000/svg" viewBox="0 0 232.28 236.9">
  <defs>
    <style>
      .cls-1 {
        fill: #5b4069;
      }

      .cls-2 {
        fill: #312537;
      }

      .cls-3 {
        fill: #9261a8;
      }

      .cls-4 {
        fill: #ccaed1;
      }
    </style>
  </defs>
  <title>Ресурс 3cymbaly</title>
  <g id="Слой_2" data-name="Слой 2">
    <g id="Слой_33" data-name="Слой 33">
      <path class="cls-1" d="M145.05,6.22c-9-7.46-20.63-6.39-31.54-5.8-13.16.71-26.58.9-39.1,5.53C51.8,14.32,34.07,33,18.72,51,10.71,60.33,4,71.84,1.63,84.07.3,90.94.57,97.93.74,104.89.89,111.32.31,117.63.09,124c-.73,21.6,2.76,44.58,16.71,61.79,16.46,20.31,39.7,36.33,64.06,45.56,12.73,4.82,24.11,6.9,37.58,4.53s27.51-3.8,40.77-7.46c22-6.06,38.82-21.73,49.15-41.79,6-11.61,11.36-23.83,16.37-35.89A99.26,99.26,0,0,0,232.27,110c-.17-13.11-.43-26.33-4.9-38.82-4.7-13.16-12.71-23.8-22.31-33.8-9.44-9.83-19.68-19.49-31.9-25.76a65,65,0,0,0-19-6.32c-8.33-1.39-15.71.77-24,1.22-5.09.28-5.17,8,0,8,6.06-.07,12.42-2.13,18.41-.7,5.55,1.32,10.66,4.26,15.51,7.17,9.42,5.63,17.88,12.89,25.61,20.64s16.13,15.6,21.68,24.91c5.22,8.74,7.38,18.72,8,28.81,1.5,23.63-3.83,47.48-13.15,69.13-8.3,19.28-17.16,38.24-36,49.3-10.14,5.94-21.24,7.74-32.73,9.31-11.33,1.56-23.19,5.39-34.67,4.66-11.72-.75-24.47-6.17-34.72-11.61a152.34,152.34,0,0,1-30.65-22c-7.67-7-15.56-14.87-20.13-24.33-4.27-8.85-6.48-18.86-7.28-28.6-.88-10.7.41-21.12.41-31.79,0-12.6-.62-24,5-35.69S30.08,53,39,43.76C47.45,35,56.44,26.38,67.2,20.4c11.78-6.55,25.2-7.47,38.42-7.51,5.81,0,11.58-.06,17.39-.27,5.19-.19,10.47-.25,14.75,3.05,5.36,4.14,12.53-5.08,7.29-9.45Z"/>
    </g>
    <g id="Слой_151" data-name="Слой 151">
      <g id="Слой_153" data-name="Слой 153">
        <path class="cls-2" d="M205.5,143.66q-9.65-15.66-19.43-31.25-4.84-7.69-9.7-15.4c-1.63-2.59-3.3-5.17-5-7.74a18.62,18.62,0,0,0-5.07-5.74,15,15,0,0,0-7.29-2,82.68,82.68,0,0,0-8.33.1c-6.14.24-12.28.29-18.43.43q-18.23.41-36.45,1.13c-13.73.54-27.43,1.3-41.14,2.09A1.32,1.32,0,0,0,53.51,87c-2.73,8.19-9.16,14.47-13.64,21.69a123.29,123.29,0,0,0-6.68,12.92q-3.28,7-6.56,14.11-3.79,8.13-7.58,16.28a1.42,1.42,0,0,0,1.22,2.12L92,150.89c11.91-.53,23.81-1.12,35.72-1.52s23.81-.73,35.72-1.22c13.47-.56,27-1.17,40.43-1.61A1.94,1.94,0,0,0,205.5,143.66Z"/>
      </g>
      <g id="Слой_152" data-name="Слой 152">
        <path class="cls-3" d="M188.49,140.45c-3.12-8.36-9.47-14.74-14.73-21.74-5.92-7.89-9.29-17-13.23-26-.83-1.87-1.72-3.84-3.38-5.12a9.13,9.13,0,0,0-5.81-1.49c-5.35,0-10.71.23-16.06.35l-32.57.7Q84.38,87.58,66,88a.56.56,0,0,0,0,1.11h.32C62.1,96.53,58,104.07,54,111.6c-4,7.35-8.14,14.66-11.83,22.18a111,111,0,0,0-5.29,12.4c-.13.36.19.63.51.67A62.53,62.53,0,0,0,52,146.66c4.78-.5,9.54-1.1,14.33-1.49,9.73-.81,19.49-1.17,29.25-1.45q29.55-.85,59.11-1.62l33.22-.89A.61.61,0,0,0,188.49,140.45Z"/>
      </g>
      <g id="Слой_154" data-name="Слой 154">
        <path class="cls-2" d="M79.74,111.11a.49.49,0,0,0-.24.9c.43.27.82.61.65,1.17-.25.79,1.06,1.13,1.21.34C81.55,112.5,80.92,111.12,79.74,111.11Z"/>
        <path class="cls-2" d="M79.66,115c-.27.47-.71.62-1.12.93a.32.32,0,0,0,.07.58c.76.24,1.53-.41,1.92-1S80,114.46,79.66,115Z"/>
        <path class="cls-2" d="M77.77,111.64c-.81-.38-1.82.3-2.45.76a.59.59,0,0,0-.26.64l0,0a.54.54,0,0,0,.62.36c.23,0,.33-.21.48-.36a2.71,2.71,0,0,1,.54-.42,6.9,6.9,0,0,0,1.11-.59A.28.28,0,0,0,77.77,111.64Z"/>
        <path class="cls-2" d="M76.11,115.85a2.14,2.14,0,0,1-.72-1.11c-.09-.24-.48-.36-.61-.08a1.81,1.81,0,0,0,.74,2.2C76.12,117.3,76.73,116.28,76.11,115.85Z"/>
        <path class="cls-2" d="M77.62,113.37c.16-.12.11-.44-.12-.41,0,0,0,0,0,0l-.07,0a.86.86,0,0,0-.16,0,.63.63,0,0,0-.37.12,1.51,1.51,0,0,0-.52.63,1,1,0,0,0,0,.83.65.65,0,0,0,.93.34.53.53,0,0,0,0-.87,1,1,0,0,1,.07-.23C77.45,113.63,77.55,113.51,77.62,113.37Z"/>
        <path class="cls-2" d="M78.59,115.47a.43.43,0,0,0-.7-.19c-.12.15-.13.28-.32.34a1,1,0,0,1-.68-.14c-.38-.17-.72.36-.34.57a1.82,1.82,0,0,0,1.32.36A.87.87,0,0,0,78.59,115.47Z"/>
        <path class="cls-2" d="M79.37,113.05a.88.88,0,0,0-1.11-.35.43.43,0,0,0,0,.74,1.15,1.15,0,0,1,.2.14.76.76,0,0,1,0,.47.56.56,0,0,0,.38.67.55.55,0,0,0,.68-.38A1.57,1.57,0,0,0,79.37,113.05Z"/>
        <path class="cls-2" d="M76.82,110.07c-.35-.36-1.1,0-1.49.12a1.81,1.81,0,0,0-1.06,1c-.29.72,1.2,1,1,0,0,.12,0,.05.06,0a.93.93,0,0,1,.15-.13,3.76,3.76,0,0,1,.56-.3c.3-.15.65-.2.79-.53A.14.14,0,0,0,76.82,110.07Z"/>
        <path class="cls-2" d="M73.81,114.31c0-.44.08-.89,0-1.32a.2.2,0,0,0-.29-.17c-.91.46-.92,2.05-.81,2.9s1.24.79,1.2,0C73.92,115.25,73.82,114.78,73.81,114.31Z"/>
        <path class="cls-2" d="M76.46,117.73c-.41,0-.81,0-1.22-.1a3.79,3.79,0,0,0-1.1-.19.29.29,0,0,0-.25.44c.43.82,1.89,1,2.71.9C77.24,118.69,77,117.79,76.46,117.73Z"/>
        <path class="cls-2" d="M81,116.88c-.23.24-.87.24-1.19.32a2.3,2.3,0,0,0-1.07.44.24.24,0,0,0,.1.39A3.79,3.79,0,0,0,80.6,118c.5-.08,1-.12,1.17-.64S81.29,116.55,81,116.88Z"/>
        <path class="cls-2" d="M82.53,114.27a15,15,0,0,1-.78,1.42c-.1.25.22.4.41.31.54-.25.87-.92,1.21-1.38S82.73,113.58,82.53,114.27Z"/>
        <path class="cls-2" d="M83,112.27a6.87,6.87,0,0,1-.42-1.06.49.49,0,0,0-.67-.32.48.48,0,0,0-.24.7,8.09,8.09,0,0,1,.51,1C82.37,113.06,83.16,112.74,83,112.27Z"/>
        <path class="cls-2" d="M79.33,109.25a1.65,1.65,0,0,0-.58-.1.76.76,0,0,0-.7.33.52.52,0,0,0,.3.75c.27.11.53-.06.81,0s.43.12.65.15a.3.3,0,0,0,.29-.29A1,1,0,0,0,79.33,109.25Z"/>
        <path class="cls-2" d="M73.38,109.79A4.44,4.44,0,0,0,71.67,112c-.22.61.8,1.06,1.07.45a10.73,10.73,0,0,1,.5-1.09,9.46,9.46,0,0,1,.69-1C74.18,110,73.7,109.58,73.38,109.79Z"/>
        <path class="cls-2" d="M72.11,117a14.69,14.69,0,0,1-.72-2.4.26.26,0,0,0-.49,0,4.77,4.77,0,0,0,.11,2.7C71.27,118,72.37,117.7,72.11,117Z"/>
        <path class="cls-2" d="M74.51,119.55c-.11-.08-.27-.12-.39-.2l-.51-.31a3.6,3.6,0,0,0-1-.46.24.24,0,0,0-.27.35,3.69,3.69,0,0,0,.75.92,3.42,3.42,0,0,0,1,.75.6.6,0,0,0,.72-.41l0,0A.56.56,0,0,0,74.51,119.55Z"/>
        <path class="cls-2" d="M80.21,119a5.48,5.48,0,0,0-1.62.32c-.39.09-.86.13-1.11.48a.11.11,0,0,0,0,.13c.3.39,1,.35,1.41.3a2.85,2.85,0,0,0,1.62-.47C80.86,119.47,80.56,119,80.21,119Z"/>
        <path class="cls-2" d="M84.72,117a.46.46,0,0,0-.33-.33.49.49,0,0,0-.46.12,8.11,8.11,0,0,1-1.69,1.34.39.39,0,0,0,.4.68,18,18,0,0,0,1.86-1.27A.51.51,0,0,0,84.72,117Z"/>
        <path class="cls-2" d="M85,113.17c.19.58-.2,1.25,0,1.81a.2.2,0,0,0,.3.12c.65-.35.56-1.32.68-1.93C86.1,112.29,84.72,112.42,85,113.17Z"/>
        <path class="cls-2" d="M84.58,110.33c-.34-.28-.77-.44-1.09-.74s-.76.08-.54.41a8.34,8.34,0,0,0,.72.94,4,4,0,0,1,.3.39c.12.2.16.41.4.54a.54.54,0,0,0,.72-.19C85.36,111.18,85,110.65,84.58,110.33Z"/>
        <path class="cls-2" d="M81.48,108a2.23,2.23,0,0,0-1.44-.16,1.92,1.92,0,0,0-.61.25c-.2.12-.21.24-.31.39a.2.2,0,0,0,.17.3l0,0,.08,0a.53.53,0,0,0,.18,0c.17,0,.35,0,.53,0a2.89,2.89,0,0,1,1,.25C81.64,109.26,82.05,108.28,81.48,108Z"/>
        <path class="cls-2" d="M77.24,108a3.42,3.42,0,0,0-.93.23,5.08,5.08,0,0,0-.83.36c-.17.1-.17.43.06.47a3.79,3.79,0,0,0,.89,0,3.27,3.27,0,0,0,.94-.11C77.88,108.79,77.83,108,77.24,108Z"/>
        <path class="cls-2" d="M128.38,111.27a2,2,0,0,0-1.07,1.31,2.44,2.44,0,0,1,.1-.8c.09-.27.15-.68-.24-.72s-.6.37-.73.64a2.81,2.81,0,0,0-.29,1.1c-.05.7,1,.75,1.16.18a.5.5,0,0,0,1,0c.08-.25.06-.53.12-.78s.16-.47.22-.71S128.52,111.22,128.38,111.27Z"/>
        <path class="cls-2" d="M129.05,114.33a2.71,2.71,0,0,1-.74-.15,1.75,1.75,0,0,0-.7-.23.31.31,0,0,0-.3.3c.07.77,1.11,1.06,1.74,1.12S129.73,114.35,129.05,114.33Z"/>
        <path class="cls-2" d="M132.77,112.43a.34.34,0,0,0-.51.29c0,.27.06.54,0,.81a3,3,0,0,1-.08.32.53.53,0,0,0-.35-.19c-.28,0-.44.19-.66.3a2,2,0,0,1-.59.16c-.48.06-.37.89.12.85a2.94,2.94,0,0,0,.82-.18,1.62,1.62,0,0,0,.57-.29.51.51,0,0,0,.8.17A1.61,1.61,0,0,0,132.77,112.43Z"/>
        <path class="cls-2" d="M132.44,110a7,7,0,0,0-2-1.06.37.37,0,0,0-.36.62,9.71,9.71,0,0,0,.88.81c-.37-.16-.88.31-.61.71a6,6,0,0,1,.54,1,2.31,2.31,0,0,1,.09,1c0,.69.91.72,1.13.16.37-1-.4-2-1-2.7l.57.45A.61.61,0,1,0,132.44,110Z"/>
        <path class="cls-2" d="M129.24,110.27a.89.89,0,0,0-.56-.24c-.26,0-.55,0-.62.34a.34.34,0,0,0,.16.39c.18.13.34,0,.53,0s.27-.08.4-.12A.21.21,0,0,0,129.24,110.27Z"/>
        <path class="cls-2" d="M129.76,112.09a.84.84,0,0,0-.23-.23.38.38,0,0,0-.13-.09l-.08,0a.27.27,0,0,0-.36-.08.38.38,0,0,0-.23.37c0,.19.11.29.16.45.16.44-.44.71-.26,1.18a.47.47,0,0,0,.44.34c.57,0,.84-.71.88-1.21A1.09,1.09,0,0,0,129.76,112.09Z"/>
        <path class="cls-2" d="M128.47,109.26a2.82,2.82,0,0,0-2.37.92c-.48.46.32,1.22.72.72a4.13,4.13,0,0,1,.84-.83,10.29,10.29,0,0,0,.86-.61A.12.12,0,0,0,128.47,109.26Z"/>
        <path class="cls-2" d="M126,114.19a2.67,2.67,0,0,1-.28-1.62c0-.39-.5-.45-.68-.19a2.3,2.3,0,0,0-.34,1.6c.06.5.29,1.32.92,1.33S126.19,114.59,126,114.19Z"/>
        <path class="cls-2" d="M128,116.13a5.62,5.62,0,0,0-1.63-.63.25.25,0,0,0-.22.38,2.84,2.84,0,0,0,1.33,1.08c.34.17,1.13.6,1.39.08S128.35,116.26,128,116.13Z"/>
        <path class="cls-2" d="M132,115.69c-.22,0-2.21.25-1.83.75.17.22.41.17.66.13s.78-.1,1.17-.12S132.52,115.65,132,115.69Z"/>
        <path class="cls-2" d="M127.91,108a1.61,1.61,0,0,0-1.14.08l-.6.24a3.81,3.81,0,0,1-.71.33.56.56,0,1,0,.64.83c.18-.31.75-.53,1.05-.69a2,2,0,0,0,.83-.55A.18.18,0,0,0,127.91,108Z"/>
        <path class="cls-2" d="M124,110.86a2.79,2.79,0,0,0-.85,1.91c0,.67,1,.66,1,0s.14-1.17.19-1.75C124.44,110.81,124.17,110.75,124,110.86Z"/>
        <path class="cls-2" d="M125.4,117.41c-.12-.34-.48-.41-.72-.64a2.52,2.52,0,0,1-.46-.89c-.08-.18-.27-.49-.51-.36-.58.33-.29,1.37,0,1.81s1.24,1.27,1.68.52A.49.49,0,0,0,125.4,117.41Z"/>
        <path class="cls-2" d="M130.07,118.37c-.34-.52-1-.41-1.51-.44a6.91,6.91,0,0,0-2,0c-.16,0-.25.29-.11.4a3.74,3.74,0,0,0,1.89.63c.61.09,1.36.29,1.76-.29A.29.29,0,0,0,130.07,118.37Z"/>
        <path class="cls-2" d="M133.57,116.8c-.36-.12-.69.13-1,.27s-.74.26-1.11.41a.23.23,0,0,0,0,.44,2.47,2.47,0,0,0,1.4-.07c.41-.14.85-.31.92-.79A.29.29,0,0,0,133.57,116.8Z"/>
        <path class="cls-2" d="M132.75,108.42a2.18,2.18,0,0,0-2-.68.39.39,0,0,0-.1.71,4.87,4.87,0,0,1,.71.3,2.37,2.37,0,0,1,.55.5C132.42,109.82,133.25,109,132.75,108.42Z"/>
        <path class="cls-2" d="M134.6,113.14a2.17,2.17,0,0,0-.87-1.53c-.32-.24-.65.2-.5.5a3.68,3.68,0,0,1,.35,1.17C133.67,113.86,134.67,113.73,134.6,113.14Z"/>
        <path class="cls-2" d="M134.43,115.38a1,1,0,0,0-.05-.25c0-.08-.1-.13-.13-.2a.29.29,0,0,0-.52.06.1.1,0,0,1,0,0,.37.37,0,0,0-.07.14s0,.1,0,.15a1.22,1.22,0,0,0-.09.42.47.47,0,0,0,.33.44.49.49,0,0,0,.51-.21A.86.86,0,0,0,134.43,115.38Z"/>
        <path class="cls-2" d="M125.64,106.86a3.37,3.37,0,0,0-2.16.88.56.56,0,1,0,.68.88c.29-.23.58-.46.88-.67a2.5,2.5,0,0,0,.78-.66A.29.29,0,0,0,125.64,106.86Z"/>
        <path class="cls-2" d="M123.11,109.47c-.55,0-.8.46-1,.93s-.59,1.4-.13,1.91a.47.47,0,0,0,.64,0c.36-.3.25-.83.3-1.26a1.92,1.92,0,0,1,.36-1.15A.26.26,0,0,0,123.11,109.47Z"/>
        <path class="cls-2" d="M122.46,115.12a2.82,2.82,0,0,1-.33-1.23c0-.42-.69-.54-.76-.11a3.59,3.59,0,0,0,0,1.63.56.56,0,0,0,.67.39A.56.56,0,0,0,122.46,115.12Z"/>
        <path class="cls-2" d="M129.39,106.29c-.37,0-.73,0-1.1,0a2,2,0,0,0-.87.15.19.19,0,0,0,0,.32,2,2,0,0,0,.85.25c.33.06.66.14,1,.18C130,107.33,130.08,106.29,129.39,106.29Z"/>
        <path class="cls-2" d="M134.54,108.23a3.43,3.43,0,0,0-1.13-.71,4,4,0,0,0-.59-.18l-.23-.06s-.25-.11-.16,0a.29.29,0,0,0-.43.25c.05.43.27.56.64.73a3.29,3.29,0,0,1,1.09.83C134.22,109.58,135.08,108.73,134.54,108.23Z"/>
        <path class="cls-2" d="M135.26,110.85c-.28-.25-.84,0-.69.4a7.68,7.68,0,0,1,.47,2.11.61.61,0,0,0,1.22,0A3.23,3.23,0,0,0,135.26,110.85Z"/>
        <path class="cls-2" d="M135.73,115.65a2,2,0,0,0-.21-.7.23.23,0,0,0-.42.06,6.64,6.64,0,0,1-.46,1,.53.53,0,1,0,1,.41A1.77,1.77,0,0,0,135.73,115.65Z"/>
        <path class="cls-2" d="M101.69,87.31a.26.26,0,0,0-.51,0c-.4,7.69-1,15.36-1.51,23l-.81,11.38c-.13,1.89-.2,3.78-.42,5.66a16.63,16.63,0,0,0-.28,5c.1.6,1,.35.9-.25-.34-1.82.27-3.7.49-5.51s.32-3.54.44-5.31q.38-5.68.77-11.38t.77-11.38A60.52,60.52,0,0,0,101.69,87.31Z"/>
        <path class="cls-2" d="M78.8,91.27l-2.51-.57a.48.48,0,0,0-.55.24.26.26,0,0,0-.2.18,43,43,0,0,1-2,5c-.7,1.39-.49,2.54-.28,4a.53.53,0,0,0,.63.37,3.27,3.27,0,0,1,2.2.2.54.54,0,0,0,.8-.46c0-.79-.06-1.6,0-2.39a5.87,5.87,0,0,1,.8-2c.58-1.26.64-2.69,1.45-3.86A.5.5,0,0,0,78.8,91.27Z"/>
        <path class="cls-2" d="M139.07,99.6a24.22,24.22,0,0,0-1.51-2.9c-.54-1-1-2.07-1.52-3.11a41.76,41.76,0,0,0-3.21-6.5.27.27,0,0,0-.5.2A22.94,22.94,0,0,0,133.59,91c.43,1.11.88,2.21,1.33,3.31s.85,2,1.33,3a11.07,11.07,0,0,0,1.75,3A.65.65,0,0,0,139.07,99.6Z"/>
        <path class="cls-2" d="M173.26,135.17a195.58,195.58,0,0,1-11.92-18.68c-1.86-3.22-3.57-6.51-5.39-9.75-1.73-3.09-3.84-5.88-5.78-8.84s-2.81-6.62-5.49-9a.42.42,0,0,0-.14-.09c0-.14-.14-.29-.29-.18-1,.69-1.95,1.58-1.5,2.89a18.36,18.36,0,0,0,1.17,2.35l1.51,3a79.5,79.5,0,0,0,6.19,10.6,153.11,153.11,0,0,1,12.31,20.25,42.72,42.72,0,0,0,6.78,10.4.4.4,0,0,0,.66-.18,3.72,3.72,0,0,1,1.75-2.23A.41.41,0,0,0,173.26,135.17Z"/>
        <path class="cls-2" d="M58.55,133.77a12.15,12.15,0,0,0-1.09-2.16.47.47,0,0,0-.52-.21c-.76.15-1.29,1.32-1.69,1.9-.56.82-1.06,1.67-1.57,2.52l0,.05-.29.49a.44.44,0,0,0,.21.63,15.22,15.22,0,0,0,.39,2.73.58.58,0,0,0,.95.25,26.85,26.85,0,0,0,3-4.38C58.24,135,58.7,134.43,58.55,133.77Z"/>
      </g>
      <g id="Слой_156" data-name="Слой 156">
        <path class="cls-4" d="M186.82,133.11c-9.71.89-19.4,1.95-29.17,2s-19.22-.71-28.84-.86c-9.79-.14-19.6,0-29.4.14-9.6.12-19.22.33-28.82.87q-8.16.47-16.29,1.36a113.2,113.2,0,0,1-16.14,1c-.34,0-.33.48,0,.51a76.36,76.36,0,0,0,14.41-.66c4.84-.54,9.67-1,14.52-1.35,9.6-.71,19.2-1,28.82-1.18,9.78-.16,19.57-.28,29.36-.21,9.64.07,19.25.77,28.88.9a260.65,260.65,0,0,0,32.67-2C187.14,133.57,187.15,133.08,186.82,133.11Z"/>
        <path class="cls-4" d="M184.86,130.51c-18.83,2.83-38,1.9-57,1.88s-38.16.17-57.23.61c-10.77.25-21.58.37-32.33,1.05-.07,0-.07.11,0,.11,9.66-.11,19.33-.58,29-.81s19.07-.41,28.61-.52c19.14-.22,38.28.08,57.42,0a218.21,218.21,0,0,0,31.6-2C185.21,130.85,185.1,130.47,184.86,130.51Z"/>
        <path class="cls-4" d="M183.52,126.78q-28.1,2.5-56.27,3.3c-18.8.55-37.6.64-56.4.57q-7.81,0-15.62-.09c-5.33,0-10.68-.21-16,0-.07,0-.07.1,0,.11,4.67.27,9.37.22,14.05.25l14,.1q14.16.06,28.31,0c18.8-.12,37.59-.53,56.36-1.52,10.52-.55,21-1.22,31.52-2.21C183.84,127.26,183.85,126.75,183.52,126.78Z"/>
        <path class="cls-4" d="M181.39,123.8c-9.07-.12-18,1.33-27,2.41a223.33,223.33,0,0,1-27.12,1.51c-18.42,0-36.8-1.44-55.23-1.17q-15.51.21-31,1.12c-.29,0-.3.47,0,.46,9.24-.3,18.47-.83,27.72-1s18.21-.07,27.32.24c18.36.63,36.8,1.7,55.11-.27,10.07-1.08,20.09-2.92,30.26-2.79A.25.25,0,0,0,181.39,123.8Z"/>
        <path class="cls-4" d="M179,119.77q-26.66,1.77-53.36,2.66c-17.73.61-35.47,1-53.21,1.2-10,.09-20,0-30-.15a.19.19,0,0,0,0,.37c8.88.44,17.8.36,26.69.3s17.8-.19,26.7-.38c17.74-.38,35.47-1.06,53.19-1.91,10-.49,20-1.1,30-1.73C179.22,120.11,179.22,119.76,179,119.77Z"/>
        <path class="cls-4" d="M176.11,115.85c-17.11,1.88-34.23,3.81-51.42,4.73s-34.37.35-51.58-.14c-9.63-.28-19.26-.57-28.9-.8-.23,0-.23.35,0,.36,17.19.54,34.37,1.07,51.56,1.41a466.78,466.78,0,0,0,51.54-2.14c9.61-.88,19.2-1.94,28.8-3C176.37,116.24,176.38,115.82,176.11,115.85Z"/>
        <path class="cls-4" d="M173.48,112.15c-8.29.92-16.57,2-24.85,3.06a232.1,232.1,0,0,1-24.27,2.1c-8.31.16-16.64-.1-25-.22l-25-.39c-9.36-.15-18.73-.49-28.09-.43a.16.16,0,1,0,0,.33c8.37.31,16.77.27,25.15.41l24.95.39c8.33.13,16.66.36,25,.31a213,213,0,0,0,24.47-1.77c9.21-1.11,18.42-2.16,27.61-3.4C173.76,112.51,173.71,112.12,173.48,112.15Z"/>
        <path class="cls-4" d="M172.25,109.48c-16.09,2-32.23,4-48.45,4.59-8.14.27-16.28.2-24.42.15s-16.29-.09-24.43-.15c-9.19-.07-18.38-.37-27.56-.25a.25.25,0,0,0,0,.49c8.2.2,16.42,0,24.62.07l24.24.14c8.15,0,16.31.16,24.45,0s16.2-.69,24.27-1.43c9.12-.85,18.2-2,27.28-3.1C172.56,109.93,172.56,109.44,172.25,109.48Z"/>
        <path class="cls-4" d="M170.09,106.2c-15.72-.4-31.14,3.38-46.75,4.51-15.76,1.13-31.56.13-47.32-.22a251.83,251.83,0,0,0-26.64.52c-.28,0-.28.46,0,.44,15.77-1.16,31.54-.33,47.32.06,7.92.19,15.84.25,23.75-.18,7.71-.42,15.35-1.47,23-2.52,8.84-1.21,17.71-2.3,26.65-2.09A.26.26,0,0,0,170.09,106.2Z"/>
        <path class="cls-4" d="M168.36,103.27c-7.21,2-14.73,2-22.16,2.1-7.63.08-15.23.51-22.84,1s-15.42,1.16-23.14,1.51-15.3.35-23,0c-8.72-.39-17.42-1-26.14-1.29-.22,0-.21.31,0,.33,7.79.58,15.61.86,23.41,1.25s15.43.54,23.15.25c15.45-.56,30.83-2.31,46.28-2.54,8.22-.12,16.55.13,24.54-2.1A.29.29,0,0,0,168.36,103.27Z"/>
        <path class="cls-4" d="M167.12,99.4c-14.67,2.2-29.44,4-44.3,4-7.43,0-14.85-.3-22.28-.12s-14.88.49-22.32.75c-8.39.29-16.79.51-25.17.93a.22.22,0,0,0,0,.44c15-.3,30-1.08,45-1.52,7.42-.22,14.83-.07,22.26,0a217.25,217.25,0,0,0,22.38-.88c8.23-.73,16.42-1.85,24.58-3.07C167.61,99.87,167.46,99.35,167.12,99.4Z"/>
      </g>
      <g id="Слой_155" data-name="Слой 155">
        <path class="cls-1" d="M187.94,132.64a.7.7,0,0,0-.91.17.76.76,0,0,0-.15.58s0,0,0,0a.6.6,0,0,0,.6.66.73.73,0,0,0,.69-.59A.7.7,0,0,0,187.94,132.64Z"/>
        <path class="cls-1" d="M191,132.39a.74.74,0,0,0-.81-.34.75.75,0,0,0-.2.1.77.77,0,0,0-.52.54.86.86,0,0,0,0,.22.6.6,0,0,0,.06.39.76.76,0,0,0,.56.35.65.65,0,0,0,.31,0l.1,0A.85.85,0,0,0,191,132.39Z"/>
        <path class="cls-1" d="M193.8,132.2a.78.78,0,0,0-.61-.28.83.83,0,0,0-.66.37,1.05,1.05,0,0,0-.16.59.63.63,0,0,0,.67.62.83.83,0,0,0,.81-.48A.78.78,0,0,0,193.8,132.2Z"/>
        <path class="cls-1" d="M196.13,131.64a.66.66,0,0,0-.75.16s-.06.1-.09.14a1.43,1.43,0,0,0-.14.2.36.36,0,0,0-.51.21.83.83,0,0,0-.07.35,1.12,1.12,0,0,0,.12.35.74.74,0,0,0,.87.29,1.2,1.2,0,0,0,.25-.13.8.8,0,0,0,.31-.15,1.26,1.26,0,0,0,.43-.88A.56.56,0,0,0,196.13,131.64Z"/>
        <path class="cls-1" d="M186.8,129.68a.61.61,0,0,0-.75-.43h0a.92.92,0,0,0-.45.23.72.72,0,0,0-.42.2.7.7,0,0,0-.12.86.82.82,0,0,0,.6.38.77.77,0,0,0,.37,0,1,1,0,0,0,.65-.46A1.07,1.07,0,0,0,186.8,129.68Z"/>
        <path class="cls-1" d="M189.8,129a.53.53,0,0,0-.63-.36.7.7,0,0,0-.38.22.71.71,0,0,0-.28.18.66.66,0,0,0-.16.28.45.45,0,0,0-.16.35.58.58,0,0,0,.44.56,1.09,1.09,0,0,0,.31,0,.7.7,0,0,0,.32-.05.86.86,0,0,0,.38-.35A1,1,0,0,0,189.8,129Z"/>
        <path class="cls-1" d="M191.76,128.48c-.42-.13-1,.24-1,.71a.6.6,0,0,0,.14.37.54.54,0,0,0,.15.29.7.7,0,0,0,1.06-.22C192.27,129.26,192.21,128.62,191.76,128.48Z"/>
        <path class="cls-1" d="M194.49,128.58a.45.45,0,0,0-.07-.3.51.51,0,0,0-.32-.26.75.75,0,0,0-.66.18.66.66,0,0,0-.19.64.64.64,0,0,0,.06.54.53.53,0,0,0,.72.19,1.11,1.11,0,0,0,.41-.54A1,1,0,0,0,194.49,128.58Z"/>
        <path class="cls-1" d="M183.33,125.77a.47.47,0,0,0-.26,0,.34.34,0,0,0-.14.05.23.23,0,0,0-.2.11.7.7,0,0,0-.08.23s0,0,0,.05,0,0,0,0a.82.82,0,0,0,.35,1,.8.8,0,1,0,.36-1.54Z"/>
        <path class="cls-1" d="M187,125.41a.62.62,0,0,0-.62-.17.5.5,0,0,0-.24.12.68.68,0,0,0-.41.21l0,0h0a.67.67,0,0,0-.14,1,.71.71,0,0,0,.78.13.8.8,0,0,0,.61-.38A.77.77,0,0,0,187,125.41Z"/>
        <path class="cls-1" d="M189.8,125.13a.61.61,0,0,0-.19-.33.88.88,0,0,0-.17-.12.59.59,0,0,0-.65-.06.72.72,0,0,0-.31.91.41.41,0,0,0,.05.09.45.45,0,0,0,.08.22.5.5,0,0,0,.78.09l0-.05A.66.66,0,0,0,189.8,125.13Z"/>
        <path class="cls-1" d="M192.27,124.63h0a1,1,0,0,1,0-.12.68.68,0,0,0-.81-.5.7.7,0,0,0-.52.7v0a1.18,1.18,0,0,0,.12.8.54.54,0,0,0,.73.19,1,1,0,0,0,.46-.58.85.85,0,0,0,.06-.31A1.5,1.5,0,0,0,192.27,124.63Z"/>
        <path class="cls-1" d="M181.89,123a.73.73,0,0,0-1.28,0,.55.55,0,0,0,0,.45.66.66,0,0,0,.24.49l.1.15a.48.48,0,0,0,.36.14.54.54,0,0,0,.36-.14,1,1,0,0,0,.24-.33A.75.75,0,0,0,181.89,123Z"/>
        <path class="cls-1" d="M185.16,122.37l0-.07a.67.67,0,0,0-.58-.31.75.75,0,0,0-.67.5,1.11,1.11,0,0,0,0,.6.59.59,0,0,0,.72.41.94.94,0,0,0,.55-.41A.76.76,0,0,0,185.16,122.37Z"/>
        <path class="cls-1" d="M188.18,121.81a.52.52,0,0,0-.16-.32.78.78,0,0,0-.58-.23.86.86,0,0,0-.68.39,1.06,1.06,0,0,0-.09.25.51.51,0,0,0,0,.52,1,1,0,0,0,.38.39.56.56,0,0,0,.66-.08,2.26,2.26,0,0,0,.4-.57A.61.61,0,0,0,188.18,121.81Z"/>
        <path class="cls-1" d="M190.1,121.56v-.09h0a.84.84,0,0,0,0-.27.6.6,0,0,0-.73-.35.92.92,0,0,0-.29.17h0a.9.9,0,0,0-.44.78.56.56,0,0,0,.57.57,1,1,0,0,0,.56-.22l.14-.08A.64.64,0,0,0,190.1,121.56Z"/>
        <path class="cls-1" d="M179.37,119.09a.93.93,0,0,0-.71.11.76.76,0,0,0-.28,1l.05.07a.66.66,0,0,0,.45.57,1,1,0,0,0,1.19-.65A.93.93,0,0,0,179.37,119.09Z"/>
        <path class="cls-1" d="M182.75,118.18a.89.89,0,0,0-.55-.24.82.82,0,0,0-.61.21.61.61,0,0,0-.08.74.73.73,0,0,0,.21.56.22.22,0,0,0,.05.08.57.57,0,0,0,.41.27.53.53,0,0,0,.48-.16.83.83,0,0,0,.19-.26l.08-.12A.91.91,0,0,0,182.75,118.18Z"/>
        <path class="cls-1" d="M185.45,117.57a.74.74,0,0,0-.62-.36.77.77,0,0,0-.3.06.85.85,0,0,0-.21.14.53.53,0,0,0-.12.14l-.06.08a.77.77,0,1,0,1.31-.06Z"/>
        <path class="cls-1" d="M187.27,116.67a.57.57,0,0,0-.38-.16.48.48,0,0,0-.41.21.13.13,0,0,0,0,0,.66.66,0,0,0-.17.23.78.78,0,0,0,0,.65.53.53,0,0,0,.33.24.58.58,0,0,0,.41,0,.81.81,0,0,0,.43-.49A.67.67,0,0,0,187.27,116.67Z"/>
        <path class="cls-1" d="M176.66,115.08a1,1,0,0,0-1.15.67.59.59,0,0,0,.42.73l.06,0h.11a.72.72,0,0,0,.24.1h0a.77.77,0,0,0,.89-.52A.84.84,0,0,0,176.66,115.08Z"/>
        <path class="cls-1" d="M179.94,114.55a.68.68,0,0,0-1.14-.09.82.82,0,0,0-.29.18.71.71,0,0,0-.21.41.64.64,0,0,0,0,.67.74.74,0,0,0,1,.22.89.89,0,0,0,.57-.37A1.06,1.06,0,0,0,179.94,114.55Z"/>
        <path class="cls-1" d="M182.59,113.34a.77.77,0,0,0-.66-.09.75.75,0,0,0-.38.25,0,0,0,0,1,0,0,.77.77,0,0,0-.24.39h0a.74.74,0,0,0-.09.85.59.59,0,0,0,.64.25.93.93,0,0,0,.38-.2,1.06,1.06,0,0,0,.43-.32,1.49,1.49,0,0,0,.22-.48A.6.6,0,0,0,182.59,113.34Z"/>
        <path class="cls-1" d="M184.83,112.88a.27.27,0,0,0-.12-.09c.11.07.11.08,0,0l-.15-.09a.67.67,0,0,0-.6.06.78.78,0,0,0-.35.79s0,0,0,0a.59.59,0,0,0,.59.66.76.76,0,0,0,.61-.36.62.62,0,0,0,.09-.26,1.1,1.1,0,0,0,0-.18A.55.55,0,0,0,184.83,112.88Z"/>
        <path class="cls-1" d="M174.51,111.78a.89.89,0,0,0-1.06.09.8.8,0,0,0-.25.79.29.29,0,0,0,0,.13,1.22,1.22,0,0,0,.13.53.68.68,0,0,0,.68.33.64.64,0,0,0,.45-.33.94.94,0,0,0,.44-.54A.87.87,0,0,0,174.51,111.78Z"/>
        <path class="cls-1" d="M178,111.49a.62.62,0,0,0-.46-.59,1.34,1.34,0,0,0-.35-.05.67.67,0,0,0-.48.25.86.86,0,0,0-.13.14l-.1,0a.61.61,0,0,0-.2.82.82.82,0,0,0,.69.42.88.88,0,0,0,.5-.16A.94.94,0,0,0,178,111.49Z"/>
        <path class="cls-1" d="M180.34,110a.86.86,0,0,0-.51-.14.67.67,0,0,0-.51.27.72.72,0,0,0-.32.5.55.55,0,0,0-.1.22.61.61,0,0,0,.1.49.59.59,0,0,0,.44.22.58.58,0,0,0,.23,0,.68.68,0,0,0,.33-.09,1.34,1.34,0,0,0,.61-.79A.59.59,0,0,0,180.34,110Z"/>
        <g>
          <path class="cls-1" d="M182.73,109.78a1,1,0,0,0-.09-.22l-.1-.12-.07,0,0,0-.13-.1a.79.79,0,0,0-.3-.08.59.59,0,0,0-.56.43s0,0,0,0a.62.62,0,0,0-.14.6.72.72,0,0,0,.49.48.7.7,0,0,0,.67-.2.75.75,0,0,0,.18-.31s0-.09,0-.14a1,1,0,0,1,0-.17A1.1,1.1,0,0,0,182.73,109.78Z"/>
          <path class="cls-1" d="M182.72,110.13h0s0-.11,0,0A.08.08,0,0,0,182.72,110.13Z"/>
        </g>
        <path class="cls-1" d="M173.12,109.07a.86.86,0,0,0-.62-.58.91.91,0,0,0-.86.23.57.57,0,0,0-.13.64.78.78,0,0,0,.24.61.88.88,0,0,0,.79.2A.83.83,0,0,0,173.12,109.07Z"/>
        <path class="cls-1" d="M175.82,107.53l-.18-.13a.65.65,0,0,0-.22-.11.63.63,0,0,0-.36,0,.67.67,0,0,0-.37.29.43.43,0,0,0,0,.07,1.24,1.24,0,0,0-.1.2.58.58,0,0,0,0,.41.67.67,0,0,0,.17.61.79.79,0,0,0,1.19-.26A.87.87,0,0,0,175.82,107.53Z"/>
        <path class="cls-1" d="M178.6,106.94c0,.08,0,0,0,0a.35.35,0,0,0,0-.17.68.68,0,0,0-.17-.28.73.73,0,0,0-.73-.23.62.62,0,0,0-.43.76,1.17,1.17,0,0,0,.05.11,1.87,1.87,0,0,0,.07.22l0,.08a.51.51,0,0,0,.36.31.72.72,0,0,0,.82-.61s0-.07,0-.1S178.58,106.82,178.6,106.94Z"/>
        <path class="cls-1" d="M180.33,105.49h0l-.08,0a.61.61,0,0,0-.74.67.71.71,0,0,0,.05.29.51.51,0,0,0-.05.4.61.61,0,0,0,.57.42.68.68,0,0,0,.56-.33.92.92,0,0,0,.09-.23,1.63,1.63,0,0,0,.09-.19A.74.74,0,0,0,180.33,105.49Z"/>
        <path class="cls-1" d="M170.71,105.12l-.05,0A.41.41,0,0,0,170,105l-.08,0a.63.63,0,0,0-.29.55c-.11.46.2,1.06.75.89A.85.85,0,0,0,170.71,105.12Z"/>
        <path class="cls-1" d="M173.43,104a.66.66,0,0,0-.77.17l0,.08a.71.71,0,0,0,0,1,.42.42,0,0,0,.09.29.46.46,0,0,0,.48.16.64.64,0,0,0,.44-.36.68.68,0,0,0,.23-.36A.79.79,0,0,0,173.43,104Z"/>
        <path class="cls-1" d="M176.46,103.53a1,1,0,0,0-.37-.37.76.76,0,0,0-.89-.12.6.6,0,0,0-.27.46v0a.76.76,0,0,0,.33.86h0a.72.72,0,0,0,.19.2.7.7,0,0,0,.9-.13A.77.77,0,0,0,176.46,103.53Z"/>
        <path class="cls-1" d="M178.63,102.94a1,1,0,0,0-.36-.44.57.57,0,0,0-.55,0,.6.6,0,0,0-.36.56.53.53,0,0,0,.24.45v0a.57.57,0,0,0,.08.34.48.48,0,0,0,.65.17A.86.86,0,0,0,178.63,102.94Z"/>
        <path class="cls-1" d="M168.49,101.91a.8.8,0,0,0-.67.31.71.71,0,0,0-.07.84.52.52,0,0,0,.29.22l.1.09a.74.74,0,0,0,1.11-.46A.81.81,0,0,0,168.49,101.91Z"/>
        <path class="cls-1" d="M171.69,101a.79.79,0,0,0-1,.12.85.85,0,0,0-.24.46.67.67,0,0,0,.29.62.75.75,0,0,0,.75.21.74.74,0,0,0,.54-.71A.86.86,0,0,0,171.69,101Z"/>
        <path class="cls-1" d="M174.41,100.58a.8.8,0,0,0-.28-.27.59.59,0,0,0-.75-.16.77.77,0,0,0-.39.76.55.55,0,0,0-.06.26.71.71,0,0,0,.54.69.77.77,0,0,0,.77-.32A.72.72,0,0,0,174.41,100.58Z"/>
        <path class="cls-1" d="M176.48,99.46a.69.69,0,0,0-.82.08.68.68,0,0,0-.12.83.65.65,0,0,0,.13.16.34.34,0,0,0,.18.21.69.69,0,0,0,.35.08.7.7,0,0,0,.43-.19.77.77,0,0,0,.22-.59A.67.67,0,0,0,176.48,99.46Z"/>
        <path class="cls-1" d="M167.84,99a.83.83,0,0,0-.83-.23.72.72,0,0,0-.44.34.65.65,0,0,0,0,.66.62.62,0,0,0,.26.22h0a.71.71,0,0,0,.47.2.73.73,0,0,0,.64-.35A.71.71,0,0,0,167.84,99Z"/>
        <path class="cls-1" d="M170.51,98.44a.65.65,0,0,0-.8-.33.43.43,0,0,0-.16,0,.36.36,0,0,0-.18.07.6.6,0,0,0-.3.25.69.69,0,0,0,0,.73.84.84,0,0,0,1.31.14A.74.74,0,0,0,170.51,98.44Z"/>
        <path class="cls-1" d="M172.61,97.62a.54.54,0,0,0-.28-.19,3.25,3.25,0,0,0-.45-.06.55.55,0,0,0-.49.29.63.63,0,0,0,0,.55.58.58,0,0,0,.17.23.61.61,0,0,0,.15.24.46.46,0,0,0,.48.13.84.84,0,0,0,.46-.37.81.81,0,0,0,.12-.5A.62.62,0,0,0,172.61,97.62Z"/>
        <path class="cls-1" d="M174.61,97.3a.57.57,0,0,0-1,.43.47.47,0,0,0,0,.21.45.45,0,0,0,.32.32.59.59,0,0,0,.43-.07.7.7,0,0,0,.33-.44A.48.48,0,0,0,174.61,97.3Z"/>
        <path class="cls-1" d="M37.58,137a.81.81,0,0,0-1.19.73.67.67,0,0,0,.46.64h.07a.22.22,0,0,0,.23.19h0a.7.7,0,0,0,.36.25.41.41,0,0,0,.48-.28,1.24,1.24,0,0,0,.09-.38A1,1,0,0,0,37.58,137Z"/>
        <path class="cls-1" d="M34.89,137.76a.92.92,0,0,0-1.47-.24.44.44,0,0,0,0,.57.46.46,0,0,0,.47.15l.06.07.1.07v0a.27.27,0,0,0,.31.13l.08,0a.54.54,0,0,0,.4-.19A.49.49,0,0,0,34.89,137.76Z"/>
        <path class="cls-1" d="M31.89,137.06h0l-.05,0h0l0-.07a.42.42,0,0,0-.38-.22.84.84,0,0,0-.81.78.42.42,0,0,0,.65.35.68.68,0,0,0,.67.43.35.35,0,0,0,.34-.34l0-.5A.39.39,0,0,0,31.89,137.06Z"/>
        <path class="cls-1" d="M29.37,136.48a.89.89,0,0,0-.84.2.37.37,0,0,0-.21,0,.56.56,0,0,0-.44.47.4.4,0,0,0,.51.45l0,0a.43.43,0,0,0,.46.07.9.9,0,0,0,.5.46.36.36,0,0,0,.4-.16A1,1,0,0,0,29.37,136.48Z"/>
        <path class="cls-1" d="M38.55,134a.78.78,0,0,0-.62-.36.59.59,0,0,0-.67.54.48.48,0,0,0,.19.39,1.7,1.7,0,0,0,0,.22.46.46,0,0,0,.43.33.75.75,0,0,0,.63-.39A.73.73,0,0,0,38.55,134Z"/>
        <path class="cls-1" d="M35.88,133.59a.59.59,0,0,0-.54-.41.68.68,0,0,0-.6.39.4.4,0,0,0-.05.35.35.35,0,0,0,0,.08.27.27,0,0,0,0,.48l.14.06a.81.81,0,0,0,1.44-.18A.79.79,0,0,0,35.88,133.59Z"/>
        <path class="cls-1" d="M33.15,133.39a.76.76,0,0,0-.39-.31.5.5,0,0,0-.43,0l-.09,0a.65.65,0,0,0-.17.91l.1.11a.47.47,0,0,0,.34.3.6.6,0,0,0,.71-.47A.66.66,0,0,0,33.15,133.39Z"/>
        <path class="cls-1" d="M30.85,133.39a.43.43,0,0,0-.29-.39.41.41,0,0,0-.13-.1.84.84,0,0,0-1.21.42.44.44,0,0,0,.16.47.71.71,0,0,0,.18.08.72.72,0,0,0,.65.31l.12.06a.37.37,0,0,0,.46-.26A1.31,1.31,0,0,0,30.85,133.39Z"/>
        <path class="cls-1" d="M39.9,130.62c0-.07,0-.07,0,0l0,0-.09-.12a.64.64,0,0,0-.31-.15.7.7,0,0,0-.23-.11.68.68,0,0,0-.52.06.51.51,0,0,0-.24.5.45.45,0,0,0,.17.3.62.62,0,0,0,.08.24.66.66,0,0,0,.79.36A.7.7,0,0,0,39.9,130.62Z"/>
        <path class="cls-1" d="M37.15,130.75a.82.82,0,0,0,0-.26.52.52,0,0,0-.5-.38.69.69,0,0,0-.8.62.31.31,0,0,0,0,.18l0,0a.7.7,0,0,0,.33.72.67.67,0,0,0,.91-.09A.84.84,0,0,0,37.15,130.75Z"/>
        <path class="cls-1" d="M34.18,130.37a1,1,0,0,0,.11-.43.76.76,0,0,0-.71-.71.45.45,0,0,0-.4.23A1.69,1.69,0,0,0,33,130a.7.7,0,0,0,.39,1,.44.44,0,0,0,.4-.07.4.4,0,0,0,.21-.12A.73.73,0,0,0,34.18,130.37Z"/>
        <path class="cls-1" d="M32.07,129.88a.77.77,0,0,0-1.1-.51l-.13.1a.33.33,0,0,0-.31.27,1.21,1.21,0,0,0,.59,1.37.44.44,0,0,0,.5-.06A1.24,1.24,0,0,0,32.07,129.88Z"/>
        <path class="cls-1" d="M41.7,127.44a.86.86,0,0,0-.33-.63.81.81,0,0,0-.9-.17.64.64,0,0,0-.2.2.59.59,0,0,0-.29.33.71.71,0,0,0,0,.5.46.46,0,0,0,.43.48.94.94,0,0,0,.23.1A.83.83,0,0,0,41.7,127.44Z"/>
        <path class="cls-1" d="M38.56,126.79a.6.6,0,0,0-.83-.33.63.63,0,0,0-.23.16.79.79,0,0,0-.44.75.81.81,0,0,0,.25.56.62.62,0,0,0,.8,0A1,1,0,0,0,38.56,126.79Z"/>
        <path class="cls-1" d="M36.33,126.47a.7.7,0,0,0-.71-.17l-.14,0a.61.61,0,0,0-.42.39.37.37,0,0,0,0,.34.78.78,0,0,0,.25.59.58.58,0,0,0,.5.14.5.5,0,0,0,.26-.11.36.36,0,0,0,.26-.11A.77.77,0,0,0,36.33,126.47Z"/>
        <path class="cls-1" d="M33.85,127a.43.43,0,0,0,0,0,3.53,3.53,0,0,0,0-.65.42.42,0,0,0-.53-.4.93.93,0,0,0-.76.85.53.53,0,0,0,.58.52l.1,0a.37.37,0,0,0,.31,0,.39.39,0,0,0,.27-.27h0Z"/>
        <g>
          <path class="cls-1" d="M43.72,123.33a.89.89,0,0,0-.39-.5,1,1,0,0,0-.31-.14.72.72,0,0,0-.94.65s0,0,0,0a.19.19,0,0,0,0,.08v.05a.08.08,0,0,0,0,0,1.11,1.11,0,0,0-.08.3h0v.05a.42.42,0,0,0,0,.27.36.36,0,0,0,0,.11.2.2,0,0,0,0,.07.6.6,0,0,0,.72.41,1.53,1.53,0,0,0,.82-.46A1,1,0,0,0,43.72,123.33Z"/>
          <path class="cls-1" d="M42,123.85s0,0,0,0v0Z"/>
        </g>
        <path class="cls-1" d="M40.28,122.74a.74.74,0,0,0-1.12.62.51.51,0,0,0,.31.46,1.47,1.47,0,0,0,.08.25.38.38,0,0,0,.39.19.4.4,0,0,0,.32-.28.36.36,0,0,0,0-.09,2.37,2.37,0,0,0,.21-.6A.5.5,0,0,0,40.28,122.74Z"/>
        <path class="cls-1" d="M38.18,123.19a.2.2,0,0,0,0-.08c0-.09,0-.23,0-.31a.31.31,0,0,0-.48-.15,1.22,1.22,0,0,0-.84,0,.49.49,0,0,0-.35.46v.3a.48.48,0,0,0,.24.42.68.68,0,0,0,.86-.18l0,0A.4.4,0,0,0,38.18,123.19Z"/>
        <path class="cls-1" d="M35.39,122.35a.42.42,0,0,0-.29-.29.43.43,0,0,0-.4.11l-.31.27,0,0a.52.52,0,0,0-.41.38.51.51,0,0,0,.13.5l0,0a.58.58,0,0,0,.64.08.56.56,0,0,0,.18-.16l0,0a.38.38,0,0,0,.46-.26A1.23,1.23,0,0,0,35.39,122.35Z"/>
        <path class="cls-1" d="M45.05,120a.58.58,0,0,0-.41-.53,1.28,1.28,0,0,0-.82,0,.55.55,0,0,0-.39.58l0,.1a.68.68,0,0,0,.22.76.83.83,0,0,0,1-.07A.92.92,0,0,0,45.05,120Z"/>
        <path class="cls-1" d="M41.84,119.67a.6.6,0,0,0-.54-.25,1,1,0,0,0-.45,0,.43.43,0,0,0-.31.36.52.52,0,0,0,.05.27,1.07,1.07,0,0,0-.07.44.45.45,0,0,0,.22.38.8.8,0,0,0,.75,0,1.06,1.06,0,0,0,.44-.54A.79.79,0,0,0,41.84,119.67Z"/>
        <path class="cls-1" d="M39.68,119.78a.47.47,0,0,0-.32-.32,1.13,1.13,0,0,0-.81,0,.44.44,0,0,0-.2.46.75.75,0,0,0-.07.4.51.51,0,0,0,.34.44.63.63,0,0,0,.27,0h0a.4.4,0,0,0,.39-.11l.05,0,.09-.08A.85.85,0,0,0,39.68,119.78Z"/>
        <path class="cls-1" d="M36.59,119.52a.74.74,0,0,0-.31-.44.41.41,0,0,0-.48.07l-.07.06-.08.05a.52.52,0,0,0-.28.46.44.44,0,0,0,.43.42.47.47,0,0,0,.17,0,.31.31,0,0,0,.22.09.35.35,0,0,0,.3-.17A.66.66,0,0,0,36.59,119.52Z"/>
        <path class="cls-1" d="M46.37,117a.52.52,0,0,0-.14-.3.25.25,0,0,0-.22-.37.52.52,0,0,0-.35.13h-.09a.68.68,0,0,0-.47.46h0a.47.47,0,0,0-.11.44.43.43,0,0,0,.14.23.54.54,0,0,0,.13.22.72.72,0,0,0,1.2-.49A.77.77,0,0,0,46.37,117Z"/>
        <path class="cls-1" d="M43.22,116.47a.47.47,0,0,0-.44-.34c-.31,0-.6-.06-.84.17a.37.37,0,0,0-.11.2.24.24,0,0,0-.21.06.64.64,0,0,0,.37,1,.66.66,0,0,0,.44-.08h.14A.87.87,0,0,0,43.22,116.47Z"/>
        <path class="cls-1" d="M41.21,116.75a.44.44,0,0,0-.45-.38.41.41,0,0,0-.16,0,.76.76,0,0,0-.66,0,.66.66,0,0,0-.71.45c-.1.3.23.66.53.54h0a.58.58,0,0,0,.76.13.41.41,0,0,0,.19-.24A.47.47,0,0,0,41.21,116.75Z"/>
        <path class="cls-1" d="M38.21,116c-.47-.22-1.37-.17-1.52.43a.43.43,0,0,0,.41.54,1,1,0,0,0,.3-.08.6.6,0,0,0,.16.33.33.33,0,0,0,.33.09.78.78,0,0,0,.53-.5A.63.63,0,0,0,38.21,116Z"/>
        <path class="cls-1" d="M48.14,114a1.08,1.08,0,0,0-.36-.5s0,0,0,0a.52.52,0,0,0-.74-.3l-.12.07a.56.56,0,0,0-.35.86,1,1,0,0,0-.07.31.79.79,0,0,0,1,.8A1,1,0,0,0,48.14,114Z"/>
        <path class="cls-1" d="M45.45,113.28a.61.61,0,0,0-.15-.39.6.6,0,0,0-.35-.16h-.09l0,0a.56.56,0,0,0-.84.6.31.31,0,0,0,.09.17s0,0,0,0a.47.47,0,0,0,.24.39.62.62,0,0,0,.47.27.73.73,0,0,0,.56-.37A.85.85,0,0,0,45.45,113.28Z"/>
        <path class="cls-1" d="M42.7,113.44a.87.87,0,0,0-1-.58,1.13,1.13,0,0,0-.77.92.51.51,0,0,0,.23.57.89.89,0,0,0,1,0A.66.66,0,0,0,42.7,113.44Z"/>
        <path class="cls-1" d="M39.45,112.57a.94.94,0,0,0-.5,0,.78.78,0,0,0-.5.5.5.5,0,0,0,.28.58h.06a.5.5,0,0,0,.63.35.77.77,0,0,0,.44-.37A.76.76,0,0,0,39.45,112.57Z"/>
        <path class="cls-1" d="M49.92,110.44a1.23,1.23,0,0,0,0-.27.68.68,0,0,0-.67-.57.78.78,0,0,0-.73.44.69.69,0,0,0,0,.49,1.18,1.18,0,0,0,0,.2l0,0a.67.67,0,0,0,.45.94,1,1,0,0,0,.92-.23A.85.85,0,0,0,49.92,110.44Z"/>
        <path class="cls-1" d="M46.61,109.59a.76.76,0,0,0-.32-.08.49.49,0,0,0-.52,0,.5.5,0,0,0-.24.46.46.46,0,0,0-.05.2.61.61,0,0,0,0,.3.77.77,0,0,0,1.41.56A.94.94,0,0,0,46.61,109.59Z"/>
        <path class="cls-1" d="M44.2,109.94v-.1a.32.32,0,0,0-.4-.29.78.78,0,0,0-.22,0,1,1,0,0,0-.74.28.53.53,0,0,0-.1.54.59.59,0,0,0,.25.27.49.49,0,0,0,.61.45l.22-.11a.4.4,0,0,0,.44-.39v-.4A.43.43,0,0,0,44.2,109.94Z"/>
        <path class="cls-1" d="M41.82,109.55a.79.79,0,0,0-.82-.22c-.42.16-.53.76-.58,1.15a.53.53,0,0,0,1,.06.44.44,0,0,0,.28,0C42.14,110.34,42.06,109.81,41.82,109.55Z"/>
        <path class="cls-1" d="M51.65,107.24l-.13-.15,0,0-.11-.08a.3.3,0,0,0-.36-.2,1.17,1.17,0,0,0-.24.09.78.78,0,0,0-.53.28.5.5,0,0,0,0,.65.51.51,0,0,0,.35.19,2.43,2.43,0,0,0,0,.3.53.53,0,0,0,.76.31A1,1,0,0,0,51.65,107.24Z"/>
        <path class="cls-1" d="M48.46,106.89a.43.43,0,0,0-.32-.32.74.74,0,0,0-.39,0h0a.38.38,0,0,0-.52.14,1,1,0,0,0,0,.83.28.28,0,0,0,.08.15,1.05,1.05,0,0,0,.49.38.39.39,0,0,0,.39-.11A1.1,1.1,0,0,0,48.46,106.89Z"/>
        <path class="cls-1" d="M45.21,106.82a.5.5,0,0,0-.57-.29.59.59,0,0,0-.39.39.71.71,0,0,0,0,.29.64.64,0,0,0,.28.56c.33.19.67-.17.73-.47A.72.72,0,0,0,45.21,106.82Z"/>
        <path class="cls-1" d="M43,106.91a.35.35,0,0,0-.06-.14.25.25,0,0,0-.23-.18.48.48,0,0,0-.29,0,.54.54,0,0,0-.3.21l-.05,0-.11.13a.68.68,0,0,0-.12.26.4.4,0,0,0,.26.48.79.79,0,0,0,.8-.14A.58.58,0,0,0,43,106.91Z"/>
        <path class="cls-1" d="M53.45,105a.75.75,0,0,0-.56-.25,1.3,1.3,0,0,0-.86.2.56.56,0,0,0,.43,1h0a.67.67,0,0,0,.44.18.71.71,0,0,0,.67-.7A.74.74,0,0,0,53.45,105Z"/>
        <path class="cls-1" d="M50.29,104.45a.44.44,0,0,0-.2-.34A.34.34,0,0,0,50,104a.75.75,0,0,0-.45-.18.63.63,0,0,0-.4.14.76.76,0,0,0-.27.78.52.52,0,0,0,.36.37h0a.51.51,0,0,0,.45-.1.38.38,0,0,0,.38-.17A.41.41,0,0,0,50.29,104.45Z"/>
        <path class="cls-1" d="M46.55,104.19a.66.66,0,0,0-.58-.1.61.61,0,0,0-.44.77v0a.52.52,0,0,0,.27.43.67.67,0,0,0,.5.07.7.7,0,0,0,.31-.18.77.77,0,0,0,.17-.27.22.22,0,0,1,.05-.08A.45.45,0,0,0,46.55,104.19Z"/>
        <path class="cls-1" d="M44.6,103.84a.46.46,0,0,0-.15-.16.35.35,0,0,0-.13-.05.5.5,0,0,0-.58.22.55.55,0,0,0-.07.48.47.47,0,0,0,.55.32h0a.5.5,0,0,0,.45-.36A.54.54,0,0,0,44.6,103.84Z"/>
      </g>
    </g>
  </g>
</svg>
