<?xml version="1.0" encoding="utf-8"?>
<!-- Generator: Adobe Illustrator 21.1.0, SVG Export Plug-In . SVG Version: 6.00 Build 0)  -->
<svg version="1.1" id="Слой_1" xmlns="http://www.w3.org/2000/svg" xmlns:xlink="http://www.w3.org/1999/xlink" x="0px" y="0px"
	 viewBox="0 0 235.2 235.7" style="enable-background:new 0 0 235.2 235.7;" xml:space="preserve">
<style type="text/css">
	.st0{display:none;}
	.st1{display:inline;}
	.st2{fill:#DEDEDE;}
	.st3{fill:#5B4069;}
	.st4{fill:#363636;}
	.st5{fill:#4E3A5A;}
	.st6{fill:#312637;}
	.st7{fill:#C1B4CB;}
	.st8{fill:#C4C4C4;}
	.st9{opacity:0.11;}
	.st10{fill:#9261A8;}
</style>
<g id="Слой_1_1_">
</g>
<g id="Слой_116" class="st0">
</g>
<g id="Слой_27__x28_копия_x29_">
	<g id="Слой_28__x28_копия_x29_">
	</g>
	<g id="Слой_30__x28_копия_x29_">
	</g>
	<g id="Слой_29__x28_копия_x29_">
	</g>
	<g id="Слой_109">
	</g>
	<g id="Слой_32__x28_копия_x29_">
	</g>
	<g id="Слой_31__x28_копия_x29_">
	</g>
</g>
<g id="Слой_16">
</g>
<g id="Слой_34__x28_копия_x29_">
	<g id="Слой_35__x28_копия_x29_">
	</g>
	<g id="Слой_36__x28_копия_x29_">
	</g>
	<g id="Слой_37__x28_копия_x29_">
	</g>
	<g id="Слой_38__x28_копия_x29_">
	</g>
	<g id="Слой_115">
	</g>
</g>
<g id="Слой_17">
</g>
<g id="Слой_9">
	<g id="Слой_10">
	</g>
	<g id="Слой_11">
	</g>
</g>
<g id="Слой_9__x28_копия_x29_">
	<g id="Слой_10__x28_копия_x29_">
	</g>
	<g id="Слой_11__x28_копия_x29_">
	</g>
</g>
<g id="Слой_2">
	<g id="Слой_3">
	</g>
	<g id="Слой_5">
	</g>
	<g id="Слой_4">
	</g>
	<g id="Слой_6">
	</g>
	<g id="Слой_7">
	</g>
</g>
<g id="Слой_8">
</g>
<g id="Слой_93__x28_копия_x29_">
	<g id="Слой_91__x28_копия_x29_">
	</g>
	<g id="Слой_94__x28_копия_x29_">
	</g>
	<g id="Слой_95__x28_копия_x29_">
	</g>
	<g id="Слой_102">
	</g>
</g>
<g id="Слой_12">
</g>
<g id="Слой_33">
</g>
<g id="Слой_18" class="st0">
	<g id="Слой_19" class="st1">
	</g>
	<g id="Слой_20" class="st1">
	</g>
	<g id="Слой_23" class="st1">
	</g>
	<g id="Слой_25" class="st1">
	</g>
	<g id="Слой_24" class="st1">
	</g>
	<g id="Слой_21" class="st1">
	</g>
	<g id="Слой_22" class="st1">
	</g>
	<g id="Слой_26" class="st1">
	</g>
</g>
<g id="Слой_27">
	<g id="Слой_28">
	</g>
	<g id="Слой_30">
	</g>
	<g id="Слой_29">
	</g>
	<g id="Слой_32">
	</g>
	<g id="Слой_31">
	</g>
</g>
<g id="Слой_34">
	<g id="Слой_35">
	</g>
	<g id="Слой_36">
	</g>
	<g id="Слой_37">
	</g>
	<g id="Слой_38">
	</g>
</g>
<g id="Слой_39">
	<g id="Слой_40">
	</g>
	<g id="Слой_41">
	</g>
	<g id="Слой_42">
	</g>
</g>
<g id="Слой_43">
	<g id="Слой_44">
	</g>
	<g id="Слой_45" class="st0">
	</g>
</g>
<g id="Слой_46">
	<g id="Слой_48">
	</g>
	<g id="Слой_47">
	</g>
	<g id="Слой_49">
	</g>
	<g id="Слой_50">
	</g>
	<g id="Слой_51">
	</g>
	<g id="Слой_52">
	</g>
	<g id="Слой_53">
	</g>
	<g id="Слой_54">
	</g>
	<g id="Слой_55">
	</g>
</g>
<g id="Слой_46__x28_копия_x29_">
	<g id="Слой_48__x28_копия_x29_">
	</g>
	<g id="Слой_47__x28_копия_x29_">
	</g>
	<g id="Слой_49__x28_копия_x29_">
	</g>
	<g id="Слой_50__x28_копия_x29_">
	</g>
	<g id="Слой_51__x28_копия_x29_">
	</g>
	<g id="Слой_52__x28_копия_x29_">
	</g>
	<g id="Слой_53__x28_копия_x29_">
	</g>
	<g id="Слой_55__x28_копия_x29_">
	</g>
	<g id="Слой_54__x28_копия_x29_">
	</g>
</g>
<g id="Слой_66">
	<g id="Слой_67">
	</g>
	<g id="Слой_68">
	</g>
	<g id="Слой_70">
	</g>
	<g id="Слой_69">
	</g>
</g>
<g id="Слой_72">
	<g id="Слой_75">
	</g>
	<g id="Слой_73">
	</g>
	<g id="Слой_74">
	</g>
	<g id="Слой_76">
	</g>
	<g id="Слой_77">
	</g>
	<g id="Слой_79">
	</g>
	<g id="Слой_78">
	</g>
	<g id="Слой_12_7_">
		<circle class="st2" cx="117.3" cy="116.9" r="112.2"/>
	</g>
	<g id="Слой_33_7_">
		<g>
			<g>
				<path class="st3" d="M141.1,4.9c-6.9-6.3-17.3-4.6-25.9-4.8c-12.8-0.4-25.1,1.4-36.9,6.5C56.6,16,38.1,32.9,23,50.7
					C15.3,59.8,9.9,70.1,6.4,81.5C2.6,94.1-0.3,108,0,121.2s3.6,26.2,8.2,38.5c4.2,11.2,8.7,22.5,15.6,32.3
					c13.7,19.5,33.8,30.3,56,37.7c12.9,4.3,26.6,7,40.2,6c13.1-0.9,26.3-5,38.4-9.9c12.5-5.1,22.8-12.9,33.6-20.8
					c9-6.6,16.4-13.4,22.3-23.1c11.8-19.4,18.7-41.4,20.5-64c1.2-14.4-0.1-30.9-7.1-43.9c-3.1-5.7-7.2-10.8-11-16.1
					c-4-5.5-7.7-11.2-12.1-16.5c-8.7-10.5-19.1-19.9-31.2-26.4c-13-7-26.2-10.7-40.8-12.5c-5.1-0.6-6,7.6-1.2,8.9
					c11.8,3.2,22.9,5.3,33.6,11.8c9,5.5,17.4,12.2,24.7,19.8c7.7,8,13.5,17.2,19.9,26.2s10.6,17.3,11.7,28.4
					c2.1,21.7-2.6,42.6-9.2,63.1c-3.1,9.5-7.3,18.5-14.1,25.9c-7.1,7.8-16.6,14-25.2,20c-19.4,13.6-45.6,22-69.3,18.6
					c-12.4-1.8-24.4-6-35.9-11c-9.1-4-17.8-9-25.2-15.8c-15.9-14.5-25-35.9-30.8-56.3c-3.4-11.9-4.6-24-2.9-36.3
					c1.6-12.2,3.3-25.4,8.7-36.6c5.4-11,14.4-19.8,23.1-28.3s18-16.5,28.6-22.6C80.2,12,93.5,8.9,106.2,8.1
					c5.4-0.3,10.9-0.1,16.3-0.2c4.5-0.1,10.7-0.6,14.6,1.9C140.2,12,143.9,7.4,141.1,4.9L141.1,4.9z"/>
			</g>
		</g>
	</g>
	<g id="Слой_89_1_">
		<g>
			<g>
				<path class="st4" d="M141.5,155.6c0.1,3.5-0.4,6.9-0.3,10.3c0.1,4.8-2.8,5.9-5.6,8.9c-0.4,0.4,0.2,1.1,0.6,0.6
					c2.1-2.2,5.5-3.6,6.2-6.8c0.4-1.9,0-4.1,0.2-6.1c0.2-2.5,0.5-4.7-0.2-7.1C142.3,155,141.5,155,141.5,155.6L141.5,155.6z"/>
			</g>
		</g>
		<g>
			<g>
				<path class="st4" d="M167.7,150.6c-0.2,3.2,0,6.5,0,9.7c0,4.1-1.8,7.3-4.5,10.3c-0.6,0.6,0.4,1.6,1,1c2-2.1,4.3-5,4.8-7.9
					c0.7-4.1-0.3-8.9-0.8-13C168.2,150.3,167.7,150.3,167.7,150.6L167.7,150.6z"/>
			</g>
		</g>
		
			<ellipse transform="matrix(0.9558 -0.294 0.294 0.9558 -15.1299 54.0774)" class="st5" cx="172.3" cy="77.4" rx="23.6" ry="10.8"/>
		<g>
			<g>
				<path class="st4" d="M175,75.8c-1-0.2-2.2,0.4-3,0.9c-0.9,0.5-1.9,1.2-2.5,2c-1.1,1.8,1.6,1.7,2.6,1.5c1.6-0.3,4.5-1.4,4.3-3.5
					c-0.2-1.7-2.5-1.3-3.5-0.7c-0.3,0.2,0,0.6,0.3,0.4c1-0.6,3.5-0.7,2.5,1.2c-0.7,1.4-2.6,2-4.1,2.1c-0.5,0-1.5,0.2-1.7-0.2
					c-0.3-0.6,0.9-1.5,1.4-1.9C172.5,76.8,173.7,76.4,175,75.8C175.1,76,175.2,75.8,175,75.8L175,75.8z"/>
			</g>
		</g>
		<g>
			<g>
				<path class="st4" d="M173.7,77.9c-0.5-0.6-1.5,0-1.9,0.4c-0.1,0.1-0.1,0.4,0.1,0.4c1,0.2,1.9-0.2,2.6-0.9c0.1-0.1,0.1-0.3,0-0.4
					c-0.4-0.4-0.9-0.5-1.4-0.3c-0.4,0.1-1,0.7-0.7,1.1c0.1,0.1,0.1,0.1,0.2,0.1c0.3-0.1,0.3-0.4,0.6-0.5c0.3-0.2,0.7-0.3,0.9,0
					c0-0.1,0-0.3,0-0.4c-0.6,0.6-1.3,1-2.1,0.8c0,0.1,0.1,0.3,0.1,0.4c0.2-0.2,0.5-0.4,0.8-0.5c0.2-0.1,0.5,0,0.7,0
					C173.7,78.1,173.8,78,173.7,77.9L173.7,77.9z"/>
			</g>
		</g>
		<g>
			<g>
				<path class="st4" d="M173.1,77.6c0.6,4.5-0.1,9.3-0.1,13.9c0.1,4.4,0.7,8.9-0.8,13.2c-0.1,0.2,0.1,0.4,0.3,0.5
					c2.3,0.9,4.1,1.1,6.5,1.1c1.8,0,3.2-0.3,4.8,0.8c1.9,1.3,1.6,1.7,1.4,4.1c-0.5,5.6-2.3,11-2.9,16.6c-0.6,5.7-1.1,11.4-1.4,17.1
					c-0.1,2.5-0.4,5.2-0.1,7.7c0.2,2.4,1.3,5.2,0.2,7.4c-0.2,0.5,0.5,0.9,0.7,0.4c1-2.2,0.3-4.5,0.1-6.9c-0.6-5.1,0.1-10.4,0.5-15.5
					c0.5-5.9,0.8-11.8,2-17.6c1-4.8,2.1-9.3,1.7-14.3c0-0.2-0.1-0.4-0.3-0.4c-3.1-0.5-6.9,0.4-9.9-0.6c-2.5-0.8-1.9-0.6-2-3.1
					c-0.1-1.5,0.3-3.1,0.2-4.6c-0.1-6.3,0.8-13.8-0.6-19.9C173.4,77.4,173.1,77.4,173.1,77.6L173.1,77.6z"/>
			</g>
		</g>
		<g>
			<g>
				<path class="st4" d="M181.5,159.6c-2.6,0.8-3.9,3.9-5.7,5.7c-2.1,2.1-5.5,3.3-7,6c-0.2,0.4,0.3,0.8,0.6,0.5
					c2-2.1,4.4-3.5,6.6-5.5c2.1-1.9,3.3-4.6,5.8-6.1C182.1,160,181.9,159.4,181.5,159.6L181.5,159.6z"/>
			</g>
		</g>
		<g>
			<g>
				<path class="st4" d="M181,160.4c-0.5,3.9-0.7,8.4,0.5,12.2c0.2,0.6,1.1,0.3,0.9-0.2c-1.4-4-0.4-7.9-0.9-12
					C181.5,160.1,181,160.1,181,160.4L181,160.4z"/>
			</g>
		</g>
		<g>
			<g>
				<path class="st4" d="M181.8,160.7c1.1,2.1,3.3,3.7,5,5.2c2,1.8,4,3.5,5.9,5.4c0.5,0.5,1.3-0.3,0.8-0.8c-1.9-1.9-4-3.6-6-5.4
					c-1.8-1.5-3.5-3.5-5.5-4.8C181.9,160.4,181.7,160.5,181.8,160.7L181.8,160.7z"/>
			</g>
		</g>
		<path class="st3" d="M178.6,141.3c-3.5-11.1-6.9-22.3-10.7-33.3c0.1-0.1,0.2-0.3,0.1-0.5c-1.1-5.9-7.9-7-12.8-6.6
			c-3.3,0.3-6.5,1-9.6,1.9c-3,0.9-6.1,1.7-8.9,3c-1.3,0.6-2.3,1.5-3.6,2.1c-1.3,0.7-2.9,0.3-4.1,1.2c-0.9,0.6-1.4,1.6-1.8,2.6
			c-0.7,1.4-1.3,2.8-1.9,4.2c-1.1,2.8-2,5.9-1.8,8.9c0.2,3.1,1.4,6.1,2.4,8.9c2.5,6.9,5.6,13.6,9.3,20c0.2,0.3,0.6,0.4,0.9,0.2
			c6.1-4.5,13-7.9,20.4-9.9c4-1.1,7.9-2,12-1.1c1.5,0.3,3.1,0.6,4.5,0.1c0.8-0.3,1.4-0.8,2.1-1.2c0.6-0.3,2-0.7,2.6-0.2
			c0.1,0.3,0.2,0.7,0.3,1c0.2,0.6,1,0.5,1.1-0.1C178.9,142,178.8,141.6,178.6,141.3z"/>
		<g>
			<g>
				<path class="st6" d="M138.7,154.6c-3.2-2.8-3.7-5-1.2-6.5c0.9-0.7,1.8-1.3,2.7-2c1.5-1,3-1.8,4.5-2.6c3.8-1.9,7.7-3.2,11.9-4
					c2.7-0.5,23.5-4.8,21.7,3.7c0,0.2,0.2,0.2,0.3,0.1c0.6-3.1-2.4-5.5-5.1-6.4c-5.5-1.7-14.2,0.5-19.7,1.9
					c-3.3,0.9-6.5,2.2-9.6,3.8c-2.7,1.4-7.9,3.8-9.3,6.8c-1.5,3,0.9,5.1,3.8,5.4C138.8,154.8,138.8,154.7,138.7,154.6L138.7,154.6z"
					/>
			</g>
		</g>
		<g>
			<g>
				<path class="st6" d="M127.9,119.1c-0.8-1.9-1.5-3.7-2.3-5.6c0.4-0.3,0.7-0.6,1.1-0.9c0.8-1.2,2.9-2.2,4.2-2.9
					c2.7-1.6,5.7-2.9,8.6-4c4.2-1.7,8.8-3.4,13.4-3.8c3.9-0.3,16.3-0.3,14.7,5.9c0,0.2,0.2,0.2,0.3,0.1c2.1-8.1-13.3-7.8-17.9-6.9
					c-8.1,1.7-16.8,5.3-23.2,10.5c-3.5,2.8-4.4,7.4,1.2,7.8C127.9,119.3,127.9,119.1,127.9,119.1L127.9,119.1z"/>
			</g>
		</g>
		<circle class="st7" cx="97.1" cy="133.9" r="37.8"/>
		<g>
			<g>
				<path class="st8" d="M132.6,124.7c-1.6,1.4-1.5,6.7-1.7,8.6c-0.5,5.7-0.9,10.8-2.8,16.3c-6.9,20-30.9,20.4-47.7,14
					c-9.5-3.6-15.5-9.9-16.7-20.1c-1-8.7-1.1-17.4,3-25.4c3.6-7,10.3-14.9,18.3-16.2c9.1-1.5,18.6-0.8,27.3,1.9
					c8.5,2.6,15.2,10.9,16.6,19.7c0.4,2.8,1.1,5.5,1.6,8.2c0.5,2.9,1.8,7.1,1.4,10.1c-0.3,2.4,2.7,3.2,3.6,1
					c2.4-5.8-0.1-12.6-1.2-18.4c-0.8-4.3-1.3-7.8-3.7-11.4c-2.4-3.7-5.1-7.7-8.6-10.4c-7.4-5.7-20-6.8-29-6.5
					c-9.9,0.4-17.1,2.2-23.6,10c-6.1,7.2-10.1,14.4-11.1,24c-1,9.7-0.1,20.9,6.1,28.8c5.6,7.2,15.8,11,24.5,13
					c9.5,2.1,20.9,1.2,29.6-3.3c9-4.7,15.7-14.9,16-25.1c0.1-2.8-0.3-5.6-0.5-8.3c-0.1-1.7-1.8-8.2-0.7-9.7
					C133.6,124.9,133,124.4,132.6,124.7L132.6,124.7z"/>
			</g>
		</g>
		<g>
			<g>
				<path class="st6" d="M133.1,123.3c-1.6,1.3-1.5,7-1.7,8.9c-0.5,5.9-0.9,11.2-2.8,16.9c-6.9,20.6-31.4,21.1-48.7,14.6
					c-8.2-3.1-15.8-8.9-17.1-18.1c-1.3-9.2-1.7-18.6,2-27.3c3.1-7.3,10.3-16.6,18.3-18.4c8.8-2,18.7-1.2,27.3,1.2
					c5.8,1.6,9.6,3.7,13.2,8.7c2.7,3.7,4.9,7,5.7,11.6c0.5,3.1,1.1,6.2,1.7,9.3c0.6,3,1.9,7.4,1.4,10.5c-0.3,2.4,2.7,3.2,3.6,1
					c2.4-6-0.1-13-1.3-19c-0.9-5-1.7-8.7-4.7-13c-2.4-3.5-4.9-7.5-8.5-10c-7.7-5.5-20.1-6.6-29.3-6.3c-4.8,0.2-10.1,0.4-14.6,2.4
					c-4.4,1.9-7.4,5.4-10.4,9c-6.4,7.7-10,15.8-10.6,25.9c-0.6,9.5,0.5,20.1,6.7,27.7c5.8,7.2,16.7,11.5,25.6,13.1
					c9.9,1.8,21.2,0.9,30.1-4s15.3-15.3,15.7-25.5c0.1-2.9-0.3-5.8-0.5-8.7c-0.1-1.7-1.9-8.4-0.7-9.9
					C134,123.5,133.5,122.9,133.1,123.3L133.1,123.3z"/>
			</g>
		</g>
		<path class="st5" d="M102.5,94c-1.5-0.5-3-0.2-4.5-0.2c-1.8,0-3.5-0.6-5.3-0.5c-2,0.1-3.9,0.4-5.9,0.6c-0.4,0-0.6,0.5-0.5,0.8
			c-0.2,1.5,0,3.2,0.2,4.7c0,0.2,0.3,0.4,0.5,0.4c3.8-0.5,7.5-0.3,11.3-0.2c0.9,0,1.8,0,2.8,0c0.5,0,1,0,1.4-0.3s0.6-0.9,0.8-1.4
			c0.3-0.6,0.8-1.3,0.9-2C104.5,95,103.4,94.3,102.5,94z"/>
		<path class="st5" d="M71.4,107.9c-1.1-1.1-2.1-2.3-2.9-3.6c-0.1-0.1-0.2-0.2-0.2-0.2l0,0c0.1-0.1-0.1-0.2-0.2-0.1
			c-0.1,0.1-0.2,0.1-0.2,0.2c-0.1,0-0.1,0.1-0.2,0.2c-2.1,1.8-3.8,4.3-5.3,6.6c-1.6,2.6-2.9,5.3-3.9,8.2c-0.1,0.2,0.1,0.5,0.3,0.5
			c1.5,0.3,3,0.7,4.5,1.3c0.2,0.1,0.4,0,0.5-0.2c1.1-2,2.3-4.1,3.6-6c1.3-2.1,2.6-4.2,4.1-6.2C71.5,108.3,71.6,108.1,71.4,107.9z"/>
		<path class="st5" d="M109.3,170.9c-0.3-1.3-0.7-2.6-1-3.9c-0.1-0.3-0.3-0.4-0.6-0.3c-6.9,1.2-14,0.8-20.7-0.8
			c-0.1-0.3-0.6-0.3-0.7,0c-0.5,1.6-0.9,3.1-1.3,4.7c-0.1,0.2,0.1,0.4,0.3,0.5c7.9,2,15.8,2.2,23.7,0.4
			C109.3,171.5,109.4,171.2,109.3,170.9z"/>
		<path class="st5" d="M70.6,158.6c-0.5-0.7-1.5-1.2-2.1-1.8c-0.8-0.9-1.5-1.9-2.1-3c-1.1-1.9-1.8-4-2.8-6c-0.3-0.7-0.6-1.3-1.5-1.2
			c-1.3,0.1-2.7,0.5-4,0.7c-0.3,0.1-0.3,0.4-0.1,0.6c0,1.4,0.6,2.9,1.1,4.2c0.5,1.5,1.2,2.9,2.1,4.2c1.7,2.7,3.8,5.1,6.3,7
			c0.2,0.1,0.4,0.1,0.5-0.1C69,162.4,71.7,160,70.6,158.6z"/>
		<path class="st5" d="M136.4,141.3c-1-0.2-2-0.3-3-0.3c-0.7,0-1.8-0.1-2.4,0.3c-0.4,0.2-0.5,0.5-0.7,0.9c-0.4,1-0.7,2.2-1,3.3
			c-0.7,2-1.4,4-2.1,6.1c-0.7,2-1.3,3.9-2.7,5.5c-0.3,0-0.5,0.3-0.3,0.6c0.9,1.4,1.8,2.7,2.7,4.1c0.1,0.2,0.4,0.3,0.6,0.1
			c2.5-2.4,4.5-5.4,5.6-8.7c1.3-3.7,1.7-7.7,3.6-11.3C136.7,141.6,136.6,141.3,136.4,141.3z"/>
		<g class="st9">
			<g>
				<path class="st8" d="M81.7,109.4c1.8-1.7,4.7-2.8,7-3.4c1.1-0.3,0.6-2.1-0.5-1.7c-5,1.8-9.3,5.1-13.8,8.1
					c-1.2,0.8-0.2,2.5,1.1,1.9c4-1.9,7.8-4.5,12-5.9c-0.3-0.7-0.6-1.5-0.9-2.2c-5,2.6-10.5,5.3-14.4,9.5c-0.8,0.8,0,2.3,1.2,2
					c3.6-1,6.3-3.8,9.9-4.7c-0.3-0.6-0.7-1.2-1-1.8c-3.5,3.6-8,5.7-12.3,8.1c-1.7,0.9-0.2,3.2,1.5,2.5c3.6-1.6,7.1-3.1,10.6-4.8
					c-0.6-1-1.2-2.1-1.8-3.1c-3.5,2.4-7,4.6-10.7,6.8c-1.7,1-1.1,4.1,1.1,3.9c4-0.4,6.8-2.9,10.6-3.9c-0.7-1.2-1.4-2.4-2.1-3.6
					c-3,3.6-7.6,5.1-10.9,8.4c-1.5,1.5,0,4.5,2.2,3.7c2.9-1,5.5-2.8,8.4-3.9c-0.8-1.1-1.6-2.1-2.5-3.2c-1.6,2.8-5.3,4.4-8.1,5.8
					c-2.2,1.1-0.7,4.7,1.7,4c2.7-0.7,4.8-2.4,7.5-3.2c-0.7-0.7-1.4-1.4-2.2-2.2c-0.6,2.2-3.5,3.6-5,5.1c-1.7,1.8-2.3,3.9-3.3,6.1
					c-0.4,0.8,0.6,1.7,1.3,1c3.3-3.2,9-6.7,10.4-11.3c0.4-1.3-0.9-2.5-2.2-2.2c-2.5,0.6-4.7,1.9-7.2,2.3c0.4,1.4,0.7,2.7,1.1,4.1
					c3.5-1.7,7.6-3.9,9.6-7.4c0.9-1.5-0.6-3.9-2.5-3.2c-2.9,1-5.5,2.8-8.4,3.8c0.7,1.2,1.4,2.5,2.2,3.7c3.3-3.3,7.8-4.8,10.9-8.4
					c1.3-1.6,0.1-4.3-2.1-3.6c-3.2,0.9-6.1,3.5-9.4,3.9c0.4,1.3,0.7,2.6,1.1,3.9c3.7-2.3,7.6-4.5,10.8-7.6c1.4-1.4-0.5-4-2.2-2.8
					c-3.2,2.2-6.8,3.6-10.2,5.4c0.5,0.8,1,1.7,1.5,2.5c4.1-3.1,8.8-5.3,12.3-9.1c0.7-0.8,0-2-1-1.8c-3.6,1-6.2,4-10,4.5
					c0.4,0.7,0.8,1.3,1.2,2c4.4-3.6,9.1-6.2,14-9.1c1.4-0.8,0.2-2.8-1.2-2.1c-4.1,2-8,4.3-12.2,6.2c0.4,0.6,0.7,1.3,1.1,1.9
					c4.4-3,8.7-5.9,13.3-8.4c-0.4-0.5-0.7-0.9-1.1-1.4c-2,1.8-4.9,2.3-6.8,4.2C80.6,109.2,81.3,109.8,81.7,109.4L81.7,109.4z"/>
			</g>
		</g>
		<g class="st9">
			<g>
				<path class="st8" d="M76,122.9c2.3-3.8,4.9-7.2,8.4-10c2.1-1.7,4.1-3.2,5.7-5.4c0.7-1-0.5-2.3-1.6-2c-4.9,1.4-8.6,4.4-12.5,7.4
					c0.5,0.9,1,1.8,1.5,2.6c4-3.1,8.3-5.4,12.8-7.6c-0.8-1-1.5-2-2.3-2.9c-3.2,3-7.2,4.9-10.4,7.9c-1.5,1.4,0.1,3.7,1.9,3.3
					c6.3-1.5,11.7-6.6,17.9-8.7c-0.6-1.1-1.3-2.2-1.9-3.2c-5.9,5.7-13.8,9.7-20.2,15c-1.5,1.3,0.1,3.9,1.9,3.3
					c9.6-3.2,17.1-10.8,26.6-14.5c-0.5-1.3-1.1-2.6-1.6-3.9c-6.5,3.6-12.8,7.5-19.1,11.4c-2.3,1.4-0.8,5.5,1.9,4.5
					c4-1.5,7.2-4.1,10.7-6.4c4-2.7,8.7-4.1,12.8-6.5c2.3-1.4,0.8-5.6-1.9-4.6c-6.3,2.4-11.9,6.1-17.7,9.6c-2.4,1.4-0.8,5.4,1.9,4.6
					c6.3-1.8,11.4-6.9,18-7.7c-0.8-1.1-1.6-2.1-2.4-3.2c-0.2,1.5-5.9,3.5-7.1,4.2c-3.6,2-7.1,4.2-10.5,6.6c-2.6,1.8-0.4,5.6,2.5,4.3
					c3-1.4,5.9-2.9,8.9-4.4c2.3-1.2,4.8-3.1,7.5-2.9c-0.6-1.4-1.2-2.8-1.8-4.2c-4.6,3.8-10.2,5.9-15.2,9.1c-2.7,1.7-0.3,5.8,2.5,4.3
					c6.1-3.3,12.7-7.6,19.5-9.1c-0.6-1.5-1.3-3-1.9-4.6c-4.1,2.2-8.8,4.2-12.6,6.8c-2.1,1.5-0.9,5.5,1.9,4.6c4.9-1.7,9.4-4.5,14.7-5
					c-0.8-1-1.6-2.1-2.4-3.1c-0.3,1.7-4.8,3.5-6.2,4.5c-2.1,1.4-0.9,5.4,1.8,4.4c4.5-1.7,8.9-3.6,13.6-4.5c-0.5-1.2-1-2.3-1.5-3.5
					c-4,2.2-8.6,3.1-12.3,5.8c-1.7,1.3-0.8,4.6,1.6,3.7c2.7-0.9,5.4-2.2,8.2-2.3c-0.5-1.2-1-2.4-1.5-3.6c-1.5,1.4-3.5,2.2-5.2,3.4
					c-1.9,1.4-0.8,4.4,1.6,3.9c2.7-0.5,5.1-1.4,7.8-1.7c-0.7-1.2-1.4-2.3-2.1-3.5c-0.3,0.3-0.6,0.5-1,0.8c-1.2,1-0.6,3.4,1,3.7
					c1.8,0.3,3.4,0.2,5.2,0.1c-0.6-1.1-1.3-2.2-1.9-3.3c-1.4,1.8-3.3,2.8-5.3,3.7c-2.6,1.2-0.3,5,2.2,3.8c2.8-1.3,5.1-2.9,6.9-5.3
					c1-1.3-0.3-3.4-1.9-3.3c-1.3,0.2-2.7,0.2-4,0.1c0.3,1.2,0.6,2.4,1,3.7c0.3-0.3,0.6-0.6,0.8-0.9c1.4-1.5,0-4.1-2.1-3.5
					c-2.6,0.8-5.1,1.3-7.8,1.7c0.5,1.3,1.1,2.6,1.6,3.9c2-1.5,4.2-2.4,6-4.1c1.3-1.2,0.3-3.6-1.5-3.6c-3.3,0.1-6.3,1.4-9.3,2.5
					c0.7,1.1,1.3,2.3,2,3.4c3.4-2.7,7.9-3.8,11.7-5.7c2.1-1,0.5-3.8-1.5-3.5c-4.8,0.8-9.3,2.1-13.9,3.6c0.6,1.5,1.2,2.9,1.8,4.4
					c2.8-1.7,7.8-3.7,8.6-7.3c0.3-1.4-0.7-3.3-2.4-3.1c-5.8,0.5-10.6,3.2-16,5.1c0.6,1.5,1.3,3,1.9,4.6c3.8-2.7,8.5-4.6,12.6-6.8
					c2.6-1.4,0.8-5.2-1.9-4.6c-7.2,1.6-14.2,6.1-20.7,9.6c0.8,1.4,1.7,2.9,2.5,4.3c5.3-3.4,11.2-5.8,16.1-9.9
					c1.8-1.5,0.2-4.1-1.8-4.2c-6.3-0.3-13.5,5.5-18.9,8c0.8,1.4,1.7,2.9,2.5,4.3c4.2-2.9,8.5-5.4,13-7.8c2.3-1.2,6.5-3,6.9-5.9
					c0.2-1.4-0.6-3.4-2.4-3.2c-7.3,0.9-12.4,5.9-19.3,7.9c0.6,1.5,1.3,3.1,1.9,4.6c5.4-3.2,10.6-6.8,16.5-9.1
					c-0.6-1.5-1.3-3-1.9-4.6c-3.7,2.2-7.9,3.5-11.6,5.8c-3.6,2.2-6.7,5.3-10.7,6.8c0.6,1.5,1.3,3,1.9,4.5
					c6.3-3.9,12.7-7.7,18.8-11.9c2.2-1.6,0.3-5-2.2-3.7c-4.4,2.3-8.8,4.4-13,7c-4.3,2.7-8.1,6-13,7.6c0.6,1.1,1.3,2.2,1.9,3.3
					c6.4-5.3,14.2-9.4,20.1-15.1c1.3-1.3,0-3.9-1.9-3.2c-3.3,1.1-6.4,2.6-9.5,4.3c-2.7,1.5-5.3,3.6-8.4,4.3c0.6,1.1,1.3,2.2,1.9,3.3
					c3.2-2.9,7.2-4.9,10.3-8c1.5-1.5-0.4-4.1-2.3-2.9c-4.3,2.7-8.8,5.2-12.8,8.4c-1.5,1.2,0.6,3.4,2.2,2.2c3.6-2.8,6.9-5.8,11.4-7.2
					c-0.5-0.7-1-1.4-1.6-2c-1.8,3.2-4.9,5.2-7.2,8c-2.1,2.5-3.9,5.3-5.5,8.2C74.6,122.9,75.6,123.5,76,122.9L76,122.9z"/>
			</g>
		</g>
		<g class="st9">
			<g>
				<path class="st8" d="M79.2,110.5c4.3-3.2,11.3-5.8,16.5-6.9c-0.5-0.9-1.1-1.8-1.6-2.8c-2.8,2.7-6.4,4.6-9.6,6.9
					c-3.4,2.5-6.7,5.3-9.9,8c-1.6,1.3,0.1,3.8,1.9,3.3c3.4-0.9,6.3-3.4,9.4-5.1c4.4-2.5,9-4.5,13.7-6.1c-0.6-1.4-1.1-2.7-1.7-4.1
					c-7.4,4.6-14.4,9.9-22,14c-2.4,1.3-0.8,5.5,1.9,4.6c3.6-1.3,6.6-3.5,9.8-5.5c4.3-2.7,8.8-5,13.5-6.8c-0.8-1.4-1.6-2.8-2.5-4.2
					c-6,6-15.2,9-22.1,13.9c-2.2,1.5-0.9,5.9,2,4.7c8-3.3,14.7-9.2,23.2-11.4c-0.8-1.4-1.7-2.9-2.5-4.3c-5.9,6.1-15.1,8-21.3,13.7
					c-2.3,2.1,0.6,5.3,3.1,4.1c4.1-2.1,8-4.5,12.1-6.6c3.8-1.9,7.7-4.4,12.1-4.6c-0.8-1.1-1.7-2.2-2.5-3.3c-0.9,2.3-5.8,3.7-7.8,4.8
					c-3.7,2-7.2,4.4-10.8,6.5c0.9,1.5,1.7,3,2.6,4.5c4.6-3.3,9.5-6.6,15.2-7.5c-0.7-1.6-1.3-3.1-2-4.7c-5.1,3.4-10.5,6.3-15.5,9.9
					c-2.6,1.9-0.4,5.9,2.6,4.4c4.8-2.5,9.2-5.6,14.5-6.9c-0.8-1.4-1.6-2.8-2.4-4.2c-2.8,3.3-7.7,5.1-11.1,7.7
					c-2.4,1.8-0.4,5.5,2.4,4.1c3.5-1.8,6.7-3.9,10.4-5.2c-0.7-1.2-1.4-2.4-2.1-3.6c-3.4,3.1-7.3,5.4-11.2,7.8
					c0.7,1.2,1.5,2.5,2.2,3.7c3.7-2.4,7.6-5.4,12.1-5.9c-0.5-1.2-1-2.4-1.5-3.6c-3,2.8-6.6,4.4-10.1,6.4c0.7,1.2,1.4,2.4,2.1,3.6
					c3.4-2.6,6.6-3.9,10.8-5c-0.6-1-1.1-1.9-1.7-2.9c-1,0.9-2.2,1.7-3.4,2.4c-2,1.2-0.2,4.4,1.9,3.2c1.6-1,2.8-1.8,4-3.1
					c1.3-1.5-0.3-3.5-2.1-2.7c-3.8,1.7-8,2.3-11.5,4.5c-2.3,1.4-0.3,4.8,2.1,3.6c4-1.9,7.8-4,11-7.1c1.7-1.6-0.1-3.8-2-3.5
					c-5.1,0.7-9.5,3.5-13.7,6.3c-2.3,1.5-0.2,5.2,2.2,3.7c4.2-2.6,8.3-5.2,12-8.5c1.5-1.4-0.1-4.3-2.1-3.6c-4,1.5-7.8,3.5-11.7,5.3
					c0.8,1.4,1.6,2.7,2.4,4.1c3.9-2.5,9.2-4.6,12.3-8.2c1.6-1.9,0.1-4.8-2.4-4.2c-5.7,1.4-10.5,4.7-15.7,7.3
					c0.9,1.5,1.7,2.9,2.6,4.4c5-3.5,10.4-6.4,15.6-9.8c2.5-1.7,0.9-5.1-2-4.7c-6.1,1-11.5,4.4-16.5,8c-2.7,1.9-0.3,6.1,2.6,4.5
					c4.6-2.6,8.9-5.4,13.6-7.8c3.1-1.6,6.2-3.3,7.5-6.6c0.6-1.5-1-3.4-2.5-3.3c-9.6,0.4-18.5,7.8-26.8,12c1,1.4,2.1,2.7,3.1,4.1
					c6.3-5.7,15.4-7.5,21.3-13.7c1.8-1.9,0-5-2.5-4.3c-8.5,2.2-15.1,8.1-23.1,11.4c0.7,1.6,1.3,3.1,2,4.7
					c7.3-5.2,16.8-8.4,23.1-14.8c1.7-1.7,0-5.2-2.5-4.2c-4.1,1.6-8,3.6-11.9,5.8c-3.8,2.2-7.3,5.1-11.4,6.6c0.6,1.5,1.3,3,1.9,4.6
					c7.6-4.2,15.3-9.5,22.2-14.8c2.1-1.7-0.6-4.5-2.7-3.5c-3.9,1.8-7.9,3.3-11.8,5.4c-3.4,1.8-6.9,5-10.7,6c0.6,1.1,1.3,2.2,1.9,3.3
					c3.7-3.2,7.4-6.5,11.5-9.2c2.7-1.9,5.4-3.5,7.5-6.1c1-1.2,0.1-3.3-1.6-2.8c-3.2,1-5.7,3-8.6,4.6
					C83.9,106.7,81.4,108.1,79.2,110.5C78.8,110.3,79,110.6,79.2,110.5L79.2,110.5z"/>
			</g>
		</g>
		<g class="st9">
			<g>
				<path class="st8" d="M84.7,108.1c0.4-0.4,0.9-0.7,1.3-1.1c1.1-0.9-0.3-2.7-1.5-2c-5.4,3.1-10.2,7-14.6,11.3
					c-1.3,1.3,0.4,3,1.8,2.4c4.3-1.9,9.5-7.2,14.3-7.1c-0.5-1.1-0.9-2.2-1.4-3.3c-4.7,4.6-11.1,8.1-15.4,13.1
					c-1,1.2-0.5,3.8,1.5,3.5c5.5-0.7,9.4-5.1,14.8-6.3c-0.8-1-1.6-2-2.4-3.1c-3.4,4.9-10.4,6.9-14.1,11.9c-1.4,1.9,1.2,3.7,2.9,2.9
					c4.9-2.2,8.8-6.4,14.3-7.3c-0.9-0.9-1.8-1.8-2.6-2.6c-0.6,2.2-4.4,3.9-6.1,5.2c-3.1,2.3-6,4.9-9.2,7c-2,1.3-0.8,4.7,1.7,4
					c3.8-1.1,7.6-6.2,11.6-6.1c-0.6-1-1.2-2.1-1.8-3.1c-2.1,4.1-8,6.9-11.5,9.8c-1.8,1.5,0.6,4.6,2.5,3.3c1.1-0.8,2.1-1.6,3.3-2.3
					c0.7-0.4,2.3-0.8,2.8-1.4c0-0.6-0.1-1.1-0.1-1.7c-0.3,0.4-0.6,0.8-0.9,1.2c-2.3,1.8-4.4,4-6.6,5.9c-1.8,1.6,0.9,4.3,2.7,2.7
					c2.2-2,10.1-6.6,8.5-10.5c-1.9-4.5-9.6,1.1-11.8,2.5c0.8,1.1,1.7,2.2,2.5,3.3c3.8-3.3,9.7-6.1,12.1-10.7
					c0.8-1.4-0.2-3.1-1.8-3.1c-5-0.1-8.3,4.8-12.8,6.1c0.6,1.3,1.1,2.7,1.7,4c4-2.7,7.7-6,11.6-8.8c2.2-1.6,4.8-3.3,5.6-6
					c0.5-1.7-1.1-2.9-2.6-2.6c-5.9,0.9-10,5.3-15.2,7.8c1,1,1.9,1.9,2.9,2.9c3.7-5,10.5-6.8,14.1-11.9c1.1-1.6-0.7-3.4-2.4-3.1
					c-2.3,0.5-4.5,1.4-6.6,2.5c-2.3,1.2-4.5,3.3-7.1,3.6c0.5,1.2,1,2.4,1.5,3.5c4.2-5.1,10.5-8.6,15.2-13.3c1.2-1.2,0.3-3.4-1.4-3.3
					c-5.6,0.2-11,6.2-15.8,8.4c0.6,0.8,1.2,1.6,1.8,2.4c3.9-4.6,8.6-8.2,13.8-11.2c-0.5-0.7-1-1.3-1.5-2c-0.4,0.4-0.9,0.7-1.3,1.1
					C81.6,107.3,83.4,109.1,84.7,108.1L84.7,108.1z"/>
			</g>
		</g>
		<g class="st9">
			<g>
				<path class="st8" d="M71.6,120.5c-0.3-2.1,5.2-5.6,6.6-6.7c2.4-1.9,5-3.8,7.7-5.2c2.7-1.3,5.5-1.9,8.5-1.9
					c0.8,0,3.8,0.7,4.3,0.2c-0.6-1.6-1.2-1.9-1.9-0.9c-0.4,0.4-0.9,0.7-1.3,1.1c-1.4,1.2-2.9,2.3-4.4,3.4c-2.3,1.7-4.8,3.3-7.3,4.8
					c-2.1,1.2-1.1,4.3,1.2,4.4c3,0.1,5.6-1.5,8.1-3c3.8-2.3,7.7-4,12.1-4.9c-0.8-1.3-1.6-2.7-2.3-4c-4.2,3.6-9.7,5.2-13.3,9.6
					c-1.5,1.8-0.2,4.9,2.4,4.2c2.9-0.8,5.2-2.4,7.7-4c3.5-2.2,7.2-3.7,11.2-4.7c-0.7-1.1-1.3-2.3-2-3.4c-3.3,3.4-8,5.1-12,7.5
					c-2.4,1.5-0.7,4.8,1.8,4.4c5.8-1,10.5-6.3,16.6-6.1c-0.6-1.4-1.1-2.7-1.7-4.1c-4,4.1-9.9,5.2-14.5,8.4c-2.2,1.6-1,5.7,2,4.7
					c4.9-1.6,9.7-3.7,14.7-5.2c-0.8-1.4-1.7-2.9-2.5-4.3c-3.4,3.6-9.5,5-13.4,8.1c-2.1,1.7,0.2,4.9,2.5,4.3
					c5.1-1.3,9.2-4.6,14.6-5.2c-0.7-1.2-1.4-2.5-2.1-3.7c-1.6,2.1-5,3.2-7.2,4.2c-2.1,0.9-1.4,4.2,0.6,4.7c4,1,6.6-1.9,10.4-2.1
					c-0.7-1.3-1.4-2.5-2.2-3.8c-0.9,1.8-3.8,2.7-5.1,4.4c-2,2.7,2.5,5.4,4.5,2.7c1.6-2.2,4-2.4,5.1-5.1c0.6-1.5-0.9-3.3-2.4-3.2
					c-2.8,0.2-6.4,2.8-9,2.1c0.2,1.6,0.4,3.2,0.6,4.7c3.3-1.6,6.7-3.2,8.8-6.2c1.4-2-0.9-3.8-2.8-3.6c-5.6,0.8-10,3.8-15.3,5.1
					c0.8,1.4,1.7,2.9,2.5,4.3c4-3.2,9.9-4.3,13.4-8.1c1.7-1.8,0.1-5.1-2.5-4.3c-5,1.5-9.7,3.5-14.7,5.2c0.7,1.6,1.3,3.2,2,4.7
					c4.9-3.5,11.2-4.8,15.2-9.5c1.3-1.5,0.5-4.2-1.7-4.1c-6.5,0.3-11.6,5.4-17.9,6.2c0.8,1.3,1.5,2.7,2.3,4c3.8-3.1,8.6-4.7,12-8.4
					c1.4-1.5,0-4-2-3.4c-6.7,1.8-12.4,6.2-19.1,7.8c0.8,1.4,1.6,2.8,2.4,4.2c3.5-4.3,9-6.1,13.1-9.8c1.8-1.6-0.1-4.6-2.3-4
					c-3.5,1-7,2.2-10.2,3.8c-2.7,1.3-5.6,4.2-8.7,4c0.4,1.5,0.8,2.9,1.2,4.4c4-2.4,7.7-5,11.3-7.9c1.8-1.5,5.6-3.7,5.3-6.6
					c-0.4-4.8-10-3.1-12.8-2.4c-5.6,1.3-10.2,5-14.5,8.8c-2.2,2-7.6,5.9-6,9.6C69.9,122.1,71.7,121.6,71.6,120.5L71.6,120.5z"/>
			</g>
		</g>
		<g class="st9">
			<g>
				<path class="st8" d="M77.6,118.9c0.6-1.2,1.6-1.8,2.9-1.9c-0.5-0.7-1.1-1.4-1.6-2.1c-2.5,4.2-6.3,7.4-8.1,12
					c-0.4,1.1,0.7,2.5,1.8,2.4c4.2-0.4,6.4-4.3,10.4-5c-0.8-1-1.5-2-2.3-3c-1.6,3.3-5,5.6-6.8,8.8c-0.9,1.6,0.2,3.5,2,3.6
					c2.1,0.1,3.4-1.1,5.3-1.5c-0.9-0.7-1.8-1.4-2.8-2.1c-0.1,1.2-2.3,2.9-3,3.7c-1,1.2-1.9,2.5-2.5,3.9c-1,2.1,1.6,4.6,3.4,2.6
					c2.3-2.5,5.8-6.2,6.5-9.7c0.3-1.7-1-3-2.7-2.7c-1.3,0.2-2.8,1.2-4.2,1c0.7,1.2,1.4,2.4,2,3.6c1.8-3.5,5-6,6.5-9.7
					c0.6-1.5-1.1-2.9-2.5-2.5c-3.4,0.9-5.9,4.7-9.3,5.1c0.6,0.8,1.2,1.6,1.8,2.4c1.6-4.3,7-7.7,7.1-12.3c0-1.5-1.9-1.9-2.7-0.7
					s-1.3,2.4-1.8,3.8C77.1,119,77.5,119.1,77.6,118.9L77.6,118.9z"/>
			</g>
		</g>
		<path class="st10" d="M62.4,93.8c-1.7-1.2-3.6-2.4-5.6-3.1c-1.2-0.4-2.5-0.3-3.7-0.5C52,90,51,89.7,50,89.4
			c-2.4-0.7-4.8-1.2-7.2-1.4c-2.3-0.2-4.7-0.1-7,0.3c-2.2,0.3-3.5,0.3-5.3,1.5c-0.5,0.3-1.3,1.2-0.9,1.4c-2.1,4.1-3.6,8.7-4.7,13.1
			c-0.1,0.4,0.3,0.7,0.7,0.5c5.7-3.1,11.8-1.1,17.6,0.8c5.7,1.8,10.3,3.9,15.7,6.5c0.4,0.2,0.4-0.5,0.8-0.8c0.8-0.5,1.8-2,2.3-3.3
			c0.5-1.1,0.9-2.3,1.2-3.5c0.7-2.2,1.2-4.5,1.6-6.7C65,95.9,63.9,94.9,62.4,93.8z"/>
		
			<ellipse transform="matrix(0.9709 -0.2395 0.2395 0.9709 -30.5639 41.8038)" class="st7" cx="156.7" cy="146.7" rx="22.3" ry="6.6"/>
		
			<ellipse transform="matrix(0.1875 -0.9823 0.9823 0.1875 -71.075 128.9267)" class="st7" cx="42.4" cy="107.4" rx="5.2" ry="17.5"/>
		<g>
			<g>
				<path class="st6" d="M25.3,105c0.2-7.2,37.6-1.4,33.3,7.1c-0.2,0.3,0.2,0.6,0.5,0.4c5.9-6.2-10.8-9.7-13.6-10.3
					c-3.5-0.8-20.7-4-20.5,2.9C25,105.2,25.3,105.2,25.3,105L25.3,105z"/>
			</g>
		</g>
		<g>
			<g>
				<path class="st6" d="M29.6,91.4c1.2-2.6,6.2-2.3,8.5-2.5c3.6-0.4,6.9,0,10.4,0.8c3.9,0.8,16.4,2.4,15,8.7
					c-0.1,0.3,0.4,0.6,0.6,0.2c3.6-6.5-10.2-9-13.6-9.8c-4.8-1.1-9.3-1.7-14.1-0.9c-2.8,0.5-5.9,0.5-7,3.4
					C29.2,91.5,29.5,91.6,29.6,91.4L29.6,91.4z"/>
			</g>
		</g>
		<g>
			<g>
				<path class="st10" d="M156.4,100.6c0.1,0.5,0.1,0.9,0.1,1.4c0,0.3,0.4,0.7,0.7,0.6c0.8-0.3,1.7-0.1,2.5,0
					c0.5,0.1,1.2,0.4,1.7,0.1c1-0.5,0.2-2.2-0.7-2.2c-0.3,0-0.6,0.3-0.5,0.6c0,0.1,0.1,0.2,0.2,0.4c0.1,0.1,0.2,0.2,0.2,0.2
					c0.1,0.2,0.1,0.1,0.2-0.1c-0.2-0.2-1-0.2-1.3-0.3c-1-0.2-1.9-0.3-2.8,0.2c0.3,0.2,0.6,0.3,0.9,0.5c0-0.6-0.1-1.3-0.6-1.8
					C156.8,100,156.4,100.3,156.4,100.6L156.4,100.6z"/>
			</g>
		</g>
		<g>
			<g>
				<path class="st10" d="M158.6,102.2c0.2,0.2,0.3,0.3,0.3,0.6s-0.1,0.6-0.1,0.9c0,0.5,0.8,0.6,0.9,0.1c0.3-0.8,0.2-2.2-0.9-2.2
					C158.6,101.7,158.4,102,158.6,102.2L158.6,102.2z"/>
			</g>
		</g>
		<g>
			<g>
				<path class="st10" d="M144.2,102.8c0.3,0.3,0.3,0.8,0.3,1.2c0,0.1,0.2,0.3,0.4,0.3c1.5-0.2,2.9-0.8,4.4-1.2
					c0.1,0,0.2-0.2,0.2-0.3c0-0.7-0.5-1-1-1.5c-0.4-0.3-0.9,0.2-0.5,0.5c0.3,0.2,0.8,0.5,0.9,0.9c0.1-0.1,0.2-0.2,0.2-0.3
					c-1.4,0.4-2.9,0.8-4.3,1.1c0.2,0.1,0.3,0.2,0.5,0.3c-0.1-0.5-0.1-1.1-0.6-1.4C144.3,102.1,143.9,102.5,144.2,102.8L144.2,102.8z
					"/>
			</g>
		</g>
		<g>
			<g>
				<path class="st10" d="M146.7,103.6c0,0.1,0,0.2,0,0.4c0.1,0.2,0.1,0.4,0.2,0.6c0.1,0.2,0.5,0.3,0.6,0.1c0.2-0.4,0.1-0.8-0.2-1.1
					C147.1,103.5,146.7,103.3,146.7,103.6L146.7,103.6z"/>
			</g>
		</g>
		<g>
			<g>
				<path class="st10" d="M133,107.2c-0.1,0.4-0.1,0.7,0,1.1c0.1,0.3,0.4,0.4,0.6,0.3c0.7-0.4,1.3-0.9,2.1-1.2
					c0.6-0.2,1.2-0.4,1.8-0.7c0.2-0.1,0.2-0.3,0.2-0.5c-0.1-0.3-0.1-0.5-0.1-0.8c0.1-0.5-0.7-0.7-0.8-0.2s0,0.8,0.1,1.3
					c0.1-0.2,0.1-0.3,0.2-0.5c-0.6,0.4-1.3,0.6-2,0.8c-0.7,0.3-1.2,0.7-1.8,1c0.2,0.1,0.4,0.1,0.6,0.2c-0.1-0.2-0.2-0.5-0.3-0.8
					C133.5,106.9,133.1,106.9,133,107.2L133,107.2z"/>
			</g>
		</g>
		<g>
			<g>
				<path class="st10" d="M134.9,107.4c0,0.4,0.3,1.1,0.8,1.1c0.2,0,0.3-0.1,0.3-0.3s-0.1-0.3-0.2-0.5s-0.2-0.4-0.3-0.5
					C135.3,107,134.9,107.1,134.9,107.4L134.9,107.4z"/>
			</g>
		</g>
		<g>
			<g>
				<path class="st10" d="M172.9,138.4c0.1-0.6,0-1.1-0.1-1.7c-0.1,0.1-0.2,0.3-0.3,0.4c1.1,0,4.2,0.2,3.5,1.9
					c-0.2,0.5,0.6,0.7,0.8,0.2c0.7-2.4-2.6-2.9-4.3-2.8c-0.2,0-0.4,0.2-0.3,0.4c0.1,0.5,0.2,1,0.3,1.5
					C172.5,138.6,172.9,138.7,172.9,138.4L172.9,138.4z"/>
			</g>
		</g>
		<g>
			<g>
				<path class="st10" d="M174.8,136.8c0.2-0.6,0.1-1.4-0.5-1.7c-0.4-0.2-0.6,0.2-0.4,0.5c0.3,0.4,0.2,0.7,0.3,1.1
					C174.3,137.1,174.7,137.1,174.8,136.8L174.8,136.8z"/>
			</g>
		</g>
		<g>
			<g>
				<path class="st10" d="M167.1,138.2c-0.1-0.6,0.2-1.4-0.5-1.7c-0.6-0.3-1.4,0-2,0.2s-1.9-0.1-2.4,0.5c-0.5,0.5,0,1.1,0,1.7
					c0,0.5,0.7,0.5,0.7,0c0-0.3-0.3-1-0.1-1.2c0.1-0.1,0.9-0.1,1.1-0.1c0.3,0,0.5-0.1,0.8-0.1c0.3-0.1,1.3-0.5,1.5-0.3
					s0.1,1.1,0.1,1.3C166.5,138.9,167.2,138.7,167.1,138.2L167.1,138.2z"/>
			</g>
		</g>
		<g>
			<g>
				<path class="st10" d="M164.5,137c0.2-0.4,0.1-0.9-0.1-1.3c-0.1-0.3-0.5-0.3-0.6,0c-0.1,0.4,0,1,0.3,1.3
					C164.2,137.1,164.5,137.2,164.5,137L164.5,137z"/>
			</g>
		</g>
		<g>
			<g>
				<path class="st10" d="M157.3,139.7c-0.1-0.6-0.2-1.1-0.4-1.6c-0.1-0.2-0.3-0.4-0.5-0.3c-0.8,0.3-1.6,0.3-2.3,0.6
					c-0.8,0.3-1.7,0.5-2.4,0.8c-1,0.5-0.6,1.3-0.1,2c0.3,0.4,0.8-0.2,0.5-0.5c-0.4-0.5-0.3-0.7,0.3-0.9c0.5-0.2,0.9-0.2,1.4-0.4
					s1-0.4,1.5-0.5c0.4-0.1,0.8-0.1,1.3-0.3c-0.2-0.1-0.3-0.2-0.5-0.3c0.2,0.6,0.3,1.3,0.8,1.6C157.1,140,157.3,139.8,157.3,139.7
					L157.3,139.7z"/>
			</g>
		</g>
		<g>
			<g>
				<path class="st10" d="M153.9,138.6c-0.1-0.3-0.2-0.6-0.1-0.9c0.1-0.4-0.5-0.7-0.7-0.3c-0.2,0.5-0.1,1.1,0.2,1.5
					C153.5,139.2,154,138.9,153.9,138.6L153.9,138.6z"/>
			</g>
		</g>
		<g>
			<g>
				<path class="st10" d="M145.3,143.3c-0.2-0.4-0.4-0.7-0.4-1.2c0-0.3-0.4-0.4-0.6-0.3c-1.3,0.8-2.9,1.3-4.1,2.3
					c-0.7,0.6-0.4,1.4,0.3,1.9c0.3,0.2,0.5-0.2,0.3-0.4c-0.4-0.6-0.6-0.8,0.1-1.2c0.3-0.2,0.7-0.3,1.1-0.5c0.9-0.4,1.8-0.9,2.7-1.4
					c-0.2-0.1-0.4-0.2-0.6-0.3c0.1,0.6,0.3,1.1,0.8,1.4C145.1,144,145.4,143.6,145.3,143.3L145.3,143.3z"/>
			</g>
		</g>
		<g>
			<g>
				<path class="st10" d="M142,143.3c-0.2-0.3-0.4-0.4-0.2-0.9c0.1-0.3-0.3-0.4-0.4-0.2c-0.2,0.4-0.1,1.3,0.5,1.3
					C142,143.5,142.1,143.4,142,143.3L142,143.3z"/>
			</g>
		</g>
		<g>
			<g>
				<path class="st10" d="M137.5,147.6c-0.1-0.2-0.2-0.4-0.3-0.6c-0.1-0.3-0.6-0.5-0.8-0.1s-0.7,0.8-1,1.2c-0.2,0.2-0.3,0.4-0.5,0.7
					s-0.3,0.6-0.5,0.8c-0.1,0.1-0.1,0.3,0,0.3c0.2,0.2,0.5,0.4,0.8,0.6c0.3,0.3,0.7-0.2,0.4-0.5c-0.3-0.2-0.6-0.4-0.9-0.5
					c0.1,0.1,0.1,0.2,0.2,0.3c0.1-0.4,0.7-1,1-1.3s0.7-0.9,1.1-1c-0.2-0.1-0.4-0.2-0.5-0.3c0.2,0.4,0.3,0.7,0.6,0.9
					C137.3,148.4,137.6,147.9,137.5,147.6L137.5,147.6z"/>
			</g>
		</g>
		<g>
			<g>
				<path class="st10" d="M135.6,148.2c-0.1-0.1-0.2-0.3-0.2-0.4c0-0.1,0-0.3-0.1-0.4c-0.1-0.2-0.3-0.2-0.4,0
					c-0.2,0.4,0.1,1.1,0.5,1.2C135.5,148.7,135.7,148.4,135.6,148.2L135.6,148.2z"/>
			</g>
		</g>
		<g>
			<g>
				<path class="st5" d="M31.9,89.4c0.8,0.4,2,0,2.9,0s1.9,0.2,2.7-0.3c0.6-0.4,0.2-1.2-0.5-1.1c-1.3,0.2-4.6-0.4-5.3,1.1
					C31.8,89.2,31.8,89.3,31.9,89.4L31.9,89.4z"/>
			</g>
		</g>
		<g>
			<g>
				<path class="st5" d="M34.3,89.1c-0.1,0.2-0.1,0.4,0,0.6c0,0.3,0.5,0.3,0.6,0c0-0.2,0-0.4-0.1-0.6C34.7,88.9,34.3,88.9,34.3,89.1
					L34.3,89.1z"/>
			</g>
		</g>
		<g>
			<g>
				<path class="st5" d="M42.4,88.5c0.6,0.7,1.8,0.7,2.6,0.9c0.8,0.2,1.7,0.6,2.3,0c0.4-0.3,0.2-1-0.3-1.1c-0.3-0.1-0.6-0.1-1-0.1
					c-0.4-0.1-0.7-0.2-1.1-0.3c-0.7-0.2-1.7-0.3-2.4-0.1C42.3,87.8,42.2,88.2,42.4,88.5L42.4,88.5z"/>
			</g>
		</g>
		<g>
			<g>
				<path class="st5" d="M44.8,88.7c-0.4,0.2-0.3,0.8-0.3,1.1c0.1,0.2,0.3,0.4,0.5,0.3c0.1,0,0.2-0.1,0.3-0.2c0.1-0.1,0.1-0.3,0-0.4
					C45.2,89.3,45.1,88.5,44.8,88.7L44.8,88.7z"/>
			</g>
		</g>
		<g>
			<g>
				<path class="st5" d="M52.8,90.5c0.6,0.3,1.2,0.6,1.9,0.7c0.4,0.1,1.1,0.1,1.5,0.4c0.7,0.6,1.6-0.5,0.8-1
					c-0.5-0.4-1.2-0.4-1.7-0.4c-0.7-0.1-1.5-0.5-2.2-0.4C52.7,89.8,52.4,90.3,52.8,90.5L52.8,90.5z"/>
			</g>
		</g>
		<g>
			<g>
				<path class="st5" d="M54.3,90.9c-0.2,0.3-0.3,0.6-0.4,0.9c-0.2,0.6,0.8,0.9,1,0.3c0.1-0.3,0.2-0.7,0.1-1
					C54.9,90.7,54.4,90.6,54.3,90.9L54.3,90.9z"/>
			</g>
		</g>
		<g>
			<g>
				<path class="st5" d="M61.8,94.1c0.2,0.4,0.5,0.7,0.7,1.1c0.3,0.4,0.7,0.8,1,1.3c0.4,0.6,1.4,0,1-0.6c-0.4-0.5-0.8-1-1.2-1.5
					c-0.3-0.4-0.6-0.8-1.2-0.9C61.8,93.5,61.7,93.8,61.8,94.1L61.8,94.1z"/>
			</g>
		</g>
		<g>
			<g>
				<path class="st5" d="M62.7,95c-0.3,0.1-0.5,0.3-0.6,0.6C62,95.8,62,96,62.2,96.2c0,0,0,0,0,0.1c0.1,0.1,0.2,0.1,0.3,0.1
					c0.4-0.1,0.6-0.7,0.5-1.1C63.1,95,62.9,94.9,62.7,95L62.7,95z"/>
			</g>
		</g>
		<g>
			<g>
				<path class="st5" d="M27.7,102.1c0.3,0.6,1.1,0.5,1.6,0.4c0.9-0.1,1.8-0.3,2.7-0.3c0.7,0,0.7-1.1,0-1.1
					c-0.8-0.1-1.6,0.1-2.4,0.3c-0.6,0.1-1.5,0-1.9,0.5C27.7,101.9,27.7,102,27.7,102.1L27.7,102.1z"/>
			</g>
		</g>
		<g>
			<g>
				<path class="st5" d="M30.6,101.5c0.1-0.2,0.1-0.4,0.2-0.6c0.3-0.5-0.5-1-0.8-0.5c-0.2,0.3-0.3,0.6-0.3,0.9
					C29.8,101.8,30.5,102,30.6,101.5L30.6,101.5z"/>
			</g>
		</g>
		<g>
			<g>
				<path class="st5" d="M36.7,101.8c0.7,0.2,1.4,0.2,2.1,0.2c0.8,0,1.7,0.4,2.4,0.3c0.5-0.1,0.7-0.7,0.3-1
					c-0.7-0.5-1.9-0.5-2.7-0.5c-0.8,0-1.7-0.1-2.2,0.5C36.4,101.5,36.5,101.8,36.7,101.8L36.7,101.8z"/>
			</g>
		</g>
		<g>
			<g>
				<path class="st5" d="M39.5,101.3c0.2-0.2,0.4-0.4,0.5-0.7c0.3-0.4-0.1-0.9-0.5-0.7s-0.6,0.7-0.6,1.1
					C39,101.3,39.3,101.5,39.5,101.3L39.5,101.3z"/>
			</g>
		</g>
		<g>
			<g>
				<path class="st5" d="M47.4,103.7c1.3,0.5,2.8,0.6,4.1,1.2c0.7,0.3,1.3-0.7,0.6-1c-0.8-0.3-1.6-0.5-2.4-0.6s-1.6-0.5-2.4-0.2
					C47.1,103.2,47.2,103.6,47.4,103.7L47.4,103.7z"/>
			</g>
		</g>
		<g>
			<g>
				<path class="st5" d="M50,104c0.3-0.1,0.2-0.5,0.5-0.7c0.5-0.3,0-1-0.5-0.6c-0.2,0.2-0.4,0.5-0.4,0.8
					C49.6,103.7,49.7,104.1,50,104L50,104z"/>
			</g>
		</g>
		<g>
			<g>
				<path class="st5" d="M57.3,107.4c0.5,0.4,0.9,0.7,1.3,1.2s0.7,1,0.8,1.6c0.1,0.6,1.1,0.5,1.1-0.1c-0.1-0.9-0.6-1.6-1.1-2.3
					c-0.5-0.6-1.3-1.3-2.1-0.9C57.1,107,57.2,107.3,57.3,107.4L57.3,107.4z"/>
			</g>
		</g>
		<g>
			<g>
				<path class="st5" d="M59.6,108.5c0.2-0.2,0.3-0.4,0.4-0.6c0.1-0.4-0.4-0.5-0.5-0.2c-0.2,0.2-0.3,0.5-0.2,0.8
					C59.3,108.5,59.5,108.6,59.6,108.5L59.6,108.5z"/>
			</g>
		</g>
		<g>
			<g>
				<path class="st5" d="M30.5,100.4c0.5-2,1.1-4.1,2-6c0.7-1.5,1.7-2.8,2.2-4.4c0.1-0.3-0.3-0.4-0.4-0.1
					C33.1,93.4,31.3,96.6,30.5,100.4L30.5,100.4L30.5,100.4z"/>
			</g>
		</g>
		<g>
			<g>
				<path class="st5" d="M39.8,99.9c0.1-0.4,0.1-0.8,0.3-1.3l0,0C39.9,99.1,39.9,99.5,39.8,99.9L39.8,99.9L39.8,99.9z"/>
			</g>
		</g>
		<g>
			<g>
				<path class="st5" d="M40.4,97.5c0.4-1.5,1.2-2.8,1.9-4.2c0.7-1.3,1.2-2.6,2.2-3.7c0.1-0.1-0.1-0.3-0.2-0.2c-1,1-1.4,2-2,3.3
					C41.8,94.3,40.9,95.8,40.4,97.5L40.4,97.5L40.4,97.5z"/>
			</g>
		</g>
		<g>
			<g>
				<path class="st5" d="M50.4,103c1.2-1.7,1.7-3.9,2.6-5.8c0.9-1.8,1.2-3.2,1.5-5.2c0-0.2-0.3-0.3-0.3-0.1
					c-0.2,0.9-0.2,1.9-0.5,2.8c-0.3,1-0.9,2-1.3,3c-0.7,1.7-1.4,3.5-2.2,5.2C50,103,50.3,103.2,50.4,103L50.4,103z"/>
			</g>
		</g>
		<g>
			<g>
				<path class="st5" d="M59.9,107.8c0.3-2,0.7-3.9,1.1-5.8c0.4-1.9,0.7-4.2,1.6-5.9c0.1-0.3-0.3-0.5-0.4-0.3
					c-0.8,1.7-1.1,3.8-1.4,5.7C60.4,103.6,59.9,105.7,59.9,107.8C59.7,107.9,59.9,107.9,59.9,107.8L59.9,107.8z"/>
			</g>
		</g>
		<g>
			<g>
				<path class="st4" d="M45,166.3c0.5-4.6,1.2-9.2,0.9-13.8c-0.4-4.9-1.1-9.7-1.2-14.6c-0.3-9.6-2-19.1-2.1-28.8
					c0-0.7-1.1-0.7-1.1,0c0.1,9.7,1.9,19.1,2.2,28.8c0.2,4.7,0.7,9.1,1.2,13.8c0.5,4.9-0.5,9.8-0.3,14.7
					C44.5,166.6,44.9,166.6,45,166.3L45,166.3z"/>
			</g>
		</g>
		<g>
			<g>
				<path class="st4" d="M44.4,165.8c-2.1,0.3-4,1.6-5.9,2.5s-4.1,1.3-5.9,2.5c-0.4,0.3-0.1,0.8,0.4,0.6c3.8-1.9,7.8-3.1,11.5-5.3
					C44.6,166,44.6,165.7,44.4,165.8L44.4,165.8z"/>
			</g>
		</g>
		<g>
			<g>
				<path class="st4" d="M44.8,165.5c-1.1,2.3-0.8,5.1-1.7,7.5c-0.2,0.5,0.6,0.8,0.8,0.4c1.1-2.2,1.2-5.4,1.1-7.8
					C45,165.5,44.8,165.4,44.8,165.5L44.8,165.5z"/>
			</g>
		</g>
		<g>
			<g>
				<path class="st4" d="M44.6,166.2c1.3,1.6,3.4,2.1,5.1,3c2.3,1.1,4.5,2.4,6.9,3c0.4,0.1,0.7-0.5,0.3-0.7c-4-1.9-8.3-3.4-12.2-5.5
					C44.7,166,44.6,166.1,44.6,166.2L44.6,166.2z"/>
			</g>
		</g>
		<g>
			<g>
				<path class="st4" d="M25,104.8c5.4,2.1,11,2.9,16.5,4.4c5.9,1.6,11.3,2.7,17.4,3.8c0.7,0.1,1-0.9,0.3-1.1
					c-6.1-1.2-12.1-2.4-18.2-4c-5.2-1.3-10.6-2.8-15.9-3.5C24.8,104.3,24.7,104.7,25,104.8L25,104.8z"/>
			</g>
		</g>
	</g>
</g>
<g id="Слой_89">
</g>
<g id="Слой_88">
	<g id="Слой_90">
	</g>
	<g id="Слой_92">
	</g>
</g>
<g id="Слой_93">
	<g id="Слой_91">
	</g>
	<g id="Слой_94">
	</g>
	<g id="Слой_95">
	</g>
</g>
<g id="Слой_98" class="st0">
</g>
<g id="Слой_80" class="st0">
	<g id="Слой_82" class="st1">
	</g>
	<g id="Слой_86" class="st1">
	</g>
	<g id="Слой_83" class="st1">
	</g>
	<g id="Слой_85" class="st1">
	</g>
	<g id="Слой_84" class="st1">
	</g>
	<g id="Слой_96" class="st1">
	</g>
	<g id="Слой_97" class="st1">
	</g>
	<g id="Слой_81" class="st1">
	</g>
</g>
<g id="Слой_71" class="st0">
</g>
<g id="Слой_117" class="st0">
	<g id="Слой_118" class="st1">
	</g>
	<g id="Слой_71__x28_копия_x29_" class="st1">
	</g>
	<g id="Слой_22__x28_копия_x29_" class="st1">
	</g>
</g>
</svg>
