<svg xmlns="http://www.w3.org/2000/svg" viewBox="0 0 238.99 243.87">
  <defs>
    <style>
      .cls-1 {
        fill: #5b4069;
      }

      .cls-2 {
        fill: #5c4069;
      }

      .cls-3 {
        fill: #312537;
      }

      .cls-4 {
        fill: #9261a8;
      }
    </style>
  </defs>
  <title>Ресурс 5fluete</title>
  <g id="Слой_2" data-name="Слой 2">
    <g id="Слой_33" data-name="Слой 33">
      <path class="cls-1" d="M110.16,6.69C90.62-2.62,69.26,14.8,54.57,26.07c-20.31,15.58-39,35.41-49,59.35-9.52,22.79-5.25,50.14.67,73.32,5.87,22.93,16.45,44.64,35.77,59.11a133.57,133.57,0,0,0,74.72,25.84c12.77.35,26,.54,38.37-2.95,12.14-3.42,22.84-10.67,33-18,19.6-14.1,38.66-32.28,46-56,4.1-13.23,4.59-26.49,4.69-40.21s1.21-29.37-3.16-42.76c-4.5-13.8-14.11-27-23.31-38.13-9-10.92-20.64-17.88-32.83-24.75-13-7.33-26.26-15.62-40.92-19.19a57.77,57.77,0,0,0-21-1.36c-8.25,1.08-16,4.39-24.1,6-5.5,1.07-4.3,10.19,1.33,9.82,12.79-.84,24.25-5.89,37.17-2.72,11.52,2.83,21.94,8.38,32.15,14.26C173.88,33.4,184.45,38.52,193,46c8.31,7.23,14.47,16.36,20.44,25.54a74.26,74.26,0,0,1,7.87,14.6c2.28,6.19,2.64,12.78,2.89,19.32a299,299,0,0,1-.52,38c-1,11.3-2.63,22.69-8,32.85-5.15,9.78-12.43,17.78-20.7,25-16.67,14.6-35.93,28.35-58.69,29.55-24.35,1.28-48.83.56-71.14-10.26-20.57-10-35.53-25.16-43.81-46.6-7.87-20.39-12.53-43.87-10.81-65.74,2.09-26.43,21.54-49.8,40.87-66.49a208.48,208.48,0,0,1,25.9-19.13C85.85,17.3,96.41,11.84,106.67,15c4.82,1.46,8.2-6.05,3.49-8.28Z"/>
    </g>
    <g id="Слой_125" data-name="Слой 125">
      <g id="Слой_126" data-name="Слой 126">
        <path class="cls-2" d="M70.27,211.58a12.06,12.06,0,0,0,7.82,4.21q18-36.34,36.91-72.18c13.4-25.33,27.16-50.47,40.93-75.6L167,47.72a7.77,7.77,0,0,0,1.34-4.28c-.14-1.52-1.61-3-3.06-2.54L118,126.71l-7.69,13.94L95.47,167.49q-12.34,22.35-24.65,44.73"/>
      </g>
      <g id="Слой_128" data-name="Слой 128">
        <path class="cls-3" d="M95.36,167.87c-2.81,5.14-5.48,10.36-8.3,15.49l-1.29,2.36a1.09,1.09,0,0,0-.82,1,1,1,0,0,0,0,.42c-.45.85-.89,1.7-1.33,2.56a.91.91,0,0,0-.6.3.37.37,0,0,0,0,.39l0,.05a.29.29,0,0,0,.14.13l-.23.45c-.67,1.32-1.33,2.64-2,4a26.43,26.43,0,0,0-1.51,3,.88.88,0,0,0-.42,0l-.19.1-.06.06h0l0,.06,0,.05a1.15,1.15,0,0,0-.46.78.91.91,0,0,0,.92,1.1h0a1,1,0,0,0,1.14-.46h0a.72.72,0,0,0,.25-.55,2.5,2.5,0,0,0,0-.29,1.31,1.31,0,0,0-.09-.28,28.72,28.72,0,0,0,1.6-3.12l2-3.94.43-.85a.3.3,0,0,1,.1.05c.21.14.4.6.59.81.46.5.94,1,1.42,1.47l-.46-.13c-.27-.07-.54-.15-.83-.2a.43.43,0,0,0-.14-.21l-.24-.2a.42.42,0,0,0-.57,0,6.59,6.59,0,0,0-1,1.54,17.58,17.58,0,0,1-1,2.21,23.79,23.79,0,0,0-2.33,4.58c0,.18.22.3.33.16a32.74,32.74,0,0,0,2.3-4.09,17.45,17.45,0,0,0,1-1.87,4.52,4.52,0,0,1,.88-1.75.4.4,0,0,0,.46.11c.26.13.54.24.81.35a7.21,7.21,0,0,0,1.46.56.44.44,0,0,0,.46-.35.67.67,0,0,0,.28-1.12l-1.59-1.42c-.22-.19-.47-.38-.67-.59s-.29-.52-.53-.7a1.31,1.31,0,0,0-.29-.14l1-1.93a1,1,0,0,0,.55-.09,1,1,0,0,0,.64-.67.81.81,0,0,0,0-.31,1.14,1.14,0,0,0-.28-.74L88,183.81c2.6-5.24,5.46-10.37,8.26-15.51C96.57,167.73,95.67,167.3,95.36,167.87Z"/>
        <path class="cls-3" d="M135.91,90.56a4.8,4.8,0,0,0-1.63-.69.71.71,0,0,0-.54-.73,1.17,1.17,0,0,0-1,.27,1.42,1.42,0,0,0-.49.58.6.6,0,0,0,0,.47,1,1,0,0,0-1,.91,1,1,0,0,0,.38.88l-.51.93a1,1,0,0,0-1,0,.93.93,0,0,0-.51,1,1.17,1.17,0,0,1-.05.11,1,1,0,0,0-.34.6.54.54,0,0,0,.52.65c-4.2,7.19-9.08,14-13,21.37-1.25,2.38-2.32,4.84-3.46,7.28a58.28,58.28,0,0,1-4.25,7.44q-4.56,6.88-8.44,14.16A158,158,0,0,0,92.82,162l0,0a1.31,1.31,0,0,0-.61,1.66,1,1,0,0,0,1.53.59h0l.43.31a2.3,2.3,0,0,0,1.48.55.62.62,0,0,0,.35-1.07,4.11,4.11,0,0,0-1.21-.58l-.37-.17a60.66,60.66,0,0,0,3-6,3.48,3.48,0,0,0,1.22.42c.44,0,.51-.54.26-.8a1.94,1.94,0,0,0-1.1-.42l.57-1.19a7.58,7.58,0,0,1,1.86.58.53.53,0,0,0,.46-1,5.21,5.21,0,0,0-1.89-.51c.53-1.1,1.06-2.19,1.6-3.27,1.92-3.88,4-7.69,6-11.48l1.39.61c.67.3,1.18-.75.5-1s-1.27-.53-1.89-.81l-.11,0,1-1.56a4.68,4.68,0,0,0,2.25.89c.22.05.41-.28.2-.42a7,7,0,0,0-.67-.44c-.22-.12-.79-.26-.93-.45-.34-.46.79-1.49,1.06-1.87.83-1.11,1.62-2.26,2.36-3.43a47,47,0,0,0,3.83-8.12,58.49,58.49,0,0,1,4.35-8.2q2.47-4.19,5-8.29l1-1.6c-.58,1.11-1.15,2.22-1.73,3.32q-2.25,4.19-4.47,8.38t-4.28,8.09l-2.13,4.06a27.7,27.7,0,0,0-1.93,4c-.07.22.27.37.4.19a26.75,26.75,0,0,0,2.3-3.86l2.19-4q2.19-4,4.36-8c1.51-2.79,3-5.57,4.5-8.37s3.09-5.47,4.43-8.29a.51.51,0,0,0-.35-.71c.42-.68.85-1.34,1.3-2a.76.76,0,0,0,.08.11l0,0a5,5,0,0,0,.72.74l.08.06a45.78,45.78,0,0,0-3.65,7.23c-1.5,3.23-3.25,6.34-5,9.46s-3.46,6.22-5.2,9.32c-.89,1.57-1.76,3.15-2.66,4.72a24.85,24.85,0,0,0-2.32,4.57c-.08.24.26.35.41.2a23.27,23.27,0,0,0,2.92-4.28c.88-1.45,1.76-2.9,2.62-4.37,1.8-3.06,3.53-6.18,5.24-9.3s3.41-6.13,4.91-9.29c1.35-2.83,2.39-5.78,4.3-8.31a.63.63,0,0,0,0-.83v0l-.06-.2a.6.6,0,0,0,.3-.46,1.28,1.28,0,0,0,0-.19.75.75,0,0,0,.19-.79,1.85,1.85,0,0,0-1.61-1.19c.74-1.32,1.46-2.65,2.14-4a5.37,5.37,0,0,1,1.42.7A.62.62,0,1,0,135.91,90.56ZM94.26,162.83a.88.88,0,0,0-.06-.27.93.93,0,0,0-.43-.5c.94-1.67,1.83-3.37,2.69-5.08l.18.06A61.77,61.77,0,0,0,94.26,162.83Zm3.33-8c-.23.52-.46,1-.68,1.56h-.17l.84-1.69A.49.49,0,0,0,97.59,154.85Zm.16-.35-.08.06c.17-.36.35-.71.52-1.07C98,153.83,97.89,154.16,97.75,154.5Z"/>
        <path class="cls-3" d="M134.46,91.78a1.92,1.92,0,0,0-1.57,1,.58.58,0,0,0,0,.43v0a.66.66,0,0,0,0,.61,1.58,1.58,0,0,0,.84.73,1.1,1.1,0,0,0,1.16-.31,1,1,0,0,0,.13-1.09,1,1,0,0,0,.19-.73A.71.71,0,0,0,134.46,91.78Z"/>
        <path class="cls-3" d="M159.16,50.24a2.36,2.36,0,0,0-.66.64,1.43,1.43,0,0,0-.44,1.06,1.35,1.35,0,0,0,.37.89.91.91,0,0,0,.59.31l.12,0c.81.73,2-.07,2.3-1.06l.07-.18A1.52,1.52,0,0,0,159.16,50.24Z"/>
      </g>
      <g id="Слой_127" data-name="Слой 127">
        <path class="cls-4" d="M140.47,84.64a4.58,4.58,0,0,1,1.84-.19,4.4,4.4,0,0,1,1.77,1c.71.59,1.17,1.44,1.91,2a.39.39,0,0,0,.58-.34c-.19-2.12-4.8-5.13-6.41-2.86-.15.22.1.44.31.41Z"/>
        <path class="cls-4" d="M144.4,76.67a8.88,8.88,0,0,1,3.41-.73,2.73,2.73,0,0,1,2.63,2.65c.06.57,1,.81,1.09.15a3.37,3.37,0,0,0-2.28-3.64,5.32,5.32,0,0,0-5.19,1c-.28.23,0,.68.34.59Z"/>
        <path class="cls-4" d="M163.76,48.78a2.81,2.81,0,0,0-2-1.78,3.2,3.2,0,0,0-3,1.44.35.35,0,0,0,0,.13,6.59,6.59,0,0,0-1,1.79A17,17,0,0,1,156,53.79c-.46.67-1.53,1.7-1.4,2.59s1.56,1,2.31.95a10.7,10.7,0,0,0,3.6-.93,8.11,8.11,0,0,0,3.24-1.88C165,53,164.51,50.43,163.76,48.78Zm-2.54,2a.27.27,0,0,0,.21.11c-.1.68.33,1.45-.75,1.61-.27,0-.53,0-.79.07s-.57.31-.92,0a1.72,1.72,0,0,1-.5-1c0-.59.54-.77,1-.92S160.87,50.4,161.22,50.83Z"/>
        <path class="cls-4" d="M135.45,98.94l0,0a2.22,2.22,0,0,0-2.84-.53,3.29,3.29,0,0,0-.76.57,3.56,3.56,0,0,1-.92-.17,4.72,4.72,0,0,0-.93-.7c-.37-.21-.72.18-.65.53l-.15-.08c-.36-.17-1-.28-1.28.14a.22.22,0,0,0,.06.26c.21.2.57.2.81.36s.34.45.5.72c.24.43.9.14.87-.3a1.16,1.16,0,0,0-.08-.32l.27.14a9.48,9.48,0,0,1,.8.87,2,2,0,0,0,.42,1.43c.95,1.22,2.68.77,3.87.2A1.73,1.73,0,0,0,135.45,98.94Z"/>
        <path class="cls-4" d="M130.92,105.9a6.72,6.72,0,0,0-2.63.24,11,11,0,0,1-3.44-.2.3.3,0,0,0-.34.2,3,3,0,0,0-.4.12c-.14,0-.14.29,0,.31a3.38,3.38,0,0,1,2.57,1.11c.58.77.6,1.67,1.46,2.22h0a2.67,2.67,0,0,0-.57,0c-.63,0-1.22.2-1.82.3a.4.4,0,0,0,0-.43,3.26,3.26,0,0,0-.55-.43c-.18-.14-.33-.3-.49-.45a1.94,1.94,0,0,0-1.08-.65c-.19,0-.37.18-.24.35l.88,1.1a2.75,2.75,0,0,0,.62.61h-.36a7.77,7.77,0,0,0-3.22.26.39.39,0,0,0,0,.72,20.33,20.33,0,0,1,2.48,2.6,5.32,5.32,0,0,0,1.59,1.44c-1,0-1.84.67-2.79.92a13.54,13.54,0,0,1-4.31.1c-.46,0-.62.66-.14.73l.33,0c.3.17.61.32.92.49a3.1,3.1,0,0,1,1.4,1.74,3.38,3.38,0,0,0,1.77,1.85c1.5.62,4.59.26,5.22-1.52a4.43,4.43,0,0,0-.45-2.93,2.34,2.34,0,0,0-1-1.2,7.34,7.34,0,0,0,2.73-.54,1.85,1.85,0,0,0,1.34-1.72,3.49,3.49,0,0,0-1.26-2.94,2.74,2.74,0,0,0,3.13-1.08A2.35,2.35,0,0,0,130.92,105.9Z"/>
        <path class="cls-4" d="M123.47,122c-2.31-.67-4.68.78-6.92-.49l-.11,0a.48.48,0,0,0,.09-.94c-.24,0-.47-.08-.7-.1s-.49-.07-.68.13a.31.31,0,0,0,0,.39,1,1,0,0,0,.55.3c.22.08.43.14.66.2a.44.44,0,0,0-.41.32h0a.21.21,0,0,0-.13.39l.24.13a.53.53,0,0,0,.11.09,3.72,3.72,0,0,0,.39.21,6.18,6.18,0,0,1,2.19,2.4,6.91,6.91,0,0,0,2,2.66,3.4,3.4,0,0,0,2.84,1,3.82,3.82,0,0,0,2.47-2.14A3.5,3.5,0,0,0,123.47,122Z"/>
        <path class="cls-4" d="M128.05,126.94c-1-.3-1.81.35-2.58.84l-1.52,1a2.49,2.49,0,0,1-1.86.34H122c-.25-.16-.49-.33-.72-.49a6.9,6.9,0,0,0-4.46-1.48.07.07,0,0,0,0,.14c.89.57,1.93.84,2.81,1.4-2-.37-4.19.82-6.08-.43-.42-.28-.92.18-.75.53-.14.05-.1.25,0,.31.56.35,1.19.46,1.73.87a3.77,3.77,0,0,1,1.22,1.68c.4,1.12.54,2.08,1.53,2.85a3.7,3.7,0,0,0,5.37-.85,2.7,2.7,0,0,0-.18-2.91l.28.15c1.7.82,4.11,1.42,5.73.1C129.67,130,129.85,127.5,128.05,126.94Z"/>
        <path class="cls-4" d="M117,135.28a3.77,3.77,0,0,0-2.38-1.37,12.35,12.35,0,0,1-1.62-.13c-.61-.21-.62-.91-1.11-1.28a.47.47,0,0,0-.42-.08.08.08,0,0,0-.14,0s0,0,0,.05a.48.48,0,0,0-.22.58c-.39,1.14-.6,2.35-1,3.5a3.46,3.46,0,0,0,.15,2.85,4,4,0,0,0,2.2,2.16,3.2,3.2,0,0,0,3-.82C116.92,139.5,118.35,137.11,117,135.28Z"/>
        <path class="cls-4" d="M111.21,141.48c-2.61-.35-5,1.68-7.6.85-.44-.14-.66.3-.55.65a.17.17,0,0,0,0,.3,6.45,6.45,0,0,1,1.63.84c.57.47.62,1.12.88,1.76a5.52,5.52,0,0,0,2,2.61,5,5,0,0,0,3.32.06,3.45,3.45,0,0,0,2.59-2C114.14,144.81,113.36,141.77,111.21,141.48Z"/>
        <path class="cls-4" d="M107,150.16a5.39,5.39,0,0,0-3.48-.16c-1.59.38-2.84,1.07-4.47.36a.48.48,0,0,0-.67.39.15.15,0,0,0,0,.22h0a.47.47,0,0,0,.23.23l.13,0a7.61,7.61,0,0,1,2.55,2.2c.64,1.14.67,2.33,1.81,3.14a3.66,3.66,0,0,0,5.29-1A3.73,3.73,0,0,0,107,150.16Z"/>
        <path class="cls-4" d="M102,159.08c-2.55-.79-5,1.59-7.59.85-.6-.17-.77.77-.18.95l.19,0c.32.39.67.75,1,1.16s.68,1.11,1,1.66A5.37,5.37,0,0,0,98.6,166a3.88,3.88,0,0,0,5.13-1.85C104.54,162.4,104.08,159.71,102,159.08Z"/>
        <path class="cls-4" d="M101.07,155.49a1.39,1.39,0,0,0-1-.05,6.38,6.38,0,0,1-1.24.16.61.61,0,0,0-.48.94c.16.48,1,.88,1.4,1,.66.3,1.67.78,2-.21A1.58,1.58,0,0,0,101.07,155.49Z"/>
        <path class="cls-4" d="M105.5,147.07a8.57,8.57,0,0,0-2-.09.62.62,0,0,0-.66.67.31.31,0,0,0,.1.34,5.2,5.2,0,0,0,1.73,1c.57.15,1.35.08,1.6-.54A1.06,1.06,0,0,0,105.5,147.07Z"/>
        <path class="cls-4" d="M113,130.32a.86.86,0,0,0-1.21.05.72.72,0,0,0-.13.72,0,0,0,0,0,0,0,.76.76,0,0,0,.12.46.86.86,0,0,0,1.54-.36A1,1,0,0,0,113,130.32Z"/>
        <path class="cls-4" d="M114.94,124.24c-.28.28.07.74.42.62.09,0,.17,0,.25.08l.13.15a1.06,1.06,0,0,0,.33.3c.39.24.88-.24.72-.64A1.19,1.19,0,0,0,114.94,124.24Z"/>
        <path class="cls-4" d="M119.82,119.11a1.7,1.7,0,0,0-.9-.61,1.66,1.66,0,0,0-.49-.07.7.7,0,0,0-.65.37.54.54,0,0,0,.14.64h0a.68.68,0,0,0,.53.15h0l.1,0,.06,0s.13.1,0,0l.09.07,0,.07a.63.63,0,0,0,.85.15A.62.62,0,0,0,119.82,119.11Z"/>
        <path class="cls-4" d="M123.15,113.66a1.66,1.66,0,0,0-1.53-.83c-.53,0-1.3-.12-1.58.44a.31.31,0,0,0,.25.44h0a9.4,9.4,0,0,0,1.08.11,1.75,1.75,0,0,1,.94.41C122.67,114.56,123.38,114.16,123.15,113.66Z"/>
        <path class="cls-4" d="M129,102.23a2.17,2.17,0,0,0-2.4-1.16.32.32,0,0,0,0,.59,2.36,2.36,0,0,1,1.53,1A.51.51,0,1,0,129,102.23Z"/>
        <path class="cls-4" d="M100.32,172.31c-1.16-.42-2.28.22-3.44.27a6.14,6.14,0,0,1-2.61-.88,5.72,5.72,0,0,0,1.25-1.64c.65-.92,2.13-2.75.55-3.64-.71-.4-1.61-.08-2.37-.38s-1.22-1.1-2.11-1.09a2.28,2.28,0,0,0-1.85,1.32,2.45,2.45,0,0,0-.29.94c0,.41.47,1.69-.09,1.83a.48.48,0,0,0-.19.09,3,3,0,0,0-2.52,1.42c-.87,1.34-.39,2.94-.23,4.4a8,8,0,0,0,.06,2,1.25,1.25,0,0,0,1.42.64,8.57,8.57,0,0,1,2.72-.16c.69.13,1.44.25,1.84-.48a1.25,1.25,0,0,0-.26-1.52,1.61,1.61,0,0,0-.64-.35c-.11,0-.41,0-.5-.1s0-.44,0-.69a10.58,10.58,0,0,1,.67-2.6,11.37,11.37,0,0,1,.6-1c.4-.68.07-.25.15.19a1.11,1.11,0,0,0,.44.65.44.44,0,0,0-.2.51,2.62,2.62,0,0,0,1.06,1.41c.76.58,1.31.93,1.24,2a6,6,0,0,0,.6,3.73c1.43,2.23,4.33.94,5.54-.82S102.81,173.2,100.32,172.31Z"/>
        <path class="cls-4" d="M88.79,182.36c-.24-.31-1.4-.4-1.45-.7a.54.54,0,0,0-.46-.44c0-.89-.19-2-.82-2.4-.87-.5-2.28.39-2.92.92a7.63,7.63,0,0,0-2.29,6.42,1.37,1.37,0,0,0,2,.65c1.11-.58,1.59-1.92,2.62-2.63a3.38,3.38,0,0,1,2.23-.62c.39,0,.8.08,1.07-.28A.75.75,0,0,0,88.79,182.36Z"/>
        <path class="cls-4" d="M82.72,194.36c-.43-.32-.92-.61-1.32-1-.59-.53-.3-.86-.46-1.51a1.85,1.85,0,0,0-1.54-1.31,2.85,2.85,0,0,0-2.32.82c-.26.21-.52.45-.77.69A8.84,8.84,0,0,0,75,193.66a.44.44,0,0,0,0,.15,6.51,6.51,0,0,0-.63,1.58c-.24,1-.16,2.39.81,3s2.06-.59,2.73-1.3c1.07-1.14,2.59-2.58,4.29-1.78C82.67,195.52,83.23,194.73,82.72,194.36Z"/>
      </g>
      <g id="Слой_129" data-name="Слой 129">
        <path class="cls-3" d="M78.45,193c-.4-.59-1.15-.3-1.6.05a2.58,2.58,0,0,0-.94,1.51A.66.66,0,0,0,76,195c0,.06,0,.13,0,.2a.65.65,0,0,0,.85.55,2.84,2.84,0,0,0,1.39-1.17C78.49,194.18,78.78,193.45,78.45,193Z"/>
        <path class="cls-3" d="M84.09,181.07l-.21-.09a.34.34,0,0,0-.4-.11,1.55,1.55,0,0,0-.79,1,2.42,2.42,0,0,0-.35,1.26,1.06,1.06,0,0,0,.28,1.08c.62.51,1.28-.07,1.62-.59a3.65,3.65,0,0,0,.55-1.9A.68.68,0,0,0,84.09,181.07Z"/>
        <path class="cls-3" d="M99.86,175l-.11,0,0,0a.9.9,0,0,0-.23-.08,1,1,0,0,0-.36-.13,1.41,1.41,0,0,0-1.3.67,1.93,1.93,0,0,0-.4,1.37,3.06,3.06,0,0,0,0,.6.91.91,0,0,0,.94.92A1.24,1.24,0,0,0,99,178h0c.93.27,1.35-1.1,1.43-1.8A1,1,0,0,0,99.86,175Z"/>
        <path class="cls-3" d="M99.67,161.62a1.59,1.59,0,0,0-.27.37,1.39,1.39,0,0,0,.38,2.15,1.51,1.51,0,0,0,1.93-.47,2.12,2.12,0,0,0,.69-1.52C102.42,160.57,100.47,160.85,99.67,161.62Z"/>
        <path class="cls-3" d="M106.57,152.15a1.57,1.57,0,0,0-1.22-.35,1.42,1.42,0,0,0-1.24,1.68,1.07,1.07,0,0,0,.24.49,1.36,1.36,0,0,0,.22.75,1.56,1.56,0,0,0,2.72-.6,1.5,1.5,0,0,0,.2-.73A1.29,1.29,0,0,0,106.57,152.15Z"/>
        <path class="cls-3" d="M111.46,144.84a1.41,1.41,0,0,0-1.37-.83,1.65,1.65,0,0,0-1,.45,2.13,2.13,0,0,0-.22.18,1.23,1.23,0,0,0-.08,1.72,1.14,1.14,0,0,0,.49.25,1.33,1.33,0,0,0,.5.19H110a1.41,1.41,0,0,0,1-.22,1.36,1.36,0,0,0,.53-1.52C111.5,145,111.49,144.92,111.46,144.84Z"/>
        <path class="cls-3" d="M115.32,137a1.3,1.3,0,0,0-1.46-.7,1.49,1.49,0,0,0-1.08.89l0,0a1.55,1.55,0,0,0,.68,2.62,1.62,1.62,0,0,0,1.75-1l0-.05a1.18,1.18,0,0,0,.24-.49,1.15,1.15,0,0,0,0-.69A1.21,1.21,0,0,0,115.32,137Z"/>
        <path class="cls-3" d="M120.06,130.78a1.51,1.51,0,0,0-2,.32,1.11,1.11,0,0,0-.27.59h0a1.33,1.33,0,0,0,1.16,1.59,1.56,1.56,0,0,0,1.06.15,1.41,1.41,0,0,0,1-1.85A1.36,1.36,0,0,0,120.06,130.78Z"/>
        <path class="cls-3" d="M124.36,124.57a.64.64,0,0,0-.1-.13,1.21,1.21,0,0,0-1-.68,1.4,1.4,0,0,0-.76.14l-.17.06a1.51,1.51,0,0,0-.88,1.87.42.42,0,0,0,.06.14,1.2,1.2,0,0,0,0,.5,1.14,1.14,0,0,0,1.44.78l.08,0a.38.38,0,0,0,.15,0,.78.78,0,0,0,.66-.55l.11-.08A1.51,1.51,0,0,0,124.36,124.57Z"/>
        <path class="cls-3" d="M125.77,118.08a1.34,1.34,0,0,0-1.35-.73h0a1,1,0,0,0-.34.06,1,1,0,0,0-.66.79,1.41,1.41,0,0,0,.13,1.2,1.16,1.16,0,0,0,.23.26,1.33,1.33,0,0,0,.45.43,1.28,1.28,0,0,0,1.86-.83A1.34,1.34,0,0,0,125.77,118.08Z"/>
        <path class="cls-3" d="M128.56,112a1.58,1.58,0,0,0-2.47,0,1.33,1.33,0,0,0,1.08,2.18,1.22,1.22,0,0,0,.73,0A1.45,1.45,0,0,0,128.56,112Z"/>
        <path class="cls-3" d="M129.71,106.92a1.11,1.11,0,0,0-.7.87l0,0a1.12,1.12,0,0,0,.35,1.4.71.71,0,0,0,.59.23H130a.94.94,0,0,0,.55,0,1.28,1.28,0,0,0,.83-.93A1.32,1.32,0,0,0,129.71,106.92Z"/>
        <path class="cls-3" d="M133.9,99.42a1.15,1.15,0,0,0-1.16.67,1.1,1.1,0,0,0,1.63,1.32,1.08,1.08,0,0,0,.36-1.26A.94.94,0,0,0,133.9,99.42Z"/>
      </g>
    </g>
  </g>
</svg>
