<svg xmlns="http://www.w3.org/2000/svg" viewBox="0 0 237.32 238.94">
  <defs>
    <style>
      .cls-1 {
        fill: #5b4069;
      }

      .cls-2 {
        fill: #9261a8;
      }

      .cls-3 {
        fill: #643e6b;
      }

      .cls-4 {
        fill: #54375b;
      }

      .cls-5 {
        fill: #312135;
      }

      .cls-6 {
        fill: #c9b6ce;
      }
    </style>
  </defs>
  <title>Ресурс 8guitar</title>
  <g id="Слой_2" data-name="Слой 2">
    <g id="Слой_33" data-name="Слой 33">
      <path class="cls-1" d="M49.53,24.06c-20.29,10.24-31.85,33.86-39,54.43-4.46,12.84-7.16,26.42-9,39.87S-1,145.8,2,159.11c5.33,23.41,24.33,42.5,41.79,57.86A82,82,0,0,0,76,234.6c11.7,3.21,23.68,3.56,35.72,4,12.52.41,26.42,1.32,38.47-2.74s22.63-11.75,33.35-18.59a139.15,139.15,0,0,0,29.24-24.58c4.07-4.55,8.3-8.42,11.44-13.75a79.3,79.3,0,0,0,7.09-16.38c7.72-24.47,7.65-50.19,1.81-75.11-5.8-24.76-16.88-47.73-38.35-62.44-11.17-7.66-24.06-12.8-37-16.71s-26.19-7.06-39.65-8C103.55-.74,88.49,1,75,6.8A122.73,122.73,0,0,0,37.63,32.24c-4.5,4.48,2.41,11.38,7,7,8.82-8.57,20-16.81,31.78-20.72a96.37,96.37,0,0,1,33.56-4.88c11.1.35,21.86,2.83,32.56,5.6,10.2,2.65,20.4,5.76,29.94,10.28,20.29,9.59,34.23,25.05,41.25,46.5,6.94,21.24,6.59,44.49,6.32,66.56a70.11,70.11,0,0,1-6.77,29.93C208,183,200.85,191.22,192.54,199.35A132.24,132.24,0,0,1,163,221.41c-10,5.41-22.07,6.14-33.3,6.14-21.56,0-45.36-.81-64.62-11.51-9.87-5.49-17.56-13.56-25.42-21.51-7.21-7.3-14.2-14.9-19.2-23.93C14,159,12.74,146.15,12.88,133.13A171,171,0,0,1,19.5,89.44C25.21,68.77,36.71,46.2,56,35.12c7.2-4.13.85-14.75-6.46-11.06Z"/>
    </g>
    <g id="Слой_27" data-name="Слой 27">
      <g id="Слой_28" data-name="Слой 28">
        <path class="cls-2" d="M148.76,176.33c-3.63-6.38-9.88-11.57-8.38-19.57.92-4.89,2.83-9.61,2.84-14.64,0-5.54-2.62-10.39-6.07-14.56-3.86-4.66-9.16-5.71-15-5.74a48,48,0,0,0-10,1c-3.82-.16-7.59,1.07-11.09,2.63a17.67,17.67,0,0,0-9,8.16,24.56,24.56,0,0,0-1.92,13,50.53,50.53,0,0,0,1.47,6.91,10.34,10.34,0,0,1-.35,6.59C88,169.42,81.41,178,81.2,188.23c-.21,9.69,4,18.29,12.75,22.9s19.17,4.81,28.62,3.86c9.1-.92,20.56-3.4,25.62-11.89,2.45-4.11,3.23-9,3.59-13.74A22.25,22.25,0,0,0,148.76,176.33Z"/>
      </g>
      <g id="Слой_29" data-name="Слой 29">
        <path class="cls-3" d="M130,148.35a8.68,8.68,0,0,0-3.14-4.83,10.42,10.42,0,0,0-4.91-4.44c-3.55-1.35-7.48-.23-10.86,1.14a9.21,9.21,0,0,0-5.9,7.26c-.58,3.31-.41,7.13,1.54,10,4.33,6.34,15.29,6.1,20.33.89A10.94,10.94,0,0,0,130,148.35Z"/>
        <path class="cls-4" d="M122.94,144.85c-2.14-3.83-8.47-3.59-11.88-1.64-4.54,2.6-3.74,8.93-.76,12.43,3.13,3.68,9,4.23,12.4.56C125.13,153.55,126.5,147,122.94,144.85Z"/>
        <path class="cls-5" d="M124.89,145.15c-5.47-29.32-2.45-59.39-3-89a1.8,1.8,0,0,0-1.79-1.79c-2.32.28-4.64.51-7,.72a1.79,1.79,0,0,0-1.5,2.39c0,14.6,1,29.3-.46,43.84a136.58,136.58,0,0,0-.23,21.5c.42,7.29,1.16,14.86.11,22.12a2.07,2.07,0,0,0,2,2.56c3.28.24,6.53.35,9.82.4A2.19,2.19,0,0,0,124.89,145.15Z"/>
        <path class="cls-4" d="M135.19,184.58a1.78,1.78,0,0,0-1.28-1.67,72.72,72.72,0,0,0-16.94-.3c-2.76.21-5.54.44-8.31.47s-5.47-.45-8.16,0a1,1,0,0,0-1,.28c-1.19,1.48-1.4,5.19.7,6.07,1.45.61,3.53.34,5.09.39,2,.07,4.1.1,6.14,0a77.45,77.45,0,0,1,11.09-.13,48.38,48.38,0,0,0,11.47.21,1.72,1.72,0,0,0,1.27-1.68A33.5,33.5,0,0,0,135.19,184.58Z"/>
        <path class="cls-3" d="M124.1,38.1c-.06-1.49.17-3.27-.79-4.51a20.51,20.51,0,0,0-3.69-3.05c-1-.81-2-1.92-3.45-1.75-2.74.33-5,3.13-6.52,5.18a1.26,1.26,0,0,0,.15,1.76c-.36,3.52-.1,7.19-.13,10.69,0,3.73-.53,7.66.36,11.33.41,1.69.84,2.82,2.62,3.27a23.31,23.31,0,0,0,5.13.57c1.5,0,2.92,0,3.78-1.33S122.65,56.64,123,55a55.61,55.61,0,0,0,1.19-11.36C124.22,41.8,124.16,40,124.1,38.1Z"/>
        <path class="cls-2" d="M110.13,40.7l0,0a1.22,1.22,0,0,0,.15-1,1.74,1.74,0,0,0-3.14-.14,5,5,0,0,0-.32,3.32,1.8,1.8,0,0,0,.78,1.46,1.66,1.66,0,0,0,2-.25A2.94,2.94,0,0,0,110.13,40.7Z"/>
        <path class="cls-2" d="M126.05,42.74c0-.6,0-1.2-.08-1.8a2.19,2.19,0,0,0-.66-1.83c-.89-.69-2.92-.16-2.9,1a1.36,1.36,0,0,0-.66.88A3.36,3.36,0,0,0,123,44.24a1.94,1.94,0,0,0,2.23.37A1.9,1.9,0,0,0,126.05,42.74Z"/>
        <path class="cls-2" d="M110.23,46.7a1,1,0,0,0-1-1,1.83,1.83,0,0,0-1.51.47.75.75,0,0,0-.22.5,1.24,1.24,0,0,0-.61,1,4.31,4.31,0,0,0,.25,2.49,1.83,1.83,0,0,0,2.39.86C111.08,50.24,110.39,48.06,110.23,46.7Z"/>
        <path class="cls-2" d="M110.87,55a10.71,10.71,0,0,0-.22-1.26,2,2,0,0,0-3-.9,1.08,1.08,0,0,0-.54.91,1.41,1.41,0,0,0-.41,1.31,3.35,3.35,0,0,0,1.46,2.26,1.78,1.78,0,0,0,2.67-1A2.85,2.85,0,0,0,110.87,55Z"/>
        <path class="cls-2" d="M123.81,45.7a1,1,0,0,0-.72,0,1.28,1.28,0,0,0-.39,0,1.31,1.31,0,0,0-1.08.93,4.31,4.31,0,0,0-.21,1.51,2.94,2.94,0,0,0,.24,1.49c.59,1,1.83,1,2.86.89a1.65,1.65,0,0,0,1.63-1.62A3.46,3.46,0,0,0,123.81,45.7Z"/>
        <path class="cls-2" d="M124,51.67a1.47,1.47,0,0,0-1.11.19.84.84,0,0,0-.52,0c-1.25.39-1.33,2.13-1.38,3.24a1.52,1.52,0,0,0,1.49,1.48c1.41.18,3.28-.35,3.23-2.09C125.71,53.44,125.25,51.88,124,51.67Z"/>
      </g>
      <g id="Слой_32" data-name="Слой 32">
        <path class="cls-6" d="M112.69,185.3c.57,0,1.39-25.91,1.38-28.17,0-4.93-1.4-9.73-1.42-14.66,0-2.35.41-4.65.62-7a45.52,45.52,0,0,0-.24-6.81,118.62,118.62,0,0,1-.15-15.2c.35-5.08-.09-10,.6-15.08s-.17-10.13.11-15.16c.24-4.43.92-9,.38-13.44a129.49,129.49,0,0,1-.78-16.12,27.22,27.22,0,0,0-.44-6.31,16.72,16.72,0,0,0-2.29-5.79c-.18-.25-.61,0-.42.25a21.31,21.31,0,0,1,2.17,5.69,30.77,30.77,0,0,1,.4,7.49,81.86,81.86,0,0,0,.44,12.53c.7,4.82.38,9.45.08,14.3-.15,2.42-.29,4.86-.24,7.29,0,2.6.43,5.18.23,7.78-.18,2.43-.75,4.78-.77,7.22s.27,5,.14,7.45-.37,4.75-.42,7.13c0,2.54.39,5.07.39,7.62,0,2.17.35,4.31.41,6.47a66.71,66.71,0,0,1-.64,7.33c-.38,4.7.8,9.21,1.2,13.85.45,5.21,0,10.59-.29,15.8-.14,2.83-.12,5.66-.25,8.49-.11,2.41-.68,4.82-.62,7.22a.22.22,0,0,0,.21.21h.21c.26,0,.25-.39,0-.4Z"/>
        <path class="cls-6" d="M115,185.43c-.56-4.56-.18-9.44,0-14,.11-2.44.35-4.88.58-7.32a29.73,29.73,0,0,0,.28-3.76c0-1.07-.34-2.12-.33-3.19a30.83,30.83,0,0,0-.15-5.84,36.58,36.58,0,0,1-.3-8.23,115.72,115.72,0,0,0-.37-14.06c-.18-2.34-.53-4.65-.57-7,0-2.57.22-5.13.23-7.7,0-4.61.33-9.18.3-13.79s.25-9.1.15-13.68c-.1-4.76,1.49-9.45,1.16-14.23-.19-2.78-.81-5.48-.9-8.28-.1-2.61-.16-5.24-.52-7.83-.09-.63-2-9.74-3.86-8,.26-.23-.12-.6-.38-.38l-.14.13a.28.28,0,0,0,0,.43c4.11,1.77,4,9.69,4.17,13.4.08,1.87.06,3.77.27,5.63.3,2.61.9,5.07.74,7.71-.28,4.58-1.25,9-1,13.56.26,4.29-.29,8.59-.22,12.89.08,4.47-.25,9-.34,13.45,0,2.25-.25,4.49-.22,6.74,0,2.5.45,5,.6,7.45.28,4.35.5,8.81.35,13.16a45.48,45.48,0,0,0-.16,6.06c.25,2.48.95,4.78.72,7.3-.2,2.24.29,4.4.09,6.64-.24,2.76-.55,5.52-.68,8.29-.22,4.63-.77,10,.32,14.52,0,.05.11,0,.1,0Z"/>
        <path class="cls-6" d="M117.31,185.57c.29-4.53-.21-8.87-.46-13.4a62.36,62.36,0,0,1,.33-6.7c.1-2.25-.11-4.51-.16-6.76-.12-4.75,0-9.59.08-14.35,0-2.11.35-4.16.17-6.26-.23-2.77-.59-5.51-.62-8.29-.06-5,0-9.86-.27-14.81a135.85,135.85,0,0,1-.19-14.69c.58-10,1.8-20,1.16-30-.18-2.76-.28-5.49-.36-8.25a15.33,15.33,0,0,0-.89-5.5,4.25,4.25,0,0,0-5.77-2.16c-.13.07,0,.3.1.24a4.14,4.14,0,0,1,5.32,2.75,24.32,24.32,0,0,1,.63,6.86c0,4.45.29,8.88.34,13.34,0,4.71-.06,9.3-.43,14a134.59,134.59,0,0,0-.76,13.46c.1,4.45.21,8.89.46,13.33s-.06,9,.2,13.43c.14,2.28.47,4.54.64,6.81s-.22,4.47-.17,6.72c.1,4.21,0,8.38,0,12.59,0,2.24.25,4.47.22,6.71s-.45,4.43-.37,6.67c.16,4.79.67,9.51.75,14.3a0,0,0,0,0,.09,0Z"/>
        <path class="cls-6" d="M119.16,185.21c.38-9.46-.49-19-.37-28.42,0-2.34.23-4.66.29-7s-.31-4.71-.37-7.08c-.11-4.55-.62-9.18-.34-13.72.13-2.13.21-4.25.13-6.39-.1-2.45-.61-4.85-.64-7.31,0-4.74.63-9.48.49-14.23a123.33,123.33,0,0,1,.56-13.31,74.26,74.26,0,0,0-.31-13.17,69.75,69.75,0,0,1,0-7.92c0-2.76-.1-5.5,0-8.26s0-5.51.45-8.16,1-6.07,2.88-8.12a.19.19,0,0,0-.27-.27c-2.55,2.21-3.27,6.61-3.52,9.8-.38,5-.19,10-.26,15,0,2.23-.15,4.47-.06,6.69.09,2.47.55,4.89.62,7.36.12,4.51-.34,9.06-.6,13.56-.29,4.84-.2,9.66-.42,14.51-.1,2.33-.32,4.64-.26,7s.57,4.83.64,7.27-.08,4.57-.2,6.86a67.6,67.6,0,0,0,.37,7.39c.14,2.39,0,4.78.11,7.18a60.7,60.7,0,0,1,.22,7.14c-.52,11.21.3,22.41.73,33.62,0,.06.09.06.1,0Z"/>
        <path class="cls-6" d="M121.15,185.5c-.11-4.35-.42-8.62-.22-13,.21-4.56,0-9.14-.09-13.7,0-2.29-.16-4.57-.2-6.86s.28-4.5.09-6.75c-.4-4.59-1.1-8.95-.93-13.58a105,105,0,0,0,.06-13.85,99.85,99.85,0,0,1-.5-13.61c.24-4.66,1.19-9.13,1.18-13.82a62.31,62.31,0,0,1,.3-6.26,32.57,32.57,0,0,0-.36-6,84.94,84.94,0,0,1-.31-14.61c.22-2.43,0-4.85,0-7.29,0-2.11-.26-6.09,1.66-7.53.18-.13,0-.44-.19-.31-2.13,1.26-2.2,4.26-2.3,6.48s.11,4.55,0,6.82-.38,4.77-.27,7.2c.2,4.41.76,8.84.92,13.24.07,2.09-.37,4.2-.4,6.29,0,2.61.1,5.22-.15,7.82-.21,2.22-.63,4.41-.79,6.63-.17,2.44.1,4.81.17,7.24.14,4.8.73,9.63.63,14.42s-.62,9.83-.14,14.74c.21,2.15.67,4.27.83,6.43.18,2.58-.14,5.18,0,7.77.26,5.35.58,10.78.52,16.14,0,2.69-.22,5.37-.21,8.07s.3,5.23.4,7.87c0,.16.26.16.25,0Z"/>
        <path class="cls-6" d="M122.9,185.35c-.06-4.38-.25-8.79-.44-13.17s.72-8.6.37-12.9,0-8.51-.54-12.79a61,61,0,0,1-.42-13.77,51.69,51.69,0,0,0-.36-12c-.59-4.36-1.28-9-.6-13.4a21.05,21.05,0,0,0,.41-5c-.17-2.15-.72-4.27-.56-6.45.13-1.83.7-3.55.7-5.4,0-2-.25-4.06-.23-6.11.06-4.9.35-9.84.15-14.74-.09-2.47-.3-4.94-.36-7.41,0-2-.25-4.72.49-6.58.08-.2-.26-.34-.35-.14-1.31,2.75-.84,6.54-.73,9.48.17,4.47.38,8.91.33,13.39,0,2.15-.12,4.3-.12,6.45s.37,4.36.22,6.51c-.13,1.82-.69,3.58-.71,5.41,0,2.17.61,4.3.65,6.46a46.68,46.68,0,0,1-.7,5.76,21.82,21.82,0,0,0,.21,5.59,107.27,107.27,0,0,1,1.21,13.39c.12,4.63-.49,9.22-.25,13.86.23,4.44,1.15,8.76,1.09,13.23,0,2.54.24,5.08.1,7.61a71.71,71.71,0,0,0-.47,7.16c.22,5.19.29,10.4.85,15.56,0,0,.06,0,.06,0Z"/>
      </g>
      <g id="Слой_31" data-name="Слой 31">
        <path class="cls-5" d="M113,185.38v-.06c-.08-.26-.43-.26-.62-.15s-.5.44-.41.73a.55.55,0,0,0,1-.14A.39.39,0,0,0,113,185.38Z"/>
        <path class="cls-5" d="M115.27,185.18a.58.58,0,0,0-.93.22c-.13.32.06.9.49.79a.21.21,0,0,0,.11-.08.46.46,0,0,0,.35-.14A.57.57,0,0,0,115.27,185.18Z"/>
        <path class="cls-5" d="M117.78,185.3h0c0-.4-.51-.46-.77-.34s-.67.51-.53.89a.51.51,0,0,0,.66.29.65.65,0,0,0,.33-.06A.62.62,0,0,0,117.78,185.3Z"/>
        <path class="cls-5" d="M119.63,185.19h0a.44.44,0,0,0-.19-.17.56.56,0,0,0-.34-.12.54.54,0,0,0-.52.54.5.5,0,0,0,.38.51.53.53,0,0,0,.59,0A.52.52,0,0,0,119.63,185.19Z"/>
        <path class="cls-5" d="M121.47,185.68l0-.06a.48.48,0,0,0-.06-.42.44.44,0,0,0-.69-.12.48.48,0,0,0,0,.77.51.51,0,0,0,.36.07.38.38,0,0,0,.24-.13s0,0,0,0l0,0Z"/>
        <path class="cls-5" d="M122.87,184.94a.45.45,0,0,0-.51.42.51.51,0,0,0,.34.64.43.43,0,0,0,.56-.37h0A.49.49,0,0,0,122.87,184.94Z"/>
      </g>
    </g>
  </g>
</svg>
