<?xml version="1.0" encoding="utf-8"?>
<!-- Generator: Adobe Illustrator 21.1.0, SVG Export Plug-In . SVG Version: 6.00 Build 0)  -->
<svg version="1.1" id="Слой_1" xmlns="http://www.w3.org/2000/svg" xmlns:xlink="http://www.w3.org/1999/xlink" x="0px" y="0px"
	 viewBox="0 0 236.2 244.9" style="enable-background:new 0 0 236.2 244.9;" xml:space="preserve">
<style type="text/css">
	.st0{display:none;}
	.st1{fill:#DEDEDE;}
	.st2{fill:#5C4069;}
	.st3{display:inline;}
	.st4{fill:#9261A8;}
	.st5{fill:#643E6B;}
	.st6{fill:#54375B;}
	.st7{fill:#312135;}
	.st8{fill:#C9B6CE;}
</style>
<g id="Слой_1_1_">
</g>
<g id="Слой_116" class="st0">
</g>
<g id="Слой_27__x28_копия_x29_">
	<g id="Слой_28__x28_копия_x29_">
	</g>
	<g id="Слой_30__x28_копия_x29_">
	</g>
	<g id="Слой_29__x28_копия_x29_">
	</g>
	<g id="Слой_109">
	</g>
	<g id="Слой_32__x28_копия_x29_">
	</g>
	<g id="Слой_31__x28_копия_x29_">
	</g>
</g>
<g id="Слой_16">
</g>
<g id="Слой_34__x28_копия_x29_">
	<g id="Слой_35__x28_копия_x29_">
	</g>
	<g id="Слой_36__x28_копия_x29_">
	</g>
	<g id="Слой_37__x28_копия_x29_">
	</g>
	<g id="Слой_38__x28_копия_x29_">
	</g>
	<g id="Слой_115">
	</g>
</g>
<g id="Слой_17">
</g>
<g id="Слой_9">
	<g id="Слой_10">
	</g>
	<g id="Слой_11">
	</g>
</g>
<g id="Слой_9__x28_копия_x29_">
	<g id="Слой_10__x28_копия_x29_">
	</g>
	<g id="Слой_11__x28_копия_x29_">
	</g>
</g>
<g id="Слой_2">
	<g id="Слой_3">
	</g>
	<g id="Слой_5">
	</g>
	<g id="Слой_4">
	</g>
	<g id="Слой_6">
	</g>
	<g id="Слой_7">
	</g>
</g>
<g id="Слой_8">
</g>
<g id="Слой_93__x28_копия_x29_">
	<g id="Слой_91__x28_копия_x29_">
	</g>
	<g id="Слой_94__x28_копия_x29_">
	</g>
	<g id="Слой_95__x28_копия_x29_">
	</g>
	<g id="Слой_102">
	</g>
</g>
<g id="Слой_12">
	<circle class="st1" cx="116" cy="125.1" r="112.2"/>
</g>
<g id="Слой_33">
	<g>
		<g>
			<path class="st2" d="M49.3,27.7C29.1,37.9,17.6,61.3,10.5,81.8c-4.4,12.8-7.1,26.3-8.9,39.7s-2.5,27.4,0.5,40.7
				c5.3,24.2,23.4,45.5,41.7,61.5c19.1,16.7,42.8,21.6,67.5,21.2c12.7-0.2,26.4-1.1,38.3-5.9c11.9-4.8,22.6-12,33.4-18.9
				c20.4-13.1,40-30.9,47.4-54.7c7.6-24.4,7.4-50,1.6-74.8c-5.7-24.6-16.7-47.5-38-62.1c-11.1-7.6-24-12.8-36.8-16.7s-26.1-7-39.5-8
				c-14.5-1-29.5,0.7-42.9,6.4C61,16.1,48.1,25,37.5,35.5c-4.1,4.1,2.2,10.5,6.4,6.4C52.8,33.3,64,25,75.8,21
				c10.8-3.7,22.3-5.3,33.7-5c11.2,0.3,22,2.8,32.7,5.6c10.3,2.7,20.5,5.8,30.1,10.3c20.4,9.7,34.5,25.3,41.6,46.9
				c6.9,21.1,7.2,44.7,6.2,66.7c-0.4,10.4-2.2,20.7-6.9,30.2c-5.2,10.4-12.6,18.8-20.9,26.9c-8.9,8.6-18.7,16.2-29.6,22.2
				c-10.2,5.6-22,7.6-33.5,8.7c-21.7,2-45.5,0.9-64.9-9.9c-10-5.5-17.9-13.7-25.5-22c-7.4-8.1-14.3-16.7-19.3-26.5
				c-12.7-25-8.1-56.7-0.9-82.7c5.7-20.8,17.3-43.6,36.7-54.6C61.9,34.1,56,24.3,49.3,27.7L49.3,27.7z"/>
		</g>
	</g>
</g>
<g id="Слой_18" class="st0">
	<g id="Слой_19" class="st3">
	</g>
	<g id="Слой_20" class="st3">
	</g>
	<g id="Слой_23" class="st3">
	</g>
	<g id="Слой_25" class="st3">
	</g>
	<g id="Слой_24" class="st3">
	</g>
	<g id="Слой_21" class="st3">
	</g>
	<g id="Слой_22" class="st3">
	</g>
	<g id="Слой_26" class="st3">
	</g>
</g>
<g id="Слой_27">
	<g id="Слой_28">
		<path class="st4" d="M148.3,179.5c-3.6-6.4-9.9-11.6-8.4-19.6c0.9-4.9,2.8-9.6,2.8-14.6c0-5.5-2.6-10.4-6.1-14.6
			c-3.9-4.7-9.2-5.7-14.9-5.7c-3.4,0-6.7,0.3-10,1c-3.8-0.2-7.6,1.1-11.1,2.6c-3.8,1.7-7.2,4.3-9,8.2c-1.9,3.9-2.4,8.7-1.9,13
			c0.2,2.4,0.9,4.6,1.5,6.9c0.6,2.4,0.5,4.3-0.4,6.6c-3.4,9.3-9.9,17.9-10.1,28.2c-0.2,9.7,4,18.3,12.8,22.9
			c8.6,4.5,19.2,4.8,28.6,3.9c9.1-0.9,20.6-3.4,25.6-11.9c2.4-4.1,3.2-9.1,3.6-13.7C151.7,187.9,150.6,183.6,148.3,179.5z"/>
	</g>
	<g id="Слой_30">
	</g>
	<g id="Слой_29">
		<path class="st5" d="M129.5,151.6c-0.5-1.9-1.6-3.7-3.1-4.8c-1.2-2-2.9-3.7-4.9-4.4c-3.5-1.4-7.5-0.2-10.9,1.1
			c-3.3,1.3-5.3,3.8-5.9,7.3c-0.6,3.3-0.4,7.1,1.5,10c4.3,6.3,15.3,6.1,20.3,0.9C129.1,159,130.4,155.1,129.5,151.6z"/>
		<path class="st6" d="M122.5,148.1c-2.1-3.8-8.5-3.6-11.9-1.6c-4.5,2.6-3.7,8.9-0.8,12.4c3.1,3.7,9,4.2,12.4,0.6
			C124.7,156.8,126,150.2,122.5,148.1z"/>
		<path class="st7" d="M124.4,148.4c-5.5-29.3-2.5-59.4-3-89c0-0.9-0.8-1.9-1.8-1.8c-2.3,0.3-4.6,0.5-7,0.7
			c-1.3,0.1-1.8,1.5-1.5,2.4c0,14.6,1,29.3-0.5,43.8c-0.7,7.2-0.6,14.3-0.2,21.5c0.4,7.3,1.2,14.9,0.1,22.1c-0.2,1.4,0.5,2.5,2,2.6
			c3.3,0.2,6.5,0.3,9.8,0.4C123.8,151.1,124.7,149.7,124.4,148.4z"/>
		<path class="st6" d="M134.7,187.8c-0.1-0.7-0.5-1.6-1.3-1.7c-5.7-0.9-11.2-0.7-16.9-0.3c-2.8,0.2-5.5,0.4-8.3,0.5
			c-2.7,0-5.5-0.5-8.2,0c-0.4-0.1-0.8,0-1,0.3c-1.2,1.5-1.4,5.2,0.7,6.1c1.5,0.6,3.5,0.3,5.1,0.4c2,0.1,4.1,0.1,6.1,0
			c3.8-0.2,7.3-0.5,11.1-0.1c3.9,0.4,7.6,0.8,11.5,0.2c0.8-0.1,1.3-1,1.3-1.7C134.8,190.2,134.8,189,134.7,187.8z"/>
		<path class="st5" d="M123.6,41.3c-0.1-1.5,0.2-3.3-0.8-4.5c-0.9-1.2-2.5-2.1-3.7-3.1c-1-0.8-2-1.9-3.5-1.8c-2.7,0.3-5,3.1-6.5,5.2
			c-0.5,0.7-0.3,1.3,0.2,1.8c-0.4,3.5-0.1,7.2-0.1,10.7c0,3.7-0.5,7.7,0.4,11.3c0.4,1.7,0.8,2.8,2.6,3.3c1.6,0.4,3.5,0.5,5.1,0.6
			c1.5,0,2.9,0,3.8-1.3c0.9-1.4,1.1-3.6,1.4-5.2c0.8-3.7,1.1-7.6,1.2-11.4C123.7,45,123.7,43.2,123.6,41.3z"/>
		<path class="st4" d="M109.7,43.9C109.6,43.9,109.6,43.9,109.7,43.9c0.2-0.3,0.2-0.7,0.1-1c-0.5-1.5-2.4-1.3-3.1-0.1
			c-0.6,1-0.5,2.3-0.3,3.3c0.1,0.6,0.2,1.1,0.8,1.5s1.4,0.2,2-0.2C109.9,46.5,110.2,44.9,109.7,43.9z"/>
		<path class="st4" d="M125.6,45.9c0-0.6-0.1-1.2-0.1-1.8c0-0.7-0.1-1.4-0.7-1.8c-0.9-0.7-2.9-0.2-2.9,1c-0.3,0.2-0.6,0.5-0.7,0.9
			c-0.3,1.2,0.3,2.5,1.3,3.3c0.6,0.5,1.5,0.8,2.2,0.4C125.4,47.4,125.6,46.7,125.6,45.9z"/>
		<path class="st4" d="M109.7,49.9c-0.1-0.5-0.4-1-1-1s-1.1,0-1.5,0.5c-0.1,0.2-0.2,0.3-0.2,0.5c-0.4,0.2-0.6,0.6-0.6,1
			c-0.1,0.8-0.2,1.7,0.3,2.5s1.5,1.3,2.4,0.9C110.6,53.4,109.9,51.3,109.7,49.9z"/>
		<path class="st4" d="M110.4,58.2c-0.1-0.4-0.1-0.9-0.2-1.3c-0.4-1.3-1.9-1.5-3-0.9c-0.3,0.2-0.5,0.6-0.5,0.9
			c-0.4,0.3-0.5,0.8-0.4,1.3c0.1,0.9,0.7,1.8,1.5,2.3c1,0.6,2.3,0.2,2.7-1C110.5,59.1,110.5,58.6,110.4,58.2z"/>
		<path class="st4" d="M123.3,48.9c-0.2-0.1-0.5-0.1-0.7,0c-0.1,0-0.3,0-0.4,0c-0.5,0.1-0.9,0.4-1.1,0.9c-0.2,0.5-0.2,1-0.2,1.5
			s0,1,0.2,1.5c0.6,1,1.8,1,2.9,0.9c0.9-0.1,1.7-0.7,1.6-1.6C125.6,50.7,124.7,49.4,123.3,48.9z"/>
		<path class="st4" d="M123.6,54.9c-0.4-0.1-0.8,0-1.1,0.2c-0.2,0-0.4-0.1-0.5,0c-1.2,0.4-1.3,2.1-1.4,3.2c0,0.9,0.7,1.4,1.5,1.5
			c1.4,0.2,3.3-0.4,3.2-2.1C125.2,56.6,124.8,55.1,123.6,54.9z"/>
	</g>
	<g id="Слой_32">
		<g>
			<g>
				<path class="st8" d="M112.2,188.5c0.6,0,1.4-25.9,1.4-28.2c0-4.9-1.4-9.7-1.4-14.7c0-2.3,0.4-4.7,0.6-7c0.2-2.3-0.1-4.5-0.2-6.8
					c-0.3-5.1-0.5-10.1-0.1-15.2c0.3-5.1-0.1-10,0.6-15.1c0.7-5-0.2-10.1,0.1-15.2c0.2-4.4,0.9-9,0.4-13.4
					c-0.7-5.4-0.8-10.7-0.8-16.1c0-2.1,0-4.3-0.4-6.3c-0.4-1.8-1.2-4.3-2.3-5.8c-0.2-0.3-0.6,0-0.4,0.3c0.9,1.3,1.8,4.2,2.2,5.7
					c0.6,2.4,0.4,5,0.4,7.5c0,4.1-0.2,8.4,0.4,12.5c0.7,4.8,0.4,9.5,0.1,14.3c-0.1,2.4-0.3,4.9-0.2,7.3c0.1,2.6,0.4,5.2,0.2,7.8
					c-0.2,2.4-0.8,4.8-0.8,7.2c0,2.5,0.3,5,0.1,7.4c-0.1,2.4-0.4,4.7-0.4,7.1c-0.1,2.5,0.4,5.1,0.4,7.6c0,2.2,0.4,4.3,0.4,6.5
					c0.1,2.5-0.4,4.9-0.6,7.3c-0.4,4.7,0.8,9.2,1.2,13.8c0.5,5.2,0,10.6-0.3,15.8c-0.1,2.8-0.1,5.7-0.3,8.5
					c-0.1,2.4-0.7,4.8-0.6,7.2c0,0.1,0.1,0.2,0.2,0.2c0.1,0,0.1,0,0.2,0C112.5,188.9,112.5,188.5,112.2,188.5L112.2,188.5z"/>
			</g>
		</g>
		<g>
			<g>
				<path class="st8" d="M114.5,188.6c-0.6-4.6-0.2-9.4,0-14c0.1-2.4,0.3-4.9,0.6-7.3c0.1-1.2,0.3-2.5,0.3-3.8
					c0-1.1-0.3-2.1-0.3-3.2c0-2,0.2-3.8-0.2-5.8c-0.5-2.8-0.4-5.4-0.3-8.2c0.2-4.6,0-9.4-0.4-14.1c-0.2-2.3-0.5-4.6-0.6-7
					c0-2.6,0.2-5.1,0.2-7.7c0-4.6,0.3-9.2,0.3-13.8s0.3-9.1,0.2-13.7c-0.1-4.8,1.5-9.5,1.2-14.2c-0.2-2.8-0.8-5.5-0.9-8.3
					c-0.1-2.6-0.2-5.2-0.5-7.8c-0.1-0.6-2-9.7-3.9-8c0.3-0.2-0.1-0.6-0.4-0.4l-0.1,0.1c-0.1,0.1-0.1,0.4,0.1,0.4
					c4.1,1.8,4,9.7,4.2,13.4c0.1,1.9,0.1,3.8,0.3,5.6c0.3,2.6,0.9,5.1,0.7,7.7c-0.3,4.6-1.3,9-1,13.6c0.3,4.3-0.3,8.6-0.2,12.9
					c0.1,4.5-0.2,9-0.3,13.4c0,2.2-0.3,4.5-0.2,6.7c0,2.5,0.4,5,0.6,7.5c0.3,4.3,0.5,8.8,0.3,13.2c-0.1,2-0.4,4-0.2,6.1
					c0.3,2.5,0.9,4.8,0.7,7.3c-0.2,2.2,0.3,4.4,0.1,6.6c-0.2,2.8-0.5,5.5-0.7,8.3C113.8,178.8,113.3,184.1,114.5,188.6
					C114.4,188.7,114.5,188.7,114.5,188.6L114.5,188.6z"/>
			</g>
		</g>
		<g>
			<g>
				<path class="st8" d="M116.8,188.8c0.3-4.5-0.2-8.9-0.5-13.4c-0.1-2.3,0.2-4.4,0.3-6.7s-0.1-4.5-0.2-6.8
					c-0.1-4.7,0.1-9.6,0.1-14.3c0-2.1,0.4-4.2,0.2-6.3c-0.2-2.8-0.6-5.5-0.6-8.3c-0.1-5,0-9.9-0.3-14.8c-0.2-4.9-0.5-9.8-0.2-14.7
					c0.6-10,1.8-20,1.2-30c-0.2-2.8-0.3-5.5-0.4-8.2c-0.1-1.8-0.2-3.8-0.9-5.5c-0.9-2.2-3.5-3.3-5.8-2.2c-0.1,0.1,0,0.3,0.1,0.2
					c2.2-0.9,4.7,0.6,5.3,2.7c0.7,2.2,0.6,4.6,0.6,6.9c0,4.4,0.3,8.9,0.3,13.3c0.1,4.7-0.1,9.3-0.4,14c-0.4,4.5-0.9,9-0.8,13.5
					c0.1,4.5,0.2,8.9,0.5,13.3c0.3,4.5-0.1,9,0.2,13.4c0.1,2.3,0.5,4.5,0.6,6.8c0.2,2.2-0.2,4.5-0.2,6.7c0.1,4.2,0,8.4,0,12.6
					c0,2.2,0.2,4.5,0.2,6.7s-0.4,4.4-0.4,6.7C116.1,179.3,116.7,184,116.8,188.8C116.7,188.8,116.8,188.8,116.8,188.8L116.8,188.8z"
					/>
			</g>
		</g>
		<g>
			<g>
				<path class="st8" d="M118.7,188.4c0.4-9.5-0.5-18.9-0.4-28.4c0-2.3,0.2-4.7,0.3-7c0.1-2.4-0.3-4.7-0.4-7.1
					c-0.1-4.6-0.6-9.2-0.3-13.7c0.1-2.1,0.2-4.3,0.1-6.4c-0.1-2.5-0.6-4.9-0.6-7.3c-0.1-4.7,0.6-9.5,0.5-14.2
					c-0.1-4.4,0.2-8.9,0.6-13.3c0.3-4.5,0.1-8.7-0.3-13.2c-0.3-2.6-0.1-5.3,0-7.9c0-2.8-0.1-5.5,0-8.3c0.1-2.7,0-5.5,0.4-8.2
					s1-6.1,2.9-8.1c0.2-0.2-0.1-0.4-0.3-0.3c-2.5,2.2-3.3,6.6-3.5,9.8c-0.4,5-0.2,10-0.3,15c0,2.2-0.1,4.5-0.1,6.7
					c0.1,2.5,0.6,4.9,0.6,7.4c0.1,4.5-0.3,9.1-0.6,13.6c-0.3,4.8-0.2,9.7-0.4,14.5c-0.1,2.3-0.3,4.6-0.3,7c0.1,2.4,0.6,4.8,0.6,7.3
					c0.1,2.3-0.1,4.6-0.2,6.9c-0.1,2.5,0.2,4.9,0.4,7.4c0.1,2.4-0.1,4.8,0.1,7.2c0.2,2.4,0.3,4.7,0.2,7.1
					C117.3,166,118.1,177.2,118.7,188.4C118.6,188.5,118.7,188.5,118.7,188.4L118.7,188.4z"/>
			</g>
		</g>
		<g>
			<g>
				<path class="st8" d="M120.7,188.7c-0.1-4.4-0.4-8.6-0.2-13c0.2-4.6,0-9.1-0.1-13.7c0-2.3-0.2-4.6-0.2-6.9c0-2.3,0.3-4.5,0.1-6.8
					c-0.4-4.6-1.1-8.9-0.9-13.6c0.2-4.6,0.5-9.2,0.1-13.8c-0.4-4.4-0.7-9.2-0.5-13.6c0.2-4.7,1.2-9.1,1.2-13.8
					c0-2.1,0.1-4.2,0.3-6.3s-0.2-4-0.4-6c-0.4-4.8-0.7-9.8-0.3-14.6c0.2-2.4,0.1-4.9,0-7.3c0-2.1-0.3-6.1,1.7-7.5
					c0.2-0.1,0-0.4-0.2-0.3c-2.1,1.3-2.2,4.3-2.3,6.5c-0.1,2.3,0.1,4.5,0,6.8c-0.1,2.4-0.4,4.8-0.3,7.2c0.2,4.4,0.8,8.8,0.9,13.2
					c0.1,2.1-0.4,4.2-0.4,6.3c0,2.6,0.1,5.2-0.2,7.8c-0.2,2.2-0.6,4.4-0.8,6.6c-0.2,2.4,0.1,4.8,0.2,7.2c0.1,4.8,0.7,9.6,0.6,14.4
					c-0.1,4.9-0.6,9.8-0.1,14.7c0.2,2.2,0.7,4.3,0.8,6.4c0.2,2.6-0.1,5.2,0,7.8c0.3,5.3,0.6,10.8,0.5,16.1c0,2.7-0.2,5.4-0.2,8.1
					c0,2.7,0.3,5.2,0.4,7.9C120.4,188.9,120.7,188.9,120.7,188.7L120.7,188.7z"/>
			</g>
		</g>
		<g>
			<g>
				<path class="st8" d="M122.4,188.6c-0.1-4.4-0.3-8.8-0.4-13.2c-0.2-4.3,0.7-8.6,0.4-12.9c-0.3-4.3,0-8.5-0.5-12.8
					c-0.6-4.5-0.9-9.2-0.4-13.8c0.4-4,0.2-8.1-0.4-12c-0.6-4.4-1.3-9-0.6-13.4c0.3-1.7,0.5-3.3,0.4-5c-0.2-2.2-0.7-4.3-0.6-6.4
					c0.1-1.8,0.7-3.6,0.7-5.4c0-2-0.3-4.1-0.2-6.1c0.1-4.9,0.3-9.8,0.2-14.7c-0.1-2.5-0.3-4.9-0.4-7.4c0-2-0.3-4.7,0.5-6.6
					c0.1-0.2-0.3-0.3-0.3-0.1c-1.3,2.8-0.8,6.5-0.7,9.5c0.2,4.5,0.4,8.9,0.3,13.4c0,2.2-0.1,4.3-0.1,6.5s0.4,4.4,0.2,6.5
					c-0.1,1.8-0.7,3.6-0.7,5.4c0,2.2,0.6,4.3,0.6,6.5c0,1.9-0.5,3.8-0.7,5.8c-0.2,1.9-0.1,3.7,0.2,5.6c0.7,4.4,1.1,9,1.2,13.4
					c0.1,4.6-0.5,9.2-0.2,13.9c0.2,4.4,1.2,8.8,1.1,13.2c0,2.5,0.2,5.1,0.1,7.6c-0.1,2.4-0.6,4.7-0.5,7.2
					C121.7,178.2,121.8,183.4,122.4,188.6L122.4,188.6L122.4,188.6z"/>
			</g>
		</g>
	</g>
	<g id="Слой_31">
		<path class="st7" d="M112.5,188.6L112.5,188.6c-0.1-0.3-0.4-0.3-0.6-0.2c-0.2,0.1-0.5,0.4-0.4,0.7c0.2,0.5,1,0.4,1-0.1
			C112.6,188.8,112.6,188.7,112.5,188.6z"/>
		<path class="st7" d="M114.8,188.4c-0.3-0.3-0.8-0.1-0.9,0.2c-0.1,0.3,0.1,0.9,0.5,0.8c0,0,0.1,0,0.1-0.1c0.1,0,0.3,0,0.4-0.1
			C115,189,115,188.6,114.8,188.4z"/>
		<path class="st7" d="M117.3,188.5L117.3,188.5c0-0.4-0.5-0.5-0.8-0.4s-0.7,0.5-0.5,0.9c0.1,0.3,0.4,0.4,0.7,0.3
			c0.1,0,0.2,0,0.3-0.1C117.3,189.1,117.4,188.8,117.3,188.5z"/>
		<path class="st7" d="M119.2,188.4C119.2,188.4,119.1,188.4,119.2,188.4c-0.1-0.1-0.1-0.1-0.2-0.2c-0.1-0.1-0.2-0.1-0.3-0.1
			c-0.3,0-0.5,0.3-0.5,0.5c0,0.3,0.2,0.4,0.4,0.5s0.4,0.1,0.6,0C119.3,189,119.4,188.6,119.2,188.4z"/>
		<path class="st7" d="M121,188.9L121,188.9c0.1-0.2,0.1-0.4,0-0.5c-0.1-0.3-0.5-0.3-0.7-0.1s-0.2,0.6,0,0.8
			c0.1,0.1,0.2,0.1,0.4,0.1c0.1,0,0.2-0.1,0.2-0.1C120.9,189,120.9,189,121,188.9L121,188.9L121,188.9z"/>
		<path class="st7" d="M122.4,188.1c-0.3,0-0.5,0.2-0.5,0.4c-0.1,0.3,0.1,0.6,0.3,0.6c0.3,0.1,0.5-0.1,0.6-0.4l0,0
			C122.9,188.5,122.7,188.2,122.4,188.1z"/>
	</g>
</g>
<g id="Слой_34">
	<g id="Слой_35">
	</g>
	<g id="Слой_36">
	</g>
	<g id="Слой_37">
	</g>
	<g id="Слой_38">
	</g>
</g>
<g id="Слой_39">
	<g id="Слой_40">
	</g>
	<g id="Слой_41">
	</g>
	<g id="Слой_42">
	</g>
</g>
<g id="Слой_43">
	<g id="Слой_44">
	</g>
	<g id="Слой_45">
	</g>
</g>
<g id="Слой_46">
	<g id="Слой_48">
	</g>
	<g id="Слой_47">
	</g>
	<g id="Слой_49">
	</g>
	<g id="Слой_50">
	</g>
	<g id="Слой_51">
	</g>
	<g id="Слой_52">
	</g>
	<g id="Слой_53">
	</g>
	<g id="Слой_54">
	</g>
	<g id="Слой_55">
	</g>
</g>
<g id="Слой_46__x28_копия_x29_">
	<g id="Слой_48__x28_копия_x29_">
	</g>
	<g id="Слой_47__x28_копия_x29_">
	</g>
	<g id="Слой_49__x28_копия_x29_">
	</g>
	<g id="Слой_50__x28_копия_x29_">
	</g>
	<g id="Слой_51__x28_копия_x29_">
	</g>
	<g id="Слой_52__x28_копия_x29_">
	</g>
	<g id="Слой_53__x28_копия_x29_">
	</g>
	<g id="Слой_55__x28_копия_x29_">
	</g>
	<g id="Слой_54__x28_копия_x29_">
	</g>
</g>
<g id="Слой_66">
	<g id="Слой_67">
	</g>
	<g id="Слой_68">
	</g>
	<g id="Слой_70">
	</g>
	<g id="Слой_69">
	</g>
</g>
<g id="Слой_72">
	<g id="Слой_75">
	</g>
	<g id="Слой_73">
	</g>
	<g id="Слой_74">
	</g>
	<g id="Слой_76">
	</g>
	<g id="Слой_77">
	</g>
	<g id="Слой_79">
	</g>
	<g id="Слой_78">
	</g>
</g>
<g id="Слой_89">
</g>
<g id="Слой_88">
	<g id="Слой_90">
	</g>
	<g id="Слой_92">
	</g>
</g>
<g id="Слой_93">
	<g id="Слой_91">
	</g>
	<g id="Слой_94">
	</g>
	<g id="Слой_95">
	</g>
</g>
<g id="Слой_98" class="st0">
</g>
<g id="Слой_80" class="st0">
	<g id="Слой_82" class="st3">
	</g>
	<g id="Слой_86" class="st3">
	</g>
	<g id="Слой_83" class="st3">
	</g>
	<g id="Слой_85" class="st3">
	</g>
	<g id="Слой_84" class="st3">
	</g>
	<g id="Слой_96" class="st3">
	</g>
	<g id="Слой_97" class="st3">
	</g>
	<g id="Слой_81" class="st3">
	</g>
</g>
<g id="Слой_71" class="st0">
</g>
<g id="Слой_117" class="st0">
	<g id="Слой_118" class="st3">
	</g>
	<g id="Слой_71__x28_копия_x29_" class="st3">
	</g>
	<g id="Слой_22__x28_копия_x29_" class="st3">
	</g>
</g>
</svg>
