<svg xmlns="http://www.w3.org/2000/svg" viewBox="0 0 237.11 233.18">
  <defs>
    <style>
      .cls-1 {
        fill: #5b4069;
      }

      .cls-2 {
        fill: #9261a8;
      }

      .cls-3 {
        fill: #302437;
      }

      .cls-4 {
        fill: #4e3a5a;
      }

      .cls-5 {
        fill: #c1b4cb;
      }
    </style>
  </defs>
  <title>Ресурс 7kontrabas</title>
  <g id="Слой_2" data-name="Слой 2">
    <g id="Слой_66" data-name="Слой 66">
      <g id="Слой_33" data-name="Слой 33">
        <path class="cls-1" d="M127.42,4.35c-9.2-6.1-21.1-3.5-31.2-1.6-13.1,2.5-25.5,5.6-37,12.6-20.1,12.1-36.1,30.5-46.3,51.6s-15.2,45.1-11.9,68.6c3.3,23.9,15.4,45.3,32.2,62.5,15.8,16.1,38.7,28.5,61.1,31.6,12.8,1.8,26.7,4.1,39.5,3.4,12.5-.7,23.7-2.1,35.1-7.4,10.8-5,19.5-15.9,28.2-23.9,9.2-8.5,17.6-17.6,23.5-28.7a67.44,67.44,0,0,0,6.3-16.9c1.6-7.3,3.7-14.4,5.6-21.6,3.5-13.2,5.7-27,4-40.6-1.9-14.4-8.1-25.7-17.8-36.2-4.1-4.5-8.3-8.8-11.8-13.8s-7.1-10.2-11.1-15c-18.9-22-49.7-22.4-75.9-28.8-5.8-1.4-10.2,7.4-4.3,10.1,20.3,9.2,46,6.1,64,20.5,7.7,6.1,12.2,14.4,17.4,22.4,5.5,8.4,13.3,15.1,18.6,23.6,13.3,21.3,3.2,48,.1,70.6-.7,5.5-.7,11-2.2,16.3a55.93,55.93,0,0,1-7.7,16.4,97.1,97.1,0,0,1-24.6,24.5c-8.7,6.1-18.4,11.2-28.7,13.8-11.2,2.9-23.8,3.1-35.3,3.3-12,.2-24.1-.6-35.4-4.7a117.83,117.83,0,0,1-27.9-14.6c-17.5-12.2-32.6-29.5-39.8-49.8s-7-42.6-1-63.2c6.8-23.2,20.8-46.2,40.8-60.2a96.36,96.36,0,0,1,35.2-15.3c6.1-1.3,12.3-2.4,18.5-3.6,5.6-1.1,11.8-1.9,17.3.2,3.7,1.5,5.5-4.1,2.5-6.1Z"/>
      </g>
      <g id="Слой_72" data-name="Слой 72">
        <g id="Слой_75" data-name="Слой 75">
          <path class="cls-1" d="M119.22,215.05c.3-4.8-.1-9.7.1-14.5a.75.75,0,0,0-1.5,0c-.1,4.8-.3,9.9.6,14.6,0,.5.8.4.8-.1Z"/>
        </g>
        <g id="Слой_73" data-name="Слой 73">
          <path class="cls-2" d="M149.82,153.35c-.2-1.2-1.6-1.1-2.2-.2-1.7-1-3.9-.9-5.5-2.3-2.1-2-3-5.1-3.6-7.8-1.3-5.5-1.3-13.6,4.8-16.2a1.1,1.1,0,0,0,1.5-1.4c-.7-2.9-.7-6.1-1.3-9.1a39.32,39.32,0,0,0-2.6-8,28.17,28.17,0,0,0-9.1-11.4c-2-1.5-4.3-2.6-6.2-4.2a15.39,15.39,0,0,1-2.5-2.6,27.51,27.51,0,0,1-1.4-3c-1.3-2.6-5.5-2.7-6.2-.2a25.5,25.5,0,0,0-1.3,2.9c-1,1.9-3.1,3-4.9,4.1a40.43,40.43,0,0,0-9.2,8.8c-5.4,6.7-5.9,14.9-6.6,23.1-.1.7.6,1,1.2.9,3.1-.5,5.1,4,5.6,6.3a17.08,17.08,0,0,1-.5,8.1,30.49,30.49,0,0,1-2.9,7.8c-1.6,2.7-4.7,2.7-7.5,2.5-1-.1-1.2,1.1-.7,1.7a115.16,115.16,0,0,0-3.1,14.4c-.6,4.5-1.2,9.6-.1,14a23.63,23.63,0,0,0,2.7,5.8,40,40,0,0,0,3.6,5.5c2.7,3.3,6.5,4.7,10.4,5.8,4.7,1.3,9.3,2.5,14.2,2.5a64.55,64.55,0,0,0,14.5-1.7,26.54,26.54,0,0,0,11.3-5.5,44.71,44.71,0,0,0,8.9-10.5C156.82,174.15,151.42,163.25,149.82,153.35Z"/>
        </g>
        <g id="Слой_74" data-name="Слой 74">
          <path class="cls-3" d="M122.42,78.05c-.4-8.2-.8-16.5-1.2-24.7a40.06,40.06,0,0,1,0-6,3.78,3.78,0,0,0-.6-3.1c-1.2-1.4-3.4-.9-4.4.4a.57.57,0,0,0,.2.9c-1.2,6.3-.4,12.8-.4,19.2.1,7-.2,14-.5,21-.6,14-1.5,28-1.2,42a.74.74,0,0,0,.9.7,26.31,26.31,0,0,1,8.4.1.78.78,0,0,0,1-.7C123.92,111.25,123.22,94.65,122.42,78.05Z"/>
          <path class="cls-3" d="M124.92,166.55c-1.1-.7-3.1-.4-4.4-.4-2.1,0-4.2.1-6.2.3a1,1,0,0,0-.8,1.3c-.6,2.3.1,4.6,1,6.8a25,25,0,0,1,1.9,9.7c0,3.3-.2,6.7-.3,10-.1,2.1-.6,5.2,1.2,6.8a2.69,2.69,0,0,0,3.8,0,3.41,3.41,0,0,0,.7-2.4c.1-1.7.1-3.5.1-5.2a51.47,51.47,0,0,1,.6-10.4,92.64,92.64,0,0,1,2.6-9C125.52,172.25,127,167.85,124.92,166.55Z"/>
          <path class="cls-3" d="M109.12,134.55c-2.4-.7-4.2,1.3-4.9,3.3-1,3.2-.8,7.1-1,10.4-.1,2,.2,4.4-.5,6.3-.3,1-1.5,2.6-2.7,2.2-.3-.1-.7-1-.7-1s.5,0,.6-.2c.3-.6.7-.8.4-1.6a2.18,2.18,0,0,0-2.1-1c-2.5,0-1.6,2.6-.7,4a3.57,3.57,0,0,0,5.2,1.1c2.7-1.8,3.3-6.1,3.7-9s-2.2-11.3,2.3-12.1c-.1,1.3.9,2.8,2.3,1.5S110.52,135.05,109.12,134.55Z"/>
          <path class="cls-3" d="M140.42,152.75c-1.1-.6-3.6.5-3.1,2,.1.4.3.5.7.7-.5-.1-1.2-.2-2.1-.4a8.42,8.42,0,0,1-.8-2.7,29.9,29.9,0,0,1-.4-4.1c-.1-3.6,1-17.4-6.4-14-1.7.8-3.3,3.9-.9,5a1.82,1.82,0,0,0,2.2-.5,2.25,2.25,0,0,0,0-1.8h0c1.8-1.1,2,5.9,1.9,6.6-.1,2.2-.1,4.3,0,6.5.2,2.8.6,5.9,3,7.8a5,5,0,0,0,6.4-.2A3.11,3.11,0,0,0,140.42,152.75Z"/>
          <path class="cls-1" d="M126.92,147.55a24.72,24.72,0,0,0-2.7-2.1,5.43,5.43,0,0,0-2.2,0c-1.9.2-4-.5-5.8.1a2.19,2.19,0,0,0-.5.3c-1,.7-1.9,1.6-2.9,2.4-.3.3-.2,1,.3,1a42.53,42.53,0,0,0,7.1.6,35.32,35.32,0,0,0,6.5-1.1C127.32,148.65,127.32,147.85,126.92,147.55Z"/>
        </g>
        <g id="Слой_76" data-name="Слой 76">
          <path class="cls-1" d="M124.22,27.45c-.3-.3-.6-.2-.9-.5-.1-.1,0-.4-.1-.5a3.11,3.11,0,0,0-.6-.4c-.1-.1-.2,0-.3-.1-.9-.7-.5-.9-.6-1.8a2.57,2.57,0,0,0-.5-1.2,3.16,3.16,0,0,0-3.2-.8,2,2,0,0,0-1.3,2.1,1.22,1.22,0,0,0-1,.6c-.1.3,0,.6-.1.8-.2.4-.8.3-1.2.7-1.5,1.3.1,2.5,1.4,2.8a2.6,2.6,0,0,0,.4,1c.2.3.4.3.6.6.4.7-.1,1.9-.3,2.7a76,76,0,0,0-1.6,8.3c-.1,1.2-.9,4.4.7,5a.89.89,0,0,0,1.1-.2.55.55,0,0,0,.6-.4c1.1-1.2,2-1.3,2.8-.4.3.4.6.7.9,1.1s.6.5,1,.3c1.2-.6,1.2-1.7,1.1-2.9-.2-2.6-.7-5.2-1-7.8a22.34,22.34,0,0,1-.2-3.7,6.15,6.15,0,0,1,.2-1.9c.3-.9.5-.9,1.2-1.4S124.92,28.25,124.22,27.45Z"/>
          <path class="cls-3" d="M115.32,42.15a7.57,7.57,0,0,0-1.5.1l.6.6v-.3c.1-.7-1.1-.9-1.2-.2-.1.5-.1,1.3.4,1.6a.85.85,0,0,0,.7,0c.7-.4.5-1.5.2-2.2a.65.65,0,0,0-1.2.2,6.75,6.75,0,0,0-.2,1.4.67.67,0,0,0,1.3.2c.2-.5.4-1.6-.2-2a.61.61,0,0,0-.9.4c-.2.5-.3,1.2.3,1.5.3.1.5.1.7-.2s.1-.6.2-1a3.55,3.55,0,0,0-.9.4h.1a1.38,1.38,0,0,1-.3-.4c.1.3-.1.6-.2.9.4.1.8.1,1.3.2,0-.4.1-.7.1-1-.4.1-.8.1-1.2.2a.88.88,0,0,1,.1.7c.1-.1.2-.3.3-.4h.6c.1.2.2.2.1,0v-.3h-1.3v.3a.61.61,0,0,0,.9.5,6.47,6.47,0,0,1,1.3-.4c.5-.1.3-.8-.1-.8Z"/>
          <path class="cls-3" d="M116,37.15c-.2,0-.3-.1-.5-.1h-.2c.1.1.1,0,.1-.1a.52.52,0,0,0-1-.3,2.54,2.54,0,0,0-.2,1.2c0,.4.6.8.9.4a1.88,1.88,0,0,0,.4-1.6.55.55,0,0,0-.8-.3,1.72,1.72,0,0,0-.6,1.5.58.58,0,0,0,.6.6c.8-.1,1.1-1.4.5-2-.9-.8-1.3.8-1.3,1.4,0,.8,1.1.7,1.2,0a.9.9,0,0,1,.1-.5v-.2h0c-.1.1-.3.1-.4.2h.1c-.1-.1-.3-.1-.4-.2s-.1-.1,0,.1,0,.2-.1.2c.2-.1.3-.2.5-.3h-.1l.6.6c0-.1-.1-.4.1-.5-.3-.1-.5-.2-.8-.3a.75.75,0,0,1-.1.5c.3.1.6.3.9.4a2.92,2.92,0,0,1,.2-.9l-1-.3c-.1.5-.2,1,.4,1.3a1.6,1.6,0,0,0,1.5-.1c-.3-.1-.3-.6-.6-.7Z"/>
          <path class="cls-3" d="M122.12,38c.7,0,1.5.1,1.7-.7a.68.68,0,0,0-1.3-.4c-.2.6-.1,1.7.8,1.7s.9-1,.9-1.7a.67.67,0,0,0-1.3-.2,1.6,1.6,0,0,0,.2,1.5.7.7,0,0,0,1.2,0,2.12,2.12,0,0,0,0-1.9c-.2-.5-1.1-.6-1.2,0a.92.92,0,0,0,.2,1,.48.48,0,0,0,.7,0,.92.92,0,0,0,.2-1c-.4.2-.7.3-1.1.5a.64.64,0,0,1,0,.6c.4,0,.7.1,1.1.1a.45.45,0,0,1,0-.5c-.4-.1-.9-.1-1.3-.2v.4c0,.2-.1.3,0,.1s.3-.1.5-.2h-.1l.6.3c-.1-.1,0-.2,0-.3a6.47,6.47,0,0,1-1.3-.4c.3-.2.3-.3,0-.2h-.4c-.9.3-.9,1.4-.1,1.5Z"/>
          <path class="cls-3" d="M122,43.15c.8.7,2.7.3,2.5-1-.1-.8-1.2-.5-1.3.2a3.89,3.89,0,0,0,.2,1.5.76.76,0,0,0,1.3.2,3.4,3.4,0,0,0,0-2c-.1-.7-1.3-.5-1.3.2a4.1,4.1,0,0,0,.1,1.1c.2.6,1.2.7,1.3,0a2.15,2.15,0,0,0,0-.8c0-.2-.2-.5-.2-.7a.49.49,0,0,0-.8-.2,1.24,1.24,0,0,0-.2,1.6.65.65,0,0,0,1.2-.2,2.88,2.88,0,0,0-.1-1.3,5.58,5.58,0,0,0-.8.5c.1.1-.1.4-.2.5h1.2a1.27,1.27,0,0,1-.1-.6h-1.3v.7c0,.1-.1.6,0,.4h1.2a1.64,1.64,0,0,1-.1-1c-.4.1-.9.1-1.3.2,0-.1.1-.3.1-.4h-.5a1.45,1.45,0,0,0-.7.2c-.3.3-.4.7-.2.9Z"/>
        </g>
        <g id="Слой_77" data-name="Слой 77">
          <path class="cls-3" d="M118.32,43.85c-.3-2.4.4-5.2.5-7.6.1-2.7-.3-5.2-.4-7.9a22.88,22.88,0,0,1-.1-3.7v-.8c.8.2,1.6.3,2.4.5.3.3,0,2,0,2.3-.1,2.7-.5,5.3-.1,8,0,.1.1,0,.1,0a47,47,0,0,1,.1-6.5c.1-1.4.5-3.5-.1-4.8a1.52,1.52,0,0,0-2.7,0c-.4.9,0,2.7,0,3.6,0,1.9.3,3.8.4,5.7s.1,4,0,6c0,1.8-.4,3.5-.1,5.2Z"/>
          <path class="cls-3" d="M117.32,24.75a1,1,0,0,0-1.2.9,10.26,10.26,0,0,0,.4,1.4c.1.8.2,1.7.3,2.5,0,.1.2.1.2,0a16.35,16.35,0,0,0-.2-2.2c-.1-.7-.9-2.4.5-2.4.2,0,.2-.2,0-.2Z"/>
          <path class="cls-3" d="M121.22,29.85c.6,0,1.3.1,1.4-.5a5.32,5.32,0,0,0,0-2.8c0-.1-.1-.1-.1,0a12.05,12.05,0,0,1,0,1.9c0,.5.1,1-.5,1.1a1.7,1.7,0,0,1-.7.1c-.2.1-.2.2-.1.2Z"/>
          <path class="cls-3" d="M115.32,26.65c-.4.3-.8.7-.6,1.2s.9.4,1.4.2c.1,0,.1-.1,0-.1s-.5.1-.7,0c-.9-.2-.3-.9,0-1.1a.11.11,0,1,0-.1-.2Z"/>
          <path class="cls-3" d="M123.42,29c.4,0,1-.2,1-.7a.46.46,0,0,0-.6-.5c-.1,0-.1.1,0,.1s.2.2.2.3c.1.3,0,.4-.3.5-.1.1-.2.1-.3.2s-.1.1,0,.1Z"/>
          <path class="cls-3" d="M117,34.25c-.5,3.9-.4,7.8-.8,11.6,0,.1.1.1.1,0,.7-3.8.5-7.7.7-11.6Z"/>
          <path class="cls-3" d="M121.42,34.75a28.27,28.27,0,0,0-.2,5c0,.9,1.1,5-.2,5a.15.15,0,1,0,0,.3c1.1,0,1.2,0,1.1-1.2-.1-1.5-.6-3-.7-4.5a35.29,35.29,0,0,1,0-4.6Z"/>
        </g>
        <g id="Слой_79" data-name="Слой 79">
          <path class="cls-1" d="M115.22,170.05c-.2-.4-.6-.1-.5.3a.1.1,0,0,0,.1.1c.8.1.8-.8.1-.6a.1.1,0,0,0-.1.1.39.39,0,0,0,.6.4.42.42,0,0,0-.4-.7.44.44,0,0,0-.1.8c.3.2.8-.2.7-.5s-.7-.4-.9-.1,0,.9.5.8.8-.7.3-.9a.65.65,0,0,0-.9.5.22.22,0,0,0,.2.2h.3c.1,0,.1-.2,0-.3,0,.1-.1,0,.1-.1-.1.1,0,.1,0,0Z"/>
          <path class="cls-1" d="M117,170.05h-.2a.37.37,0,0,0-.1.3c.2.4.8.1.8-.3s-.5-.5-.7-.2.1.8.5.7a.47.47,0,0,0-.1-.9.54.54,0,0,0-.5.9.56.56,0,1,0,.1-.8c-.3.3-.2.9.2.9s.9-.7.4-1-1.1.5-.9,1a.19.19,0,0,0,.3,0c.1-.1.1-.1.1-.2s.1-.1.1-.2.1-.1,0-.1-.1.1-.1.2h.1c.1-.1.1-.3,0-.3Z"/>
          <path class="cls-1" d="M121.22,170h0c0-.1,0-.2-.1-.2-.3-.2-.5.1-.4.4s.6.4.8,0-.2-.7-.5-.6-.5.6-.2.8a.53.53,0,0,0,.9-.2c.1-.4-.5-.6-.8-.5s-.2.7.2.9a.51.51,0,0,0,.7-.6c-.1-.4-.8-.5-1.1-.2s0,1,.5.8a.19.19,0,0,0,.1-.3l-.1-.1c-.2-.2-.2-.2,0-.2a.37.37,0,0,1-.1.3c.1,0,.1-.1-.1-.2a.31.31,0,0,1,.2-.1Z"/>
          <path class="cls-1" d="M123.92,169.65c-.1,0-.2-.1-.3-.1s-.2,0-.2.1-.1.3-.1.4a.22.22,0,0,0,.2.2c.4,0,.9-.3.7-.7s-.7-.2-.8.1.4.6.7.4a.5.5,0,0,0-.2-.9c-.4-.2-.8.2-.8.6a.5.5,0,0,0,.9.2.55.55,0,0,0-.3-.9c-.5-.1-.8.5-.6.9.1.2.5.1.5-.1a.35.35,0,0,1-.2-.1l.2.2c0-.1.1-.1.1-.2.3.1.3,0,.2-.1Z"/>
          <path class="cls-4" d="M115.72,142.75c-.4-.3-1,0-1.4-.2a2.86,2.86,0,0,1-1-1.8c.1-2.2.1-4.4.2-6.7a52.08,52.08,0,0,0-.6-8.8c-.3-2.5-.4-5.1-.9-7.5a26.42,26.42,0,0,0-.2-2.9c-.1-1.7-.3-3.4-.5-5.1a46.27,46.27,0,0,0-2.3-9.6c-.4-1.2-.8-2.3-1.2-3.5a33.38,33.38,0,0,0-1-4.3c-.5-2.8.1-4.8,2.6-6.3a.61.61,0,0,0,.3-.7c-.2-.6-.5-1.1-.7-1.7v-.9c-.1-.8-1.4-.6-1.4.2.2,1.9-2.1,2.8-2.7,4.4a7.81,7.81,0,0,0-.1,3.4,51.58,51.58,0,0,0,2.7,9.5,46.87,46.87,0,0,1,2.3,11c.2,1.7.3,3.4.4,5.1.1,1.2,0,2.1.6,3a58,58,0,0,0,.6,6,84.77,84.77,0,0,1,.6,8.8c-.1,5.9-.4,11.7.2,17.6,0,.4.5.5.8.3.4,0,.7-.2.7-.6-.2-2,.9-2.8,2.7-3.1a.59.59,0,0,0,.5-.7C116.82,146.25,116.92,143.65,115.72,142.75Z"/>
          <path class="cls-5" d="M114.82,113.65a87.93,87.93,0,0,0-2-13.5c-1-4.7-1.8-9.7-3.4-14.2-.1-.2-.5-.2-.5.1.4,4.4,1.6,8.9,2.5,13.3a104.08,104.08,0,0,1,2.1,14.7c.6,9.7,1.1,19.4,1.5,29a.5.5,0,0,0,1,0C115.62,133.25,115.42,123.45,114.82,113.65Z"/>
          <path class="cls-5" d="M113.32,131.15a6.44,6.44,0,0,0-.7-2.8c-.1-.2-.4-.2-.4,0-.4.8,0,1.7.1,2.6.1,1.2-.2,2.3-.1,3.5a.5.5,0,0,0,1,.1A6.54,6.54,0,0,0,113.32,131.15Z"/>
          <path class="cls-5" d="M114.52,146.05a.76.76,0,0,0-.2-.4.54.54,0,0,0-.4-.3h-.1a.73.73,0,0,0-.7.6h0a.45.45,0,0,0,0,.5c0,.1,0,.2.1.2.2.4.6.4,1,.2A.76.76,0,0,0,114.52,146.05Z"/>
        </g>
        <g id="Слой_78" data-name="Слой 78">
          <path class="cls-5" d="M115.22,170.05a44,44,0,0,0,1-12.5c-.3-4.3-1-8.5-1.1-12.9-.3-9.1.4-18.1.8-27.2s.4-18.2.5-27.3c.1-4.2.1-8.4.3-12.6.2-4.4.6-8.9.8-13.3s-.7-9-.5-13.5.6-9-.9-13.4c-.1-.2-.4-.1-.3.1,1.4,4.2,1.1,8.5.9,12.8a112.41,112.41,0,0,0,.4,11.6c.2,4.2-.5,8.6-.6,12.8s-.3,8.3-.3,12.4c-.1,8.8-.1,17.6-.4,26.3s-1,17.4-1,26.2a118,118,0,0,0,.9,14.6,51,51,0,0,1-.7,15.6c-.1.4.1.5.2.3Z"/>
          <path class="cls-5" d="M117.32,169.85a56.81,56.81,0,0,0,1.6-12.3c-.1-4.5-.6-8.9-.6-13.4s.6-9.2.3-13.8a118.4,118.4,0,0,1-.5-11.9c.1-9.2.3-18.3.5-27.5.2-9,.9-18,.3-27-.3-4.9-.5-9.8-.4-14.7.1-3,.8-5.9-2.7-6.9-.2,0-.3.2-.1.3,2.9.9,2.5,4.2,2.4,6.6,0,2.2-.1,4.4,0,6.6.1,4,.6,8,.7,11.9.2,8.2-.4,16.4-.5,24.6s-.3,16.7-.4,25a104.81,104.81,0,0,0,.4,11.2,86.93,86.93,0,0,1-.1,12.5c-.2,4.5.2,9,.4,13.5a54.53,54.53,0,0,1-1.4,15.1c-.2.3.1.4.1.2Z"/>
          <path class="cls-5" d="M121.22,169.75c.3-8.9.1-17.8,0-26.7-.1-8.5-1.2-17-.3-25.5a48.2,48.2,0,0,0-.4-11.4c-.5-4.4.2-8.9.3-13.2a94.13,94.13,0,0,0-.4-13c-.5-4.1,0-8-.1-12.2-.1-4.9-.6-9.7-.7-14.6-.1-2.4-.1-4.8-.1-7.3,0-2.2-.5-7.9,2.1-8.8.2-.1.1-.3-.1-.3-2.6.8-2.2,4.5-2.3,6.6-.2,4.7,0,9.4.2,14,.2,4.2.7,8.5.5,12.8a46.11,46.11,0,0,0-.2,6.4c.2,2.3.5,4.6.7,6.9a132.64,132.64,0,0,1-.1,14.1c-.1,2.2-.3,4.4-.3,6.6s.6,4.2.8,6.4c.4,4.5-.8,9-.8,13.5.1,4.3.6,8.6.7,12.9.2,10.9.1,21.8.3,32.7.1.2.2.2.2.1Z"/>
          <path class="cls-5" d="M123.92,169.55c.9-8.1-.6-16.4-.7-24.6-.1-4.2.1-8.3,0-12.5-.1-4-.4-8.1-.2-12.1.2-3.7-.2-7.4-.3-11.1-.1-4.1.3-8.1.3-12.2s-.9-7.9-1.1-11.9c-.2-4.2-.2-8.3-.3-12.5-.1-4.7-.3-9.4-.5-14.1-.1-2.3-.3-4.5-.4-6.8-.1-1.2-.2-2.4-.2-3.5V47a5.85,5.85,0,0,1,.2-1.3,2.4,2.4,0,0,1,1.4-2.2.15.15,0,1,0,.3,0v-.7a.22.22,0,0,0-.2-.2c-2.2,0-2.1,4.1-2.1,5.6,0,4.4.5,8.9.7,13.3.4,8.8,0,17.7.9,26.5.4,4.3,1,8.4.8,12.7a116.26,116.26,0,0,0,.1,13.2c.3,4.2,0,8.3.1,12.5.1,4.4.2,8.8.2,13.2,0,5,.1,10,.4,14.9a83.55,83.55,0,0,1,.3,15c.1.2.2.2.3.1Z"/>
        </g>
      </g>
    </g>
  </g>
</svg>
