<svg xmlns="http://www.w3.org/2000/svg" viewBox="0 0 243.23 247.53">
  <defs>
    <style>
      .cls-1 {
        fill: #5b4069;
      }

      .cls-2 {
        fill: #312537;
      }

      .cls-3 {
        fill: #5c4069;
      }

      .cls-4 {
        fill: #9261a8;
      }
    </style>
  </defs>
  <title>Ресурс 6ksylophone</title>
  <g id="Слой_2" data-name="Слой 2">
    <g id="Слой_33" data-name="Слой 33">
      <path class="cls-1" d="M126.81,8.33c-23.56-6.27-47.9-.16-68.37,12.31A109.5,109.5,0,0,0,15.6,68.3c-5.49,11.61-10.42,24-13.34,36.53-3.31,14.23-2.35,28.63-1.11,43,2.11,24.4,12.09,48.87,30.61,65.44,9.66,8.64,21.09,14.9,32.65,20.59,12.38,6.09,24.66,10.6,38.39,12.52,27,3.77,56.93-2,79.4-17.9,19.55-13.83,37.26-32.13,47.68-54,2.72-5.73,5.44-11.42,7.93-17.26A66.38,66.38,0,0,0,242.87,136a138.84,138.84,0,0,0-4.14-44.41c-7.15-27.9-26.66-53.73-49.3-71.1C177.83,11.57,162.7,2.94,148.12.73c-16.56-2.52-32.69,2.13-49,4.46-6,.85-4.61,11.08,1.44,10.59,12.67-1,25.73-4.28,38.46-3.44,6.21.41,11.51,3.35,17,6.05a138.15,138.15,0,0,1,16.85,9.72c19,13,34.66,32.11,44,53.1,4.81,10.74,7,22.16,8.13,33.81,1.22,12.66,1.78,25.66-1.74,38-1.57,5.53-4,10.84-6.09,16.18s-3.68,10.85-6,16.1a82.27,82.27,0,0,1-20,27.21c-4.09,3.73-8.33,7.08-13.51,9.1C171.75,224,165.59,226,159.51,228c-11.94,3.88-24.45,6.62-37,6.8-25.23.36-48.14-9.09-69.19-22.36-19.08-12-32-30.63-37.69-52.4-3-11.54-4.12-23.91-4.51-35.8-.43-13,2.22-25.07,6.3-37.31,3.76-11.26,8-22.31,14.72-32.17A92.1,92.1,0,0,1,55.47,31.45c21.26-14.93,44.91-20.59,70.74-18.67,2.58.19,3-3.8.6-4.45Z"/>
    </g>
    <g id="Слой_130" data-name="Слой 130">
      <g id="Слой_132" data-name="Слой 132">
        <path class="cls-2" d="M205.72,120.56c-.39-2.47-1.74-3.68-3.56-5.28-3.42-3-7.29-4.25-11.47-5.81-2.52-.94-4.48-2.42-6.78-3.74a6.21,6.21,0,0,0-6.17-.45.53.53,0,0,0-.64.5c-.08.93-.16,1.86-.21,2.79-17.06,0-34.2.37-51.14,2.6-8.4,1.1-16.76,2.13-25.24,2.45s-17.09.2-25.63.1c-9.71-.11-19.43-.17-29.13.47a1.13,1.13,0,0,0-.18,0,.42.42,0,0,0,0-.1c-.39-.74-.68-1.5-1-2.25a1.55,1.55,0,0,0-.8-.92,3.34,3.34,0,0,0-1.72,0l-2.79.32a.77.77,0,0,0-.57.38.56.56,0,0,0-.77.51c-.17,2.95-.25,5.88-.24,8.83,0,2.56-.08,5.11.91,7.52s2.54,4.26,3.7,6.45a47.77,47.77,0,0,1,3.13,7.75c1.51,4.7,2.25,9.94,4.58,14.34,1.93,3.63,6.22,6.39,10.25,4.2a1.16,1.16,0,0,0,.51-1.26,38.29,38.29,0,0,1-.68-5.45c16.63-3.92,33.4-7,50.25-9.85l52.09-8.85,29.17-4.94a.93.93,0,0,0,.58-.3c1.27.67,2.14,2,3.16,3a8.38,8.38,0,0,0,5,2.36c1.32.15,4,.2,4.68-1.2a13.48,13.48,0,0,0,.75-3.51q.28-1.78.39-3.57A33,33,0,0,0,205.72,120.56Z"/>
      </g>
      <g id="Слой_133" data-name="Слой 133">
        <path class="cls-3" d="M184.18,112l-8.44.49a1.1,1.1,0,0,0,.61-1.25,2,2,0,0,0-.14-.41h2.66a.92.92,0,0,0,0-1.83q-1.69,0-3.39,0c0-.13,0-.25-.08-.38a1,1,0,0,0-1.67-.54.75.75,0,0,0-.44.43,1.21,1.21,0,0,0-.09.49l-2.53,0a1,1,0,0,0,.54-.63,7.54,7.54,0,0,0-.45-3.13.92.92,0,0,0-1.78.11c-31,.26-62,1.45-92.93,3.77-4.32.32-8.63.69-12.95,1.07A112.31,112.31,0,0,0,50,111.76c-.55.11-.4.94.13.95a115.63,115.63,0,0,0,11.76-.6q5.88-.44,11.76-.82c7.66-.5,15.31-1,23-1.43q23.28-1.31,46.57-1.9,12.92-.31,25.83-.42a3.12,3.12,0,0,0,.34,1.12.89.89,0,0,0,.45.39c-31.48.29-62.89,2.79-94.28,4.9-4.81.32-9.61.65-14.42,1a129.7,129.7,0,0,0-14.21,1.23c-.36.06-.25.58.08.6a100,100,0,0,0,13-.27c4.32-.25,8.63-.5,12.95-.78,8.53-.54,17.06-1.12,25.6-1.69,17.15-1.13,34.31-2.2,51.5-2.75q9.26-.3,18.52-.38c-29.23,2.31-58.48,4.43-87.7,6.9-4.11.35-8.21.77-12.29,1.39a73.93,73.93,0,0,1-13.18,1.27c-.92,0-.87,1.3,0,1.4a42.3,42.3,0,0,0,11.12-.46c3.82-.54,7.63-1,11.47-1.38,7.72-.67,15.44-1.18,23.16-1.77l15.7-1.2c-12.55,1.3-25.1,2.69-37.64,4-4.81.51-9.61,1-14.41,1.53-3.52.38-7.08.68-10.6,1.21.25-.83-.6-1.63-1-2.3-.53-.86-.92-1.8-1.43-2.67.21-.27.49-.46.7-.73a.42.42,0,0,0-.08-.65c-.94-.55-1.92.37-2.34,1.17a4.82,4.82,0,0,0-.44,1.83,8.17,8.17,0,0,0-.06,2.26c.14.7,1,.67,1.4.18.55-.77.31-1.79.39-2.69a12.51,12.51,0,0,0,.65,2,4.25,4.25,0,0,0,1,1.8c-.92.15-1.84.32-2.76.52-.58.12-.43,1,.14,1a130.19,130.19,0,0,0,13.52-1c4.32-.43,8.63-.88,12.94-1.32l25.88-2.67c17.43-1.8,34.82-3.56,52.31-4.55q14.59-.83,29.18-1.66C185.62,114.19,185.63,111.94,184.18,112Zm-10,.59a1.36,1.36,0,0,0,.35-.27,1.22,1.22,0,0,0,.4.22Z"/>
      </g>
      <g id="Слой_131" data-name="Слой 131">
        <path class="cls-4" d="M194.77,124.12c-4.15-6.09-11.77-8.45-18.84-8.49A77.55,77.55,0,0,0,162,117.26c-4.87.87-9.76,1.55-14.69,2-9.71.92-19.46,1.28-29.19,2S98.72,122.77,89,123.58Q72.43,125,55.85,126.39a.79.79,0,0,0-.62.36c-.15-.38-.8-.36-.77.12a28.47,28.47,0,0,0,4,12.22,65,65,0,0,0,3.87,5.85c.64.87,1.29,1.74,2,2.6a8.11,8.11,0,0,0,1.69,2,2.47,2.47,0,0,0,1.92.27c1.33-.21,2.64-.55,4-.82L80,147.27q7.94-1.65,15.89-3.24c21.15-4.26,42.34-8.43,63.56-12.34,5.84-1.07,11.69-1.93,17.56-2.76a104.15,104.15,0,0,0,17.32-3.64A.81.81,0,0,0,194.77,124.12Z"/>
        <path class="cls-4" d="M70.59,118.15c-2.59-2.89-4.14-6.86-6-10.27a.78.78,0,0,0-.68-.39q-6.52.26-13.05.47a.79.79,0,0,0-.66,1.15c-3.4,7.19,6.56,12.37,7.94,18.62a.88.88,0,0,0,1.08.62A48.42,48.42,0,0,1,73,126.78a.93.93,0,0,0,.89-.68C75.2,122.87,72.56,120.36,70.59,118.15Z"/>
        <path class="cls-4" d="M97.5,120.91a15.21,15.21,0,0,0-2.73-3.43q-3.37-4-6.74-7.94a16.84,16.84,0,0,0-2.68-2.91,4.91,4.91,0,0,0-3.54-.61c-3.34.34-6.68.78-10,1.32a.68.68,0,0,0-.43.25.55.55,0,0,0-.29.24c-1.58,2.36-.18,4.84,1.48,6.7,2.23,2.49,4.51,4.92,6.58,7.56a28.6,28.6,0,0,0,2.73,3.55c1,.87,2.32.58,3.5.51l11.21-.71c.49,0,1.06-.43,1-1C97.46,123.25,98,122.07,97.5,120.91Z"/>
        <path class="cls-4" d="M127.89,119.44c-.24-2.43-2.38-3.86-4.09-5.28-2.22-1.85-4.41-3.74-6.6-5.61-1.85-1.58-3.24-3.27-5.79-3.29a97.21,97.21,0,0,0-17.77,1.66.81.81,0,0,0-.35.16.59.59,0,0,0-1.11,0,10.78,10.78,0,0,0-.51,2.72c0,.66.58,1,1,1.46,1.45,1.49,2.94,2.93,4.43,4.38,2.62,2.53,5.31,5,6.77,8.42a1,1,0,0,0,.86.5c6.06-.68,12.13-1.35,18.19-2l2.35-.23a4.12,4.12,0,0,0,1.72-.26A3,3,0,0,0,127.89,119.44Z"/>
        <path class="cls-4" d="M149.3,114.52a36.67,36.67,0,0,0-3.47-2.31,44.53,44.53,0,0,1-6.58-6.15c-1.84-2-4.67-1.69-7.2-1.58a55.39,55.39,0,0,0-9.51,1.23.69.69,0,0,0-.57.71.33.33,0,0,0-.13.13c-1.25,2.34,1,4.23,2.78,5.41,2.68,1.78,6,3.21,8.18,5.66.76.86,1,2.36,2,3,1.12.73,2.48-.2,3.56-.56a25.14,25.14,0,0,1,10.44-1.14,1.08,1.08,0,0,0,1.09-1.08C149.81,116.84,150.08,115.26,149.3,114.52Z"/>
        <path class="cls-4" d="M177,113.19c-.13-.53-.27-1.07-.41-1.6a1,1,0,0,0-.72-.72c-3.1-.82-4.94-2.81-7.34-4.77a9.6,9.6,0,0,0-7.63-2c-3,.38-5.94,1.38-9,1.55a13.08,13.08,0,0,1-4.78-.51c-1.22-.38-2.12-.89-3.35-.32a.71.71,0,0,0-.44.6.46.46,0,0,0-.18.35c-.08,1.09,0,2.18,0,3.28a.86.86,0,0,0,.42.73,55.4,55.4,0,0,1,7.16,4.53c1,.8,1.89,1.76,2.92,2.52a4.25,4.25,0,0,0,3.4.62c6.42-.91,12.81-2,19.22-3A1.07,1.07,0,0,0,177,113.19Z"/>
      </g>
      <g id="Слой_134" data-name="Слой 134">
        <path class="cls-3" d="M82,144.27a15.4,15.4,0,0,0-3.69.45c-1.37.25-2.82.8-4.22.48a.11.11,0,0,0-.12.06,23,23,0,0,1-2.29-3.89c-.86-1.7-1.77-3.37-2.71-5a72.28,72.28,0,0,0-6.15-9.49c-.07-.09-.22,0-.16.12,1,1.67,2.14,3.26,3.17,4.91s2,3.33,3,5,1.82,3.33,2.68,5a21.24,21.24,0,0,0,2.06,3.51,9.78,9.78,0,0,0-2.59.09,14.6,14.6,0,0,0-1.85.43l-.72.23-.48.13a.29.29,0,0,1-.37,0s0,0,0,0c-.17,0-.25.05-.33.14a7.48,7.48,0,0,0-1.46-2.23c-1.39-1.91-2.69-3.89-3.9-5.92s-2.28-4-3.28-6.13c-.49-1-.93-2-1.43-3a8.23,8.23,0,0,0-1.68-2.57c1.16-.11,2.31-.3,3.45-.5h0l.23.39c.1.2.38.07.38-.11a.16.16,0,0,0,.07-.11,5.86,5.86,0,0,0,0-2.47c.7.46,2,0,2.77-.07,1.21-.13,2.51,0,3.7-.25.15,0,.16-.3,0-.32a14,14,0,0,0-3.42.15c-.48.05-1,.13-1.42.21s-1.14,0-1.66.15c-.49-2-1.93-3.81-3.15-5.57-2-2.88-3.76-5.9-5.78-8.75a.09.09,0,0,0-.15,0,2,2,0,0,0-.08-.22s0,0,0,0a4.89,4.89,0,0,0-.18,1.87c0,.78-.07,1.56,0,2.33-.06,0-.17,0-.12.1,2.84,4.14,6.16,7.93,8.69,12.29-1.14.22-2.28.39-3.42.6-.15,0-.15.24,0,.3a.06.06,0,0,0,0,0c.47.93,1.07,1.79,1.52,2.74s.88,2,1.34,2.94c.93,2,1.95,3.92,3,5.8s2.28,3.73,3.54,5.52c.58.84,1.32,1.63,1.83,2.52a5.2,5.2,0,0,1,.22,3c-.53-.93-1.25-1.78-1.87-2.66s-1.26-1.83-1.88-2.76q-1.82-2.73-3.51-5.52t-3.28-5.67A6.12,6.12,0,0,1,55,129.2a7.43,7.43,0,0,0,.11-2.74c0-.08-.17-.07-.16,0,.12,1.05-.35,2-.33,3.09a5.72,5.72,0,0,0,.94,2.63q1.62,3,3.38,5.93c1.17,1.94,2.39,3.87,3.64,5.77.62.93,1.24,1.85,1.88,2.76a27.74,27.74,0,0,0,1.9,2.65.17.17,0,0,0,0,.13,1.26,1.26,0,0,0,.35.72.24.24,0,0,0,.4-.11c0-.07,0-.15,0-.22a4.62,4.62,0,0,0,1.26-.18,15.29,15.29,0,0,1,2-.26c1.47-.1,2.94-.22,4.41-.33a.22.22,0,0,0,.21-.27c-.29-1,0-2.35-.6-3.2a.15.15,0,0,0-.18,0H74.2a.76.76,0,0,0-.08-.11,7.11,7.11,0,0,0,3.63-.16c1.42-.28,2.91-.31,4.31-.64A.19.19,0,0,0,82,144.27ZM50.34,113.5a.16.16,0,0,0,.1-.15c.05-.76,0-1.53,0-2.29a10.55,10.55,0,0,0,0-1.59,74.77,74.77,0,0,0,5.14,8.18c.86,1.27,1.82,2.5,2.61,3.82a7,7,0,0,1,1,4.13l-.1.05A91.35,91.35,0,0,0,50.34,113.5Zm23.94,32.8h0c0,.35.1.7.12,1.06a6.89,6.89,0,0,0,.15,1.29l-4,.32c-.54.05-1.08.09-1.61.18s-1.18.28-1.78.36a10.39,10.39,0,0,0,.08-2.78,11.32,11.32,0,0,0,3-.64A10.41,10.41,0,0,1,74,146C74.07,146.07,74.17,146.19,74.28,146.3Z"/>
        <path class="cls-3" d="M56.39,108c-2,.09-4,.59-6.07.68a.12.12,0,0,0,0,.23,7,7,0,0,0,3-.1,30,30,0,0,0,3.16-.44A.19.19,0,0,0,56.39,108Z"/>
        <path class="cls-3" d="M77.48,124.7A13.32,13.32,0,0,0,74,125l-.34,0h0a.21.21,0,0,0-.08-.33h0l0,0a.12.12,0,0,0-.09-.05,1.05,1.05,0,0,0,.15-.43c0-.1,0-.21.05-.31a4.84,4.84,0,0,0,0-.76c0-.13,0-.26-.06-.38a.21.21,0,0,0-.09-.29,2.1,2.1,0,0,0-.29-.53c-.54-.75-1.45-1.12-2.09-1.76a14.59,14.59,0,0,1-2-2.86l-2.06-3.34-2.06-3.34-.92-1.48a4.06,4.06,0,0,0-.87-1.18c-.68-.51-1.8-.21-2.57-.12a13.58,13.58,0,0,0-3.64.65.08.08,0,0,0,0,.16,31.34,31.34,0,0,0,3.34-.39c.56-.06,1.12-.13,1.68-.15.82,0,1.12.33,1.52,1,1.25,2,2.48,4,3.72,6.07l1.83,3a12,12,0,0,0,1.62,2.25c.64.66,1.57,1,2.12,1.78a2,2,0,0,1,.17.27,17.29,17.29,0,0,0-3,.32c-.55.11-1.09.24-1.65.33s-1.07.08-1.6.17a9.46,9.46,0,0,0-.65-2.33,24.17,24.17,0,0,0-2.73-4.34,49.89,49.89,0,0,0-6.93-8.14.09.09,0,0,0-.13.13c2.18,2.63,4.46,5.12,6.45,7.9a33.22,33.22,0,0,1,2.6,3.95,7.78,7.78,0,0,1,.86,2.58,21.53,21.53,0,0,1,0,2.54.18.18,0,0,0,.35,0,4.82,4.82,0,0,0,.18-2.19,5.55,5.55,0,0,0,2.65-.14,23.43,23.43,0,0,1,3.64-.4l.06,0a3.37,3.37,0,0,1,0,1.3,4,4,0,0,0-.1.47c-.28,0-.57.11-.81.15l-1.64.22c-1.2.16-2.4.33-3.59.55a.15.15,0,0,0-.09.21l-.09,0a26.27,26.27,0,0,0-3.76.34c-.64.1-1.27.24-1.91.38a14.89,14.89,0,0,1-2,.2,0,0,0,0,0,0,.08c.91.53,2.23,0,3.19-.14a27.13,27.13,0,0,1,4.5-.45.21.21,0,0,0,.17-.31h.06c1.09-.11,2.17-.25,3.26-.39a22,22,0,0,0,3.34-.16,13.7,13.7,0,0,1,3.78-.23C77.7,125.09,77.71,124.72,77.48,124.7Z"/>
        <path class="cls-3" d="M113.53,141.47a13.6,13.6,0,0,0-3.55.13c-1.27.22-2.49.85-3.79.84-.13,0-.15.2,0,.24,1.07.33,2.21-.29,3.25-.52a13.54,13.54,0,0,1,4.12-.24C113.81,141.94,113.81,141.49,113.53,141.47Z"/>
        <path class="cls-3" d="M162.3,128c-1.22-.8-2.47-1.54-3.65-2.4s-2.4-1.8-3.59-2.72l-3.35-2.6-1.83-1.4a5.65,5.65,0,0,0-1.68-1.13.07.07,0,0,0-.09.1,5.63,5.63,0,0,0,1.52,1.35c.6.48,1.21,1,1.82,1.42l3.64,2.84a40.81,40.81,0,0,0,7,4.91A.21.21,0,0,0,162.3,128Z"/>
        <path class="cls-3" d="M194,124c-.09-.46-.18-1.06-.69-1.21a5.83,5.83,0,0,0-2.06.25,15,15,0,0,0-2.6.8.58.58,0,0,0-.15-.25c.05-.71-1.45-1.47-1.92-1.73-1.22-.68-2.5-1.22-3.72-1.88s-2.48-1.41-3.66-2.2-2.4-1.75-3.63-2.57l.24,0h0a.09.09,0,0,0,.08.09,10.92,10.92,0,0,0,4.41.2,1.82,1.82,0,0,1,1.26,0,10.45,10.45,0,0,1,1,.71l2.09,1.4q2.06,1.33,4.15,2.59a34.22,34.22,0,0,0,4.3,2.41c.22.09.32-.24.15-.36-1.36-.94-2.92-1.66-4.35-2.51s-2.86-1.74-4.26-2.66c-.67-.43-1.33-.86-2-1.3-.47-.32-1-.88-1.56-.86-.88,0-1.75.28-2.64.29A23,23,0,0,1,176,115a.19.19,0,0,0,0-.08c0-1,0-2,0-3a.18.18,0,0,0-.21-.19.1.1,0,0,0,0,0,13.34,13.34,0,0,0-3.8-2.44,50.6,50.6,0,0,1-4.6-2.73c-1.15-.77-2.35-1.94-3.79-2.1s-2.54.61-3.78,1c-.17-.14-.35-.28-.53-.4a4.82,4.82,0,0,0-2.29-.37,10.09,10.09,0,0,0-2.85.24,12.65,12.65,0,0,1-1.73.36c-.34,0-.69,0-1,0a.15.15,0,0,0-.17-.15c-1.11.1-2.22.29-3.33.4a11.14,11.14,0,0,0-3.06.34h0a8.66,8.66,0,0,0,3.21,0,26.46,26.46,0,0,0,3.19-.39,3.55,3.55,0,0,0,1.94,0,17.46,17.46,0,0,1,3.12-.49c1,0,2.3,0,3.06.6a.08.08,0,0,0,.09.08h0a14.06,14.06,0,0,0,1.71,1.37c2.74,1.87,6,2.9,8.56,5a.2.2,0,0,0,.08,0,74.2,74.2,0,0,0-7.61.71.27.27,0,0,0-.35,0,.08.08,0,0,0,0,0,9.11,9.11,0,0,0-.79-.65l-1.29-.93c-.91-.65-1.82-1.28-2.74-1.91a53.37,53.37,0,0,0-5.58-3.64c-.08,0-.18.07-.1.13,1.85,1.54,4,2.81,5.95,4.2l3.07,2.19c.32.24.64.53,1,.77a37,37,0,0,0-4,.93s0,0,0-.08a.72.72,0,0,0-1.4-.22l-.12-.11-.6-.52c-.47-.41-.95-.8-1.43-1.19-1-.77-1.91-1.51-2.91-2.22s-2-1.41-3.09-2.07c-.53-.33-1.06-.64-1.6-1a5.68,5.68,0,0,0-1.43-.73.17.17,0,0,0-.29-.13,3.15,3.15,0,0,0-.72,1.57c0,.18.24.18.3,0s.17-.52.29-.76a3,3,0,0,1,.32-.52,12.53,12.53,0,0,0,2.36,1.49q1.29.81,2.55,1.68a63.21,63.21,0,0,1,5.11,4c.41.35.8.7,1.2,1.06a2.13,2.13,0,0,0,.4.29c0,.87-.17,1.73-.23,2.59a1,1,0,0,1-.25,0,.18.18,0,0,0-.07-.08c-2.11-1.61-4.07-3.39-6.11-5.09a31.57,31.57,0,0,0-2.91-2.23,32,32,0,0,1-3.15-2.11c-.11-.09-.23,0-.15.15a12.31,12.31,0,0,0,2.88,2.17,38.86,38.86,0,0,1,3.21,2.5c1.69,1.44,3.31,3,5.09,4.35a5.79,5.79,0,0,0-1,.29,9.36,9.36,0,0,1-2.65.56c-.64,0-1.32-.31-1.91,0-.05,0-.06.07-.06.12s0,.14.15.21,0,0,0,0c-.05-.24,1.33,0,1.52.06a5.47,5.47,0,0,0,1.21-.07,13.53,13.53,0,0,0,1.43-.34l.77-.21c.17,0,.55-.07.65-.19a.18.18,0,0,0,.22.29.22.22,0,0,0,.09-.07,10.22,10.22,0,0,0,1.26,1.2c.56.5,1.13,1,1.7,1.47,1.12,1,2.28,1.87,3.45,2.76s2.36,1.82,3.62,2.6c.94.58,2.36.89,3.09,1.77a4.5,4.5,0,0,0-1.6.28,8.29,8.29,0,0,1-3.47,1,2.49,2.49,0,0,0-.8.05l-.11,0a11.78,11.78,0,0,0-3.7.22c-.6.16-1.17.38-1.78.5s-1.27.09-1.89.21a.1.1,0,0,0,0,.17h0v0h0a2.85,2.85,0,0,0-.41-.59l-.39-.32c-.24-.19-.49-.38-.75-.56-.61-.43-1.25-.82-1.89-1.21a27.77,27.77,0,0,1-3.75-2.72c-2.11-1.87-4-4-6.49-5.44a.24.24,0,0,0,0-.09,6.43,6.43,0,0,0,1.3-.22l.07,0c.72-.1,1.45-.14,2.18-.22,1.2-.15,2.42-.79,3.63-.59a.17.17,0,0,0,.22.15c.1,0,.2,0,.3-.06a.22.22,0,0,0,.16-.29.2.2,0,0,0,0-.11l-.06-2c0-.11-.1-.23-.21-.21-2.39.27-4.77.58-7.17.74-1.16.08-2.32.13-3.49.12a5.06,5.06,0,0,0-2.42.26h0a13.86,13.86,0,0,1-3.26-2.4c-1-.88-2.1-1.74-3.17-2.59s-2-1.58-3.06-2.35a29.92,29.92,0,0,0-3.42-2.39v-.07c.32-.3,1.5,0,1.81-.07a10.52,10.52,0,0,0,1.57-.27,7.59,7.59,0,0,1,1.84-.16,6.93,6.93,0,0,1,1,.11l.39.09a.53.53,0,0,0,.34.06.09.09,0,0,0,0,.1,10.72,10.72,0,0,0,3.08,2.29,20.08,20.08,0,0,1,3.43,2.43c1,.86,1.86,1.79,2.83,2.65a8.57,8.57,0,0,0,3,2.07c.15,0,.29-.16.16-.27-.43-.35-1-.59-1.4-.9a18.37,18.37,0,0,1-1.68-1.35c-1-.87-1.87-1.79-2.85-2.63-1.91-1.67-4.25-2.67-6.25-4.21a.18.18,0,0,0,.17-.18h0a14.41,14.41,0,0,0,2.17-.24,7.08,7.08,0,0,1,2.85-.21,8.67,8.67,0,0,1,2.44,1.8l2.15,1.76,4.17,3.39a15.92,15.92,0,0,0,4,2.48c.2.08.31-.23.14-.33-.73-.48-1.54-.82-2.27-1.3a28.68,28.68,0,0,1-2.33-1.78c-1.51-1.24-3-2.47-4.53-3.7l-2.26-1.85a3.74,3.74,0,0,0-1.66-1,7.2,7.2,0,0,0-2.26.2,16.7,16.7,0,0,0-2.72.5,1.49,1.49,0,0,0-.65-.24,7.36,7.36,0,0,0-2.19-.19,14.91,14.91,0,0,0-2.1.38,15.42,15.42,0,0,0-2.55.27s0,0,0,0-.14.22-.11.39a5.25,5.25,0,0,1,.1,1.12c0,.34-.18.64-.2,1a.1.1,0,0,0,.18.07,1.71,1.71,0,0,0,.32-1c0-.12-.07-.59-.12-1,.93.83,2,1.53,3,2.28,1.23.93,2.43,1.88,3.63,2.85s2.18,1.79,3.25,2.71a11.52,11.52,0,0,0,2.74,2,5.2,5.2,0,0,0-.52,2c-1.54-1.78-3.79-2.91-5.69-4.24-1.25-.87-2.47-1.78-3.68-2.72a29.58,29.58,0,0,0-3.43-2.71s-.1,0-.07.06a17.54,17.54,0,0,0,3,2.74c1.07.87,2.16,1.71,3.27,2.53s2.32,1.62,3.5,2.4a11.87,11.87,0,0,1,3,2.59l-.09.09s0,0,0,0a.56.56,0,0,0,.26.07.26.26,0,0,0,.29,0l.21,0c.65-.1,1.31-.18,2-.24,1.12-.09,2.25-.08,3.37-.13l0,0c2.62,1.74,4.67,4.12,7.06,6.14a30.93,30.93,0,0,0,3.61,2.5c.64.4,1.27.8,1.87,1.25.27.19.58.56.92.82a53.69,53.69,0,0,1-6.07.84l-.06,0a38.69,38.69,0,0,0-6.83-5.54q-2-1.35-3.81-2.88c-.58-.49-1.15-1-1.72-1.49a11.63,11.63,0,0,0-1.49-1.32.19.19,0,0,0-.13-.1,8.63,8.63,0,0,0-3.47,0l-3.48.46a.12.12,0,0,0-.08,0l-.2-.14c-.1-.07-.21.08-.13.16,2.29,2.19,4.82,4.15,7.18,6.26s4.48,4.08,6.65,6.2c-1,.17-2.05.44-3.07.69s-2.13.39-3.17.65a.16.16,0,0,0-.09.07,15.39,15.39,0,0,0-2.43-3.4,29.46,29.46,0,0,0-3.73-3c-2.68-2-5.07-4.38-7.68-6.47h0a23,23,0,0,0,3.21.13,3.18,3.18,0,0,0,1.1-.23,9.28,9.28,0,0,1,1.37-.29.18.18,0,0,0,0-.35c-.86-.21-1.62.37-2.47.41-.5,0-1,0-1.53,0-.21,0-1.49.1-1.59-.13s-.19-.06-.21,0l-.06.2a.14.14,0,0,0,0,.09l-.06,0a2.65,2.65,0,0,0,0-.71,4.28,4.28,0,0,0,0-1.55,5.08,5.08,0,0,1,1.62-.23c.52,0,1-.05,1.55-.07a11.25,11.25,0,0,0,2.58-.32c0,.7.11,1.41.19,2.11,0,0,0,0,0,0v.11c0,.24.46.19.44-.06-.09-.82-.18-1.64-.23-2.47a.23.23,0,0,0-.22-.21.1.1,0,0,0,0-.05,97.36,97.36,0,0,1-9.29-7.78,26.3,26.3,0,0,1-1.85-2.09c-.41-.52-.81-1.45-1.54-1.56a9.87,9.87,0,0,0-2.71.16,14.72,14.72,0,0,0-3.19.78.19.19,0,0,0-.1.1,2.14,2.14,0,0,0-.32-.2s0,0,0,0v0a1.73,1.73,0,0,0-.79-.06c-.63,0-1.27,0-1.9,0a23.86,23.86,0,0,0-3.69.31h0a.15.15,0,0,0-.09.21,1.75,1.75,0,0,0-1-.5,2.58,2.58,0,0,0-1,.17,10,10,0,0,1-2,.36,10.76,10.76,0,0,1-3.61-.45c-.12,0-.2.15-.08.2l.06,0c0,.22,0,.44,0,.66,0,0,0,0,0,0l0-.14a8.44,8.44,0,0,1,.22,2.3,1.68,1.68,0,0,0,.6,1.62c1.31,1.13,2.79,2.05,4.14,3.13a22.61,22.61,0,0,1,3.64,3.93,21.68,21.68,0,0,0,2.85,3h0a8.37,8.37,0,0,0-2.39.59c-.42.12-.86.22-1.29.3l-.66.11a2.89,2.89,0,0,0-.47.16s0,0,0,0l0,0a.07.07,0,0,0-.09,0h0c-.69-.42-2.06,0-2.75.18-.14,0-.12.29,0,.27.63-.07,1.25-.16,1.88-.2s1,.59,1.28,1.13a11.74,11.74,0,0,0,1.54,2c1.34,1.4,2.9,2.56,4.26,3.93,2.5,2.53,3.79,6.06,6.54,8.35l-.51.07a26.34,26.34,0,0,0-2.76.43c-.44.09-.88.2-1.33.27s-1.16.06-1.74.13c-.28-.38-.82-.61-1.13-.92-1.44-1.45-2.67-3.16-4-4.71-2.74-3.25-5.43-6.55-8.27-9.7l.32,0a10.43,10.43,0,0,0,1.25-.17,4,4,0,0,1,1.92-.23.23.23,0,0,0,.28-.21c0-.91.27-1.84.22-2.74a.15.15,0,0,0-.13-.16.18.18,0,0,0-.14-.11l-.28,0a7.62,7.62,0,0,0-.91-1.28c-.5-.64-1-1.26-1.54-1.87-1-1.19-2.13-2.33-3.22-3.46s-2.13-2.22-3.15-3.36c-.54-.6-1.06-1.22-1.57-1.85-.34-.42-.66-1.06-1.2-1.24a.11.11,0,0,0-.06-.07,4,4,0,0,0-2.38.1,16.06,16.06,0,0,1-1.69.27,4.74,4.74,0,0,0-1.36.17,0,0,0,0,0,0,0,4.76,4.76,0,0,0,2.43,0c.38,0,.74-.13,1.12-.2a11.74,11.74,0,0,1,1.78-.12,6.77,6.77,0,0,1,1.27,1.49c.47.61,1,1.19,1.47,1.77,1,1.12,2,2.2,3,3.29s2,2.1,3,3.18c.51.58,1,1.16,1.48,1.76.34.43.66,1,1,1.39-.4,0-.8.11-1.18.15l-1.82.2-1.59.2a3.14,3.14,0,0,0-.56.08.17.17,0,0,0,0-.1,3.6,3.6,0,0,0-1.2-2c-.78-.64-1.69-1.09-2.48-1.73a32.62,32.62,0,0,1-4.43-4.89l-2.2-2.7L79,107.9c-.2-.24-.4-.6-.69-.72a2.31,2.31,0,0,0-.86,0l-.86.06c-.58,0-1.15.1-1.73.17-1,.11-2,.24-2.92.43l-.36-.19a0,0,0,0,0,0,0l.19.19-.31.06c-.1,0-.08.19,0,.18l.36-.05c-1.41,1.29-.26,3.57.67,4.76,1.58,2,3.34,4,5,6L80,121.76l1.34,1.57c.11.13.26.36.43.58a6.25,6.25,0,0,0-1.15.16c-.47.12-.89.38-1.35.54s-.88.11-1.31.21a1.09,1.09,0,0,0-.13-.17c-.06-.08-.17,0-.13.1a58.68,58.68,0,0,0,7,9.95c1.47,1.62,3,3.19,4.28,4.94A15.84,15.84,0,0,1,90.69,142s0,0,0,.05l-.13.05-.79.11-.85.1c-.63.08-1.26.15-1.89.25-1.42.22-2.79.73-4.23.87a.1.1,0,0,0,0,.19,3.52,3.52,0,0,0,1.87-.13A20.89,20.89,0,0,1,87,143c.83-.13,1.66-.22,2.49-.32a6.14,6.14,0,0,0,1.37-.16,5,5,0,0,1,.09,1.23l0,.89a7.32,7.32,0,0,0,0,.81.22.22,0,0,0-.16.09,16.78,16.78,0,0,0-4.24.31,7.18,7.18,0,0,0-3.56,1.2c0-.57-.08-1.15-.12-1.72a6.7,6.7,0,0,0-.2-1.67.13.13,0,0,0-.18-.08.18.18,0,0,0-.09-.29c-.34-.12-.69-.92-.87-1.2l-.8-1.23-1.51-2.34c-1-1.56-2-3.13-3-4.69-1.87-2.85-3.76-5.93-6.26-8.27-.06-.06-.17,0-.12.08,1,1.38,2.14,2.7,3.13,4.1s2,2.93,3,4.42c2,3.13,4,6.29,6,9.4a.24.24,0,0,0,.21.12l.23,0,.1,0,0,0a11.92,11.92,0,0,0,.09,3.42c-.57.1-1.17-.26-1.77-.19a17.84,17.84,0,0,0-1.91.36,13.3,13.3,0,0,0-3.76,1.19c-.13.07,0,.23.09.21,1.32-.21,2.61-.72,3.93-1a7.15,7.15,0,0,1,2.19-.3,3.61,3.61,0,0,0,1.41.18.18.18,0,0,0,.11-.07.2.2,0,0,0,.2-.21c.6-.18,1.17-.47,1.78-.63a17.06,17.06,0,0,1,1.89-.37c1.38-.2,2.8-.15,4.18-.32h0a.25.25,0,0,0,.34,0c.27-.21.22-.57.22-.89.82.46,2.21-.24,3-.46a11.38,11.38,0,0,1,4.15-.34.18.18,0,0,0,.2-.14,22.64,22.64,0,0,0,3.85-.48,20.42,20.42,0,0,1,2.19-.26,2.4,2.4,0,0,0,1.37-.27.23.23,0,0,0-.18-.41l-.19,0a.14.14,0,0,0-.11.11,7.21,7.21,0,0,1-1.67.15c-.56.07-1.11.16-1.67.25a21.8,21.8,0,0,0-3.59.65l0-.15a.16.16,0,0,0-.2-.12,16.86,16.86,0,0,0,0-2.93.64.64,0,0,1,0-.07c2.26-1,4.69-.93,7.15-1.07a3.71,3.71,0,0,1,0,1.15l-.12,1.51a.22.22,0,0,0,.22.23,1,1,0,0,0,.54-.14.11.11,0,0,0,0-.19,1.26,1.26,0,0,0-.3-.11c0-.43.07-.87.11-1.3a6.92,6.92,0,0,0,.08-1.2.23.23,0,0,0,.1-.25c1.21.39,2.83-.24,4-.42.48-.08,1-.14,1.45-.19a6.07,6.07,0,0,1,1.1-.12h0a.22.22,0,0,0,.13,0c.28.17.27.95.31,1.24a9.64,9.64,0,0,0,.28,1.42.16.16,0,0,0,.1.11l-.11.05s0,0,0,0c.9.69,2.2-.31,3.08-.58,1.33-.42,2.84-.24,4.15-.78a.24.24,0,0,0,.12-.14.23.23,0,0,0,.15-.1.71.71,0,0,0,.08-.15,9.36,9.36,0,0,0,3.11-.35l2-.32a6.47,6.47,0,0,0,1.7-.32,5.66,5.66,0,0,0,2.41-.49,16.67,16.67,0,0,1,3.37-.46c.53,0,.7-.16.83-.51l0,0h0c1.09.22,2.34-.36,3.41-.57a30.18,30.18,0,0,1,4.13-.47c.15,0,.31-.19.2-.34l0,0a6.25,6.25,0,0,0,2.75-.22c.5-.13,1-.3,1.48-.41a12.2,12.2,0,0,1,1.6-.15.22.22,0,0,0,.16-.34h.05a65.88,65.88,0,0,0,6.8-1.21c2.34-.43,4.69-.85,7-1.24a.26.26,0,0,0,.17-.17l.06,0c1.34.56,2.52,0,3.77-.45a7.71,7.71,0,0,1,1.95-.36,1,1,0,0,0,.71-.28s0,0,.06,0a18.75,18.75,0,0,1,3.08-.45,22.47,22.47,0,0,0,3.05-.58,33.57,33.57,0,0,1,6.56-1.37.25.25,0,0,0,.22-.17,13,13,0,0,0,.24-2.78.25.25,0,0,0,0-.26.17.17,0,0,0-.15-.13.09.09,0,0,0,0-.15c-.13-.08.23-.26.26-.27a3.32,3.32,0,0,1,.82-.11c.3,0,.61-.08.91-.14.73-.16,1.36-.59,2.08-.73.53-.11,2-.3,2.29.16a4.08,4.08,0,0,1,.17,1.42c0,.45,0,.9,0,1.35a.28.28,0,0,0,0,.09,5.2,5.2,0,0,0-.78.1c-.51.12-1,.35-1.48.49a12.58,12.58,0,0,1-1.63.26,5.5,5.5,0,0,0-2.6.76c-.11.07,0,.29.1.23a11.29,11.29,0,0,1,3-.62,19.31,19.31,0,0,0,2.62-.66c.47-.12.95-.08,1.42-.19s1-.34,1.44-.49a14.35,14.35,0,0,1,3.32-.58.22.22,0,0,0,.22-.17A6.1,6.1,0,0,0,194,124Zm-45.57-8.4.06,1.68c-1.28-.32-2.47.35-3.74.54-.7.1-1.41.15-2.11.26a.32.32,0,0,0-.1-.19l0,0c-.07-.48-.12-1-.2-1.45l0-.16C144.36,116,146.41,115.78,148.46,115.55Zm-7.63,3a33.18,33.18,0,0,0-3.59.17,9.93,9.93,0,0,0-2,.25,4.61,4.61,0,0,1,.54-2.32.2.2,0,0,0,0-.21,11.32,11.32,0,0,1,2.79,0c1.12,0,2.23,0,3.34-.11,0,0,0,.06,0,.1,0,.2,0,.41.05.61,0,.39.09.78.12,1.18a2.24,2.24,0,0,0-1.12.45A.2.2,0,0,0,140.83,118.5ZM90.29,121a.2.2,0,0,0,.11,0c.95-.14,1.93-.18,2.9-.27a21.17,21.17,0,0,0,2.73-.26.15.15,0,0,0,.19,0l.08,0a7.92,7.92,0,0,0-.3,2.39,8.25,8.25,0,0,0-2.4.39c-1.13.17-2.23.06-3.36.13C90.26,122.53,90.28,121.75,90.29,121ZM74.62,107.82a19.64,19.64,0,0,1,3.15-.23c.69,0,.94.54,1.35,1l.9,1.13,2.1,2.59a34.07,34.07,0,0,0,3.94,4.46,16,16,0,0,0,2.09,1.56,3.59,3.59,0,0,1,1.78,2.16,28.44,28.44,0,0,1-6.51.52c-.26,0-.26.39,0,.4a29.6,29.6,0,0,0,6.44-.47c0,.91,0,1.82-.07,2.74l-4.6.22a.14.14,0,0,0-.22,0l-1.21.06a.17.17,0,0,0-.19-.16h-.35a6.23,6.23,0,0,0,.07-.86,3.49,3.49,0,0,0,0-1.29,0,0,0,0,0,0,0,.16.16,0,0,0,0-.22,14.2,14.2,0,0,0-1.47-1.83l-1.58-1.86c-1.11-1.32-2.26-2.63-3.29-4-1.36-1.87-2.68-4.34-4.67-5.68C73.05,108,73.84,107.9,74.62,107.82Zm7.12,15.32-1-1.24-2.29-2.69L74,114.05a13.5,13.5,0,0,1-2-2.64,3.44,3.44,0,0,1-.43-1.75,6.2,6.2,0,0,1,.4-1.52,24,24,0,0,1,2.46,2.76c.84,1.14,1.6,2.34,2.45,3.48s1.89,2.35,2.85,3.5l1.57,1.88A15,15,0,0,0,83,121.7a.17.17,0,0,0,.21,0,3.51,3.51,0,0,0-.29,1.24,4.63,4.63,0,0,0-.1.92h-.36A3.64,3.64,0,0,1,81.74,123.14ZM91,141.66a6.5,6.5,0,0,0-.54-.83,59.27,59.27,0,0,0-4.33-5.28,55.59,55.59,0,0,1-4.45-5.35c-1.21-1.67-2.29-3.47-3.54-5.11a3.26,3.26,0,0,0,1.81-.36,6.3,6.3,0,0,1,2.15-.4.94.94,0,0,0,.26.18,4.83,4.83,0,0,0,1.51-.06l1.24-.06a39.43,39.43,0,0,0,6.64,8.35,11.26,11.26,0,0,1,1.79,2c.47.78.85,1.62,1.34,2.39a17.17,17.17,0,0,0,1.45,1.94c.27.31.55.61.84.91l.42.4C95.4,140.46,93.22,141.35,91,141.66Zm7.1,2.11A11.08,11.08,0,0,0,95,144a17.23,17.23,0,0,0-1.77.53c-.59.19-1.22.19-1.78.39,0-.55,0-1.11,0-1.66a3.27,3.27,0,0,0-.33-1.39c2.39.12,4.62-1.11,7-1a16.48,16.48,0,0,1,0,2.81S98.13,143.74,98.13,143.77Zm3.39-4.43a6.85,6.85,0,0,0-3.2,1.1A18,18,0,0,0,97,139.05a17.25,17.25,0,0,1-1.68-2.22c-.46-.74-.82-1.54-1.28-2.28a10.28,10.28,0,0,0-1.59-1.89,64.87,64.87,0,0,1-6.9-8.28l4.51-.22a.22.22,0,0,0,.22-.22c0-.14,0-.28,0-.42a6.45,6.45,0,0,0,2.24.2s0,0,0,0c2.47,3.19,5.1,6.26,7.67,9.36l3.78,4.54a11.86,11.86,0,0,0,.82.93c.19.18.46.32.66.5A36.47,36.47,0,0,0,101.52,139.34Zm25.79-12.18a43.79,43.79,0,0,1,3.85,3.06,14.51,14.51,0,0,1,2.51,3.28,6.37,6.37,0,0,0-2.7.26c-.69.19-1.37.4-2.05.62a11.35,11.35,0,0,0-1.32.44c-1.42-2.72-3.87-4.81-6.23-6.69-1.33-1.06-2.69-2.09-4-3.22a22.21,22.21,0,0,1-1.78-1.72c-.31-.33-.61-.67-.89-1a3,3,0,0,0-.67-.74c.44-.06,1.18-.15,1.27-.15l1.55-.13a22.67,22.67,0,0,0,2.86-.25.71.71,0,0,0,.29-.13A62.14,62.14,0,0,0,127.31,127.16ZM110.4,106.29c1-.16,2.64-.54,3.46.18a6,6,0,0,1,.64.86c.28.37.58.73.89,1.08.58.67,1.2,1.31,1.84,1.93,2.61,2.51,5.55,4.69,8.39,6.93a16.79,16.79,0,0,1-3.17.32A5.71,5.71,0,0,0,120,118a.2.2,0,0,0-.16-.12h-.15c-1.62-2.47-3.17-5-5.63-6.68-1.13-.78-2.34-1.44-3.52-2.16-.64-.39-1.27-.8-1.87-1.25-.34-.26-.65-.58-1-.86A22.67,22.67,0,0,1,110.4,106.29ZM93.35,107a8.89,8.89,0,0,0,5.4.15,1.48,1.48,0,0,1,1.66.36c.31.32.57.69.87,1a23,23,0,0,0,2.11,2.08c1.47,1.3,3,2.45,4.57,3.68a42.49,42.49,0,0,1,4.26,4.12c.18.19.51-.06.36-.28a19.78,19.78,0,0,0-4.27-4.2c-1.58-1.27-3.23-2.47-4.75-3.82a26,26,0,0,1-2.11-2.09c-.24-.28-.49-.62-.77-.9h0c1,0,2-.11,3.07-.15a19.49,19.49,0,0,1,3.1-.08.18.18,0,0,0,.34,0v0a9.2,9.2,0,0,0,2.53,2.09c1.15.76,2.35,1.43,3.5,2.19a13.21,13.21,0,0,1,3.23,2.87c.94,1.21,1.75,2.52,2.61,3.79-.49,0-1,.05-1.46.07-.77,0-1.54.06-2.3.15a11.08,11.08,0,0,0-1.91.35,2,2,0,0,0-.82.33c-.52,0-1-.24-1.56-.29a5.89,5.89,0,0,0-1.51.12,17.81,17.81,0,0,0-3,.85.25.25,0,0,0-.46,0l-.08,0c-.87-1.1-1.94-2.08-2.89-3.1S101,114,99.86,112.83a39.17,39.17,0,0,0-3.19-3,20.7,20.7,0,0,0-3.2-2.45Zm19.49,13.75a14.7,14.7,0,0,0-3.69.15,8.8,8.8,0,0,0-3.14,1,7.86,7.86,0,0,0,.5-2.17c1.07-.16,2.11-.52,3.17-.7a4.75,4.75,0,0,1,2.09.07,4.07,4.07,0,0,0,1,.15C112.71,119.76,112.82,120.27,112.84,120.79Zm-10.75-2.67a23.15,23.15,0,0,0-3.4-3.73c-1.21-1-2.53-1.9-3.79-2.85-.48-.36-1.08-.7-1.16-1.37,0-.4,0-.82,0-1.23a7.69,7.69,0,0,0-.18-1.17c.85.86,1.93,1.58,2.83,2.36,1.1,1,2.15,2,3.16,3s2.07,2.25,3.11,3.37a42.11,42.11,0,0,0,3.22,3.45.2.2,0,0,0,.09.05,9.63,9.63,0,0,1-.4,1.58A24.88,24.88,0,0,1,102.09,118.12ZM118,132.9c-1.21-1-2.44-1.9-3.58-3s-2.28-2.29-3.38-3.47a42.2,42.2,0,0,0-3.79-3.89c-.08-.06-.21,0-.15.11a37.13,37.13,0,0,0,3.33,3.76c1.13,1.23,2.25,2.47,3.47,3.62s2.29,2,3.47,2.91c.6.47,1.19,1,1.76,1.47s1,1,1.54,1.54a3.51,3.51,0,0,0-.66.07,10.63,10.63,0,0,0-2.15.56,14.65,14.65,0,0,1-4.58,1.17.17.17,0,0,0,0,.33,8.32,8.32,0,0,0,3.58-.66c.59-.21,1.19-.43,1.79-.61a9.32,9.32,0,0,1,.91-.23,3.69,3.69,0,0,1,1.06-.16c0,1,.18,2.08.11,3.13,0,0,0,.05,0,.08a18.06,18.06,0,0,0-1.93.32c-.61.09-1.24.13-1.84.27a6.34,6.34,0,0,0-1.38.56,11.88,11.88,0,0,1-1.61.41.19.19,0,0,0,0-.08,8.8,8.8,0,0,0-.18-1.34,4.28,4.28,0,0,0-.29-1.48.51.51,0,0,0-.32-.2s0,0,0,0a17.8,17.8,0,0,1-4.06-4.9,22.24,22.24,0,0,0-3.6-4.43,42,42,0,0,1-4.28-4,9.79,9.79,0,0,1-1-1.43,5.05,5.05,0,0,0-.28-.51,4.47,4.47,0,0,0,1.48-.19,16.37,16.37,0,0,1,3.18-.77.21.21,0,0,0,.21-.27l.75.64a.32.32,0,0,0,.19.07h0c1.14-.15,2.24-.68,3.39-.87a14.85,14.85,0,0,1,3.94-.1.26.26,0,0,0,.25-.25,4,4,0,0,0-.23-1.84h0a.21.21,0,0,0,.14-.33,20.31,20.31,0,0,1,3-.45c1-.06,2.12,0,3.15-.1a.23.23,0,0,0,.32.06c0,.18,0,1.19,0,1.29,0,.63-.28.76-.88.81l-2.55.24c-.79.07-1.6.12-2.4.24-.28,0-.56.08-.56.41a.16.16,0,0,0,.07.13l.2.09c.07,0,.17,0,.12-.12s.06,0,.16,0c.06.58.66,1.14,1,1.57a21.05,21.05,0,0,0,1.8,1.86c1.25,1.16,2.6,2.2,3.93,3.26a24.41,24.41,0,0,1,6.51,6.93l-.07.05h0c-.72,0-1.43.12-2.14.24a21.13,21.13,0,0,1-2.73.5,7.64,7.64,0,0,0-1.19,0A14,14,0,0,0,118,132.9Zm8.66,5.57q-.94.14-1.89.3c-1.17.2-2.34.47-3.52.57a8.7,8.7,0,0,0-.09-1.22,12,12,0,0,0-.17-1.57h0a.25.25,0,0,0,.17-.23c.56-.06,1.7-.08,1.83-.1.77-.13,1.52-.33,2.29-.45.44-.07.89-.12,1.34-.16s.72,0,.92.48a13.24,13.24,0,0,1,.25,2.24h0A6.43,6.43,0,0,0,126.61,138.47Zm7.76-2.21a2.83,2.83,0,0,1-.17.65c-.14.25-.09.28-.42.32s-.83.05-1.25.1a13.68,13.68,0,0,0-2.11.36c-.35.09-.69.22-1,.33s-1.1.16-1.31.35a.1.1,0,0,0,0-.15,3.65,3.65,0,0,0-.25-2.52.25.25,0,0,0,.06-.29l-.12-.24c.34-.07.68-.2,1-.29l1.84-.53a6.06,6.06,0,0,1,3.39-.27.2.2,0,0,0,.11,0l.21.07a.19.19,0,0,0,.25-.1C134.43,134.79,134.52,135.54,134.37,136.26Zm-.21-10.62a85.06,85.06,0,0,0-6.67-5.62,26.13,26.13,0,0,0,3.18-.31c1.16-.14,2.27-.06,3.42-.09a.17.17,0,0,0,.13-.05,8.72,8.72,0,0,0,1.2,1.23c.55.52,1.11,1,1.69,1.52,1.13,1,2.31,1.88,3.53,2.75s2.67,1.79,3.94,2.79A39.6,39.6,0,0,1,148,131l0,0H148a5.91,5.91,0,0,0-1.61.23,8.16,8.16,0,0,1-1.83.38,9.51,9.51,0,0,0-2.72.45,1.39,1.39,0,0,0-.7,0Q137.71,128.8,134.16,125.64Zm6.63,10.17c-.62.05-1.25.13-1.87.24a41.63,41.63,0,0,1-4.22.88h0s0-.09,0-.15a5.1,5.1,0,0,0,.16-2.76.16.16,0,0,0-.27-.07s0-.06,0-.08a22.76,22.76,0,0,0,4.89-1c.44-.09.88-.18,1.33-.25.06,0,.36-.09.56-.11a.17.17,0,0,0,.2,0c.1.12,0,.35,0,.49a10,10,0,0,0,.17,2.25.19.19,0,0,0-.06.16.3.3,0,0,0,.09.22A9.92,9.92,0,0,0,140.79,135.81Zm7.45-1.16a4.85,4.85,0,0,0-2.52.29,12.07,12.07,0,0,1-3.38.55,8.58,8.58,0,0,1-.24-1.75,5.16,5.16,0,0,0,0-1.3l0,0a18.54,18.54,0,0,1,3.16-.36,10.54,10.54,0,0,0,1.47-.37c.41-.11.91,0,1.27-.22a6.89,6.89,0,0,0,.2,3.08s0,.07.07.08,0,0,0,0Zm6.56-1.58c-.72.14-1.45.27-2.17.42a38.57,38.57,0,0,0-4.11.89c0-.51-.11-1-.14-1.53s0-1.08,0-1.62c0-.06,0-.13-.09-.17a.21.21,0,0,0,.09-.22,14.29,14.29,0,0,0,4.36-.44c.36-.07.71-.12,1.06-.17a2.65,2.65,0,0,1,.87-.12c.21.06.19.13.23.38A10.62,10.62,0,0,1,154.8,133.07Zm7.32-2.23c0,.35,0,.77-.3,1a3.85,3.85,0,0,1-1.15.2l-4,.7-1.35.25a9.19,9.19,0,0,0,0-2.77,1,1,0,0,0-.13-.39h0l0-.08v0a6.9,6.9,0,0,0,2.85-.43,13.4,13.4,0,0,1,4-.33s0,0,0,0,.09,0,.1,0h0A10.62,10.62,0,0,1,162.12,130.84Zm-.84-24.17a13.16,13.16,0,0,1-1.21-1c1.17-.27,2.26-1,3.49-.84,1.47.17,2.79,1.52,4,2.31s2.64,1.66,4,2.39a16.24,16.24,0,0,1,3.86,2.41l-5.46.25a.2.2,0,0,0,.08-.34C167.39,109.64,164.07,108.6,161.28,106.67Zm14.28,5.68.09,0c0,.8,0,1.6,0,2.4-1.84.12-3.67.31-5.49.54,0-.45-.12-.9-.18-1.33s-.13-.88-.23-1.31Zm-19,2.6a.71.71,0,0,1,.17-.37.94.94,0,0,0,.35-.2c.13,0,.28-.08.45-.13l1.34-.35c1-.23,2-.41,2.95-.56a.36.36,0,0,0,.3,0c.78-.11,1.56-.21,2.35-.29,1.66-.16,3.32-.27,5-.36,0,.44.08.89.14,1.33a11.5,11.5,0,0,0,.18,1.33l-4.12.57-2.78.4v0c-.06-.52-.1-1-.16-1.56a1.7,1.7,0,0,0-.28-1,0,0,0,0,0-.08,0,1.92,1.92,0,0,0,0,1.09c0,.45.08.89.09,1.34a.17.17,0,0,0,0,.17s0,0,0,0l-2.14.29c-.85.11-1.71.22-2.56.31l-1.29.13-.22,0C156.41,116.39,156.42,115.67,156.56,115Zm12.16,15.45a.19.19,0,0,0-.05.3h0c-.36.05-.71.16-1.09.18a4.9,4.9,0,0,0-1.35.31c-.51.19-1,.45-1.53.6a4.23,4.23,0,0,1-2.12,0,.13.13,0,0,0-.12,0,11.41,11.41,0,0,0,.15-3v0c.55-.05,1.42,0,1.59,0a6.78,6.78,0,0,0,1.92-.64c.54-.26,1.84-.8,2.37-.31.28.27.22,1,.24,1.42S168.73,130,168.72,130.4Zm6.25-.81a21.42,21.42,0,0,1-3.56.64,4.74,4.74,0,0,0-2.29.54.31.31,0,0,0,0-.12,10.26,10.26,0,0,0,0-1.92,2.31,2.31,0,0,0-.29-1.25.71.71,0,0,0-.14-.1.17.17,0,0,0,0-.07h.09s0,0,0,0c-.05-.24,5.14-.85,6.33-1,.13.91.18,1.8.22,2.71a.18.18,0,0,0,0,.22l.1.23h0Zm6.48-1.36a29,29,0,0,0-5.59,1.13h0a16.76,16.76,0,0,0-.24-3.16,7.77,7.77,0,0,0,1,0c.59,0,1.18-.08,1.76-.15a24.35,24.35,0,0,1,3.3-.19C181.62,126.64,181.58,127.43,181.45,128.23Zm6-4.8a6.82,6.82,0,0,0-1.8.15c-.63.18-1.18.54-1.83.68s-1.17.13-1.72.3c-.36.1-.81.6-.25.77h-.05l-.12,0h0a19.8,19.8,0,0,0-3.84.27c-.63.07-1.27.12-1.91.14a2.53,2.53,0,0,0-.61,0,.12.12,0,0,0,0-.13,11.3,11.3,0,0,0-2.69-2.31c-1.08-.78-2.2-1.5-3.34-2.19s-2.36-1.4-3.55-2.09l-1.78-1a6.64,6.64,0,0,0-1.84-.93s0,0,0,0a6,6,0,0,0,1.59,1.08l1.88,1.13c1.1.66,2.21,1.31,3.3,2s2.11,1.33,3.12,2.06q.84.6,1.65,1.26a16.15,16.15,0,0,0,1.42,1.18,37.74,37.74,0,0,0-6.44,1,.16.16,0,0,0-.11.1,5.83,5.83,0,0,0-2.3-1.38,25.41,25.41,0,0,1-3.91-2.62q-2-1.45-3.84-3-.88-.7-1.74-1.44a12.54,12.54,0,0,0-1.61-1.3.09.09,0,0,1,0,0l.35.25a.18.18,0,0,0,.24,0,11.15,11.15,0,0,0,2.63-.2c1.87-.2,3.74-.44,5.61-.7,1.57-.22,3.14-.45,4.72-.66a0,0,0,0,0,0,0,42.84,42.84,0,0,0,6.25,4.88c1.11.75,2.25,1.47,3.41,2.14.52.31,1.06.6,1.57.92a8.53,8.53,0,0,1,1.41,1.27.15.15,0,0,0,.25-.14c-.3-.93-1.43-1.48-2.22-1.92-1.24-.71-2.47-1.44-3.67-2.22-2.39-1.54-4.58-3.31-6.86-5,2.2-.29,4.4-.54,6.62-.7a.06.06,0,0,0,0,.07,31.12,31.12,0,0,0,6.2,4.43c1.11.65,2.24,1.25,3.39,1.81.49.24,1,.48,1.46.75a8.18,8.18,0,0,1,.79.51,3.8,3.8,0,0,1,.49.41.78.78,0,0,0,.35.25A6.8,6.8,0,0,0,187.44,123.43Zm6.21,2.38a14.41,14.41,0,0,0-3,.51c-.49.14-1,.35-1.46.5l-.35.08a.08.08,0,0,0,0,0,12,12,0,0,0-.06-2.16c0-.14,0-.32,0-.5a14.55,14.55,0,0,1,3.17-.91,3.61,3.61,0,0,1,1-.12c.41.07.52.41.6.77A5.35,5.35,0,0,1,193.65,125.81Z"/>
        <path class="cls-3" d="M58,146.71a74.49,74.49,0,0,0-2.59-7.77c-.94-2.56-1.94-5.1-2.94-7.64-1.93-4.91-3.82-9.83-6-14.63-.63-1.39-1.27-2.78-1.94-4.15,0,0-.74-1.64-.86-.93a.07.07,0,0,0,0,0l.06,0s.1,0,.07-.06a17.6,17.6,0,0,1,1.57,3.2q.75,1.62,1.47,3.27c1,2.34,2,4.72,3,7.1,1.78,4.5,3.57,9,5.26,13.54,1,2.65,1.81,5.36,2.77,8A.08.08,0,0,0,58,146.71Z"/>
        <path class="cls-3" d="M57.33,146.4c-.28.27-.78.17-1.13.21s-.75.21-1.13.3a22.83,22.83,0,0,1-2.59.3s0,0,0,.06a5.87,5.87,0,0,0,3.13-.24c.46-.13,1-.05,1.43-.2a.49.49,0,0,0,.39-.38A.06.06,0,0,0,57.33,146.4Z"/>
        <path class="cls-3" d="M59.44,153.8c-.42-2.3-.85-4.6-1.41-6.87,0-.08-.12-.05-.11,0,.36,2.26.81,4.51,1.21,6.77s.68,4.55,1.24,6.76c0,.06.14,0,.13,0A62.54,62.54,0,0,0,59.44,153.8Z"/>
        <path class="cls-3" d="M203.67,117.71a5.28,5.28,0,0,0-2,0,10.52,10.52,0,0,0-1.08.25c-.21.06-.42.15-.64.2a1.21,1.21,0,0,1-.38.06.54.54,0,0,1-.55-.13s0,0,0,0l-.08,0,0,0s0,.05,0,.07a1.36,1.36,0,0,0,0-.17s0,0,0,0a28.64,28.64,0,0,0,.15,4c0,1.29,0,2.59,0,3.89s-.1,2.59-.2,3.88-.33,2.67-.41,4a.1.1,0,0,0,.2,0,44.69,44.69,0,0,0,.62-7.92c0-1.35,0-2.69,0-4a19,19,0,0,0-.24-3.6c.13.21.63.14.83.11.58-.08,1.14-.32,1.71-.43a20.1,20.1,0,0,1,2.18-.14C203.72,117.83,203.75,117.72,203.67,117.71Z"/>
        <path class="cls-3" d="M198,117.8a88.44,88.44,0,0,0-10.12-6.28c-1.69-.91-3.42-1.75-5.11-2.68s-3.18-2.07-4.76-3.14h0c2.63,2.7,6.38,4.18,9.63,6,3.54,1.93,6.89,4.12,10.24,6.36C198,118.13,198.1,117.9,198,117.8Z"/>
        <path class="cls-2" d="M188.56,156.9a.9.9,0,0,0-.86-.66A45.74,45.74,0,0,1,180,156a76.74,76.74,0,0,0-7.73-.21c-4.93.05-9.87-1.1-14.78-1.54-10-.89-20-1.1-30-2.22-1.22-4.17-7.59-3.66-7.83.82a3.48,3.48,0,0,0,3.53,3.63,10.59,10.59,0,0,0,3.74-.88,12.55,12.55,0,0,1,4.87-.53c6.54.36,13,2.12,19.55,1.75a40.82,40.82,0,0,1,9.29.49c3.12.49,6.83.67,10,1.06a82.34,82.34,0,0,0,11.1.5,29.23,29.23,0,0,0,5.38-.16C188.15,158.47,188.7,157.9,188.56,156.9Z"/>
        <path class="cls-2" d="M202.44,155.15a.69.69,0,0,0-.49-.65c-6.52-1.44-13.16-2.36-19.79-3.15-3.44-.42-7-.6-10.38-1.21-2.83-.5-5.43-2.09-8.34-2a17.45,17.45,0,0,1-5-.16,24,24,0,0,0-4.59-.8c-1.42-.06-2.85.06-4.27,0a15.11,15.11,0,0,1-5.23-1.41,10.58,10.58,0,0,1-2-1c-.59-.44-.91-1.07-1.45-1.56a4.29,4.29,0,0,0-2.4-1.05,4,4,0,1,0,2.57,6h0q15,2,30.06,4c10.23,1.35,20.53,2.57,30.63,4.7a.66.66,0,0,0,.82-.62C202.51,155.88,202.48,155.51,202.44,155.15Z"/>
      </g>
    </g>
  </g>
</svg>
