<svg xmlns="http://www.w3.org/2000/svg" viewBox="0 0 236.46 245.2">
  <defs>
    <style>
      .cls-1 {
        fill: #5b4069;
      }

      .cls-2 {
        fill: #312537;
      }
    </style>
  </defs>
  <title>Ресурс 4other</title>
  <g id="Слой_2" data-name="Слой 2">
    <g id="Слой_33" data-name="Слой 33">
      <path class="cls-1" d="M191.65,30.34C187,19.14,177.54,15.66,167.19,11,155.12,5.61,143.3-.58,129.68,0,103,1.27,77.75,15.15,54.06,26.21c-11.31,5.28-21,10.42-28.58,20.7S13.42,70.3,9.54,82.38c-8,24.94-13.2,52.72-6.4,78.52a108.18,108.18,0,0,0,41.41,60.48,131.45,131.45,0,0,0,70,23.74,119,119,0,0,0,40.63-5.55c12.62-4.07,23.47-11.34,34.18-19,9.71-6.91,19.09-13.69,26.26-23.36,7.73-10.43,11.86-23.29,14.75-35.82,3.65-15.85,5.15-31.85,5.93-48.06.68-14.24-.45-28.09-5.63-41.5a129.25,129.25,0,0,0-20.94-35.12c-4.18-5.12-8.54-10.42-13.61-14.7s-9.87-6.21-16.1-7.77c-7.41-1.86-10.33,7.39-4.88,11.56,3.23,2.47,6.72,4.76,9.8,7.39,4.25,3.61,7.81,8.29,11.29,12.62a131.94,131.94,0,0,1,16.39,25.4c10.13,21.17,7.21,43.57,5.58,66.21-1.6,22.28-6,46.33-23.37,61.84a194.18,194.18,0,0,1-27.9,20.16c-9.91,6-21.22,9.23-32.68,10.69C90.93,235.69,42.71,214,23.39,174c-10.37-21.5-11.3-44.18-6.77-67.27A209.35,209.35,0,0,1,26.54,72.1C30.42,62,34.91,51.64,43.46,44.56c4.74-3.93,10.51-6.47,16-9,6.81-3.16,13.64-6.27,20.43-9.45,11.84-5.53,24.28-10.72,37.36-12.19,13.43-1.52,24.75,1.52,37,6.77,9.4,4,22.19,6.68,29.4,14.32,3.07,3.25,9.84-.12,8-4.64Z"/>
    </g>
    <g id="Слой_162" data-name="Слой 162">
      <path class="cls-2" d="M74.12,155.28c-.44-5.42-.91-10.85-1.43-16.26-.81-8.31-1.32-16.88-2.66-25.19,0,0,0-.09.07-.15,1.36-6.72-6-11.56-12.12-10.26-7.65,1.61-12.12,10.1-11.1,17.47.83,6,5.83,12.91,12.71,11.76,3.83-.64,5.94-3.34,7.16-6.81.55,7.61,1.36,15.23,1.86,22.74.34,5,2.55,14.75-1.7,18.64-6.7,6.14-13.48-3.07-13.68-9.28-.14-3.91-6.31-3.88-6.06,0,.43,6.69,3.71,13.54,10.49,15.77,6.22,2,13.19-.66,15.65-6.85C74.77,163.18,74.43,159.14,74.12,155.28ZM62.9,125c-4.11,5.71-10.15,2.4-11.6-3.42a12.32,12.32,0,0,1,3.27-11.64c4-3.82,9-3,11.61.9q0,3.1.08,6.22A20.75,20.75,0,0,1,62.9,125Z"/>
      <path class="cls-2" d="M93.56,127c3.91-3.77,5.42-9,2.27-13.76-2.73-4.13-8.38-8.29-13.58-6.81a6.91,6.91,0,0,0-3.84,3,1.09,1.09,0,0,0-1.69,1c.51,20.25,8.16,39.86,10.47,59.87a2.11,2.11,0,0,0,.08,1l.09.27a2.75,2.75,0,0,0,3.34,1.9l.32-.11a3,3,0,0,0,2.1-2.1c.65-4-1.51-8.71-2.39-12.64-1.22-5.41-2.38-10.84-3.55-16.27-.8-3.68-1.53-7.43-2.31-11.16C87.94,131.46,91.24,129.21,93.56,127Zm-10.24-2.87c-.82-3.44-1.74-6.86-2.87-10.2,2.31-5.76,9.14-1.9,11.46,2.29,1.24,2.25.48,4.52-1.14,6.32-.31.34-4.66,3.24-4.56,3.7A2.52,2.52,0,0,0,83.32,124.09Z"/>
      <path class="cls-2" d="M121.66,109.36c-.13-3.23-5-3.26-5,0,0,3.46-.42,13.27-5.77,8.06-2.9-2.83-4.36-6.58-5.16-10.48a1.26,1.26,0,0,0-2.41,0c-1.06,6.44,2,14.69,8.5,17.31,3.32,1.34,5.56.13,7-2.14,1.65,6.09,3.93,12,6,18.13,1.74,5.25,3.19,10.69,3.06,16.26-.11,4.59-2.86,4.54-6.77,3.95s-6.84-1.83-7.77-6c-.74-3.31-6.08-2.61-5.94.81.27,7.11,7,10.44,13.3,11.2,7.15.87,12.53-.32,13.06-8.4C134.9,140.77,122.38,126.3,121.66,109.36Z"/>
      <path class="cls-2" d="M151.71,104.69a4.36,4.36,0,0,1-.75-2.11,2.29,2.29,0,0,0-2.26-2.25c-5,.38-10.64.92-15.11,3.46a1.8,1.8,0,0,0,0,3.06l.11.07a.74.74,0,0,0-.28.47c-.44,2.82.39,5.85,1.1,8.58s1.31,6.43,3.52,8.4a2,2,0,0,0,3.44-1.42c.19-2.93-1.86-6-2.95-8.68-1-2.44-1.81-5.14-3.43-7.24l.06,0a15.46,15.46,0,0,1,3.08-.66c1.09-.26,2.17-.54,3.27-.75a40,40,0,0,1,5.09-.65,6,6,0,0,0,.94,2.19C149.27,109.69,153.2,107.45,151.71,104.69Z"/>
      <path class="cls-2" d="M165.66,100.58c-4.52-2-12.22,1-9.87,6.48-.38,3.81,1.68,8.88,3.22,11.16s3.54,4.46,6.43,4.11c3.2-.39,4.65-3.89,5.47-6.64C172.6,110,171.53,103.24,165.66,100.58Zm0,13.66c-.52,1.72-.67,3.11-2,1.44a17.28,17.28,0,0,1-3.2-6.89c-.16-.73-.23-1.48-.32-2.22.46-2.25,3.36-1.58,4.64-.33a5.12,5.12,0,0,1,1.4,3.23A11.53,11.53,0,0,1,165.66,114.24Z"/>
      <path class="cls-2" d="M193.29,118.75c-2.12-.8-3.19-.5-5.47,0a60.45,60.45,0,0,1-5.94,1.51c-.45-1.69-.76-3.41-1-5.14a18.37,18.37,0,0,0,6.27-.24c2.26-.56,2.43-4.29,0-4.74a19.67,19.67,0,0,0-7.11.22,25.32,25.32,0,0,0-2.39-7.1c3.62.67,7.92,0,11.16-.63,2.76-.53,2.17-5.18-.67-5-2.5.21-5,.62-7.47.84a15.61,15.61,0,0,0-6.19,1.34,1.36,1.36,0,0,0,0,2.33l.33.15c-.25,3.65.49,7.36,1,11,.38,2.92-.19,8.47,1.56,11,1.53,2.19,4,1.62,6.27,1.22,3.67-.65,7.83-.66,10.63-3.3A2.08,2.08,0,0,0,193.29,118.75Z"/>
    </g>
  </g>
</svg>
