<svg xmlns="http://www.w3.org/2000/svg" viewBox="0 0 235.14 238.72">
  <defs>
    <style>
      .cls-1 {
        fill: #5b4069;
      }

      .cls-2 {
        fill: #a78ab6;
      }

      .cls-3 {
        fill: #9261a8;
      }

      .cls-4 {
        fill: #312637;
      }
    </style>
  </defs>
  <title>Ресурс 2piano</title>
  <g id="Слой_2" data-name="Слой 2">
    <g id="Слой_39" data-name="Слой 39">
      <g id="Слой_33" data-name="Слой 33">
        <path class="cls-1" d="M102.8,6.32C77.2,4.42,56.7,20.52,38.1,36c-9.3,7.8-18.3,15.9-23.4,27.1s-8.4,23.7-11,35.8C.8,112.32-.8,126.22.4,140a96.67,96.67,0,0,0,10,34c10.5,21.3,28.4,36,49.1,46.9,20.2,10.6,43.5,17.9,66.4,17.8,11,0,22.2-1.7,32.4-5.9,10.8-4.4,19.5-11.5,28.9-18.2a93.52,93.52,0,0,0,25-26.3c6.8-10.9,10.2-23.9,14.2-36.1,8-24.6,13.9-52.3,2-76.7-6-12.3-16.2-22.2-24.5-32.9-8.9-11.5-18.6-21.6-31.4-28.9-13.4-7.6-27.6-10.9-42.9-11.9-8.1-.5-16.3-.7-24.4-1.5-7.2-.7-14-.5-20.4,3.3-5.5,3.2-.7,10.8,4.9,8.3,5.4-2.4,11.7-.7,17.4-.1,6.9.8,13.8,1,20.7,1.6,12,1,23.2,3.1,33.9,8.9,20.7,11.1,32,30.8,46.7,48.2,15.3,18.1,14.5,41.3,8.9,63.2-3,12-7.4,23.6-11.1,35.3-3.4,10.7-7.9,17.8-15,26.6a94.84,94.84,0,0,1-26,22c-8.6,5.2-18,9.1-28,10-20.7,1.9-40.5-2-59.5-9.8s-36.9-18.4-50.9-33.7c-7.5-8.3-13.6-17.9-16.9-28.7-3.6-11.8-4-24.3-2.8-36.5,1.3-14.1,5.2-27.4,8.3-41.1,1.4-6.1,2.8-12.4,5.7-18.1s7.5-10.2,12.5-14.2c19.9-15.8,43-32.5,69-35.2a2,2,0,1,0,.2-4Z"/>
      </g>
      <g id="Слой_39-2" data-name="Слой 39">
        <g id="Слой_40" data-name="Слой 40">
          <g>
            <path class="cls-2" d="M178.9,137.42c-.2-3.3-.6-6.7-.6-10s.2-6.6.5-9.9a197.08,197.08,0,0,0,1-20.3c-.1-3.7-.3-7.5-.7-11.2a117.36,117.36,0,0,0-1.6-11.7,1.85,1.85,0,0,0-2.3-1.3c-3.1.9-6.2,1.4-9.3,2.1-1.4.3-8,2.4-7.7-.6a1.16,1.16,0,0,0-1.2-1.2c-1.7,0-3.3,0-5,.1a14.65,14.65,0,0,0-4.2.2,2.23,2.23,0,0,0-1.8,1.8,42.55,42.55,0,0,1-10.1-.3A3.13,3.13,0,0,0,135,74a5.66,5.66,0,0,0-3.6-.6,9.75,9.75,0,0,0-5.6,1.7,7.74,7.74,0,0,0-10.6.3,16.31,16.31,0,0,0-7.9.4c-.4.1-1.2.5-1.6.4s-.4-.8-.7-1.2a3.21,3.21,0,0,0-2.6-1.5,11.19,11.19,0,0,0-3.6.5l-4.7,1.2c-1,.2-9.1,2.9-8.6.4a1.45,1.45,0,0,0-1-1.7c-2.6-.7-5.5-1.4-8.2-.4a6.4,6.4,0,0,0-3.8,3.4,15.47,15.47,0,0,1-6.8-3,3.86,3.86,0,0,0-1.7-1.1,10.5,10.5,0,0,0-2.4.3c-1.8.2-3.5.5-5.3.7a.76.76,0,0,0-.5.2,1.44,1.44,0,0,0-1.2,1.5c-.4,6.6-.8,13.2-.9,19.9s-.1,13.4-.1,20.2c0,13.3.1,26.7.4,40,.1,7.5.4,15,.7,22.4a2.26,2.26,0,0,0,2.3,2.3H68a7,7,0,0,0,3.1-.7,9.81,9.81,0,0,0,6,1.3c2.4-.2,4.8-.5,7.1-.7l3.5-.3a3.58,3.58,0,0,0,1.1-.4c3.9,2.7,10.3,1.3,14.6.8a7.58,7.58,0,0,1,2.6-.1,18.29,18.29,0,0,1,2.5.6,31.87,31.87,0,0,0,5.3.6,40.21,40.21,0,0,0,9.8-.9c2.9,1.9,6.4,1,9.9.6,3.1-.4,6.6.9,9.4-.7a33.74,33.74,0,0,0,16.1-.3,2,2,0,0,0,.8-.4,24,24,0,0,0,16.7.1,1.8,1.8,0,0,0,1.3-1.7c.1-3.4.3-6.8.4-10.1s.5-6.8.7-10.1c.2-3.5.4-6.9.3-10.4A67.79,67.79,0,0,0,178.9,137.42Z"/>
            <path class="cls-3" d="M69.5,176.12v-.2c0,.1-.1.1,0,.2Z"/>
          </g>
        </g>
        <g id="Слой_41" data-name="Слой 41">
          <path class="cls-1" d="M72.2,146.32c-.7,1.9,0,4.5,0,6.5,0,3,0,6-.2,9.1-.4,5.5-1.4,11.4.1,16.8a.56.56,0,0,0,1.1-.2c.1-2.6-.6-5.3-.5-7.9.1-2.9.4-5.8.6-8.7s.2-5.7.2-8.6c0-2.2-.9-4.7-.7-6.9.1-.4-.5-.5-.6-.1Z"/>
          <path class="cls-1" d="M89.7,146.42a97.42,97.42,0,0,1,.3,16.2c-.4,5.5.1,10.9-.1,16.4a.45.45,0,0,0,.9,0c.3-5.6-.2-11.3.2-16.9a59.87,59.87,0,0,0-.7-15.8.32.32,0,0,0-.6.1Z"/>
          <path class="cls-1" d="M107.8,146.22a74.07,74.07,0,0,1-.3,16.3,93.1,93.1,0,0,0-.1,16.7c0,.6.9.6,1,0,.1-5.8-.4-11.4.1-17.1.5-5.1,1.4-10.9-.5-15.9,0-.2-.3-.2-.2,0Z"/>
          <path class="cls-1" d="M125.3,76.52c-.4,4.5-.2,9.1-.3,13.6s-.3,9.1-.4,13.7c-.3,8.8-.4,17.7-.2,26.5s1,17.5.9,26.2c0,4.2-.4,8.5-.8,12.7-.3,3.2-.8,6.6.3,9.7.2.6,1.2.3,1-.3-1.3-3.5-.5-7.4-.2-11,.4-4.3.7-8.6.7-13-.1-8.6-.8-17.2-1-25.8s-.1-17.4.2-26.1c.1-4.6.3-9.1.3-13.7,0-4.2.3-8.5-.5-12.6.1,0,0,0,0,.1Z"/>
          <path class="cls-1" d="M143.2,146.52c-.6,5.5-.2,11.2-.3,16.7v16a.5.5,0,0,0,1,0v-16c0-5.5.3-11.2-.3-16.7a.2.2,0,1,0-.4,0Z"/>
          <path class="cls-1" d="M160.2,146.32c-.7,1.6-.5,3.5-.4,5.2.2,3,.1,6.1.1,9.1,0,6.3.5,12.6.5,18.8a.45.45,0,0,0,.9,0c0-5.8-.5-11.6-.5-17.4,0-2.9.1-5.8,0-8.7-.1-2.3-.6-4.6-.1-6.9,0-.1-.4-.3-.5-.1Z"/>
        </g>
        <g id="Слой_42" data-name="Слой 42">
          <path class="cls-4" d="M75.8,144.52c-.8-4.3-.5-8.8-.6-13.1v-13.3c0-8.9.1-17.9.1-26.8,0-5.1.2-10.2.3-15.3a1.81,1.81,0,0,0-2.3-1.7,15.61,15.61,0,0,1-6.8.1c-2.3-.6-3.1,2.5-1.5,3.5-.5,8.4-.5,16.7-.5,25.1,0,8.7-.1,17.5-.3,26.2-.1,5-.3,10-.5,15a1.9,1.9,0,0,0,1.9,1.9,49.07,49.07,0,0,1,7.7.9A2.15,2.15,0,0,0,75.8,144.52Z"/>
          <path class="cls-4" d="M96.1,143.62a120.61,120.61,0,0,1-.9-13.4c-.2-4.4-.3-8.8-.4-13.2-.2-8.9-.2-17.8,0-26.6.1-5.1.3-10.1.5-15.2a1.69,1.69,0,0,0-1.7-1.7c-2.6.1-5.3.2-7.9.4a1.78,1.78,0,0,0-1.4,2.7c-.2,4.1-.1,8.2-.1,12.2,0,4.5,0,9-.1,13.5-.1,9,0,18,.1,27,.1,5.1.2,10.2.2,15.3a1.92,1.92,0,0,0,2.4,1.8,47.15,47.15,0,0,1,7.5-.4A1.92,1.92,0,0,0,96.1,143.62Z"/>
          <path class="cls-4" d="M114.2,118.62c-.1-9.3,1.3-18.6,1.3-27.9,0-5.3-.1-10.6-.3-15.8a1.29,1.29,0,0,0-.9-1.2,11.8,11.8,0,0,0-9.2.8.58.58,0,0,0-.9.4c-1.2,4.3-1.1,8.9-1.1,13.4s.2,9.3.5,13.9c.6,9.1,1.4,18.2,1.8,27.4.2,5.2.2,10.5-.1,15.7a1.74,1.74,0,0,0,1.1,1.5,33.09,33.09,0,0,0,7.7.9,1.54,1.54,0,0,0,1.5-1.5C116.5,136.82,114.3,127.82,114.2,118.62Z"/>
          <path class="cls-4" d="M145.9,117.72c-.1-4.6-.1-9.2.1-13.8s.8-9.2,1.1-13.8a90.5,90.5,0,0,0-.6-15.6c-.1-.7-.6-1.5-1.4-1.4-2.9.2-5.8.4-8.7.5-1.5,0-1.8,1.9-1,2.7-1.5,10.1-.7,20.5-.2,30.6a304.6,304.6,0,0,1-.3,33.1c-.1,2-1.1,5.6,1.7,6.1a32.53,32.53,0,0,0,4.4.3l4.7.3a1.64,1.64,0,0,0,1.6-1.6C146.9,136,146.1,126.92,145.9,117.72Z"/>
          <path class="cls-4" d="M169.6,79.22a18.4,18.4,0,0,0-.4-4.1,2.58,2.58,0,0,0-2.5-1.7,23.16,23.16,0,0,0-8.7.6c-1.2.3-1.3,1.5-.9,2.4-.5,4.2-.2,8.7-.2,12.9,0,4.5-.2,9.1.1,13.6s1.2,8.9,1.2,13.4-.4,9.1-.8,13.6a86.87,86.87,0,0,0-.1,15.3,1.54,1.54,0,0,0,1.5,1.5,36.4,36.4,0,0,1,8.1.5,1.67,1.67,0,0,0,2.1-1.6c.8-11.1-.6-22.2-.6-33.3S170.1,90.22,169.6,79.22Z"/>
        </g>
      </g>
    </g>
  </g>
</svg>
