<?xml version="1.0" encoding="utf-8"?>
<!-- Generator: Adobe Illustrator 21.1.0, SVG Export Plug-In . SVG Version: 6.00 Build 0)  -->
<svg version="1.1" id="Слой_1" xmlns="http://www.w3.org/2000/svg" xmlns:xlink="http://www.w3.org/1999/xlink" x="0px" y="0px"
	 viewBox="0 0 235.2 233.4" style="enable-background:new 0 0 235.2 233.4;" xml:space="preserve">
<style type="text/css">
	.st0{display:none;}
	.st1{display:inline;}
	.st2{fill:#DEDEDE;}
	.st3{fill:#5B4069;}
	.st4{fill:#9261A8;}
	.st5{fill:#312537;}
</style>
<g id="Слой_1_1_">
</g>
<g id="Слой_116" class="st0">
</g>
<g id="Слой_27__x28_копия_x29_">
	<g id="Слой_28__x28_копия_x29_">
	</g>
	<g id="Слой_30__x28_копия_x29_">
	</g>
	<g id="Слой_29__x28_копия_x29_">
	</g>
	<g id="Слой_109">
	</g>
	<g id="Слой_32__x28_копия_x29_">
	</g>
	<g id="Слой_31__x28_копия_x29_">
	</g>
</g>
<g id="Слой_16">
</g>
<g id="Слой_34__x28_копия_x29_">
	<g id="Слой_35__x28_копия_x29_">
	</g>
	<g id="Слой_36__x28_копия_x29_">
	</g>
	<g id="Слой_37__x28_копия_x29_">
	</g>
	<g id="Слой_38__x28_копия_x29_">
	</g>
	<g id="Слой_115">
	</g>
</g>
<g id="Слой_17">
</g>
<g id="Слой_9">
	<g id="Слой_10">
	</g>
	<g id="Слой_11">
	</g>
</g>
<g id="Слой_9__x28_копия_x29_">
	<g id="Слой_10__x28_копия_x29_">
	</g>
	<g id="Слой_11__x28_копия_x29_">
	</g>
</g>
<g id="Слой_2">
	<g id="Слой_3">
	</g>
	<g id="Слой_5">
	</g>
	<g id="Слой_4">
	</g>
	<g id="Слой_6">
	</g>
	<g id="Слой_7">
	</g>
</g>
<g id="Слой_8">
</g>
<g id="Слой_93__x28_копия_x29_">
	<g id="Слой_91__x28_копия_x29_">
	</g>
	<g id="Слой_94__x28_копия_x29_">
	</g>
	<g id="Слой_95__x28_копия_x29_">
	</g>
	<g id="Слой_102">
	</g>
</g>
<g id="Слой_12">
</g>
<g id="Слой_33">
</g>
<g id="Слой_18" class="st0">
	<g id="Слой_19" class="st1">
	</g>
	<g id="Слой_20" class="st1">
	</g>
	<g id="Слой_23" class="st1">
	</g>
	<g id="Слой_25" class="st1">
	</g>
	<g id="Слой_24" class="st1">
	</g>
	<g id="Слой_21" class="st1">
	</g>
	<g id="Слой_22" class="st1">
	</g>
	<g id="Слой_26" class="st1">
	</g>
</g>
<g id="Слой_27">
	<g id="Слой_28">
	</g>
	<g id="Слой_30">
	</g>
	<g id="Слой_29">
	</g>
	<g id="Слой_32">
	</g>
	<g id="Слой_31">
	</g>
</g>
<g id="Слой_34">
	<g id="Слой_35">
	</g>
	<g id="Слой_36">
	</g>
	<g id="Слой_37">
	</g>
	<g id="Слой_38">
	</g>
</g>
<g id="Слой_39">
	<g id="Слой_40">
	</g>
	<g id="Слой_41">
	</g>
	<g id="Слой_42">
	</g>
</g>
<g id="Слой_43">
	<g id="Слой_44">
	</g>
	<g id="Слой_45" class="st0">
	</g>
</g>
<g id="Слой_46">
	<g id="Слой_48">
	</g>
	<g id="Слой_47">
	</g>
	<g id="Слой_49">
	</g>
	<g id="Слой_50">
	</g>
	<g id="Слой_51">
	</g>
	<g id="Слой_52">
	</g>
	<g id="Слой_53">
	</g>
	<g id="Слой_54">
	</g>
	<g id="Слой_55">
	</g>
</g>
<g id="Слой_46__x28_копия_x29_">
	<g id="Слой_48__x28_копия_x29_">
	</g>
	<g id="Слой_47__x28_копия_x29_">
	</g>
	<g id="Слой_49__x28_копия_x29_">
	</g>
	<g id="Слой_50__x28_копия_x29_">
	</g>
	<g id="Слой_51__x28_копия_x29_">
	</g>
	<g id="Слой_52__x28_копия_x29_">
	</g>
	<g id="Слой_53__x28_копия_x29_">
	</g>
	<g id="Слой_55__x28_копия_x29_">
	</g>
	<g id="Слой_54__x28_копия_x29_">
	</g>
</g>
<g id="Слой_66">
	<g id="Слой_67">
	</g>
	<g id="Слой_68">
	</g>
	<g id="Слой_70">
	</g>
	<g id="Слой_69">
	</g>
</g>
<g id="Слой_72">
	<g id="Слой_75">
	</g>
	<g id="Слой_73">
	</g>
	<g id="Слой_74">
	</g>
	<g id="Слой_76">
	</g>
	<g id="Слой_77">
	</g>
	<g id="Слой_79">
	</g>
	<g id="Слой_78">
	</g>
</g>
<g id="Слой_89">
</g>
<g id="Слой_88">
	<g id="Слой_90">
	</g>
	<g id="Слой_92">
	</g>
</g>
<g id="Слой_93">
	<g id="Слой_12_10_">
		
			<ellipse transform="matrix(0.7071 -0.7071 0.7071 0.7071 -48.1648 116.7664)" class="st2" cx="116.9" cy="116.5" rx="112.2" ry="112.2"/>
	</g>
	<g id="Слой_33_10_">
		<g>
			<g>
				<path class="st3" d="M142.4,5.3C134-0.5,123,0,113.2,0.1c-12.9,0.1-26.4,1.1-38.8,5c-21.7,7-38.5,23.6-51.1,42.1
					c-7,10.2-12.9,19.2-15.4,31.5C5.2,91.4,0.7,104,0.1,117.1c-1,23,7.2,46.5,20.2,65.3c6.9,10,15.2,19.2,24.8,26.7
					s20.1,12.3,31.6,16.1c12.9,4.2,26.7,8.5,40.3,8.2c14.5-0.3,27.7-6.1,41.2-11c12.1-4.4,23.3-9,33.1-17.6
					c9-7.9,16.9-17.3,24.1-26.9c3.4-4.5,6.7-9.5,9.3-14.5c3-5.9,2.4-11.6,3-17.9c1.2-12.8,7.2-24.4,7.5-37.3
					c0.7-27.6-15.7-51.7-33.3-71.6C192.7,26.2,182,17.9,169,12.8c-6.9-2.7-14-4.5-21-6.8c-6.8-2.2-13.1-4.8-20.3-4.9
					c-6-0.1-6,9.1,0,9.3c5.7,0.2,10.7,2.5,16.1,4.5c5.3,1.9,10.8,3.5,16.1,5.4c11.4,4,20.8,10,29,18.9
					c14.2,15.2,27.8,34.9,32.8,55.4c2.6,10.8,1.6,21.4-0.5,32.2c-1,5.1-2,10.2-2.3,15.4c-0.3,6.3,1.8,12.7-0.4,18.8
					c-3.5,10.1-14.2,16.9-21.9,23.6c-8.4,7.2-15.6,15.7-25.9,20.3c-11.3,5.1-23.5,8.5-35.2,12.4c-12,4-24.6,4.8-37.1,2.9
					c-11.4-1.7-24.2-4.7-34.5-9.8c-9.7-4.7-18.2-11.8-25.5-19.6C23.8,175.2,13.7,156,10,134.9c-2-11.5-1.3-22.4,1.3-33.7
					c1.3-5.8,2.9-11.5,4.2-17.2c1.3-6,2.1-11.8,4.9-17.3c5.1-10.3,12.2-20.8,19.7-29.5C47.8,28.3,57.4,21.1,68,16
					c11.9-5.7,25.4-7.4,38.4-7.9c10-0.4,23.7-2,32.6,3.2C142.8,13.2,145.9,7.7,142.4,5.3L142.4,5.3z"/>
			</g>
		</g>
	</g>
	<g id="Слой_93_1_">
		<g id="Слой_94_1_">
			<path class="st4" d="M151.6,124.4c-0.4-1.8-2.7-1.6-4.1-2c-2.6-0.7-4.7-2.4-6.2-4.5c-3-4.4-4-10.2-5.1-15.3
				c-2.1-10.2-2.9-20.7-4.5-31c0.1-0.1,0.2-0.3,0.2-0.5c-0.4-5-1.2-9.9-1.8-14.9c-0.7-5.1-1.3-10.1-2-15.2c-0.2-1.4-0.3-2.9-0.6-4.3
				c0.4-0.5,0.4-1.5,0.2-2.2c-0.8-2.6-1.6-5.4-2.7-8c-0.8-1.7-1.9-3.4-3.7-4.2c-2.3-1-5.5-0.7-7.8,0.1c-4.1,1.3-7.3,6.1-6,10.4
				c-0.7,1-1.3,2.1-1.6,3.3c-0.9,4.3,0,9.1,0.6,13.4c0.7,4.8,1.2,9.5,0.6,14.4c-0.4,4-1.4,8.8,0.2,12.7c0.6,1.5,1.8,2.6,3.5,2.8
				c2.4,0.3,5.1-0.3,7.5-0.5c2.7-0.3,7.2-0.4,8.7-3c0,0.1,0,0.2,0,0.2c0.1,2.7,0.3,5.4,0.4,8.1c0.4,5.4,2.3,10.6,2.8,16
				c0.5,5.3,0.3,11-1.5,16.1c-0.8,2.3-2,4.5-3.6,6.4c-1.5,1.8-3.4,2.8-5.3,4.2c-0.1,0-0.2,0-0.3,0c-0.9-0.1-0.9,1.3,0,1.4
				c2.7,0.2,5.3-0.3,7.9-0.7c2.8-0.4,5.4-0.3,8.2-0.1c2.5,0.1,4.8-0.1,7.2-0.8c2.6-0.7,5.2-1.6,8-1.4
				C151.4,125.4,151.7,124.8,151.6,124.4z M110.6,29.2c0.8-3.1,4.2-4.3,7.1-4c1.5,0.1,3.1,0.5,4.2,1.6c0.9,1,1.4,2.3,1.7,3.6
				c-0.1-0.1-0.2-0.1-0.2-0.2c-2.9-2.6-6.4-3.3-10-1.8c-1,0.4-2,0.9-2.9,1.6C110.5,29.8,110.5,29.5,110.6,29.2z M108.4,41
				c-0.2-3.4,1.9-7.2,4.8-9.1c3.1-2.1,7.2-1.4,8.6,2.3c0.5,1.4,0.7,2.9,1,4.3c0,0,0,0,0,0.1c-1,0.2-2,0.5-3,0.6
				c-1.4,0.2-2.8,0.2-4.3,0.4c-1.4,0.2-2.8,0.6-4.1,0.9C110.4,40.8,109.4,40.9,108.4,41L108.4,41z M115.6,41.7
				c1.6-0.3,3.3-0.3,4.9-0.6c0.9-0.1,1.9-0.2,2.7-0.6c0.3,1.2,0.5,2.4,0.8,3.7c0.4,1.9,0.8,3.7,1.1,5.6c-0.8-0.1-1.6,0.2-2.5,0.3
				c-1.5,0.2-3,0.4-4.5,0.6s-3,0.4-4.5,0.6c-1,0.1-2,0.2-2.9,0.6c0-0.1,0-0.2,0-0.3c-0.4-3-1.6-5.9-2.1-8.9
				C110.8,43.1,113.4,42,115.6,41.7z M126.6,73.2c-3-0.1-5.3,2.6-8.2,3c-1.6,0.2-3.3,0.2-5,0c-2.3-0.3-3.4-1.7-3.6-3.9
				c-0.3-3.3,0.4-6.8,0.8-10.1c0.3-3.1,0.5-6.2,0.3-9.3c1.1,0.2,2.3,0,3.4-0.1c1.4-0.1,2.9-0.3,4.3-0.4c1.4-0.2,2.9-0.3,4.3-0.5
				c0.8-0.1,1.6-0.1,2.4-0.4c0.1,2,0.1,3.9,0.3,5.9c0.3,3.2,0.9,6.4,1.1,9.6c-0.1,0.1-0.1,0.2-0.1,0.3
				C126.3,69.2,126.5,71.2,126.6,73.2z"/>
			<path class="st4" d="M102.7,78.1c-0.4,0-0.6,0.3-0.6,0.5c0,0,0,0,0,0.1c-0.2,0.9-0.3,1.4,0.3,2c1,1.1,1,3.4,1.2,5
				c0.2,1.1,0.2,2.1,1.5,2.3c0.7,0.1,2,0.1,2.4-0.7c0.2-0.4,0-1,0-1.4c-0.1-1-0.3-1.8,0.1-2.8c0.2-0.6,0.3-1,0.3-1.6
				c0.1-0.7,0.5-1.2,0.6-1.8C109.1,77,104.1,78.2,102.7,78.1z"/>
			<path class="st3" d="M117.3,186.1c-0.4-4-0.7-8.1-0.9-12.1c-0.4-8-0.6-16-0.7-23.9c-0.2-17.9,0-35.8-1.4-53.7
				c0.2-2.5-0.2-5.1-0.3-7.6c-0.1-2.7-0.4-5.4,0-8c0.1-0.8,0.1-1.6-0.2-2.3c0-0.1,0-0.1,0-0.2c-0.2-2,0-3.9,0.9-5.7
				c0.6-1.3,1.8-2.8,1.8-4.3c0-1-0.6-1.6-1.6-1.6c-2-0.2-4.1,0.1-6.1,0.2c-0.2,0-0.3,0.1-0.4,0.1c-0.2,0-0.4,0.1-0.4,0.4
				c0,0.7-0.4,1.4-0.2,2.1s0.8,1.1,1.2,1.8c1.1,1.9,1.3,4.6,1.2,6.8c0,0.3,0.1,0.5,0.3,0.6c-0.1,0.3-0.2,0.6-0.2,0.9
				c-0.3,2.2,0.1,4.7,0.2,7c0,0.8,0.1,1.6,0.1,2.4c-1.1,0-2.2,0.2-3.1,0.5c0-0.6-0.1-1.2-0.4-1.7c-0.8-1.2-2.5-0.9-3.2,0.2
				c0,0.1-0.1,0.1-0.1,0.1c0,0.1,0,0.1,0,0.2c1.3,8,1,16.1,0.8,24.1c-0.1,3.9-0.1,7.7,0.1,11.6c0.3,4.1,0.8,8.2,1,12.4
				c0.5,7.8-1,15.6-0.6,23.4c0.2,3.9,1,7.7,1.3,11.6c0.3,3.9-0.1,7.8-0.3,11.7s-0.1,7.7,0.3,11.5c0.2,1.8,0.4,3.6,0.7,5.3
				c0.3,1.5,0.4,3.3,1.1,4.7c1.2,2.4,4.1,2,5.9,0.5c2.2-1.8,3.2-4.6,3.6-7.4C118.4,193.8,117.6,189.9,117.3,186.1z M110,90.4
				c0.2,0,0.5,0,0.7,0c0.1,1.3,0.2,2.6,0.2,3.9c0.1,1.7,0.2,3.3,0.3,5c-0.1,0-0.1,0-0.2,0c-0.4-0.1-0.9-0.1-1.3-0.2
				c-0.7,0-1.4,0.1-2.1,0.3c0.1-1.5,0.1-3.1,0.1-4.6c0-1.4-0.1-2.8-0.2-4.1C108.4,90.5,109.2,90.4,110,90.4z M113.5,171.6
				c-0.1,3-0.2,6.1-0.3,9.1c0,0.1,0,0.2,0.1,0.2c-0.1,3.4,0.1,6.8,0.1,10.1c0,1.8,0,3.6,0,5.5c0,1.3,0.4,4.9-0.8,5.7
				c-0.2,0.5-0.5,0.4-0.9-0.1c-0.6-0.1-0.8-0.5-0.7-1.1c-0.1-0.4-0.1-0.8-0.1-1.2c-0.1-1-0.2-2-0.3-3c-0.2-2-0.3-4-0.5-6
				c-0.3-3.7-0.1-7.6-0.6-11.3c0.2-2.2,0.1-4.6,0.1-6.8c0.1-3,0.2-6.1,0.1-9.1s-0.4-5.9-0.7-8.9c-0.3-2.9,0.2-6-0.3-8.9
				c0-0.1-0.1-0.2-0.2-0.2c0.5-5,0.2-10.3,0-15.3c-0.2-6-1-11.9-1.3-17.9c-0.2-3.9,0.3-7.8,0.6-11.6c1.1,0,2.1-0.1,3.2,0.2
				c0.2,0,0.4,0.1,0.6,0.2c0.2,3.1,0.4,6.2,0.6,9.3c-0.4,2.5-0.3,5.1-0.3,7.7c0.1,3,0.1,6,0.2,8.9c0.2,6.2,0.2,12.3,0.2,18.5
				c0,5.8-0.7,11.9,0.5,17.7C113.3,166,113.6,168.7,113.5,171.6z"/>
		</g>
		<g id="Слой_95_1_">
			<path class="st5" d="M124.6,36.8c-1.3,0-2.6,0.5-3.9,0.6c-1.1,0.1-2.2,0.1-3.2,0.3c-1.3,0.2-2.5,0.4-3.7,0.6s-2.6,0.1-3.7,0.7
				c-0.2,0.1-0.2,0.4,0,0.4c1.9,1,4.9-0.2,6.9-0.6c2.6-0.5,5.3-0.3,7.8-1.1C125.2,37.5,125.1,36.8,124.6,36.8z"/>
			<path class="st5" d="M120.2,39.6c-1.2-0.3-2.5,0.1-3.7,0.3c-0.5,0.1-4.2,1.2-4.3,1c0-0.1-0.1-0.1-0.2,0s-0.2,0.2-0.3,0.4
				c-0.2,0.2,0.1,0.6,0.3,0.6c1.4-0.2,2.8-0.5,4.2-0.7c1.3-0.2,2.9-0.2,4.1-0.8C120.5,40.1,120.5,39.6,120.2,39.6z"/>
			<path class="st5" d="M121.6,50.4c-1.5,0.1-3.1,0.4-4.6,0.6c-1.3,0.1-2.6,0.2-3.7,0.9c-0.3,0.2-0.2,0.7,0.2,0.7
				c1.5,0.1,3.1-0.2,4.6-0.3c1.3-0.1,2.6-0.1,3.8-0.7C122.4,51.3,122.1,50.4,121.6,50.4z"/>
			<path class="st5" d="M108,47.1c-0.4-1.2-0.5-2.3-0.5-3.6c0-0.9,0.1-1.7-0.5-2.3h-0.1c-0.6,0.6-0.4,1.2-0.4,2c0,1.1,0,2.2,0.2,3.2
				c0.6,2.5,1.2,4.8,1,7.5c-0.1,0.9,1.5,1,1.5,0C109.1,51.6,108.7,49.4,108,47.1z"/>
			<path class="st5" d="M113.4,73.7c-0.5-0.5-1.3-0.3-1.9-0.3c-0.1,0-0.2,0-0.3,0.1c-0.2,0-0.3,0.1-0.3,0.3
				c-0.1,0.6-0.2,1.2-0.2,1.8s-0.1,1.2,0,1.8c0.1,0.2,0.3,0.4,0.5,0.5c0.5,0.2,1.5,0.1,2-0.3c0.6-0.4,0.4-1.5,0.5-2.1
				C113.6,75,113.8,74.2,113.4,73.7z"/>
			<path class="st5" d="M119.1,69.1c-0.5-0.6-1.1-1-1.8-1.3c-0.6-0.2-1.3-0.2-2-0.4c-1-0.3-1.5-0.8-2.1-1.6c-0.1-0.1-0.2,0-0.2,0.1
				c0.2,1.1,1.1,1.8,2.1,2.1c1.1,0.3,2.2,0.3,3.1,1.2c0.8,0.8,1.1,1.9,1.3,3c0.3,2.1,0.2,4.9-1.8,6.3c-0.9,0.6-2,0.7-3,0.9
				c-1.3,0.3-2.6,0.4-4,0.2c-0.7-0.1-0.9,0.9-0.1,1c4.1,0.4,9.3-0.7,9.8-5.5C120.8,73.1,120.4,70.6,119.1,69.1z"/>
			<path class="st5" d="M114.5,84.3c0-0.2-0.2-0.4-0.4-0.5c-0.5-0.1-0.9-0.1-1.5,0c-0.5,0-1-0.1-1.5-0.1c-0.3,0-0.5,0.3-0.5,0.5
				c-0.1,0.1-0.1,0.2-0.2,0.3c0,0.4-0.2,1.3,0.2,1.7c0.2,0.2,0.5,0.2,0.7,0.2c0.4,0,0.8,0,1.2,0c0.5,0,1.3,0.1,1.7-0.3
				C114.6,85.6,114.5,84.8,114.5,84.3z"/>
			<path class="st5" d="M108.2,88.9c-0.1-0.6-0.1-1.5-0.7-1.8c-0.8-0.4-2.3,0.1-3.2,0.2c-0.6,0.1-0.7,0.8-0.3,1.1
				c-0.3,3.1-0.1,6.3,0,9.4c0,0.4,0.3,0.6,0.7,0.5c0.9-0.2,1.8-0.2,2.8-0.1c0.3,0,0.6-0.3,0.6-0.6C107.8,94.7,108.6,91.8,108.2,88.9
				z"/>
			<path class="st5" d="M114.5,87.7c0-0.3-0.2-0.6-0.6-0.6c-0.8,0-1.6,0-2.5,0c-0.2,0-0.4,0.1-0.4,0.2c-0.1,0-0.3,0.1-0.3,0.2
				c-0.4,3,0.2,6.2,0.3,9.2c0,0.3,0.2,0.6,0.5,0.5c0.9-0.1,1.7,0,2.5,0.1c0.4,0.1,0.7-0.2,0.7-0.6C114.8,93.8,114.7,90.8,114.5,87.7
				z"/>
			<path class="st5" d="M127.2,73.3c-0.8,0.4-1.5,1-2.3,1.4c-0.6,0.4-1.6,0.6-2.1,1.2c-0.1,0.1,0,0.2,0,0.2c0.7,0.4,1.5,0,2.2-0.3
				c0.9-0.4,1.9-1,2.7-1.6C128.3,73.8,127.8,72.9,127.2,73.3z"/>
			<path class="st5" d="M127.6,33.6c-0.3-1.9-0.4-3.6-2.7-2.7c-0.2,0.1-0.2,0.2-0.1,0.3l0,0c-0.2,0.5-0.1,1.2,0.1,1.7l0,0
				c0,0.1,0,0.2,0,0.3c1.6,2.4,1.6,5.7,2.1,8.5c0.1,0.5,0.8,0.3,0.8-0.1C128,39.1,128,36.3,127.6,33.6z"/>
		</g>
	</g>
</g>
<g id="Слой_98" class="st0">
</g>
<g id="Слой_80" class="st0">
	<g id="Слой_82" class="st1">
	</g>
	<g id="Слой_86" class="st1">
	</g>
	<g id="Слой_83" class="st1">
	</g>
	<g id="Слой_85" class="st1">
	</g>
	<g id="Слой_84" class="st1">
	</g>
	<g id="Слой_96" class="st1">
	</g>
	<g id="Слой_97" class="st1">
	</g>
	<g id="Слой_81" class="st1">
	</g>
</g>
<g id="Слой_71" class="st0">
</g>
<g id="Слой_117" class="st0">
	<g id="Слой_118" class="st1">
	</g>
	<g id="Слой_71__x28_копия_x29_" class="st1">
	</g>
	<g id="Слой_22__x28_копия_x29_" class="st1">
	</g>
</g>
</svg>
