<?xml version="1.0" encoding="utf-8"?>
<!-- Generator: Adobe Illustrator 21.1.0, SVG Export Plug-In . SVG Version: 6.00 Build 0)  -->
<svg version="1.1" id="Слой_1" xmlns="http://www.w3.org/2000/svg" xmlns:xlink="http://www.w3.org/1999/xlink" x="0px" y="0px"
	 viewBox="0 0 233.6 232.6" style="enable-background:new 0 0 233.6 232.6;" xml:space="preserve">
<style type="text/css">
	.st0{display:none;}
	.st1{display:inline;}
	.st2{fill:#DEDEDE;}
	.st3{fill:#5B4069;}
	.st4{fill:#5C4069;}
	.st5{fill:#8D639C;}
	.st6{fill:#4E3A5A;}
</style>
<g id="Слой_1_1_">
</g>
<g id="Слой_116" class="st0">
</g>
<g id="Слой_27__x28_копия_x29_">
	<g id="Слой_28__x28_копия_x29_">
	</g>
	<g id="Слой_30__x28_копия_x29_">
	</g>
	<g id="Слой_29__x28_копия_x29_">
	</g>
	<g id="Слой_109">
	</g>
	<g id="Слой_32__x28_копия_x29_">
	</g>
	<g id="Слой_31__x28_копия_x29_">
	</g>
</g>
<g id="Слой_16">
</g>
<g id="Слой_34__x28_копия_x29_">
	<g id="Слой_35__x28_копия_x29_">
	</g>
	<g id="Слой_36__x28_копия_x29_">
	</g>
	<g id="Слой_37__x28_копия_x29_">
	</g>
	<g id="Слой_38__x28_копия_x29_">
	</g>
	<g id="Слой_115">
	</g>
</g>
<g id="Слой_17">
</g>
<g id="Слой_9">
	<g id="Слой_10">
	</g>
	<g id="Слой_11">
	</g>
</g>
<g id="Слой_9__x28_копия_x29_">
	<g id="Слой_10__x28_копия_x29_">
	</g>
	<g id="Слой_11__x28_копия_x29_">
	</g>
</g>
<g id="Слой_2">
	<g id="Слой_3">
	</g>
	<g id="Слой_5">
	</g>
	<g id="Слой_4">
	</g>
	<g id="Слой_6">
	</g>
	<g id="Слой_7">
	</g>
</g>
<g id="Слой_8">
</g>
<g id="Слой_93__x28_копия_x29_">
	<g id="Слой_91__x28_копия_x29_">
	</g>
	<g id="Слой_94__x28_копия_x29_">
	</g>
	<g id="Слой_95__x28_копия_x29_">
	</g>
	<g id="Слой_102">
	</g>
</g>
<g id="Слой_12">
</g>
<g id="Слой_33">
</g>
<g id="Слой_18" class="st0">
	<g id="Слой_19" class="st1">
	</g>
	<g id="Слой_20" class="st1">
	</g>
	<g id="Слой_23" class="st1">
	</g>
	<g id="Слой_25" class="st1">
	</g>
	<g id="Слой_24" class="st1">
	</g>
	<g id="Слой_21" class="st1">
	</g>
	<g id="Слой_22" class="st1">
	</g>
	<g id="Слой_26" class="st1">
	</g>
</g>
<g id="Слой_27">
	<g id="Слой_28">
	</g>
	<g id="Слой_30">
	</g>
	<g id="Слой_29">
	</g>
	<g id="Слой_32">
	</g>
	<g id="Слой_31">
	</g>
</g>
<g id="Слой_34">
	<g id="Слой_35">
	</g>
	<g id="Слой_36">
	</g>
	<g id="Слой_37">
	</g>
	<g id="Слой_38">
	</g>
</g>
<g id="Слой_39">
	<g id="Слой_40">
	</g>
	<g id="Слой_41">
	</g>
	<g id="Слой_42">
	</g>
</g>
<g id="Слой_43">
	<g id="Слой_44">
	</g>
	<g id="Слой_45" class="st0">
	</g>
</g>
<g id="Слой_46">
	<g id="Слой_48">
	</g>
	<g id="Слой_47">
	</g>
	<g id="Слой_49">
	</g>
	<g id="Слой_50">
	</g>
	<g id="Слой_51">
	</g>
	<g id="Слой_52">
	</g>
	<g id="Слой_53">
	</g>
	<g id="Слой_54">
	</g>
	<g id="Слой_55">
	</g>
</g>
<g id="Слой_46__x28_копия_x29_">
	<g id="Слой_48__x28_копия_x29_">
	</g>
	<g id="Слой_47__x28_копия_x29_">
	</g>
	<g id="Слой_49__x28_копия_x29_">
	</g>
	<g id="Слой_50__x28_копия_x29_">
	</g>
	<g id="Слой_51__x28_копия_x29_">
	</g>
	<g id="Слой_52__x28_копия_x29_">
	</g>
	<g id="Слой_53__x28_копия_x29_">
	</g>
	<g id="Слой_55__x28_копия_x29_">
	</g>
	<g id="Слой_54__x28_копия_x29_">
	</g>
</g>
<g id="Слой_66">
	<g id="Слой_67">
	</g>
	<g id="Слой_68">
	</g>
	<g id="Слой_70">
	</g>
	<g id="Слой_69">
	</g>
</g>
<g id="Слой_72">
	<g id="Слой_75">
	</g>
	<g id="Слой_73">
	</g>
	<g id="Слой_74">
	</g>
	<g id="Слой_76">
	</g>
	<g id="Слой_77">
	</g>
	<g id="Слой_79">
	</g>
	<g id="Слой_78">
	</g>
</g>
<g id="Слой_89">
</g>
<g id="Слой_88">
	<g id="Слой_90">
	</g>
	<g id="Слой_92">
	</g>
	<g id="Слой_12_9_">
		<circle class="st2" cx="114" cy="117.4" r="112.2"/>
	</g>
	<g id="Слой_33_9_">
		<g>
			<g>
				<path class="st3" d="M164.3,15.7c-4.8-8.9-15-9.9-24.1-11c-12.4-1.5-24.9-5.1-37.4-4.7C91,0.4,79.8,4.9,69.4,10.2
					c-10.7,5.4-22.1,11.1-31.1,19.1S23.2,47.3,17,57.5C10.5,68.2,4.4,78.5,2.5,91c-1,6.5-1.2,13-1.4,19.6
					c-0.3,7.2-1.2,14.3-1.1,21.5c0.2,13.1,4.9,25,9.9,36.9c9.2,21.9,25.8,41.6,47.3,52.5c20.7,10.5,46.1,12.7,68.9,10
					c12.6-1.5,26.1-3.6,38.2-7.4c11.7-3.7,21-11.4,29.6-19.9c8.5-8.5,15.4-18.4,21.6-28.6c6.6-10.9,9.8-22.3,14.2-34
					c10.5-28.3-2-60.3-15.1-85.7C208.2,43.4,199.9,33,188.2,25C177,17.4,165.9,9.5,152,9.2c-6.3-0.1-6.1,9.2,0,9.6
					c10.7,0.8,20.4,7.8,28.7,14.1c8.9,6.7,15,15.3,20,25.2c5.1,10,9.1,20.7,13,31.3c4.1,11.2,8.7,23.7,7.8,35.8
					c-1.7,22.6-9.8,44-24.7,61.3c-7,8.2-15,16.4-23.9,22.5c-9.1,6.2-20.2,7.6-30.7,9.7c-22.1,4.3-44.8,5.3-66.7-0.9
					c-20.2-5.7-38.2-18.3-49.5-36.3c-6.3-10-9.9-21.6-13.6-32.7c-3.7-11.5-2.3-22.5-1.7-34.3c0.6-12.2,0.3-24.6,5.6-36
					c4.5-9.5,10.4-19,16.3-27.7c7.1-10.4,15.8-17.5,26.7-23.6c10.6-5.9,21.3-12,33.1-15.1c12.8-3.3,26.3-0.3,39.1,1.9
					c4.7,0.8,9.4,1.3,14,1.9c4.4,0.6,9.7,1.2,13.1,4.4C161.6,22.8,166.2,19.3,164.3,15.7L164.3,15.7z"/>
			</g>
		</g>
	</g>
	<g id="Слой_88_1_">
		<path class="st4" d="M141.9,201.2c-0.5-1.1-1.7-1.6-2.7-2.2c-2.3-1.5-4.5-3.2-6.2-5.4c-3.5-4.4-4.2-10.2-4.5-15.7
			c-0.3-5.9-0.6-11.9-0.8-17.8c0-0.1,0.1-0.3,0-0.5c-0.1-0.7-0.1-1.5-0.2-2.2c0-0.3,0-0.7,0-1c0-0.1,0-0.2,0-0.3
			c-0.6-9.8-0.8-19.6-1-29.5c0.1-0.2,0.1-0.3,0.1-0.5c0-0.6-0.1-1.3-0.1-1.9c0-1,0-2-0.1-3c0-0.3-0.1-0.5-0.2-0.6
			c-0.4-6-0.7-12.1-0.5-18.1c0.3-7.9,1.4-15.7,0.6-23.6c0-0.3-0.2-0.6-0.4-0.8c-0.1-2.1-0.2-4.3-0.2-6.4c0-3.1,0.4-6.3-0.1-9.4
			c-0.4-2.5-1.4-5-3.3-6.7c-0.9-0.8-1.9-1.4-3-1.8c-0.2-0.7-0.4-1.5-0.6-2.2c-0.3-0.8-0.5-1.5-1.4-1.8c-1.5-0.5-3.9-0.1-4.2,1.6
			c-0.1,0.3-0.1,0.6-0.1,1c-0.8-0.2-1.6-0.3-2.4-0.2c-1.4,0.1-2.7,0.6-4,1.1c-2.2,0.9-4.3,2.3-6,4c-1.7,1.8-3.1,4-3.7,6.4
			c-0.8,3-0.4,6-0.5,9.1c0,1-0.3,1.2-1.1,1.7c-0.5,0.3-0.9,0.6-1.2,1.1c-0.9,1.1-1,2.6-1,4c0,3,0.3,6,0.9,9c0,2.1,0.8,4.5-0.1,6.4
			c-0.6,1.2-1.6,1.2-2.8,1.1c-1,0-2.1,0-3.1,0.5c-1.8,1-2,3.1-0.9,4.7c0.3,0.4,0.7,0.7,1,1c-0.1,0-0.2,0.1-0.3,0.1
			c-0.6,0.4-0.9,1-1.1,1.6c-0.2,0.8-0.6,1.7-0.7,2.6c-0.2,1.4,0.6,2.8,1.8,3.5c0.1,0.1,0.3,0.1,0.4,0.2c-0.6,0.1-1,0.7-1,1.3
			c-0.2,2.3,0.2,5.2,2.8,6.1c1.4,0.5,3.1,0.2,4.6,0.1c0.4,0,0.8,0,1.3,0c0.2,0,0.3,0,0.5,0c-0.1,0.7-0.1,2-0.1,2.1
			c-0.4,6.3-0.5,12.7-0.4,19c-0.1,0.2-0.1,0.3-0.1,0.6c-0.2,5.9-0.1,11.8,0.3,17.7c0.2,2.5,0.5,5,1.6,7.3c1.2,2.2,3.1,3.5,5.3,4.5
			c4.4,1.9,9.8,1.8,13.2-2.1c3.5-4,2-9.4,2.3-14.2c0-0.7,0.1-1.5,0.1-2.2c0,0.8,0.1,1.6,0.2,2.4c0,0.1-0.1,0.3,0,0.4
			c0.7,9.3-0.7,18.5-2.1,27.6c-0.3,2.1-0.5,4.2-1,6.2c-0.5,2.1-1.5,4-2.5,5.9c-0.9,1.8-1.7,3.8-3.1,5.3c-1.4,1.5-3.4,2.1-5.3,2.6
			c-0.6,0.2-0.9,0.7-0.9,1.2c-0.1,1.7,1.5,2.4,2.8,3c1.6,0.7,3.3,1.1,5,0.7c4.1,1.3,8.6,0.5,12.9,0.4c1.5,0,3,0.2,4.5,0.2
			c1.6-0.1,3-0.7,4.6-0.8c2.5-0.1,5.2,0,7.4-1.5C142.1,203.2,142.5,202.5,141.9,201.2z M107.7,202.6c-0.1,0-0.2-0.1-0.3-0.1
			c0.1,0,0.2-0.1,0.3-0.1C107.7,202.5,107.7,202.6,107.7,202.6z M113.9,102.6c-3.2,0-6.3-0.2-9.5-0.6c0.6-0.7,4-0.4,4.4-0.4
			c1.7,0.1,3.3,0.2,5,0.3C113.8,102.1,113.9,102.4,113.9,102.6z M101.8,144.7c0-0.8,0-1.5,0-2.3c0.1-0.2,0.2-0.4,0.2-0.7
			c0.1-4.4,0.2-8.7,0.3-13.1c0-2.8-0.1-5.6-0.1-8.4C102.8,128.4,102.5,136.6,101.8,144.7z M103,110.1c0-0.1,0-0.2,0-0.3
			c0.4-1.2,2.8-1.2,3.9-1c2,0.3,3.9,0.8,5.9,1c0.6,0.1,1.2,0.1,1.8,0.1c0,0.2,0,0.4,0,0.7C110.8,110.8,106.9,110.7,103,110.1z
			 M118.3,110.1c0.2,0,0.5,0,0.7,0s0.4,0,0.6,0c0,0.1,0,0.2,0,0.2c-0.2,0-0.4,0.1-0.6,0.1c-0.3,0-0.5,0.1-0.8,0.1
			C118.3,110.3,118.3,110.2,118.3,110.1z M119.5,102.3c-0.3,0-0.6,0-1,0.1c0-0.3,0-0.6,0-0.9c0.2,0,0.4-0.1,0.6-0.2
			c0.1,0,0.2-0.1,0.4-0.1C119.5,101.6,119.5,102,119.5,102.3z M118.7,68.9c0.1-0.7,0.1-1.5,0.2-2.2c0.1,2.3,0.3,4.6,0.4,6.9
			c0.3,3.9,0.9,7.9,1.1,11.8c0.1,3.2-0.1,6.4-0.4,9.6c-0.4-0.1-0.9-0.2-1.4-0.2c0.1-3.6,0.1-7.2,0-10.8c0.1-0.2,0.2-0.4,0.2-0.7
			C118.5,78.5,118.4,73.7,118.7,68.9z M103.1,63.7c0.2-1,0.7-1.6,1.4-2.3c1.3-1.3,2.7-2.6,4.5-3.3c1.3-0.6,2.7-0.6,4-0.4
			c0,2.4,0,4.8,0.1,7.1c0.1,5.5,0.3,10.9,0.4,16.4c0,0.2,0,0.4,0.1,0.5c0,3.2,0,6.4,0,9.6c0,1.4,0,2.8,0,4.3
			c-2.6,0.5-5.1,0.8-7.8,0.7c0-4.6-0.3-9.3-0.8-13.9c-0.3-3-0.7-6.5-2.9-8.6c0.1-2.3,0.4-4.7,0.7-7
			C102.9,65.8,102.9,64.7,103.1,63.7z M113.1,160.3c-0.7,2.1-2.6,3.5-4.9,3.4c-1.8,0-3.5-0.9-4.6-2.2c-0.9-1-1.3-2.2-1.5-3.5
			c1.4,0.3,2.9,0.2,4-0.9c1.1-1,1.4-2.5,1.5-3.9c0.3-3.9-0.6-7.9-0.5-11.8c0-4.2,1.2-8.2,1.5-12.4c0.3-4.3-0.2-8.7-0.1-13
			c2,0.1,3.9,0.2,5.9,0.3c-0.5,3.4-1.2,6.7-1,10.1c-0.4,4.5-0.3,9.1-0.3,13.6c0,4.8,0,9.5,0.3,14.3
			C113.6,156.4,113.8,158.5,113.1,160.3z M119.8,131.6c-0.4,4.1-0.9,8.2-1.1,12.2c-0.1-3-0.2-6-0.4-9c-0.2-4.1-0.4-8.2-0.5-12.3
			c-0.1-2,0-4,0.2-6c0.8,0,1.5,0,2.3,0c0.1,1,0.1,2,0.2,3C120.5,123.5,120.2,127.6,119.8,131.6z"/>
		<g id="Слой_92_1_">
			<path class="st5" d="M119.9,31.6c-0.4-0.8-1.5-0.9-2.3-1c-1.5-0.1-3,0.2-4.5,0.3c-0.8,0-0.8,0.9-0.4,1.3c-0.2,0.8-0.1,1.6,0,2.4
				c0.2,1,0.4,2.6,1.1,3.3c0.1,0.1,0.3,0.2,0.4,0.3c0,0.1,0,0.3,0,0.4l0,0c0.5,3,0.1,6.1,0,9.2c0,0.8-0.4,2.2,0.3,2.7
				c0.8,0.6,2.5,0.3,3.5,0.3c0.4,0,0.6-0.4,0.6-0.7c-0.3-1.6,0-3.2,0-4.9c0-1.3-0.7-2.8-0.4-4.1c0.1-0.7,0.3-1.7,0-2.4
				c0.4-0.1,0.7-0.3,0.9-0.8c0.2-0.4,0-0.8,0.1-1.2c0.1-0.7,0.6-1.3,0.8-2C120.1,33.8,120.3,32.5,119.9,31.6z"/>
			<path class="st5" d="M128.2,95.9c-1.2-0.1-1.6,0.7-1.5,1.5c-1.4-0.1-2.8,0.1-4.1,0.1c-0.2,0-0.3,0.2-0.2,0.4
				c-0.1,0.1-0.2,0.3-0.2,0.5c0,0.3,0,0.6,0,1s0.3,0.8,0.7,0.7c1.2-0.1,2.2,0.2,3.4,0.3c0.4,0,0.7,0,1,0.2c0.3,0.1,0.4,0.4,0.7,0.5
				c1.3,0.5,2.5-0.7,2.6-1.9C130.7,97.7,129.8,96,128.2,95.9z"/>
			<path class="st5" d="M128.5,102.9c-0.8,0.1-1.2,0.6-1.4,1.3c-0.1,0.2-0.1,0.3,0,0.3c0,0-0.1,0-0.2,0c-0.3,0.1-0.7,0-1,0
				c-0.7,0-1.5,0-2.2,0c-0.1,0-0.1,0-0.2,0c-0.2-0.1-0.4,0-0.6,0.2c-0.5,0.8-0.7,1.6-0.8,2.4c0,0.3,0.3,0.7,0.6,0.6
				c0.7-0.1,3.4-0.7,3.7-0.3c0.2,0.2,0.1,0.9,0.3,1.2s0.3,0.5,0.6,0.6c1.7,0.9,2.8-1.1,2.8-2.5C130.3,105.6,130.4,102.8,128.5,102.9
				z"/>
			<path class="st5" d="M130.4,113.5c-0.1-1-0.2-2.3-1.4-2.6c-1.1-0.3-2,0.5-2.3,1.5c-1.1,0-2.3-0.1-3.4,0.1c-0.3,0-0.3,0.3-0.2,0.5
				v0.1c-0.1,0.5-0.1,1,0,1.5c0,0.2,0.2,0.3,0.4,0.3c1.2,0,2.5,0.1,3.7,0.1c0.3,0.8,1,1.5,2,1.3
				C130.5,116.2,130.4,114.6,130.4,113.5z"/>
			<path class="st5" d="M103.6,104.1c-1.9-2.5-4.4-4.8-7.7-4.2c-1.2,0.2-2.7,0.8-2.9,2.2c-0.2,1.1,0.4,2.4,1.1,3.2
				c-0.1,0.4,0.1,0.8,0.7,0.9c0.7,0.1,1.5,0.1,2.1-0.5c0.3-0.3,0.4-0.6,0.5-1c0.1-0.6-0.3-1,0.2-1.4c0.9-0.5,2.2,1.3,3,1.7
				c0.9,0.4,1.8,0.3,2.6,0C103.6,105,103.9,104.5,103.6,104.1z"/>
			<path class="st5" d="M105.3,89.7c0-0.4-0.3-0.7-0.7-0.7c-0.3,0-0.6,0.1-0.8,0.3c-0.1,0.1-0.2,0.2-0.2,0.4s0,0.4,0,0.5
				c-0.1,0.4,0,0.9,0.1,1.2c0.2,0.5,1,0.6,1.2,0c0.2-0.1,0.4-0.3,0.3-0.6c0-0.1,0-0.3,0-0.4C105.3,90.2,105.3,89.9,105.3,89.7z"/>
			<path class="st5" d="M121.7,73.8c-1.1-3-2.2-6.1-3.4-9.2c-0.1-0.6-1.1-0.4-0.9,0.3c0.8,3.7,2.1,7.2,3.2,10.9
				c-0.3,0-0.6,0.3-0.6,0.6c-0.1,1.6-0.2,3.3-0.2,4.9c0,1-0.2,2.4,0.5,3.2c0.6,0.7,1.5,0.7,2.2,0.4c1.1-0.4,1.1-1.4,1.1-2.4
				C123.7,79.5,122.8,76.6,121.7,73.8z"/>
			<path class="st5" d="M124.1,121.7c-0.6-1.3-1.7-2.1-3.2-1.8c-1.5,0.2-2.5,1.4-3,2.7s-1,3.5-0.3,4.8c0.1,0.2,0.4,0.2,0.5-0.1
				c0.4-1.8,0.5-4.8,2.3-5.8c2.9-1.7,2.6,3.1,3.2,4.4c0.1,0.2,0.4,0.2,0.6,0.1C125.2,124.8,124.7,122.9,124.1,121.7z"/>
			<path class="st5" d="M121.8,155.3c0-2.1-0.7-3.8-1.4-5.7c-0.8-2-1.5-4.1-2.6-6c-0.1-0.3-0.5-0.1-0.4,0.2c0.4,1.9,1.1,3.8,1.7,5.7
				c0.6,1.8,1.4,3.6,1.4,5.6s0,3.9,0,5.9c0,0.9,0,1.8,0,2.7c0,0.3-0.1,3-0.2,3c-0.2,0-0.4,0.1-0.5,0.3v0.1c-0.1,0.3,0,0.5,0.3,0.7
				l0.1,0.1c0.3,0.2,0.8,0.1,0.9-0.2c0.9-1.7,0.7-3.8,0.7-5.7C121.8,159.7,121.8,157.5,121.8,155.3z"/>
			<path class="st5" d="M108.9,141.7c-0.2-3.1-0.3-6.2-0.8-9.2c0-0.2-0.4-0.2-0.4,0c-0.1,3.1,0.3,6.1,0.5,9.2c0.2,3,0.4,6.4-0.4,9.4
				c-0.2,0.8,1.2,1,1.2,0.2c0-1.6,0.2-3.2,0.2-4.7C109.1,144.9,109.1,143.3,108.9,141.7z"/>
			<path class="st5" d="M105.4,159.7c-1.1-0.1-2.1-0.3-3.2-0.4c-0.7-0.1-1.5-0.2-1.9,0.5c-0.1,0.2-0.1,0.4,0.1,0.5
				c0.5,0.5,1.5,0.6,2.2,0.7c0.9,0.2,1.9,0.4,2.8,0.4C106.5,161.3,106.5,159.8,105.4,159.7z"/>
			<path class="st5" d="M106.2,171c-0.6-0.7-1.6-0.8-2.5-1c-1-0.2-2.3-0.3-3.2-0.8c0.5-0.4,0.8-1.2,0.5-1.8c0-0.1-0.1-0.2-0.2-0.3
				c0-0.1-0.1-0.2-0.2-0.3c0,0-0.1,0-0.1-0.1l0,0c0.1-0.7-0.9-1-1.3-0.5c-0.3,0.3-0.5,0.6-0.6,1c-0.1-0.2-0.2-0.4-0.3-0.5
				c-0.3-0.5-0.5-0.9-0.7-1.5c0-0.1,0-0.1,0-0.2c0.1-0.1,0.2-0.2,0.2-0.3c0.1-0.2,0.1-0.5,0-0.7c0-0.2,0-0.4-0.1-0.6
				c0-0.1-0.1-0.2-0.2-0.3c-0.3-0.4-0.8-0.6-1.3-0.1c-1.1,0.9,0.1,3.1,0.5,4.1c0.7,1.5,1.8,3.3,3.4,3.8c1,0.3,2.1,0.5,3.1,0.7
				s1.9,0.6,2.8,0.2C106.4,171.5,106.4,171.2,106.2,171z"/>
			<path class="st5" d="M102.7,136c-0.6-0.1-1.4-0.1-2,0c-0.3,0-0.5,0.6-0.1,0.6c0.7,0.1,1.5,0.2,2.1,0.1
				C103.3,136.7,103.3,136,102.7,136z"/>
			<path class="st5" d="M103.1,141.9c-0.4,0-0.9-0.1-1.3-0.1c-0.4,0-0.8-0.1-1.1,0.2c-0.1,0.1-0.2,0.3,0,0.4l0.1,0.1
				c-0.2,0.2-0.2,0.6,0.1,0.7h0.1c0,0.2,0.1,0.3,0.2,0.4c0.4,0.2,0.8,0.2,1.1,0.1c0.1,0.1,0.2,0.1,0.3,0.2c0.3,0.1,0.6-0.2,0.5-0.5
				c0-0.2-0.1-0.3-0.3-0.5c0.1,0,0.2,0,0.3-0.1C103.8,142.7,103.6,142,103.1,141.9z"/>
		</g>
		<path class="st4" d="M118.7,39.3c-0.1-2-2.9-1.3-4.3-1.4c-0.4,0-0.6,0.4-0.5,0.8c0,2.8,0.1,5.6,0,8.4c0,0.3,0.3,0.5,0.5,0.5
			c1.2,0,2.4,0,3.6,0.2c0.3,0,0.5-0.3,0.5-0.5C118.6,44.7,118.9,41.9,118.7,39.3z"/>
		<path class="st6" d="M123,110.7c-4,0-8-0.2-11.9-0.4c0-0.4,0-0.8-0.1-1.2c3.9,0.2,7.8,0.7,11.7,1c0.5,0,0.8-0.5,0.7-0.9
			c-0.5-1.6-1.1-3.6,0.1-5.1c0.4-0.5,0.1-1.2-0.5-1.2c-4.2-0.4-8.3-0.6-12.4-0.4c0-0.3-0.1-0.5-0.1-0.8c3.8,0.2,7.7,0.3,11.5,0.5
			c0.5,0,0.7-0.4,0.6-0.8c-0.3-1.8-0.6-3.7,0.4-5.3c0.3-0.5-0.2-1.1-0.7-1c-1.5,0.4-2.8,0-4.2-0.2c-1.3-0.2-2.5-0.2-3.8-0.1
			c-0.3,0-0.5,0-0.8,0.1c0.1-0.2,0.1-0.5-0.1-0.7c-1.1-0.6-2.6-0.4-3.8-0.7c-0.7-0.2-1.6-0.4-2.2-0.9c-0.5-0.4-0.7-1.2-1-1.7
			c-0.1-0.3-0.5-0.6-0.5-0.9c-0.1-0.8,0.6-1,1.1-1.2c0.7-0.2,1.3-0.4,2-0.6c0.9-0.2,1.8-0.4,2.7-0.5c0.5,0,0.7,0,1-0.4v-0.1
			c-0.8-1.4-4.3-0.1-5.4,0.3c-1.2,0.4-2.7,0.9-2.6,2.5c0.1,0.9,0.8,1.8,1.2,2.5s0.8,1.2,1.5,1.5c0.9,0.5,2,0.7,3,0.9
			c0.3,0,0.6,0.1,0.9,0.2c-1.8,0.2-3.6,0.4-5.4,0.6c-2.7,0.3-5.4,0.6-8,0.8c-1.4,0.1-2.6-0.3-4-0.5c-0.6-0.1-1.2-0.1-1.8-0.1
			s-1.7,0.2-2-0.4c-0.3-0.5-1-0.2-1.1,0.3c-1.2,1.9-1.3,4.3-0.3,6.4c0.1,0.2,0.4,0.3,0.6,0.2c0.1,0,0.1,0,0.2-0.1l-0.1,0.1
			c-0.9,0.4-1.3,1.3-1.4,2.3c-0.1,1.3-0.3,3.4,0.4,4.6c0.2,0.3,0.5,0.5,0.8,0.6c-0.2,0.1-0.3,0.3-0.3,0.5c-1.3,1.5-1.5,3.9-0.2,5.6
			c0.9,1.2,2.1,0.9,3.4,0.7c2.1-0.2,4.1-0.3,6.2-0.4c1.4-0.1,2.9-0.1,4.3-0.2c0,0.1,0,0.1,0,0.2c0,6.1,0.6,12.3,0.9,18.4
			c0.2,3,0.3,6,0.2,9c0,1.4-0.1,2.8-0.3,4.2c-0.1,0.9-0.3,1.7-0.5,2.6c-0.1,0.3-0.8,2.5-0.9,2.4c-0.2-0.3-0.5-0.3-0.7-0.3
			c-0.1-0.3-0.6-0.4-0.7,0c-0.4,1.3-0.5,2.4-0.3,3.7c0,0.2,0.3,0.4,0.5,0.4c0.1,0,0.2,0,0.2,0c-0.2,0.1-0.5,0.1-0.7,0.2
			c-0.5,0.1-0.6,1,0,1.1c2.2,0.3,4.4,0.3,6.5,0.4c2.3,0.2,4.6,0.4,6.8,0.7c1.1,0.1,1.3-1.7,0.3-1.9c-2.9-0.5-6.2-1-9.3-0.8
			c1.4-0.5,2.5-1.4,3.2-3.1c1.1-2.9,0.6-6.1,0-9.1c0.2,0,0.3,0,0.5,0c0.5-0.1,1.4-0.3,1.7-0.6c0.4-0.4,0.2-1,0.2-1.5
			c-0.1-0.8-0.2-1.7-0.3-2.5c-0.1-0.5-0.1-0.9-0.6-1.1c-0.6-0.3-1.6-0.2-2.3-0.2l0,0c-0.2-2.1-0.4-4.1-0.4-6.2
			c0.3,0,0.6-0.2,0.7-0.4c0.7,1.3,2,2.1,3.6,2.3c2.2,0.2,4-2.1,3.3-4.2c0-0.1,0-0.1-0.1-0.1c0.1-2.2-2.2-2.9-4.1-3
			c-1.3-0.1-2.4,0.6-3,1.6c-0.1-0.1-0.2-0.2-0.4-0.2c0.2-3.8,0.5-7.7,0-11.5c0-0.1-0.1-0.3-0.2-0.4c5.4,0,10.7,0.4,16.1,1
			c0.4,0,0.8-0.4,0.8-0.8c0-1-0.6-3.6,0.3-4.3C124.1,111.6,123.7,110.7,123,110.7z M108.4,128.1c0.6-0.6,1.5-0.4,2.3-0.3
			c0.6,0.1,1.2,0.2,1.7,0.6c0.5,0.4,0.6,0.8,0.8,1.3c-0.5,1.1-0.3,2.7-1.9,2.9c-1.4,0.1-2.7-0.8-3.2-2.1
			C107.8,129.8,107.8,128.7,108.4,128.1z M96.6,102.2c1.3-0.2,2.5-0.5,3.8-0.7c1.4-0.2,2.9-0.2,4.3-0.1c1.4,0.1,2.9,0.1,4.3,0.2
			c0,0.3,0,0.6,0.1,1c-1.2,0.1-2.3,0.2-3.5,0.3c-2.7,0.3-5.4,0.7-8.1,0.6c-1.4-0.1-2.8-0.3-4.1-0.7c-1.1-0.3-2.1-0.7-3.3-0.6
			C92.2,101.8,94.4,102.5,96.6,102.2z M106.2,110.3c-5.4,0-10.8,0.7-16.1-0.3c0.7-0.1,1.4-0.3,1.8-0.4c2-0.2,4.1-0.3,6.1-0.2
			s4,0.2,6,0.1c1.8-0.1,3.5-0.3,5.3-0.3c0,0.4,0,0.8,0,1.2C108.3,110.3,107.3,110.2,106.2,110.3z"/>
	</g>
</g>
<g id="Слой_93">
	<g id="Слой_91">
	</g>
	<g id="Слой_94">
	</g>
	<g id="Слой_95">
	</g>
</g>
<g id="Слой_98" class="st0">
</g>
<g id="Слой_80" class="st0">
	<g id="Слой_82" class="st1">
	</g>
	<g id="Слой_86" class="st1">
	</g>
	<g id="Слой_83" class="st1">
	</g>
	<g id="Слой_85" class="st1">
	</g>
	<g id="Слой_84" class="st1">
	</g>
	<g id="Слой_96" class="st1">
	</g>
	<g id="Слой_97" class="st1">
	</g>
	<g id="Слой_81" class="st1">
	</g>
</g>
<g id="Слой_71" class="st0">
</g>
<g id="Слой_117" class="st0">
	<g id="Слой_118" class="st1">
	</g>
	<g id="Слой_71__x28_копия_x29_" class="st1">
	</g>
	<g id="Слой_22__x28_копия_x29_" class="st1">
	</g>
</g>
</svg>
