<?xml version="1.0" encoding="utf-8"?>
<!-- Generator: Adobe Illustrator 21.1.0, SVG Export Plug-In . SVG Version: 6.00 Build 0)  -->
<svg version="1.1" id="Слой_1" xmlns="http://www.w3.org/2000/svg" xmlns:xlink="http://www.w3.org/1999/xlink" x="0px" y="0px"
	 viewBox="0 0 237.3 232.4" style="enable-background:new 0 0 237.3 232.4;" xml:space="preserve">
<style type="text/css">
	.st0{display:none;}
	.st1{display:inline;}
	.st2{fill:#DEDEDE;}
	.st3{fill:#5B4069;}
	.st4{fill:#8D639C;}
	.st5{fill:#302437;}
	.st6{fill:#4E3A5A;}
	.st7{fill:#C1B4CB;}
</style>
<g id="Слой_1_1_">
</g>
<g id="Слой_116" class="st0">
</g>
<g id="Слой_27__x28_копия_x29_">
	<g id="Слой_28__x28_копия_x29_">
	</g>
	<g id="Слой_30__x28_копия_x29_">
	</g>
	<g id="Слой_29__x28_копия_x29_">
	</g>
	<g id="Слой_109">
	</g>
	<g id="Слой_32__x28_копия_x29_">
	</g>
	<g id="Слой_31__x28_копия_x29_">
	</g>
</g>
<g id="Слой_16">
</g>
<g id="Слой_34__x28_копия_x29_">
	<g id="Слой_35__x28_копия_x29_">
	</g>
	<g id="Слой_36__x28_копия_x29_">
	</g>
	<g id="Слой_37__x28_копия_x29_">
	</g>
	<g id="Слой_38__x28_копия_x29_">
	</g>
	<g id="Слой_115">
	</g>
</g>
<g id="Слой_17">
</g>
<g id="Слой_9">
	<g id="Слой_10">
	</g>
	<g id="Слой_11">
	</g>
</g>
<g id="Слой_9__x28_копия_x29_">
	<g id="Слой_10__x28_копия_x29_">
	</g>
	<g id="Слой_11__x28_копия_x29_">
	</g>
</g>
<g id="Слой_2">
	<g id="Слой_3">
	</g>
	<g id="Слой_5">
	</g>
	<g id="Слой_4">
	</g>
	<g id="Слой_6">
	</g>
	<g id="Слой_7">
	</g>
</g>
<g id="Слой_8">
</g>
<g id="Слой_93__x28_копия_x29_">
	<g id="Слой_91__x28_копия_x29_">
	</g>
	<g id="Слой_94__x28_копия_x29_">
	</g>
	<g id="Слой_95__x28_копия_x29_">
	</g>
	<g id="Слой_102">
	</g>
</g>
<g id="Слой_12">
</g>
<g id="Слой_33">
</g>
<g id="Слой_18" class="st0">
	<g id="Слой_19" class="st1">
	</g>
	<g id="Слой_20" class="st1">
	</g>
	<g id="Слой_23" class="st1">
	</g>
	<g id="Слой_25" class="st1">
	</g>
	<g id="Слой_24" class="st1">
	</g>
	<g id="Слой_21" class="st1">
	</g>
	<g id="Слой_22" class="st1">
	</g>
	<g id="Слой_26" class="st1">
	</g>
</g>
<g id="Слой_27">
	<g id="Слой_28">
	</g>
	<g id="Слой_30">
	</g>
	<g id="Слой_29">
	</g>
	<g id="Слой_32">
	</g>
	<g id="Слой_31">
	</g>
</g>
<g id="Слой_34">
	<g id="Слой_35">
	</g>
	<g id="Слой_36">
	</g>
	<g id="Слой_37">
	</g>
	<g id="Слой_38">
	</g>
</g>
<g id="Слой_39">
	<g id="Слой_40">
	</g>
	<g id="Слой_41">
	</g>
	<g id="Слой_42">
	</g>
</g>
<g id="Слой_43">
	<g id="Слой_44">
	</g>
	<g id="Слой_45">
	</g>
	<g id="Слой_12_4_">
		<circle class="st2" cx="119" cy="116.5" r="112.2"/>
	</g>
	<g id="Слой_33_4_">
		<g>
			<g>
				<path class="st3" d="M128.8,3.9c-20.4-8.4-45.5-2.3-63.7,8.7c-11.5,6.9-24.2,15.3-32.9,25.7c-7.8,9.4-13.3,20.1-18.8,31
					C3.7,88.5-1.4,110,0.3,131.6c1.7,20.9,10,43,25.2,57.8c8.2,7.9,17.8,14.7,26.6,21.9c9,7.3,18.1,14.1,29.3,17.5
					c6,1.8,12.1,2.1,18.3,2.4c7.1,0.3,14.1,1.3,21.2,1.2c14.2-0.3,28.2-5,41.4-9.7c5.1-1.8,10.3-3.4,15.3-5.6
					c6.3-2.8,11.4-6.8,16.4-11.5c10.1-9.5,20.1-19.3,27.7-30.9c14.1-21.6,19.4-50.8,12.7-75.8c-1-3.5-2.4-6.9-3.3-10.5
					c-1-3.7-1.1-7.3-1.2-11c-0.3-6.8-1.9-12.2-5.4-17.9c-8-13.1-16.3-25.9-28.2-35.8c-5.1-4.2-10.5-8.3-16.5-11.1
					c-7.1-3.3-14.5-4.3-22.2-5.5c-7.9-1.2-15.8-2.4-23.6-4c-7.8-1.5-15.2-3-23.2-2.9c-7.8,0.1-7.8,12.2,0,12.1
					c12.8-0.2,25.6,3.3,38.3,5.1C160.9,19,172,20,182,27.1c9.8,7,16.5,18.1,23.2,27.8c3.2,4.6,7.1,9.1,9.8,14
					c2.4,4.5,1.8,9.5,2.2,14.5c0.5,5.8,2.4,11,4.2,16.5c2,6.2,3,12.7,3.6,19.1c1,12.1-0.7,23.9-5,35.3
					c-4.4,11.7-11.7,21.8-20.4,30.8c-8,8.3-16.7,17.9-27.5,22.3c-10.7,4.3-22.2,7.8-33.4,10.7c-6.4,1.6-12.8,3.1-19.5,3.2
					c-6.5,0.1-13-0.7-19.5-0.9c-11.2-0.3-20.5-1.9-30.2-7.6c-9.5-5.6-17.6-13.2-25.9-20.4c-30.1-26-38.8-68.3-29.5-106
					c1.3-5.2,2.2-10.5,4.1-15.5c2.2-5.8,5.4-11.4,8.6-16.8C34.6,40.9,45,32.6,58.1,25c11-6.4,21.6-12.7,34.1-15.5
					c11.2-2.5,24.1-3.8,35.3-0.9C130.6,9.1,131.5,5,128.8,3.9L128.8,3.9z"/>
			</g>
		</g>
	</g>
	<g id="Слой_46__x28_копия_x29__1_">
		<g id="Слой_47__x28_копия_x29__1_">
			<path class="st4" d="M143.7,150.7c-1.7-5.2-5.1-9.8-4.2-15.6c0.2-1.2-1.3-1.7-1.8-0.7c-3.8-1.7-5-5.1-5.9-9.1
				c-0.4-1.8-0.9-3.7-0.9-5.5c0-2.1,1.6-6.8,4.7-6c1.2,0.3,1.7-1.6,0.5-1.9c-0.1,0-0.2,0-0.3-0.1c-0.8-2.5,0.5-4.6,1.3-7
				c0.7-2.2,1.2-4.5,1.4-6.8c0.4-4.3-0.5-7.3-3-10.7c-2.1-2.8-4.5-5.5-7.8-6.8c-2.9-1.2-6.9-2-10.3-2c-0.1-0.1-0.2-0.2-0.4-0.2
				c-4.5,0.2-9.1,1.5-13.4,3.1c-3.2,1.2-5.6,2.8-7.1,6c-1.5,3.1-2.6,6.7-2,10.2c0.8,5,3.2,9.4,0.2,14.2c-0.6,0.9,0.5,1.8,1.4,1.4
				c1.2-0.6,4.3,3.2,4.6,4c0.7,1.8,0.3,4.1,0.6,6c0.5,2.7,0.2,4.9-1,7.4c-1.3,2.6-4,5.1-7.1,3.1c-1.1-0.7-2.1,1-1.1,1.7
				c1.1,4-1.4,9.6-2.3,13.4c-0.9,3.9-1.7,7.9-0.7,11.9c1.5,6.4,7.1,11.2,13.1,13.4c7.8,2.9,16.6,2.2,24.6,0.6
				c3.6-0.7,7.2-1.8,10.1-3.9c2.8-2,4.6-5.2,6-8.2C144.7,158.7,145,154.7,143.7,150.7z"/>
			<path class="st4" d="M119.7,31.4c0.4-0.7,0.4-1.6-0.1-2.3c-0.3-0.4-0.8-0.6-1.2-0.8c-0.5-0.3-1-0.6-1.3-1.1
				c-0.2-0.3-0.2-0.9-0.5-1.1c-0.6-0.6-1.9-0.6-2.6-0.3c-1.1,0.5-0.9,1.4-1.3,2.3c-0.4,0.8-1.5,1.1-1.6,2.2c-0.1,0.8,0.5,1.5,1.1,2
				c0,0.1,0.1,0.2,0.2,0.3c0.7,0.5,0.6,2.4,0.7,3.1l0,0c-0.3,0.5-0.4,1.2-0.4,1.8c-0.1,2.6,0,5.5,0.6,8c0.1,0.3,0.6,0.3,0.6,0
				c0.2-1,0.3-2.1,0.3-3.1c0-1.1-0.4-3,0-4.1c0.2-0.2,0.4-0.5,0.5-0.9c0.2,0,0.6,0,1,0.1c1.1-0.7,1.7-0.6,1.7,0.4
				c0.3,0.5,0.3,1.5,0.4,2.1c0.2,1.4,0.3,2.8,0.4,4.3c0,1.1,1.8,1.2,1.8,0c0-1.7,0-5.4-1-7.8c0-0.1,0.1-0.2,0.1-0.3
				c0-0.7-0.5-1.7-0.4-2.3C118.3,32.9,119.2,32.3,119.7,31.4z"/>
			<path class="st5" d="M115.7,177c0,5.5,0,10.9,0.1,16.4c0.1,5-0.3,10.4,1.4,15.1c0,0.1,0.2,0.1,0.2,0c0.1-10.5,0.1-21,0.2-31.5
				C117.5,175.8,115.6,175.8,115.7,177z"/>
		</g>
		<g id="Слой_50__x28_копия_x29__1_">
			<path class="st5" d="M109.6,121.1c-2.5-1-3.4,0.5-4.3,2.6c-0.5,1.1-0.6,2.2-0.7,3.4c-0.1,1.7-0.3,3.4-0.6,5.1
				c-0.2,1.5-0.3,3.2-0.9,4.6c-0.4,0.9-0.8,1.5-1.7,1.8c-0.2,0.1-0.5,0.2-0.7,0.2c-0.7-0.7-0.7-0.9-0.1-0.8c0,0,0.3-0.2,0.3-0.1
				c0.8-0.7-0.3-2.3-1.1-2.4c-1.7-0.4-1.8,2.1-1.2,3.1c1,1.7,3.3,1.7,4.7,0.6c2.2-1.6,2.3-4.6,2.5-7.1c0.1-1.6,0.2-3.1,0.1-4.7
				c-0.1-2,0-5.1,2.5-5.2c-0.6,1,0.3,2.3,1.5,1.8C111,123.5,110.5,121.5,109.6,121.1z"/>
			<path class="st5" d="M133.9,136c-1.5-0.7-2.8,1.4-1.7,2c-0.9,0.6-1.5,0.6-1.9,0c-0.2-0.3-0.4-0.6-0.5-0.9
				c-0.2-0.4-0.3-0.9-0.4-1.4c-0.2-0.9-0.3-1.8-0.3-2.7c-0.1-1.8,0-3.5-0.3-5.3c-0.3-2.2-0.9-5.9-3.3-6.8c-1.4-0.5-4.2,1.4-2.7,2.9
				c1.2,1.2,2.8-0.4,2.1-1.6c2.3,0.4,1.8,5.1,2,6.9c0.1,1.9,0.3,3.8,0.6,5.7c0.2,1.5,0.5,2.7,1.7,3.7c0.9,0.8,1.8,1.8,3.1,1.5
				c1-0.2,2.3-0.7,2.7-1.8C135.1,137.3,134.7,136.4,133.9,136z"/>
			<path class="st5" d="M120.4,151.6c0.3-1.3,0.6-2.7,0.5-4c0-0.7,0-1.6-0.7-2.1c-0.8-0.5-2-0.3-2.8-0.2c-1.6,0.1-3.3,0.1-4.9,0.2
				c0,0,0,0-0.1,0s-0.2,0-0.2,0.1s0,0.1,0,0.2v0.1c-0.3,2.4,0.3,4.4,1,6.6c0.9,2.6,1,5.4,1.1,8.1c0.1,2.9,0.1,5.8,0,8.8
				c-0.1,1.6-0.8,4.4,0.5,5.8c0.9,0.9,2.9,0.9,3.5-0.4c0.9-1.8,0.2-4.6,0-6.5c-0.5-3.1-0.6-5.9,0.1-9
				C118.8,156.6,119.7,154.2,120.4,151.6z"/>
			<path class="st5" d="M120.2,103.3c-0.4-4.7-0.4-9.5-0.4-14.2c0.1-9.7,0-19.4-0.2-29c-0.1-5.5-0.3-11-0.6-16.4
				c0-0.2-0.1-0.3-0.3-0.3c-1.5,0.1-3,0.1-4.5,0.2c-0.4,0-0.4,0.5-0.1,0.6c-0.5,18.9-0.5,37.9-0.9,56.8c-0.1,5.4-0.2,10.8-0.4,16.2
				c0,0.2,0.1,0.3,0.3,0.3c2.9,0.1,5.7,0.3,8.6,0.5c0.1,0,0.3-0.1,0.3-0.3C121.2,112.8,120.6,108,120.2,103.3z"/>
			<path class="st5" d="M113.2,41.4c-0.1-0.2-0.2-0.2-0.4-0.2h-0.1c-1.1,0.1-3.1,0.7-4.1,0c-0.5-0.3-0.6-1-1.1-1.3
				c1.1,0.2,2.2-0.1,2.3-1.2c1,0.1,2.1,0.1,3.1,0.2c0.1,0,0.3-0.1,0.3-0.3c0-0.6-0.1-1-0.2-1.5c0-0.1-0.1-0.1-0.2-0.1l0,0
				c-0.9,0-3,0.5-3.8-0.2c-0.4-0.4-0.3-1-1.1-1.1c-1.1-0.1-2.4,1.2-2.4,2.2c0,0.7,0.6,1.3,1.3,1.7c-1.8,0-2.6,2.9-1.7,4.2
				c0.4,0.7,1.4,1.1,2.1,1.1c1,0,1.3-0.6,1.8-1.3C110.3,42,114.4,44.9,113.2,41.4z"/>
			<path class="st5" d="M123.3,34.4c-1.1-0.2-2,0.5-2,1.6c-1-0.1-1.9-0.1-2.9-0.2c-0.2,0-0.3,0.2-0.2,0.4c0.1,0.5,0.1,0.9,0.1,1.4
				c0,0.1,0.1,0.3,0.3,0.3c0.8-0.1,1.7-0.1,2.5-0.1c0.3,2.5,3.9,1.8,4-0.7C125.1,35.8,124.5,34.6,123.3,34.4z"/>
			<path class="st5" d="M123.3,39.4c-1,0.1-1.8,0.3-2.8,0.2c-0.7-0.1-1.2-0.2-1.9,0c-0.2,0-0.2,0.2-0.1,0.3c0,0.4,0,0.9,0.1,1.3
				c0,0.1,0.1,0.2,0.3,0.2c0.9-0.1,2-0.4,3-0.1c0.6,0.2,1.1,0.4,1.8,0.3s2.2-0.5,2.1-1.5C125.7,39,123.9,39.3,123.3,39.4z"/>
			<path class="st6" d="M123.1,131.4c-0.4-0.5-0.9-1.5-1.5-1.7c-0.7-0.3-1.8,0-2.5,0c-2.2,0-4.4-0.1-6.7-0.1c-0.1,0-0.2,0.1-0.2,0.2
				c-0.8,0.4-1.7,1-2.5,1.5c-0.2,0.1-0.1,0.4,0.1,0.4c2,0.7,4.5,0.7,6.7,0.6c1.2-0.1,2.4-0.4,3.6-0.4c1,0,1.9,0.3,2.9-0.1
				C123.2,131.7,123.2,131.6,123.1,131.4z"/>
			<g>
				<g>
					<path class="st6" d="M113.8,147.1c-0.2-0.3-0.7-0.1-0.7,0.3c-0.1,0.4,0.3,0.7,0.7,0.5C114.1,147.7,114,147.3,113.8,147.1
						c-0.5-0.1-0.9,0.3-0.8,0.7c0,0.1,0.1,0.2,0.3,0.2c0.5,0,0.8-0.8,0.3-1s-1.2,0.3-0.8,0.8c0.3,0.4,1.1,0.2,1.1-0.3
						s-0.7-0.5-0.7,0c0,0.4,0.5,0.3,0.5,0c0,0,0,0,0-0.1c0,0.1-0.1,0.2-0.1,0.2l0,0c-0.1,0-0.2-0.1-0.2-0.1v0.1c0-0.1,0-0.2,0-0.3
						c-0.1,0-0.2,0-0.1,0.1c0.1,0,0.2,0.1,0.2,0.1s0,0,0.1-0.1C113.8,147.5,113.9,147.2,113.8,147.1L113.8,147.1z"/>
				</g>
			</g>
			<g>
				<g>
					<path class="st6" d="M115,147.3c-0.1,0.2-0.1,0.3,0,0.5c0.1,0.1,0.1,0.1,0.2,0.1c0.4,0,0.6-0.4,0.5-0.7c0-0.2-0.1-0.3-0.3-0.3
						c-0.5,0-0.7,0.4-0.5,0.8c0.1,0.1,0.2,0.2,0.3,0.2c0.5,0,0.9-0.7,0.3-1c-0.5-0.2-0.9,0.5-0.5,0.8s1-0.1,0.7-0.5
						c-0.3-0.5-0.9-0.2-0.8,0.3c0,0.2,0.3,0.3,0.5,0.1l0.1-0.1c-0.1,0-0.2,0.1-0.3,0.1c0.1,0,0.1,0,0.2,0c-0.1,0-0.2,0-0.3,0v-0.1
						C115.1,147.4,115.1,147.3,115,147.3C115.1,147.2,115.1,147.2,115,147.3c0.1,0,0.2-0.1,0.3-0.1h-0.1c0.1,0.1,0.2,0.1,0.3,0.2
						v-0.1c0,0.1,0,0.2,0,0.3l0,0c-0.1-0.1-0.2-0.1-0.3-0.2l0,0c0.1,0,0.2,0,0.3,0.1c0,0,0,0,0.1,0C115.6,147.2,115.1,147,115,147.3
						L115,147.3z"/>
				</g>
			</g>
			<g>
				<g>
					<path class="st6" d="M117.3,146.9c-0.3-0.1-0.6,0.2-0.4,0.5c0.2,0.3,0.6,0.2,0.7-0.1c0-0.1,0-0.3-0.1-0.4
						c-0.5-0.3-1.2,0.3-0.7,0.7c0.4,0.4,1.2-0.2,0.9-0.7c-0.3-0.6-1.2-0.2-1.2,0.4c0,0.7,0.9,0.6,1.1,0c0-0.1,0-0.3-0.1-0.4
						c-0.2-0.1-0.3-0.2-0.5-0.1c-0.5,0.1-0.3,0.8,0.2,0.7c0,0,0,0,0.1,0c-0.1,0-0.2-0.1-0.4-0.1l0,0c0-0.1-0.1-0.2-0.1-0.4
						c0.1,0,0.1,0,0.2,0c0.1,0.1,0.2,0.2,0.3,0.3c-0.1,0-0.1,0-0.2,0.1c0-0.1-0.1-0.2-0.1-0.3l0,0c0.1,0,0.2,0.1,0.3,0.1
						c0,0-0.1,0-0.1-0.1c0,0.1,0.1,0.2,0.1,0.3l-0.1,0.1c-0.1-0.1-0.2-0.2-0.2-0.3v0.1c0-0.1,0.1-0.2,0.1-0.3
						c0.1,0.1,0.1,0.1,0.2,0.2C117.5,147.1,117.5,146.9,117.3,146.9L117.3,146.9z"/>
				</g>
			</g>
			<g>
				<g>
					<path class="st6" d="M118.9,146.9C118.9,146.9,118.8,146.9,118.9,146.9c-0.2,0.1-0.2,0.3-0.1,0.4c0,0,0,0.1,0.1,0.1
						c0.1,0.1,0.2,0.2,0.3,0.2c0.4,0,0.6-0.4,0.5-0.8c0-0.1-0.1-0.2-0.2-0.2c-0.5-0.1-0.9,0.4-0.7,0.9c0.3,0.5,1,0.1,1.1-0.3
						c0.2-0.5-0.2-1-0.7-0.8s-0.6,0.9-0.2,1.2c0.3,0.2,0.7-0.2,0.5-0.5l0,0c-0.1,0-0.2,0-0.3,0C119.1,147,119,146.9,118.9,146.9
						c0.2,0,0.3,0.1,0.5,0.1c0,0.1,0,0.1,0,0.2C119.3,147.1,119.1,147.1,118.9,146.9c0.1,0.1,0.1,0,0.2,0s0.2,0.1,0.3,0.1l0,0
						C119.2,146.8,119,146.7,118.9,146.9L118.9,146.9z"/>
				</g>
			</g>
		</g>
		<g id="Слой_52__x28_копия_x29__1_">
			<g>
				<g>
					<path class="st7" d="M113.4,147.3c0.3-19.1,0.5-38.2,0.8-57.3c0.1-9.1,0.8-18.1,0.8-27.2c0-4.5,0-9-0.1-13.6
						c0-1.9,0.6-5.4-1.7-6.3c-0.1,0-0.1,0.1,0,0.2c2.3,0.9,1.6,5.2,1.6,7.1c0,2.3,0,4.5,0,6.8c0,4.1,0.1,8.2-0.1,12.4
						c-0.5,8.3-0.6,16.5-0.7,24.8C113.8,111.9,113.5,129.6,113.4,147.3C113.3,147.3,113.4,147.3,113.4,147.3L113.4,147.3z"/>
				</g>
			</g>
			<g>
				<g>
					<path class="st7" d="M115.3,147.1c0.1-9.6,0.4-19.2,0.4-28.7c0-4.9-0.5-9.7,0.1-14.6c0.5-4.3,0.6-8.7,0.6-13.1
						c0.1-9.7,0.2-19.4,0.2-29.2c0-4.9,0.2-9.9,0-14.8c-0.1-3.3-0.7-6.4-3.3-8.6c-0.1-0.1-0.2,0-0.1,0.1c3.9,3.3,3.3,8.8,3.3,13.4
						s0,9.2,0,13.8c0,9.4,0,18.8-0.2,28.2c-0.1,4.5-0.6,8.9-1,13.4c-0.3,4.2,0.3,8.5,0.2,12.8C115.5,128.9,115.4,138,115.3,147.1
						C115.3,147.2,115.3,147.2,115.3,147.1L115.3,147.1z"/>
				</g>
			</g>
			<g>
				<g>
					<path class="st7" d="M117.2,146.9c0.4-18.2,0.6-36.4,0.6-54.5c0-8.9,0.1-17.8,0-26.8c0-9.3-0.9-19,0.5-28.1
						c0-0.1-0.1-0.1-0.1,0c-1.3,8.6-0.5,17.5-0.5,26.2c0,9.3,0,18.5,0,27.8C117.6,109.9,117.3,128.4,117.2,146.9
						C117.1,146.9,117.2,146.9,117.2,146.9L117.2,146.9z"/>
				</g>
			</g>
			<g>
				<g>
					<path class="st7" d="M119.2,146.7c0.1-17.5,0.1-35,0.1-52.5c0-17.8,0-35.6-1.1-53.3c0-0.1-0.2-0.1-0.1,0
						C120.1,76.1,119.1,111.5,119.2,146.7C119.1,146.8,119.2,146.8,119.2,146.7L119.2,146.7z"/>
				</g>
			</g>
		</g>
		<g id="Слой_55__x28_копия_x29__1_">
			<path class="st5" d="M148.5,72.3c-0.1-0.6-0.2-1.2-0.3-1.8s-0.2-1.3-0.4-1.8c-0.2-0.4-0.5-0.6-0.9-0.2c-0.2,0.2-0.3,0.6-0.4,0.9
				c-0.2,0.7-0.3,1.2-0.9,1.7c-0.6,0.5-1.1,0.9-1.3,1.7c-0.3,0.9-0.1,1.7,0.2,2.5c0.1,0.4,0.2,1.4,0.9,1.3c0.1,0,0.1-0.1,0.1-0.1
				c0-0.2,0.1-0.4,0.2-0.5c0-0.1,0-0.1,0-0.2l0,0c0-0.1,0-0.2,0-0.3s0-0.2,0-0.3l0,0c0.3-0.7,0.6-0.8,1.1-0.9c0.4-0.1,0.8,0,1.2-0.2
				C148.6,73.7,148.6,73,148.5,72.3z"/>
			<path class="st3" d="M162.2,172.9c-0.1-0.6-0.2-1.1-0.4-1.7c-0.1-0.6-0.1-1.3-0.4-1.8c-0.3-0.6-1-0.6-1.4-0.1
				c-0.3,0.4-0.3,0.8-0.3,1.2c0,0.3,0.7,1.9,0.2,2c-0.2,0-0.5-0.4-0.6-0.6c-0.1-0.2-0.1-0.4-0.1-0.6c0-0.2-0.1-0.4-0.2-0.6
				c-0.2-0.4-0.5-0.5-0.9-0.5c-0.2-0.1-0.4,0.1-0.3,0.3c0.6,2.8,0,5.6,0.4,8.3c0.1,0.4,0.1,2.2,0.9,1.9c0.7-0.3,0.3-1.9,0.2-2.5
				c-0.1-0.8-0.3-1.9,0.6-2.4c0.5-0.2,1-0.2,1.5-0.5C162.3,174.9,162.3,173.8,162.2,172.9z"/>
			<path class="st7" d="M161.3,168.7c-0.1-0.4-0.1-0.8-0.2-1.2c-0.1-0.3-0.1-0.7-0.2-1c0-0.7,0-1.4-0.1-2c-0.2-0.9-0.2-1.8-0.4-2.6
				c-0.2-0.9-0.4-1.8-0.6-2.7c-0.2-0.6-0.3-1.3-0.5-1.9c0.1-0.1,0.1-0.2,0.1-0.3c-0.3-1.2-0.4-2.5-0.6-3.7c-0.2-1.3-0.4-2.6-0.5-3.9
				c0-0.6-0.1-1.2-0.1-1.8c-0.1-0.6-0.3-1.2-0.3-1.8c-0.1-0.7-0.1-1.4-0.2-2.1c0,0,0-0.1,0-0.2c-0.2-2.2-0.4-4.5-0.7-6.7
				c-0.1-1-0.4-2-0.6-3.1c-0.1-0.7-0.1-1.5-0.3-2.2c0,0,0,0,0-0.1c0-0.5-0.2-1.1-0.3-1.6c-0.1-0.7-0.2-1.4-0.2-2.1
				c-0.1-1.2-0.5-2.3-0.8-3.4c-0.4-2-0.1-4.3-0.7-6.3c0.1,0,0.1-0.1,0.1-0.2c-0.1-1-0.4-2-0.5-3c-0.2-1.2-0.3-2.3-0.4-3.5
				c-0.2-1.6-0.2-3.5-0.7-5.1c0.2-0.4,0-0.9,0-1.3c-0.1-0.5-0.1-1-0.2-1.6c-0.1-1-0.4-1.9-0.6-2.8c-0.5-1.8-0.6-3.7-0.9-5.6l0.1-0.1
				c0.1-1.3-0.2-2.7-0.4-4.1c-0.1-1.3-0.2-2.6-0.3-3.9c-0.1-1.3-0.2-2.6-0.4-3.9c-0.1-0.9-0.2-1.8-0.3-2.6l0,0
				c0.2-1.4-0.2-3-0.4-4.4c-0.1-0.6-0.1-2.6-1.2-2c-0.9,0.5-0.5,2.3-0.4,3.1c0.2,1.3,0.4,2.7,0.9,3.9c-0.2,0.9,0,1.8,0.1,2.7
				c0.2,1,0.4,2.1,0.6,3.1c0.2,1.1,0.3,2.2,0.4,3.3c0.1,0.7,0.2,1.4,0.3,2.1c-0.3,0.7,0,1.6,0.1,2.3c0.2,1.1,0.1,2.3,0.2,3.4
				c0.2,1.8,0.4,3.9,1,5.6c-0.2,0.7,0,1.6,0.2,2.3c0.2,1,0.5,1.9,0.6,2.9c0.1,0.9,0.1,1.8,0.2,2.8c0.1,0.7,0.3,1.5,0.4,2.2
				c-0.2,0.8,0,1.6,0.1,2.3c0.2,1.1,0.2,2.2,0.4,3.2s0.4,2,0.5,3c0.1,0.8,0.2,1.7,0.4,2.5c-0.3,0.7,0,1.8,0.1,2.5
				c0.2,1.1,0.5,2.2,0.8,3.3c0.5,2,0.3,4.2,0.7,6.3c0,0-0.1,0.1-0.1,0.2c0.1,1,0,2,0.2,3c0.2,1.2,0.5,2.4,0.7,3.5
				c0.2,1.2,0.2,2.4,0.3,3.6c0.1,0.8,0.1,1.8,0.4,2.6c-0.1,0.8,0.2,1.6,0.4,2.3c0.3,1.1,0.3,2.2,0.5,3.3c0.2,1.8,0.5,3.7,1.1,5.4
				c-0.2,0.8,0.1,1.7,0.2,2.4c0.2,1.1,0.3,2.2,0.3,3.3c0,0.5,0,1,0.1,1.5c0,0.4,0,0.9,0.2,1.2c0.3,0.5,0.9,0.3,1.3,0.1
				C161.3,169,161.3,168.9,161.3,168.7C161.3,168.9,161.3,168.8,161.3,168.7z"/>
			<path class="st7" d="M160.7,173.8c-0.2-0.3-0.5-0.4-0.8-0.2c-0.2,0.1-0.3,0.3-0.3,0.5c0,0,0,0.1,0,0.2c0,0.2,0.1,0.3,0.3,0.4l0,0
				c0.2,0.1,0.5,0.1,0.7,0C160.9,174.6,160.9,174.1,160.7,173.8z"/>
			<g>
				<g>
					<path class="st5" d="M144.8,73.7c-0.9,8.6,1.4,18,2.4,26.6c1.1,8.7,2.2,17.5,3.2,26.2c2.2,18.2,4.7,36.3,7.5,54.3
						c0.1,0.7,1.4,0.6,1.3-0.2c-2.4-18.3-4.6-36.7-6.9-55.1c-1.1-8.7-2.1-17.5-3.2-26.2c-1-8.4-2.9-17.2-3.1-25.6
						C146,72.9,144.9,72.9,144.8,73.7L144.8,73.7z"/>
				</g>
			</g>
		</g>
		<g id="Слой_54__x28_копия_x29__1_">
			<g>
				<g>
					<path class="st6" d="M108.8,80.8c-3,0.2-5.5,1.6-7.9,3.2c-2,1.4-3.9,2.7-4.8,5.1c-0.9,2.6-0.7,5.4-0.2,8
						c0.7,4.2,2.6,9.9,0.4,13.9c0,0.1,0.1,0.1,0.1,0.1c2.6-4.9-0.4-11.6-0.8-16.7c-0.3-3.7,0.7-6.9,3.7-9.2
						C102.2,83.1,105.2,81.3,108.8,80.8L108.8,80.8L108.8,80.8z"/>
				</g>
			</g>
			<g>
				<g>
					<path class="st6" d="M96.3,111.2c2.1,1.2,4.4,2.4,5.6,4.7c1.2,2.3,0.9,4.9,0.8,7.3c-0.1,2.7,0.1,5.3-1.3,7.7
						c-1.3,2.3-5,5.8-7.9,3.9c0,0-0.1,0,0,0.1c1.8,1.3,4.2,0.1,5.7-1.2c2.1-1.7,3.3-4.1,3.5-6.8c0.3-3.1,0.7-7.4-0.5-10.4
						C101.2,113.9,98.7,112.4,96.3,111.2C96.3,111.1,96.2,111.1,96.3,111.2L96.3,111.2z"/>
				</g>
			</g>
			<g>
				<g>
					<path class="st6" d="M124.8,80.9c5.7,3.3,11.2,7.1,10.9,14.4c-0.1,3.5-0.8,7-1.7,10.3c-0.6,2.2-1.2,4.2,0,6.2
						c0,0.1,0.1,0,0.1-0.1c-1.3-2.4-0.3-4.7,0.3-7.1c0.5-1.7,0.8-3.4,1.1-5.2c0.4-2.6,0.8-5.5,0.1-8
						C134.3,86.3,129.2,83.3,124.8,80.9L124.8,80.9L124.8,80.9z"/>
				</g>
			</g>
			<g>
				<g>
					<path class="st6" d="M133.7,111.9c-4.3,3-5.3,7.7-4.3,12.6c0.8,4.1,2.6,11.4,8.1,10.9c0.1,0,0.1-0.1,0-0.1
						c-5.5,0.1-7.1-6.6-8-10.9C128.5,119.6,129.5,115,133.7,111.9C133.8,112,133.7,111.9,133.7,111.9L133.7,111.9z"/>
				</g>
			</g>
			<g>
				<g>
					<path class="st6" d="M114.9,33.9c0.1-1,0.1-1.9-0.1-2.9c-0.1-0.6-0.3-1.1-0.4-1.7c-0.1-0.6-0.2-4,1.5-2.4
						c0.3,0.3,0.3,1.3,0.4,1.6c0.1,0.7,0.2,1.4,0.2,2.1c0,1.1,0,2.2-0.1,3.3c0,0.1,0.1,0.1,0.1,0c0.3-1.6,0.3-3.3,0-4.9
						c-0.1-0.7-0.1-2.7-1.1-2.8c-0.8-0.1-1.3,0.9-1.4,1.5c-0.1,0.7,0.3,1.5,0.4,2.2C114.7,31.3,114.8,32.6,114.9,33.9
						C114.9,34,114.9,34,114.9,33.9L114.9,33.9z"/>
				</g>
			</g>
			<g>
				<g>
					<path class="st6" d="M113.5,28.5c-0.4-0.2-0.8,0-0.8,0.5c0,0.3,0.1,0.5,0.2,0.7c0.2,0.7,0.3,1.2,0.4,1.9c0.1,1,0.1,2,0.2,3.1
						c0,0.1,0.1,0.1,0.1,0c0-1.1-0.1-2.2-0.2-3.3c0-0.3,0-0.7-0.1-1c0-0.1-0.1-0.3-0.1-0.4C112.8,29.5,112.9,29,113.5,28.5
						C113.5,28.6,113.5,28.5,113.5,28.5L113.5,28.5z"/>
				</g>
			</g>
			<g>
				<g>
					<path class="st6" d="M112.6,30.2c-0.3-0.6-1,0.1-1,0.6c-0.1,0.6,1,0.7,1.4,0.4v-0.1c-0.3,0.1-0.6,0.1-0.8,0s-0.3-0.3-0.3-0.4
						C111.7,30.3,112.3,29.9,112.6,30.2L112.6,30.2L112.6,30.2z"/>
				</g>
			</g>
			<g>
				<g>
					<path class="st6" d="M117.2,28.6c1.2-0.3,0.6,3.5,0.6,4c-0.1,1-0.1,1.9,0.2,2.9c0,0.1,0.1,0,0.1,0c-0.2-1.1-0.2-2.2-0.1-3.4
						c0.1-0.9,0.3-1.8,0.1-2.7C118,28.8,117.7,28.3,117.2,28.6L117.2,28.6C117.1,28.7,117.1,28.7,117.2,28.6L117.2,28.6L117.2,28.6z
						"/>
				</g>
			</g>
			<g>
				<g>
					<path class="st6" d="M118.7,29.6c0.7,0,0.4,0.8,0.3,1c-0.1,0.2-0.2,0.4-0.3,0.7c0,0.1,0.1,0.1,0.1,0.1
						C119.1,31,119.7,29.3,118.7,29.6L118.7,29.6L118.7,29.6z"/>
				</g>
			</g>
		</g>
	</g>
</g>
<g id="Слой_46">
	<g id="Слой_48">
	</g>
	<g id="Слой_47">
	</g>
	<g id="Слой_49">
	</g>
	<g id="Слой_50">
	</g>
	<g id="Слой_51">
	</g>
	<g id="Слой_52">
	</g>
	<g id="Слой_53">
	</g>
	<g id="Слой_54">
	</g>
	<g id="Слой_55">
	</g>
</g>
<g id="Слой_46__x28_копия_x29_">
	<g id="Слой_48__x28_копия_x29_">
	</g>
	<g id="Слой_47__x28_копия_x29_">
	</g>
	<g id="Слой_49__x28_копия_x29_">
	</g>
	<g id="Слой_50__x28_копия_x29_">
	</g>
	<g id="Слой_51__x28_копия_x29_">
	</g>
	<g id="Слой_52__x28_копия_x29_">
	</g>
	<g id="Слой_53__x28_копия_x29_">
	</g>
	<g id="Слой_55__x28_копия_x29_">
	</g>
	<g id="Слой_54__x28_копия_x29_">
	</g>
</g>
<g id="Слой_66">
	<g id="Слой_67">
	</g>
	<g id="Слой_68">
	</g>
	<g id="Слой_70">
	</g>
	<g id="Слой_69">
	</g>
</g>
<g id="Слой_72">
	<g id="Слой_75">
	</g>
	<g id="Слой_73">
	</g>
	<g id="Слой_74">
	</g>
	<g id="Слой_76">
	</g>
	<g id="Слой_77">
	</g>
	<g id="Слой_79">
	</g>
	<g id="Слой_78">
	</g>
</g>
<g id="Слой_89">
</g>
<g id="Слой_88">
	<g id="Слой_90">
	</g>
	<g id="Слой_92">
	</g>
</g>
<g id="Слой_93">
	<g id="Слой_91">
	</g>
	<g id="Слой_94">
	</g>
	<g id="Слой_95">
	</g>
</g>
<g id="Слой_98" class="st0">
</g>
<g id="Слой_80" class="st0">
	<g id="Слой_82" class="st1">
	</g>
	<g id="Слой_86" class="st1">
	</g>
	<g id="Слой_83" class="st1">
	</g>
	<g id="Слой_85" class="st1">
	</g>
	<g id="Слой_84" class="st1">
	</g>
	<g id="Слой_96" class="st1">
	</g>
	<g id="Слой_97" class="st1">
	</g>
	<g id="Слой_81" class="st1">
	</g>
</g>
<g id="Слой_71" class="st0">
</g>
<g id="Слой_117" class="st0">
	<g id="Слой_118" class="st1">
	</g>
	<g id="Слой_71__x28_копия_x29_" class="st1">
	</g>
	<g id="Слой_22__x28_копия_x29_" class="st1">
	</g>
</g>
</svg>
