<?xml version="1.0" encoding="utf-8"?>
<!-- Generator: Adobe Illustrator 21.1.0, SVG Export Plug-In . SVG Version: 6.00 Build 0)  -->
<svg version="1.1" id="Слой_1" xmlns="http://www.w3.org/2000/svg" xmlns:xlink="http://www.w3.org/1999/xlink" x="0px" y="0px"
	 viewBox="0 0 236.5 232.3" style="enable-background:new 0 0 236.5 232.3;" xml:space="preserve">
<style type="text/css">
	.st0{display:none;}
	.st1{display:inline;}
	.st2{fill:#DEDEDE;}
	.st3{fill:#5B4069;}
	.st4{fill:#312637;}
	.st5{fill:#9261A8;}
	.st6{fill:#4E3A5A;}
</style>
<g id="Слой_1_1_">
</g>
<g id="Слой_116" class="st0">
</g>
<g id="Слой_27__x28_копия_x29_">
	<g id="Слой_28__x28_копия_x29_">
	</g>
	<g id="Слой_30__x28_копия_x29_">
	</g>
	<g id="Слой_29__x28_копия_x29_">
	</g>
	<g id="Слой_109">
	</g>
	<g id="Слой_32__x28_копия_x29_">
	</g>
	<g id="Слой_31__x28_копия_x29_">
	</g>
</g>
<g id="Слой_16">
</g>
<g id="Слой_34__x28_копия_x29_">
	<g id="Слой_35__x28_копия_x29_">
	</g>
	<g id="Слой_36__x28_копия_x29_">
	</g>
	<g id="Слой_37__x28_копия_x29_">
	</g>
	<g id="Слой_38__x28_копия_x29_">
	</g>
	<g id="Слой_115">
	</g>
</g>
<g id="Слой_17">
</g>
<g id="Слой_9">
	<g id="Слой_10">
	</g>
	<g id="Слой_11">
	</g>
</g>
<g id="Слой_9__x28_копия_x29_">
	<g id="Слой_10__x28_копия_x29_">
	</g>
	<g id="Слой_11__x28_копия_x29_">
	</g>
</g>
<g id="Слой_2">
	<g id="Слой_3">
	</g>
	<g id="Слой_5">
	</g>
	<g id="Слой_4">
	</g>
	<g id="Слой_6">
	</g>
	<g id="Слой_7">
	</g>
</g>
<g id="Слой_8">
</g>
<g id="Слой_93__x28_копия_x29_">
	<g id="Слой_91__x28_копия_x29_">
	</g>
	<g id="Слой_94__x28_копия_x29_">
	</g>
	<g id="Слой_95__x28_копия_x29_">
	</g>
	<g id="Слой_102">
	</g>
</g>
<g id="Слой_12">
</g>
<g id="Слой_33">
</g>
<g id="Слой_18" class="st0">
	<g id="Слой_19" class="st1">
	</g>
	<g id="Слой_20" class="st1">
	</g>
	<g id="Слой_23" class="st1">
	</g>
	<g id="Слой_25" class="st1">
	</g>
	<g id="Слой_24" class="st1">
	</g>
	<g id="Слой_21" class="st1">
	</g>
	<g id="Слой_22" class="st1">
	</g>
	<g id="Слой_26" class="st1">
	</g>
</g>
<g id="Слой_27">
	<g id="Слой_28">
	</g>
	<g id="Слой_30">
	</g>
	<g id="Слой_29">
	</g>
	<g id="Слой_32">
	</g>
	<g id="Слой_31">
	</g>
</g>
<g id="Слой_34">
	<g id="Слой_35">
	</g>
	<g id="Слой_36">
	</g>
	<g id="Слой_37">
	</g>
	<g id="Слой_38">
	</g>
</g>
<g id="Слой_39">
	<g id="Слой_40">
	</g>
	<g id="Слой_41">
	</g>
	<g id="Слой_42">
	</g>
	<g id="Слой_12_3_">
		<circle class="st2" cx="118.6" cy="117.9" r="112.2"/>
	</g>
	<g id="Слой_33_3_">
		<g>
			<g>
				<path class="st3" d="M104.3,3.3c-10-1.4-19.4,3.9-28,8.4c-10.4,5.5-21.6,9.9-30.9,17.4C26.7,44,11.3,64,5,87.3
					c-3.4,12.7-5.7,26-4.8,39.2s5.6,24.6,11.3,36.5c10.4,21.7,23.2,41.6,45.4,52.7c11.6,5.8,24.6,11.7,37.4,14.3
					c12.9,2.6,26.6,2.3,39.7,2.3c13,0,26.2-1.7,37.6-8.2c9.7-5.5,18.2-12.9,25.9-21c32.2-33.6,48.8-80.2,33-125.7
					c-4.6-13.2-11.4-24.7-21.7-34.4c-10.4-9.7-22.7-16.7-34.4-24.7c-5.7-3.9-11.4-7.8-17.8-10.6c-6.8-3-13.9-4.3-21.3-5.2
					c-8-0.9-16.1-1.2-24.1-2c-7.4-0.8-13.7-0.6-21,0.9c-5.8,1.2-4.6,11.2,1.4,10.4c12-1.5,24.2,0.8,36.2,1.7s22.4,3,32.7,9.4
					c9.6,6,19.3,12.4,28.4,19.1c8.8,6.5,17.3,14.1,22.6,23.8c5.4,9.7,8.3,21.2,11,31.9c2.3,9.5,2.5,19.6,1.2,29.3
					c-2.5,20-11.3,39-23.2,55.1c-11.7,15.7-29.4,32-49.1,36.2c-11.4,2.4-23.3,1.3-34.8,1c-12.2-0.3-23.7-0.1-35.3-4.7
					c-11.3-4.5-23-9-32.4-16.7c-8-6.6-14.3-14.8-19.7-23.6c-5.5-9.1-10.9-18.9-14.9-28.8C9.6,134.2,8.7,122,9.8,110
					c1.2-12.8,4.3-26.1,10-37.7c5.5-11.4,13.1-22,21.1-31.7c8.1-9.9,19.7-15.5,30.9-21.1c9.8-4.9,20.6-13.2,32-13.2
					C105.5,6.3,106,3.5,104.3,3.3L104.3,3.3z"/>
			</g>
		</g>
	</g>
	<g id="Слой_43_1_">
		<g id="Слой_44_1_">
			<path class="st4" d="M150.6,57.1c-5.5-15.8-28.2-18.1-41.8-13.4c-2.8,1-3.3,3.8-2.4,5.9c-0.7,1.2-1.2,2.6-1.6,4
				c-2.1,7.8-3.9,15.7-6,23.5c-2.1,7.5-4.3,15.7-2.8,23.5c1.3,6.8,6.3,12.1,12.4,14.9c7,3.2,14.7,3,22.2,2.2
				c3.5-0.4,7.5-0.4,9.6-3.7c2-3.3,2.9-7.8,3.9-11.4c2.1-7.6,3.7-15.3,5.1-23.1C150.3,72.5,153,64.1,150.6,57.1z"/>
		</g>
		<g id="Слой_45_1_">
			<g>
				<g>
					<path class="st5" d="M112,50.2c-2.6,7.9-3.5,16.6-5.2,24.7s-2.8,16.3-4.1,24.5c-0.2,1.5,2,2.1,2.3,0.6
						c1.8-8.4,3.6-16.8,4.8-25.3c1.2-8,3.3-16.2,3.5-24.3C113.3,49.6,112.2,49.5,112,50.2L112,50.2z"/>
				</g>
			</g>
			<g>
				<g>
					<path class="st5" d="M107.3,44.3c-3,2.4-4.6,5.3-5.6,8.9c-0.2,0.7,0.6,1.7,1.3,1.3c3.4-1.4,8.7-0.8,12.4-0.7
						c4.3,0.2,8.5,0.7,12.7,1.6c7.6,1.6,16.2,4,22.5,8.6c0.9,0.7,1.8-0.6,1.4-1.4c-1.5-3.1-5.9-4.2-8.9-5.5c-4.9-2-9.9-3.6-15.1-4.6
						c-4.4-0.8-9-1.3-13.5-1.4c-3.9-0.1-8.8-0.5-12.3,1.4c0.5,0.4,1.1,0.8,1.6,1.2c0.8-3.3,2.3-6.3,4-9.2
						C107.9,44.3,107.5,44.1,107.3,44.3L107.3,44.3z"/>
				</g>
			</g>
			<g>
				<g>
					<path class="st5" d="M116.4,41.4c-2-1.5-4.8,0.7-6.1,2.1c-0.8,0.8-1.5,1.7-1.9,2.8c-0.7,1.5-0.7,3.2-1.5,4.7
						c-0.7,1.3,1.2,2.4,1.9,1.1c0.9-1.8,1-3.8,1.8-5.7c0.5-1.1,1.1-2.1,2.1-2.8c1.2-0.9,2.3-1.1,3.7-1.5
						C116.7,42.1,116.7,41.6,116.4,41.4L116.4,41.4z"/>
				</g>
			</g>
			<g>
				<g>
					<path class="st5" d="M104.1,48.4c-0.9,1-1.3,3.5,0.1,4.2c0.6,0.4,1.7,0.4,2.4,0.3c1-0.1,1.4-0.9,1.8-1.7
						c0.7-1.2-1.1-2.3-1.9-1.1c-0.2,0.2-0.3,0.6-0.5,0.8c0.2-0.1,0.3-0.2,0.5-0.3c-0.2,0.1-0.6,0-0.8,0s-0.3,0-0.5,0s-0.3,0-0.1,0
						c0.1,0.1,0.2,0.3,0.3,0.4c-0.3-0.8-0.1-1.8-0.4-2.6C104.9,48.3,104.4,48.1,104.1,48.4L104.1,48.4z"/>
				</g>
			</g>
			<g>
				<g>
					<path class="st5" d="M109.6,47c-2.3,1.3-1.8,7,1.6,5.5c1.8-0.8,2.1-2.5,2.5-4.2c0.4-1.8,1.5-3.4,2.9-4.5s2.9-1.2,4.6-1.8
						c0.4-0.1,0.4-0.6,0-0.7c-2.5-1-5.4,1.1-6.8,3.1c-1,1.4-1.5,3.4-2.8,4.6c-0.2,0.2-0.3,0.5-0.4,0.7c-1,0.4-1.4,0.1-1.1-0.9
						c-0.1-1.1,0.2-0.8-0.3-1.7C109.7,47,109.6,47,109.6,47L109.6,47z"/>
				</g>
			</g>
			<g>
				<g>
					<path class="st5" d="M127.6,41.9c-3-1.3-6.5-1.4-8.4,1.5c-0.6,0.8-1,1.8-1.4,2.7c-0.4,0.8-0.5,2.2-1,2.9
						c-1.9,2.4-2,0.7-3.5,0.5c-0.6-0.1-1.1,0.6-1.1,1.1c0,0.1,0,0.2,0,0.3c0,0.4,0.2,0.9,0.6,1.1c2,1,5.1,1,6-1.4
						c0.7-2,0.7-4.6,2-6.4c1.7-2.4,4.6-0.9,6.9-1.4C128.1,42.7,128,42,127.6,41.9L127.6,41.9z"/>
				</g>
			</g>
			<g>
				<g>
					<path class="st5" d="M136.3,43.6c-2.6-1.2-7.6-2.8-10.2-0.9c-1.2,0.9-1.7,2.3-2.2,3.6c-0.9,2.3-2.3,4.6-2.6,7.1
						c-0.1,0.7,0.9,1,1.4,0.6c1.9-1.9,2.5-5,3.4-7.5c1.5-4.2,6.7-1.8,10.1-2.2C136.4,44.3,136.7,43.8,136.3,43.6L136.3,43.6z"/>
				</g>
			</g>
			<g>
				<g>
					<path class="st5" d="M117.3,50c-0.7,1.1,0.7,2.3,1.6,2.7c1.5,0.6,2.9,0.2,4.1-0.7c1.1-0.8-0.4-2.3-1.5-1.5
						c-0.7,0.6-1.6,0.6-2.3,0.2c-0.5-0.3-1-0.7-1.6-0.8C117.5,49.9,117.4,49.9,117.3,50L117.3,50z"/>
				</g>
			</g>
			<g>
				<g>
					<path class="st5" d="M142.6,47.4c-2.2-1.6-6.5-2.2-9.1-1.2c-3.1,1.2-4.8,8.8-9.5,4.3c-0.4-0.4-1.4-0.2-1.3,0.5
						c0.3,2.7,4.1,2.9,6.1,2.1c2-0.8,2.3-2.4,3.8-3.8c3-2.8,6.5-0.5,9.9-1.5C142.7,47.8,142.8,47.5,142.6,47.4L142.6,47.4z"/>
				</g>
			</g>
			<g>
				<g>
					<path class="st5" d="M130.1,42.7c-1.5,0-3.1,1.2-4.2,2.2c-1.2,1-2.4,2.3-2.6,3.9c0,0.4,0.5,0.5,0.7,0.3c1.1-1,1.7-2.3,2.8-3.3
						s2.5-1.5,3.6-2.4C130.6,43.2,130.4,42.7,130.1,42.7L130.1,42.7z"/>
				</g>
			</g>
			<g>
				<g>
					<path class="st5" d="M141.9,46.8c-4.3-4.7-12.4-5.9-18.5-5.9c-5.2,0-14.5-1.2-17.4,4.5c-0.3,0.5,0.3,1.1,0.8,0.8
						c9.7-5.6,25-4.6,34.3,1.8C141.7,48.4,142.4,47.4,141.9,46.8L141.9,46.8z"/>
				</g>
			</g>
			<g>
				<g>
					<path class="st5" d="M138.9,47.5c5.9,1.9,10.8,8.8,11.1,14.9c0.1,1.3,1.8,1.5,2.2,0.3c1.4-3.9-2.1-8.3-4.4-11.2
						c-2.2-2.9-5-5.3-8.8-5.2C138.4,46.3,138.3,47.3,138.9,47.5L138.9,47.5z"/>
				</g>
			</g>
			<g>
				<g>
					<path class="st5" d="M139.7,46.8c-1.7,1.5-2.5,3.2-3.1,5.4c-0.4,1.5,1.6,2.7,2.7,1.6c1.5-1.5,2.4-3.2,2.8-5.3
						c0.3-1.5-1.3-3.1-2.8-2.2c-2.9,1.9-4.4,4.6-4.5,8.1c-0.1,2.2,2.7,2.5,3.8,1c1.6-2.3,2.7-4.8,2.3-7.6c-0.1-0.7-0.8-1.3-1.5-1.5
						c-3.9-1.2-6.5,3.8-7.5,6.8c-0.7,1.9,2.1,3.5,3.4,2c1.4-1.6,2.3-3.2,2.9-5.2c0.3-1.3-0.6-2.5-1.9-2.6c-3.4-0.1-2.7,3.7-5.5,4.4
						c0.4,0.9,0.7,1.7,1.1,2.6c1-0.7,2-1,3.2-0.8c-0.1-0.9-0.3-1.8-0.4-2.8c-1.3,0.2-2.7,0.5-4,0.7c0.5,0.7,1.1,1.4,1.6,2.1
						c0,0.1,1.3-0.3,1.7-0.5c0.8-0.5,1.2-1.1,1.5-1.9c0.6-1.3-0.6-2.5-1.9-1.9c-0.7,0.3-1.3,0.6-2,0.9c0.7,0.6,1.3,1.3,2,1.9
						c0.4-0.4,0.8-0.8,1.2-1.1c-0.7-0.4-1.4-0.8-2.1-1.2c-0.2,1.6-0.8,3.9,1.4,4.4c2.2,0.6,3.7-2.2,4.5-3.8
						c-0.9-0.4-1.8-0.8-2.7-1.1c-0.2,1.8-1.3,5.5,1.6,5.6c2.4,0.1,4-3,4.8-4.9c0.5-1.3-1.3-2.6-2.4-1.8c-2.3,1.7-4.3,7.4-0.7,9
						c3.4,1.4,5.9-5.2,4.6-7.6c-0.3-0.5-0.9-0.8-1.4-0.8c-4-0.1-3.5,6.1-0.7,7.7c1.4,0.8,3.1,0.1,3.8-1.3c1-1.9,0-4-1.3-5.5
						c-0.9-1-3-0.2-2.8,1.2c0.2,1.7,0.5,3.2,1.5,4.6c1.2,1.8,3.2,2.6,4.6,4.2c0.8-0.8,1.5-1.5,2.3-2.3c-2.1-1.7-4.2-2.6-6.9-2.9
						c-1.3-0.1-2,1.7-1.1,2.6c1.5,1.4,5.1,3.8,7,1.9c2.1-2.1-1.6-5.4-2.8-6.9c-1.1-1.3-3.4,0.4-2.4,1.9c0.1,0.1,2.7,3.4,2.7,3.4
						c0.4-0.2,0.9-0.5,1.3-0.7c-1.4,0.2-2.8-0.7-3.7-1.6c-0.4,0.9-0.7,1.7-1.1,2.6c1.9,0.2,3.2,0.9,4.6,2.1c1.6,1.5,3.6-0.7,2.3-2.3
						c-1.9-2.3-4.8-3.1-5.1-6.6c-0.9,0.4-1.9,0.8-2.8,1.2c0.2,0,0.4,0,0.5,0.1c-0.5-0.3-1-0.5-1.4-0.8c0.4,0.7-1.5,3-1.9,3.3
						c0.5-0.1,1.1-0.3,1.6-0.4c-1.1-0.3,1.2-3.5,1.1-3.4c-0.9-0.5-1.8-1-2.7-1.6c-0.2,0.5-1.1,2.7-1.9,2.7c0.4,0.2,0.9,0.5,1.3,0.7
						c-0.4-0.5,0.1-2.4,0.2-3c0.2-1.5-2.1-2-2.7-0.7c-0.5,1-0.8,3.3-0.4,0.8c0.1-1.1-1.3-1.8-2.1-1.2c-1,0.6-1.6,1.2-2.2,2.2
						c-0.9,1.3,0.8,2.5,1.9,1.9c0.7-0.3,1.3-0.6,2-0.9c-0.6-0.6-1.3-1.3-1.9-1.9c-0.7,1.4-2.4,1-3.2,2.4c-0.7,1.1,0.4,2.3,1.6,2.1
						c1.3-0.2,2.7-0.5,4-0.7c1.6-0.3,1.2-2.7-0.4-2.8c-1.7,0-3.1,0.3-4.7,1.2c-1.2,0.7-0.7,2.8,0.7,2.7c1.3-0.1,2.4-0.4,3.5-1.1
						c0.4-0.3,2.2-2,1.7-2.1c-0.6-0.9-1.3-1.7-1.9-2.6c-0.4,1.4-0.9,2.3-1.9,3.4c1.1,0.7,2.3,1.3,3.4,2c0.2-0.5,1.7-4.1,2.4-3.9
						c-0.5-0.5-1-1-1.5-1.5c0.2,1.5-1,3.3-1.8,4.5c1.3,0.3,2.5,0.7,3.8,1c0.1-2,0.8-3.6,2.4-4.8c-1-0.5-1.9-1.1-2.9-1.6
						c-0.2,1.5-0.8,2.6-1.6,3.8c1,0.3,2,0.5,3,0.8c0.2-1.7,0.8-3,1.7-4.5C142.1,47.1,140.6,46,139.7,46.8L139.7,46.8z"/>
				</g>
			</g>
			<g>
				<g>
					<path class="st5" d="M138.7,46.9c0.8,0.3,1.6,0.6,2.3,1.1c0.6,0.5,1.1,1.3,1.9,1.4c0.3,0,0.5-0.2,0.5-0.5c-0.1-0.9-1.2-1.6-2-2
						c-0.8-0.5-1.7-0.8-2.6-0.7C138.5,46.4,138.4,46.8,138.7,46.9L138.7,46.9z"/>
				</g>
			</g>
			<g>
				<g>
					<path class="st5" d="M101.3,59.3c4.4,0.3,8.9,0.2,13.3,0.7s8.6,1.7,13,2c3.9,0.2,6.9,1.7,10.6,2.8c4.3,1.3,8.2,3,12.2,5.2
						c0.9,0.5,1.7-0.6,1.1-1.4c-2.4-2.9-6-4.4-9.5-5.5c-3.7-1.2-8-3.2-11.8-3.6c-4.6-0.5-9.1-1-13.7-1.6c-5.1-0.6-10.3-0.9-15.4,0.1
						C100.3,58.1,100.6,59.3,101.3,59.3L101.3,59.3z"/>
				</g>
			</g>
			<g>
				<g>
					<path class="st5" d="M100,64.4c8.5,2,17.2,0.8,25.8,2.5c4.3,0.9,8.1,2,12.2,3.7c4,1.6,7.8,2.3,11.6,4.7c1.3,0.8,2.5-1.2,1.2-2
						c-3.5-2.3-6.7-3.1-10.6-4.4c-4.4-1.5-8.2-3-12.8-3.9c-8.9-1.8-18-1.8-27.1-1.9C99.5,63.1,99.3,64.2,100,64.4L100,64.4z"/>
				</g>
			</g>
			<g>
				<g>
					<path class="st5" d="M99.4,68.4c-0.1,0-0.1,0.1-0.2,0.1c-0.4,0.2-0.4,0.7-0.1,1c1.7,1.5,5.8,0.4,8,0.6c4.9,0.6,10.1,0.9,15,1.8
						c4.4,0.9,9,1.8,13.3,3.1s9.8,2.9,13.4,5.6c1.1,0.8,2.5-1,1.4-1.9c-3-2.3-5.9-2.9-9.3-4.2c-4.7-1.7-9.3-2.9-14.3-3.9
						c-4.5-1-8.5-1-13.1-1.3c-3.8-0.2-10-2.9-13.4-0.1C100.7,68.9,100,68,99.4,68.4L99.4,68.4z"/>
				</g>
			</g>
			<g>
				<g>
					<path class="st5" d="M107.5,69.9c-0.4,0.2-0.7,0.3-0.9,0.7c-0.7,1.1-0.1,1.8-1.6,2.4c-1.7,0.8-3.9,1.1-5.7,0.4
						c-1-0.4-1.8,1.1-1,1.8c1.9,1.7,5.6,0.7,7.6-0.3c1.6-0.8,3.4-3.2,2-4.9C107.8,69.9,107.6,69.9,107.5,69.9L107.5,69.9z"/>
				</g>
			</g>
			<g>
				<g>
					<path class="st5" d="M100.7,75.1c0.9,0.9,2,0.7,3.1,1.1c0.5,0.2,1.1,0.9,1.5,1.3c0.5,0.7,0.4,1.5,0.4,2.3
						c-0.1,1-0.5,2.5,0.5,3.2c0.7,0.4,1.3,0.1,1.7-0.6c0.6-1,0.4-2.8,0.3-4s-0.5-2-1.3-2.8s-1.5-1.5-2.6-1.6
						c-1.1-0.2-2.4-0.2-3.5,0.3C100.5,74.5,100.4,74.9,100.7,75.1L100.7,75.1z"/>
				</g>
			</g>
			<g>
				<g>
					<path class="st5" d="M106.6,72.6c-0.7,0.8-1.1,1.8-1.4,2.8c-0.4,1.1,1.4,1.9,1.9,0.8c0.3-0.6,0.4-1.2,0.5-1.9
						c0.1-0.9-1-1.3-1.7-1c-0.4,0.2-0.9,0.5-1.2,0.9c-0.4,0.5-0.5,1.1,0,1.6c0.4,0.4,1.2,0.5,1.6,0c0.2-0.2,0.5-0.4,0.7-0.6
						c-0.6-0.3-1.1-0.6-1.7-1c0,0.4-0.1,0.7-0.2,1.1c0.7,0.2,1.3,0.4,2,0.6c0.2-0.9,0.5-1.8,0.6-2.7c0-0.3,0-0.6-0.3-0.8
						C107.2,72.3,106.8,72.3,106.6,72.6L106.6,72.6z"/>
				</g>
			</g>
			<g>
				<g>
					<path class="st5" d="M108.7,70.1c-1.8,6.8,6.9,7.6,11.7,8.1c4.5,0.4,9.5,1.2,13.9,2.4c4.1,1.1,9.8,2.5,13.4,5
						c1,0.7,2.2-0.9,1.3-1.7c-3.8-3.6-10.9-4.7-15.9-5.8c-4.5-0.9-23-1.4-22.7-7.7C110.5,69.4,109,69.2,108.7,70.1L108.7,70.1z"/>
				</g>
			</g>
			<g>
				<g>
					<path class="st5" d="M107.9,80.3c0.9-0.1,1.3-1.1,2-1.6c0.8-0.6,1.7-1.1,2.3-1.8c0.7-0.8,0.2-1.9-0.8-2c-0.4,0-0.8,0-1.2,0.1
						c-0.2,0.1-0.5,0.3-0.7,0.3c0.2,0,0.4,0,0.6,0l0,0c0.2,0.2,0.4,0.5,0.6,0.7c0,0,0,0,0,0.1c0.2-0.5-0.1-1.1-0.5-1.3
						c-0.5-0.3-0.8-0.3-1.4-0.2c-1.3,0.2-1,2.4,0.3,2.3c-0.1,0-0.1,0-0.2-0.1c-0.1-0.5-0.3-1.1-0.4-1.6c-0.4,0.9-0.4,1.9,0.6,2.4
						c0.4,0.2,0.9,0.2,1.3,0c0.4-0.1,0.5-0.4,0.9-0.3c-0.3-0.6-0.7-1.2-1-1.8c-0.5,0.7-1.4,1.2-2,1.7c-0.4,0.3-0.7,0.7-0.9,1.1
						c-0.1,0.2-0.2,0.4-0.3,0.6c0,0.1,0,0.3-0.1,0.4c0,0.4,0,0.3,0-0.1C107,79.7,107.4,80.4,107.9,80.3L107.9,80.3z"/>
				</g>
			</g>
			<g>
				<g>
					<path class="st5" d="M97.4,80.7c7.5,2.1,15.9,2.1,23.6,2.6c4.1,0.3,8.7,1.7,12.8,2.8c1.7,0.5,3.2,1.4,4.9,1.9
						c2.6,0.8,5,1.1,7.3,2.6c1.5,1,2.8-1.3,1.4-2.3c-3.3-2.3-7-2.8-10.7-4.2c-2.2-0.8-4.3-0.9-6.5-1.5c-2.1-0.5-3.8-1.6-6-1.9
						c-4.3-0.6-8.8-0.1-13.2-0.4c-4.4-0.3-9-1.1-13.4-0.8C97,79.6,96.8,80.5,97.4,80.7L97.4,80.7z"/>
				</g>
			</g>
			<g>
				<g>
					<path class="st5" d="M96.5,86.4c4.4,1.6,9.4,0.9,13.9,1.2c3.5,0.3,7.4,1.1,10.8,2c3.7,1,7.6,1.1,11.3,2.4
						c2.1,0.7,4.1,1.7,6.3,2.2c2.1,0.4,4.6-0.1,6.3,1.7c1.1,1.2,2.9-0.6,1.8-1.8c-2.6-3-7-2.1-10.5-3.4c-4.6-1.6-8.9-2.2-13.6-3.4
						c-3.5-0.9-7.1-1.8-10.7-2.2c-4.8-0.6-11-1.3-15.6,0C95.8,85.2,95.9,86.2,96.5,86.4L96.5,86.4z"/>
				</g>
			</g>
			<g>
				<g>
					<path class="st5" d="M95.1,91.3c7.9,2.2,16.1,2,24.1,3.3s18.4,1.4,25.5,5.3c1.6,0.9,3-1.5,1.4-2.4c-7.2-3.9-17.3-4-25.3-5.2
						c-8.5-1.3-17-1.5-25.5-2.5C94.4,89.7,94.3,91.1,95.1,91.3L95.1,91.3z"/>
				</g>
			</g>
			<g>
				<g>
					<path class="st5" d="M139.6,58.3c0.5,0.6,0.8,1.2,1,2c0.1,0.3,0.2,0.6,0.2,1c0.1,0.2,0.1,0.4,0.2,0.6c0.1,0.4,0.1,0.4,0.1,0.1
						c0.2-0.2,0.3-0.4,0.5-0.6c-0.1,0.1-0.5,0-0.7,0.1c-0.3,0.1-0.5,0.3-0.7,0.5c-0.4,0.4-0.3,1,0.2,1.3c0.7,0.4,1.6,0.3,2.2-0.1
						c0.6-0.4,0.6-1.1,0.3-1.8c-0.6-1.5-1.1-3.3-2.6-4.1C139.7,56.9,139.1,57.8,139.6,58.3L139.6,58.3z"/>
				</g>
			</g>
			<g>
				<g>
					<path class="st5" d="M147.5,59.8c-1.7-1.7-5.3,4.4-2.3,5.9c1,0.5,1.8-0.5,1.4-1.4c-0.2-0.4-0.4-0.7-0.3-1.2
						c0.1-0.6,0.4-1.1,0.7-1.7C147.2,61.1,147.9,60.3,147.5,59.8L147.5,59.8z"/>
				</g>
			</g>
			<g>
				<g>
					<path class="st5" d="M139.4,64.6c0.2,0.6,0.6,1.1,0.7,1.7c0.1,0.3,0.1,0.6,0.1,0.9c0,0.5,0,0.5-0.4,0.4c-0.3,0-0.8,0-1,0.3
						c-0.3,0.4-0.3,0.6-0.3,1c0.1,0.5,0.6,0.7,1,0.8c0.7,0.1,1.6,0.1,2.1-0.5c0.5-0.5,0.6-1.3,0.6-2c0-1.3-0.6-3-1.9-3.5
						C139.8,63.6,139.3,64.1,139.4,64.6L139.4,64.6z"/>
				</g>
			</g>
			<g>
				<g>
					<path class="st5" d="M138.5,69.6c0.3,0.5,0.5,1,0.7,1.6c0.1,0.3,0.1,1.5,0.3,1.6c-1.2-0.4-1.8,1.5-0.5,1.9c3.4,1,2.7-5,0.5-5.9
						C138.8,68.5,138.1,69,138.5,69.6L138.5,69.6z"/>
				</g>
			</g>
			<g>
				<g>
					<path class="st5" d="M138.5,73.9c-0.4,1,0.4,1.5,0.5,2.4c0,0.5-0.1,1.1-0.3,1.6c-0.1,0.2-0.1,0.7-0.3,0.9
						c0.2-0.2-0.1,0-0.3,0.1c-0.3,0.1-0.4,0.4-0.4,0.7v0.1c0,0.5,0.5,1,1,1c1.7,0,2-2.1,2.1-3.4c0.2-1.7-0.3-2.7-1.8-3.6
						C139,73.6,138.6,73.6,138.5,73.9L138.5,73.9z"/>
				</g>
			</g>
			<g>
				<g>
					<path class="st5" d="M138.1,75.6c-0.4,0.8,0.2,2.3,1.2,2.1c0.2,0,0.3-0.2,0.3-0.3c0.1-0.4,0-0.6-0.1-0.8
						c-0.1-0.1-0.2-0.2-0.2-0.3c-0.1-0.2-0.1-0.4-0.2-0.5C138.9,75.2,138.3,75.2,138.1,75.6L138.1,75.6z"/>
				</g>
			</g>
			<g>
				<g>
					<path class="st5" d="M145.2,65.2c-1.4,0.6-2.2,2.3-2.2,3.7c0,1.4,1,3.2,2.5,3.2c0.7,0,1-0.6,0.9-1.2c-0.2-1.1-1.2-1.3-1.2-2.5
						c0-1,0.3-2,0.3-3.1C145.5,65.2,145.3,65.1,145.2,65.2L145.2,65.2z"/>
				</g>
			</g>
			<g>
				<g>
					<path class="st5" d="M144.3,71.2c-1.1,0.2-1.8,1.5-2.1,2.5c-0.4,1.2,0,2.1,0.9,2.9c0.4,0.4,0.9,0.4,1.4,0.2l0,0
						c-0.2,0-0.5,0.1-0.7,0.1h0.1c0.4,0.1,0.9-0.1,1-0.6l0,0c0.3-0.4,0.2-1-0.2-1.4s-0.7-0.4-0.6-1.1c0.1-0.6,0.3-1.3,0.7-1.8
						C145.2,71.7,144.9,71.1,144.3,71.2L144.3,71.2z"/>
				</g>
			</g>
			<g>
				<g>
					<path class="st5" d="M144,76.4C144,76.3,144,76.3,144,76.4c-0.2-0.3-0.5-0.4-0.7-0.3c-2.6,0.7-3.6,6.2-0.5,6.9
						c1.3,0.3,1.9-1.3,0.9-2.1c-0.9-0.6-0.6-2-0.3-2.9C143.5,77.5,144.3,76.9,144,76.4L144,76.4z"/>
				</g>
			</g>
			<g>
				<g>
					<path class="st5" d="M136.5,81.1c0.2,0.2,0.4,0.5,0.4,0.8c0.1,0.4,0,0.8,0,1.1c0,0.2,0.2,0.6,0.2,0.8s-0.3,0.4-0.3,0.7
						s0,0.7,0.3,0.9c1.4,0.6,2.1-1,1.8-2.1c-0.3-1.2-0.2-2.8-1.7-3C136.7,80.1,136.2,80.6,136.5,81.1L136.5,81.1z"/>
				</g>
			</g>
			<g>
				<g>
					<path class="st5" d="M142.4,81.8c-1.2-0.2-2.2,1.1-2.5,2.1c-0.4,1.1-0.1,2.6,1,3.2c1.1,0.6,2.1-0.8,1.3-1.7
						c-0.9-1.1,0.7-1.9,0.6-3.1C142.7,82.1,142.6,81.8,142.4,81.8L142.4,81.8z"/>
				</g>
			</g>
			<g>
				<g>
					<path class="st5" d="M135.8,85.8c-0.1,0.8,1.6,3.8,0.2,4.2c-1.1,0.3-0.9,2,0.3,1.9c1.8,0,2.4-1.8,2.2-3.3
						c-0.1-1.2-0.5-3.4-2-3.5C136.1,85.1,135.8,85.5,135.8,85.8L135.8,85.8z"/>
				</g>
			</g>
			<g>
				<g>
					<path class="st5" d="M140.9,86.9c-1.2,0.2-1.6,1.6-1.8,2.7c-0.2,1.3,0.1,2.6,1.1,3.5c1.5,1.3,3.2-0.9,1.6-2.1
						c-0.5-0.4-0.6-1-0.6-1.7c0-0.5,0-1.3,0.2-1.8C141.6,87.2,141.3,86.9,140.9,86.9L140.9,86.9z"/>
				</g>
			</g>
			<g>
				<g>
					<path class="st5" d="M135.6,92.2c0.1,0.5,0.3,1,0.3,1.5c-0.1,0.5-0.4,0.8-0.6,1.3c-0.6,0.9,0.6,2,1.5,1.5
						c1.8-1.1,1.8-4.4-0.3-5.1C135.9,91.1,135.5,91.7,135.6,92.2L135.6,92.2z"/>
				</g>
			</g>
			<g>
				<g>
					<path class="st5" d="M140.1,92.3c-0.9-0.1-1.5,1.2-1.7,1.9c-0.2,0.9-0.2,2.1,0.6,2.7c0.4,0.3,1,0.5,1.4,0.2
						c0.4-0.2,0.7-0.9,0.5-1.3c-0.1-0.3-0.3-0.6-0.4-0.9c-0.1-0.3,0.1-0.7,0.1-1C140.8,93.3,141,92.4,140.1,92.3L140.1,92.3z"/>
				</g>
			</g>
			<g>
				<g>
					<path class="st5" d="M143.2,58.5c-1.8,2.3-1.7,4.5-2.1,7.3c-0.5,3.5-1.3,6.9-2.1,10.4c-1.5,6.4-3.5,14.2-2.8,20.8
						c0.2,1.3,1.8,1.6,2.3,0.3c1.4-3.6,1.6-7.7,2.4-11.6c0.7-3.4,1.5-6.8,2.3-10.2c1.1-4.9,3.7-12.5,0.5-17
						C143.7,58.4,143.4,58.3,143.2,58.5L143.2,58.5z"/>
				</g>
			</g>
			<g>
				<g>
					<path class="st5" d="M126.1,95v0.1c0,0.4,0.3,0.8,0.7,0.9c1.4,0.4,3.4,0.2,4.7,0.8s3.5,1.9,3,3.6c-0.1,0.4,0,0.9,0.3,1.2
						c0.2,0.2,0.3,0.3,0.5,0.3c0.6,0.1,1.3-0.2,1.5-0.8c0.6-2.3-0.7-4.1-2.5-5.3c-0.9-0.6-1.9-1.3-3-1.5c-1.4-0.3-2.9,0-4.3,0
						C126.6,94.3,126.2,94.6,126.1,95L126.1,95L126.1,95z"/>
				</g>
			</g>
			<g>
				<g>
					<path class="st5" d="M145.9,99.7c-1.2-1.2-3.8-1.7-5.5-1.9c-1.5-0.2-2.9,0.6-3.1,2.2c-0.3,3.4,3.9,6.1,6.9,6.4
						c1.3,0.2,1.6-2.1,0.3-2.3c-1.2-0.2-5.2-2.1-4.9-3.8c0.1-0.8,2.3,0.1,3,0.2c1,0.2,2,0.5,3,0.2
						C146.1,100.7,146.2,100.1,145.9,99.7L145.9,99.7z"/>
				</g>
			</g>
			<g>
				<g>
					<path class="st5" d="M94.7,95.9c-1.2,4.4,0.1,11.2,3.3,14.6c4.3,4.6,11.2,4.7,16.8,6.2c9.8,2.6,25.8,1.5,30.5-9.4
						c0.5-1.2-1.2-2.3-1.8-1.1c-5,9.8-18.1,10.3-27.6,8.7c-4.5-0.8-8.8-1-12.9-3.2c-5.4-3-8.2-9.7-7.4-15.7
						C95.5,95.5,94.8,95.4,94.7,95.9L94.7,95.9z"/>
				</g>
			</g>
			<g>
				<g>
					<path class="st5" d="M94.8,97.1c3.8,0.2,7.1,1.3,10.7,1.9c3.9,0.6,7.9,1,11.8,1.6c7,1.1,14,2.3,21,3.3c1.3,0.2,1.6-2,0.3-2.3
						c-8.1-1.6-16.3-2.7-24.4-3.9c-3.7-0.5-7.5-0.8-11.2-1.4c-2.9-0.5-5.5-1.2-8.3-0.1C94.2,96.4,94.3,97.1,94.8,97.1L94.8,97.1z"/>
				</g>
			</g>
			<g>
				<g>
					<path class="st5" d="M137.8,95.6c-1.4,1.9-2,4.8-1.5,7.1c0.1,0.6,0.7,1,1.3,1c0.1,0,0.2,0,0.4,0c0.4-0.1,0.9-0.5,1-1
						c0.2-1.2,0-2.4,0.1-3.5c0-1.2,0-2.2-0.2-3.3C138.8,95.4,138.1,95.2,137.8,95.6L137.8,95.6z"/>
				</g>
			</g>
			<g>
				<g>
					<path class="st5" d="M114.2,99c-2.1,4-1.3,8.9,1.2,12.6c2,2.9,6.7,6.9,10.4,5.6c0.4-0.1,0.6-0.7,0.3-1c-1-0.8-1.8-1-3-1.5
						c-2.1-0.9-3.9-2.3-5.2-4.1c-2.5-3.4-2.6-7.2-2.4-11.2C115.5,98.7,114.5,98.4,114.2,99L114.2,99z"/>
				</g>
			</g>
			<g>
				<g>
					<path class="st5" d="M108.5,98.7c-2,3.5-0.7,8.3,1,11.7c1.3,2.6,4,7.5,7.5,5.7c0.5-0.3,0.4-1,0-1.3c-2.5-1.8-4.6-3.8-6.1-6.5
						c-1.7-3.1-1.6-6-1.5-9.4C109.3,98.5,108.7,98.3,108.5,98.7L108.5,98.7z"/>
				</g>
			</g>
			<g>
				<g>
					<path class="st5" d="M103.5,98.5c-4,4.7,1.1,15.6,6.7,17c0.8,0.2,1.4-0.8,0.8-1.4c-2.2-2.4-4.6-3.5-6-6.7
						c-1.2-2.9-0.6-5.9-1.4-8.8C103.6,98.4,103.5,98.4,103.5,98.5L103.5,98.5z"/>
				</g>
			</g>
			<g>
				<g>
					<path class="st5" d="M99.2,97.6c-1.5,4.7-0.1,15.7,6,16.9c0.7,0.1,1.4-0.8,0.7-1.3c-2.6-2-4-3.7-4.7-7
						c-0.6-2.9-0.5-5.8-0.9-8.6C100.3,97,99.4,97.1,99.2,97.6L99.2,97.6z"/>
				</g>
			</g>
			<g>
				<g>
					<path class="st5" d="M96.2,97.2c-0.1,0-0.1,0-0.2-0.1c-0.1,0-0.3,0-0.3,0.1c-0.7,0.9-0.5,2.4-0.5,3.4c0,1.5,0.2,2.9,0.8,4.2
						c0.3,0.5,0.9,0.2,0.9-0.3c0.1-1.2-0.2-2.3-0.5-3.6C96.1,99.8,96,98.6,96.2,97.2L96.2,97.2L96.2,97.2z"/>
				</g>
			</g>
			<g>
				<g>
					<path class="st5" d="M94.7,98.5c-0.1,0.6-0.1,1.2,0,1.8c0.6-0.1,1.3-0.2,1.9-0.3c-0.2-1,2.3-1.2,2.8-0.5c0.7,1.1,2.3,0.1,1.7-1
						c-1.6-2.5-7.2-1.4-6.3,2c0.3,1,2,0.9,1.9-0.3c-0.1-0.7-0.2-1.3-0.5-2S94.8,97.7,94.7,98.5L94.7,98.5z"/>
				</g>
			</g>
			<g>
				<g>
					<path class="st5" d="M99.4,100c0.6-0.2,1-0.5,1.7-0.5c0.3,0,0.7,0,1,0c0.5,0.1,0.4,0.5,0.7,0.7c0.1,0.1,0.3,0.2,0.4,0.1h0.1
						c0.3-0.1,0.4-0.3,0.5-0.6c0.1-1.4-1.5-1.6-2.5-1.5c-0.8,0.1-2.1,0.3-2.3,1.3C99,99.8,99.2,100.1,99.4,100L99.4,100z"/>
				</g>
			</g>
			<g>
				<g>
					<path class="st5" d="M97.9,97.7c-0.6-0.4-1.5-0.5-2.2-0.6c-0.1,0.4-0.1,0.8-0.2,1.2c0.3,0,0.7,0,1,0s0.5-0.1,0.8-0.2
						c0.3-0.1,0.3-0.7,0-0.8C97,97.1,96.8,97,96.5,97s-0.7,0-1,0c-0.8,0-0.8,1.2,0,1.2c0.4,0,0.7,0.1,1.1,0.1c0.3,0.1,0.7,0.2,1,0.1
						C98.1,98.5,98.2,98,97.9,97.7L97.9,97.7z"/>
				</g>
			</g>
			<g>
				<g>
					<path class="st5" d="M103.6,103.5c0-0.6,0.4-1.1,0.7-1.6c0.3-0.4,0.5-1,0.9-1.3c0.3-0.3,1-0.4,1.4-0.4c0.6,0,0.9,0.3,1.2,0.8
						c0.6,0.8,1.8,0.1,1.3-0.8c-0.9-1.6-2.7-2-4.3-1.2c-0.8,0.4-1.2,1.3-1.5,2c-0.4,0.9-0.3,1.6,0.1,2.5
						C103.4,103.7,103.6,103.7,103.6,103.5L103.6,103.5z"/>
				</g>
			</g>
			<g>
				<g>
					<path class="st5" d="M108.2,103.1c0.2-0.4,0.6-0.7,0.8-1.1c0.3-0.4,0.6-0.9,1.1-1c0.4-0.1,0.8,0.1,1.2,0.2c0.3,0,0.6,0,0.9,0.1
						c0.2,0.1,0.3,0.2,0.5,0.3c0.4,0.2,0.8,0.1,1-0.3l0.1-0.1c0.2-0.4,0.1-0.8-0.1-1.1c-0.5-0.7-1.2-0.6-2-0.7
						c-0.8,0-1.5-0.3-2.3,0.1c-0.6,0.3-1.1,0.8-1.4,1.4C107.6,101.8,107.9,102.2,108.2,103.1L108.2,103.1L108.2,103.1z"/>
				</g>
			</g>
			<g>
				<g>
					<path class="st5" d="M114.6,104.4c0.7-1.2,1.3-2.6,3.1-2.2c1,0.2,1.9,1.7,2.3,2.6c0.4,1.2,0.7,2.5,1.3,3.7
						c0.6,1.1,6.9,5.9,5.7,6.6c-0.6,0.4-0.6,1.4,0.2,1.6c0.2,0,0.4,0.1,0.6,0.1c0.5,0.1,0.9-0.1,1.2-0.5c1.4-2-0.6-4.3-2.1-5.7
						c-1.4-1.3-3.3-2.1-4-4c-0.5-1.3-0.6-2.8-1.4-4.1c-1.1-1.7-3.2-2.9-5.3-2.2c-1.8,0.6-2.9,2.4-1.9,4.1
						C114.3,104.5,114.5,104.5,114.6,104.4L114.6,104.4z"/>
				</g>
			</g>
			<g>
				<g>
					<path class="st5" d="M125.3,103.2c0-0.2,0-0.4-0.1-0.7c-0.1-1.3-2-1.7-2.4-0.3c-0.4,1.5-0.8,6.1,2,5.9c2.5-0.1,2-3.7,1.2-5
						c-0.4-0.7-1.8-1.1-2.4-0.3c-0.9,1.2-1.2,2-0.8,3.5c0.4,1.6,2.6,1.4,3,0c0.6-2,0.5-3.6-0.9-5.2c-0.4-0.4-1-0.5-1.5-0.4
						c-2.5,0.7-2.9,3.8-0.8,5.4c2.2,1.6,3.6-0.8,3.6-2.8c0-1.4-2.2-2.2-2.8-0.8c-0.5,1.2-0.8,1.9-1.2,3.1c-0.5,1.7,2,2.7,2.8,1.2
						c1.6-2.9,0.4-6.1-3.1-6.6c-1.3-0.2-2.3,0.9-1.7,2.2c1.8,4,5.3,6.3,7.7,9.8c0.8-0.6,1.7-1.3,2.5-1.9c-1.1-1.5-2.3-2.9-3.4-4.4
						c-1.2-1.5-3.3,0.4-2.5,2c1.3,2.6,2.8,4.9,4.8,7.1c0.9,1,3,0.3,2.9-1.2c-0.2-2.5-0.7-4.7-1.5-7.1c-0.5-1.5-2.9-1.8-3.3,0
						c-0.6,2.6-0.3,7.2,2.9,8.1c3.4,0.9,4.3-3.7,4.2-6.2c-0.1-1.5-1.9-2.4-3-1.2c-1.6,1.6-3,6.2-0.2,7.6c3.3,1.6,5.3-4.4,6-6.5
						c0.6-1.7-1.8-3.1-3-1.8c-1.4,1.6-3.4,4.8-1.3,6.7c2,1.8,4.7-0.5,5.7-2.2c0.8-1.4-0.5-2.7-1.9-2.5c-1.7,0.3-2.9,1.1-3.6,2.7
						c-0.7,1.5,0.4,2.8,2,2.6c1.8-0.3,3.1-0.8,4.6-1.9c1.8-1.3,0.1-4.3-1.8-3c-0.6,0.4-1,0.7-1.5,1.3c-1.2,1.2,0,3.4,1.7,2.9
						c4.4-1.3,8.4-7.8,2.3-9.8c-2.3-0.8-4.8-1-7.2-1.5c-1.6-0.3-3.7-1.2-5.4-0.9c-2.6,0.5-2.8,2.9-1.5,4.8c0.8,1.3,2.8,1.1,3.2-0.4
						c0.2-0.7,0.2-1.3-0.3-1.9c-0.8-1.3-2.8-1.1-3.2,0.4c-1,3.1,2.5,3.7,4.8,3.4c-0.7-0.9-1.3-1.7-2-2.6c-0.1,0.2-0.3,0.4-0.4,0.6
						c-0.8,1.2,0.2,2.6,1.5,2.7c1.4,0,1.8-0.1,3-0.7c-0.9-0.7-1.7-1.3-2.6-2c-0.1,0.3-0.3,0.5-0.4,0.8c-0.7,1.1,0.2,2.8,1.5,2.6
						c1-0.1,1.5-0.2,2.5-0.5c-0.6-1-1.1-2-1.7-2.9c-0.6,0.6-0.8,0.7-1.1,1.5c-0.6,1.3,0.4,3,2,2.6c0.9-0.2,1.8-0.5,2.6-0.8
						c-0.7-0.7-1.4-1.4-2.1-2.1c-0.1,0.1-0.1,0.3-0.2,0.4c-0.9,1.2-0.1,3.6,1.7,2.9c0.9-0.4,1.8-0.7,2.7-1.1
						c-0.5-0.9-1.1-1.9-1.6-2.8c-0.5,0.6-1.1,1.1-1.6,1.7c-1.1,1.2,0,3.4,1.7,2.9c1-0.3,1.9-0.7,2.9-1c-0.6-0.8-1.2-1.5-1.8-2.3
						c-0.4,0.7-0.9,1.4-1.1,2.1c-0.2,1,0.5,2.2,1.6,2.1c0.1,0,0.1,0,0.2,0c2.4-0.2,1.9-3.8-0.4-3.3c-0.1,0-0.1,0-0.2,0
						c0.7,0.5,1.4,1.1,2.1,1.6c0.2-0.3,0.4-0.6,0.6-1c0.7-1.2-0.4-2.6-1.8-2.3c-1,0.2-2,0.5-3,0.8c0.6,1,1.1,1.9,1.7,2.9
						c0.5-0.6,1-1.1,1.5-1.7c1-1.1,0.1-3.4-1.6-2.8c-0.9,0.3-1.8,0.7-2.7,1c0.6,1,1.1,1.9,1.7,2.9c0.5-0.6,0.8-1.1,1.1-1.9
						c0.4-1.3-0.9-2.5-2.1-2.1c-0.9,0.2-1.8,0.5-2.7,0.7c0.7,0.9,1.3,1.7,2,2.6c0.2-0.3,0.4-0.5,0.6-0.8c1.3-1.2-0.1-3.4-1.7-2.9
						c-0.5,0.1-1,0.2-1.5,0.3c0.5,0.9,1,1.8,1.5,2.6c0.4-0.6,0.5-0.9,0.7-1.6c0.5-1.6-1.3-2.6-2.6-2c-0.4,0.1-0.8,0.1-1.2,0.2
						c0.5,0.9,1,1.8,1.5,2.7c0.1-0.2,0.3-0.4,0.4-0.6c0.9-1.4-0.6-2.8-2-2.6c-0.4-0.1-0.7-0.1-1.1-0.2c0.2,0.6,0.3,1.1,0.5,1.7
						c0.1-0.2,0.1-0.3,0.2-0.5c-1.1,0.1-2.2,0.3-3.2,0.4c0-0.3-0.1-0.5-0.1-0.8c1.1-0.1,2.2-0.3,3.2-0.4c1,1.5,4.2,1.6,5.9,1.9
						c0.7,0.1,2.5,0.2,3,0.6c1-0.1,1.2,0.4,0.4,1.5c0.1,1.2-0.5,1.8-1.7,1.9c0.6,1,1.1,1.9,1.7,2.9c0.3-0.2,0.5-0.5,0.8-0.7
						c-0.6-1-1.2-2-1.8-3c-1.2,0.9-2.3,1.3-3.7,1.5c0.7,0.9,1.3,1.7,2,2.6c0.5-0.4,1-0.8,1.5-1.1c-0.6-0.8-1.3-1.7-1.9-2.5
						c0.4-0.1,0.8-0.1,1.2-0.2c-1-0.6-2-1.2-3-1.8c-0.1,0.4-1.1,3.9-2.1,4.2c0.6,0.2,1.1,0.3,1.7,0.5c-0.3-0.9-0.1-1.7,0.5-2.3
						c-1-0.4-2-0.8-3-1.2c0.2,4.3-0.5,0.4-0.2-1c-1.1,0-2.2,0-3.3,0c0.8,2,1.3,4,1.5,6.2c1-0.4,1.9-0.8,2.9-1.2
						c-1.8-1.9-3.2-4-4.4-6.4c-0.8,0.7-1.7,1.3-2.5,2c1.1,1.4,2.3,2.9,3.5,4.3c1.1,1.4,3.6-0.5,2.5-1.9c-2.4-3.2-6.3-5.6-7.8-9.4
						c-0.6,0.6-1.2,1.2-1.8,1.8c0.4,0.7,0.8,1.5,1.3,2.2c0.9,0.4,1.9,0.8,2.8,1.2c0.2-1,0.6-1.9,1-2.8c-1-0.1-2-0.3-3-0.4
						c-0.1,0.7-0.2,1.5-0.3,2.2c1,0,2,0,3,0c0.1-0.3,0.1-0.6,0.2-0.9c-0.9,0-1.7,0-2.6,0c1.5-0.1,2.1-0.8,1.8-2.1
						c-0.8,0.1-1.6,0.2-2.4,0.3c0.1,0.2,0.2,0.4,0.2,0.6C123.5,104.5,125.4,104.5,125.3,103.2L125.3,103.2z"/>
				</g>
			</g>
			<g>
				<g>
					<path class="st5" d="M109.1,115.5c-0.9,1.1-0.6,2.4-0.6,3.8c0.1,2.7-0.3,5.2-0.5,7.9c-0.2,3.4-0.9,7.4,2.9,8.8
						c1.1,0.4,2.3-0.6,2.3-1.7c-0.2-2.3-0.3-4.5-0.2-6.8c0.1-3.2,2.3-2.3,4.8-1.6c-0.4-0.6-0.9-1.1-1.3-1.7c-0.2,3.1,0.4,6.4,1,9.4
						c0.5,2.2,1.1,3.7,3,4.9c1.5,0.9,3.8-1,2.6-2.6c-3.4-4.5-0.1-12.3,1.6-17c0.4-1-0.6-2.1-1.6-2.1c-4.3,0.1-8.4-2-12.7-2.4
						c-2.7-0.3-2.3,4.6,0.5,3.7c1.2-0.4,4.9,0.9,6.2,1.2c2,0.5,3.8,0.9,6,0.8c-0.5-0.8-1-1.7-1.4-2.5c-3.6,6.2-4.1,13-2,19.7
						c0.9-0.7,1.8-1.4,2.8-2.1c-2-1.2-2.3-9.1-2.4-11.1c0-0.7-0.5-1.6-1.3-1.7c-2.6-0.4-5.9-1.9-7.7,0.5c-2.2,2.9-1.5,8-1.4,11.3
						c0.8-0.6,1.5-1.2,2.3-1.7c-1.3-0.4-0.2-7.9-0.1-8.7c0.2-2.5-1.2-5.2-0.9-7.6C111,115.4,109.7,114.8,109.1,115.5L109.1,115.5z"
						/>
				</g>
			</g>
			<g>
				<g>
					<path class="st5" d="M110.6,117c-0.6,1.5-0.7,3.1-0.9,4.7c-0.2,2.1,2.6,2,3.3,0.4c0.6-1.4,1-3.1,0.5-4.6
						c-0.2-0.7-1-1.5-1.8-1.4c-2.7,0.3-3,3.4-3.1,5.7c-0.2,2.2,3.6,2.8,3.9,0.5c0.3-1.5,0.5-3,0.8-4.6c-1.3-0.2-2.7-0.4-4-0.5
						c-0.2,2.1-0.3,4.1-0.3,6.2c0,1.1,1,2.2,2.1,2.1c1.4-0.1,1.9-0.8,2.5-1.9c1-1.6,1.8-3.3,2.6-5c1.2-2.5-2.3-4.6-3.7-2.2
						c-0.8,1.4-1.4,2.9-1.7,4.5c-0.5,2.3,2.8,4,4,1.7c0.7-1.4,1.2-2.8,1.5-4.3c0.5-2.3-2.8-4-4-1.7c-1.1,2.1-2.8,7.7,1.1,8
						c2.9,0.2,5.6-4.1,6.5-6.4c0.9-2.4-3-4-4.1-1.7c-0.9,1.8-1.7,3.8-1.3,5.8c0.1,0.7,0.9,1.4,1.6,1.6c2.9,0.6,4.5-2.5,5.1-5
						c0.4-1.6-1.1-3.2-2.7-2.7c-0.7,0.2-1.1,0.4-1.6,0.9c-0.4,0.3-0.9,1.3-1.4,1.5c0.7,0.2,1.5,0.4,2.2,0.6c0.4,0.8,0.5,0.8,0.3,0
						c0-0.2-0.1-0.4-0.1-0.6c-0.1-0.5-0.2-1-0.4-1.4c-0.5-0.9-1.6-1.2-2.6-1c-2,0.5-3.3,3.2-2.4,5.1c1.1,2.4,4.5,2,6.6,1.8
						c1.1-0.1,2.2-0.2,3.1-1.1c0.4-0.4,0.7-0.8,0.8-1.3c0.1-0.3,0.4-1.6,0.1-1c-1.3-0.4-2.7-0.7-4-1.1c0,0.5-0.8,1.5-1,2
						c-0.3,0.9-0.5,1.8-0.5,2.7c1.5-0.2,3-0.4,4.5-0.6c-0.2-0.5-0.3-1.1-0.5-1.6c-0.5-2.1-4.1-2.3-4.4,0c-0.2,1.2-0.3,2.3-0.3,3.5
						c1.5-0.4,2.9-0.8,4.4-1.2c-0.1-0.2-0.1-0.4-0.2-0.6c-0.7-2.6-4.5-2-4.6,0.6c0,0.9,0.1,1.7,0.4,2.5c1,2.8,5.2,1.7,4.5-1.2
						c-0.3-1.3-0.7-2.4-1.2-3.6c-1-2.3-4.5-0.6-4,1.7c0.2,1,0.5,2.1,0.7,3.1c1.5-0.4,3-0.8,4.5-1.2c-0.2-0.4-0.2-0.8-0.2-1.3
						c-1.5,0.2-3.1,0.4-4.6,0.6c0.2,0.6,0.4,1.1,0.6,1.7c1,2.2,4.3,0.9,4.4-1.2c0-1,0.1-1.9,0.2-2.9c-1.5,0.2-3,0.4-4.5,0.6
						c0.1,0.6,0.3,1.1,0.5,1.6c0.8,2.3,4.6,2.1,4.5-0.6c-0.1-1.8,1.1-3,1.1-4.8c0-2.2-2.9-2.9-4-1.1c-0.2,0.4-0.4,0.7-0.5,1.1
						c-0.3,1.2,0.3,0.1,0.2,0c-0.2-0.1-1.3,0.1-1.6,0.1c-0.4,0-0.8,0-1.2,0c-0.8-0.1-0.7,0.3,0.2,1.2c-0.5,0.1-1.1,0.1-1.6,0.2
						c0.1,0,0.2,0,0.3,0c-0.4-0.3-0.8-0.6-1.2-0.9c-0.1-0.3-0.3,1.3-0.2,1.5c0.1,0.7,0.3,1.3,0.8,1.7c0.6,0.5,1.4,0.9,2.2,0.6
						c0.7-0.2,1.2-0.6,1.8-1.1c0.2-0.2,1.8-1.7,1.2-1.5c-0.9-0.9-1.8-1.8-2.7-2.7c-0.1,0.7-0.4,1.7-1.1,2.1c0.6-0.1,1.2-0.2,1.7-0.2
						c-0.1,0-0.2,0-0.3-0.1c0.5,0.5,1,1,1.6,1.6c0.1,0.5,0.2-0.6,0.2-0.8c0.2-0.6,0.3-1,0.6-1.6c-1.4-0.6-2.7-1.1-4.1-1.7
						c-0.3,0.8-0.7,1.3-1.2,1.9c-0.2,0.2-1.4,1.2-0.9,1.2c0.6,0.4,1.3,0.7,1.9,1.1c0,0.1,0,0.3,0,0.4c0-0.4,0-0.7,0.1-1.1
						c0.1-0.6,0.3-1.2,0.6-1.7c-1.3-0.6-2.7-1.1-4-1.7c-0.2,1.2-0.5,2.2-1.1,3.3c1.3,0.6,2.7,1.1,4,1.7c0.2-1.3,0.6-2.4,1.2-3.5
						c-1.2-0.7-2.5-1.5-3.7-2.2c-0.8,1.7-1.5,4.1-2.7,5.6c0.5-0.2,1-0.4,1.5-0.6c-0.1,0-0.1,0-0.2,0c0.7,0.7,1.4,1.4,2.1,2.1
						c0-2.1,0-4.1,0.2-6.2c0.2-2.2-3.6-2.8-4-0.5c-0.2,1.5-0.5,3-0.7,4.6c1.3,0.2,2.6,0.4,3.9,0.5c0.1-0.8,0-2,0.5-2.8
						c-0.4,0.3-0.8,0.6-1.1,0.9c0.1,0,0.2,0,0.3-0.1c-0.8-0.4-1.6-0.9-2.3-1.3c0.3,0.7,0,1.9-0.1,2.7c1.1,0.1,2.2,0.3,3.3,0.4
						c0-1.5,0.2-2.9,0.1-4.4C113,115.8,111.1,115.6,110.6,117L110.6,117z"/>
				</g>
			</g>
			<g>
				<g>
					<path class="st3" d="M124.5,117.3c-3.1,2.3-3.8,7.5-4.3,11c-0.3,2.6-1.1,8.6,2.2,9.9c3.4,1.4,5.6-2.8,6.9-5.1
						c2.9-4.9,4.8-10.4,7-15.7c0.5-1.3-1-2.3-2.1-2.1c-2.7,0.5-5.7,1.5-8.5,0.9c-2.2-0.5-3.2,3-0.9,3.4c3.5,0.7,6.9-0.4,10.4-1.1
						c-0.7-0.7-1.4-1.4-2.1-2.1c-1.2,3-2.3,6-3.6,9c-0.7,1.6-1.4,3.2-2.2,4.8c-0.6,1.1-2,4.5-3.2,3.6c-1.6-1.3-0.2-6.2,0.3-8
						c0.7-2.6,1.2-5.5,0.8-8.2C125.1,117.4,124.8,117.1,124.5,117.3L124.5,117.3z"/>
				</g>
			</g>
			<g>
				<g>
					<path class="st3" d="M128.3,118.6c0-0.1,0-0.2-0.1-0.3c-0.5-1.7-2.7-2.4-4-1.1c-0.7,0.7-1.3,1.4-1.7,2.3
						c-1.6,3.1,2.8,5.8,4.7,2.8c0.3-0.5,0.7-1,1-1.6c1.7-2.7-2.2-5.7-4.4-3.4c-0.9,0.9-1.5,1.8-2.1,2.9c-1.3,2.8,1.3,5.2,4,4
						c1.4-0.6,2.4-1.8,3.4-2.9c-1.6-1.2-3.1-2.4-4.7-3.6c-1,1.3-0.8,2.7-1.2,4.2c-0.4,1.8-1,3.6-1.5,5.4c1.6,0.2,3.3,0.4,4.9,0.7
						c0.1-1.3,0.3-2.4,0.7-3.6c0.8-2.5-3-4.1-4.2-1.8c-1.9,3.6-3.2,9.1-1.4,13.1c0.3,0.8,1.3,1.1,2,1.2c2.3,0.2,3.8-2.6,4.7-4.4
						c1.5-3.2,2.8-6.3,4.5-9.4c1-1.7,3-4.1,1.1-6c-1.8-1.8-5.4-0.2-7.2,0.6c-2.4,1.1-0.7,5.2,1.8,4.3c0.3-0.1,0.7-0.2,1-0.4
						c-0.9-1.1-1.8-2.3-2.6-3.4c-0.7,1-1.3,2-2.1,2.9c-1.6,2,0.3,4.6,2.7,3.5c0.3-0.1,0.6-0.3,0.9-0.4c-1.1-0.6-2.2-1.3-3.3-1.9
						c0,0.6-1,2.1-1.3,2.7c-0.8,1.5,0.2,3.2,1.9,3.3c0.1,0,0.3,0,0.4,0c-0.5-0.7-1.1-1.4-1.6-2.1c-0.1,0.8-0.8,2-1.2,2.8
						c-0.8,1.9,1.7,3.4,3.3,2.5c0.3-0.2,0.6-0.3,0.8-0.5c-1.1-0.4-2.2-0.9-3.3-1.3c-0.6,0-0.9,0.3-1.1,1c-1.8,2.3,2.3,4.8,4,2.3
						c0.9-1.4,1.9-2.8,1.4-4.5c-0.4-1.4-2-2-3.3-1.3c-0.3,0.2-0.6,0.3-0.8,0.5c1.1,0.8,2.2,1.7,3.3,2.5c0.5-1.3,1.2-2.5,1.3-4
						c0-0.9-0.7-2-1.6-2.1c-0.5-0.1-1-0.2-1.6-0.2c0.6,1.1,1.3,2.2,1.9,3.3c0.8-1.6,1.8-3.1,1.9-4.9c0.1-1.4-1.5-2.5-2.8-2.1
						c-0.3,0.1-0.6,0.2-0.9,0.3c0.7,1.2,1.5,2.5,2.2,3.7c1.1-1.2,2-2.4,2.9-3.7c1.2-1.7-0.8-4-2.6-3.4c-0.3,0.1-0.7,0.2-1,0.3
						c0.4,1.5,0.8,3,1.2,4.5c0.7-0.3,2.3-1,3-0.8c-0.6-0.6-1.1-1.1-1.7-1.7c-0.4-1.1-1.9,2.2-2.1,2.6c-0.8,1.3-1.5,2.7-2.1,4.1
						c-0.6,1.2-1,2.3-1.5,3.5c-0.3,0.6-0.5,1.3-0.8,1.9c-0.7,0.9-0.6,1,0.4,0.5c0.8,0.6,1.5,1.2,2.3,1.7c-1.2-2.8,0.3-6.8,1.4-9.5
						c-1.5-0.4-3-0.8-4.5-1.2c-0.4,1.4-0.8,2.8-1.2,4.2c-0.8,3.2,3.8,4.4,4.9,1.3c0.9-2.7,1.8-5.3,3-8c1.2-2.8-2.3-6.4-4.7-3.6
						c-0.7,0.8-1.2,1.6-2.2,2c1.4,1.1,2.9,2.2,4.3,3.3c0.2-0.4,0.5-0.8,0.7-1.2c-1.5-1.1-2.9-2.3-4.4-3.4c-0.3,0.5-0.6,1.1-0.9,1.6
						c1.7,0.7,3.3,1.4,5,2.1c0.3-0.7,0.5-1.4,0.8-2.1c-1.5,0.2-2.9,0.4-4.4,0.6c0.1,0.1,0.1,0.1,0.2,0.2
						C125.5,122.4,129.1,121.4,128.3,118.6L128.3,118.6z"/>
				</g>
			</g>
			<g>
				<g>
					<path class="st3" d="M115.1,124.1c-2.3-0.6-2.9,0.9-3.2,2.9c-0.5,3.7-0.6,7.3-1,11c-0.1,0.6,0.4,1.3,0.9,1.5
						c1.7,0.8,3.4,1.3,5.2,1.8c1,0.3,2.1-0.5,2.1-1.6c-0.2-3.3,0.2-6.6,0.1-9.9c-0.1-1.3,0.5-3.8-0.5-4.9c-2.2-2.5-5.9-1.1-6.5,1.9
						c-0.2,1.3,1,2.4,2.3,1.7c0.4-0.2,0.8-0.4,1.2-0.6c-0.8-1-1.5-2-2.3-3c-0.8,1.1-1.7,2.2-0.9,3.6c0.5,0.9,1.9,1.4,2.9,0.8
						c0.6-0.5,1.3-0.9,1.9-1.3c-1-1-2-2-3-3c-0.6,0.7-1.1,1.4-1.7,2.2c-1.8,2.3,1,5.2,3.3,3.3c0.7-0.6,1.4-1.2,2-1.7
						c-1.1-1.1-2.2-2.2-3.3-3.3c-0.8,0.7-1.5,1.5-2.2,2.3c-1.8,2,0.4,4.7,2.8,3.6c0.4-0.1,0.7-0.2,0.9-0.5c-0.7-1.2-1.3-2.3-2-3.5
						c-0.5,0.8-1.1,1.6-1.6,2.3c-1.4,1.8,1.3,4.4,3.1,3.1c0.5-0.4,1.1-0.7,1.6-1.1c-0.9-1.2-1.9-2.4-2.8-3.6c-1,1-1.8,1.9-2.6,3
						c-1.3,1.8,1.3,4.5,3.1,3.1c0.7-0.5,1.4-1.1,2.2-1.5c-1-1-2.1-2.1-3.1-3.1c-0.8,1-1.5,2-2.3,3c-1.4,1.8,1.3,4.3,3.1,3.1
						c0.5-0.3,0.9-0.6,1.4-0.9c-0.7-1.3-1.5-2.6-2.2-3.8c-0.6,0.7-1.2,1.4-1.8,2.1c-1.7,2,0.4,5,2.8,3.6c0.4-0.2,0.9-0.5,1.3-0.8
						c-1.1-1.1-2.1-2.1-3.2-3.2c-0.4,0.7-0.8,1.4-1.2,2c-1.4,2.3,1.7,4.5,3.6,2.8c0.3-0.4,0.7-0.6,1.2-0.8c-1.1-0.9-2.3-1.7-3.4-2.6
						c-0.1,0.3-0.3,0.6-0.4,0.9c-0.8,1.4,0.2,3.7,2,3.5c0.4-0.1,0.9-0.1,1.3-0.2c-0.8-0.8-1.5-1.5-2.3-2.3c0,0.3,0,0.7-0.1,1
						c-0.1,3,4.5,3,4.6,0c0-0.3,0-0.7,0.1-1c0.1-1.1-1.1-2.5-2.3-2.3c-0.4,0.1-0.9,0.1-1.3,0.2c0.7,1.2,1.3,2.3,2,3.5
						c0.4-0.7,0.6-1.3,0.9-2c0.7-2-1.7-3.4-3.4-2.6c-0.8,0.4-1.4,0.9-2.1,1.5c1.2,0.9,2.4,1.9,3.6,2.8c0.4-0.7,0.8-1.3,1.2-2
						c1.3-2-1.2-4.3-3.2-3.2c-0.4,0.2-0.9,0.5-1.3,0.8c0.9,1.2,1.9,2.4,2.8,3.6c0.6-0.7,1.1-1.4,1.7-2.2c1.4-1.7,0.1-4.5-2.2-3.8
						c-0.9,0.2-1.7,0.8-2.5,1.4c1,1,2.1,2.1,3.1,3.1c0.8-1,1.5-2,2.3-3c1.4-1.8-1.3-4.4-3.1-3.1c-0.7,0.5-1.5,1-2.2,1.5
						c1,1,2.1,2.1,3.1,3.1c0.6-0.8,1.2-1.4,1.9-2.1c1.8-1.8-0.6-5.1-2.8-3.6c-0.5,0.4-1.1,0.7-1.6,1.1c1,1,2.1,2.1,3.1,3.1
						c0.6-0.8,1.1-1.5,1.6-2.3c0.9-1.4-0.3-3.6-2-3.5c-1.2,0.1-2.1,0.6-3.2,1.1c0.9,1.2,1.9,2.4,2.8,3.6c0.7-0.8,1.4-1.5,2.2-2.3
						c2.2-2.1-1-5.1-3.3-3.3c-0.7,0.6-1.4,1.2-2,1.7c1.1,1.1,2.2,2.2,3.3,3.3c0.8-1,1.6-2.1,2.3-3.2c1.1-1.8-1.2-4.3-3-3
						c-0.8,0.6-1.5,1.1-2.2,1.8c1.1,0.1,2.2,0.3,3.3,0.4l-0.1-0.1c0.1,0.5,0.1,1.1,0.2,1.6c0.2-0.3,0.4-0.6,0.6-1
						c1.4-2.2-2.3-4.3-3.5-2c-0.3,0.4-0.5,0.7-0.8,1.1c0.9,0.4,1.8,0.7,2.6,1.1c0.1-1.1,1.5,0,1.1-0.8c0.2,0.4-0.4,3-0.4,3.4
						c-0.1,3.3,0.3,6.6-0.1,9.9c0.8-0.5,1.6-0.9,2.4-1.4c-1.7-1.2-3.4-1.9-5.5-2.1c0.6,0.6,1.2,1.2,1.7,1.7c0-1.3-0.4-11.3,0.7-11.6
						C116.2,126.1,116.2,124.4,115.1,124.1L115.1,124.1z"/>
				</g>
			</g>
			<g>
				<g>
					<path class="st6" d="M118.1,133.9c-0.9,1.8-0.6,3.8-0.8,5.7c-0.1,0.9,0.3,1.5,1.2,1.6c3.5,0.3,7,0,10.5,0.6
						c1,0.2,2-0.6,1.7-1.7c-0.4-1.9-1.2-4.2-1-6.2c0.2-1.4-1.9-1.5-2.3-0.3c-0.9,2.6-5.7,4.3-7.4,1.7c-0.8-1.2-2.8-0.5-2.3,1
						c0.8,2.5,3.5,3.6,6,3.1c2.4-0.5,4.8-2.7,5.8-4.9c-0.7-0.3-1.4-0.6-2.1-0.9c-0.8,2.4-0.3,4.9,0.5,7.2c0.4-0.6,0.9-1.2,1.3-1.8
						c-3.6-0.3-7.3-0.7-10.9-0.4c0.4,0.4,0.9,0.9,1.3,1.3c-0.1-2.1,0.3-4.3-0.9-6.1C118.6,133.7,118.2,133.6,118.1,133.9
						L118.1,133.9z"/>
				</g>
			</g>
			<g>
				<g>
					<path class="st6" d="M118.2,137c-0.8,0.7-1,1.9-0.3,2.8c0.8,1,1.9,0.7,2.8,0c1.3-0.9,0.8-2.8-0.8-3c-1.4-0.1-2.4,1.4-1.9,2.6
						c0.6,1.5,2.5,1.6,3.6,0.7c-0.7-0.1-1.5-0.2-2.2-0.3c1,1,2,0.9,3.3,0.5c1.4-0.4,2.8-0.4,4.1-0.9c-0.6-1-1.1-2-1.7-2.9
						c-0.4,0.3-0.8,0.7-1.2,0.9c-1.7,1.1-0.2,3.7,1.6,2.7c1.4-0.8,2.8-1.3,3.3-2.9c-1,0-2,0-3,0c0.1,0.5,0.2,1,0.3,1.5
						c0.2-0.4,0.3-0.8,0.5-1.2c-0.2,0.2-0.3,0.3-0.5,0.4c0.3-0.1,0.7-0.3,1-0.4c-0.2,0-0.3,0-0.5,0.1c0.5,0.6,0.9,1.2,1.4,1.9
						c0.1-0.2,0.1-0.3,0.2-0.5c0.4-1.1-0.8-1.8-1.7-1.7c-0.3,0-0.7,0.1-1,0.2c-1.3,0.2-1.3,2.1-0.3,2.7c0.5,0.3,0.8,0.4,1.3,0.5
						c0.7,0.2,1.6-0.1,2-0.8c0.3-0.7,0.4-1.1,0-1.7c-0.3-0.5-0.9-0.9-1.5-0.9c-0.5,0-0.9,0.1-1.4,0.2c0.4,0.9,0.7,1.8,1.1,2.7
						c0.1,0,0.2-0.1,0.2-0.1c-0.3-0.8-0.7-1.6-1-2.4c-0.1,0.1-0.2,0.2-0.3,0.4c-0.9,1,0,3,1.4,2.5c0.3-0.1,0.8-0.1,1.2-0.1
						c0.8-0.2,1.2-0.9,1.2-1.6c0.1-0.8-0.4-1.6-0.6-2.3c-0.6-1.5-2.4-1.5-3,0c-0.1,0.2-1.6,0.8-1.9,1c0.5,0.9,1.1,1.8,1.6,2.7
						c0.6-0.3,1.1-0.6,1.7-0.9c1.8-0.8,0.5-3.9-1.4-3.2c-0.9,0.3-1.8,0.3-2.7,0.5c-0.3,0-0.7,0.1-1,0.2c-0.2,0.1-0.5,0.2-0.7,0.3
						c-0.5,0.1-0.3,0.2,0.6,0.3c-0.6-0.7-1.9-0.7-2.6,0c0.3,0,0.6,0,0.9,0.1c0.3,0.5,0.5,1,0.8,1.4c0,0.1-0.1,0.3-0.1,0.4
						c-0.5,0.3-0.9,0.5-1.4,0.8c0.1,0,0.1,0,0.2,0c-0.4-0.9-0.7-1.8-1.1-2.7c-0.1,0.1-0.2,0.2-0.3,0.3c0.4-0.1,0.8-0.1,1.2-0.2
						c-0.1,0-0.1,0-0.2-0.1c0.3,0.2,0.6,0.5,0.9,0.7c-0.3-0.5-0.6-0.9-1.1-1.2C118.9,136.7,118.5,136.8,118.2,137L118.2,137z"/>
				</g>
			</g>
			<g>
				<g>
					<path class="st5" d="M108.7,138.1c-1.2,6.4-0.8,13.5-1.1,20c-0.3,8-1.5,15.7-0.9,23.7c0.1,0.7,0.5,1.3,1.2,1.5
						c2.9,0.9,5.8,1.6,8.7,2.3c1,0.2,1.9-0.5,1.9-1.5c0.9-14.3,1.4-28.6,2.1-42.9c0-0.8-0.6-1.6-1.4-1.8c-2.9-0.8-5.7-1.6-8.6-2.4
						c-2.3-0.7-3.1,2.7-1,3.5c2.8,1,5.7,1.9,8.6,2.5c-0.5-0.6-0.9-1.2-1.4-1.8c-0.3,14.3-0.4,28.6-1.4,42.9c0.6-0.5,1.3-1,1.9-1.5
						c-2.9-0.7-5.8-1.6-8.6-2.5c0.4,0.5,0.8,1,1.2,1.5c-1.2-14.3,3.6-29.5-0.3-43.7C109.5,137.7,108.8,137.6,108.7,138.1
						L108.7,138.1z"/>
				</g>
			</g>
			<g>
				<g>
					<path class="st5" d="M108.8,139.8c-2,6-1.6,13.1-1.8,19.4c-0.2,7-0.3,14-0.7,21c-0.1,1.9,1.7,2.8,3.3,2.5
						c1.3-0.2,3.5,1.6,5,1.8c1.7,0.3,3.1-0.7,3.2-2.4c0.4-5.3,1.2-10.3,1.2-15.6c0-4.9,0.2-9.6,1.2-14.5c0.6-3,1-7.7-0.5-10.5
						c-1.4-2.6-5.2-2.3-7.7-3.3c-3.7-1.4-4.8,6,0,5.1c3.6-0.7,3.8-0.3,4,2.7c0.1,2.1-0.2,3.9-0.5,5.9c-0.5,2.7-0.7,5.2-0.8,7.9
						c-0.2,7.3,0.3,14.4-1.8,21.5c1-0.6,2.1-1.2,3.1-1.8c-3-0.7-4.4-2.5-7.7-2c1.1,0.8,2.2,1.7,3.3,2.5c0.2-7,0.5-14,0.7-21
						c0.2-6.3,0.9-13.3-0.8-19.4C111.2,138.4,109.3,138.5,108.8,139.8L108.8,139.8z"/>
				</g>
			</g>
			<path class="st6" d="M118.1,144.1c-0.4-2.8-3-2.5-5.4-2.7c-0.4,0-0.7,0.1-1,0.3c-0.4,0-0.7,0.1-0.8,0.6c-0.5,2.5-0.9,4.7-0.9,7.3
				c0.1,3.2,0.1,6.4,0.1,9.5c-0.1,6.4-0.3,12.7-0.6,19.1c0,0.6,0.5,1.3,1,1.4c1.1,0.2,2.1,0.5,3.2,0.9c0.7,0.3,1.6-0.3,1.8-1
				c1.9-7.6,0.5-15.6,1.5-23.3C117.5,152.4,118.6,148,118.1,144.1z"/>
			<path class="st4" d="M134.2,171.9c-0.4-2.4-0.3-4.7-0.3-7.1c0-2.9-0.5-5.8-0.8-8.7c-0.5-5-0.9-10.1-2.5-14.9
				c-0.2-0.6-0.7-0.8-1.3-0.7c-1.6,0.3-3.3-0.3-4.9-0.3c-1.5,0-2.9,0.2-4.4,0c-1.2-0.1-1.5,1.5-0.7,2.1c-0.9,6.4-0.7,13-1,19.4
				c-0.4,7.5-0.4,15.1-1.9,22.6c-0.2,0.9,0.7,1.8,1.6,1.2c2.4-1.4,5.1-1.9,7.7-2.7c1.9-0.6,3.8-1.5,5.6-2.3c2-0.9,3-1.1,3.3-3.3
				C134.9,175.4,134.5,173.7,134.2,171.9z"/>
			<path class="st3" d="M128.1,193.4c-0.2-3.6,0-7.1,0.2-10.7c0-0.9-0.9-1.3-1.7-0.9c-2.2,1.1-7.8,4.3-10.3,2.7
				c-0.4-0.3-0.9-0.2-1.2,0c-0.1,0-0.2,0.1-0.2,0.2c-0.2,0.3-0.3,0.7-0.3,1.1c-0.4,2.3-0.2,4.7-0.1,7.1c0.1,3.1,0.2,6.1,0.2,9.2
				c0,6.1,0.3,12.3-0.1,18.3c-0.1,0.7,0.6,1.2,1.2,1.2c2.2,0.1,4.3,0.1,6.5,0.4c1.6,0.2,3,0.2,4.5-0.2c0.4-0.1,0.8-0.4,0.8-0.8
				c1-6.2,0.5-12.6,0.8-18.9C128.8,199.2,128.3,196.3,128.1,193.4z"/>
			<path class="st6" d="M128.2,181.9c-0.1-0.6-0.9-0.9-1.4-0.6c-1.4,1-2.9,1.9-4.6,2.3c-0.7,0.2-0.9,0.8-0.7,1.3
				c0.1,8.2,1,16.3,1,24.4c0,2-0.1,4-0.3,6.1c-0.1,1.6-0.5,3.7-0.1,5.3c0.4,1.8,3.1,2.4,4.7,1.9c2.4-0.7,1.9-4.4,1.9-6.4
				c0.2-4,0.2-8,0.2-12C129.1,196.8,129.8,189.1,128.2,181.9z"/>
			<g>
				<g>
					<path class="st5" d="M104.8,51.4c1-0.7,1.3-2.2,1.6-3.4c-0.5-0.1-1-0.1-1.5-0.2c0.1,0.8-0.1,1.6-0.4,2.4
						c0.4,0.1,0.9,0.1,1.3,0.2c0-0.9,0.2-1.8,0.5-2.7c0.3-0.8,0.9-1.5,1-2.3c0.1-0.3-0.2-0.6-0.5-0.5c-1.9,0.7-2.4,3.6-2.4,5.4
						c0,0.8,1,0.8,1.3,0.2c0.4-0.9,0.6-1.8,0.6-2.8c0.1-0.9-1.2-1-1.5-0.2c-0.3,1.1-0.9,2.5-0.6,3.6
						C104.4,51.4,104.7,51.5,104.8,51.4L104.8,51.4z"/>
				</g>
			</g>
			<g>
				<g>
					<path class="st5" d="M108.1,44.1c-1-0.3-1.6,0.5-2.1,1.2c-0.5,0.8-1.2,2-1,3c0.1,0.2,0.4,0.4,0.6,0.3c0.7-0.5,1-1.4,1.4-2.1
						s0.9-1.3,1.2-2.1C108.2,44.3,108.2,44.1,108.1,44.1L108.1,44.1z"/>
				</g>
			</g>
			<g>
				<g>
					<path class="st5" d="M101,59.3c0.9,0,1.7-0.1,2.5,0.2c0.1-0.7,0.2-1.5,0.3-2.2c-0.9,0.1-1.6,0.2-2.5,0
						c-0.1,0.8-0.2,1.5-0.3,2.3c1.8-0.1,3.6-0.1,5.4-0.1c1.4-0.1,3,0.3,4.2-0.5c0.4-0.2,0.3-0.7,0-0.9c-1.2-0.9-2.8-0.5-4.2-0.6
						c-1.8-0.1-3.6-0.1-5.4-0.2c-1.4-0.1-1.5,1.9-0.3,2.3c1.3,0.4,2.4,0.4,3.7-0.1c1-0.5,0.5-2.1-0.6-2.1s-2.2,0.1-3.1,0.7
						C100.1,58.3,100.3,59.3,101,59.3L101,59.3z"/>
				</g>
			</g>
			<g>
				<g>
					<path class="st5" d="M98.9,69.8c0.8,0.5,1.6,0.4,2.5,0.3c0.8-0.1,1.5,0.3,2.4,0.4c0.6,0,1.2-0.6,0.9-1.2
						c-0.9-2.2-3.8-1.6-5.6-1.1C98.4,68.3,98.2,69.4,98.9,69.8L98.9,69.8z"/>
				</g>
			</g>
			<g>
				<g>
					<path class="st5" d="M98,75.2c0.6,0.4,1.7,0.4,2.5,0.4c0.4,0,0.8,0,1.3,0c0.6,0.1,1.1,0.3,1.6,0.2c0.9-0.1,1.2-1.1,0.5-1.7
						c-1-0.7-2.2-0.6-3.4-0.5c-0.9,0.1-2.2-0.3-2.7,0.7C97.6,74.7,97.7,75,98,75.2L98,75.2z"/>
				</g>
			</g>
			<g>
				<g>
					<path class="st5" d="M95.1,97.3c3.5,0.1,6.2,1.9,9.6,2.3c4,0.5,8.1,1,12.1,1.5c1.6,0.2,2.3-2.2,0.7-2.5
						c-4.2-0.7-8.3-1-12.6-1.4c-3.5-0.3-6.4-2.3-10-1.2C94.2,96.3,94.4,97.3,95.1,97.3L95.1,97.3z"/>
				</g>
			</g>
			<g>
				<g>
					<path class="st5" d="M95.2,98c-0.5,3.3-0.3,7.4,1.2,10.4c0.9,1.9,3.3,4.3,5.5,4.4c0.3,0,0.6-0.4,0.5-0.7
						c-0.8-2.3-3.4-2.9-4.4-5.4c-1-2.7-1.2-5.9-1.7-8.7C96.3,97.4,95.3,97.4,95.2,98L95.2,98z"/>
				</g>
			</g>
			<g>
				<g>
					<path class="st5" d="M96.4,105.8c-0.3,1,0.9,2.4,1.4,3.2s1.2,2.2,2.4,2c0.3-0.1,0.4-0.3,0.3-0.6c-0.1-0.5-0.4-0.8-0.8-1.2
						c-0.4-0.5-0.8-1.1-1.2-1.7c-0.5-0.7-1.1-1.8-2-1.9C96.5,105.7,96.5,105.8,96.4,105.8L96.4,105.8z"/>
				</g>
			</g>
			<g>
				<g>
					<path class="st5" d="M123.3,105.8c-0.6,0.4-0.4,1.8-0.2,2.3c0.5,1.2,1.5,2.1,2.2,3.2c0.4,0.6,1.3,0.8,1.8,0.2l0.1-0.1
						c0.5-0.6,0.4-1.8-0.5-1.9c-0.5-0.1-0.8-0.1-1.2,0.4c0.6,0.1,1.2,0.2,1.8,0.2c-0.6-0.9-1.3-1.7-2.1-2.4c-0.7-0.6-1-1.3-1.6-1.9
						C123.5,105.8,123.4,105.8,123.3,105.8L123.3,105.8z"/>
				</g>
			</g>
			<g>
				<g>
					<path class="st5" d="M135.5,96.8c-0.3,0.6-0.3,1.3-0.3,1.9c0.7-0.1,1.5-0.2,2.2-0.3c-0.1-0.4-0.1-0.7-0.2-1.1
						c-0.5,0.5-0.9,0.9-1.4,1.4h0.1c0.7,0.1,1.3-0.3,1.3-1v-0.1c0-0.6-0.6-1.1-1.1-1.1c-0.6,0-1.2,0.5-1.1,1.1
						c0,0.5,0.2,0.9,0.3,1.4c0.4,1.4,2.5,0.8,2.2-0.6c-0.1-0.5-0.1-1-0.3-1.4C136.9,96.3,135.9,96,135.5,96.8L135.5,96.8z"/>
				</g>
			</g>
			<g>
				<g>
					<path class="st5" d="M104.5,50.4c0.8-0.4,1.3-1.4,1.6-2.2c0.2-0.5,0.3-1.1,0.6-1.6c0.3-0.6,0.9-0.9,1.4-1.4
						c0.8-0.7-0.2-2-1.1-1.5c-1.2,0.7-2,1.7-2.4,3c-0.2,0.7-0.5,1.4-0.7,2c-0.2,0.5-0.3,0.9,0,1.4C103.9,50.5,104.2,50.6,104.5,50.4
						L104.5,50.4z"/>
				</g>
			</g>
			<g>
				<g>
					<path class="st5" d="M130.1,53.3c0.2-0.2,0.2-0.4,0.1-0.6c-0.1-0.1-0.2-0.2-0.3-0.2c-0.3,0-0.6,0.2-0.8,0.2
						c0.1,0.3,0.1,0.5,0.2,0.8c0.2-0.1,0.3-0.1,0.5-0.1c-0.2-0.2-0.4-0.4-0.6-0.6c-0.2,0.6,0.5,1,0.8,0.3c0.2-0.4-0.1-0.7-0.5-0.7
						c-0.3,0-0.5,0.1-0.7,0.3c-0.3,0.2-0.2,0.8,0.2,0.8c0.2,0,0.4-0.1,0.6-0.2C129.8,53.3,129.9,53.2,130.1,53.3
						c-0.1-0.1-0.1-0.1-0.2-0.2v0.1C129.9,53.3,130.1,53.3,130.1,53.3L130.1,53.3z"/>
				</g>
			</g>
			<g>
				<g>
					<path class="st5" d="M150.6,60.2c-0.2-0.2-0.1-0.6-0.3-0.8c-0.2-0.2-0.4-0.3-0.6-0.2c-0.2,0-0.4,0.2-0.5,0.4
						c0,0.2,0.2,0.5,0.1,0.6c0.3,0,0.5-0.1,0.8-0.1c0,0,0-0.1-0.1-0.1c-0.1-0.1-0.2-0.1-0.3-0.1h-0.1c-0.6,0.1-0.1,1.2,0.4,0.7
						c0.1-0.1,0.2-0.3,0.2-0.5c0-0.1,0-0.2-0.1-0.3c0-0.1-0.3-0.6-0.4,0.1c0,0.3,0.4,0.7,0.7,0.7C150.6,60.7,150.7,60.3,150.6,60.2
						L150.6,60.2z"/>
				</g>
			</g>
			<g>
				<g>
					<path class="st5" d="M142,107.2C142,107.2,142.1,107.2,142,107.2s-0.1,0.2-0.2,0.3c0.3-0.1,0.7,0,1-0.1
						c0.2-0.1,0.3-0.1,0.5-0.2c0.1,0,0.2-0.1,0.2-0.2c0.2-0.1,0.2-0.1,0.1,0c1-0.2,0.6-1.8-0.4-1.5c-0.2,0.1-0.4,0.2-0.5,0.3
						c0.4,0.4,0.7,0.7,1.1,1.1c0.2-0.2,0.4-0.4,0.5-0.7c0.3-0.7-0.8-1.1-1.2-0.5c-0.1,0.2-0.2,0.4-0.3,0.7c0,0.2,0.2,0.4,0.4,0.4
						c0.3,0,0.5-0.1,0.7-0.2c-0.2-0.4-0.3-0.8-0.5-1.2c-0.1,0.1-0.3,0.1-0.4,0.2c-1,0.3-0.6,1.8,0.4,1.5c0.2-0.1,0.4-0.2,0.5-0.3
						c-0.4-0.2-0.9-0.4-1.3-0.6v0.1c0.1-0.2,0.1-0.3,0.2-0.5c-0.2,0.3-0.5,0.4-0.8,0.5s-0.5,0.3-0.8,0.4c-0.4,0.2-0.3,0.8,0,0.9
						C141.6,107.9,142,107.6,142,107.2L142,107.2z"/>
				</g>
			</g>
		</g>
	</g>
</g>
<g id="Слой_43">
	<g id="Слой_44">
	</g>
	<g id="Слой_45">
	</g>
</g>
<g id="Слой_46">
	<g id="Слой_48">
	</g>
	<g id="Слой_47">
	</g>
	<g id="Слой_49">
	</g>
	<g id="Слой_50">
	</g>
	<g id="Слой_51">
	</g>
	<g id="Слой_52">
	</g>
	<g id="Слой_53">
	</g>
	<g id="Слой_54">
	</g>
	<g id="Слой_55">
	</g>
</g>
<g id="Слой_46__x28_копия_x29_">
	<g id="Слой_48__x28_копия_x29_">
	</g>
	<g id="Слой_47__x28_копия_x29_">
	</g>
	<g id="Слой_49__x28_копия_x29_">
	</g>
	<g id="Слой_50__x28_копия_x29_">
	</g>
	<g id="Слой_51__x28_копия_x29_">
	</g>
	<g id="Слой_52__x28_копия_x29_">
	</g>
	<g id="Слой_53__x28_копия_x29_">
	</g>
	<g id="Слой_55__x28_копия_x29_">
	</g>
	<g id="Слой_54__x28_копия_x29_">
	</g>
</g>
<g id="Слой_66">
	<g id="Слой_67">
	</g>
	<g id="Слой_68">
	</g>
	<g id="Слой_70">
	</g>
	<g id="Слой_69">
	</g>
</g>
<g id="Слой_72">
	<g id="Слой_75">
	</g>
	<g id="Слой_73">
	</g>
	<g id="Слой_74">
	</g>
	<g id="Слой_76">
	</g>
	<g id="Слой_77">
	</g>
	<g id="Слой_79">
	</g>
	<g id="Слой_78">
	</g>
</g>
<g id="Слой_89">
</g>
<g id="Слой_88">
	<g id="Слой_90">
	</g>
	<g id="Слой_92">
	</g>
</g>
<g id="Слой_93">
	<g id="Слой_91">
	</g>
	<g id="Слой_94">
	</g>
	<g id="Слой_95">
	</g>
</g>
<g id="Слой_98" class="st0">
</g>
<g id="Слой_80" class="st0">
	<g id="Слой_82" class="st1">
	</g>
	<g id="Слой_86" class="st1">
	</g>
	<g id="Слой_83" class="st1">
	</g>
	<g id="Слой_85" class="st1">
	</g>
	<g id="Слой_84" class="st1">
	</g>
	<g id="Слой_96" class="st1">
	</g>
	<g id="Слой_97" class="st1">
	</g>
	<g id="Слой_81" class="st1">
	</g>
</g>
<g id="Слой_71" class="st0">
</g>
<g id="Слой_117" class="st0">
	<g id="Слой_118" class="st1">
	</g>
	<g id="Слой_71__x28_копия_x29_" class="st1">
	</g>
	<g id="Слой_22__x28_копия_x29_" class="st1">
	</g>
</g>
</svg>
