<svg xmlns="http://www.w3.org/2000/svg" viewBox="0 0 15.58 15.24">
  <defs>
    <style>
      .cls-1 {
        fill: #4d2353;
      }
    </style>
  </defs>
  <title>Ресурс 26fb</title>
  <g id="Слой_2" data-name="Слой 2">
    <g id="иконки">
      <path class="cls-1" d="M9.49,14.35c-.48-.68-.08-2.17-.09-3C9.37,10,8.93,8.53,11,9a.3.3,0,0,0,.38-.29,15.14,15.14,0,0,0,.15-1.64.33.33,0,0,0-.33-.33C10.11,7.07,10,6.59,11,5.32A.38.38,0,0,0,11.56,5c0-.52,0-1,0-1.56a.35.35,0,0,0-.26-.34C8.72,2.43,8.12,3.11,7,5.3a2.68,2.68,0,0,1,0,.93,6.41,6.41,0,0,0-1.14.19c-.48.39-.36,1.07-.36,1.63a.38.38,0,0,0,.37.38c1.19-.1.89,2,.93,2.8A6,6,0,0,1,6.89,13c-.24.72-.61.66-1.45.68s-2,0-2.91-.05c-1.41,0-1.63-.29-1.69-2-.08-2.33.6-4.61.5-6.95A5.08,5.08,0,0,1,1.25,3,4.24,4.24,0,0,1,4,.85a14.54,14.54,0,0,1,3.34.41c1.82.2,5.06-.84,6.64,0s.73,4,.45,5.33c-.23,1.12-.6,2.23-.73,3.36-.07.61,0,1.22-.05,1.84,0,1,0,1.45-.75,2.1a3,3,0,0,1-3.32.34c-.44-.23-.83.44-.39.66a4.7,4.7,0,0,0,4.48-.27c1.28-1.1.68-3.41.9-4.87.31-2.14,2.53-7.11.33-8.89-1.48-1.2-4.32-.23-6-.19C6.74.71,4-.5,2,.44.17,1.3.63,3.27.69,4.94c.11,3.17-1,6.17,0,9.29a.36.36,0,0,0,.42.23,25.71,25.71,0,0,1,6.26.14.32.32,0,0,0,.33-.33c-.09-1.28-.14-2.56-.16-3.83,0-.54.18-1.85-.23-2.36-.11-.14-.38-.27-.46-.4s-.43,0-.45,0C6.25,7.32,7,7,7.45,7a.36.36,0,0,0,.34-.44c0,.16,3.13-4.93,3-1.51l.56-.32c-1.21-.55-3.57.37-2.67,2.15.33.65.35.3,1,.61.28.14,1.89.14.93.89-.08.07-1.47,0-1.77,0a.35.35,0,0,0-.25.33c-.07,1.4,0,2.86.09,4.27a2.55,2.55,0,0,0,.41,1.7c.18.22.57-.08.4-.32Z" transform="translate(-0.24 -0.08)"/>
    </g>
  </g>
</svg>
