<svg xmlns="http://www.w3.org/2000/svg" viewBox="0 0 15.15 14.83">
  <defs>
    <style>
      .cls-1 {
        fill: #b2b2b2;
      }
    </style>
  </defs>
  <title>Ресурс 4fb</title>
  <g id="Слой_2" data-name="Слой 2">
    <g id="Слой_161" data-name="Слой 161">
      <path class="cls-1" d="M9.07,14.15c-.52-.7-.15-2.21-.17-3,0-1.51-.34-3,1.9-2.52A.12.12,0,0,0,11,8.47a14.91,14.91,0,0,0,.14-1.64A.13.13,0,0,0,11,6.7c-1.26.3-1.31-.31-.13-1.84a.15.15,0,0,0,.23-.13,13.53,13.53,0,0,0,0-1.56A.16.16,0,0,0,10.94,3c-2.11-.56-3.41-.23-4.06,2-.08.29.08.84-.2,1.11-.12.12-.83,0-1,.18s-.22,1-.22,1.44c0,.07.07.16.15.15C6.9,7.82,6.66,10,6.7,11a6.08,6.08,0,0,1,.1,1.74c-.26.76-.83.84-1.71.88s-1.94,0-2.85,0C.76,13.46.41,13.06.35,11.31.27,9,1,6.71.85,4.37a5.41,5.41,0,0,1-.09-1.6A4.76,4.76,0,0,1,3.66.37,15.38,15.38,0,0,1,7,.79C8.81,1,11.34.08,13,.66c2.59.92,1.77,3.63,1.33,5.71-.23,1.1-.59,2.19-.72,3.3-.08.61,0,1.22,0,1.83,0,1.1,0,1.52-.85,2.25a3.13,3.13,0,0,1-3.58.39c-.18-.09-.34.18-.16.27a4.36,4.36,0,0,0,4.2-.24c1.23-1,.62-3.39.83-4.77.3-2,2.48-7,.43-8.65C13-.4,10.16.56,8.53.59,6.53.63,3.75-.56,1.8.34.05,1.14.54,3.09.6,4.66c.11,3.15-1,6.14,0,9.24a.14.14,0,0,0,.17.1A25.12,25.12,0,0,1,7,14.13.13.13,0,0,0,7.17,14C7.08,12.72,7,11.44,7,10.16c0-.56.18-1.73-.2-2.27-.07-.1-.29-.18-.33-.28s-.36,0-.39,0c-.51-.19-.46-.41.14-.68a.77.77,0,0,1,1-.43.15.15,0,0,0,.14-.18C8.68,2.76,9.83,2,10.77,4c-.12.32-.27.43-.45.34-.09.1-.52,0-.7.08-.62.41-1.34,1.25-1,2.09.27.67.22,0,.77.5.18.16,2.52.42.93,1.27-.23.13-1.32,0-1.72.06a.13.13,0,0,0-.1.13c-.06,1.41.05,2.86.07,4.27a2.4,2.4,0,0,0,.33,1.59c.07.1.24,0,.17-.13Z" transform="translate(-0.14)"/>
    </g>
  </g>
</svg>
