<svg xmlns="http://www.w3.org/2000/svg" viewBox="0 0 15.04 15.17">
  <defs>
    <style>
      .cls-1 {
        fill: #b2b2b2;
      }
    </style>
  </defs>
  <title>Ресурс 5insta</title>
  <g id="Слой_2" data-name="Слой 2">
    <g id="Слой_161" data-name="Слой 161">
      <path class="cls-1" d="M3.07,1.17C1.33.94.71,1,.56,2.91.3,5.92.32,9,.12,12,0,13.34.31,14,1.62,14.3c1.59.35,3.49.21,5.15.4a40.68,40.68,0,0,0,5.61.46c2.19-.07,2-1,2.32-3.15a29.79,29.79,0,0,0,.07-9.79c-.31-1.5-1-1.85-2.56-2.08C8.67-.41,5.23.85,1.75.83a.29.29,0,0,0,0,.58c1.82,0,3.59-.5,5.42-.64C8.28.69,9.41.6,10.53.62c2,0,3-.08,3.78,2.36.56,1.82.32,4.25.2,6.13A32.42,32.42,0,0,1,14,13.16c-.25,1.28-.75,1.32-2,1.45a31.09,31.09,0,0,1-6.09-.48,23.73,23.73,0,0,0-2.53-.3,2.77,2.77,0,0,1-2.87-1.3A9.45,9.45,0,0,1,.72,11C.94,9-.09,1.38,3.07,1.49c.21,0,.2-.29,0-.32Z" transform="translate(-0.11)"/>
      <path class="cls-1" d="M10.71,7c-.54-2.59-4-2.87-5.77-1.53a3,3,0,0,0-.39,4.7,4.23,4.23,0,0,0,4.83.64C10.64,10,11.9,7.1,10,6.31a.25.25,0,0,0-.29.39,2.4,2.4,0,0,1-1.28,3.81,3.7,3.7,0,0,1-3.33-.66,2.44,2.44,0,0,1,.25-4A3.44,3.44,0,0,1,8,5.22c1.11.25,1.71,1.16,2.52,1.85a.1.1,0,0,0,.16-.1Z" transform="translate(-0.11)"/>
      <path class="cls-1" d="M13.19,3c-.3-1.33-3.46,0-2,1.33A1.28,1.28,0,0,0,13.12,4c.24-.32.43-1.39-.31-1.17a.17.17,0,0,0-.1.25c.19.26.19.41-.06.67a.76.76,0,0,1-1.16,0c-.26-.34.11-.66.42-.8s.71,0,1.12.14A.13.13,0,0,0,13.19,3Z" transform="translate(-0.11)"/>
    </g>
  </g>
</svg>
