<svg xmlns="http://www.w3.org/2000/svg" viewBox="0 0 15.32 15.49">
  <defs>
    <style>
      .cls-1 {
        fill: #4d2353;
      }
    </style>
  </defs>
  <title>Ресурс 27inst</title>
  <g id="Слой_2" data-name="Слой 2">
    <g id="иконки">
      <path class="cls-1" d="M3.32,1.26C1.73,1,.9,1,.64,2.75c-.44,2.92-.05,6-.4,8.92C.06,13.18.13,14.25,1.75,14.6S5.29,14.82,7,15a40.19,40.19,0,0,0,5.25.49c2.06,0,2.33-.3,2.67-2.33a30.75,30.75,0,0,0,.23-10.78C14.78.79,14,.39,12.39.14,8.85-.4,5.41.86,1.93.84a.46.46,0,0,0,0,.91c1.83,0,3.59-.5,5.42-.63C8.46,1,9.6.94,10.71,1c1.87,0,2.9-.1,3.63,2.2.57,1.81.32,4.25.2,6.12a28.45,28.45,0,0,1-.47,4c-.25,1.25-.64,1.22-1.86,1.32a32.75,32.75,0,0,1-6.09-.46c1.21.13-2.89-.38-2.53-.29A2.65,2.65,0,0,1,.86,12.7,8,8,0,0,1,1,11.24a42.18,42.18,0,0,0,.19-4.77,21.5,21.5,0,0,1,0-2.41,2.76,2.76,0,0,1,.93-2.38,4.18,4.18,0,0,0,1.06.08c.28,0,.36-.45.07-.5Z" transform="translate(-0.17 -0.01)"/>
      <path class="cls-1" d="M11,7.17C11,6,9.49,5,8.41,4.68a4.17,4.17,0,0,0-3.23.68,3.23,3.23,0,0,0-.57,5.08A4.39,4.39,0,0,0,9.86,11c1.22-.84,2.41-4.08.33-4.64a.39.39,0,0,0-.43.57c2,2.93-2.15,4.79-4.35,3a2.29,2.29,0,0,1,.38-3.82A3,3,0,0,1,8.5,5.68C9.44,6,9.9,6.86,10.73,7.3A.15.15,0,0,0,11,7.17Z" transform="translate(-0.17 -0.01)"/>
      <path class="cls-1" d="M13.44,3.25c.09-.48-.48-.72-.88-.74A1.7,1.7,0,0,0,11.29,3a1.18,1.18,0,0,0,.9,2c.75,0,1.87-1,1.42-1.77-.16-.3-.81-.49-.84,0,0,.12.15.29.15.31,0,.17-.18.34-.29.43-.32.23-1.17.08-.81-.39a1,1,0,0,1,.65-.32c.28,0,.51.21.78.17a.2.2,0,0,0,.19-.15Z" transform="translate(-0.17 -0.01)"/>
    </g>
  </g>
</svg>
