<svg xmlns="http://www.w3.org/2000/svg" viewBox="0 0 15.09 15.37">
  <defs>
    <style>
      .cls-1 {
        fill: #b2b2b2;
      }
    </style>
  </defs>
  <title>Ресурс 2itunes</title>
  <g id="Слой_2" data-name="Слой 2">
    <g id="Слой_161" data-name="Слой 161">
      <path class="cls-1" d="M14.89,6.61C15,2.34,10.32-.74,6.31.16,1.51,1.24-1.45,7.1.72,11.54c1.77,3.6,7,4.71,10.45,3.13,4.33-2,4.6-6.83,3.08-10.74-.08-.2-.43-.2-.4,0a37,37,0,0,1,.74,3.8,6.86,6.86,0,0,1-2.15,5.36c-2.76,2.4-6.82,2-9.62-.07C-1.32,10.05.49,3.86,4.35,1.5c4-2.44,10.06.1,10.18,5.11a.18.18,0,1,0,.36,0Z"/>
      <path class="cls-1" d="M4.83,11.42A1,1,0,0,0,5,11.15.15.15,0,0,0,4.83,11a.88.88,0,0,0-.79.91c0,.09.08.15.16.16.59.06,1.61-.23,1.75-.9a.18.18,0,0,0-.12-.21c-.63-.19-1.64.12-1.68.87a.17.17,0,0,0,.17.18,1.68,1.68,0,0,0,1.46-.88.2.2,0,0,0-.11-.29,1.65,1.65,0,0,0-2,.91.22.22,0,0,0,.14.32c.8.28,1.76-.49,2-1.22a.24.24,0,0,0-.06-.23,1.05,1.05,0,0,0-1.58.47.56.56,0,0,0,.32.69,1.2,1.2,0,0,0,.94-.25c.33-.21,1.26-1,.51-1.3s-1.68.47-2.1,1a.24.24,0,0,0,.15.35c.49.16,2-.23,1.49-1s-1.56.39-1.71.94a.2.2,0,0,0,.37.16c.14-.23.51-.88.81-.87s-.21.24-.29.26a1,1,0,0,1-.54,0l.14.35a2.41,2.41,0,0,1,.85-.7.87.87,0,0,1,.56-.14s.11-.11,0,0a1.31,1.31,0,0,1-.2.21c-.13.12-.54.47-.74.41s0-.26.13-.33a.56.56,0,0,1,.57,0l-.07-.23c-.17.5-.89,1.08-1.44.91l.15.28a1.24,1.24,0,0,1,1.53-.71l-.12-.28a1.26,1.26,0,0,1-1.13.73l.18.17c0-.5.85-.65,1.23-.53L5.61,11c-.1.51-1,.7-1.41.66l.17.17a.6.6,0,0,1,.5-.62l-.18-.14a.78.78,0,0,0,0,.3c0,.05.07.05.1,0Z"/>
      <path class="cls-1" d="M11.46,8.63c-.49-.25-.78.46-.93.8,0,.13,0,.32.18.31a1.28,1.28,0,0,0,1-.71.21.21,0,0,0-.07-.29,1.4,1.4,0,0,0-1.8.62.23.23,0,0,0,.2.34,2.34,2.34,0,0,0,1.7-.83.25.25,0,0,0,0-.33,1.57,1.57,0,0,0-2.29.57.24.24,0,0,0,.11.27c.52.28,1.1-.12,1.43-.52s.45-.95-.17-1-1.4.65-1.19,1.23c.28.77,1.27,0,1.49-.42A.24.24,0,0,0,11,8.36a1,1,0,0,0-.93.16c-.2.12-.07.47.16.39a.85.85,0,0,1,.64-.09l-.14-.35c-.07.13-.63.62-.6.41s.29-.33.4-.4.35-.1.31-.14-.09.08-.13.14a1.6,1.6,0,0,1-.25.27c-.16.14-.43.34-.64.22l.11.27a1.13,1.13,0,0,1,1.5-.37V8.54a1.9,1.9,0,0,1-1.37.7l.19.35c.25-.37.74-.73,1.19-.48l-.07-.29a.89.89,0,0,1-.65.51l.19.26c.09-.26.22-.75.54-.8a.09.09,0,0,0,0-.16Z"/>
      <path class="cls-1" d="M5.79,3.44c-.17,2.44.42,4.8-.06,7.25,0,.23.31.34.37.1.61-2.34.19-5-.18-7.37,0-.07-.12,0-.13,0Z"/>
      <path class="cls-1" d="M11.29,2.65a10,10,0,0,0-.11,3.14c.09,1,.13,1.92.23,2.85a.13.13,0,0,0,.24.07c.46-.66.2-1.55.09-2.3-.17-1.24-.05-2.54-.31-3.76a.07.07,0,0,0-.14,0Z"/>
      <path class="cls-1" d="M6.23,4.2c1.61-.33,3.55-.21,5-1A.29.29,0,0,0,11,2.69c-1.62.46-3.38.39-5,1a.29.29,0,0,0,.15.56Z"/>
    </g>
  </g>
</svg>
