<svg xmlns="http://www.w3.org/2000/svg" viewBox="0 0 15.71 15.93">
  <defs>
    <style>
      .cls-1 {
        fill: #4d2353;
      }
    </style>
  </defs>
  <title>Ресурс 29it</title>
  <g id="Слой_2" data-name="Слой 2">
    <g id="иконки">
      <path class="cls-1" d="M15.35,6.86C15.58,2.44,10.62-.79,6.51.18,1.6,1.34-1.51,7.34.76,11.93,2.62,15.67,8,16.87,11.59,15.19c4.32-2,5-7.24,3.09-11.17a.43.43,0,0,0-.8.21c0,1.32.67,2.44.67,3.8a6.56,6.56,0,0,1-2.07,5.14c-2.57,2.22-6.37,1.88-9,.07C-.71,10.42.85,4.25,4.73,2s9.62.09,9.86,4.91a.38.38,0,0,0,.76,0Z" transform="translate(0 -0.01)"/>
      <path class="cls-1" d="M5.07,11.76a.59.59,0,0,0,.29-.25c.14-.19-.06-.45-.27-.45a1,1,0,0,0-1,1.06.35.35,0,0,0,.34.35c.67.07,1.77-.28,1.93-1A.38.38,0,0,0,6.14,11c-.76-.23-1.87.18-1.93,1.06a.37.37,0,0,0,.37.36,1.9,1.9,0,0,0,1.65-1A.41.41,0,0,0,6,10.85a1.87,1.87,0,0,0-2.3,1,.48.48,0,0,0,.28.69c.94.35,2-.54,2.34-1.39a.5.5,0,0,0-.13-.48,1.32,1.32,0,0,0-2,.59.83.83,0,0,0,.51,1A1.43,1.43,0,0,0,5.8,12c.52-.34,1.53-1.42.45-1.78-.9-.31-1.89.47-2.39,1.15a.51.51,0,0,0,.3.74c.74.23,2.49-.44,1.75-1.43S3.86,11,3.77,11.83a.44.44,0,0,0,.74.3c.11-.13.22-.26.32-.4s.42-.34.44-.43S5.1,11,5.1,11a1.28,1.28,0,0,0-.22.09.91.91,0,0,1-.46,0l.3.74a2.28,2.28,0,0,1,.76-.62s.44-.1.43-.1l-.16-.45,0,.05c-.06,0-.16.17-.2.2a2.34,2.34,0,0,1-.27.2,3.52,3.52,0,0,0-.33.15s.15.22.2.22.07-.07.1-.07.22-.11.25-.08l-.12-.48c-.13.38-.72.87-1.14.75l.33.58a1,1,0,0,1,1.23-.57l-.29-.5a1,1,0,0,1-.9.55l.37.37c0-.37.74-.43,1-.36l-.25-.44c-.08.41-.88.55-1.23.52l.35.35a.46.46,0,0,1,.36-.47l-.37-.21a.49.49,0,0,0,.16.29.14.14,0,0,0,.11,0Z" transform="translate(0 -0.01)"/>
      <path class="cls-1" d="M11.8,8.83c-.47-.55-1,.39-1.2.74a.43.43,0,0,0,.36.64,1.49,1.49,0,0,0,1.22-.81A.45.45,0,0,0,12,8.79a1.66,1.66,0,0,0-2.13.69.49.49,0,0,0,.42.72,2.55,2.55,0,0,0,1.88-.9.51.51,0,0,0,0-.69,1.8,1.8,0,0,0-2.71.69.48.48,0,0,0,.22.55,1.45,1.45,0,0,0,1.75-.56c.4-.48.52-1.41-.36-1.39-.7,0-1.74.81-1.43,1.58.39,1,1.61.23,2-.38a.51.51,0,0,0-.3-.74,1.12,1.12,0,0,0-1.12.22.44.44,0,0,0,.34.8,1,1,0,0,1,.51-.05l-.3-.74a.75.75,0,0,1-.24.26s-.16.08-.16.1.21.3.27.29.21-.23.29-.28.28,0,.05-.28-.07-.21-.23-.08-.13.16-.2.22S10.26,9,10.2,9l.22.56c.09-.28.87-.44,1.08-.26V8.61a1.71,1.71,0,0,1-1.19.64l.41.72c.16-.26.53-.58.85-.41L11.41,9a.69.69,0,0,1-.56.43l.52.52c.08-.25.16-.64.4-.79a.18.18,0,0,0,0-.28Z" transform="translate(0 -0.01)"/>
      <path class="cls-1" d="M6,3.66a13.7,13.7,0,0,0,0,3.2,18.66,18.66,0,0,1-.19,4,.4.4,0,0,0,.77.22,14.46,14.46,0,0,0-.31-7.44c0-.13-.24-.14-.26,0Z" transform="translate(0 -0.01)"/>
      <path class="cls-1" d="M11.49,2.84a6.31,6.31,0,0,0-.28,3.37c0,.55.19,1.09.2,1.65A2,2,0,0,0,11.57,9a.27.27,0,0,0,.36.09c.8-.45.47-1.57.35-2.34-.19-1.25,0-2.8-.54-3.94a.15.15,0,0,0-.25,0Z" transform="translate(0 -0.01)"/>
      <path class="cls-1" d="M6.42,4.74c1-.11,1.9-.26,2.85-.38a5.26,5.26,0,0,0,2.4-.66.57.57,0,0,0-.44-1c-.94.16-1.85.4-2.81.51a7.45,7.45,0,0,0-2.29.5.57.57,0,0,0,.29,1.06Z" transform="translate(0 -0.01)"/>
    </g>
  </g>
</svg>
