<svg xmlns="http://www.w3.org/2000/svg" viewBox="0 0 14.43 13.5">
  <defs>
    <style>
      .cls-1 {
        fill: #b2b2b2;
      }
    </style>
  </defs>
  <title>Ресурс 3soundcloud</title>
  <g id="Слой_2" data-name="Слой 2">
    <g id="Слой_161" data-name="Слой 161">
      <path class="cls-1" d="M.15,1.9c.23,3.22.19,6.4.17,9.63,0,.93-.14,1.47.74,1.83s2.42,0,3.24,0c1.58,0,3.15-.12,4.74-.13,1.36,0,4,.54,4.92-.83.77-1.13.37-3.18.31-4.43C14.2,6.5,14,5,13.89,3.57A4.92,4.92,0,0,0,13.28.94C12.34-.26,10,0,8.71,0A27.56,27.56,0,0,0,.17,1.41c-.3.1-.17.57.13.47A27.58,27.58,0,0,1,7,.57C8.71.46,12.33,0,13.26,2.09c.66,1.5.5,4.68.57,6.32.1,2.28.12,4-3,4.32-1.73.19-3.53,0-5.27.1-1.08,0-4.34.72-4.84-.73C.31,10.87.82,8.72.81,7.37a25.41,25.41,0,0,0-.49-5.5.09.09,0,0,0-.17,0Z" transform="translate(0)"/>
      <path class="cls-1" d="M7.18,5.1a4.76,4.76,0,0,0,.13,1.59,20.5,20.5,0,0,1,.13,2.48.2.2,0,0,0,.25.19c1.3-.23,2.68,0,4-.25a1.92,1.92,0,0,0,1.6-1.34A1.53,1.53,0,0,0,10.8,6.26l.32.18c.29-2.05-2.74-2.54-4-1.51-.14.11.05.36.2.25,1-.8,3.59-.43,3.44,1.21a.19.19,0,0,0,.33.14,1.09,1.09,0,0,1,.79-.19c.32,0,.51.21.58.67q.83.47.3,1c-.36.95-1.54.78-2.32.77A20.64,20.64,0,0,0,7.58,9l.25.19A13.32,13.32,0,0,0,7.34,5.1c0-.07-.15-.08-.16,0Z" transform="translate(0)"/>
      <path class="cls-1" d="M6.47,5.13a17.3,17.3,0,0,0,.12,2.49,4.7,4.7,0,0,0,.17,1.63.09.09,0,0,0,.16,0A8.11,8.11,0,0,0,6.8,7.47c0-.78-.11-1.57-.18-2.34a.08.08,0,1,0-.15,0Z" transform="translate(0)"/>
      <path class="cls-1" d="M5.82,5.75A7.92,7.92,0,0,0,5.93,7.5c.06.57.07,1.16.16,1.74,0,.12.22.09.21,0a30.92,30.92,0,0,0-.37-3.47.06.06,0,0,0-.11,0Z" transform="translate(0)"/>
      <path class="cls-1" d="M4.89,5.35c.07,1.33.39,2.65.48,4,0,.29.43.08.24-.1l0,0a.11.11,0,0,0-.15,0l0,0,.24.1a21.76,21.76,0,0,0-.7-4,0,0,0,0,0-.06,0Z" transform="translate(0)"/>
      <path class="cls-1" d="M4.2,5.77A21.14,21.14,0,0,0,4.46,9.5a.15.15,0,0,0,.29,0,4.76,4.76,0,0,0-.13-1.35c-.12-.79-.15-1.61-.33-2.39,0,0-.08,0-.09,0Z" transform="translate(0)"/>
      <path class="cls-1" d="M3.39,7.1c.06.8.2,1.59.27,2.38a.13.13,0,0,0,.26,0,6,6,0,0,0-.19-1.33c-.06-.33,0-.83-.28-1.07,0,0-.07,0-.06,0Z" transform="translate(0)"/>
      <path class="cls-1" d="M2.52,6.27c.09,1.12.17,2.24.27,3.36a.12.12,0,1,0,.24,0,16.28,16.28,0,0,0-.23-2,5.13,5.13,0,0,0-.23-1.41s-.06,0,0,0Z" transform="translate(0)"/>
      <path class="cls-1" d="M2,7.55a6.05,6.05,0,0,0,.1,1.34.12.12,0,0,0,.24,0A3.9,3.9,0,0,0,2,7.55a0,0,0,0,0-.07,0Z" transform="translate(0)"/>
    </g>
  </g>
</svg>
