<svg xmlns="http://www.w3.org/2000/svg" viewBox="0 0 14.91 13.98">
  <defs>
    <style>
      .cls-1 {
        fill: #4d2353;
      }
    </style>
  </defs>
  <title>Ресурс 30sc</title>
  <g id="Слой_2" data-name="Слой 2">
    <g id="иконки">
      <path class="cls-1" d="M.31,2.15c0,3.2,0,6.42,0,9.63,0,1.06-.09,1.72,1,2.07a11.42,11.42,0,0,0,3.25,0c1.58,0,3.15-.11,4.73-.12s4.13.52,5.13-.94c.81-1.18.42-3.25.36-4.58-.09-1.88.18-5.55-1-7.15C12.78-.25,10.4,0,9,0a28,28,0,0,0-8.6,1.4c-.61.19-.35,1.16.27,1a27.39,27.39,0,0,1,6.59-1.3C8.84,1,12.38.48,13.27,2.41a12,12,0,0,1,.31,3.17c.1,1,.21,2.05.26,3.08.1,2.19.2,3.74-2.74,4.07-1.72.19-3.52,0-5.26.09-.92,0-4.1.67-4.6-.47a7.88,7.88,0,0,1,.05-1.95c0-.92,0-1.85,0-2.78A19,19,0,0,0,.67,2.1a.18.18,0,0,0-.36,0Z" transform="translate(-0.01)"/>
      <path class="cls-1" d="M7.36,5.29a2.21,2.21,0,0,0-.05,1.35c.11.93.14,1.84.17,2.78A.41.41,0,0,0,8,9.81c1.3-.25,2.66-.07,3.95-.27a2.13,2.13,0,0,0,1.76-1.47A1.75,1.75,0,0,0,10.9,6.36l.68.39C12,4.47,8.65,3.87,7.23,5.06c-.28.24.1.75.41.52,1-.69,3.23-.39,3.14,1.06a.41.41,0,0,0,.69.29A.77.77,0,0,1,12,6.78c.31,0,.51.15.59.55.45.26.53.54.23.83-.37.76-1.25.69-2,.68a24.85,24.85,0,0,0-3,.16l.41.42a7.4,7.4,0,0,0-.63-4.13.18.18,0,0,0-.31,0Z" transform="translate(-0.01)"/>
      <path class="cls-1" d="M6.62,5.33A10.12,10.12,0,0,0,6.69,8c0,.4-.11,1.38.29,1.63a.23.23,0,0,0,.27,0c.09-.09.08-.15.1-.26a7.6,7.6,0,0,0-.13-1.48A15.28,15.28,0,0,0,7,5.33c0-.18-.34-.19-.37,0Z" transform="translate(-0.01)"/>
      <path class="cls-1" d="M6,6A4,4,0,0,0,6,7.61a13.72,13.72,0,0,0,.19,1.92.27.27,0,0,0,.53-.07,9.57,9.57,0,0,0-.47-3.53C6.2,5.81,6,5.86,6,6Z" transform="translate(-0.01)"/>
      <path class="cls-1" d="M5.1,5.6a24.3,24.3,0,0,0,.31,4c0,.46.74.46.71,0a12.06,12.06,0,0,0-.87-4,.08.08,0,0,0-.15,0Z" transform="translate(-0.01)"/>
      <path class="cls-1" d="M4.39,6a6,6,0,0,0,0,2.32,8.74,8.74,0,0,0,.15,1.54.36.36,0,0,0,.7,0,3.69,3.69,0,0,0-.12-1.51A9,9,0,0,0,4.61,6a.12.12,0,0,0-.22,0Z" transform="translate(-0.01)"/>
      <path class="cls-1" d="M3.6,7.3c-.19.26-.09.85-.06,1.13,0,.46.11.94.19,1.39s.6.24.64-.09a5.81,5.81,0,0,0-.33-2C4,7.63,3.8,7,3.6,7.3Z" transform="translate(-0.01)"/>
      <path class="cls-1" d="M2.73,6.5A10.93,10.93,0,0,0,2.87,10c.06.35.58.24.6-.09a8.51,8.51,0,0,0-.24-1.94,3.27,3.27,0,0,0-.38-1.47.07.07,0,0,0-.12,0Z" transform="translate(-0.01)"/>
      <path class="cls-1" d="M2.2,7.75c-.31.35-.07,1-.05,1.39a.3.3,0,0,0,.59,0,1.92,1.92,0,0,0-.42-1.39.08.08,0,0,0-.12,0Z" transform="translate(-0.01)"/>
    </g>
  </g>
</svg>
