<svg xmlns="http://www.w3.org/2000/svg" viewBox="0 0 15.81 10.86">
  <defs>
    <style>
      .cls-1 {
        fill: #b2b2b2;
      }
    </style>
  </defs>
  <title>Ресурс 1youtube</title>
  <g id="Слой_2" data-name="Слой 2">
    <g id="Слой_161" data-name="Слой 161">
      <path class="cls-1" d="M.89,1.19C-.25,1.89.14,3.73.15,4.84S-.24,9,.55,10s3.15.5,4.15.48c2.88-.07,6.13.74,9,.19,1.72-.34,2.17-1.51,2.19-3.14S16.1,2.2,14.71.87C13.49-.3,10.92,0,9.45.16A47.37,47.37,0,0,1,4.27.85a9.1,9.1,0,0,0-3.64.44.24.24,0,1,0,.18.44c1.64-.69,3.42-.31,5.13-.5C8.12,1,10.17.33,12.41.54c3.15.3,2.79,3.73,2.93,6.11.09,1.43.3,2.82-1.45,3.53a7.8,7.8,0,0,1-3,.08c-1.8-.09-3.61-.18-5.41-.18-1.14,0-3,.46-4.07,0s-.94-2.95-1-4-.57-4,.52-4.7c.11-.07,0-.24-.1-.17Z" transform="translate(-0.06)"/>
      <path class="cls-1" d="M4.71,3.91a9.69,9.69,0,0,1-.08,1.47c0,.58.16,1.14.17,1.71s-.14,1.35.46,1.66,1.42-.28,1.91-.48a27.31,27.31,0,0,0,3.29-1.4c.64-.35,1.86-1.18.85-1.83A10.31,10.31,0,0,0,8.26,4.2,15.67,15.67,0,0,0,5,3.45C4.6,3.44,4.6,4,5,4a11.28,11.28,0,0,1,2.48.57c.78.2,1.58.34,2.35.56s1.45.27.69,1a6.93,6.93,0,0,1-2.25,1l-1.81.7c-1.06.44-1-.25-1-1.09s-.24-1.6-.36-2.39c0-.21,0-.53-.19-.68a.11.11,0,0,0-.15.15Z" transform="translate(-0.06)"/>
    </g>
  </g>
</svg>
