<svg xmlns="http://www.w3.org/2000/svg" viewBox="0 0 16.23 11.33">
  <defs>
    <style>
      .cls-1 {
        fill: #4d2353;
      }
    </style>
  </defs>
  <title>Ресурс 28yt</title>
  <g id="Слой_2" data-name="Слой 2">
    <g id="иконки">
      <path class="cls-1" d="M1.1,1.33C-.11,2.05.24,3.9.25,5.08s-.42,4.2.39,5.26S3.85,11,5,10.93c2.9-.06,6.17.77,9,.2,1.82-.36,2.34-1.63,2.37-3.37s.24-5.43-1.21-6.82C13.86-.3,11.23,0,9.67.16A44.33,44.33,0,0,1,4.53.83a9.48,9.48,0,0,0-3.71.45.5.5,0,1,0,.38.91C2.79,1.5,4.59,1.9,6.26,1.7c2.13-.26,4.23-1,6.41-.69,2.95.46,2.55,3.54,2.69,5.87.08,1.32.31,2.64-1.28,3.31a7.84,7.84,0,0,1-2.9.07c-1.8-.09-3.61-.16-5.41-.16-1,0-3.1.51-4,0S.94,7.29.9,6.3s-.59-3.92.41-4.61c.22-.15,0-.51-.21-.36Z" transform="translate(-0.14 0)"/>
      <path class="cls-1" d="M4.85,4.18s-.24.88-.25,1.05c0,.61.14,1.22.16,1.83s-.17,1.62.49,2.09,1.22.07,1.8-.17c1.21-.5,2.46-.9,3.63-1.52.84-.44,2.44-1.64,1-2.44A12.59,12.59,0,0,0,8.6,4.16,16.28,16.28,0,0,0,5.23,3.4a.58.58,0,0,0,0,1.15,11,11,0,0,1,2.4.55c.85.22,1.71.38,2.55.63l.87.27c0-.07-.53.2-.54.21-.77.35-1.5.73-2.29,1-.58.22-1.19.54-1.78.7S6.08,8.2,6,7.66c-.06-.27,0-.74,0-1C5.86,6,5.76,4.27,5.16,3.88c-.18-.12-.44.12-.31.3Z" transform="translate(-0.14 0)"/>
    </g>
  </g>
</svg>
