<svg xmlns="http://www.w3.org/2000/svg" viewBox="0 0 52.36 50.27">
  <defs>
    <style>
      .cls-1 {
        fill: #6b2b72;
      }

      .cls-2 {
        opacity: 0.1;
      }

      .cls-3 {
        fill: #c384cc;
      }

      .cls-4 {
        opacity: 0.13;
      }

      .cls-5 {
        opacity: 0.15;
      }

      .cls-6 {
        opacity: 0.07;
      }

      .cls-7 {
        fill: #422047;
      }
    </style>
  </defs>
  <title>Ресурс 17home</title>
  <g id="Слой_2" data-name="Слой 2">
    <g id="иконки_входа" data-name="иконки входа">
      <g id="Слой_237" data-name="Слой 237">
        <path class="cls-1" d="M45.33,29.43c-.44-2.3-.37-5.07-1-7.22s-1.52-2.46-3.81-2.44c-5,0-10.22-.21-15.21.47C19.93,21,15,21.57,9.52,21.05c-2-.18-2.49,2-1.58,3.3-1.74,6.34,0,14.44.22,20.86a2.43,2.43,0,0,0,2.36,2.37,57,57,0,0,0,11.37.67c3.44-.28,7-1.63,10.38-1.64a1.41,1.41,0,0,0,1.26-.73c1.17-2.75,0-5.17.17-8,.16-2.27,0-1.32,2.74-1.33,2.32,0,4.71-.35,7-.56a2.06,2.06,0,0,0,2-1.49A13.83,13.83,0,0,0,45.33,29.43Zm-22.93.13c.32,1.16,0,3.46.1,4.39.1,1.1.24,2.19.39,3.28-.89.34-1.78.67-2.68,1s-4.29,1.63-5.17.92c-.71-.59-.72-2.6-.91-3.48a31.66,31.66,0,0,1-.84-5.2C16.28,30.37,19.41,29.5,22.4,29.56Z"/>
      </g>
      <g id="Слой_236" data-name="Слой 236">
        <path class="cls-1" d="M9.3,19.69a35.26,35.26,0,0,0-8,.16l1.77,3c4.31-3.47,8.88-6.5,13.35-9.75,3.75-2.71,7.81-7.37,12.27-8.64,2.84-.82,1.41-5.42-1.2-4.33C23.08,2,20,5.49,16.4,8.49A163.31,163.31,0,0,1,.85,20c-1.17.76-1.23,3.07.43,3.32a35.29,35.29,0,0,0,8,.24,2,2,0,0,0,0-3.9Z"/>
        <path class="cls-1" d="M28.41,1.66c-.11,4.49,6.59,9.28,9.7,12,4.18,3.58,6.25,7.7,11.58,9.71L50.27,19c-3.4-.29-7.69-1.62-9.19,2.24-.81,2.08,2,3.09,3.36,2,1-.83,4.61.08,5.83.16,2.58.19,2.76-3.5.58-4.28-3.11-1.11-4-2.94-6.08-5.2a59.51,59.51,0,0,0-6.06-5.13c-2.86-2.38-6-7.17-9.83-7.58a.47.47,0,0,0-.47.46Z"/>
        <path class="cls-1" d="M7.11,21.83c-.23,8.5-.06,17,.3,25.45A1.77,1.77,0,0,0,9.15,49c11.39-.16,22.72-.61,34.12-.28a2,2,0,0,0,1.95-1.49,77.94,77.94,0,0,0,.43-24c-.35-2.65-4.57-2.69-4.22,0a89.57,89.57,0,0,1-.19,23.42l2-2c-11.35,0-22.8-.1-34.12.86l1.74,1.73c-.76-8.46-1.17-17-1.43-25.45a1.18,1.18,0,0,0-2.35,0Z"/>
        <path class="cls-1" d="M8.15,22.68c5.92,1.58,12.43,1,18.51,1s11.78-.43,17.73-.32c2.73,0,2.57-3.83,0-4.14-6-.72-11.77.15-17.73.15s-12.58-.61-18.51.95a1.24,1.24,0,0,0,0,2.37Z"/>
        <path class="cls-1" d="M11.5,15.32a1.42,1.42,0,0,0-.2,2.38c1.61,1.42,4.55-.63,5.81-1.51l-.45-.58a1.26,1.26,0,0,0,.66,2.16c1.6.45,3.32-1.7,4.33-2.56l-.7-.29c0,1,0,2.21,1.08,2.67a2,2,0,0,0,1.46-.09c.53-.17,1.57-1.34,2-1.3,1,.07,1.17,1.74,2.49,1.74s2-1.22,2.49-2.23h-.83c.62.95,1.61,2.74,3,2.73S34.46,16.93,35,16l-.82.1c1.35,1.37,3.46,2.49,5.44,1.86a2.51,2.51,0,0,0,1.73-3.23.44.44,0,0,0-.86.11c-.29,3.94-4.35,1.74-5.57.52a.54.54,0,0,0-.83.1c-.53.83-.48,1.29-1.57,1.35s-1.39-.6-2.08-1.63a.49.49,0,0,0-.83,0,1.94,1.94,0,0,1-3,.56s-.73-.92-.58-.74a.45.45,0,0,0-.62,0c-.55.51-3.75,3.46-3.7-.12a.41.41,0,0,0-.7-.29l-1.26,1.08a1.83,1.83,0,0,1-2.57.35c.22-.29-.21-.72-.51-.51a11.08,11.08,0,0,1-1.33.9c-1.1.82-2.29.6-3.54-.67.25-.2-.09-.65-.36-.46Z"/>
        <path class="cls-1" d="M17.56,10.72c-.9.65-1.52,2-.48,2.8,1.37,1.07,3.81-.6,4.72-1.55L21,11.75c.68,3.83,4.86,2.19,6.43.05l-.81.1c1.87,1.78,6,4,7.09.14l-.9.24c1.34,1.11,3.16,2.48,5,1.6a2.41,2.41,0,0,0,1.3-2.77c-.11-.71-1.19-.41-1.08.3-1.74,1.54-3.23,1.58-4.45.11a.55.55,0,0,0-.9.24c-.89,3.21-4.25.42-5.32-.59a.53.53,0,0,0-.81.11q-1.62,3-4.58.21a.5.5,0,0,0-.83-.22,4.12,4.12,0,0,1-1.94,1.35c-1.31.62-1.71.15-1.22-1.41.2-.25-.07-.72-.38-.49Z"/>
        <path class="cls-1" d="M23.21,5.73c-1.22,1.14-2.39,3.52-.3,4.39,1.86.78,3.89-.84,4.7-2.37h-.9c1.15,2.51,3.36,3.54,4.54.49l-.95.25c1.73,2.15,4.35,1.8,4.13-1.33a.55.55,0,0,0-1.1,0c-.08,1.14-1.58,1.31-2.23.52-.29-.36-.81-.1-1,.26-.94,2.5-2.17,0-2.54-.71a.52.52,0,0,0-.9,0c-.36.7-1.92,2.62-2.93,2-1.54-.86-.8-2.17-.29-3.34a.18.18,0,0,0-.28-.21Z"/>
        <path class="cls-1" d="M32.94,36c-.54,1.45-.06,2.94,0,4.44s0,3.16.14,4.76,2.13.08,1-.58l-.15-.09a.44.44,0,0,0-.5.07l-.15.13,1.13.47c-.4-3.1-.38-6.13-1-9.2-.05-.24-.37-.2-.44,0Z"/>
        <path class="cls-1" d="M33.41,36.7c1.4.39,3.06,0,4.49-.1,2-.14,4-.28,5.91-.47.82-.08.85-1.35,0-1.3-1.84.11-3.68.27-5.51.43a27.14,27.14,0,0,1-4.75.36c-.63-.07-.73.92-.14,1.08Z"/>
        <path class="cls-1" d="M35.44,41.68c-.17-.12.13.24.16.27a.81.81,0,0,0,.31.18.69.69,0,0,0,.73-.21.7.7,0,0,0,.13-.72c-.05-.14-.15-.2-.25-.31l-.11-.12a.9.9,0,0,0-1.35.44.94.94,0,0,0,1,1.17,1,1,0,0,0,.79-1.3,1,1,0,0,0-1.65-.41,1.07,1.07,0,0,0,.12,1.69A1.12,1.12,0,0,0,37,41.62a.75.75,0,0,0-.91-.9,1,1,0,0,0-.53.3.74.74,0,0,0-.19.72l0,.1a.69.69,0,0,0,1.25.17l-.17.13-.9-.91c-.05.34.27.55.53.62l-.32-.24.37-.42a.52.52,0,0,1-.1-.11.55.55,0,0,0-.19-.15.44.44,0,0,0-.44.75Z"/>
        <path class="cls-1" d="M13,30c-1,2.78.3,6.06.12,9a.63.63,0,0,0,.79.6,97.56,97.56,0,0,1,9.8-1.09.64.64,0,0,0,.63-.63c-.22-2.38-.55-4.73-1-7.08-.14-.77-1.31-.44-1.18.33q.57,3.36.88,6.75l.64-.63a101.25,101.25,0,0,0-10.13,1.14l.79.61a50,50,0,0,0-.77-8.89A.31.31,0,0,0,13,30Z"/>
        <path class="cls-1" d="M12.74,30.09a12,12,0,0,0,5.36.45c1-.06,2-.34,3-.3s.31-.52.78.29c0,.06.17,1.26.17,1.3.11.72,1.17.48,1.21-.17.08-1.28.07-2.87-1.5-2.85s-3.22.45-4.8.55a16.86,16.86,0,0,0-4.2.47c-.1,0-.16.21,0,.26Z"/>
        <path class="cls-1" d="M17.52,30.69c.73,2.33.12,5.06,1,7.37.16.44.94.58,1,0a14.73,14.73,0,0,0-.49-4.75c-.17-.94-.19-2.57-1.26-2.88a.21.21,0,0,0-.27.26Z"/>
        <path class="cls-1" d="M13.69,34.84a7.27,7.27,0,0,0,3.76,0c1.81-.28,3.61-.45,5.44-.63a.62.62,0,0,0,0-1.24,19.28,19.28,0,0,0-4.48.36,34,34,0,0,0-4.72.82.37.37,0,0,0,0,.71Z"/>
        <g class="cls-2">
          <path class="cls-3" d="M25.39,6.42h1.34l-.29-2.16A21.49,21.49,0,0,0,20.31,7c-1.73,1-.48,3.33,1.29,3a38.81,38.81,0,0,0,5.2-1.21L25.36,5.41a35.44,35.44,0,0,0-4.61,2.87C19,9.5,20,12.49,22.25,11.84a22.73,22.73,0,0,0,4.17-1.56c2.16-1.08.26-4.3-1.89-3.23q-3.62,1.82-7.08,3.88l2.32,3,1.65-1.51C23,11,20.94,8.32,19.15,9.49s-3.39,2.29-5,3.5a1.76,1.76,0,0,0,1.77,3l2.43-1.28-1.74-3Q14.23,13,11.93,14.39c-1.57.92-.54,3.64,1.28,3A5.78,5.78,0,0,0,15.62,16c1.32-1.15-.36-3.08-1.79-2.33s-2.59,1.42-3.84,2.2l1.77,2.3.69-.67c1.26-1.24-.33-3-1.77-2.3a15.64,15.64,0,0,0-3.34,2.06c-1.5,1.16.61,3.3,2.09,2.1a8.5,8.5,0,0,1,2.72-1.63l-1.77-2.31-.69.68a1.47,1.47,0,0,0,1.78,2.3c1.25-.79,2.53-1.5,3.85-2.17l-1.49-2.56-1.5.53,1.27,3c1.56-.86,3.12-1.69,4.71-2.49,2-1,.24-4-1.74-3L14.11,13l1.77,3q2.53-1.74,5.16-3.31L18.77,9.78l-1.71,1.45c-1.67,1.42.49,4.13,2.32,3,2.3-1.41,4.64-2.73,7-4L24.53,7.05a6.64,6.64,0,0,1-2.79,1l1,3.64c1.47-1.07,3-2,4.52-3,1.69-1.07.62-4.25-1.44-3.41a33.4,33.4,0,0,1-5.09,1.6l1.29,3c1.81-1.3,3.77-2.38,5.5-3.78C28.59,5.21,27,3.58,26,4.53l-1,.89a.59.59,0,0,0,.42,1Z"/>
        </g>
        <g class="cls-2">
          <path class="cls-3" d="M27.79,4.34a46.72,46.72,0,0,0-7,3.11c-2.2,1.2-.27,4.41,1.94,3.33C24.36,10,26,9.22,27.58,8.5L25.5,4.94a44.1,44.1,0,0,0-6.38,4.65c-1.31,1.15-.33,3.83,1.5,3.63,2.13-.23,4-1.31,5.91-2.17l-2-3.44-6.72,5a2,2,0,0,0,2,3.5,38.33,38.33,0,0,0,5-2.88,2,2,0,0,0-2-3.46c-2.73,1.44-5.33,3.12-8.07,4.53l2.22,3.81c1.83-1,3.58-2.09,5.35-3.19,2.4-1.48.31-4.81-2.17-3.71a26.62,26.62,0,0,0-7.65,4.66C10.64,17.57,13,20.1,15,19.13c2.5-1.17,4.85-2.87,7.26-4.26l-2.17-3.71c-1.74,1.14-3.56,2.13-5.4,3.09-2.51,1.31-.28,5.18,2.22,3.81a56.62,56.62,0,0,0,8.27-5.2L22.37,10a18.38,18.38,0,0,1-4.57,2.53l2,3.5c2.23-1.67,4.45-3.35,6.69-5a2,2,0,0,0-2-3.44C23.3,8.15,22,9,20.62,9l1.51,3.64a49.43,49.43,0,0,1,5.45-4.1A2.06,2.06,0,0,0,25.5,4.94a45.7,45.7,0,0,0-4.68,2.51l1.94,3.33A38,38,0,0,1,29,7.3c1.68-.73.48-3.57-1.24-3Z"/>
        </g>
        <g class="cls-2">
          <path class="cls-3" d="M22.57,6.68q-3.27,2.27-6.44,4.66c-1.92,1.45-4.63,2.75-4.66,5.41a2.2,2.2,0,0,0,1.59,2.09c2.55.57,4.27-1.5,6.18-2.93s4.07-3,6.15-4.41c2.94-2,.13-6.88-2.82-4.82Z"/>
        </g>
        <g class="cls-2">
          <path class="cls-3" d="M27.19,4.47a82.54,82.54,0,0,0-13.41,9.89c-2.14,1.92.69,5.7,3.11,4,3-2.05,5.81-4.35,8.58-6.68,2.24-1.89-.74-5.81-3.17-4.1C19,10,15.61,12.3,12.28,14.67c-2.68,1.9-.2,6.34,2.62,4.48,2.15-1.42,4.33-2.8,6.55-4.11l-2.79-3.62c-2.12,1.73-3.86,2.86-5.38,5.1a1.3,1.3,0,0,0,1.11,1.94c3.19-.3,5.07-1.77,7.53-3.78C24,13,21.34,9.82,19.13,11.06s-4.54,2.46-6.85,3.61l2.62,4.48,10-7L21.78,8c-2.61,2.19-5.32,4.24-8,6.34L17.41,18,28.75,6.49a1.29,1.29,0,0,0-1.56-2Z"/>
        </g>
        <g class="cls-2">
          <path class="cls-3" d="M26.59,6.57c-2.52.67-4.69,3-6.84,4.38s-5.64,2.54-6.81,5.1a1.69,1.69,0,0,0,1.43,2.5c3.21.23,6.22-3.12,8.52-5,1.57-1.28,5.8-3.89,4.78-6.36a.91.91,0,0,0-1.08-.62Z"/>
        </g>
        <g class="cls-2">
          <path class="cls-3" d="M26.75,4.8c-1.22-.3-2,.37-3,1.11C22.33,7,20.92,8.17,19.58,9.38c-2.21,2-5.94,4.58-6.15,7.75a1.69,1.69,0,0,0,2.11,1.6c2.71-.52,4.85-4.2,6.64-6.14s4.5-4,5.35-6.41a1.12,1.12,0,0,0-.78-1.38Z"/>
        </g>
        <g class="cls-2">
          <path class="cls-3" d="M22.89,6.75a54.73,54.73,0,0,1-7.06,5.64c-1.73,1.16-5,2.18-5.33,4.46A1.18,1.18,0,0,0,11,18.13c2.45,1.14,5.14-1.35,7.08-2.7a62.34,62.34,0,0,0,7.39-6.08c1.71-1.64-.88-4.21-2.6-2.6Z"/>
        </g>
        <g class="cls-2">
          <path class="cls-3" d="M22,7.89c-1.8,1.17-3.5,2.51-5.24,3.78-1.34,1,.2,2.91,1.37,1.77,2.8-2.73,5.49-5.3,9.34-6.49,1.73-.54,1-3.29-.76-2.73A33.64,33.64,0,0,0,21,6.8c-2.07,1.14-.22,4.32,1.85,3.17s3.81-2.25,5.7-3.4c2.16-1.3.28-4.3-1.94-3.31a44.54,44.54,0,0,0-6.41,3.47,2,2,0,0,0,2,3.41C23.42,9.46,24.64,8.8,26,8.23L24.05,5a33.57,33.57,0,0,0-5,4.2,1.93,1.93,0,0,0,1.86,3.2,15.48,15.48,0,0,0,3.54-1.47L22.52,7.63,13.23,13.8a2,2,0,0,0,2,3.39c1.87-1,3.68-2.07,5.46-3.24l-2-3.44A83.64,83.64,0,0,1,11.4,15l2.43,3.13,1.68-1.4c1.73-1.45-.53-4.34-2.42-3.13a35.39,35.39,0,0,0-4.78,3.66c-1.85,1.66.87,4.34,2.71,2.71A20.93,20.93,0,0,1,13.41,18l-2.14-2.78c-.89.7-1.76,1.38-2.6,2.14-1.88,1.7.95,4.55,2.79,2.79.81-.78,1.55-1.6,2.31-2.43,1.29-1.43-.38-3.91-2.14-2.78-1,.64-2,1.27-2.94,2l2.33,3A31.65,31.65,0,0,1,15.1,17l-2.41-3.13L11,15.26c-1.81,1.49.5,4.17,2.42,3.14A71.84,71.84,0,0,0,20.67,14c2.08-1.46.13-4.89-2-3.44-1.76,1.18-3.56,2.27-5.42,3.29l2,3.39,9.22-6.29c2-1.35.22-4.51-1.91-3.27a5.4,5.4,0,0,1-2.65,1l1.87,3.21,4.6-3.94C28,6.48,25.87,4,24.05,5c-1.11.58-2.25,1.1-3.41,1.57l1.52,3.6a59.13,59.13,0,0,1,6.36-3.57L26.58,3.26C24.71,4.43,22.8,5.56,21,6.8L22.82,10a49.35,49.35,0,0,1,4.95-3.16L26.06,4.59c-2.65,3-6,4.91-9.33,7.08l1.37,1.77c1.51-1.56,3.09-3.08,4.51-4.73.37-.42-.1-1.17-.64-.82Z"/>
        </g>
        <g class="cls-2">
          <path class="cls-3" d="M23.88,5.36A23.45,23.45,0,0,0,20,9a1.54,1.54,0,0,0,1.86,2.41,23.84,23.84,0,0,1,3.73-1.46L24,7.07C21.55,9,19.17,10.9,16.73,12.76c-2,1.56-.27,5,2.08,3.56,1.52-.9,3-1.87,4.51-2.78L21.08,9.7a61.56,61.56,0,0,0-6,4.79c-1.89,1.73.62,5.11,2.78,3.6a29.87,29.87,0,0,1,4-2.09l-2.55-3.3a14.21,14.21,0,0,1-2.43,2.22c-1.92,1.4-.87,4.69,1.69,4a20.88,20.88,0,0,0,3-1.11l-3.1-3.09c-.2.33-.42.65-.65,1-1.2,1.72.79,4.06,2.69,3.49a6.68,6.68,0,0,0,1.58-.68,2.38,2.38,0,0,0,1.17-2l0-.23a1.56,1.56,0,0,0-1.49-2c.84,0-.84-.18-.9-.18a4.26,4.26,0,0,0-1.66.5l2.93,2.92.21-.51a2.28,2.28,0,0,0-3.09-3.09,16.93,16.93,0,0,1-1.93.78l2.13,3.67a30.6,30.6,0,0,0,2.76-2.7,2.11,2.11,0,0,0-2.55-3.3,26.58,26.58,0,0,1-3.61,1.53l1.77,4.19a63,63,0,0,0,5.92-4.89c2.14-2-1-4.9-3.14-3.15-1.24,1-2.57,1.85-3.9,2.71L19.23,16a90,90,0,0,0,7.14-6.53c1.3-1.34-.4-3.74-2.06-2.66a26.35,26.35,0,0,1-4,1.91l1.86,2.41A19,19,0,0,1,25.44,8c1.57-1.18,0-3.86-1.56-2.67Z"/>
        </g>
        <g class="cls-2">
          <path class="cls-3" d="M25.06,2.6C21.83,4.25,19,6.87,16.15,9.15c-2.51,2-6,4-7.27,7.08-.39,1,.74,1.85,1.61,1.61,3-.81,5.3-3.93,7.57-5.94C20.82,9.45,24,7.11,26.33,4.25A1.06,1.06,0,0,0,25.06,2.6Z"/>
        </g>
        <g class="cls-2">
          <path class="cls-3" d="M24.55,3.34c-3.49,2.47-7,4.88-10.35,7.54-1.64,1.3-3.22,2.66-4.8,4S6,18.78,3.88,19.59L5,22.32c3.68-1.79,6.7-.54,10.44-.56a1.18,1.18,0,0,0,.83-2c-3.46-3.47-8.93-2.06-12.78,0-1.47.78-.46,3.31,1.15,2.73,3.74-1.34,6.52-4.68,9.4-7.3,3.84-3.51,7.48-7.24,11.29-10.79.54-.5-.18-1.48-.81-1Z"/>
        </g>
        <g class="cls-4">
          <path class="cls-3" d="M12.73,19.53c-1.54.13-3.07-.05-4.61.12s-2.8.4-4.2.69l.85,3.09a29,29,0,0,1,6.69-.78c1.61.05,3.26.69,4.82.05a1.78,1.78,0,0,0-1-3.42,57.7,57.7,0,0,1-6.7.46c-1.85.05-3.34,0-4.82,1.11a1.39,1.39,0,0,0,0,2c1.61,1.41,3.63,1.17,5.67,1a49,49,0,0,0,6.8-1.15l-1-3.42c-1.52.62-3.88-.12-5.55,0a50.59,50.59,0,0,0-5.86,1c-2,.44-1.16,3.44.85,3.09a68.91,68.91,0,0,0,8.17-2.37c.81-.24.7-1.61-.21-1.53Z"/>
        </g>
        <g class="cls-2">
          <path class="cls-3" d="M3,21.91c3.22-3.1,8-4.92,11.77-7.18,3.06-1.8,6.87-3.87,8.2-7.33A1.17,1.17,0,0,0,21.5,6c-2.13.83-3.74,2.4-5.59,3.72-2.1,1.5-4.31,2.85-6.42,4.34-2.4,1.7-6.89,4.43-7.06,7.67a.32.32,0,0,0,.54.22Z"/>
        </g>
        <g class="cls-2">
          <path class="cls-3" d="M13.23,15.92c1.5-1.31,3-2.62,4.44-4a26,26,0,0,0,3.92-3.86c.51-.73-.44-1.46-1.12-1.12a26.82,26.82,0,0,0-4.39,3.39C14.52,11.59,13,12.9,11.51,14.2c-1.18,1,.54,2.74,1.72,1.72Z"/>
        </g>
        <g class="cls-5">
          <path class="cls-3" d="M10.73,40.6l.4-.46L9.7,39.3a33.18,33.18,0,0,1-2.08,5.39A1.37,1.37,0,0,0,10,46.08a21.55,21.55,0,0,1,2-2.75L9.52,41.9c-.48,1.32-1,2.63-1.58,3.91a1.38,1.38,0,0,0,2.38,1.39,14.07,14.07,0,0,1,3-3.4l-2.17-1.26A13.78,13.78,0,0,1,9.25,46c-.94,1.38,1.1,2.83,2.25,1.74a18.42,18.42,0,0,1,3.63-2.84L12.8,43.1A6.62,6.62,0,0,1,11.3,46c-1.22,1.66,1.35,3.41,2.74,2.12a18.79,18.79,0,0,1,2.86-2.33l-2.77-2.13-1,2c-1.19,1.86,1.5,3.89,3,2.34a15,15,0,0,1,4.42-3.11l-2.8-2.16L17,44.61c-1.1,1.79,1.57,4,3,2.3a8.7,8.7,0,0,1,2.86-2.29l-2.77-2.13-1,1.78c-1.48,1.86,1,4.5,2.67,2.68a11.87,11.87,0,0,1,4-2.91L23.05,42a5.83,5.83,0,0,1-1.93,2.55l2.69,2.69a7.27,7.27,0,0,1,3.24-2.45L25.1,42.21a10,10,0,0,1-1.83,2.16c-1.7,1.69.81,4.1,2.6,2.6a6.46,6.46,0,0,1,2.94-1.67l-2-2.64-1.13,1.87a1.84,1.84,0,0,0,2.22,2.88,9.72,9.72,0,0,0,2.32-1.28,1.47,1.47,0,0,0-1.13-2.68,9.91,9.91,0,0,0-2.61.61l2.07,2.69a6.86,6.86,0,0,0,1.37-2.27,1.83,1.83,0,0,0-2-2.65,11.56,11.56,0,0,0-4.58,2.54l2.6,2.6a21.27,21.27,0,0,0,2.21-3c.71-1.18-.51-3.13-1.95-2.54a14.06,14.06,0,0,0-5,3.1,1.9,1.9,0,0,0,2.69,2.69,11.88,11.88,0,0,0,2.8-4.26,1.85,1.85,0,0,0-2.27-2.27,13,13,0,0,0-5.23,3.6l3,2.3a11.11,11.11,0,0,0,1.63-3.08c.61-1.65-1.42-2.81-2.76-2.12a11,11,0,0,0-3.63,2.86l3,2.29a6.17,6.17,0,0,0,1.16-2.81,1.94,1.94,0,0,0-2.8-2.16,18.12,18.12,0,0,0-5.24,3.68l3,2.34a11.8,11.8,0,0,0,1.33-2.94c.5-1.49-1.44-3.11-2.77-2.14a17.83,17.83,0,0,0-3.43,3.12l2.75,2.12A21,21,0,0,0,15.86,44a1.6,1.6,0,0,0-2.33-1.79,19.32,19.32,0,0,0-4.06,3.55l2.25,1.74a23,23,0,0,0,1.95-4.22c.46-1.33-1.27-2-2.17-1.27a20,20,0,0,0-3.56,3.85l2.38,1.39c.71-1.49,1.38-3,2-4.52.56-1.34-1.55-2.51-2.45-1.42a16.46,16.46,0,0,0-2.27,3.43l2.5,1.06a18.79,18.79,0,0,0,1.26-6.22c0-1.11-1.77-1.1-1.71,0l0,.64c0,.48.67.85,1,.43Z"/>
        </g>
        <g class="cls-5">
          <path class="cls-3" d="M9,34.85c-.39,4.22,1.45,8.44.35,12.65a1.1,1.1,0,0,0,1,1.38,67.22,67.22,0,0,0,8.86-.4c2.38-.21,4.59-.27,6.75-1.36a.85.85,0,0,0-.2-1.54c-2.58-.75-5.18-.24-7.82,0a61.84,61.84,0,0,0-7.88,1.15l1.38,1a31.34,31.34,0,0,0-1.91-13,.3.3,0,0,0-.58.08Z"/>
        </g>
        <g class="cls-4">
          <path class="cls-3" d="M13.84,31.46a2.73,2.73,0,0,0-.78,2.11,4,4,0,0,0,.3,2.45,2,2,0,0,0,2,.93,1.9,1.9,0,0,0,1.63-1.4,4.72,4.72,0,0,0-.3-2.35,5.15,5.15,0,0,0-.36-1,2.24,2.24,0,0,0-.53-.62s-.48-.38-.15-.1a1.28,1.28,0,0,0-1.76,0Z"/>
        </g>
        <g class="cls-4">
          <path class="cls-3" d="M14,32.4c-.08,1.12-.28,3,.92,3.61A1.44,1.44,0,0,0,17,35.16c.41-1.17.86-3.36-.32-4.23-1.63-1.21-2.85,1-3,2.36-.14,1.14,1.24,1.59,2.07,1.19a2.65,2.65,0,0,0,1.64-2.69,1.82,1.82,0,0,0-3.08-.69c-.91.89-1.16,2.54.22,3.12s2.47-.67,3.11-1.67c.83-1.3-.79-2.76-2.05-2a3.53,3.53,0,0,0-1.73,1.92,1.55,1.55,0,0,0,.7,1.72c1.22.81,2.4-.38,3.33-1.08l-2-2c-.38.66-.82,1.3-1.24,1.94A1.51,1.51,0,0,0,16,35.29a2.55,2.55,0,0,0,1.33-.3,5.2,5.2,0,0,1,.69-.43h-.75l.18,0-.63-2.39a22,22,0,0,0-1.46,1.88,2.43,2.43,0,0,0-.69,2.27,1.4,1.4,0,0,0,1.68.95c.89-.12,1.22-.78,1.66-1.48A19.43,19.43,0,0,0,19,33.93a1.44,1.44,0,0,0-1.24-2.14,3.5,3.5,0,0,0-1.12.18c-.19.07-.36.16-.54.23l-.28.13.11,0,1.3,2.26c.37-.67.72-1.35,1.13-2a1.45,1.45,0,0,0-2-2L15.6,31c-.18.1-.44.34-.59.4l1.17.15-.11-.06.69,1.71c0,.08.26-.11.32-.14L15,31a1.61,1.61,0,0,1-.54.5l.76-.2h-.16l1.06.44-.1-.09.38,1.45c-.1,0-.19,0-.26.2H15.4l.16.06-1-1,0,.15v-.76c0,.19,0,.19-.26.31l2.07,1.19c.06-.15,0-.19-.05-.11l-.69.18h.17l-1-.4.09.12-.35-.6a3.81,3.81,0,0,1-.37,1.93l2.09-.85-.12-.07.66.85a5.31,5.31,0,0,1-.24-1.94,1.33,1.33,0,0,0-2.66,0Z"/>
        </g>
        <g class="cls-4">
          <path class="cls-3" d="M13.86,32.09a30.24,30.24,0,0,1,.08,3.16c0,1.15,0,2.41,1.23,2.92,1,.41,2-.21,3-.46s2.2-.19,3-1.06a1.81,1.81,0,0,0-.36-2.79c-1.72-1.22-3.8.34-5.42.73l1.86.49L17.16,35l.49.84c-.09-.58,0-1.35-.15-2a16.36,16.36,0,0,0-.57-2.16c-.51-1.59-3.23-1.42-3.07.42Z"/>
        </g>
        <g class="cls-4">
          <path class="cls-3" d="M19,34.19a9.51,9.51,0,0,1-3.06-.1l1.23,1.23c-.05-.32.11-.81.08-1.16A4.19,4.19,0,0,0,17,32.94a3.34,3.34,0,0,0-1.62-1.79l-.72,1.72.21,0-.61-.61a13.54,13.54,0,0,1,.49,5c0,2,3.15,1.67,2.72-.37a27.75,27.75,0,0,0-.85-3.22,7.86,7.86,0,0,0-1.05-2.45.94.94,0,0,0-1.47.19,5.45,5.45,0,0,0-.66,2.3c0,.9-.16,2.16.42,2.91,1.25,1.62,3.89.45,5.47,0A1.27,1.27,0,0,0,19,34.19Z"/>
        </g>
        <g class="cls-4">
          <path class="cls-3" d="M15.27,37.93A15.17,15.17,0,0,0,21.2,38a1.85,1.85,0,0,0,1.35-1.77,2.76,2.76,0,0,0-.07-.49,1.84,1.84,0,0,0-1.77-1.35A10.52,10.52,0,0,0,15,35.84a1.16,1.16,0,0,0,.28,2.09Z"/>
        </g>
        <g class="cls-4">
          <path class="cls-3" d="M17.74,37.21c1.41.15,3.73.41,4.62-1A2.82,2.82,0,0,0,22.54,34a18.28,18.28,0,0,0-1-2.66c-.51-1-2.4-.57-2.26.62s.29,2.68.46,4a1.46,1.46,0,0,0,1.41,1.41,1.42,1.42,0,0,0,1.41-1.41,13.77,13.77,0,0,0-.32-2.86c-.2-.88-.45-2.12-1.38-2.5-2.15-.86-2.81,2.21-3.16,3.65l3.31.44a14.12,14.12,0,0,0-.17-3.11,1.7,1.7,0,0,0-1.65-1.25c-1.41.16-1.92,1.06-2.13,2.36a24.47,24.47,0,0,0-.33,3.91c0,2.06,2.79,2.27,3.45.47.5-1.39.39-4-.83-5-1.65-1.39-3.17.86-3.72,2.18a1.71,1.71,0,0,0,1.18,2.09,1.74,1.74,0,0,0,2.09-1.19c.08-.23.18-.45.28-.68a3.62,3.62,0,0,0,.13-.35c.17-.43-.09-.31-.78.38l-1.18-.67c.35.52-.39,1.84-.56,2.32l3.45.47a12.12,12.12,0,0,1,.32-3.94l-.44.75.12-.14-1.21.5.16,0-1.65-1.26a9.53,9.53,0,0,1,.1,2.2c-.11,1.89,2.89,2.31,3.31.45a17.79,17.79,0,0,1,.55-2.63l-.39.67.1-.11-1.07.44h.13l-1.31-.75a6.48,6.48,0,0,1,.78,3.2l2.77-.38c-.27-1.32-.57-2.64-.85-4l-2.38.33a5.72,5.72,0,0,0,.19,1.59,5.41,5.41,0,0,1,.37,1.22c-.06.2-1,.67-1.18.81a10.13,10.13,0,0,0-1.17,1,.4.4,0,0,0,.28.67Z"/>
        </g>
        <g class="cls-4">
          <path class="cls-3" d="M14.64,32.55c1.14.13,2.29.07,3.43.17.89.08,2-.17,2.77-.07l-1.14-.47c-.22-.46-.26-.49-.14-.1s.13.54.19.81c.11.57.21,1.15.27,1.73.12,1.09.07,1.79.87,2.59a1.35,1.35,0,0,0,1.88,0c1-1.22.67-2.4.41-3.85-.2-1.11-.36-2.85-1.36-3.58s-2.43-.21-3.48-.15a7.75,7.75,0,0,0-4.14,1.29.88.88,0,0,0,.44,1.63Z"/>
        </g>
        <g class="cls-4">
          <path class="cls-3" d="M20.68,33a.05.05,0,1,0,0-.1.05.05,0,0,0,0,.1Z"/>
        </g>
        <g class="cls-4">
          <path class="cls-3" d="M13.12,31.27a7.2,7.2,0,0,0-.06,3.33c.15,1.14.16,2.34,1.08,3.15a.77.77,0,0,0,1.2-.16,4.49,4.49,0,0,0-.13-3.12A9.26,9.26,0,0,0,14,31.15a.49.49,0,0,0-.89.12Z"/>
        </g>
        <g class="cls-4">
          <path class="cls-3" d="M12.15,32.84a51.73,51.73,0,0,1,0,6.35A1.84,1.84,0,0,0,14,41a20.32,20.32,0,0,0,4.34-1c1.42-.43,2.89-.41,3.79-1.74a1.58,1.58,0,0,0-.25-1.91c-1.16-1.21-2.71-.73-4.13-.25a24.31,24.31,0,0,1-4.24,1.27l2.32,1.77a53.89,53.89,0,0,0-.43-6.35c-.27-2-3.43-2.16-3.29,0Z"/>
        </g>
        <g class="cls-4">
          <path class="cls-3" d="M35.65,36.9a5.53,5.53,0,0,1-1.14.79c-2.08.74-.17,3.6,1.25,2.15a6.13,6.13,0,0,1,1.45-1.09l-1.86-1.87c-.84,1.1-2,2.66-1.26,4a1.49,1.49,0,0,0,1.31.76,7.53,7.53,0,0,0,1.82-.49L35.3,39.27a7.87,7.87,0,0,1-1.09,2.44c-.65,1.08.45,2.75,1.74,2.26a4.8,4.8,0,0,0,1.38-.82l-1.81-1.4a3.93,3.93,0,0,0-.68,1.84,1,1,0,0,0,1.47.84,4,4,0,0,0,1.2-1.52,1.16,1.16,0,0,0-1-1.73l-.2,0,.31,2.42a8.44,8.44,0,0,0,1.69-3.48c.25-1.05-.75-2.38-1.92-1.92a8,8,0,0,1-1.39.51l1.72.7-.11-.18.16,1.17c.21-.84.8-1.62,1.07-2.45a1.38,1.38,0,0,0-2-1.54A8.24,8.24,0,0,0,33.94,38l2.2.91a1.79,1.79,0,0,1,.49-.78c.55-.64-.19-1.81-1-1.25Z"/>
        </g>
        <g class="cls-4">
          <path class="cls-3" d="M34.88,36.91a4.57,4.57,0,0,0-1,1.63c-.3.84.6,1.55,1.37,1.37.12,0,1-.26.66-.35l-.65-.51c-.12-.21-.63,1.39-.67,1.52-.22.7-.42,1.38-.57,2.09a1.37,1.37,0,0,0,2.64.73l-1.32,1a1.37,1.37,0,0,0,1.32-1c.25-.83.43-1.67.6-2.53a5,5,0,0,0,.19-2.32,1.57,1.57,0,0,0-1.07-1.13c-.7-.2-1.07.21-1.72.35l1.37,1.37a1.44,1.44,0,0,1,.41-.62c1-1.06-.62-2.68-1.6-1.6Z"/>
        </g>
        <g class="cls-4">
          <path class="cls-3" d="M34.48,37.44c-.6,1.75-.17,3.94-.17,5.77h2.84c-.09-1-.18-2.05-.29-3.07a10.29,10.29,0,0,1-.24-2.29,10.41,10.41,0,0,1,2.78-.12,8.62,8.62,0,0,0,3.13-.23,1.33,1.33,0,0,0,.31-2.39c-1.35-.72-3.06-.5-4.55-.42-1.28.07-2.89,0-3.9,1a3.6,3.6,0,0,0-.78,3.21c.2,1.58.48,3.15.75,4.73.3,1.78,3.12,1,2.74-.76s-.61-4.1-1.84-5.6a.47.47,0,0,0-.78.21Z"/>
        </g>
        <g class="cls-4">
          <path class="cls-3" d="M41.45,36.41a5.27,5.27,0,0,0-3-.78,15.19,15.19,0,0,0-2.79,1c-1.06-1.11-2.5.1-2.33,1.36.29,2.1.65,4.17,1,6.26.34,1.92,3.3,1.11,2.93-.81-.39-2.08-.78-4.14-1.26-6.19l-2.33,1.36a2.67,2.67,0,0,0,3.14.38c1.46-.71,2.57-1.61,4.31-1.45a.63.63,0,0,0,.31-1.16Z"/>
        </g>
        <g class="cls-4">
          <path class="cls-3" d="M34.34,39.21c.13,1.63.21,3.25.23,4.89l1.49-1.49h-.19l1.05.44c.24.27.28.15.13-.35,0-.33,0-.66,0-1a18.61,18.61,0,0,1,.13-2h-3c0,1.68,0,3.36,0,5,0,2.13,3.45,2.09,3.28,0A49.57,49.57,0,0,0,36,37.57a.68.68,0,0,0-1.3,0,14.17,14.17,0,0,0-.1,5.8,1.16,1.16,0,0,0,.83.83,1.27,1.27,0,0,0,.92-.12,1.15,1.15,0,0,0,.58-1A35.25,35.25,0,0,0,36,37.57l-1.32.18a31,31,0,0,1-.56,6.6l3.22.44c-.08-1.68-.16-3.36-.21-5a1.52,1.52,0,0,0-3,0c-.13,1.56-.73,6,1.93,5.83a1.51,1.51,0,0,0,1.48-1.48c0-1.64-.13-3.26-.27-4.89-.17-1.86-3.08-1.89-2.93,0Z"/>
        </g>
        <g class="cls-4">
          <path class="cls-3" d="M35,38.77c-.37,1.58.07,3.11-.12,4.69l2.8-.38A17,17,0,0,1,37,40.35c-.13-.89-.21-1.39.66-1.83a4.57,4.57,0,0,1,2.3-.46,3.19,3.19,0,0,0,2.13-.26,1,1,0,0,0,.36-1.37c-1-2.37-5.33-1.11-6.87,0-2.4,1.74-1.44,5-.66,7.4.48,1.44,3,1.3,2.8-.38s-1.16-3.05-1.41-4.69c-.11-.68-1.17-.62-1.32,0Z"/>
        </g>
        <g class="cls-6">
          <path class="cls-7" d="M29.6,4.2a20.18,20.18,0,0,1-.33,4.11L31,8.79c.29-1.42.43-2.86.7-4.28s-1.76-1.89-2-.56c-.36,1.74-.61,3.47-.81,5.23-.15,1.29,1.95,1.55,2.25.31s.52-2.21.77-3.31L29.5,5.85a35.47,35.47,0,0,0-.17,4.94c0,1.16,1.81,1.87,2.37.65a22.22,22.22,0,0,0,1.16-3.13L30.35,8a21.81,21.81,0,0,0,.31,4.91,1.28,1.28,0,0,0,1.88.76c1.4-1,1.44-2.61,1.8-4.25L31.8,9c0,1.06,0,2.12,0,3.17a1.34,1.34,0,0,0,2.26.94,9.69,9.69,0,0,1,1.24-1.32L34,12.17c-.24-.09.61,3.06.68,3.3.34,1.07.7,2.09,1.14,3.12.66,1.52,3,.41,2.6-1.1a43.18,43.18,0,0,0-1.56-4.66c-.31-.85-.52-2.14-1.23-2.8-1.4-1.3-2.56.21-3.42,1.25l2.26.93c0-1.05,0-2.11,0-3.17,0-1.42-2.23-1.8-2.54-.34-.1.45-.26,2.47-.6,2.73l1.88.77A18.18,18.18,0,0,1,32.91,8a1.28,1.28,0,0,0-2.51-.34,11.48,11.48,0,0,1-.9,2.52l2.37.64a47.89,47.89,0,0,1,.06-4.94,1.22,1.22,0,0,0-2.39-.32c-.22,1.12-.43,2.23-.64,3.35l2.25.3a40.73,40.73,0,0,1,.55-4.67l-2-.56a24.54,24.54,0,0,0-.43,4.6.9.9,0,0,0,1.79,0,17.61,17.61,0,0,0-.59-4.46.43.43,0,0,0-.84.11Z"/>
        </g>
        <g class="cls-6">
          <path class="cls-7" d="M30.37,6.05c1.25,2.62,3.55,4.7,5.61,6.68,1.12,1.08,2.25,2.16,3.3,3.31S40.92,18.3,42.14,19a1,1,0,0,0,1.41-1.08c-.36-2.57-3.45-4.75-5.31-6.32-2.38-2-4.77-4.09-7.22-6a.42.42,0,0,0-.65.5Z"/>
        </g>
        <g class="cls-6">
          <path class="cls-7" d="M31.29,6c.58,2.67,3.41,4.93,5.28,6.79,2.47,2.48,5.11,4.78,7.73,7.09l.31-2.37c-4.78,2.2-9.3-1.92-14.11-.91a.93.93,0,0,0-.22,1.69c4.7,2.09,10.93,4.19,15.85,1.82a1.51,1.51,0,0,0,.3-2.37C43.71,15.54,41,13.32,38.34,11c-2-1.76-4.1-4.5-6.68-5.38a.3.3,0,0,0-.37.36Z"/>
        </g>
        <g class="cls-6">
          <path class="cls-7" d="M27.69,17.85l-.28-.14L27.07,19c5.26.62,10.77,1.94,16.08,1.44,1.6-.15,2.12-2.46.4-2.93a118.32,118.32,0,0,0-12.12-2.18c-1.88-.3-2.74,2.43-.81,2.92a52.25,52.25,0,0,0,7.85,1.39c1.74.18,2.08-2.62.41-3a31.27,31.27,0,0,1-5.49-1.82C31.62,14,30,16.53,31.84,17.42a29.19,29.19,0,0,0,8.29,2.7c1.91.31,2.77-2.46.82-3a23.72,23.72,0,0,1-6.36-2.67L33.4,17.29A49,49,0,0,0,39,19.08a1.53,1.53,0,0,0,1.17-2.79l-4.49-2.65L34.5,16.41,39,18.12c1.64.62,2.58-1.89,1.17-2.75A51.16,51.16,0,0,1,35,11.91l-1.79,2.33a30.66,30.66,0,0,0,4.44,1.82c1.65.54,2.45-1.79,1.13-2.68q-2.66-1.8-5.35-3.52L32,12.28l2.79,1.37a1.38,1.38,0,0,0,1.66-2.16C35,9.88,33.06,8.75,32.08,6.77L31,8.67l1.6.36a.64.64,0,0,0,.87-.88,4.26,4.26,0,0,0-1.83-1.83A1.27,1.27,0,0,0,29.91,8c1,2.25,3,3.58,4.61,5.39l1.66-2.15L33.43,9.86A1.4,1.4,0,0,0,32,12.28q2.63,1.85,5.29,3.64l1.13-2.69a22.92,22.92,0,0,1-3.73-1.55c-1.4-.74-3.15,1.21-1.79,2.33a53.55,53.55,0,0,0,5.73,4l1.17-2.75L35.3,13.49c-1.63-.63-2.6,1.92-1.16,2.77l4.47,2.66,1.18-2.79a45.24,45.24,0,0,1-5.57-1.81c-1.66-.65-2.63,1.94-1.19,2.81a26.25,26.25,0,0,0,7.1,3l.82-3a25.83,25.83,0,0,1-7.56-2.39l-1.55,2.66a32.63,32.63,0,0,0,6.22,2.13l.41-3a43,43,0,0,1-7-1.23l-.81,2.92c4,.66,8.17,1.12,12.13,2.14V17.47c-5.3,1-10.58-.78-15.86.17a.68.68,0,0,0,0,1.3l.31.07c.67.14,1.15-.81.49-1.16Z"/>
        </g>
        <g class="cls-6">
          <path class="cls-7" d="M29.56,17.59a6.86,6.86,0,0,1-3.23-.65c-.8-.3-1.2,1.06-.36,1.3,5.87,1.67,12.15,2,18.23,2,1.92,0,1.83-2.74,0-2.93a99.39,99.39,0,0,0-10.35-.56c-3.17,0-6.36.57-9.51.23-1.59-.17-1.89,2.38-.38,2.76,5.41,1.32,11.65,2.68,17.12,1,.74-.22.88-1.51,0-1.64-5.51-.81-10.93-.51-16.37-2.1L24,19.73c3.06.44,6.07,0,9.15,0,3.71,0,7.39.33,11.09.52V17.3c-6.06.32-12-.26-18.05-.38l.18,1.32a6.84,6.84,0,0,1,3.23-.55.05.05,0,0,0,0-.1Z"/>
        </g>
        <g class="cls-6">
          <path class="cls-7" d="M26.4,20l-1.34-.21a.41.41,0,1,0-.32.76,24.74,24.74,0,0,0,9.89,1.34c3.17-.15,6.35-1.32,9.52-.87a1.06,1.06,0,0,0,1-1.76c-1.66-1.92-4.16-.93-6.35-.46-4.73,1-9.26.38-14,.93l.11.82a7.67,7.67,0,0,1,1.5-.3c.16,0,.1-.27-.06-.25Z"/>
        </g>
        <g class="cls-6">
          <path class="cls-7" d="M24.06,17.71a3.6,3.6,0,0,0-.39-.62l-.75,1.3c3.25.32,6.47,1,9.76.79,1.47-.1,2-2.47.37-2.76a35.87,35.87,0,0,1-7.61-2.07l-.78,2.86a26.21,26.21,0,0,0,6.92,1.3c1.7.1,2-2.51.39-2.94a15.73,15.73,0,0,1-5.38-2.65l-1.16,2.75a25.3,25.3,0,0,0,6.4,1,1.53,1.53,0,0,0,.77-2.82l-3.72-2.46L27.35,14c1.57.66,4.6,2.61,5.95.54s-2.36-4.05-3.68-5l-1.53,2.62c1.48.71,3.9,2.4,5.33.71S33,8.51,31.85,7.29c-1.33-1.44-3.23.63-2.1,2.1a4.13,4.13,0,0,1,1.08,2.4l.45-1.08.54-.15c-.28-.12-.55-.24-.82-.38l-1.38-.65a1.52,1.52,0,0,0-1.53,2.62c.38.29,2.45,1.44,2.55,1.9L31,12.57c.48-.05.54-.12.19-.2s-.56-.21-.84-.34l-1.86-.78C26.86,10.56,26,13.13,27.35,14l3.72,2.45.76-2.81a22.2,22.2,0,0,1-5.6-.9,1.51,1.51,0,0,0-1.16,2.75,17.83,17.83,0,0,0,6.11,2.94l.4-2.94a23.32,23.32,0,0,1-6.14-1.17c-1.84-.61-2.51,2.17-.78,2.86a28.05,28.05,0,0,0,8,2l-.38-2.76c-3.2.46-6.41-.16-9.61.27-.87.12-.78,1.49,0,1.67a1.2,1.2,0,0,0,1.24-.16.37.37,0,0,0,.13-.49Z"/>
        </g>
        <g class="cls-6">
          <path class="cls-7" d="M28.93,4.25a26.45,26.45,0,0,0,4.54,8.38c1.68,2.19,3.79,5.26,6.63,5.86.49.1,1.11-.34.89-.9-1-2.41-3.35-4-5.05-5.9-2.21-2.47-4-5.24-6-7.86-.35-.46-1.2-.23-1,.42Z"/>
        </g>
        <g class="cls-6">
          <path class="cls-7" d="M30.15,5.6A92.84,92.84,0,0,0,36.81,13c2.13,2.35,4.17,5.62,7,7.07a.71.71,0,0,0,1-.78c-1-3-3.89-5.38-6.12-7.52-2.53-2.41-5-4.93-8.11-6.65-.3-.16-.74.2-.51.51Z"/>
        </g>
        <g class="cls-6">
          <path class="cls-7" d="M29.79,4.47c2.55,3.42,5.93,5.6,9.11,8.34,2.75,2.37,3.89,6.76,7,8.54a.9.9,0,0,0,1.3-1c-.57-3.23-3.54-7.08-6-9.18A63.62,63.62,0,0,0,30.31,4c-.3-.16-.76.19-.52.52Z"/>
        </g>
        <g class="cls-6">
          <path class="cls-7" d="M29.29,4.46c2,3.37,5.32,5.23,8.44,7.39,3.76,2.61,5.72,6.78,8.53,10.27l1.09-2.63c-5.76.07-12.3-.86-17.93.41a1,1,0,0,0,0,1.9c5.53,1.56,12.23.76,17.93.77a1.56,1.56,0,0,0,1.09-2.63c-2.4-3.05-4.31-6.82-7.5-9.15A51.91,51.91,0,0,0,36.09,8C33.93,6.73,32,5.16,29.85,3.89a.42.42,0,0,0-.56.57Z"/>
        </g>
        <g class="cls-6">
          <path class="cls-7" d="M25.12,20.45c3.5-.83,7.7.17,11.22.4s7.36-.31,10.71.65c1.13.33,2.46-1.1,1.66-2.15-1.5-2-3.91-2.69-6.05-3.84-2.76-1.49-5.35-3.34-8.29-4.44-.94-.35-1.43.91-.9,1.53A22.35,22.35,0,0,0,39.13,17c2.2,1.33,5.48,2.29,7.27,4.11l1.43-2.45c-3.93-.93-8.22-.17-12.24-.2-3.52,0-7.71-.81-10.93.88-.62.33-.18,1.25.46,1.1Z"/>
        </g>
        <g class="cls-6">
          <path class="cls-7" d="M29.71,8.51c3.32,3.36,7.39,5.86,10.62,9.32l1.58-2a70.24,70.24,0,0,1-8.5-4.58,1.28,1.28,0,0,0-1.55,2,47.45,47.45,0,0,0,8.54,6.72l1.46-2.5a90.53,90.53,0,0,1-9-4.8c-1.13-.66-2.62.7-1.86,1.86a24.84,24.84,0,0,0,2.08,2.7c.46.51.95,1,1.42,1.5s1.66,1.31,1.1,1.71c-.88.62-4.43-.31-5.34-.46-1.71-.26-3.4-.63-5.09-1s-2.41,2.19-.72,2.62c3,.75,11.31,3.54,13.82.71s-3.6-7.14-4.92-9.11L31.47,15a93.81,93.81,0,0,0,8.93,5,1.45,1.45,0,0,0,1.46-2.5,40.72,40.72,0,0,1-8.19-6l-1.55,2a56,56,0,0,0,8.78,4.76c1.24.51,2.17-1.34,1.28-2.18A57.6,57.6,0,0,0,30.42,7.59a.59.59,0,0,0-.71.92Z"/>
        </g>
        <g class="cls-6">
          <path class="cls-7" d="M23.11,20.33c7.09,2.88,16.12,3.42,23.38.61a.69.69,0,0,0,0-1.31c-2.94-.91-5.73-.12-8.69.32a36,36,0,0,1-14.42-.61.51.51,0,0,0-.27,1Z"/>
        </g>
        <g class="cls-6">
          <path class="cls-7" d="M45.45,20.35c-3.24-2.77-8.05-5.8-10.15-9.56L34.12,12c5.11,2.63,8.58,7.88,13.8,10.49,1.14.57,2.14-1.15,1-1.7a1.54,1.54,0,0,0-1.18-.19.49.49,0,0,0-.34.59l0,.45,1.49-.85c-2.5-1.89-5.08-3.64-7.51-5.62-2-1.64-4-3.58-6.42-4.66a.87.87,0,0,0-1.18,1.18c2.1,3.95,7.06,7.67,11.1,9.39.42.18,1-.34.54-.7Z"/>
        </g>
        <g class="cls-6">
          <path class="cls-7" d="M42.81,16.71c-1.52-1.73-3-3.52-4.34-5.35a23.85,23.85,0,0,0-3.61-4.44c-.19-.16-.55,0-.46.27a16.12,16.12,0,0,0,3.17,4.86c1.47,1.81,3.08,3.52,4.7,5.19.34.36.86-.17.54-.53Z"/>
        </g>
        <g class="cls-6">
          <path class="cls-7" d="M36.13,9.57q3.28,3.38,6.4,6.88c1.58,1.8,3.32,4.61,5.66,5.36a.59.59,0,0,0,.74-.57c-.28-2.41-2.64-4.55-4.2-6.32Q41.45,11.23,38,7.72c-1.19-1.21-3,.64-1.86,1.85Z"/>
        </g>
        <g class="cls-6">
          <path class="cls-7" d="M30.4,2.86c1.1,3.31,5,6.1,7.37,8.51,2.88,2.91,5.88,7.42,9.59,9.17a.59.59,0,0,0,.85-.65c-1-4-5.31-7.2-8.18-9.89-2.56-2.39-5.94-6.42-9.45-7.32-.11,0-.22.07-.18.18Z"/>
        </g>
        <g class="cls-6">
          <path class="cls-7" d="M31.49,4.15c1.94,3,4.8,5.5,7.31,8,3.09,3.11,6,6.85,9.41,9.56a.65.65,0,0,0,1-.78c-1.88-3.8-5.59-6.86-8.66-9.69C37.8,8.74,35,5.82,31.71,3.93c-.14-.07-.31.08-.22.22Z"/>
        </g>
        <g class="cls-6">
          <path class="cls-7" d="M38.31,11.64a134.7,134.7,0,0,1,10,9.4l.56-1.37a40.17,40.17,0,0,0-17.19,1.82.62.62,0,0,0,.16,1.21c2.74.36,5.51-1.2,8.27-1.47a64,64,0,0,1,8.76,0,.81.81,0,0,0,.57-1.36q-5-4.76-10.41-9c-.51-.4-1.24.29-.73.72Z"/>
        </g>
        <g class="cls-6">
          <path class="cls-7" d="M35.72,19.38a47.11,47.11,0,0,0,8.08,1.16.44.44,0,0,0,.12-.85A45.78,45.78,0,0,0,36,18.31c-.68-.09-1,.94-.29,1.07Z"/>
        </g>
        <g class="cls-6">
          <path class="cls-7" d="M39.35,38.09a2.45,2.45,0,0,1-.87.73l1,1.29A20.57,20.57,0,0,1,41,38.69c.78-.66-.23-1.94-1.09-1.41s-1.64,1.27-2.51,1.87c-1.08.75-.43,2.9,1,2.31.55-.24,1.31-.84,1.92-.81l-1.15-2a23.45,23.45,0,0,1-1.59,1.87,1.39,1.39,0,0,0,2,2,2.78,2.78,0,0,1,1.25-.79l-1-.14.11.06-.65-1.14c0-.6-.28.07-.49.34l-.81,1a1.33,1.33,0,0,0,.58,2.2c.29.06.66.05.94.13l-.78-.6c.07-.56,0-.59-.26-.1a1.77,1.77,0,0,0-.29.5,1.88,1.88,0,0,0,0,1,.91.91,0,0,0,.63.63,2.19,2.19,0,0,0,2.51-2c.29-1.52-.83-1.92-2-2.15l.58,2.2c.75-1,3-2.83,1.71-4.17-1.15-1.19-3,.25-3.92,1l2,2A20.82,20.82,0,0,0,41.45,40a1.34,1.34,0,0,0-1.14-2c-1.2,0-1.88.66-2.9,1.15l1.73,1.73A10.29,10.29,0,0,1,41,38.69l-1.27-1.27A18.64,18.64,0,0,0,38.32,39c-.77.94.73,2,1.29,1,.23-.43.43-.87.68-1.3.37-.61-.54-1.12-.94-.55Z"/>
        </g>
        <g class="cls-6">
          <path class="cls-7" d="M41.18,39l.12-.1h-.53l.12.07V37.83a16.12,16.12,0,0,0-2.21,2l1.73,1.33c.19-.27.63-.81,1-.82l-.9-.52.08.17-.11-.81a5.43,5.43,0,0,1-1,1.5A1.18,1.18,0,0,0,40,42.62q-.48-.75-.54,0a4.41,4.41,0,0,0-.24.54,2,2,0,0,0,0,1,1,1,0,0,0,1.18.67c1.71-.68,2.31-3.82.23-4.47l.69,1.69c.62-.84,2-2.86.61-3.68-1.19-.7-2.79.81-3.43,1.65-.87,1.12,1.05,2.22,1.9,1.11a7,7,0,0,0,1.49-2.56c.15-.72-.89-1.26-1.25-.53a1.89,1.89,0,0,0-.23.64c-.06.43.51.77.76.32Z"/>
        </g>
        <g class="cls-6">
          <path class="cls-7" d="M40.91,38a14.22,14.22,0,0,0-.47,2.67c0,.45.1,2.81-.2,3.06a12.19,12.19,0,0,1-1.81.12,9.07,9.07,0,0,0-2.66,1l1.7.44-.07-.13v1.25l.07-.15-.74.57c1.65-.46,3.73-.2,5.44-.23,2.19,0,1.44-3.51-.38-2.77a1.52,1.52,0,0,0-.84.65l1.22-.7a55.64,55.64,0,0,0-5.79.58,1.45,1.45,0,0,0-1.05,2.18,1.25,1.25,0,0,0,1.69.44,8.14,8.14,0,0,1,3.47-.71,2.29,2.29,0,0,0,2-1.26,6.69,6.69,0,0,0,.12-3.21A17.88,17.88,0,0,0,42.08,38a.61.61,0,0,0-1.17,0Z"/>
        </g>
        <g class="cls-6">
          <path class="cls-7" d="M42,41l0-.38a.07.07,0,0,0-.14,0V41c0,.11.17.11.17,0Z"/>
        </g>
        <g class="cls-6">
          <path class="cls-7" d="M41.44,39.27c.21.56-.22,1.72-.29,2.32-.1.91-.14,1.83-.22,2.74h2.52a15.67,15.67,0,0,0-.87-4.54,1.08,1.08,0,0,0-2.11.28c-.09,1.41,0,2.83,0,4.24.05,1.72,2.75,1.72,2.67,0a12.79,12.79,0,0,0-1.45-5.45,1.13,1.13,0,0,0-2.09.57c-.07,1.63,0,3.27-.1,4.9s2.71,1.69,2.63,0a13.56,13.56,0,0,0-1.39-5.25c-.46-.94-1.79-.4-1.85.51a42.1,42.1,0,0,0-.1,5,1.28,1.28,0,0,0,2.55,0A9.14,9.14,0,0,0,40,39.79a.82.82,0,0,0-1.27-.16,2.42,2.42,0,0,0-.58,1.64,15.83,15.83,0,0,0,0,3,1,1,0,0,0,2,0,11.77,11.77,0,0,0,0-2.14A7,7,0,0,1,40,40.62H38.6a4.75,4.75,0,0,1,.25,3.66l2.5.33c-.06-1.68-.48-3.34-.46-5l-2,.26a10.33,10.33,0,0,1,.57,4.48h2.63a40.14,40.14,0,0,1-.28-4.9l-2.1.57a8,8,0,0,1,.72,4.31L43.1,44c-.19-1.39-.32-2.78-.52-4.16l-2.07.57a15.54,15.54,0,0,1,.42,4c.09,1.63,2.68,1.6,2.52,0-.11-1.07-.15-2.15-.29-3.22a4.37,4.37,0,0,0-.75-2.4.58.58,0,0,0-1,.56Z"/>
        </g>
        <g class="cls-6">
          <path class="cls-7" d="M37.46,39.78c0,1.86-1,5.53.85,6.74A.87.87,0,0,0,39.57,46a8,8,0,0,0-.33-2.94c-.2-1.15-.51-2.28-.71-3.43-.11-.62-1.06-.45-1.07.15Z"/>
        </g>
        <g class="cls-6">
          <path class="cls-7" d="M37.7,39.75a15.32,15.32,0,0,1,0,4.33c-.12,1.35,2.21,1.68,2.4.32a32.24,32.24,0,0,0,.12-4.61L38.43,40a20.87,20.87,0,0,1,.12,3.71,1.28,1.28,0,0,0,2.5.34c.34-1.25,0-2.56.32-3.8L39.44,40c0,.83,0,1.65.06,2.48a8.39,8.39,0,0,0,.21,2.24,1.29,1.29,0,0,0,1.22.93h.12a1.17,1.17,0,0,0,1.08-.82,5.59,5.59,0,0,0-.21-2.29c-.16-.93-.32-1.87-.55-2.79a1,1,0,0,0-1.89,0,15.09,15.09,0,0,1-.76,3.35l2.33.3a14.14,14.14,0,0,0-1-4.07.91.91,0,0,0-1.69.46,29.47,29.47,0,0,1-.66,4l2.39.33a17.4,17.4,0,0,0-.62-3.2c-.22-.66-.51-1.49-1.23-1.71a.48.48,0,0,0-.58.58Z"/>
        </g>
        <g class="cls-6">
          <path class="cls-7" d="M41.43,28.65c.51,4.75.41,10.2,1.8,14.78a1.06,1.06,0,0,0,2.07-.28c.37-4.67-.85-9.84-1.36-14.5-.17-1.59-2.68-1.61-2.51,0Z"/>
        </g>
        <g class="cls-6">
          <path class="cls-7" d="M42.58,24.6c.46,3.72.81,7.49,1,11.24.11,3.21-.61,6.69.21,9.79.37,1.4,2.69,1.54,3,0,1.3-7.12-.56-14.38-2-21.31-.25-1.16-2.25-.93-2.11.28Z"/>
        </g>
        <g class="cls-6">
          <path class="cls-7" d="M43,30.46a59.26,59.26,0,0,1,0,7.3c-.25,3.78-.56,6.51-4.69,7.38a42.23,42.23,0,0,1-15,0,.88.88,0,0,0-.85,1.46c2.08,2.35,5.32,1.86,8.23,1.85,3.24,0,8.54.8,11.51-.63,4.81-2.31,3.25-13.37,3-17.35-.1-1.4-2.29-1.42-2.21,0Z"/>
        </g>
        <g class="cls-6">
          <path class="cls-7" d="M25.86,47.37c4.37.5,11.06,3.48,15.1.67.53-.38.59-1.45-.21-1.57-2.31-.37-4.68.1-7-.11-2.62-.24-5.21-.56-7.85-.68-1.1,0-1.05,1.57,0,1.69Z"/>
        </g>
        <g class="cls-6">
          <path class="cls-7" d="M18.21,48.82c8.05,1.49,16.79.83,24.89.44,2.27-.1,2.76-.57,3-2.91.58-5.25-.53-11.3-.69-16.59,0-.9-1.42-1.45-1.84-.5-1.54,3.54-1.07,7.15-.79,10.93.05.73.7,4.67.24,5.28-.83,1.11-3.45.57-4.7.73-6.69.87-13.6-.71-20.12,1.4-.55.18-.65,1.1,0,1.22Z"/>
        </g>
        <g class="cls-6">
          <path class="cls-7" d="M44.67,47.21c.53-7.43.17-14.89.33-22.33H42.91C42.82,31,44.75,38.34,42,44.09c-1.45,3.06-3.69,2.66-6.68,3-4.45.45-7.78.82-12.22-.18-1-.22-1.64,1.15-.7,1.65a16.65,16.65,0,0,0,10,1.6c2.37-.24,8.72.41,10.72-1.52C44.79,47,45,42.47,45.33,40.36,46.07,35.23,45,30,45,24.88a1,1,0,0,0-2.09,0c-.24,7.51-.39,15,.94,22.44.08.49.79.33.82-.11Z"/>
        </g>
        <g class="cls-6">
          <path class="cls-7" d="M10.15,26.36a30.49,30.49,0,0,0,10.52.17.65.65,0,0,0,0-1.25,23.64,23.64,0,0,0-10.52,0,.59.59,0,0,0,0,1.12Z"/>
        </g>
        <g class="cls-6">
          <path class="cls-7" d="M9.93,25.19l-.38-.5L8.51,26c3.68.64,7.46.43,11.18.4s7.54.21,11.22-.69a1.11,1.11,0,0,0,0-2.12c-3.68-.92-7.45-.64-11.22-.5s-7.56.17-11.18,1.14c-1.28.34-.45,2.37.71,1.67l.61-.36a.29.29,0,0,0,.1-.39Z"/>
        </g>
        <g class="cls-6">
          <path class="cls-7" d="M10.14,24.6,10,24.35l-.8,1c3.17,1.32,6.88,1.09,10.27,1.2s7,.47,10.28-.55a1,1,0,0,0,0-1.95c-3.29-1.08-6.85-.78-10.28-.74s-6.94-.1-10.27.66c-.9.21-.48,1.69.38,1.38l.33-.13a.47.47,0,0,0,.28-.67Z"/>
        </g>
        <g class="cls-6">
          <path class="cls-7" d="M12.87,26.44a142.69,142.69,0,0,1,15.88-.58c4.9.16,9.7,1.08,14.6.62,2.12-.2,2.2-3.46,0-3.37-9.66.42-19.19-.39-28.81-.44C12,22.66,9.23,22.54,8,25s-.32,6.63.16,9.11a1.29,1.29,0,0,0,2.47,0c.46-2.83-1.12-7.46,2.17-8.31,2.8-.72,6.82.43,9.65.58,7,.38,13.94-.08,20.89.1V23.11c-4.87.46-9.72-.38-14.6-.39-5.31,0-10.6.57-15.88,1.05-1.7.15-1.73,2.81,0,2.67Z"/>
        </g>
        <g class="cls-6">
          <path class="cls-7" d="M8.11,26.52c-.61,2.93-.27,6-.14,9l3-.4c-.78-2.87-1.76-6.91-.81-9.86L9,26.35c1.72-.58,4.24-.22,6-.17a20.72,20.72,0,0,0,5.34-.13c1.29-.29,1-1.92,0-2.34-2.2-.9-4.83-.71-7.17-.7-1.52,0-4.49-.48-5.7.74-1.06,1.07-.75,3.58-.72,4.92A25.88,25.88,0,0,0,8,35.92c.49,1.52,3.14,1.36,3-.4-.31-3-.42-6.18-1.47-9-.22-.61-1.24-.76-1.39,0Z"/>
        </g>
        <g class="cls-6">
          <path class="cls-7" d="M12.55,24.33A18.19,18.19,0,0,0,9.5,27a1.53,1.53,0,0,0,1.85,2.4,26.26,26.26,0,0,0,3.13-2,1.61,1.61,0,0,0-1.63-2.78A15.7,15.7,0,0,0,9.39,27.2c-1.3,1.23,0,3.77,1.82,3.12.73-.26,1.45-.53,2.19-.76l-2.18-2.84c-.44.77-1.24,1.25-1.67,2A2.76,2.76,0,0,0,9.2,30l.07.53c0,.4.06.39.09,0s0-.43-.2.07a5.3,5.3,0,0,1-.39.54,3.39,3.39,0,0,0-.54,1,1.9,1.9,0,0,0,.72,2c1.6,1,3.14-.76,3.85-2,.14-.25.72-2.48.33-2.41l0,.8c.22-.23.44-.46.65-.7a6.85,6.85,0,0,0,.81-1.18c.75-1.39-.51-3.41-2.18-2.84a19.9,19.9,0,0,0-2.61,1.08L12,29.84a35.55,35.55,0,0,1,2.76-2.73l-2-2.53c-1,.75-2,1.44-3,2.13L11.9,28.8a9.19,9.19,0,0,1,2-2.09c1.41-1,.09-3.4-1.39-2.38Z"/>
        </g>
        <g class="cls-6">
          <path class="cls-7" d="M9.63,31.54l-.7.78,2.34,1.37c.13-.94.24-1.85.3-2.79.15-2-.29-1.93,1.55-3.08,2.47-1.54,6.85-.75,9.65-.72,4.2,0,9.11.1,13-1.75a1,1,0,0,0,0-1.69c-2.77-1.42-5.38-.72-8.4-.5-4.34.31-8.7-.17-13,.3-6.61.71-7.1,3.94-5.74,10.23.45,2.09,4,.52,2.34-1.37l-.68-.78a.43.43,0,0,0-.6,0Z"/>
        </g>
        <g class="cls-6">
          <path class="cls-7" d="M36.82,24.06C28.39,22,18.11,22.64,9.56,23.74A1.84,1.84,0,0,0,7.89,25c-1.25,3.47-.92,8.55-.42,12.2.22,1.59,2.88,1.53,3.15,0,.45-2.47,0-5,.38-7.42.3-1.76-.22-2.08,1.73-2.68A24.84,24.84,0,0,1,17,26.69c6.57-.73,13-.36,19.61-.7a1,1,0,0,0,.26-1.93Z"/>
        </g>
        <g class="cls-6">
          <path class="cls-7" d="M8.89,31.64,8.84,32c-.26,1.8,2.48,1.93,2.34.31,0-.51-.4-2.86-.39-3.35.07-2.28.49-2.28,2.6-2.41,3.13-.18,6.25-.15,9.38-.15,6.43,0,12.9-.2,19.32.27V22.93c-4.53.46-9.08.78-13.6,1.28L30.27,26a1.76,1.76,0,0,0-.43-1.53,1.64,1.64,0,0,0-2.29,0l-.32.28a1.79,1.79,0,0,0,1.26,3c4.54-.14,9.07-.62,13.6-1.1a1.87,1.87,0,0,0,0-3.73c-6.41-.46-12.9,0-19.32,0-4.5.05-10.27-.62-14.5,1.19a1.56,1.56,0,0,0-.77,1.34c-.16,2.31.76,4.92,1.34,7.13l1.75-1.35-.3-.2a1,1,0,0,0-1.4.57Z"/>
        </g>
        <g class="cls-6">
          <path class="cls-7" d="M39.79,24.62C31.33,23,22,23.84,13.46,24a1.6,1.6,0,0,0,0,3.19c4.34.14,8.6-.72,12.93-.67L26,23.28c-4.47.92-9.89,2.8-14.44,2.39L12.41,29a10.76,10.76,0,0,1,3.86-1.41l-.93-3.37c-1.77.72-3.55,1.41-5.34,2.1-2.08.8-1.3,4,.94,3.42a28.91,28.91,0,0,1,3.81-.78l-1.77-3c-1.58,1.53-2.7,3-4.21,4.59-1.24,1.28.38,3.6,2,2.55a35.23,35.23,0,0,0,4.81-4.58c1.39-1.38-.09-3.29-1.77-3a28.72,28.72,0,0,0-3.78.86l.94,3.42q2.66-1.1,5.33-2.15a1.75,1.75,0,0,0-.93-3.37,18.24,18.24,0,0,0-4.71,1.73c-1.67.87-.72,3.16.89,3.29,4.92.4,10.56-1.61,15.31-2.75a1.65,1.65,0,0,0-.44-3.23c-4.34,0-8.59.9-12.93.77v3.19c8.69-.17,17.43-.37,26.1-.89.91-.05,1.23-1.48.23-1.67Z"/>
        </g>
        <g class="cls-6">
          <path class="cls-7" d="M9.75,25.92a19.65,19.65,0,0,0-.66,8l3.32-1.38c-1.24-1.44-1.26-4.06-1.52-5.89-.22-1.5-.51-.51.62-.07a17,17,0,0,0,3.27.05c3.9.24,8,1.24,11.78,0a1,1,0,0,0,.23-1.81c-2.91-1.56-6.13-1.63-9.36-1.94-2.84-.26-6.68-1-9.38.33-1.82.89-1.57,2.3-1.17,4,.7,3,.54,5.73,2.78,8.07,1.07,1.12,3.55.35,3.32-1.37a56.09,56.09,0,0,0-1.17-8,1.08,1.08,0,0,0-2.06,0Z"/>
        </g>
        <g class="cls-6">
          <path class="cls-7" d="M12.77,26.33c5,.94,10.08.05,15.14,0s10,.37,15,.31c2.34,0,2.3-3.44,0-3.6a106,106,0,0,0-30.09,2.25.56.56,0,0,0,0,1.07Z"/>
        </g>
        <g class="cls-6">
          <path class="cls-7" d="M42.18,24.39C34,22,24,23.91,15.59,23.9c-2.21,0-4.38-.07-5.83,1.89C8,28.19,7.82,32.57,8.32,35.42c.28,1.62,2.5,1.29,3,0,.92-2.61.19-7,3.34-7.87s7.47,0,10.7-.19c5.58-.28,11.4-.3,16.86-1.6a.72.72,0,0,0,0-1.37Z"/>
        </g>
        <g class="cls-6">
          <path class="cls-7" d="M9.57,27c-.31,2.55-.2,5.09-.31,7.66l3.5-.48a18.52,18.52,0,0,1-1.3-6.37c.14-2.37-.38-1.22,1.6-.6,2.85.88,7.69-.1,10.73-.05,6.48.11,13.56,1.14,19.92-.29,1.38-.31,1.45-2.61,0-2.87-4.6-.83-9.4-.46-14.06-.56-5.53-.11-11.06-.26-16.59-.06-2.13.08-4.62-.23-5.45,2.09-1,2.76.74,7.62,1.89,10.09.75,1.59,3.44.82,3.32-.9a23.47,23.47,0,0,0-1.62-8.1c-.38-.91-1.54-.3-1.63.44Z"/>
        </g>
        <g class="cls-6">
          <path class="cls-7" d="M20.9,31.47a18.63,18.63,0,0,0,.22,5.37c.21,1.82,3,1.94,2.94,0a17.12,17.12,0,0,0-.6-4.15L21,33.37c.28.85.88,2.44.56,3.31l.67-.87a16.77,16.77,0,0,1-3,1l-1.29,2.25,6.09.17a1.53,1.53,0,0,0,1.52-1.52,3.92,3.92,0,0,0-1.7-3.48.88.88,0,0,0-1.27.52,9.18,9.18,0,0,0-.06,3L24,36.21l-6.09-.13a1.5,1.5,0,0,0-1.29,2.25c1.54,2.12,4.12,1.23,6.19.42,2.66-1,1.45-4,.67-6.06-.47-1.23-2.72-1.21-2.52.34a25.46,25.46,0,0,1,.18,3.81l2.89-.4a18.9,18.9,0,0,0-1.49-5.18.9.9,0,0,0-1.62.21Z"/>
        </g>
        <g class="cls-6">
          <path class="cls-7" d="M22,30.57a20.8,20.8,0,0,1,.2,4.1c0,1.23-.07,2.35.85,3.27a1.23,1.23,0,0,0,2-.54,9.9,9.9,0,0,0-.28-3.82,8.71,8.71,0,0,0-1.76-3.45.58.58,0,0,0-1,.44Z"/>
        </g>
        <g class="cls-6">
          <path class="cls-7" d="M34,27.16a7.13,7.13,0,0,1,3-1.11l-.83-2a50,50,0,0,1-4.47,4,1.69,1.69,0,1,0,2.06,2.67,42.47,42.47,0,0,1,4.62-3.61l-2.18-2.83q-2.23,2.3-4.41,4.63c-1.38,1.48.43,4.16,2.25,2.92q2.47-1.68,5-3.32l-2.08-2.71a55.91,55.91,0,0,1-5.59,4.73c-1.68,1.29,0,4.19,1.68,2.89a39.75,39.75,0,0,1,6.58-4.06l-2.38-1.83c.07-.33-.18.12-.36.27l-1.16,1-2.1,1.8c-1.4,1.21.42,3.51,2,2.56,1.3-.8,2.89-2,4.48-1.94L39.12,29a19.77,19.77,0,0,1-3.32,2.66A1.35,1.35,0,0,0,37.16,34,14.42,14.42,0,0,0,41,30.86a1.35,1.35,0,0,0-.94-2.27c-1.93,0-3.92,1-5.73,1.62l1.58,2.72,2.79-2.41a4,4,0,0,0,1.65-2.1A1.64,1.64,0,0,0,38,26.59a38.28,38.28,0,0,0-6.63,4L33,33.45a76.94,76.94,0,0,0,6.34-5.18,1.73,1.73,0,0,0-2.09-2.71q-2.53,1.56-5.1,3.09l2.26,2.92c1.46-1.56,2.89-3.13,4.32-4.71,1.29-1.43-.43-4.09-2.18-2.83a50,50,0,0,0-5.21,4.32L34,30.41a48.89,48.89,0,0,1,3.81-4.7c.95-1.16-.68-2.83-1.66-1.66a23,23,0,0,0-2.51,2.8c-.13.2.11.41.31.31Z"/>
        </g>
        <g class="cls-6">
          <path class="cls-7" d="M40.94,23.59c-1.14.27-2.12.88-3.23,1.25a1.29,1.29,0,1,0,1,2.36,7.25,7.25,0,0,1,2.15-.71l-1.33-1,.1.23.14-1.06c-.58,1.26-2.09,2.39-3.08,3.33-1.29,1.22.35,3,1.78,2.3,1.06-.48,2.12-.91,3.21-1.32l-1.43-2.46a19.75,19.75,0,0,1-3.92,3.43,1.5,1.5,0,0,0,1.51,2.59,7.09,7.09,0,0,1,2.7-.94L39.17,29.8c-.14.68-2.21,2.11-2.74,2.81-.87,1.18.81,2.68,2,2,1.46-.91,3.41-2.58,3.57-4.4a1.42,1.42,0,0,0-1.42-1.42,18.43,18.43,0,0,0-3.85,1l1.15,2.74a23.13,23.13,0,0,0,4.49-3.94c.83-1,.09-3-1.43-2.46-1.32.5-2.63,1-3.91,1.63l1.77,2.3c1.33-1.34,4.23-3.5,3.29-5.63a1.34,1.34,0,0,0-1.19-.69A8.28,8.28,0,0,0,37.41,25L39,27c.8-1,1.77-1.72,2.48-2.74.24-.35-.15-.76-.51-.67Z"/>
        </g>
        <g class="cls-6">
          <path class="cls-7" d="M41.29,23.68a19.24,19.24,0,0,0-3.85,3.85,1.41,1.41,0,0,0,0,1.93c1.36,1.7,4.32-.9,5.66-1.24l-1.54-1.55c-.2,1.31-2.71,2.76-3.62,3.41a1.56,1.56,0,0,0,1.19,2.84c.69-.17,1.39-.32,2.09-.44l-1.47-1.11c-.18-.54-1.62,1.12-1.69,1.17-1.1,1-.16,2.65,1.14,2.74.83,0,1.08.21.12-.83s-1.16-.11-2,1.06.61,2.63,1.85,2.4l1.22-.17-1.43-.83A19,19,0,0,0,37.45,41a1.26,1.26,0,0,0,1.88,1.07c1.59-1.07,3.28-3.76,2.92-5.8s-2.33-1.87-4-1.51l1.84,2.4c1.61-2.33,2.91-5-.91-5.09l1.13,2.74c1.07-1.08,2.87-2.55,2.36-4.25a1.59,1.59,0,0,0-1.47-1.12,11.15,11.15,0,0,0-2.91.49l1.51,2.59C41.48,31.1,44,29.39,44,27a1.27,1.27,0,0,0-1.59-1.21c-.12,0-3.89,1-3.08,1.74l.22,1.65a14.24,14.24,0,0,0,2.54-4.86.57.57,0,0,0-.83-.64Z"/>
        </g>
        <g class="cls-6">
          <path class="cls-7" d="M40.57,26.33A23,23,0,0,0,40.63,30c.1,1.51.21,3,.28,4.53.13,2.89-.3,6,.41,8.77a1.21,1.21,0,0,0,2.32,0c1.11-3.2.47-7.14,0-10.44-.27-1.9-.47-6.2-2.26-7.39a.62.62,0,0,0-.74.09l-.07.07a.51.51,0,0,0,0,.73Z"/>
        </g>
      </g>
    </g>
  </g>
</svg>
