<svg xmlns="http://www.w3.org/2000/svg" viewBox="0 0 18.46 15.17">
  <defs>
    <style>
      .cls-1 {
        fill: #634a72;
      }

      .cls-2 {
        opacity: 0.05;
      }

      .cls-3 {
        fill: #41314c;
      }

      .cls-4 {
        fill: #aea1b7;
      }
    </style>
  </defs>
  <title>Ресурс 1like</title>
  <g id="Слой_2" data-name="Слой 2">
    <g id="Слой_190" data-name="Слой 190">
      <path class="cls-1" d="M18.45,3.59A3.63,3.63,0,0,0,15.31.1c-2.13-.3-3.86,1.08-4.87,2.82C9.23-.55,1.86-1.11.32,2.54-.58,4.68.53,6.86,2.2,8.22c1,.86,2.31,1.45,3.43,2.22a20.19,20.19,0,0,1,4.52,4.33.5.5,0,0,0,.32.18.58.58,0,0,0,.27.21c1.37.55,3.3-3.05,4-4C16.27,9.05,18.65,6.42,18.45,3.59Z" transform="translate(0 -0.05)"/>
      <g class="cls-2">
        <path class="cls-3" d="M4.88,1.71a3.82,3.82,0,0,0-3.8,2C.5,5,1.37,6.87,2.86,6.89A.69.69,0,0,0,3.52,6c-.17-.54-1.08-1.09-.82-1.69S4.21,3.23,4.88,3a.69.69,0,0,0,0-1.33Z" transform="translate(0 -0.05)"/>
      </g>
      <g class="cls-2">
        <path class="cls-3" d="M3.62,2.27c-.33-1.15-1.56-.63-2,.12S1,5.14,2.28,5.32a.62.62,0,0,0,.58-.45c-.08.21.05-.13.05-.18a.89.89,0,0,0,0-.23c0-.06,0-.38,0-.26a4,4,0,0,0,0-.6,1.93,1.93,0,0,1,0-.24v-.1c0-.48,0-.87.57-.87a.09.09,0,0,0,.09-.12Z" transform="translate(0 -0.05)"/>
      </g>
      <g class="cls-2">
        <path class="cls-3" d="M1.81,2.66C1,3.76,1.63,4.88,2.23,6c.85,1.53,2.51,3.43,4.25,3.91.34.09.77-.26.62-.63C6.6,8,5.32,7.18,4.38,6.23,3.66,5.5,1.79,3.9,1.94,2.71c0-.06-.09-.11-.13,0Z" transform="translate(0 -0.05)"/>
      </g>
      <g class="cls-2">
        <path class="cls-3" d="M2.06,5.43C3.17,6.87,4.32,8.28,5.47,9.69c.86,1.06,1.84,2.9,3.31,3a.57.57,0,0,0,.58-.58c-.11-1.45-1.95-2.74-2.9-3.75A13.44,13.44,0,0,0,2.29,5.13a.19.19,0,0,0-.23.3Z" transform="translate(0 -0.05)"/>
      </g>
      <g class="cls-2">
        <path class="cls-3" d="M1.8,2.93A.7.7,0,0,0,.73,3.1,2,2,0,0,0,.47,4.72C.67,6,1.62,8.17,3.19,8a.48.48,0,0,0,.46-.59C3.44,6.61,2.6,6,2.18,5.29A4.32,4.32,0,0,1,1.73,4.2a1,1,0,0,1,.12-.93.3.3,0,0,0-.05-.34Z" transform="translate(0 -0.05)"/>
      </g>
      <g class="cls-2">
        <path class="cls-3" d="M2.76,2.91c-.42,1.74.52,3.26,1.36,4.73a12.74,12.74,0,0,0,4.12,4.93c.37.22.73-.22.56-.57C7.23,8.86,4.15,6.33,3.13,2.91a.19.19,0,0,0-.37,0Z" transform="translate(0 -0.05)"/>
      </g>
      <g class="cls-2">
        <path class="cls-3" d="M3.26,3.11A1.93,1.93,0,0,0,3.2,4.77,4.19,4.19,0,0,0,4.28,6.46.47.47,0,0,0,5.06,6a8.7,8.7,0,0,0-.61-1.56C4.33,4.18,4.16,4,4,3.71a1.62,1.62,0,0,0-.4-.6.27.27,0,0,0-.36,0Z" transform="translate(0 -0.05)"/>
      </g>
      <g class="cls-2">
        <path class="cls-3" d="M3.77,3c.28,2.37.71,5.77,2.72,7.37a.65.65,0,0,0,1.08-.62A13.19,13.19,0,0,0,6.12,6a12.58,12.58,0,0,0-2-3.17c-.1-.11-.32,0-.3.12Z" transform="translate(0 -0.05)"/>
      </g>
      <g class="cls-2">
        <path class="cls-3" d="M4.29,2.79a8.72,8.72,0,0,0,.23,2,3.36,3.36,0,0,0,.91,1.82.61.61,0,0,0,1-.27C7,5,5.48,3.62,4.69,2.63c-.12-.16-.41,0-.4.16Z" transform="translate(0 -0.05)"/>
      </g>
      <g class="cls-2">
        <path class="cls-3" d="M3.92,3.15A4.27,4.27,0,0,1,5.65,4.84c.36.68.52,1.44.82,2.15a.56.56,0,0,0,1,0c1.06-2-1-4.27-2.79-5.05-.8-.36-1.52.76-.71,1.21Z" transform="translate(0 -0.05)"/>
      </g>
      <g class="cls-2">
        <path class="cls-3" d="M4,3.66C5.19,4.51,5.5,7,5.86,8.38s.49,3.35,1.83,4a.68.68,0,0,0,1-.58c.11-1-.55-1.93-.85-2.86a16.81,16.81,0,0,0-1-2.67C6.25,5.08,5.49,3.67,4.06,3.41a.14.14,0,0,0-.1.25Z" transform="translate(0 -0.05)"/>
      </g>
      <g class="cls-2">
        <path class="cls-3" d="M3.2,3.34c-2.71.91,2.19,7.58,4,7.83A1,1,0,0,0,8.29,9.9,5.83,5.83,0,0,0,6.91,8c-.68-.76-1.34-1.53-2-2.34a3.93,3.93,0,0,1-1.07-1.8.55.55,0,0,0-.68-.52Z" transform="translate(0 -0.05)"/>
      </g>
      <g class="cls-2">
        <path class="cls-3" d="M3.18,1.74C2.46.62,1.27,1.92,1,2.75a2.72,2.72,0,0,0,.16,1.8,5.35,5.35,0,0,0,1.23,1.6.63.63,0,0,0,1.07-.44c0-.31-.05-.62-.08-.92A3.76,3.76,0,0,0,3,3.68,1.59,1.59,0,0,1,3.18,2a.28.28,0,0,0,0-.28Z" transform="translate(0 -0.05)"/>
      </g>
      <g class="cls-2">
        <path class="cls-3" d="M2.65,5.08c.86,1.11,1.81,2.14,2.69,3.23A22.88,22.88,0,0,0,8,11.72a.49.49,0,0,0,.76-.59c-1.2-2.69-3.22-4.64-5-6.93-.5-.64-1.64.22-1.14.88Z" transform="translate(0 -0.05)"/>
      </g>
      <g class="cls-2">
        <path class="cls-3" d="M5.5,5C6,7,6.38,9.33,8,10.71a.47.47,0,0,0,.78-.46c-.43-2-1.7-3.73-2.78-5.44A.29.29,0,0,0,5.5,5Z" transform="translate(0 -0.05)"/>
      </g>
      <g class="cls-2">
        <path class="cls-3" d="M14,1.27a1.37,1.37,0,0,0-1.84.34,2.42,2.42,0,0,0-.73,2.13.77.77,0,0,0,1.27.33,4.15,4.15,0,0,0,.61-1.35,1.3,1.3,0,0,1,.6-.7A.41.41,0,0,0,14,1.27Z" transform="translate(0 -0.05)"/>
      </g>
      <g class="cls-2">
        <path class="cls-3" d="M11.92,3.9a4.22,4.22,0,0,0,.77-.64,5.55,5.55,0,0,1,.94-.48,1.36,1.36,0,0,0,.84-1c.06-.52-.42-.84-.84-1-1-.27-1.92.7-2.23,1.53a1.55,1.55,0,0,0,0,1.14c.07.16.3.48.52.39Z" transform="translate(0 -0.05)"/>
      </g>
      <g class="cls-2">
        <path class="cls-3" d="M11.91,3.1l.27-.18c-.18,0-.16,0,0,0s.44-.08.64-.1a5.07,5.07,0,0,1,1.29.1,2.14,2.14,0,0,0,1.41-.12.86.86,0,0,0,.32-1.2c-.5-.86-2-.82-2.79-.57a1.91,1.91,0,0,0-1.57,1.83.26.26,0,0,0,.39.22Z" transform="translate(0 -0.05)"/>
      </g>
      <g class="cls-2">
        <path class="cls-3" d="M13.5,1.68c-.65-.49-1.44,0-1.87.54a4.38,4.38,0,0,0-.9,1.91,1.11,1.11,0,1,0,2.14.59c.08-.43.21-.85.3-1.28,0-.11.05-.22.08-.33A.5.5,0,0,1,13.31,3c.09-.16,0,0,.08-.12.32-.42-.05,0,.11-.13a.6.6,0,0,0,0-1Z" transform="translate(0 -0.05)"/>
      </g>
      <g class="cls-2">
        <path class="cls-3" d="M12.18,4.88a2,2,0,0,1,.47-1.43,3,3,0,0,0,.82-1.52c.07-.67-.64-1-1.16-.89-.81.11-1.34,1.08-1.46,1.82A4,4,0,0,0,11.06,5c.23.54,1.14.54,1.12-.15Z" transform="translate(0 -0.05)"/>
      </g>
      <g class="cls-2">
        <path class="cls-3" d="M11.79,4.14c.58-.71,1.66-.55,2.27-1.18a1,1,0,0,0-.67-1.61,2.39,2.39,0,0,0-1.83.91A1.75,1.75,0,0,0,11.17,4a.38.38,0,0,0,.62.16Z" transform="translate(0 -0.05)"/>
      </g>
      <g class="cls-2">
        <path class="cls-3" d="M6,7A22,22,0,0,1,7.6,10a11.65,11.65,0,0,0,1.83,2.68.5.5,0,0,0,.84-.34c0-1.26-1-2.15-1.74-3.05A9.53,9.53,0,0,0,6.16,6.88C6.06,6.82,6,7,6,7Z" transform="translate(0 -0.05)"/>
      </g>
      <g class="cls-2">
        <path class="cls-3" d="M9.8,12.6c-.86-1-.7-2.52-1.81-3.34-.33-.25-.68.16-.63.48a5.25,5.25,0,0,0,2,3.47c.39.26.75-.29.47-.61Z" transform="translate(0 -0.05)"/>
      </g>
      <g class="cls-2">
        <path class="cls-3" d="M7.31,9a23.14,23.14,0,0,1,1.36,2.3A23,23,0,0,1,10,13.78c.33.91,1.76.55,1.47-.4-.24-.78-.37-1.63-1.11-2.06A.75.75,0,0,0,9.2,12,4.35,4.35,0,0,0,10,14l1.2-.92A16.19,16.19,0,0,1,9.4,10.91c-.6-.73-1.22-1.44-1.85-2.14-.11-.13-.34,0-.24.19Z" transform="translate(0 -0.05)"/>
      </g>
      <g class="cls-2">
        <path class="cls-3" d="M12,2.64a3.62,3.62,0,0,0-.85,1.81A6.51,6.51,0,0,0,11,5.52a3,3,0,0,0,.33,1.07.49.49,0,0,0,.94,0c.08-.24.23-.5.29-.75a3.23,3.23,0,0,0,0-1,7.46,7.46,0,0,1,0-1.89c.07-.3-.32-.6-.55-.33Z" transform="translate(0 -0.05)"/>
      </g>
      <g class="cls-2">
        <path class="cls-3" d="M12,6a14.41,14.41,0,0,1,.89-1.86,3.32,3.32,0,0,0,.71-1.82.62.62,0,0,0-.61-.6c-1,0-1.47.91-1.69,1.74a5.73,5.73,0,0,0,0,2.54c.07.37.57.3.68,0Z" transform="translate(0 -0.05)"/>
      </g>
      <g class="cls-2">
        <path class="cls-3" d="M12.79,3c.42-.13.83-.32,1.24-.49a5.48,5.48,0,0,0,.56-.23c.23-.12.42-.29.65-.4s.1-.46-.13-.48a2.09,2.09,0,0,0-1.32.25c-.42.24-.83.5-1.27.7s-.11.76.27.65Z" transform="translate(0 -0.05)"/>
      </g>
      <g class="cls-2">
        <path class="cls-4" d="M4.65,2.3a3.24,3.24,0,0,1,.85.43,8.27,8.27,0,0,1,1.18.62c.74.57.91,1.67,1.86,2a.91.91,0,0,0,1-.41C10.45,3.65,8.75,2,7.75,1.38A2.67,2.67,0,0,0,5.83,1,2,2,0,0,0,4.54,2a.18.18,0,0,0,.11.26Z" transform="translate(0 -0.05)"/>
      </g>
      <g class="cls-2">
        <path class="cls-4" d="M7.33,3c.52,1.62.75,3.33,1.37,4.93.44,1.16,2.55,1.14,2.37-.32A7.57,7.57,0,0,0,9.3,3.16c-.9-1-2.92-2.18-4.1-1a.72.72,0,0,0,0,1c.68.66,1.7.77,2.4,1.47a3.38,3.38,0,0,1,1.1,2.6H11A8.67,8.67,0,0,0,8,2.47.47.47,0,0,0,7.33,3Z" transform="translate(0 -0.05)"/>
      </g>
      <g class="cls-2">
        <path class="cls-4" d="M5.85,3.32C7,3.62,7.34,4.58,8,5.45c.39.54,1.83,2.28,2.39,1S9.58,3.71,8.88,2.84A3.92,3.92,0,0,0,6.11,1.4C5,1.26,4.82,3,5.85,3.32Z" transform="translate(0 -0.05)"/>
      </g>
      <g class="cls-2">
        <path class="cls-4" d="M6.15,2.4c-.63,1.2.27,2.7.79,3.81s1.11,3.07,2.3,3.85a1.1,1.1,0,0,0,1.47-.39c.8-1.41-.17-3-1-4.15-.44-.67-1-1.3-1.43-1.95A3.78,3.78,0,0,0,7,2.17a.64.64,0,0,0-.86.23Z" transform="translate(0 -0.05)"/>
      </g>
      <g class="cls-2">
        <path class="cls-4" d="M7.29,3.79A10.8,10.8,0,0,0,8,8.46c.48,1.32,1,3,2.52,3.36a1,1,0,0,0,1.2-.68c.2-1.45-.69-2.46-1.31-3.7A35.8,35.8,0,0,0,8.35,3.51a.57.57,0,0,0-1.06.28Z" transform="translate(0 -0.05)"/>
      </g>
      <g class="cls-2">
        <path class="cls-4" d="M8.16,3C7.87.8,3.68,0,2.5,1.78a1,1,0,0,0,.89,1.55c.32,0,.61-.11.93-.11a6.12,6.12,0,0,1,1,.16c.67.1,1.33.32,2,.38a.8.8,0,0,0,.8-.8Z" transform="translate(0 -0.05)"/>
      </g>
      <g class="cls-2">
        <path class="cls-4" d="M5.74,2.76s-.16,0-.18,0,.3.12.41.18A5.36,5.36,0,0,1,7,3.92c.37.42.65.9,1,1.34a3,3,0,0,0,.64.64c.42.21.46.21.11,0a1,1,0,0,0,.35.24,1.14,1.14,0,0,0,1.64-.67,2.31,2.31,0,0,0,.06-1.22,3.47,3.47,0,0,0-.62-1.17,10.73,10.73,0,0,0-1.84-2C6.9-.08,5-.45,3.78,1.25c-.88,1.21,1,2.37,2,1.51Z" transform="translate(0 -0.05)"/>
      </g>
      <g class="cls-2">
        <path class="cls-4" d="M7.45,3.78A12.64,12.64,0,0,1,9.38,7.69c.37,1.26.57,2.59,1.54,3.55a.52.52,0,0,0,.85-.23c.47-1.44-.11-2.94-.58-4.32A13.61,13.61,0,0,0,9.1,2.81c-.71-1-2.36-.05-1.65,1Z" transform="translate(0 -0.05)"/>
      </g>
      <g class="cls-2">
        <path class="cls-4" d="M11.48,9.62c.59-1.68,2-3,3.19-4.27a1.48,1.48,0,0,0,.22-1.76,2.1,2.1,0,0,0-.22-.3,1.48,1.48,0,0,0-1.77-.23A7.93,7.93,0,0,0,9.71,9.38a.91.91,0,0,0,1.77.24Z" transform="translate(0 -0.05)"/>
      </g>
      <g class="cls-2">
        <path class="cls-4" d="M11.93,6.52a6.74,6.74,0,0,1,2.28-1.71,8,8,0,0,1,1.13-.49c.27-.1-.14,0-.13-.15a3.57,3.57,0,0,1,0,.47,8.35,8.35,0,0,1-1.29,2.45c-.4.63-.92,1.19-.78,2a.7.7,0,0,0,1,.42C15,9.05,15.59,7.58,16,6.76s1.17-2.29.68-3.36a2.09,2.09,0,0,0-3.09-.75c-1.26.89-1.39,2.39-2.14,3.59-.19.3.27.56.47.28Z" transform="translate(0 -0.05)"/>
      </g>
      <g class="cls-2">
        <path class="cls-4" d="M13.83,4c-.76,1.35-1.53,2.72-2.17,4.14-.51,1.12-1.14,2.34-.57,3.52a.81.81,0,0,0,1.09.28c1-.63,1.18-1.87,1.58-2.92.53-1.37,1.15-2.69,1.79-4,.56-1.14-1.08-2.13-1.72-1Z" transform="translate(0 -0.05)"/>
      </g>
      <g class="cls-2">
        <path class="cls-4" d="M11.42,11.07c.89-1.17,1.91-2.22,2.8-3.4s1.55-1.92,1.35-3.34a.83.83,0,0,0-1-.58c-1.34.57-1.78,1.72-2.46,2.94a23.77,23.77,0,0,0-1.68,4c-.22.63.65.87,1,.42Z" transform="translate(0 -0.05)"/>
      </g>
      <g class="cls-2">
        <path class="cls-4" d="M12.69,6a3.3,3.3,0,0,1,1.42-.78c.27-.09.53-.17.79-.27a4.53,4.53,0,0,0,.55-.23c.14-.06.57-.18.2-.18L15,4.41q-.3-1-.27-.48l0,.29c0,.13,0,.38,0,.46-.06.52-.28,1,.07,1.52A1.13,1.13,0,0,0,16,6.71c.85-.33,1.12-1.3,1.27-2.14a2,2,0,0,0-1.24-2.4c-1-.28-2,.57-2.55,1.33a9.37,9.37,0,0,0-1,2.43c-.05.11.12.19.19.11Z" transform="translate(0 -0.05)"/>
      </g>
      <g class="cls-2">
        <path class="cls-4" d="M15.29,4.24c-.5,1.38-2.16,2.51-3,3.74a24.39,24.39,0,0,0-2,4.13c-.61,1.46,1.59,2.57,2.59,1.5a7,7,0,0,0,1.8-5.32.82.82,0,0,0-1.23-.7c-1.49.95-1.54,2.71-2.76,3.84l2.43,1.87c.76-1.57,1.48-3.16,2.22-4.74a12.11,12.11,0,0,0,.95-4.18c.06-.61-.82-.64-1-.14Z" transform="translate(0 -0.05)"/>
      </g>
      <g class="cls-2">
        <path class="cls-4" d="M11.73,12.05c.16-.93,1.28-1.88,1.82-2.65.67-1,1.56-1.88,1.52-3.11a1.3,1.3,0,0,0-1.94-1.11c-1.23.64-1.75,2.34-2.19,3.58a5.84,5.84,0,0,0-.45,3.29c.14.59,1.13.64,1.24,0Z" transform="translate(0 -0.05)"/>
      </g>
      <g class="cls-2">
        <path class="cls-4" d="M12.14,11.79c.4-1.8,2.51-3.07,3.41-4.63.6-1,1.29-2.61.5-3.66a.22.22,0,0,0-.39,0c-1,3.29-3.89,5.52-5.56,8.44-.83,1.44,1.52,2.74,2.19,1.28A22.23,22.23,0,0,0,14,9.12a21.9,21.9,0,0,1,2.09-5.4l-.29-.3C14.59,4.23,14,6,13.22,7.12a7.13,7.13,0,0,0-1.65,4.59c0,.32.5.41.57.08Z" transform="translate(0 -0.05)"/>
      </g>
      <g class="cls-2">
        <path class="cls-4" d="M12.45,11.79C12.72,9.58,10.89,8.55,9.69,7L8.55,8.14a7.69,7.69,0,0,1,.86,2.38,18.57,18.57,0,0,0,.9,2.11c.46.93,1.9.27,1.64-.69A21.55,21.55,0,0,0,8.62,5c-.23-.31-.48-.61-.72-.91a6.87,6.87,0,0,1-.55-.66l-.62.75c.07.44,1.49,1,1.83,1.19.65.32,1.66-.23,1.35-1A4.1,4.1,0,0,0,7.69,1.85c-1.1-.48-2.44-.25-2.78,1s1,2.43,1.77,3.37a31.5,31.5,0,0,1,3.63,6.36l1.55-.9c-.81-1.46-1.09-3.22-2-4.57-.41-.57-1.6-.47-1.5.41.19,1.72,2.26,2.55,2.29,4.22a.92.92,0,0,0,1.84,0Z" transform="translate(0 -0.05)"/>
      </g>
      <g class="cls-2">
        <path class="cls-4" d="M9.49,6.05c.5,1.73-.71,3.53.85,5a1.33,1.33,0,0,0,1.84,0c1.25-1.5.37-3.32.91-5a4.23,4.23,0,0,1,1-1.44c.18-.2.37-.41.56-.6.5-.51.47-.68,1.22-.4s.67.35.56,1a4.92,4.92,0,0,1-.29.92,10.81,10.81,0,0,0-.56,1.25.34.34,0,0,0,.56.32c2.08-1.92,1.59-6.22-1.91-5.63a5.31,5.31,0,0,0-3.76,3.71,6.49,6.49,0,0,0-.19,2.24c0,.58.25,1.56-.1,2l2-.27c-1-.78-.76-2.62-1.51-3.64-.41-.55-1.4-.25-1.18.5Z" transform="translate(0 -0.05)"/>
      </g>
      <g class="cls-2">
        <path class="cls-4" d="M7.94,3.88A2.11,2.11,0,0,0,4.13,5.05a6.09,6.09,0,0,0,3.51,6,1.52,1.52,0,0,0,1.7-2.21c-.67-.91-1.38-1.78-2-2.74a6.51,6.51,0,0,1-.71-1.39,1,1,0,0,1-.12-.46c0-.52.62-.15.92.12a.35.35,0,0,0,.49-.5Z" transform="translate(0 -0.05)"/>
      </g>
      <g class="cls-2">
        <path class="cls-4" d="M6.13,2.76c-.51-.39-1-.52-1.47-.07a2.49,2.49,0,0,0-.88,1.77A3.34,3.34,0,0,0,4.81,7a4.35,4.35,0,0,0,1,.8,2.39,2.39,0,0,0,1.69.15,1.31,1.31,0,0,0,.57-2.15L8,5.61l.36.61A2.13,2.13,0,0,0,7.18,5a2.89,2.89,0,0,1-1-.81A1.13,1.13,0,0,1,6,3.49c0-.11,0-.23,0-.34s-.11-.34.18-.32c0,0,0-.05,0-.07Z" transform="translate(0 -0.05)"/>
      </g>
      <g class="cls-2">
        <path class="cls-4" d="M5.13,2.47c-1.53.74-.09,3.17.62,4A1.47,1.47,0,0,0,8.19,5.8a3,3,0,0,0-.94-3,1.51,1.51,0,0,0-2.35.3,2.11,2.11,0,0,0-.31.52L7.42,4a8.08,8.08,0,0,0-.37-.85,1.59,1.59,0,0,0-2.88.38C3.74,5.37,5,6.62,6,8.05s2.33,4.08,4.37,4.24a1.34,1.34,0,0,0,1.28-1c.61-1.6-.89-2.92-1.85-4-.35-.41-2.71-2.46-2.58-3l-2.88.38a2.51,2.51,0,0,0,.26.45,1.57,1.57,0,0,0,2.83-.37l.07-.19-2.36.3c.19.29.27.34.25.15l2.14-.87A9.89,9.89,0,0,1,5.93,2.58a.66.66,0,0,0-.8-.11Z" transform="translate(0 -0.05)"/>
      </g>
      <g class="cls-2">
        <path class="cls-4" d="M10.56,11.64c.71-.7.19-1.92-.23-2.64S9,7.22,8.2,7.1A1,1,0,0,0,7,8c-.06.9.86,2,1.44,2.58s1.37,1.79,2.15,1Z" transform="translate(0 -0.05)"/>
      </g>
      <g class="cls-2">
        <path class="cls-4" d="M11.87,12.34a30.3,30.3,0,0,0-1.52-2.8A4.29,4.29,0,0,0,8.28,7.45a1,1,0,0,0-1.21.93,5.09,5.09,0,0,0,1.24,2.74,23.15,23.15,0,0,0,1.87,2.52c.86,1,2.19-.27,1.69-1.3Z" transform="translate(0 -0.05)"/>
      </g>
      <g class="cls-2">
        <path class="cls-4" d="M10.36,9.64C10,8.55,8.73,7.59,7.93,6.74a7.45,7.45,0,0,1-1.24-1.5,11.07,11.07,0,0,1-.62-2.16.83.83,0,0,0-1.21-.49c-2,1.28-1.1,4,.07,5.52S7.82,12,9.81,11a1.22,1.22,0,0,0,.55-1.37Z" transform="translate(0 -0.05)"/>
      </g>
      <g class="cls-2">
        <path class="cls-4" d="M11.33,8c.46-1.31,1.32-2.39,1.79-3.68.41-1.13-1-2-1.91-1.48A4.74,4.74,0,0,0,9.23,8a1.1,1.1,0,0,0,2.1,0Z" transform="translate(0 -0.05)"/>
      </g>
      <g class="cls-2">
        <path class="cls-4" d="M10.36,8.66a10.37,10.37,0,0,1,2.05-2.38C13.07,5.64,13.9,5,13.81,4a.72.72,0,0,0-.7-.7c-1.14-.08-1.88,1-2.38,1.91A11.56,11.56,0,0,0,9.65,8.36c-.09.41.5.71.71.3Z" transform="translate(0 -0.05)"/>
      </g>
      <g class="cls-2">
        <path class="cls-4" d="M13.06,6a4.3,4.3,0,0,1,1.64-1.5c.26-.11.85,0,.47-.3-.1-.21-.14-.2-.11,0l0,.29a1.27,1.27,0,0,0,.36.57,1,1,0,0,0,1.11.14l.13,0a1.08,1.08,0,0,0,.54-1c.1-1.59-1.32-2.26-2.72-2a6,6,0,0,0-3.35,2.63c-.83,1.14,1.06,2.23,1.89,1.1Z" transform="translate(0 -0.05)"/>
      </g>
      <g class="cls-2">
        <path class="cls-4" d="M14.61,3.76c-2.4,1.21-3.53,4.59-4.36,7a1.42,1.42,0,0,0,2.36,1.37,11.48,11.48,0,0,0,1.77-4.21A8.64,8.64,0,0,0,15.1,4c0-.23-.32-.29-.49-.2Z" transform="translate(0 -0.05)"/>
      </g>
      <g class="cls-2">
        <path class="cls-4" d="M12.46,12.19c.3-1.7,1.73-3.3,2.61-4.77.67-1.11,2.18-2.51,1.64-3.94-1-2.66-4.19-.91-4.67,1.1-.1.4.36.83.74.57S14.4,3.68,14.7,4.09c.05.06-1.55,2.36-1.63,2.5a18,18,0,0,0-2.31,5.14c-.22,1.11,1.51,1.57,1.7.46Z" transform="translate(0 -0.05)"/>
      </g>
      <g class="cls-2">
        <path class="cls-4" d="M11.08,6.1a7.78,7.78,0,0,1,1.94-1,9.09,9.09,0,0,1,1.11-.38c.19-.06-.14,0,0,0s-.11,0-.18-.06a1.64,1.64,0,0,0,.61.17c.39,0,.44,0,.22,0,.56.07.91-.51,1-1,0,.37,0-.14,0-.22a1.2,1.2,0,0,0-.6-1c-1.27-.58-2.32.13-3.1,1.13A9.63,9.63,0,0,0,11,6c0,.09,0,.16.12.1Z" transform="translate(0 -0.05)"/>
      </g>
      <g class="cls-2">
        <path class="cls-4" d="M8.88,5.87A16.49,16.49,0,0,0,6.65,3.22,2.9,2.9,0,0,0,4,1.87c-2,.4-1.25,2.86-.33,3.91a.45.45,0,0,0,.75-.44C4.3,4.91,4.11,4.48,4,4c-.06-.19-.18-.54,0-.72.35-.49,1,.18,1.2.38.47.43.88.91,1.38,1.3A6.15,6.15,0,0,1,8,6.38a.5.5,0,0,0,.87-.51Z" transform="translate(0 -0.05)"/>
      </g>
    </g>
  </g>
</svg>
