<svg xmlns="http://www.w3.org/2000/svg" viewBox="0 0 41.01 40.61">
  <defs>
    <style>
      .cls-1 {
        fill: #e0e0e0;
      }

      .cls-2 {
        fill: #6b2b72;
      }

      .cls-3, .cls-5 {
        opacity: 0.09;
      }

      .cls-4, .cls-5 {
        fill: #46214c;
      }

      .cls-6 {
        fill: #fff;
      }

      .cls-7 {
        fill: #4d2353;
      }

      .cls-8 {
        opacity: 0.02;
      }

      .cls-9 {
        fill: #f7e8f7;
      }
    </style>
  </defs>
  <title>Ресурс 26regestration</title>
  <g id="Слой_2" data-name="Слой 2">
    <g id="Слой_73_копия_" data-name="Слой 73 (копия)">
      <circle class="cls-1" cx="20.24" cy="20.22" r="18.48"/>
      <g id="Слой_76_копия_" data-name="Слой 76 (копия)">
        <path class="cls-2" d="M35,25.05c-.63-1.75-2-3.16-2.82-4.79-1.58-3-2.38-8.06-6-9.28s-8.67-1.78-12.1.56a9.44,9.44,0,0,0-3.2,4.22,15.9,15.9,0,0,0-1,2.71.24.24,0,0,0-.22.18A11.6,11.6,0,0,1,8.37,22a17,17,0,0,0-1.55,2.41,10.58,10.58,0,0,0-.54,6.22c.9,3.91,5.69,6.53,9.25,7.52a32.77,32.77,0,0,0,6.61,1.06,8.41,8.41,0,0,0,5.75-1.87c2.87-2.14,5.32-4.61,6.57-7.89A5.48,5.48,0,0,0,35,25.05Z"/>
      </g>
      <g id="Слой_77_копия_" data-name="Слой 77 (копия)">
        <g class="cls-3">
          <path class="cls-4" d="M11.56,28.73c-1.19,1.59.17,2.51,1.32,3.58a8.61,8.61,0,0,1,1.74,2.32,5.59,5.59,0,0,0,1.72,2.44,1.48,1.48,0,0,0,2.16-.87c.47-1.82-1-3.49-2.31-4.58a10.75,10.75,0,0,0-2-1.31c-.65-.32-2.4-.68-2.48-1.55,0-.07-.08-.09-.13,0Z"/>
        </g>
        <g class="cls-3">
          <path class="cls-4" d="M11.21,29.33a18.63,18.63,0,0,0,3.19,3.21,12.42,12.42,0,0,1,1.27,1.71,2.24,2.24,0,0,0,.62.57l.31.12c-.26-.6-.37-.54-.34.19a1.85,1.85,0,0,0,3.36,1.42l-.1.12L16.83,34.6v.08c-.7,1.6.46,3.66,2.39,3.11l.27-.08-1.61-.21-.31-.35c1.17,1.83,4.48.7,3.68-1.55a2.55,2.55,0,0,0-2.59-2l2,1.55a4.18,4.18,0,0,0-.79-1.39,1.83,1.83,0,0,0-2.22-.29,3.72,3.72,0,0,0-1.22,1.18l3.43.93a2.75,2.75,0,0,0-1.19-2.77,10.86,10.86,0,0,0-1.37-.44c.23.26.21.2-.05-.18-.11-.16-.23-.31-.35-.47a11.57,11.57,0,0,0-5.18-3.13.48.48,0,0,0-.53.7Z"/>
        </g>
        <g class="cls-3">
          <path class="cls-4" d="M19.44,34.32a2.08,2.08,0,0,0-1.71.82c-1.58,1.65,1.07,4.19,2.47,2.47.72-.87,1.21-1.57.79-2.75a5.46,5.46,0,0,0-1.2-2A6.27,6.27,0,0,0,15.37,31a1.81,1.81,0,0,0-1.79,1.79,1.84,1.84,0,0,0,1.79,1.79c.54.06,1.31-.09,1.72.3a1.64,1.64,0,0,1,.31.7,7.23,7.23,0,0,0,.41,1.27l.28-2.17a2.85,2.85,0,0,0-.63.84l3.26.89a2.81,2.81,0,0,0,0-1.12,1.35,1.35,0,0,0-1.24-.94Z"/>
        </g>
        <g class="cls-3">
          <path class="cls-4" d="M13.08,29a.61.61,0,0,0,0-.14q0-.24-.06.21l-2,.27.07.07-.33-.58v-.15c0,.08,0,.16,0,.23a1.42,1.42,0,0,0,1.73,1.44c.84-.12,1.25-1.25,1.32-1.95a1.21,1.21,0,0,0-.62-1.08,1.29,1.29,0,0,0-1.26,0c-.49.21-.65.62-.91,1l.81-.62h-.06l1.52.62,0-.06.18.68a1.89,1.89,0,0,0-.54-1.49,1.32,1.32,0,0,0-2.05.26,1.69,1.69,0,0,0,.48,2.29A1.23,1.23,0,0,0,13.08,29Z"/>
        </g>
        <g class="cls-3">
          <path class="cls-4" d="M13.12,28.38c-.55-.53-1.09.26-1.34.71-.4.71-.9,2.13-.16,2.75a.78.78,0,0,0,1.08,0c.49-.4.39-1.14.41-1.72,0-.15,0-1.47-.06-1.47a.16.16,0,0,0,.07-.27Z"/>
        </g>
        <g class="cls-3">
          <path class="cls-4" d="M12.21,28c-.05.11-.22.19-.31.29a2.22,2.22,0,0,0-.4.76,2,2,0,0,0,.29,1.74,1.07,1.07,0,0,0,2-.53,3,3,0,0,0-.3-1.4c-.12-.23-.48-.56-.51-.76a.42.42,0,0,0-.75-.1Z"/>
        </g>
        <g class="cls-3">
          <path class="cls-4" d="M13.15,30.21a13.62,13.62,0,0,0,.94,2.57,12.43,12.43,0,0,0,.64,1.12,2.62,2.62,0,0,0,1.06.76.39.39,0,0,0,.57-.43,3.75,3.75,0,0,0-.31-1.1c-.22-.37-.51-.7-.74-1.06-.47-.73-1-1.41-1.42-2.17a.41.41,0,0,0-.74.31Z"/>
        </g>
        <g class="cls-3">
          <path class="cls-4" d="M14.28,31.05a4.33,4.33,0,0,1,.65.75c.37.41.74.79,1.13,1.17a4.13,4.13,0,0,0,2.42,1.58.83.83,0,0,0,.83-.83c-.06-1.54-2-2.92-3.32-3.48a1.29,1.29,0,0,0-1.58.11c-.13.14-.36.55-.13.7Z"/>
        </g>
        <g class="cls-3">
          <path class="cls-4" d="M14.76,31.61a19.55,19.55,0,0,1,2.58,1.94c.75.69,1.23,1.71,2.19,2.09l-.62-.48v-.25a1.14,1.14,0,0,0,.17,1.33l.11.12a.87.87,0,0,0,1.06.13l.16-.08a1.11,1.11,0,0,0,.4-1.5c.12.24.15-.44.16-.54a2.18,2.18,0,0,0-.2-.94,4.82,4.82,0,0,0-1.4-1.76,8.42,8.42,0,0,0-4.06-1.38.73.73,0,0,0-.56,1.32Z"/>
        </g>
        <g class="cls-3">
          <path class="cls-4" d="M19.24,36.35l.26.22-.4-1v.26c.11-.2.09-.2-.05,0a1.68,1.68,0,1,0,2.81.74,2.48,2.48,0,0,0-.24-.64l-.77,1.34H21l-.47-1.76c-.15.07-.18.08-.1.05l-.31.13c-.12.07-.25.18-.37.26a2.43,2.43,0,0,0-1.08,2c-.13,1.92,2.64,2.54,3.54,1a2.26,2.26,0,0,0,.18-2,4.09,4.09,0,0,0-.29-.68,2,2,0,0,0-.28-.36,1,1,0,0,0-1.49-.19l-.12.1,1.08-.14a2.05,2.05,0,0,0-1.51-.22l2.13,1.63a14.17,14.17,0,0,0-.12-1.45l-.18.68.17-.28a1.62,1.62,0,1,0-2.55.33Z"/>
        </g>
        <path class="cls-5" d="M30.34,28.34a.64.64,0,0,0-.18-.25l0,0-.05,0a1.71,1.71,0,0,0-2.51-1.65,7.2,7.2,0,0,0-2.44,2.18A1.58,1.58,0,0,0,25,29.88l-.15.08a1.08,1.08,0,0,0-.54.68,6,6,0,0,1-.52.36A1.84,1.84,0,0,0,22.64,31a5.7,5.7,0,0,0-1.21.46,3.7,3.7,0,0,0-2.78,1.65,1.41,1.41,0,0,0-.4.27l0,0a1.44,1.44,0,0,0-.37,1.41,2.83,2.83,0,0,0,3,1.79,1.36,1.36,0,0,0,1.41,1c.76,0,1.12.45,1.91,0a1.44,1.44,0,0,0,.76-1,1.71,1.71,0,0,0,0-.81,2.73,2.73,0,0,0,.79-1.26,4.74,4.74,0,0,0,1-.78,1.92,1.92,0,0,0,.35-.23,5.05,5.05,0,0,0,1.08-1.4,1.65,1.65,0,0,0,.2-.68l.22-.27a1.43,1.43,0,0,0,.87-.44l.68-.69A1.44,1.44,0,0,0,30.34,28.34Z"/>
        <g class="cls-3">
          <path class="cls-4" d="M27.63,30.2l-.16.06.33.09-.18-.16-.52,2A3.44,3.44,0,0,0,28.5,31l-.46.27.19-.05a1.26,1.26,0,0,0,0-2.41A4.4,4.4,0,0,0,27,28.7a1.72,1.72,0,1,0,.86,3.2,5.11,5.11,0,0,0,.75-.54c.09-.09.21-.3.33-.36a1.78,1.78,0,0,0,.85-1.78,1.85,1.85,0,0,0-1.28-1.49l-.14-.05.81,3.08c.6-.63,1.35-1.31,1.34-2.24a1.77,1.77,0,0,0-2.21-1.69c-.42.17-.82.37-1.23.53.26-.1-.22.05-.25.06l-.76.32a1.82,1.82,0,0,0-.65,2.49,1.84,1.84,0,0,0,2.49.65c.25-.16.48-.34.74-.48-.16.08,0,0,.08,0l.51-.17L27,28.52v.07l.51-1.24a8,8,0,0,1-1,.8,1.84,1.84,0,0,0,1.79,3.08l.14-.05-1.74-.46.14.15.31-2.36c.21-.09-.23.07-.23.07s-.3.13-.45.18l1.94,2.52c.05-.08.27-.32.06-.17l-1.83-.74.06.18.48-1.18a3.12,3.12,0,0,0-1.47,1.05,1.2,1.2,0,0,0,.71,1.74c.67.18,1.59-.37,1.49-1.14l-.05-.43-.11.25.14-.11c.24-.2,0-.62-.31-.53Z"/>
        </g>
        <g class="cls-3">
          <path class="cls-4" d="M27.09,29.79a6.42,6.42,0,0,1-.83.23l.5.2L26.47,30c-1.54-1.14-2.87,2.26-.62,2.3a3.68,3.68,0,0,0,1.27-.25l-1.27-2.18a3,3,0,0,1-1.15.69l1.55,2a1.68,1.68,0,0,1,.5-.56c1.19-.65.14-2.39-1.06-1.8a10.55,10.55,0,0,1-1.86.88l1,2.24c.26-.17.5-.36.75-.54a1.27,1.27,0,0,0-1-2.31,3.15,3.15,0,0,0-2,1.66c-.54.8.35,1.57,1.12,1.46A3,3,0,0,0,26,32.34l-2-1.53c-.24.2-.48.4-.71.61-1.17,1.06.64,2.88,1.74,1.73A7.11,7.11,0,0,1,26.75,32l-1.06-1.8c-.3.16-.67.21-1,.34A1.37,1.37,0,1,0,26,32.85a13.07,13.07,0,0,1,1.4-.93,1.31,1.31,0,0,0-1-2.39,3.72,3.72,0,0,0-1.21.47l1.69.44a.59.59,0,0,1,0-.08v.71a2.23,2.23,0,0,1,.54-.71.34.34,0,0,0-.32-.57Z"/>
        </g>
        <g class="cls-3">
          <path class="cls-4" d="M23.16,32.07c-.63.3-1.27.58-1.89.89-1.18.6-.1,2.48,1,1.78.36-.21.71-.44,1.08-.63a7.86,7.86,0,0,1,1.19-.38l-1-1.35a5.05,5.05,0,0,1-2.2,1.48,1,1,0,0,0,.76,1.8,8.86,8.86,0,0,0,1.28-.53l-1.08-1.84a12.08,12.08,0,0,0-1.41.86,1.15,1.15,0,0,0-.46,1.42,1.13,1.13,0,0,0,1.34.66,16.44,16.44,0,0,1,1.63-.55l-1.48-1.47c0,.2,0,.17.08-.07l-.2.21a3,3,0,0,0-.44.6,1.29,1.29,0,0,0,1.11,1.92c-.07-.07-.13-.09-.2-.06a1.33,1.33,0,1,0,1.88-1.88,2.23,2.23,0,0,0-1.68-.62l1.23,1.62c-.05.15.09-.09.12-.12a3,3,0,0,0,.2-.29,1.94,1.94,0,0,0,.26-1,1.2,1.2,0,0,0-1.52-1.15c-.63.23-1.26.49-1.87.78l1.38,1.79a8.75,8.75,0,0,1,1.11-.81c1.14-.74.11-2.56-1.08-1.84l-1,.57,1.2,1.55c.38-.32.76-.64,1.13-1s.74-.53,1.12-.8a.93.93,0,0,0,.38-1.15A.91.91,0,0,0,24.09,32c-.42.17-.83.4-1.26.54s-.88.24-1.31.37l.79,1.88c.61-.32,1.21-.68,1.8-1,1.08-.62.14-2.14-.95-1.64Z"/>
        </g>
        <g class="cls-3">
          <path class="cls-4" d="M22.36,36.52a16.16,16.16,0,0,0,3.11-1.09c1.58-.78.19-3.18-1.38-2.37-.53.28-1.05.55-1.59.79l1.56,2a15.3,15.3,0,0,1,2.39-1.93,1.33,1.33,0,0,0-1.34-2.29c-.67.32-1.33.67-2,1l1.52,2a11.73,11.73,0,0,1,2.69-1.58c1.27-.55.61-2.67-.7-2.59a6.57,6.57,0,0,0-1.33.2l1.11,2.65a15.44,15.44,0,0,0,2.11-1.75c1.08-1-.08-2.47-1.32-2.28a2.61,2.61,0,0,1-.79.06l1.26,1,0-.2-.13,1a4.18,4.18,0,0,1,1.18-1.26.87.87,0,0,0-.61-1.48,11.83,11.83,0,0,1-1.33,0l.62,1.48a1.52,1.52,0,0,1,.85-.66c.82-.37.23-1.59-.59-1.4a2.71,2.71,0,0,0-1.49.83.88.88,0,0,0,.61,1.49c.45,0,.88-.06,1.33-.06l-.44-1.61c-1,.6-2.59.67-2.52,2.17a1.34,1.34,0,0,0,1,1.26,5.71,5.71,0,0,0,1.49.05l-.69-2.53c-.63.48-1.29.9-1.92,1.39-1.18.9-.59,3.21,1.12,2.64a6,6,0,0,1,.92-.26l-1.06-2.54c-.92.7-1.88,1.34-2.81,2a1.26,1.26,0,0,0,1.27,2.17l2.06-.89-1.61-2.08c-.88.72-1.77,1.41-2.6,2.19-1.15,1.09.31,2.55,1.56,2,.44-.17.89-.34,1.35-.5l-1.55-2C23,34.34,22.51,35.19,22,36c-.19.27.12.61.41.53Z"/>
        </g>
        <g class="cls-3">
          <path class="cls-4" d="M28.15,28.36s0,0,0,0a0,0,0,1,0,0,0Z"/>
        </g>
        <g class="cls-3">
          <path class="cls-4" d="M27.33,28.32l-.62.05c-.87-.1-.74,1.6.31,1.13l.91-.35-.57-1c-.54.42-1.09.85-1.64,1.26-.39.28-.33,1.09.28,1l1.41-.14-.55-1a6.67,6.67,0,0,1-2.45,1.83.61.61,0,0,0,.31,1.13,2.74,2.74,0,0,1,.64,0l-.64-1.1a2.73,2.73,0,0,1-1.5,1.09l.35,1.29.8-.28-1-1.25a2.14,2.14,0,0,1-1.6,1.16l.31,1.12c.35-.2.71-.39,1.05-.63a.73.73,0,1,0-.89-1.14,4.24,4.24,0,0,1-1.26.83c-.79.33-.3,1.42.4,1.47a10.14,10.14,0,0,0,1.35,0l-1-1.3a1.91,1.91,0,0,1-1,.92c-1.12.61-.33,2.25.85,2l1.22-.28-1.42-1.43-.29.27c-.87.61-.65,2.21.58,2.15l1.51-.07a1.28,1.28,0,1,0-.34-2.52l-1.47.32,1.12,1.93c.31-.31.53-.62.82-1,.73-.82,0-2.31-1.12-1.94-.41.13-.8.27-1.19.41L22.28,36a4.6,4.6,0,0,1,1-1.26c.71-.55.62-2-.52-1.92a3,3,0,0,0-1.91.74l1.24,1,.89-.69-.56-1.33a3.45,3.45,0,0,0-1,.94c-.47.59.28,1.41.85.85a3.76,3.76,0,0,1,2.13-.94c1.22-.25.38-2.38-.83-1.42a2.63,2.63,0,0,0-.62.58c-.49.53.18,1.54.81,1.06a8.89,8.89,0,0,1,1.82-1.24A.73.73,0,1,0,25,31l-.43.15L25,32.24A9.94,9.94,0,0,0,28,30c.32-.48-.22-1.06-.73-.94s-.92.22-1.39.32l.42,1c.59-.45,1.19-.87,1.8-1.3s.22-1.26-.45-1.06a6.41,6.41,0,0,0-1.07.36l.69.9.37-.31a.36.36,0,0,0-.28-.66Z"/>
        </g>
        <g class="cls-3">
          <path class="cls-4" d="M28.1,28.23h0v1.18l.26-.25a.87.87,0,0,0-.84-1.45l-1,.28.73,1.74a2.19,2.19,0,0,1,.43-.15c.08,0,.52,0,.24-.1L27.31,29l0-.14a1.06,1.06,0,0,0,1,1,1.05,1.05,0,0,0,1-1,1.52,1.52,0,0,0-.09-.67,1.1,1.1,0,0,0-1-.78,3.58,3.58,0,0,0-1.9.69,1,1,0,0,0,.95,1.64l.91-.44L27,28.11l-.21.28,1.14-.29c-1-.69-2.07.75-1.25,1.57a1,1,0,0,0,1.43-1.44Z"/>
        </g>
        <g class="cls-3">
          <path class="cls-4" d="M22.17,31.9c-1.48.31-3.53,1-5,.57l.68.53-.08-.15-.18,1.37c.75-.73,3.19-.43,4.16-.48A6.68,6.68,0,0,0,25,33.12L23.9,31.28c-1.54.83-3.13,1.51-4.68,2.3a.72.72,0,0,0,.36,1.33c1,0,2.54-.78,3.42-.55l-.59-.58c-.05-.34-1.13.53-1.39.69a1.07,1.07,0,0,0,.54,2c.67,0,.85-.56,1.18-1s1.41-1.06,1.31-1.9a.88.88,0,0,0-.61-.81c-1.27-.27-2.61.6-3.86.73l.36,1.33a14.36,14.36,0,0,1,4.77-1.59c1.15-.23.86-1.69,0-2-1.36-.57-3.3,0-4.71.21s-3,.36-4.05,1.23A1.18,1.18,0,0,0,15.77,34c.45.93,1.75.87,2.63.87a26.7,26.7,0,0,0,4.45-.49c1.61-.27.95-2.83-.68-2.48Z"/>
        </g>
      </g>
      <g id="Слой_75_копия_" data-name="Слой 75 (копия)">
        <path class="cls-2" d="M21.05,35.86a1.69,1.69,0,0,0-.39-.53,1.69,1.69,0,0,0-.59-1.94c-.37-.26-.81-.4-1.2-.64a4.68,4.68,0,0,1-.62-.48c-.21-.25-.44-.2-.72-.41a13.72,13.72,0,0,0-3.2-1.77c-1.32-.51-2.51-1.2-3.78-1.77a2.82,2.82,0,0,0-3.42.83,1.46,1.46,0,0,0-.25.42l0,.09a.34.34,0,0,0,0,.14A3.8,3.8,0,0,0,7,31.73c.64,1.86,2.27,2.9,4,3.64a23.58,23.58,0,0,1,4,1.68c1.05.69,1,2.08,1.95,2.76a1,1,0,0,0,1.25,0,1.14,1.14,0,0,0,.39-1.11,2,2,0,0,0,.88.21.33.33,0,0,0,.32-.24,2.83,2.83,0,0,0,.06-1.28C20.71,37.52,21.59,37,21.05,35.86Z"/>
        <path class="cls-2" d="M34.32,29.24c-.17-2.35-2.15-2.55-4-2a.58.58,0,0,0-.37.12c-1.07,1.56-1.35,1.27-3.38,3.3a12.52,12.52,0,0,0-1.19.85,7.29,7.29,0,0,0-1.21,1c-1,1-1.87,3.1-1,4.31a1.58,1.58,0,0,0,.79,1,2.45,2.45,0,0,0,.41.73,1,1,0,0,0,1,.27c.89-.13,1.62-1.23,2.29-1.77,1-.83,2.09-1.56,3.1-2.39C32.29,33.42,34.49,31.42,34.32,29.24Z"/>
      </g>
      <g id="Слой_79_копия_" data-name="Слой 79 (копия)">
        <path class="cls-6" d="M19.56,16.17c.77-2.15-2.85-2.62-4.19-2.26-1.82.5-3.34,2.12-2.52,4a3.54,3.54,0,0,0,4.77,2.1c1.21-.58,2.42-2.42,1.85-3.71A1.4,1.4,0,0,0,19.56,16.17Z"/>
        <path class="cls-6" d="M27.79,15c-.59-1.19-3.1-1.19-4.11-.61a3.43,3.43,0,0,0-1.34,4.5c.87,1.9,3.45,1.81,5,.78S29.55,16.05,27.79,15Z"/>
        <path class="cls-2" d="M15.46,21.92a.42.42,0,0,0,.2-.27.13.13,0,0,0-.08-.15c-.18-.05-.32.19-.33.34a.13.13,0,0,0,.1.13c.21.05.29-.2.37-.35a.16.16,0,0,0-.1-.23.31.31,0,0,0-.34.33.18.18,0,0,0,.13.16c.18.07.3-.12.36-.26a.18.18,0,0,0-.11-.26l-.1,0c-.19-.06-.32.24-.13.32l.09.05-.08-.21.06.07.12.17v0l-.17-.07,0,.26a0,0,0,0,0,.05,0Z"/>
        <path class="cls-6" d="M13.45,22c.11-.18.24-.21.4-.1s.22.05.2.18l.15,0c-.13-.06-.15-.27-.3-.33a.51.51,0,0,0-.46.12.08.08,0,0,0,0,.11,1,1,0,0,0,.54.28.11.11,0,0,0,.13-.07c0-.16-.12-.27-.26-.33s-.44,0-.47,0,0-.21,0-.25a.38.38,0,0,0-.29-.33.7.7,0,0,0-.47.05,1.3,1.3,0,0,0-.17.19.07.07,0,0,0,0,.14,2.45,2.45,0,0,0,.81.32.08.08,0,0,0,.07,0c.22-.41-.59-.78-.74-.41,0,0,0,.05,0,.07s.13.05.24.09.24.2.38.2a.06.06,0,0,0,.07,0c0-.17-.13-.25-.27-.27s-.11.1,0,.11c.42.09-.19-.14-.24-.15l.27.05q0,.21-.15.09a1.69,1.69,0,0,1-.35-.14l0,.14c.16,0,.28-.19.43-.21.41-.07.2.31.3.47s.7.19.69.23L14,22l-.2-.08c-.23-.09-.19,0,.15.13.06.06,0,.11.11.16a.1.1,0,0,0,.15,0c.1-.16,0-.49-.19-.59s-.6.06-.73.29a.09.09,0,0,0,.13.11Z"/>
        <path class="cls-6" d="M13,21.5a.25.25,0,0,0-.28-.1c-.05,0,0,.06,0,.08a.3.3,0,0,0,.27.08s0,0,0-.06Z"/>
        <path class="cls-6" d="M22.6,22.83c0-.25.15-.34.41-.33s.2.06,0,.11l-.16,0c-.1,0-.1,0,0,0s.11-.09,0-.06a.41.41,0,0,0-.18.05c-.12.05-.07.24,0,.2s.35,0,.44-.17a.09.09,0,0,0,0-.12c-.19-.22-.65,0-.64.28a.08.08,0,0,0,.06.08,1.65,1.65,0,0,0,.72-.14.09.09,0,0,0,.06-.11.59.59,0,0,0-.54-.34c-.29,0-.38.31-.36.56s.16.11.16,0Z"/>
      </g>
      <g id="Слой_80_копия_" data-name="Слой 80 (копия)">
        <g>
          <path class="cls-2" d="M19.23,19.49a1,1,0,0,1-.41-.2.65.65,0,0,0-.59,0,.49.49,0,0,0-.25.52.64.64,0,0,0,.33.34.47.47,0,0,0,.15.06.67.67,0,0,0,.24,0A18.24,18.24,0,0,1,21,19.57a3.28,3.28,0,0,1,2,.09.27.27,0,0,1,.17.16.2.2,0,0,1-.08.21.63.63,0,0,1-.24.09,5.13,5.13,0,0,1-2-.2,7.59,7.59,0,0,1-1.06-.31.91.91,0,0,0-.71-.12"/>
          <path class="cls-2" d="M19.46,19.26c-1.3-1.63-2.73,1.09-1.07,1.37a5.16,5.16,0,0,0,1.77-.39c.41-.09.82-.18,1.23-.23A3.24,3.24,0,0,1,22,20q.87-.42.33-.36c-.18-.14-.9-.1-1.18-.16a9,9,0,0,1-1.05-.28c-.53-.17-.76-.28-1.26-.06s-.17.82.23.86c1.22.11,2.3.87,3.59.73.57-.06,1.33-.45,1-1.15s-1.79-.61-2.44-.51a7.39,7.39,0,0,0-2.24.52c-.25.14-.56.2-.05.29a1,1,0,0,0,.42-.05.32.32,0,0,0,.14-.53Z"/>
        </g>
      </g>
      <g id="Слой_82_копия_" data-name="Слой 82 (копия)">
        <path d="M24.9,16.68a.5.5,0,0,0-.35.53c0,.3.26.39.52.48.53.19,1.6,0,1.3-.83-.21-.55-1.25-.56-1.62-.19-.56.56.29,1.09.82.7.21-.17.18-.6-.16-.58l-.28,0,.16.21,0-.1,0,.27c.1-.19.9.08.16-.16a1.23,1.23,0,0,1-.29-.07c-.1-.09,0,0,0-.18a.15.15,0,0,0-.19-.11Z"/>
        <path d="M14.88,16.26c-.31.41.08,1,.46,1.17a1.49,1.49,0,0,0,1.58-.17A1,1,0,0,0,17,16a1.71,1.71,0,0,0-1.54-.34.77.77,0,0,0-.59,1,1,1,0,0,0,1.37.42c.42-.18.6-.74.1-1-.35-.17-1,0-.93.47a.38.38,0,0,0,.27.34l.06,0c.44.16.63-.54.19-.69l-.06,0,.27.35v-.08l-.11.26s0,.05.06.06L16,16.54l0,.12,0-.28a.27.27,0,0,1-.33-.07,1.08,1.08,0,0,1,.31,0c.29,0,.85.27.24.52s-.82-.26-1.14-.58a.14.14,0,0,0-.22,0Z"/>
      </g>
      <g id="Слой_81_копия_" data-name="Слой 81 (копия)">
        <path class="cls-2" d="M19.32,13.41c-1.41-1.3-3.58-1-5.14-.15a4,4,0,0,0-1.68,1.79c-.21.46-.52,1.18-.09,1.57a.06.06,0,0,0,.06.08h.15c1.27.1,2.55.14,3.83.19l1.7.05a5.57,5.57,0,0,0,1.58-.05C21.52,16.4,20.13,14.15,19.32,13.41Z"/>
        <path class="cls-2" d="M28.28,13.61A5.52,5.52,0,0,0,23,13a2.92,2.92,0,0,0-1.52,1.89,2.75,2.75,0,0,0-.15,1.75l-.2,0c-.1,0-.1.16,0,.16h.32l.09.08a.19.19,0,0,0,.18,0l0,0,0-.05c1.11,0,2.22,0,3.32,0,.67,0,1.34.05,2,.09a6.75,6.75,0,0,0,1.68,0C30.76,16.57,29.16,14.26,28.28,13.61Z"/>
      </g>
      <g id="Слой_83_копия_" data-name="Слой 83 (копия)">
        <path class="cls-7" d="M22.69,9.74A8.41,8.41,0,0,0,22,7.44a9.8,9.8,0,0,0-.6-1.1c-.09-.15-.22-.47-.39-.55-.36-.17-.49.16-.63.45-.7,1.43-1.6,3.08-.95,4.66a.16.16,0,0,0,.07.07,10.13,10.13,0,0,0-.09,1.33.07.07,0,0,0,0,0,.12.12,0,0,0,.09.13,3.73,3.73,0,0,0,1,.3,6.53,6.53,0,0,0,1-.12c.72-.09,1,0,.87-.72,0-.27-.09-.53-.14-.79a1.46,1.46,0,0,0,.25-.13C22.91,10.75,22.75,10.15,22.69,9.74Z"/>
      </g>
      <g id="Слой_92" data-name="Слой 92">
        <path class="cls-2" d="M12.45,13.67c-.25-.19-.62,0-.89.09a10.29,10.29,0,0,1-1.23.14c-.26,0-.46,0-.6.27a4.69,4.69,0,0,0-.26,1.3.44.44,0,0,0,.42.55,2.75,2.75,0,0,1,.76,0c.15.05.24.18.38.27a.56.56,0,0,0,.81-.63c-.1-.47.46-.8.1-1.27s-.86-.31-1.26-.18l.46,1.09.33-.17-.61-1-.55.37c-.53.35-.21,1.35.46,1.1a6.08,6.08,0,0,0,1.11-.56c.64-.42,0-1.47-.61-1a5,5,0,0,1-.82.44l.46,1.09.56-.37a.6.6,0,0,0-.61-1l-.32.17c-.58.31-.18,1.32.46,1.09.23-.09.31,0,.07-.21l-.17-.41c.07-.19.07-.23,0-.12a.72.72,0,0,0-.09.2,1.3,1.3,0,0,0-.11.35,1.52,1.52,0,0,0,.07.79l.53-.7c.24,0,0-.05-.09-.1a1,1,0,0,0-.38-.1c-.31,0-.64.05-.95.05l.42.55a4.77,4.77,0,0,1,.19-1.14l-.26.19A4.56,4.56,0,0,0,12,14.31c.11-.06.76-.43.48-.64Z"/>
        <path class="cls-2" d="M27.88,13.64c.41.79,1.62.59,2.33.84l-.39-.29a2.42,2.42,0,0,1,.25.68l.33-.56c-.21.14-.46.23-.67.38a3.2,3.2,0,0,0-.63.59l1.12.3a1.58,1.58,0,0,1,.14-.71,1.32,1.32,0,0,0,0-.81,1.3,1.3,0,0,0-1.11-.76.76.76,0,0,0-.82.33.68.68,0,0,0,0,.66c.08.16.48.58.71.44.1,0,.09,0,0-.12s-.08-.19-.09,0a1.23,1.23,0,0,0-.1.42,1.83,1.83,0,0,0,0,.93c.12.44.8.72,1.12.3a2.47,2.47,0,0,1,.54-.53,3.29,3.29,0,0,0,.6-.36c.41-.44,0-1.12-.15-1.58s-.69-.57-1.22-.63a4.16,4.16,0,0,0-1.72,0,.37.37,0,0,0-.22.53Z"/>
      </g>
      <g id="Слой_88" data-name="Слой 88">
        <g class="cls-3">
          <path class="cls-4" d="M9.24,20.59c-1.35,2-1.76,4.88-2.2,7.25-.37,2-.74,4.44,1,5.87.33.27,1,0,.79-.46a14.78,14.78,0,0,0-1-2.07c-1.35-2.51-.31-3.7,1-5.84a7.59,7.59,0,0,0,1.29-4.51.48.48,0,0,0-.88-.24Z"/>
        </g>
        <g class="cls-3">
          <path class="cls-4" d="M8.2,22.57c-.33,1.9-1.4,3.68-1.55,5.59A7.51,7.51,0,0,0,8,32.67a.11.11,0,0,0,.2-.09c-.63-2.08-1.46-3.66-.86-5.92.36-1.38,1-2.63.89-4.09,0,0,0,0,0,0Z"/>
        </g>
        <g class="cls-3">
          <path class="cls-4" d="M7.07,26C6.64,29,6.26,32.66,8.72,35c.33.31.9-.09.64-.49a9.36,9.36,0,0,1-1.83-4.32,25.36,25.36,0,0,1,0-4.18c0-.25-.41-.31-.44-.06Z"/>
        </g>
        <g class="cls-3">
          <path class="cls-4" d="M30.78,18.79c.66,2.24,2.59,3.92,3,6.28s-.67,5.28-1.34,7.42a.46.46,0,0,0,.76.44c1.55-1.59,2.13-5,1.93-7.14-.28-2.92-3.11-4.58-4.23-7a.07.07,0,0,0-.13.05Z"/>
        </g>
        <g class="cls-3">
          <path class="cls-4" d="M32.75,23.46c.68,3.72.64,7.42-2,10.42-.29.32.21.81.48.47,2.72-3.36,4.55-7.07,2.21-11.17-.21-.38-.73-.11-.66.28Z"/>
        </g>
        <g class="cls-3">
          <path class="cls-4" d="M30.77,34c3.48-2.57,5.35-7.64,1.57-10.82-.25-.2-.75,0-.61.35.76,2,2,3.24,1.29,5.61a20.61,20.61,0,0,1-2.37,4.74c0,.07.05.17.12.12Z"/>
        </g>
        <g class="cls-3">
          <path class="cls-4" d="M10.53,15.89l.14-.08a.2.2,0,0,0-.05-.37l-.16-.06c-.45-.18-.45.78.07.51Z"/>
        </g>
        <g class="cls-3">
          <path class="cls-4" d="M10,15.78a.65.65,0,0,0,.76,0,.23.23,0,0,0-.17-.42c-.27.06-.47.05-.63.28a.11.11,0,0,0,0,.13Z"/>
        </g>
        <g class="cls-3">
          <path class="cls-4" d="M10.54,15.53l.05-.08c.06,0,0-.13-.07-.1l-.09,0a.09.09,0,0,0,0,.07v.1s0,.06.07.06l.08,0s0-.06,0-.07Z"/>
        </g>
        <g class="cls-3">
          <path class="cls-4" d="M10.68,15.36s0,0,0,0a0,0,0,0,0,0,0Z"/>
        </g>
        <g class="cls-3">
          <path class="cls-4" d="M10.43,15.5a1.19,1.19,0,0,0-.25.13s0,.08,0,.09a1,1,0,0,0,.25,0c.18,0,.12-.3,0-.24Z"/>
        </g>
        <g class="cls-3">
          <path class="cls-4" d="M30.58,15a1,1,0,0,0-.54.08l.28.67.43-.23a.37.37,0,0,0-.19-.69l-.35.06c-.53.12-.24,1,.3.72l.15-.05-.29-.68a4.16,4.16,0,0,1-.42.23c-.41.23,0,.89.37.64a2.81,2.81,0,0,0,.44-.33c.17-.16,0-.39-.18-.42Z"/>
        </g>
        <g class="cls-3">
          <path class="cls-4" d="M30.59,15.26a.79.79,0,0,0-.67.08.14.14,0,0,0,.1.25,1.29,1.29,0,0,0,.58-.3s0,0,0,0Z"/>
        </g>
        <g class="cls-3">
          <path class="cls-4" d="M30.52,14.87c-.37.08-.67.14-.79.52a.23.23,0,0,0,.16.28c.34.08.47-.08.79-.2a.31.31,0,0,0-.16-.6Z"/>
        </g>
        <g class="cls-3">
          <path class="cls-4" d="M30.53,15.06a.66.66,0,0,0-.71.45c-.11.26-.11.58.18.71a.18.18,0,0,0,.22,0c.25-.22.26-.66.41-1a.12.12,0,0,0-.1-.18Z"/>
        </g>
        <g class="cls-3">
          <path class="cls-4" d="M30.27,15.13c-.26.1-.37.2-.38.47a.21.21,0,0,0,.35.15.81.81,0,0,0,.22-.42.16.16,0,0,0-.19-.2Z"/>
        </g>
        <g class="cls-3">
          <path class="cls-4" d="M30.58,14a.64.64,0,0,0,.11.84c.13.11.42,0,.39-.16a4.15,4.15,0,0,0-.16-.63c-.05-.14-.27-.2-.34-.05Z"/>
        </g>
        <g class="cls-3">
          <path class="cls-4" d="M30.49,14.16a1.34,1.34,0,0,0,.31.92.19.19,0,0,0,.31-.13,2.52,2.52,0,0,0-.28-.88c-.07-.17-.35-.08-.34.09Z"/>
        </g>
        <g class="cls-3">
          <path class="cls-4" d="M9.81,14.62a.5.5,0,0,0-.05.49.13.13,0,0,0,.25,0,.53.53,0,0,0,0-.49.08.08,0,0,0-.15,0Z"/>
        </g>
      </g>
      <g id="Слой_90" data-name="Слой 90">
        <g class="cls-8">
          <path class="cls-9" d="M17.4,16.51c-.2-.71-1.25-.43-1.76-.66l-.23.87a12.71,12.71,0,0,0,1.74-.06V15.61c-.74.06-1.46.14-2.19.23l.14,1.08,2-.57a.52.52,0,0,0-.14-1c-.46-.05-.9.15-1.35.09l.23.87a4.6,4.6,0,0,1,1-.58c.28-.13.21-.52,0-.67-.38-.25-1.06,0-1.47.05l.22.79a10.2,10.2,0,0,1,.93-.48.46.46,0,0,0,0-.88,1.84,1.84,0,0,0-1,0l.36.86a5,5,0,0,1,.8-.49c.39-.21.17-.75-.21-.78a1.38,1.38,0,0,0-.94.28.26.26,0,0,0,.2.48,1.93,1.93,0,0,1,.63.06V14.1a8.25,8.25,0,0,0-.95.45.47.47,0,0,0,.24.87,3.88,3.88,0,0,1,.59,0l-.11-.83a6.3,6.3,0,0,0-1,.58.43.43,0,0,0,.33.78,5.07,5.07,0,0,1,1.08-.23l-.26-.11.06.06.17-.65a5.54,5.54,0,0,0-1.31.47.52.52,0,0,0,.13,1c.56.14,1.06-.11,1.62-.05l-.14-1-2.06.51c-.58.15-.48,1.15.15,1.08s1.55-.19,2.33-.3c.58-.08.45-1.11-.14-1s-1.17.1-1.74.17-.71.85-.13.92a3.3,3.3,0,0,0,1,0c.33-.05.66,0,1-.06.05,0,.1-.05.08-.11Z"/>
        </g>
        <g class="cls-8">
          <path class="cls-9" d="M16,16.49l.16-.09c.28-.17.08-.53-.21-.49-.7.09-1.4.16-2.11.19l.16.57a3.53,3.53,0,0,1,.89-.33.33.33,0,0,0-.09-.65,5.35,5.35,0,0,0-.89.08l.28.65a1.56,1.56,0,0,1,.59-.22.42.42,0,0,0,.21-.78l-.09-.07-.12.88L16,15.79a.52.52,0,0,0-.14-1,3.52,3.52,0,0,0-1,.16l.28,1a6.75,6.75,0,0,0,1.17-.5.51.51,0,0,0-.12-.92,1.25,1.25,0,0,0-1.16.12.46.46,0,0,0,0,.63c.24.28.59.12.9.22l-.12-.92a4.76,4.76,0,0,1-.95.36.52.52,0,0,0,.28,1,4,4,0,0,1,.69-.14l-.26-1-1.18.5c-.57.24-.08,1.09.49.84l.09-.05-.42-.72c-.24.14-.51.24-.74.39a.36.36,0,0,0,.27.65,3.29,3.29,0,0,1,.7-.11l-.09-.65a6.15,6.15,0,0,0-1,.44.31.31,0,0,0,.15.57c.76-.06,1.51-.15,2.25-.28l-.33-.33-.05.16a.2.2,0,0,0,.29.23Z"/>
        </g>
        <g class="cls-8">
          <path class="cls-9" d="M15.15,16.19A10,10,0,0,0,13.26,16v.77c.93-.09,1.87-.18,2.81-.24l-.14-1a5.8,5.8,0,0,1-1,.12l.26,1c.47-.21.93-.45,1.41-.65s.17-.89-.26-.93a4.44,4.44,0,0,0-1.15,0l.51.87c.26-.28.6-.34.81-.68a.47.47,0,0,0-.4-.7h-.47l.32.77a2.42,2.42,0,0,0,.32-.32c.17-.2.14-.6-.17-.66l-.39-.06.24.6c0,.07.16-.15.19-.2a.43.43,0,0,0,0-.44l0,0-.15.61a1.24,1.24,0,0,0,.33-.21.27.27,0,0,0,0-.38.74.74,0,0,0-.44-.22.44.44,0,0,0-.43.74l.05,0-.11-.42c0-.09-.13.17-.14.22a.4.4,0,0,0,.39.51l.29,0-.17-.65-.21.11a.46.46,0,0,0,.12.89,3.71,3.71,0,0,0,.47,0l-.4-.7c-.11.16-.58.28-.74.41-.47.36.06.94.5.87a4.28,4.28,0,0,1,.87-.05l-.25-.93c-.42.21-.86.37-1.3.54a.54.54,0,0,0,.14,1,4.28,4.28,0,0,0,1.28-.2.51.51,0,0,0-.27-1c-.92.19-1.85.34-2.78.49-.43.06-.33.78.11.75.6,0,1.21,0,1.82,0,.3,0,.39-.49.07-.55Z"/>
        </g>
        <g class="cls-8">
          <path class="cls-9" d="M16.36,14.64c-.05.29-.49.34-.3.72s.82.35,1.14.47L17,15.08c-.23.25-.55.33-.76.62a.52.52,0,0,0,.31.77l.74.09-.37-.9a4,4,0,0,1-.39.43.56.56,0,0,0,0,.75c.27.3.72.25,1.08.22s.83,0,1.08-.45a.4.4,0,0,0-.14-.55.75.75,0,0,0-.62-.11l-.41.05c-.08,0-.36,0-.24.09v.75c.13-.14.26-.28.38-.43a.53.53,0,0,0-.37-.9l-.6-.07.46.79c.07-.12.26-.18.36-.28a.79.79,0,0,0,.23-.43c.05-.26-.12-.6-.43-.57s-.35,0-.51,0h-.17c0,.09-.05.1,0,0s0-.22-.05-.36a.11.11,0,0,0-.21,0Z"/>
        </g>
        <g class="cls-8">
          <path class="cls-9" d="M25.49,14.49a1.07,1.07,0,0,0-.55-.14.27.27,0,0,0,0,.54l.45.07-.14-.5a1.65,1.65,0,0,1-.51.35.32.32,0,0,0-.08.58c.27.19.52.08.81.17L25.32,15c-.2.24-.77.36-1.06.47a.37.37,0,0,0,.09.72l.74,0L25,15.41l-.44.16a.48.48,0,0,0,.12.93,2.37,2.37,0,0,0,.53,0l-.25-.92-1.31.27.26,1,.36-.1a.49.49,0,0,0-.13-.95,4.25,4.25,0,0,0-1.37.2l.28,1,.1,0c.73-.29.27-1.36-.41-1l-.1.05c-.61.34-.07,1.2.53.92a2,2,0,0,1,1-.2L24,15.73l-.36.08c-.61.15-.35,1.08.26,1l1.3-.3c.61-.13.34-1-.25-.92h-.28l.24.89.4-.27c.36-.26.16-.91-.32-.76a1.67,1.67,0,0,1-.63.05l.19.68a3,3,0,0,0,1.31-.74.34.34,0,0,0-.2-.49c-.18-.05-.52,0-.66-.07v.55a2.17,2.17,0,0,0,.69-.51.3.3,0,0,0-.13-.5,1.74,1.74,0,0,0-.68,0l.2.49a.73.73,0,0,1,.4-.18.1.1,0,0,0,0-.18Z"/>
        </g>
        <g class="cls-8">
          <path class="cls-9" d="M25.77,14.43c-.14,0-.28-.06-.43-.11-.5-.15-.71.69-.21.77l.09,0v-.76a4.06,4.06,0,0,1-.41.25.52.52,0,0,0,.12.93,2.79,2.79,0,0,0,.76.11l-.27-1L24.9,15A.57.57,0,0,0,25.19,16a6.66,6.66,0,0,0,.78.05L25.67,15l-.65.32a.6.6,0,0,0,0,1,1.68,1.68,0,0,0,.88.18l-.44-1.05-.07.06a.62.62,0,0,0,.31,1.15l1,0-.17-1.25-.5.19c-.75.31-.45,1.53.34,1.24a11.09,11.09,0,0,1,1.42-.25c.61-.11.47-1.09-.15-1.07a8.68,8.68,0,0,1-1.44.06l.17,1.26c.22-.08.43-.17.65-.27.59-.25.28-1.22-.32-1.19l-1,.06L26,16.57a1.07,1.07,0,0,0,.31-.25.62.62,0,0,0-.59-1h-.11v1c.21-.11.42-.22.63-.35a.6.6,0,0,0-.29-1.1q-.39,0-.78,0l.28,1.05.49-.35c.38-.28.32-1.06-.27-1a1.61,1.61,0,0,1-.49,0l.23.85c.12-.12.22-.23.33-.36s.17-.67-.2-.74a.9.9,0,0,0-.43,0l.31.73c.13-.11.28-.19.42-.3a.19.19,0,0,0-.09-.32Z"/>
        </g>
        <g class="cls-8">
          <path class="cls-9" d="M25.28,14.66l0,0a.15.15,0,0,0,.13.23,1.08,1.08,0,0,0,.4-.11.19.19,0,0,0,0-.33,1.58,1.58,0,0,0-1.17,0c-.36.1-.3.72.09.67s.59-.08.89-.1l-.1-.75c-.37.07-.73.17-1.1.26a.45.45,0,0,0,0,.87,3.55,3.55,0,0,0,1,0L25,14.76c-.08.11-.41.15-.54.2a1.32,1.32,0,0,0-.49.31.51.51,0,0,0,.36.87,5.66,5.66,0,0,0,.82-.06l-.27-1a11.69,11.69,0,0,0-1.3.44c-.55.24-.08,1.06.47.81l.22-.11L24,15.51a1.67,1.67,0,0,0-1.08.7.3.3,0,0,0,.27.45,5.73,5.73,0,0,0,1-.36.41.41,0,0,0-.11-.81h-.26l.13.92c.4-.13.8-.24,1.21-.34s.43-1-.13-1a5.39,5.39,0,0,1-.69,0l.35.86a1.93,1.93,0,0,1,.61-.3,1.36,1.36,0,0,0,.53-.45.48.48,0,0,0-.41-.71,2.63,2.63,0,0,1-.79,0v.87A9.34,9.34,0,0,0,25.79,15c.42-.19.11-.79-.29-.7l-.88.18.18.66c.32-.11.63-.2.94-.32l-.19-.32a.67.67,0,0,1-.2.12l.18.18v0c.07-.16-.17-.24-.26-.11Z"/>
        </g>
        <g class="cls-8">
          <path class="cls-9" d="M24.85,14.36a7.34,7.34,0,0,0-.73.51,5,5,0,0,1-.67.38c-.31.16-.94.48-.53.91s1,0,1.37-.24a2.19,2.19,0,0,0,1-1.24.29.29,0,0,0-.42-.32Z"/>
        </g>
        <g class="cls-8">
          <path class="cls-9" d="M25.48,14.72l0,.06.13-.3a1.58,1.58,0,0,0-.62.28.4.4,0,0,0,.09.73,3.85,3.85,0,0,0,.58.08c.1,0,.38,0,.44,0l.22-.83c-.47.19-.91.42-1.37.63s-.23,1,.28,1h.91l-.55-.72a.73.73,0,0,0,.72.93c.54,0,1.29.15,1.71-.26a.44.44,0,0,0,0-.62,1,1,0,0,0-.79-.26,3.45,3.45,0,0,1-.91,0l.33.26-.05-.09.06.44,0-.09a.56.56,0,0,0-.54-.71l-.91,0,.27,1c.4-.22.82-.43,1.2-.67a.5.5,0,0,0,0-.86c-.43-.28-1-.12-1.51-.12l.34.6c.09-.18.2-.34.31-.52s-.15-.38-.33-.25l0,0a.11.11,0,0,0,0,.15Z"/>
        </g>
        <g class="cls-8">
          <path class="cls-9" d="M18.89,19.16c-.54-.07-1,.48-.61.94a.3.3,0,0,0,.5-.21.39.39,0,0,1,.21-.35.21.21,0,0,0-.1-.38Z"/>
        </g>
        <g class="cls-8">
          <path class="cls-9" d="M18.81,19.06a.79.79,0,0,0-.66.87.37.37,0,0,0,.19.33l.07,0a.3.3,0,0,0,.41-.1c.15-.3,0-.6.18-.9.09-.14-.05-.26-.19-.24Z"/>
        </g>
        <g class="cls-8">
          <path class="cls-9" d="M22.31,19.51c.35.2.12.72.27,1a.27.27,0,0,0,.34.09c.7-.37.21-1.67-.58-1.34a.12.12,0,0,0,0,.21Z"/>
        </g>
        <g class="cls-8">
          <path class="cls-9" d="M22.55,19.9l.12.13c.07.07.19,0,.14-.1l-.1-.16c-.07-.12-.26,0-.16.13Z"/>
        </g>
        <g class="cls-8">
          <path class="cls-9" d="M15.56,11.39a11,11,0,0,0-2.15,1.69,5.39,5.39,0,0,0-1.5,2.11.36.36,0,0,0,.59.35c.57-.53.93-1.32,1.47-1.9a9.78,9.78,0,0,1,2-1.61.37.37,0,0,0-.37-.64Z"/>
        </g>
        <g class="cls-8">
          <path class="cls-9" d="M16.16,11.14c-2.89,0-5.76,4.83-5.87,7.31,0,.32.4.37.56.15.92-1.23,1.26-2.84,2.07-4.16a11,11,0,0,1,3.26-3.22,0,0,0,0,0,0-.08Z"/>
        </g>
        <g class="cls-8">
          <path class="cls-9" d="M11.63,14.68c-.4,1.29-.82,2.57-1.26,3.85A21.37,21.37,0,0,0,9,22.35a.26.26,0,0,0,.48.2A13.08,13.08,0,0,0,11,19c.48-1.37.89-2.75,1.25-4.15a.34.34,0,0,0-.65-.18Z"/>
        </g>
        <g class="cls-8">
          <path class="cls-9" d="M9.59,21.12A21.89,21.89,0,0,1,12,15.18a8.17,8.17,0,0,1,2-2.4c.79-.59,1.69-.7,2.37-1.43.11-.13,0-.4-.19-.32a8.9,8.9,0,0,0-4.73,3.55,13,13,0,0,0-2.09,6.51.12.12,0,0,0,.24,0Z"/>
        </g>
        <g class="cls-8">
          <path class="cls-9" d="M29.56,29.47c-.93.78-1.75,1.68-2.71,2.44-.74.59-1.91,1.33-2,2.34,0,.28.3.38.5.29.52-.23.86-.77,1.27-1.15s.9-.77,1.36-1.15A5.32,5.32,0,0,0,30,29.74a.28.28,0,0,0-.47-.27Z"/>
        </g>
        <g class="cls-8">
          <path class="cls-9" d="M30.22,26.71a8,8,0,0,0-.72,4,.26.26,0,0,0,.47.07,10.89,10.89,0,0,0,1-3.86.41.41,0,0,0-.78-.22Z"/>
        </g>
        <g class="cls-8">
          <path class="cls-9" d="M30.27,26.79a1.51,1.51,0,0,1-.59,1.51c-.36.4.11,1.09.61.78s.69-.44,1-.66.16-1.07-.36-.86a7.66,7.66,0,0,0-1.67.89.53.53,0,0,0,.41,1l1.09-.29-.38-.89c-.72.49-1.41,1-2.08,1.57-.43.36,0,1,.42,1A3.53,3.53,0,0,0,30,30.71l-.47-1.1c-.86.64-1.75,1.22-2.66,1.78-.73.44-.1,1.43.65,1.11A12,12,0,0,1,28.9,32l-.35-1.27A10.08,10.08,0,0,0,26,32.18a.67.67,0,0,0,.64,1.11c.33-.13.66-.24,1-.34l-.46-1.1a12.85,12.85,0,0,0-2.44,1.4.69.69,0,1,0,.84,1.09,13.36,13.36,0,0,1,2.21-1.45c.62-.31.18-1.26-.47-1.1-.33.09-.67.16-1,.22l.51,1.22a12.82,12.82,0,0,1,2.24-1.3c.68-.3.2-1.42-.51-1.2a13.26,13.26,0,0,0-1.72.66l.65,1.11c.9-.58,1.76-1.21,2.62-1.85a.61.61,0,0,0-.46-1.11,2.08,2.08,0,0,1-.89.1l.42,1a14.43,14.43,0,0,1,1.74-1.57.49.49,0,0,0-.38-.89q-.55.09-1.11.21l.51.88a6.29,6.29,0,0,1,1.39-.86l-.47-.82-1.07.62.69.68c.33-.5,1-1.54.42-2.09-.23-.21-.42-.31-.63,0,0,0,0,0,0,0Z"/>
        </g>
        <g class="cls-8">
          <path class="cls-9" d="M31,26.7a10.66,10.66,0,0,1-1.6,2.92c-.77,1-1.85,1.72-2.67,2.69-.28.34,0,1,.47.8a7.08,7.08,0,0,0,3.24-2.89c.54-.79,1.76-2.56,1.07-3.51a.29.29,0,0,0-.4-.11s-.09,0-.11.1Z"/>
        </g>
        <g class="cls-8">
          <path class="cls-9" d="M30.39,28.84A36.35,36.35,0,0,0,25,32.92c-1.14,1-1.88,2.43-.91,3.84.3.42,1.17.33,1.1-.3A3.1,3.1,0,0,1,25.72,34a16.47,16.47,0,0,1,1.64-1.48,39.64,39.64,0,0,0,3.32-3.29c.17-.2,0-.53-.29-.38Z"/>
        </g>
        <g class="cls-8">
          <path class="cls-9" d="M23.88,36.33a1.66,1.66,0,0,0,1.46-.25.52.52,0,0,0-.4-.95,4,4,0,0,0-1,.4.49.49,0,0,0,.49.84c.55-.28,1.37-.73,1.4-1.42a.25.25,0,0,0-.25-.25c-.58,0-1.11.58-1.64.83l.49.84a1.85,1.85,0,0,1,.65-.22l-.27-1a1.84,1.84,0,0,1-.82.29.44.44,0,0,0-.11.86Z"/>
        </g>
        <g class="cls-8">
          <path class="cls-9" d="M25.39,34.83c-.44.39-2.57,1.81-1.49,2.5.45.29,1-.07,1.33-.33s1-.68.89-1.23a.37.37,0,0,0-.36-.36,1.18,1.18,0,0,0-.77.38,2.85,2.85,0,0,1-.38.31s-.41.24-.3.27l.37.37c0,.15,0,.16.05,0s.12-.15.17-.23a3.76,3.76,0,0,0,.3-.47c.19-.32.4-.64.59-1s-.19-.49-.4-.31Z"/>
        </g>
        <g class="cls-8">
          <path class="cls-9" d="M26.05,35.57A3.32,3.32,0,0,0,25,36.63a.52.52,0,0,0,.45.79,2.75,2.75,0,0,0,.56-.1l-.67-.51c0,.33-.31.56-.12.91a.67.67,0,0,0,.72.31,2.24,2.24,0,0,0,.91-.71,2.73,2.73,0,0,0,.7-1.07c.05-.19-.15-.43-.35-.35a16.13,16.13,0,0,0-1.67,1.17l.41-.06.11.07.13.51c0-.22.19-.5.22-.78a.54.54,0,0,0-.67-.51,1,1,0,0,1-.28.07l.52.53c0-.39.33-.7.44-1.07.05-.18-.17-.38-.33-.26Z"/>
        </g>
        <g class="cls-8">
          <path class="cls-9" d="M24.91,38.12a4.21,4.21,0,0,0,1.78-1A3.22,3.22,0,0,0,28,35.53a.3.3,0,0,0-.36-.36,3.69,3.69,0,0,0-1.73,1.17,4.25,4.25,0,0,0-1.25,1.55.18.18,0,0,0,.22.23Z"/>
        </g>
        <g class="cls-8">
          <path class="cls-9" d="M32,27.1a19.07,19.07,0,0,0-2.26,1.53.44.44,0,0,0,.33.8l.76-.11L30.35,29c0,.1-2.18,1.84-2.42,2-.49.4.06,1,.54.94s.75-.14,1.13-.23L28.93,31c-.06.39-1.2,1-1.5,1.2a2,2,0,0,0-.79.86.36.36,0,0,0,.4.52,5.79,5.79,0,0,0,2.09-1.29c.39-.29.75-.49.85-1a.56.56,0,0,0-.67-.68c-.38.09-.76.15-1.14.21l.55.93c.7-.67,1.43-1.32,2.1-2,.3-.32.62-.59.46-1.06a.5.5,0,0,0-.46-.35,3,3,0,0,0-1,.23l.43.73a25.37,25.37,0,0,1,2-1.91c.17-.16,0-.41-.24-.31Z"/>
        </g>
        <g class="cls-8">
          <path class="cls-9" d="M9.33,26.17A5.67,5.67,0,0,0,10.19,30a4.86,4.86,0,0,0,3,2.25.21.21,0,0,0,.21-.35c-.66-.84-1.59-1.36-2.31-2.14a5.87,5.87,0,0,1-1.76-3.63s0,0,0,0Z"/>
        </g>
        <g class="cls-8">
          <path class="cls-9" d="M9.39,29c1.57,1.94,3.68,3.4,5.33,5.28l.73-.73c-.69-.78-1.4-1.54-2.12-2.3a.51.51,0,0,0-.85.5,5.14,5.14,0,0,0,.79,1.5.54.54,0,0,0,1-.27,4.57,4.57,0,0,0-.08-1.52l-1.08.3a15,15,0,0,0,.59,1.75.62.62,0,0,0,1.19,0A3,3,0,0,0,15.21,32l-1.28.17c.3.9.43,2.16,1.35,2.64a.72.72,0,0,0,1.06-.61L16.51,33H15.13c.21.72.5,1.93,1.37,2.08a.7.7,0,0,0,.7-.18,3.46,3.46,0,0,0,.53-.94H16.51l.8,1.62a.67.67,0,0,0,1.16,0,10.11,10.11,0,0,0,.42-1H17.62q.15.48.33,1c.16.46.92.7,1.16.16s.19-.43-.1-.11-.36.48,0,.85c.29.72,1.48.39,1.17-.33a7.14,7.14,0,0,0-.7-1.54.64.64,0,0,0-.68-.28c-.43.07-.59.39-.8.76l1.17.15c-.1-.32-.19-.65-.29-1a.66.66,0,0,0-1.27,0l-.31.7h1.16c-.25-.55-.5-1.1-.74-1.65a.71.71,0,0,0-1.22,0q.7.57,0-.63c-.19-.63-1.25-.73-1.38,0a11.82,11.82,0,0,0-.2,1.57L16,33.59c-.33-.16-.68-1.45-.81-1.77A.66.66,0,0,0,13.9,32l-.21,1.13L14.82,33a7.7,7.7,0,0,1-.64-1.58.56.56,0,0,0-1.08.3l.1,1.22.91-.37-.65-1.13-.85.49c.7.78,1.39,1.55,2.11,2.31.46.48,1.19-.25.73-.73a29.14,29.14,0,0,0-5.83-4.85c-.2-.12-.36.14-.23.3Z"/>
        </g>
        <g class="cls-8">
          <path class="cls-9" d="M11,29.32a13.45,13.45,0,0,0,3.12,2.85c1.51,1.08,3.79,1.6,4.84,3.18l.58-.76.05,0-.88.37a13.06,13.06,0,0,1,.74,1.67.52.52,0,0,0,1-.27l-.15-.6a.45.45,0,0,0-.88.12,3.93,3.93,0,0,0,.05,1l1-.14-.16-.54a.54.54,0,0,0-1-.12l-.27.39.83-.11a21.42,21.42,0,0,1-1.3-1.82.25.25,0,0,0-.45.19A17.12,17.12,0,0,0,19.12,37,.53.53,0,0,0,20,37l.28-.39-1-.12.16.53a.53.53,0,0,0,1-.28,3.84,3.84,0,0,1-.21-1l-.88.12v.62l1-.14a10.18,10.18,0,0,0-.91-1.88.48.48,0,0,0-.87.37,1,1,0,0,0,.48.65.52.52,0,0,0,.75-.58c-.59-1.59-2.13-1.9-3.54-2.61-1.82-.91-3.3-2.37-5.11-3.28-.15-.07-.37.1-.25.26Z"/>
        </g>
        <g class="cls-8">
          <path class="cls-9" d="M10.38,29.28c.44.68,1.51,2.23,2.48,2.24a2.63,2.63,0,0,0,.68-.17c.61.36,1,1.6,1.67,2.06,1,.64,2.48.43,3.05,1.76.16.36.66.26.84,0-.12.18.68.77.83.86a.36.36,0,0,0,.49-.49c-.42-.77-1.22-2-2.08-1l.76.1a4.5,4.5,0,0,0-2-1.76c-1-.37-.49.48-1.87-.38a9.15,9.15,0,0,1-1.57-1.71.18.18,0,0,0-.23,0c-.69.49-2.45-1.22-2.93-1.64a.1.1,0,0,0-.16.12Z"/>
        </g>
        <g class="cls-8">
          <path class="cls-9" d="M18.59,38.52c-.07-.34-.1-.39-.11-.14a.87.87,0,0,1-.11.41c-.19.44.43.82.66.38a5.18,5.18,0,0,1,.4-.82L18.62,38l-.1.23.77.2a2.6,2.6,0,0,1-.11-.74.39.39,0,0,0-.65-.27,3.21,3.21,0,0,0-.39.52l.75.1c-.1-.34-.25-.66-.37-1a1.22,1.22,0,0,0-.26-.55.88.88,0,0,0-.21-.12c-.2-.1.16.11-.05,0a.38.38,0,0,0-.34-.09.38.38,0,0,0-.26.34A.44.44,0,0,0,18,37c.15,0,0-.06,0,0s-.12.07,0,.19l0,.27a7.25,7.25,0,0,0,.09.8.42.42,0,0,0,.76.1,3.33,3.33,0,0,1,.28-.48l-.71-.19a4.2,4.2,0,0,0,0,.87.46.46,0,0,0,.85.23,1.45,1.45,0,0,0,.23-.56c.08-.46-.55-.8-.8-.34A2.23,2.23,0,0,0,18.32,39h.76c0-.29.08-1-.34-1.13s-.46.38-.52.62a.19.19,0,1,0,.37.05Z"/>
        </g>
        <g class="cls-8">
          <path class="cls-9" d="M17.55,36.32a1.15,1.15,0,0,0-.07.94.26.26,0,0,0,.42.11c.38-.38.47.26.51.53a1.1,1.1,0,0,0,.19.56,1.72,1.72,0,0,0,.32.23c.36.28.25.55.3,1a.19.19,0,0,0,.33.13.83.83,0,0,0,.24-.91c-.2-.51-.77-.62-1-1.13-.11-.25-.18-.83-.44-1s-.57.11-.76.22l.3,0a.77.77,0,0,1-.29-.7s-.05,0-.06,0Z"/>
        </g>
        <g class="cls-8">
          <path class="cls-9" d="M16.92,36.9h-.1a.24.24,0,0,0-.21.16c-.14.4-.31.8-.47,1.2-.22.56.74.85.93.25a2.62,2.62,0,0,1,.19-.46l-.9-.24c0,.36-.12.9.1,1.23a.64.64,0,0,0,.38.26c.18.05.34,0,.51,0L17,39.11c0-.11,0-.1,0,0a2.81,2.81,0,0,1,0,.29,1.45,1.45,0,0,0,0,.28.59.59,0,0,0,.49.44c.38.08.84-.25.68-.67-.09-.26-.23-.33-.47-.42l.34.25c-.07-.1,0-.38-.05-.52a.74.74,0,0,0-.25-.4.7.7,0,0,0-.46-.16,1,1,0,0,0-.24.05c-.13,0-.13,0,0,0l.3.23c.09.16,0-.14,0-.24s0-.32,0-.48a.49.49,0,0,0-.91-.25,6,6,0,0,0-.28.7h.93a1.44,1.44,0,0,1,0-1.08l-.4,0,0,.1c.25.57.91-.47.25-.43Z"/>
        </g>
        <g class="cls-8">
          <path class="cls-9" d="M17,37.44a1.42,1.42,0,0,0-.24,1.65.91.91,0,0,0,.75.51,1,1,0,0,0,.49-.06c.08,0,.23-.18.3-.19l-.36-.05.05,0-.19-.24a.19.19,0,0,1-.09.19l.3.12c-.21-.18-.16-.43-.44-.58a.27.27,0,0,0-.37.1.86.86,0,0,0,.46,1.2c.65.12.67-.62.91-1a.45.45,0,0,0,0-.46l0,0a.52.52,0,0,0-.56-.23c-.3,0-.34.32-.54,0s-.36-.61-.27-.85a.1.1,0,0,0-.17-.1Z"/>
        </g>
        <g class="cls-8">
          <path class="cls-9" d="M17.16,38.87c-.16-.39.09-.63.16-1a.81.81,0,0,0-.22-.74.43.43,0,0,0-.42-.11c-.36.08-.34.51-.27.79A4.35,4.35,0,0,0,16.88,39c.09.14.35.06.28-.11Z"/>
        </g>
        <g class="cls-8">
          <path class="cls-9" d="M11.36,22c0,.41.66.54,1,.69a6.32,6.32,0,0,0,1.64.68.27.27,0,0,0,.26-.44c-.24-.24-2.86-1.55-2.86-.93Z"/>
        </g>
        <g class="cls-8">
          <path class="cls-9" d="M13.15,22.89a16.14,16.14,0,0,0,4.27,1.22.3.3,0,0,0,.15-.56,12.61,12.61,0,0,0-2-.61c-.75-.22-1.49-.46-2.23-.71-.42-.15-.59.51-.18.66Z"/>
        </g>
        <g class="cls-8">
          <path class="cls-9" d="M11.74,22c2.69,1.15,5.47,2.89,8.47,2a.18.18,0,0,0-.05-.35,13.26,13.26,0,0,1-4-.46c-1.37-.52-2.71-1.16-4.06-1.74-.41-.17-.76.42-.35.59Z"/>
        </g>
        <g class="cls-8">
          <path class="cls-9" d="M18.4,24.32A23.94,23.94,0,0,0,23,24.18c.29-.06.31-.57,0-.62a31.23,31.23,0,0,0-4.64,0,.4.4,0,0,0,0,.79Z"/>
        </g>
        <g class="cls-8">
          <path class="cls-9" d="M20.87,24.27c.66-.17,1.37-.16,2-.31a16.59,16.59,0,0,0,2-.6c.21-.08.21-.45-.05-.42a9.84,9.84,0,0,0-1.95.35c-.72.22-1.34.6-2.05.86a.06.06,0,0,0,0,.12Z"/>
        </g>
        <g class="cls-8">
          <path class="cls-9" d="M11.58,21.87c2.51,1.15,5.07,3.11,8,2.64.2,0,.15-.29,0-.35-1.62-.61-3.34-.74-5-1.46-1-.43-1.93-1.36-3-1.12a.16.16,0,0,0,0,.29Z"/>
        </g>
        <g class="cls-8">
          <path class="cls-9" d="M20.46,8.46c-.4.22-.35.87-.39,1.27a2.92,2.92,0,0,0,.13,1.78.26.26,0,0,0,.44,0,3,3,0,0,0,.22-1.78c0-.4.06-1-.33-1.27a.09.09,0,0,0-.07,0Z"/>
        </g>
        <g class="cls-8">
          <path class="cls-9" d="M20.66,8.5c-.31.28-.3.74-.36,1.13s-.14,1.09-.21,1.64l.79.11a7.9,7.9,0,0,0,.05-2.52c-.06-.24-.36-.74-.33-.2a2,2,0,0,0,.3,1c.1.15.36.14.39,0a1.41,1.41,0,0,0-.54-1.47s-.07,0-.08.05a6.49,6.49,0,0,1-.34.89c-.06.22-.09.47-.13.71-.07.52-.1,1-.13,1.57s.76.51.81,0A15.15,15.15,0,0,0,21,9.6c0-.39,0-.81-.25-1.1Z"/>
        </g>
        <g class="cls-8">
          <path class="cls-9" d="M20.83,8.42V8.33c0-.05-.06-.1-.11-.08-.3.1-.36.38-.42.68s.43.64.64.27a1.38,1.38,0,0,0,.18-.74c0-.37-.61-.5-.69-.09-.14.73-.45,1.71,0,2.37a.17.17,0,0,0,.29,0c.34-.65.17-1.48.35-2.19l-.69-.09a.59.59,0,0,1-.07.39l.63.08a2.22,2.22,0,0,0-.15-.64l-.1.12.08,0a0,0,0,0,0,0,0Z"/>
        </g>
        <g class="cls-8">
          <path class="cls-9" d="M20.25,9.25a6.22,6.22,0,0,1-.14,1.36,8.88,8.88,0,0,0-.28,1.13c0,.29.35.31.49.13a4.63,4.63,0,0,0,.56-2.62.32.32,0,0,0-.63,0Z"/>
        </g>
        <g class="cls-8">
          <path class="cls-9" d="M20.07,11.78a4,4,0,0,0,.81-2.2.16.16,0,0,0-.29-.08A3.91,3.91,0,0,0,20,11.77s0,0,0,0Z"/>
        </g>
        <g class="cls-8">
          <path class="cls-9" d="M20.5,8.85a2,2,0,0,0,.15.94.28.28,0,0,0,.5-.07,4.22,4.22,0,0,0,0-.87.32.32,0,0,0-.64,0Z"/>
        </g>
        <g class="cls-8">
          <path class="cls-9" d="M10.47,14.66a.62.62,0,0,0,.84-.2.12.12,0,0,0-.07-.18.72.72,0,0,0-.79.28.08.08,0,0,0,0,.1Z"/>
        </g>
        <g class="cls-8">
          <path class="cls-9" d="M10.3,14.55a1,1,0,0,0,1.2-.18c0-.07,0-.18-.12-.15a3,3,0,0,1-.89.2.17.17,0,0,0,0,.33,2,2,0,0,0,1.13-.18.33.33,0,0,0-.33-.58c-.3.14-.57.32-.88.45l.12.3a7.42,7.42,0,0,1,.9-.32l0-.2c-.36,0-.91,0-1.12.32,0,0,0,0,0,0Z"/>
        </g>
        <g class="cls-8">
          <path class="cls-9" d="M10.77,14.59c.47,0,1.3,0,1.45-.53a.2.2,0,0,0-.13-.24c-.46-.18-1,.36-1.38.55a.12.12,0,0,0,.06.22Z"/>
        </g>
        <g class="cls-8">
          <path class="cls-9" d="M10.18,14.62c.25.49,1.48.15,1.75-.19a.32.32,0,0,0-.22-.53c-.21,0-1.7.4-1.53.72Z"/>
        </g>
        <g class="cls-8">
          <path class="cls-9" d="M27.59,12.43c.24.55,1.16,1.94,1.9,1.67a.22.22,0,0,0,.15-.26c-.13-.36-.53-.57-.79-.84a2.75,2.75,0,0,0-1-.84.22.22,0,0,0-.27.27Z"/>
        </g>
        <g class="cls-8">
          <path class="cls-9" d="M28,13.27a3.17,3.17,0,0,0,2.56,1.16c.63,0,.65-1,0-1-.45,0-.88-.13-1.28.14a.19.19,0,0,0,0,.3,1.17,1.17,0,0,0,.34.2c.19.07.48.07.63.21l.48-.83a12.28,12.28,0,0,1-2.47-.56c-.23-.09-.36.23-.22.38Z"/>
        </g>
        <g class="cls-8">
          <path class="cls-9" d="M30.36,13.87c-.33-.48-1.42-.56-1.93-.42a.29.29,0,0,0-.13.49c.47.38,1.65.62,2.06,0a.09.09,0,0,0,0-.1Z"/>
        </g>
        <g class="cls-8">
          <path class="cls-9" d="M29.84,13.37a6.51,6.51,0,0,0-1.25,0,.22.22,0,0,0-.12.32,1.5,1.5,0,0,0,1.49.53c.49-.08.38-.91-.12-.87Z"/>
        </g>
        <g class="cls-8">
          <path class="cls-9" d="M30,13.47a2.81,2.81,0,0,1-1.1-.37c-.29-.21-.37-.62-.63-.87s-1.13-.67-1.24,0c0,.24.15.39.32.52a3.69,3.69,0,0,1,.7.78,2.19,2.19,0,0,0,1.86.63c.37,0,.48-.58.09-.66Z"/>
        </g>
      </g>
      <g id="Слой_78_копия_" data-name="Слой 78 (копия)">
        <path d="M25.56,34.61Z"/>
        <path d="M6.57,28.81A6.08,6.08,0,0,0,9,34.29c2,1.55,4.92,1.37,6.77,3.22,0,0,0,0,0,0-1.14-1.2-2.93-1.66-4.47-2.1a6.36,6.36,0,0,1-4.74-6.58Z"/>
        <path d="M17.94,39.59c.7.19.35-1.09.23-1.35,0,0,0,0,0,0,.07.18.47,1.48-.22,1.35Z"/>
        <path d="M19.16,39c.45-.24.33-1.18.21-1.57,0,0,0,0,0,0,.1.39.23,1.29-.2,1.56,0,0,0,0,0,0Z"/>
        <path d="M20.1,37.65A1,1,0,0,0,20.46,36s0,0,0,0a1,1,0,0,1-.35,1.61Z"/>
        <path d="M12.69,30.56a31.14,31.14,0,0,0,3.74,2.1c1.56.73,3.19,1.25,4,2.91a0,0,0,1,0,0,0,5.3,5.3,0,0,0-3-2.48,36.28,36.28,0,0,1-4.77-2.53Z"/>
        <path d="M16.7,30.68a14.17,14.17,0,0,1,6.75.37s0,0,0,0a13.45,13.45,0,0,0-6.75-.36Z"/>
        <path d="M21.18,31.21a4.67,4.67,0,0,1,2,.39s0,0,0,0a4.2,4.2,0,0,0-2-.37Z"/>
        <path d="M19.63,20.08H19.5c-.16-.17-.15-.24,0-.2s.51.06.67.1c.33.06.65.17,1,.21A1.92,1.92,0,0,0,22.51,20a0,0,0,0,0,0,0,.73.73,0,0,0-.69.19s0,.05,0,0,.43-.1.21,0a1.91,1.91,0,0,1-.58.06A7.8,7.8,0,0,1,20.19,20c-.27-.06-.72-.21-1,0a0,0,0,0,0,0,0c.05.23.21.18.41.15,0,0,0,0,0,0Z"/>
        <path d="M19.16,19c-.26-.54-1.16,0-1.38.33a1,1,0,0,0,.6,1.32s0,0,0,0a1.07,1.07,0,0,1-.65-.78,1.23,1.23,0,0,1,.28-.71c.22-.24.88-.46,1.13-.12,0,0,0,0,0,0Z"/>
        <path d="M22.25,19.08c.07-.22.94.15,1,.19a.81.81,0,0,1-.13,1.37,0,0,0,0,0,0,0c.5-.08.61-.77.42-1.16a1.13,1.13,0,0,0-1.3-.49v0s0,0,0,0Z"/>
        <path d="M14.76,13.33a3.83,3.83,0,0,0-2.26,3A3.86,3.86,0,0,0,14.45,20s0,0,0,0a3.82,3.82,0,0,1-1.9-3.74,3.84,3.84,0,0,1,2.21-2.83s0,0,0,0Z"/>
        <path d="M19,14.57a4.43,4.43,0,0,1,.15,4s0,0,0,0a4.17,4.17,0,0,0-.16-4.06s0,0,0,0Z"/>
        <path d="M12.53,16.65a16.73,16.73,0,0,0,4.3.16s0,0,0,0a21.19,21.19,0,0,1-4.29-.14s0,0,0,0Z"/>
        <path d="M23.17,13.93c-1.1,1.18-1.67,3.58-.83,5,0,0,0,0,0,0a4.93,4.93,0,0,1,.81-5s0,0,0,0Z"/>
        <path d="M27.59,14.08a3.67,3.67,0,0,1,1.13,3.32,3.5,3.5,0,0,1-1.64,2.39s0,0,0,0a3.49,3.49,0,0,0,1.69-2.4,3.57,3.57,0,0,0-1.18-3.34Z"/>
        <path d="M22,16.93c.86-.16,1.8,0,2.68-.08,0,0,0,0,0,0-.52,0-1,.05-1.55,0a5.44,5.44,0,0,0-1.14,0s0,0,0,0Z"/>
        <path d="M12.41,21.53c.16-.36.36-.36.6,0,.35.07.45.21.31.42,0,0,0,0,0,0,.11-.27.16-.59-.13-.76a.61.61,0,0,0-.85.31s0,0,0,0Z"/>
        <path d="M13.38,21.94c.13-.35.4-.25.8.31,0,0,0,0,.05,0,.18-.71-.59-1.05-.88-.34,0,0,0,0,0,0Z"/>
        <path d="M19.47,12.11c.11-1,.49-1.95.67-2.94,0-.23.08-.46.13-.68.09-.4,0-.49.49-.57s.39,0,.49.41a7.67,7.67,0,0,1,.15.81h0c0-.34-.15-2.05-.78-1.73S20.1,9.23,20,9.68a23.06,23.06,0,0,0-.56,2.43Z"/>
        <path d="M20.24,12.52c.47.08.9.26,1.28-.08,0,0,0,0,0,0a1.57,1.57,0,0,1-1,.12l-.3,0s0,0,0,0Z"/>
        <path d="M19.2,9.52c.11-.54,1.13-3.86,1.93-3.37,0,0,0,0,0,0a2.3,2.3,0,0,1-.33-.21h0a6.58,6.58,0,0,0-1,1.69,6,6,0,0,0-.63,1.91Z"/>
        <path d="M29.33,29.1a14.22,14.22,0,0,1-3.88,3.1,3.73,3.73,0,0,0-2.05,2.46s0,0,0,0c.34-1.76,2.18-2.47,3.52-3.37a10,10,0,0,0,2.41-2.18Z"/>
        <path d="M23.48,35.31c.22.63,1-.12,1.32-.31h0c-.23.14-1.09.83-1.3.32Z"/>
        <path d="M23.88,36.76c.1.21.25.47.53.37a.72.72,0,0,0,.26-.26,9.74,9.74,0,0,1,.74-.83s0,0,0,0a5.9,5.9,0,0,0-.55.57.64.64,0,0,1-.1.13c-.08.18-.23.22-.45.13-.23.11-.37.08-.42-.1Z"/>
        <path d="M24.78,37.66c.08.28.22.64.57.52a2.76,2.76,0,0,0,.8-.68c.32-.3.63-.62.93-1,0,0,0,0,0,0-.28.3-.57.59-.87.88s-1.11,1.13-1.41.23Z"/>
        <path d="M11.29,21.09c2.74,1.33,5.43,2.35,8.54,2.17a23.93,23.93,0,0,0,9.62-2.48s0,0,0,0a25.09,25.09,0,0,1-9.61,2.48c-3.14.17-5.75-.85-8.54-2.16Z"/>
        <path d="M11.3,20.62a2.33,2.33,0,0,1-.29,1s0,0,0,0a1.91,1.91,0,0,0,.27-1Z"/>
        <path d="M29.38,20.29a1.49,1.49,0,0,0,.3,1.22s0,0,0,0a2.4,2.4,0,0,1-.32-1.2Z"/>
        <path d="M22.44,22.85c.43-.47.73-.52.89-.16,0,0,.05,0,0,0-.2-.61-1.07-.5-1,.17a0,0,0,1,0,0,0Z"/>
        <path d="M11.58,13.9a4.19,4.19,0,0,1-1.6.32s0,0,0,0a1.58,1.58,0,0,1,0,1.39s0,0,0,0a1.56,1.56,0,0,0,.2-.56,1.31,1.31,0,0,0,0-.44,2.05,2.05,0,0,1-.08-.28c0-.18.5-.14.66-.17a3.74,3.74,0,0,0,.88-.27s0,0,0,0Z"/>
        <path d="M9.83,14.42a3,3,0,0,0-.07,1.33s0,0,0,0a5.3,5.3,0,0,1,.06-1.32s0,0,0,0Z"/>
        <path d="M12.11,13.69c1.12-2.26,3.76-3.16,6-3.58,0,0,0,0,0,0-2.2.26-5.07,1.37-6,3.58Z"/>
        <path d="M10.76,16.31a56,56,0,0,1-2.47,6s0,0,0,0a31.7,31.7,0,0,0,2.47-6s0,0,0,0Z"/>
        <path d="M28.81,13.18c.3.06.61.11.91.15a3.31,3.31,0,0,1,.55.07c.28.07.29.08.3.36,0,.47-.22.92.18,1.29,0,0,.06,0,0,0-.41-.39-.19-1.11-.13-1.6,0,0,0,0,0,0-.61-.06-1.21-.15-1.82-.23,0,0,0,0,0,0Z"/>
        <path d="M30.75,13.86a1.38,1.38,0,0,1,.31,1.21s0,0,0,0a1.18,1.18,0,0,0-.32-1.24s0,0,0,0Z"/>
        <path d="M30,15.67A24.67,24.67,0,0,1,31.16,19a22.32,22.32,0,0,0,1.94,3.39s0,0,0,0a22,22,0,0,1-2-3.62A16.64,16.64,0,0,0,30,15.65s0,0,0,0Z"/>
      </g>
      <g id="Слой_74_копия_" data-name="Слой 74 (копия)">
        <path class="cls-2" d="M40.16,15.9a34.21,34.21,0,0,0-3.34-6.82,21,21,0,0,0-4.36-5.59A17,17,0,0,0,19.31.18C9.52,1.49-.44,9.11.14,19.56A19.84,19.84,0,0,0,2.85,32.3a16.52,16.52,0,0,0,11,7.53c4.62,1,10.08,1.24,14.58-.38,4.67-1.68,7.48-5.13,9.91-9.31C40.92,25.66,41.84,20.9,40.16,15.9Zm-3,9.72a28,28,0,0,1-2.68,4.85,12.82,12.82,0,0,1-4.2,4.46c-3.47,2-7.73,2.18-11.63,1.85-3.46-.28-7.25-1.12-9.94-3.45-3.25-2.81-5-7.52-5.24-11.72a20.12,20.12,0,0,1,.79-7,19.05,19.05,0,0,1,1.36-3.39c.07-.12.13-.25.2-.38a21.14,21.14,0,0,1,10.74-7c3.87-1.12,8.16-1.25,11.83.62s5.59,5.46,7.39,8.89C37.8,17.23,38.81,21.38,37.12,25.62Z"/>
      </g>
    </g>
  </g>
</svg>
