<svg xmlns="http://www.w3.org/2000/svg" viewBox="0 0 41.89 43.01">
  <defs>
    <style>
      .cls-1 {
        fill: #6b2b72;
      }

      .cls-2 {
        opacity: 0.1;
      }

      .cls-3 {
        fill: #c384cc;
      }

      .cls-4 {
        opacity: 0.07;
      }

      .cls-5 {
        fill: #422047;
      }
    </style>
  </defs>
  <title>Ресурс 18search</title>
  <g id="Слой_2" data-name="Слой 2">
    <g id="иконки_входа" data-name="иконки входа">
      <g id="Слой_237" data-name="Слой 237">
        <g>
          <path class="cls-1" d="M40.62,36.3a51.62,51.62,0,0,0-7.33-8.36c-2.34-2-4.7-4.3-7.23-6.11A11.89,11.89,0,0,0,27.7,18.9,12.1,12.1,0,0,0,26.5,7.84a9.6,9.6,0,0,0-1.84-3.21C21.72,1.23,16.15.44,11.93,1.28,2.81,3.1-3.17,16.66,3.43,24.09,8,29.2,16.12,29,21.87,25.55c1.84,2.33,3.86,4.41,5.55,6.92,1.85,2.78,4,5.38,5.92,8.09C36.5,45,43.87,40.6,40.62,36.3ZM10.77,19.93C4.58,18.62,8.24,9.36,12,7.21L12.4,7a10.65,10.65,0,0,0,3.06,1A6.59,6.59,0,0,1,20.71,13C21.93,18.93,15.35,20.9,10.77,19.93Z"/>
          <g>
            <path class="cls-1" d="M41.16,36A70.36,70.36,0,0,0,36,29.7C34.76,28.37,33.35,27.18,32,26c-1-.91-3.65-2.42-4.21-3.63-.77-1.64,1.11-4.69,1.3-6.53A13.35,13.35,0,0,0,27.89,9C24.37.67,14.07-2.65,6.53,3.15.65,7.68-2.37,17.21,2.26,23.61,5,27.38,9.68,29,14.2,28.63a37.63,37.63,0,0,0,5.57-1.33c2.08-.49,2.36-.17,3.92,1.41a49.49,49.49,0,0,1,4.63,6.13c2.24,3.13,5,9.19,9.86,8a4.46,4.46,0,0,0,3-6.87.63.63,0,0,0-1.08.63q-1,9-7.19,2.28l-1-1.34a54.76,54.76,0,0,1-3.46-4.71c-1.91-2.7-4-5.18-6.12-7.74a.63.63,0,0,0-.76-.1c-5.46,3-13.13,3.78-17.68-1.36-3.79-4.3-3-10.79-.23-15.38A13.31,13.31,0,0,1,17.3,1.79C26.44,3,30.37,14.12,25.52,21.51a.65.65,0,0,0,.23.86A73.28,73.28,0,0,1,40.08,36.62C40.56,37.25,41.65,36.63,41.16,36Z"/>
            <path class="cls-1" d="M10.94,19.33C7.37,18.39,7.73,14.7,9,12a10.61,10.61,0,0,1,2.16-3.25c1.18-1.18,1.31-.9,2.75-.5,1.84.51,3.64.82,5,2.36a5.46,5.46,0,0,1,.81,6.07c-1.67,2.83-5.81,3.21-8.71,2.68-.79-.15-1.13,1.06-.34,1.2,3.6.67,8.63,0,10.37-3.72,2.06-4.42-1.62-8.52-5.72-9.55-2.18-.54-2.93-1.32-4.7.26a12,12,0,0,0-3.05,4.7c-1.25,3.39-.85,7.27,3.1,8.31A.62.62,0,0,0,10.94,19.33Z"/>
          </g>
        </g>
      </g>
      <g id="Слой_236" data-name="Слой 236">
        <g class="cls-2">
          <path class="cls-3" d="M10,6.89A12.5,12.5,0,0,1,17.09,6c2.15.37,3.76,1.7,5.78,2.33A1.3,1.3,0,0,0,24.33,6.4C22.62,3.82,18.83,3,15.89,3c-2.31,0-6.09.56-6.78,3.2a.61.61,0,0,0,.89.68Z"/>
        </g>
        <g class="cls-2">
          <path class="cls-3" d="M13.43,7.23a6.58,6.58,0,0,1,7,1.47c1.46,1.55,1.19,4.18,2.81,5.44a.86.86,0,0,0,1.18,0c2.62-2-.5-6.54-2.3-8a9.56,9.56,0,0,0-9.46-1.53c-1.65.61-1,3.25.74,2.67Z"/>
        </g>
        <g class="cls-2">
          <path class="cls-3" d="M24,11a10.72,10.72,0,0,0-3-5.29c-1.18-1.12-3.85-3.23-5.51-2A1.58,1.58,0,0,0,15,5.82c.51.9,1.72,1.23,2.54,1.78a11.58,11.58,0,0,1,3.86,4.47c.72,1.47,2.94.42,2.57-1.08Z"/>
        </g>
        <g class="cls-2">
          <path class="cls-3" d="M18.72,5.28c-1.41-2.46-4.32-2.81-7-2.52C9.45,3,6,4,5.88,6.72a1,1,0,0,0,1.26,1,7.89,7.89,0,0,0,2-1.1,9.69,9.69,0,0,1,3.52-1.09,31.44,31.44,0,0,1,5.9.08.2.2,0,0,0,.17-.29Z"/>
        </g>
        <g class="cls-2">
          <path class="cls-3" d="M7.67,10.5a9.43,9.43,0,0,1,7.8.57c1.64.81,3.22,2.64,5.13,2.53a2,2,0,0,0,1.84-1.4c1.36-3.51-3.93-5.41-6.42-6-3.33-.81-7.16-.43-9.53,2.29-.73.84,0,2.46,1.18,2Z"/>
        </g>
        <g class="cls-2">
          <path class="cls-3" d="M10.4,10.91c1.41-.3,3.15,1.06,4.23,1.84a8.58,8.58,0,0,1,3.09,3.44c.77,1.93,3.47,3.29,5.12,1.35,3.45-4-2.37-7.82-5.61-9.24-2.3-1-7.43-2.57-8.34,1.09a1.25,1.25,0,0,0,1.51,1.52Z"/>
        </g>
        <g class="cls-2">
          <path class="cls-3" d="M22.57,12.29A13.83,13.83,0,0,0,10.09,5.62c-2.53.14-3.44,4.22-.64,4.7,3.54.61,6.88,1.1,8.84,4.48,1.6,2.76,5.87.27,4.28-2.51Z"/>
        </g>
        <g class="cls-2">
          <path class="cls-3" d="M12.39,11.22a10.87,10.87,0,0,1,4.14.66c1.31.45,2.36,1.56,3.79,1.53a1.65,1.65,0,0,0,1.56-2.05C21.62,9.63,19.4,8.52,18,7.87A12,12,0,0,0,12.39,7c-2.72.16-2.76,4.37,0,4.26Z"/>
        </g>
        <g class="cls-2">
          <path class="cls-3" d="M5.39,11.34c2-1.18,3.19-2.53,5.58-3a13.49,13.49,0,0,1,8.6,1A2.38,2.38,0,0,0,22,9.4,2.21,2.21,0,0,0,23.1,8,2.49,2.49,0,0,0,22,5.25,17.13,17.13,0,0,0,8.47,4.62c-2.42,1-6.05,3.88-3.72,6.64a.53.53,0,0,0,.64.08Z"/>
        </g>
        <g class="cls-2">
          <path class="cls-3" d="M11.81,8c1-2.5,6.74-.91,8.24.24,1.77,1.36,1.68,4.94,2.12,7a2.7,2.7,0,0,0,1.92,1.92,2.82,2.82,0,0,0,2.11-.28,2.67,2.67,0,0,0,1.36-2.37c-.38-5.65-1.83-10.37-7.69-12-4.55-1.28-10.4-.6-12.2,4.36-1,2.64,3.1,3.62,4.14,1.14Z"/>
        </g>
        <g class="cls-2">
          <path class="cls-3" d="M25.85,12.56C23.38,6.5,20.57-1,12.61.11,7.9.76-.22,7.53,4.31,12.58a1.47,1.47,0,0,0,1.75.23c3.12-1.59,3.25-6,7.06-6.87,4.74-1,7.57,4.57,9.3,8.06.93,1.88,4.23.54,3.43-1.44Z"/>
        </g>
        <g class="cls-2">
          <path class="cls-3" d="M5.88,12.87c1-3.87,7.75-4.74,11-4.59,4,.19,4.51,3.53,6,6.48A1.53,1.53,0,0,0,25,15.3c2.74-2,3.09-4.89,1.38-7.89a9.69,9.69,0,0,0-8.92-4.62c-5.06.09-16.69,3-12.91,10.26a.75.75,0,0,0,1.35-.18Z"/>
        </g>
        <g class="cls-4">
          <path class="cls-5" d="M4.58,12.52C0,15.32,7.09,28,11.91,25a.74.74,0,0,0,.15-1.15A4.83,4.83,0,0,0,10.49,23,6.86,6.86,0,0,1,7.3,20.48c-1.21-1.67-3.16-5-1.72-7,.44-.62-.41-1.37-1-1Z"/>
        </g>
        <g class="cls-4">
          <path class="cls-5" d="M4,11.76C3,17.24,6.31,26.86,12.61,28a2.11,2.11,0,0,0,2.5-1.42l.08-.22a1.81,1.81,0,0,0-1.26-2.23c-5.46-1-6.17-8.83-8.73-12.54-.29-.42-1.08-.44-1.18.15Z"/>
        </g>
        <g class="cls-4">
          <path class="cls-5" d="M4.11,10.63C1.25,13.67,2,18.73,4,22c1.41,2.34,6.07,7.71,8.84,4.41a1.61,1.61,0,0,0-1.13-2.71c-2.39-.26-4.64-3.29-5.49-5.3-1-2.43-.61-4.58-.35-7.09a1,1,0,0,0-1.73-.72Z"/>
        </g>
        <g class="cls-4">
          <path class="cls-5" d="M5.18,10.62c-1.56-1.58-3,1.56-3.36,2.73-.89,3.42.54,6.91,2.43,9.71C6,25.67,8.47,28.39,11.9,28.25c2.3-.1,5.08-1.89,4.17-4.48a1,1,0,0,0-1.4-.57c-1.05.46-2,1.14-3.22,1-2-.19-3.53-2.4-4.52-3.9a12.22,12.22,0,0,1-2-4.45,8.85,8.85,0,0,1-.11-2.12c.11-.57.21-1.13.31-1.7s.11-.54-.14-.16a.81.81,0,0,0,.17-1.28Z"/>
        </g>
        <g class="cls-4">
          <path class="cls-5" d="M6.86,22.64c-1.15,5.5,16.85,4.65,18-2.1a1.57,1.57,0,0,0-2.27-1.74c-2.32,1.31-3.55,3-6.35,3.54-.78.16-7.52.78-7.64.3a.9.9,0,0,0-1.72,0Z"/>
        </g>
        <g class="cls-4">
          <path class="cls-5" d="M19.35,21.65c.86,3,3.8,5.38,5.7,7.69a37.51,37.51,0,0,1,3.53,5,9.89,9.89,0,0,0,2.7,3.57,1,1,0,0,0,1.38-.56c.83-3.23-2-6.5-3.91-8.83a45.31,45.31,0,0,0-8.3-7.71c-.54-.39-1.27.26-1.1.85Z"/>
        </g>
        <g class="cls-4">
          <path class="cls-5" d="M20.82,23c4.2,6.53,9.71,12,13.44,18.9l3.43-2c-2.56-3.63-5.08-7.29-7.61-10.94-1.63-2.34-3.17-4.89-5.55-6.55a11.62,11.62,0,0,0-6.85-2.07c-1.51,0-3.45.85-4.92.64-3.68-.54-4.06-3.49-5.53-5.82-.48-.77-2-.79-2.17.29-.72,5,2.41,9.43,7.7,9.27,2.44-.07,4.73-1,7.2-.4,2.67.69,4.29,2.82,5.81,5,2.93,4.13,5.69,8.4,8.49,12.62a2,2,0,0,0,3.43-2A57.84,57.84,0,0,0,22.11,21.66c-.77-.57-1.78.53-1.29,1.29Z"/>
        </g>
        <g class="cls-4">
          <path class="cls-5" d="M4.09,9.25c-2.75,2.37-1.22,7.3.18,10,1.62,3.15,5.14,7.08,9,7a1.6,1.6,0,0,0,1.57-1.58c0-.83-.36-.95-.85-1.41.18.17-1.6-.6.07.05a16.85,16.85,0,0,1-2.61-1.24,13.07,13.07,0,0,1-4.47-4.43c-1.09-1.79-2.71-5.51-1.63-7.53a.78.78,0,0,0-1.22-.94Z"/>
        </g>
        <g class="cls-4">
          <path class="cls-5" d="M4.4,8.42C.93,7.94,1.33,16.71,1.74,18.7,2.25,21.18,6.12,28.59,9,24a1.24,1.24,0,0,0-.73-1.8c-2.4-.84-3.16-3.95-3.45-6.21-.22-1.79-.63-5.19,0-6.91a.57.57,0,0,0-.39-.69Z"/>
        </g>
        <g class="cls-4">
          <path class="cls-5" d="M6.76,7.37c-3.23-.83-3.32,4.26-3.28,6.24.07,4,1.4,8.7,4.68,11.15a1.82,1.82,0,0,0,1.86,0l.47-.22A1.18,1.18,0,0,0,11,23.21c-.35-1.11-.8-1.34-1.54-2.28A13.15,13.15,0,0,1,7.59,17C7.21,15.86,5.43,9.68,7,9a.88.88,0,0,0-.21-1.6Z"/>
        </g>
        <g class="cls-4">
          <path class="cls-5" d="M6.25,8.43C4.47,7.16,3,9.66,2.42,11.1a15.22,15.22,0,0,0,.3,11c2.2,5.32,11.44,9.45,16,4.64a1.11,1.11,0,0,0-.48-1.83c-3.63-1.45-7.88.68-10.88-2.75A10.66,10.66,0,0,1,5.18,16C5.08,14.78,5,10.2,6.25,9.61c.51-.23.37-.91,0-1.18Z"/>
        </g>
        <g class="cls-4">
          <path class="cls-5" d="M7.14,22.39c-.16,3.12,5.41,3.42,7.47,3.72,2.48.37,5.35,0,7.75.63s3.16,3,4.75,4.72a1.5,1.5,0,0,0,2.49-.66c.95-3.33-2-6.45-4.93-7.62-2-.79-4-.66-6.1-.64-.9,0-9.11.21-9.38-.43a1,1,0,0,0-2,.28Z"/>
        </g>
        <g class="cls-4">
          <path class="cls-5" d="M21.87,25.56c1.7,2.36,3.91,4.33,5.73,6.62,2.08,2.63,3.58,5.59,5.54,8.28,1,1.43,3.88.65,3.12-1.31-2.12-5.54-7.71-12.33-13.17-14.82-.72-.32-1.8.42-1.22,1.23Z"/>
        </g>
        <g class="cls-4">
          <path class="cls-5" d="M22.77,25.57c2.36,1.47,4.06,4.93,5.78,7.13,2.05,2.61,4.14,5.18,6.25,7.74,1.38,1.69,3.59-.46,2.81-2.17-1.32-2.9-4-5.25-6.12-7.62l-7.55-8.59-2.57,2.56c5.34,4.38,9.5,9.53,13.82,14.85,1.39,1.72,4.22-.51,3.05-2.35-3.72-5.82-9-10.74-14.3-15.06a1.81,1.81,0,0,0-2.57,2.56l6.74,7.71c2.1,2.4,5,4.89,6.41,7.75l2.81-2.17c-2.56-3-5.13-5.94-7.76-8.85-1.78-2-3.54-4.24-6.09-5.17-1-.37-1.56,1.15-.71,1.68Z"/>
        </g>
        <g class="cls-4">
          <path class="cls-5" d="M36.17,39.37l.16.52h2.33c-2.71-3.75-5.73-7.29-8.47-11-1.92-2.63-3.93-7.38-7.3-8.17a.82.82,0,0,0-1,.78c-.5,3.81,4.27,8.16,6.44,11,2.44,3.2,4.85,7.37,8.5,9.26,1.54.79,2.91-1.55,1.36-2.33l-1-.8a.63.63,0,0,0-1,.76Z"/>
        </g>
        <g class="cls-4">
          <path class="cls-5" d="M22.9,24a37.7,37.7,0,0,1,2.66,3.61l2.61-2c-2.86-3.25-6.5-3.84-10.66-3.46-2.79.26-5.47.69-8.2-.26-2.92-1-3.87-3.25-5.82-5.31a1.11,1.11,0,0,0-1.84.48c-1.07,4,2.48,7.06,5.88,8.41,6.06,2.41,13-1.83,18.29,2.5,1.63,1.32,3.94-.85,2.35-2.36A41.5,41.5,0,0,1,24.92,22c-1.19-1.42-3.16.61-2,2Z"/>
        </g>
        <g class="cls-4">
          <path class="cls-5" d="M5,8C1.2,11.1,1.65,17.29,4.28,21c1.51,2.09,7.89,7,9.3,2.42a1.22,1.22,0,0,0-.84-1.47c-2.59-.7-4.8-1.7-6.19-4.16-1.65-2.93-.77-5.81,0-8.81A.94.94,0,0,0,5,8Z"/>
        </g>
        <g class="cls-4">
          <path class="cls-5" d="M5,8.81c-4.57,3.78-3.18,9.61-.26,14,1.71,2.57,9.2,7,10.44,1.83a1.4,1.4,0,0,0-1.33-1.74c-2.76-.18-4.75-.49-6.35-3-1.78-2.84-3.32-6.33-.39-9C8.53,9.61,6.44,7.61,5,8.81Z"/>
        </g>
        <g class="cls-4">
          <path class="cls-5" d="M5.72,8.88a11.26,11.26,0,0,0,1.21,9.51C8.44,20.8,11,23.39,14,23.6a1.61,1.61,0,0,0,1.13-2.73c-1.54-1.5-3.53-2.26-4.94-4a15.13,15.13,0,0,1-3-7.81.76.76,0,0,0-1.48-.2Z"/>
        </g>
        <g class="cls-4">
          <path class="cls-5" d="M5.73,15.65c1.47,5.79,8.77,11.87,14.88,8.79a1.78,1.78,0,0,0,.92-1.59l0-.61-2.32-.31-.17.65,1-.73c-3.05-.05-6.87.74-9.66-.91-3-1.78-3.81-6-6.11-8.41a1.25,1.25,0,0,0-2.11.88c.1,4.2,3.54,9.49,7.52,11,3.42,1.33,8.85,1.46,11.54-1.37a1.2,1.2,0,0,0-.84-2c-1.18-.11-2.12.4-3.33.34a10.23,10.23,0,0,1-3.75-1.07,14.08,14.08,0,0,1-5.78-5.41,1,1,0,0,0-1.73.73Z"/>
        </g>
        <g class="cls-4">
          <path class="cls-5" d="M4.34,7.27C1.9,11,.47,15.37,2.86,19.46c1.68,2.88,5.75,7.31,9.37,7.13A1.82,1.82,0,0,0,14,25.27a2.26,2.26,0,0,0-.25-1.69,1.37,1.37,0,0,0-2.14-.28l-.15.19,1.5-.39c-2.4-.47-5-3.05-6.39-4.9-2.5-3.26-1.13-6.55-.08-10a1.16,1.16,0,0,0-2.11-.89Z"/>
        </g>
        <g class="cls-4">
          <path class="cls-5" d="M5.59,11c-4,2.83-2.21,9.22.25,12.52,4.94,6.64,12.87,4.76,20,5.93,2.68.44,3.84-3.66,1.13-4.11-4.66-.77-9.92.32-14.35-1.38S4.9,16.55,6.73,11.83A.78.78,0,0,0,5.59,11Z"/>
        </g>
        <g class="cls-4">
          <path class="cls-5" d="M19,25.22a34.38,34.38,0,0,1,9.32,6.29c2.58,2.58,4,6.09,6.48,8.59,1,.94,3,.32,2.89-1.2-.48-4.3-4.54-8.54-7.78-11.17C27.36,25.63,22.32,21.67,19,24a.69.69,0,0,0,0,1.18Z"/>
        </g>
        <g class="cls-4">
          <path class="cls-5" d="M33.05,36.23c1,1.41,2.16,2.72,3.18,4.14,1.23,1.72,4.1.1,2.87-1.68C37.27,36,35,33.61,32.91,31.13c-1.3-1.55-4,.5-2.83,2.19a24.53,24.53,0,0,0,3.51,4.1c1.45,1.36,4.17-.47,2.89-2.23-1.69-2.32-4-5.26-6.94-6A1.28,1.28,0,0,0,28.11,31a20.77,20.77,0,0,0,2.65,3.07c1,1.08,1.94,2.16,2.83,3.31l2.6-2.6a20.56,20.56,0,0,1-3-3.32l-2.83,2.18c2,2.34,3.92,4.88,6.13,7l2.35-2.36a18.08,18.08,0,0,0-4.64-3.26c-.67-.3-1.69.39-1.15,1.14Z"/>
        </g>
        <g class="cls-4">
          <path class="cls-5" d="M22.24,23.81c2.55,2.35,4,5.48,6.57,7.87C31.5,34.23,34.61,36.21,37,39l-.29-2.25-.25.55a1.43,1.43,0,0,0,.84,2.08l.52.1a1.88,1.88,0,0,0,1.81-3.11c-2.92-3.26-6.73-5.4-9.89-8.4-2.12-2-3.86-5.78-7.26-5.27a.65.65,0,0,0-.28,1.08Z"/>
        </g>
        <g class="cls-4">
          <path class="cls-5" d="M39.5,39.1a79.94,79.94,0,0,1-9-10.13c-1.9-2.7-3.6-5.6-5.72-8.14-1.62-1.95-3.34-3.38-6-3-1.68.24-3.07,1.3-4.74,1.6-4.7.88-6.93-2.52-6.78-6.7a1.55,1.55,0,0,0-2.87-.78C.69,19.15,8.7,24.14,15.12,23.21c.61-.09,1.19-.52,1.79-.61,4.72-.71,4.57,0,6.84,3,1.42,1.91,2.78,3.87,4.22,5.75,2.82,3.68,5.9,7.51,10.25,9.37,1,.44,2.18-.73,1.28-1.65Z"/>
        </g>
      </g>
    </g>
  </g>
</svg>
