<svg xmlns="http://www.w3.org/2000/svg" viewBox="0 0 237.27 239.64">
  <defs>
    <style>
      .cls-1 {
        fill: none;
      }

      .cls-2 {
        fill: #5b4069;
      }

      .cls-3 {
        fill: #9261a8;
      }

      .cls-4 {
        fill: #312637;
      }

      .cls-5 {
        fill: #c1b4cb;
      }
    </style>
  </defs>
  <title>Ресурс 2basgitar</title>
  <g id="Слой_2" data-name="Слой 2">
    <g id="Слой_34" data-name="Слой 34">
      <g id="Слой_12" data-name="Слой 12">
        <circle class="cls-1" cx="118.31" cy="120.21" r="112.2"/>
      </g>
      <g id="Слой_33" data-name="Слой 33">
        <path class="cls-2" d="M100.51,6.91c-14-.1-26.5,2.1-38.9,8.9-11.6,6.4-21.1,15.4-30,25-9.1,9.8-17.6,20.1-22.3,32.7a158.77,158.77,0,0,0-8.6,36c-5.1,43.9,17.8,89.8,56.3,111.6,22.9,13,52.1,20.9,78.5,17.9,13.1-1.5,24.8-6.6,35.8-13.8a160,160,0,0,0,14.1-10.4c5.4-4.4,10-9.5,15.4-13.9,9.6-7.9,18.8-15.8,23.9-27.5,5.3-12.2,7.4-25.9,9.9-39s4-26.2,1.1-39.2c-2.7-12.2-8.3-24.1-14.8-34.8a156.26,156.26,0,0,0-23.5-30.1c-9-8.8-20.4-15.8-31.9-20.8a108.78,108.78,0,0,0-37.2-9.2c-14.1-.8-29-.3-42.4,4.8-6.2,2.3-3.5,12.4,2.8,10,39.9-15.2,87.8,6.2,114.8,36.3a96.77,96.77,0,0,1,16.7,26.1c5,11.6,6.1,24.4,5.6,36.9-.5,12.1-3.2,24.1-5.4,36-2.3,12.5-5.3,24.1-14.4,33.6-7.6,8-16.4,14.9-24.9,21.8-9.4,7.7-19.6,14.1-31.2,17.9-23.8,7.7-50.7,3.3-73.8-5.4-38.5-14.5-65.5-50.8-67.3-92-.5-11.8,1.4-23,4.2-34.4,1.6-6.7,3.2-13.5,6.1-19.7,2.9-6.4,7.2-12,11.6-17.3,8.7-10.4,18.4-20.8,29.8-28.2a74.72,74.72,0,0,1,19.6-9.2c7.1-2.1,14.3-2.8,21.3-5.5,2.4-1,2.2-5-.9-5.1Z"/>
      </g>
      <g id="Слой_34-2" data-name="Слой 34">
        <g id="Слой_35" data-name="Слой 35">
          <path class="cls-2" d="M149.51,203.31c-.2-4.9-2.3-9.3-4.9-13.3a43.63,43.63,0,0,1-3.5-5.9,13.28,13.28,0,0,1-1-6.5c.3-4.6,2.2-8.9,3.4-13.3a27.92,27.92,0,0,0-.2-14.9c-.6-2-1.3-4.6-3.5-5.4a3.29,3.29,0,0,0-4.5,2.6c-.4,1.8-.4,3.8-1.2,5.5-.8,2-2.7,2.4-4.7,1.9a10.56,10.56,0,0,1-5.3-3.1c-1.3-1.4-2-3.2-3.1-4.8a6.18,6.18,0,0,0-3.4-2.6,1.37,1.37,0,0,0-2.5-.6,4.76,4.76,0,0,1-3.9,2.3,3.43,3.43,0,0,1-3.5-2.8c-1.2-4.1.3-9-3.7-11.9a4.84,4.84,0,0,0-5.5-.4c-1.9,1.2-2.8,3.6-3.3,5.7-1.1,4.7-.4,9.7.8,14.3,1.2,5.1,2.9,10.2,2.6,15.4-.3,5-2.3,9.7-4.1,14.3-3.4,8.4-6.7,19-.6,27,5.6,7.4,15.6,10.4,24.5,11.5a89.07,89.07,0,0,0,14.6.4c4.3-.2,8.7-.9,12.1-3.7S149.71,207.61,149.51,203.31Z"/>
        </g>
        <g id="Слой_36" data-name="Слой 36">
          <path class="cls-3" d="M143.51,194.81c-1.4-2.5-2.8-5.1-4-7.8s-2.4-5.3-2.3-8.3c.3-5.8,3.8-10.8,4.4-16.6a26,26,0,0,0-1-9.6c-.4-1.5-.7-3-1.2-4.5-.3-.9-.8-1.6-1.8-1.6a.65.65,0,0,0-.6.6,11,11,0,0,1-5.1,9.2c-1.8,1.1-4.1,1.9-6.1.8a43.87,43.87,0,0,1-5.6-4c-.1,0-.1-.1-.2-.1q0-.45-.6-.6a9.59,9.59,0,0,1-4-1.1,18.1,18.1,0,0,1-3-2.5,4.1,4.1,0,0,0-2.3-1.3c-1.2-.1-1.4.5-1.7,1.6-.6,2.5.2,5,.8,7.4a10.52,10.52,0,0,1,.7,4.3,21.34,21.34,0,0,1-1.3,4.3c-1.6,4.7-4.4,10.4-2.9,15.5.7,2.2,2.1,4,4.5,4.4,2.6.5,5.4.5,8,.8,5.3.8,10.3,2.4,14.2,6.2a51.7,51.7,0,0,1,4.9,5.6c1.5,1.9,3,4,5,5.3,1.5,1,3.7,1.7,3.8-.8C146.41,199.31,144.81,196.91,143.51,194.81Z"/>
        </g>
        <g id="Слой_37" data-name="Слой 37">
          <path class="cls-3" d="M129.11,44.41c-1.5-5.3-4.6-10.4-4.1-16.1a9.16,9.16,0,0,1,1.1-3.9c.5-1,1.4-1.8,1.9-2.9.9-2-.4-4.3-2.2-5.4a5.55,5.55,0,0,0-5.7-.1c-2.2,1.3-2.7,3.7-3.3,6-1.7,6-3.3,12-4.9,18-.4,1.6-.8,3.2-1.2,4.9-.3,1.4-1,3-.7,4.4a2.66,2.66,0,0,0,1.7,2,13,13,0,0,1,3.8,2.2c.1.2.2.3.4.3a.45.45,0,0,0,.5,0c1.7,0,3.4.1,5.1.1a.82.82,0,0,0,.6-.4,10.7,10.7,0,0,1,6.7-8.5C129,45,129.21,44.71,129.11,44.41Z"/>
          <path class="cls-4" d="M125.51,202.31c0-.2-.3-.4-.6-.4-4,0-8.1.1-12.1.1a.57.57,0,0,0-1,.4c.1,2.6.2,5.3.3,7.9,0,.3.3.5.6.6q6.45.6,12.9.6a.65.65,0,0,0,.6-.6A83.05,83.05,0,0,0,125.51,202.31Z"/>
          <path class="cls-4" d="M126.81,175.61a67.66,67.66,0,0,1-7.8,0c-2.7-.1-5.4-.1-8.1-.2a.46.46,0,0,0-.5.4.49.49,0,0,0-.3.6,9.86,9.86,0,0,1,.3,2.4.65.65,0,0,0,.6.6c5.2-.1,10.5-.4,15.7-.1a.82.82,0,0,0,.6-.4,8.63,8.63,0,0,0,.2-2.8A.94.94,0,0,0,126.81,175.61Z"/>
          <path class="cls-4" d="M122.51,117.51c-.2-6.8.3-13.4.6-20.2a196,196,0,0,0-.8-20.2,124,124,0,0,1,.1-22.8.65.65,0,0,0-.6-.6c-1.8-.1-3.6-.1-5.5-.2-.2-.4-1.1-.3-1.1.3-.4,15.6-.7,31.1-1,46.7s-.6,31.4-.7,47.1v9.8a2.27,2.27,0,0,0,.5,1.8c1.1.9,3.4.8,4.7.8a14.7,14.7,0,0,0,5.8-1.2.68.68,0,0,0,.4-.6C124,144.91,122.91,131.21,122.51,117.51Z"/>
          <path class="cls-4" d="M117.11,21.41c.3-.3.3-.8-.2-.9-1.2-.2-1.8-.5-2.2-1.7a3.19,3.19,0,0,0-.9-1.6,1.66,1.66,0,0,0-2.4.7c-1.3-.1-2,.8-1.9,2.2a1.61,1.61,0,0,0,.6,1.3.1.1,0,0,1,.1.1h0a1.13,1.13,0,0,0,.1.8c.5,1.5,2,1.2,3.1.8a5.84,5.84,0,0,1,1.8-.4,4.82,4.82,0,0,0,1.2,0,.89.89,0,0,0,.8-1C117.21,21.51,117.21,21.51,117.11,21.41Z"/>
          <path class="cls-4" d="M114.51,28.31c-.8.1-1.6-1.7-2.1-2.2a3,3,0,0,0-1.6-.8c-1.1-.2-1.4.3-1.8,1-1.4-.3-1.9,2-1.1,3.2-.6,1.2,1,2.6,2.2,2.5a2.84,2.84,0,0,0,1.2-.4,8.73,8.73,0,0,1,2.2-.5,1.48,1.48,0,0,0,1.4-1.6A.65.65,0,0,0,114.51,28.31Z"/>
          <path class="cls-4" d="M113.11,36.21a6.3,6.3,0,0,1-2.3-2,3.62,3.62,0,0,0-1.5-1.5,1.51,1.51,0,0,0-2.1,1.1,1.23,1.23,0,0,0-1.3.8,2.64,2.64,0,0,0,.3,2.7c-.6,1,.7,2.8,2,2.6a8.43,8.43,0,0,0,1.4-.6,7.61,7.61,0,0,1,2.1-.3,1.8,1.8,0,0,0,1.5-1.6A.92.92,0,0,0,113.11,36.21Z"/>
          <path class="cls-4" d="M111,43.61a2.47,2.47,0,0,1-2-1.8,3,3,0,0,0-.9-1.3,1.64,1.64,0,0,0-2.4.2,2.19,2.19,0,0,1-.3.5v.1a.31.31,0,0,0-.2.1,2.19,2.19,0,0,0-1,.9,2,2,0,0,0,.3,2.4,2,2,0,0,0,1.9,2.6,16.66,16.66,0,0,0,3-.8,4.22,4.22,0,0,0,1.2-.3c.3-.3.4-.7.7-1a.47.47,0,0,0,.1-.6C111.51,44.21,111.51,43.71,111,43.61Z"/>
          <path class="cls-5" d="M114.41,208.21c-.6-2.5.2-5.2.2-7.7v-17.4c0-2.8-.2-5.6-.1-8.4.1-5.9.6-11.9.4-17.8a74.23,74.23,0,0,1-.2-8.2c.2-3,1.3-5.9,1.3-9,0-2.8-.7-5.3-.4-8.1a71.18,71.18,0,0,0,.1-8c0-2.9,0-5.8.1-8.8s.5-6,.6-9c.1-6-.2-11.8.5-17.7.3-2.5-.2-4.9-.3-7.4,0-2.9.4-5.8.3-8.8-.1-3.2-.2-6.3,0-9.5.1-2.7.5-5.4.5-8.1a10.63,10.63,0,0,0-1.4-5.8c-1.2-2-3-2.6-5-3.5-.1.2-.1.4-.2.6h.3a.3.3,0,0,0,0-.6h-.3a.33.33,0,0,0-.2.6c2.7,1.2,4.7,2.1,5.6,5.2.7,2.3.4,4.8.2,7.2-.5,5.3-.1,10.6-.2,15.9a74.92,74.92,0,0,0-.3,8.2c.1,1.2.2,2.4.3,3.7a26.26,26.26,0,0,1-.5,4.9c-.7,5.3.2,10.8-.1,16.1-.2,5.6-.6,11.2-.6,16.8a78.47,78.47,0,0,1-.1,8.4c-.3,2.7.4,5.1.4,7.7s-.8,5.3-1.2,8a61.72,61.72,0,0,0,.1,8.6c.2,5.6,0,11.3-.3,16.9-.2,2.9.1,5.9.1,8.9-.1,3.2,0,6.4,0,9.7,0,3.1.1,6.1,0,9.2,0,2.5-.7,5-.1,7.5,0,.2.6,0,.5-.3Z"/>
          <path class="cls-5" d="M124,208.51c-.4-3-.1-5.9-.2-8.9-.1-3.6-.3-7.2-.5-10.7a119.28,119.28,0,0,1,.2-18.9,43.11,43.11,0,0,0,0-9.5c-.4-3.1-.9-6.3-1.2-9.4a68.75,68.75,0,0,1-.2-9.1c.1-3.4.5-7.1.3-10.5-.2-2.7-.8-5.3-.7-8,.1-3.6,0-7.1,0-10.7,0-6.4-.3-12.9-.3-19.3,0-3.2.5-6.4.5-9.6s-.2-6.5-.2-9.8a40.55,40.55,0,0,0-.8-6.9c-.5-3.3.5-6.7.5-10.1s.3-7,.2-10.5c0-3.8-.6-7.5-.5-11.3.1-2.8.6-5.9-.3-8.6-.6-1.8-1.8-4.5-3.5-5.4-.3-.2-.6.3-.3.5,1.2.7,1.9,2.6,2.5,3.8a11.08,11.08,0,0,1,1,5.4c0,3-.4,6-.1,9,.7,6,.1,12.1.1,18.1,0,2.9-.9,5.7-.6,8.5a81.69,81.69,0,0,1,.9,8.5c-.1,2.7.1,5.3.2,8,.1,3.3-.5,6.6-.5,10,0,6.3.3,12.6.3,18.8,0,3.1.1,6.2.1,9.3a46.11,46.11,0,0,0,.3,8.3c1.1,6.1-.3,12.6.1,18.8s2.4,12.6,1.8,18.9a151.43,151.43,0,0,0-.5,20.2c.2,3.6.3,7.1.5,10.7s-.1,6.9.3,10.4c.2.2.6.2.6,0Z"/>
          <path class="cls-5" d="M117.61,208c-.4-2.5.2-5.4.1-8-.1-3.1-.1-6.3-.3-9.4a73.11,73.11,0,0,1-.3-8.1c.1-3,.6-5.9.4-8.9-.2-5.7-1.3-11.6-.7-17.3s1.4-11.1.7-16.9c-1.3-11.6.3-23.3.5-34.9.2-12,.4-24.1.5-36.1,0-6.6-.3-13.2-.1-19.8a17.12,17.12,0,0,0-.8-7.1,8.25,8.25,0,0,0-4.6-4.2c-.3-.1-.5.3-.2.4a8.1,8.1,0,0,1,5,7.4c.2,2.6-.1,5.3-.1,8,0,5.8.2,11.5.1,17.3-.1,11.7-.3,23.3-.5,35-.1,11.1-1.9,22.4-.5,33.6.7,5.8.1,11.2-.6,16.9-.6,5.3.2,11.1.6,16.5.3,3.1-.2,6.2-.3,9.3s.2,6.4.4,9.6.2,6.3.3,9.4c.1,2.5-.5,5.2,0,7.6.1,0,.4-.1.4-.3Z"/>
          <path class="cls-5" d="M120.71,207.71c-.7-2.4-.4-5.5-.2-7.9a88.13,88.13,0,0,0-.2-8.9c-.1-3-.8-6.1-.6-9.1.1-2.7,1-5.4.8-8.1-.2-3.4-.4-6.7-.5-10.1,0-3.2-.2-6.4-.2-9.7,0-3.1.4-6.1.5-9.2s-.2-6-.2-9c0-3.2-.2-6.4-.4-9.6s.1-6.3.1-9.4c0-2.9-.4-5.8-.5-8.7a80.31,80.31,0,0,1,.4-9.8c.8-12.4-.8-24.6,0-37a92.15,92.15,0,0,0,.4-10.5c-.1-3.1-.8-6.2-.9-9.3-.1-4.7-.1-10.2-5.1-12.2-.3-.1-.5.4-.2.5,5.9,2.5,4.3,10.8,4.9,16,.8,6.1.4,12,0,18.2a107,107,0,0,0,.3,17.9,101.13,101.13,0,0,1-.2,17.4,87.23,87.23,0,0,0-.3,8.9c.1,3.1.5,6.1.5,9.1s-.3,5.9-.1,9,.4,6.4.4,9.6c0,2.7.2,5.4.2,8.1,0,3.1-.4,6.1-.5,9.2-.1,2.9.1,5.8.2,8.6.1,3.1-.1,6.2.1,9.3a25.73,25.73,0,0,1,.1,6.2c-.2,1.2-.4,2.4-.5,3.7-.3,3.3.4,6.7.5,10s.3,6.5.1,9.8a24.73,24.73,0,0,0,.3,7.2c.4.2.8.1.8-.2Z"/>
        </g>
        <g id="Слой_38" data-name="Слой 38">
          <path class="cls-2" d="M114.41,207.61a.79.79,0,0,0-1,.9.81.81,0,0,0,1.4.5.9.9,0,0,0-.2-1.5,1,1,0,0,0-1.4,1,.94.94,0,0,0,1.4.7,1.08,1.08,0,0,0,.2-1.7,1,1,0,0,0-1.6.3,1.15,1.15,0,0,0,.7,1.6.91.91,0,0,0,1.1-.6,1,1,0,0,0-1.2-1.3,1,1,0,0,0-.3,1.8c.5.3,1.3-.1,1.2-.7s-.4-.3-1.1.4c-.1-.1-.1-.3-.2-.4v-.3c.3-.2.6-.4,1-.7,0,.1.1.1.2.2s.1.3.2.4c0,.3,0,.5-.2.6s-.3.1-.4.1h0c-.1,0-.3-.1-.4-.1a.1.1,0,0,1-.1-.1c-.1-.1-.1-.2-.2-.4,0,.1,0,.1.1.2V208l.3-.3h0c.1,0,.3-.1.4-.1s.4.3.6.4v.3c-.1.1-.1.2-.2.4-.1,0-.1,0-.2.1s-.4-.1-.6-.1a.83.83,0,0,0,.8-.3c.3-.2.1-.6-.3-.8Z"/>
          <path class="cls-2" d="M116.91,207.71c-.6.5,0,1.3.6,1.4a.88.88,0,0,0,.6-1.5c-.6-.7-1.8,0-1.6.9a.94.94,0,0,0,1.8.1,1,1,0,0,0-1.2-1.2,1.16,1.16,0,0,0-.7,1.7,1,1,0,0,0,1.8,0,1.26,1.26,0,0,0-.8-1.8c-.5-.2-.9.2-1.1.6s-.1.9.3,1.1a.81.81,0,0,0,1.4-.6v-.1c-.4.2-.7.4-1.1.6-.4-.3-.4-.7-.2-.9a.76.76,0,0,1,.4-.2h.1c.1,0,.3.1.4.1-.2.3-.3.7-.5,1-.1-.1-.2-.1-.4-.2h0c-.1-.1-.1-.2-.2-.4v-.1c0-.1.1-.3.1-.4v.1c.2-.1.5-.3.7-.4h-.1c.1,0,.3.1.4.1h-.1l.3.3v-.1c0,.1.1.3.1.4v-.1c0,.1-.1.3-.1.4a.1.1,0,0,1,.1-.1l-.3.3h-.7l-.1-.1c0-.1-.1-.2-.1-.4v.1c0-.1.1-.2.1-.4.3-.4.6-.4.8-.1s.2.3.2.1c.1-.5-.6-.5-.9-.2Z"/>
          <path class="cls-2" d="M120.21,207.51a.8.8,0,0,0-.1,1.5.93.93,0,0,0,1.3-1.1,1,1,0,0,0-1.8-.3,1.08,1.08,0,0,0,0,1.1,1,1,0,0,0,1.3.3.84.84,0,0,0,.3-1.2c-.5-.6-1.3-.8-1.8-.1a1.13,1.13,0,0,0,.3,1.6,1.11,1.11,0,1,0,.6-2.1,1.14,1.14,0,0,0-1.1,1.4,1.09,1.09,0,0,0,1.6.7,1.2,1.2,0,0,0,.2-1.8,1.08,1.08,0,0,0-1.7.2.75.75,0,0,0,0,.9h0c.3.4,1,.6,1.3.2.1-.1.1-.2.2-.3l-.3.3a.9.9,0,0,0-.5.1.76.76,0,0,0-.4-.2c0-.1-.1-.1-.1-.2V208c0-.1.1-.1.1-.2a.76.76,0,0,1,.4-.2h.3a.76.76,0,0,0,.4.2.35.35,0,0,0,.1.2v.5c-.1.1-.1.2-.2.3s-.3.1-.5.1H120a.76.76,0,0,0-.4-.2.62.62,0,0,1-.1-.7l.3-.3c.1,0,.2-.1.3-.1s.3.1.4.1h-.1l.3.3c-.1.3-.1.5-.2.8-.1,0-.3.1-.4.1h.1c-.1,0-.3-.1-.4-.1h0c.1-.5.1-.9.2-1.4h-.1c.1,0,.3-.1.4-.1h-.1l.6.3h0c.1.1.1.3.2.4v.2c-.1.1-.1.2-.2.4v-.1c-.1.1-.2.1-.4.2h.1c-.2,0-.4-.1-.6-.1a.1.1,0,0,1,.1.1l-.3-.3a.1.1,0,0,0,.1.1c0-.1-.1-.3-.1-.4.2-.2.4-.3.6-.5.1,0,.2.1.4.1a.35.35,0,0,1,.1.2c.1-.4-.2-.5-.6-.4Z"/>
          <path class="cls-2" d="M123.71,207.71c-1.1-.1-1,1.9.3,1.6,1.1-.2.8-1.9-.3-1.8s-1.1,2,.1,2a1,1,0,0,0,.9-1,1.17,1.17,0,0,0-.9-1.1,1,1,0,0,0-1,.4c-.8,1.2,1.1,2.4,1.8,1.2s-1.4-2.4-2.1-1a1.12,1.12,0,0,0,2,1c.8-1.4-1.6-2.4-2-.8a.88.88,0,0,0,1.6.7l-.1.1a.76.76,0,0,1-.4.2c-.2-.1-.4-.1-.5-.2a.76.76,0,0,1-.2-.4v-.1c0-.2.1-.3.1-.5.3,0,.6-.1.9-.1a.76.76,0,0,1,.2.4v.2a.76.76,0,0,0-.2.4,1.27,1.27,0,0,0-.6.1l-.3-.3V208l.3-.3a.64.64,0,0,1,.6,0l.3.3v.6h0c-.3.1-.7.3-1,.4h0l-.3-.3v-.4c.1-.1.1-.3.2-.4h0c.3.1.4,0,.6-.2l-.1.1h.4c.1.1.2.1.4.2l-.1-.1c.1.1.1.2.2.4h0c0,.1-.1.3-.1.4v-.1l-.3.3h.1c-.2,0-.4.1-.6.1h.1c-.1-.1-.2-.1-.3-.2l.1.1c-.1-.1-.1-.2-.2-.3v-.3c.1-.1.1-.2.2-.3s.2-.1.4-.1h-.1c.2.1.3.1.5.2v.1a.9.9,0,0,1-.1.5v-.1c.3-.4-.1-.8-.5-.9Z"/>
        </g>
      </g>
    </g>
  </g>
</svg>
