<svg xmlns="http://www.w3.org/2000/svg" viewBox="0 0 41.09 40.21">
  <defs>
    <style>
      .cls-1 {
        fill: #6b2b72;
      }

      .cls-2, .cls-4 {
        fill: #c384cc;
      }

      .cls-2, .cls-3 {
        opacity: 0.1;
      }

      .cls-5 {
        opacity: 0.07;
      }

      .cls-6 {
        fill: #422047;
      }

      .cls-7 {
        opacity: 0.02;
      }

      .cls-8 {
        opacity: 0.9;
      }
    </style>
  </defs>
  <title>Ресурс 27enter</title>
  <g id="Слой_2" data-name="Слой 2">
    <g id="иконки_входа" data-name="иконки входа">
      <g id="Слой_237" data-name="Слой 237">
        <path class="cls-1" d="M40.9,37.43c-1.78-11.24-1.56-22.63-1.27-34A2.19,2.19,0,0,0,37.5,1.32c-6.92-.78-13.76,1.29-20.68.43-1.84-.23-2.42,1.64-1.77,3-1.14,11.08,1.2,22.45,1.21,33.59a1.83,1.83,0,0,0,1.8,1.8c7,.27,13.9.15,20.84-.07A2.12,2.12,0,0,0,40.9,37.43ZM24.19,22c-.52.73-2.88,1.21-3.47.47A2.24,2.24,0,0,1,21.87,19c1.23-.49,1.79.1,2.38.89C24.17,20.42,24.45,21.59,24.19,22Z" transform="translate(0 -0.67)"/>
      </g>
      <g id="Слой_236" data-name="Слой 236">
        <path class="cls-2" d="M34.74,5.16a4.36,4.36,0,0,0-1.51-.22h-.07a27.6,27.6,0,0,0-7.9.86c-1.16,0-2.59.07-3.37.72a2.6,2.6,0,0,0-.79,1.76.72.72,0,0,0,0,.29c0,.62,0,1.25,0,1.76s0,1.14,0,1.71a5.72,5.72,0,0,0,.81,4.21,1.24,1.24,0,0,0,2.33-.52c0-.61,0-1.24-.06-1.88A11.76,11.76,0,0,0,24,10.45a8.56,8.56,0,0,1,.09-1.52c2.06-.44,4.59,0,6.6-.12,1.72-.11,3.27-.18,3.95-2a1.1,1.1,0,0,0,0-.16c.14-.09.29-.18.42-.28A.75.75,0,0,0,34.74,5.16Z" transform="translate(0 -0.67)"/>
        <path class="cls-2" d="M39.59,6.08c-.14-1.3-.06-3.69-1.25-4.54-1-.7-3.07-.54-4.26-.57a36.37,36.37,0,0,0-5,.3c-3.49-1-8.33-.84-11.55,1a3.14,3.14,0,0,0-1.49.5,1.8,1.8,0,0,0-1.4,1.75,1.86,1.86,0,0,0-.19.5,5,5,0,0,0,.34,1.9,17,17,0,0,1,.2,3.83,18.85,18.85,0,0,0,.45,5.47c0,.24.07.49.11.72a30.77,30.77,0,0,0,.23,5.51c.09.57.87.45,1,0a23.25,23.25,0,0,0,1-4.57,1.2,1.2,0,0,0,.76-1.3l-.39-5.87a1.54,1.54,0,0,0-.3-.8c0-.43,0-.87-.09-1.31,0-.78-.07-1.55-.1-2.29a1,1,0,0,0-.29-.69,3.12,3.12,0,0,1,1-.37c1.64-.38,3.29-.19,4.93-.53a.8.8,0,0,0,.53-.37,29.07,29.07,0,0,0,4.45-.46.26.26,0,0,0,.2-.15l.9.09a1,1,0,0,0,.89-.35l2.35-.1a16.9,16.9,0,0,1,4.07.1c.63,2.84-.43,5.95,1,8.64a.63.63,0,0,0,1.07,0C40,10.31,39.81,8.16,39.59,6.08Z" transform="translate(0 -0.67)"/>
        <path class="cls-2" d="M35.05,22.3H33.62a29.26,29.26,0,0,0-7.06.33,7.45,7.45,0,0,0-3.48.92.63.63,0,0,0-.12,1c.07.07.15.12.22.18a1.3,1.3,0,0,0-.18.23c-.37-.33-1,.07-.91.61a25.66,25.66,0,0,1,.07,4.88A5.27,5.27,0,0,0,22.58,33c0,.2.07.42.12.62.08,1.06.09,2,1.06,2.7a.92.92,0,0,0,1.11-.15,2.16,2.16,0,0,0,.53-1.77,15.4,15.4,0,0,0,0-3.59,32,32,0,0,0-.48-4.59,1,1,0,0,0-.12-.28,30,30,0,0,0,3-.13,8,8,0,0,0,3.85-.72A.4.4,0,0,0,31.8,25c1.08,0,2.17.05,3.25.05A1.36,1.36,0,0,0,35.05,22.3Z" transform="translate(0 -0.67)"/>
        <g class="cls-3">
          <path class="cls-4" d="M15.17,3.74c-.6,1.74-.33,3.69-.26,5.5a26.41,26.41,0,0,0,.69,5.54c.14.54,1.07.61,1.16,0a28.18,28.18,0,0,0,.09-5.95A14.26,14.26,0,0,0,16,3.63c-.18-.38-.72-.23-.84.11Z" transform="translate(0 -0.67)"/>
        </g>
        <g class="cls-3">
          <path class="cls-4" d="M15.78,4.19C14.63,5.66,15,8.1,15,9.85c0,2.91-.1,5.79.67,8.61a.64.64,0,0,0,1.22,0c.95-4.68-.26-9.34-.45-14,0-.28-.42-.53-.64-.26Z" transform="translate(0 -0.67)"/>
        </g>
        <g class="cls-3">
          <path class="cls-4" d="M16.14,3.6V3.5L15.48,4c1.83-.06,3.65-.37,5.47-.5,1.46-.1,2.94.09,4.28-.52a.48.48,0,0,0,0-.82c-1.42-.71-3.09-.45-4.65-.34a21.43,21.43,0,0,0-5.28.87.68.68,0,0,0-.4,1,1.3,1.3,0,0,0,.57.61c.45.29.86-.26.67-.67Z" transform="translate(0 -0.67)"/>
        </g>
        <g class="cls-3">
          <path class="cls-4" d="M16.61,3.1a18.26,18.26,0,0,0,5.51.77c2.11.14,4.23.33,6.32.59V2.09C24.94,2,20.38,1.94,17.1,3.31c-.6.25-.81,1.28,0,1.44,3.64.72,7.63-.44,11.34-.29,1.57.07,1.47-2.18,0-2.37-3.62-.48-8.49-1.28-11.9.47-.26.12-.15.46.07.54Z" transform="translate(0 -0.67)"/>
        </g>
        <g class="cls-3">
          <path class="cls-4" d="M16.59,4c-.18,3.92-1.23,7.93-1,11.85a.85.85,0,0,0,1.66.23c1.3-3.81.79-8.15.54-12.08a.59.59,0,0,0-1.18,0Z" transform="translate(0 -0.67)"/>
        </g>
        <g class="cls-3">
          <path class="cls-4" d="M21.55,8.21a9,9,0,0,0-.32,2.93,7.73,7.73,0,0,0,.18,3,.81.81,0,0,0,1.55,0,7.73,7.73,0,0,0,.18-3,9,9,0,0,0-.32-2.93.67.67,0,0,0-1.27,0Z" transform="translate(0 -0.67)"/>
        </g>
        <g class="cls-3">
          <path class="cls-4" d="M21.33,9.13a13.81,13.81,0,0,1,0,2.65h1.57c-.08-1-.38-2.21.6-3A7.85,7.85,0,0,1,26.91,8c1.4-.14,3.1.29,4.32-.47a.49.49,0,0,0,0-.84c-1.09-.78-2.72-.51-4-.43A13.76,13.76,0,0,0,23.36,7c-2.47.91-2.7,2.6-2,5,.27,1,1.66.56,1.51-.42A16.13,16.13,0,0,0,22.23,9c-.15-.47-.94-.42-.9.12Z" transform="translate(0 -0.67)"/>
        </g>
        <g class="cls-3">
          <path class="cls-4" d="M28.66,5.92A20.92,20.92,0,0,0,25,6.17c-.87.14-2.41.3-3.05,1s-.27,1.71-.23,2.5a10.4,10.4,0,0,0,.51,3.6.68.68,0,0,0,1.23-.16,8.45,8.45,0,0,0,0-2.51,6.9,6.9,0,0,1,0-2.26l-.57.44a17.09,17.09,0,0,1,5.73-.89,1,1,0,0,0,0-1.95Z" transform="translate(0 -0.67)"/>
        </g>
        <g class="cls-3">
          <path class="cls-4" d="M22.09,26.48c.08,2.72-.4,6,.37,8.59a.6.6,0,0,0,1.14,0c.87-2.56.33-5.93.21-8.59-.06-1.1-1.76-1.11-1.72,0Z" transform="translate(0 -0.67)"/>
        </g>
        <g class="cls-3">
          <path class="cls-4" d="M22.46,28.56c0,1,.05,1.93.07,2.89a5.28,5.28,0,0,0,.38,2.62,1,1,0,0,0,1.71,0,5,5,0,0,0,.26-2.62c0-1-.05-1.93-.07-2.89a1.18,1.18,0,0,0-2.35,0Z" transform="translate(0 -0.67)"/>
        </g>
        <g class="cls-3">
          <path class="cls-4" d="M22.54,26.12c0,1.36,0,2.72,0,4.09A6.5,6.5,0,0,0,23,33.55a.69.69,0,0,0,1.19,0,6.29,6.29,0,0,0,.34-3.34c0-1.37-.11-2.73-.17-4.09a.89.89,0,0,0-1.78,0Z" transform="translate(0 -0.67)"/>
        </g>
        <g class="cls-3">
          <path class="cls-4" d="M24.39,25.75c0-.81,6.76-1.1,7.55-1.18l-.71-1.7c-.66.56-3.27.29-4.16.24a8.72,8.72,0,0,0-3.74.15l.11.81c1.75,0,3.53.52,5.25.16a.58.58,0,0,0,0-1.11c-1.71-.37-3.5.14-5.25.12a.42.42,0,0,0-.29.71c1.23,1.25,3.19,1.23,4.84,1.22,1.44,0,3.5.11,4.65-.9a1,1,0,0,0-.7-1.7c-2.3.28-4.62.47-6.9.82-1.41.22-2.47.83-2.55,2.36-.06,1.21,1.82,1.21,1.9,0Z" transform="translate(0 -0.67)"/>
        </g>
        <g class="cls-3">
          <path class="cls-4" d="M23.59,24.65c0,1.82-.34,3.78.09,5.57a.73.73,0,0,0,1.39,0c.54-1.76.16-3.78-.05-5.57-.11-.89-1.43-.95-1.43,0Z" transform="translate(0 -0.67)"/>
        </g>
        <g class="cls-3">
          <path class="cls-4" d="M16.19,24c-.43,1.63,0,3.59,0,5.28a15.59,15.59,0,0,0,.61,5.57c.22.54,1.12.53,1.1-.15-.08-2.06-.26-4.14-.35-6.21-.07-1.49,0-3.29-.89-4.56a.29.29,0,0,0-.52.07Z" transform="translate(0 -0.67)"/>
        </g>
        <g class="cls-3">
          <path class="cls-4" d="M16.09,32q.33,3.57.31,7.15a1.13,1.13,0,0,0,.82,1.08c1.14.43,2.21,0,3.35-.19s2.87.06,4-.76a.78.78,0,0,0,.16-1.21c-.93-.83-2-.74-3.15-.58s-2.69,1-3.73.58l.82,1.08A71.24,71.24,0,0,0,18.21,32c-.15-1.34-2.25-1.37-2.12,0Z" transform="translate(0 -0.67)"/>
        </g>
        <g class="cls-3">
          <path class="cls-4" d="M24.39,38.59a17.53,17.53,0,0,0-2.93-.68c-1.81-.24-2.7-.45-2.83-2.49s.29-4-.66-5.93a.37.37,0,0,0-.66.08c-.52,1.7-.32,3.55-.42,5.3a6.81,6.81,0,0,0,.38,3.47c1.21,2.45,5,1.56,7.12,1.16.48-.09.41-.78,0-.91Z" transform="translate(0 -0.67)"/>
        </g>
        <g class="cls-3">
          <path class="cls-4" d="M17.27,26.24l.24,5.92a17.9,17.9,0,0,0,.54,5.22c.16.48,1,.59,1.08,0,.65-3.46-.45-7.66-.8-11.14-.07-.67-1.09-.7-1.06,0Z" transform="translate(0 -0.67)"/>
        </g>
        <g class="cls-3">
          <path class="cls-4" d="M14.92,20.61c.34,2.84.61,5.68.88,8.53.22,2.23.18,4.56,1.09,6.62.25.58,1.13.37,1.28-.16.64-2.22.19-4.75,0-7-.25-2.66-.57-5.31-.91-8-.19-1.45-2.5-1.48-2.32,0Z" transform="translate(0 -0.67)"/>
        </g>
        <g class="cls-3">
          <path class="cls-4" d="M15.18,24.4c.32,2.51.65,5,1,7.53.32,2.19.22,5.93,1.35,7.85a2,2,0,0,0,2,1.1A16.69,16.69,0,0,0,26,39.52c.76-.33.29-1.39-.39-1.44a17.22,17.22,0,0,0-3.78.4c-.59.08-1.88.51-2.43.11s-.43-2.53-.51-3Q18,30,17.25,24.4c-.17-1.3-2.23-1.32-2.07,0Z" transform="translate(0 -0.67)"/>
        </g>
        <g class="cls-5">
          <path class="cls-6" d="M24.85,16.1a9.75,9.75,0,0,0,2.64.53,8.09,8.09,0,0,0,2.5.13c.45-.07.34-.66,0-.79a9.11,9.11,0,0,0-2.55-.39,8.87,8.87,0,0,0-2.52,0,.3.3,0,0,0-.07.54Z" transform="translate(0 -0.67)"/>
        </g>
        <g class="cls-5">
          <path class="cls-6" d="M25.6,16.68a71.44,71.44,0,0,0,7.31.27l-.18-1.33a15.4,15.4,0,0,1-6.16-.12L26.37,17c1.49,0,3,.08,4.48.1a3.14,3.14,0,0,0,2.57-.72.49.49,0,0,0-.21-.8c-2.13-.53-4.66-.07-6.84-.06-.81,0-1.05,1.33-.2,1.46a16.15,16.15,0,0,0,6.92,0,.69.69,0,0,0-.18-1.34q-3.64.2-7.31,0c-.68,0-.66,1,0,1Z" transform="translate(0 -0.67)"/>
        </g>
        <g class="cls-5">
          <path class="cls-6" d="M32.79,16c-1.46.27-3.19-.81-4.61-1.12A42.65,42.65,0,0,0,24,14.28v2.08c3.16.08,6.37.31,9.53.2,1.88-.06,2.63-1.51,1.93-3.28a.94.94,0,0,0-1.79,0c-.44,1.6-2.9.94-4.28,1l-5.39,0a1,1,0,0,0,0,2.08,59.47,59.47,0,0,1,6.1.78,4.49,4.49,0,0,0,3-.41c.42-.22.12-.8-.3-.72Z" transform="translate(0 -0.67)"/>
        </g>
        <g class="cls-5">
          <path class="cls-6" d="M33.05,11.29a37.6,37.6,0,0,0-.36,4.1H34.9c0-1.14,0-2.28.05-3.43H32.66c0,.84.4,2.32.09,3.08s.18.11-.46.46a6.15,6.15,0,0,1-1.51.31c-1.9.29-3.52-.47-5.37-.46a1.28,1.28,0,0,0,0,2.56l4.49.21A8.79,8.79,0,0,0,33.37,18c1.53-.58.87-3.06-.68-2.47-1,.39-2.35.07-3.43,0l-3.85-.18v2.56c1.31,0,2.55.54,3.87.56a12.81,12.81,0,0,0,4.16-.67C36,16.91,35.07,14.08,35,12a1.15,1.15,0,0,0-2.29,0l0,3.43a1.11,1.11,0,0,0,2.21,0,32.48,32.48,0,0,1,.2-3.82c.12-1.16-1.89-1.44-2.05-.28Z" transform="translate(0 -0.67)"/>
        </g>
        <g class="cls-5">
          <path class="cls-6" d="M33.54,15.09a74.93,74.93,0,0,0-10.16-.19c-1.56.12-1.61,2.5,0,2.47,2.16,0,4.31-.07,6.46-.05,1.33,0,3.42.51,4.62,0a1.83,1.83,0,0,0,1.14-1.7c.24-1.62.38-3.61-.8-4.83a.74.74,0,0,0-1,0,2.67,2.67,0,0,0-.83,2.24,10.71,10.71,0,0,1,0,2.59c.66-1-.45-.88-1.1-.89-2.82,0-5.65,0-8.48.15l.33,2.43c3.32-.65,6.78.18,10-1.16a.55.55,0,0,0-.14-1.08Z" transform="translate(0 -0.67)"/>
        </g>
        <g class="cls-5">
          <path class="cls-6" d="M32.69,11.45c-.19,1.57-.68,3.8.07,5.28a.78.78,0,0,0,1.33,0,6.24,6.24,0,0,0,.42-2.47c.06-.94.08-1.87.16-2.81.11-1.29-1.82-1.24-2,0Z" transform="translate(0 -0.67)"/>
        </g>
        <g class="cls-5">
          <path class="cls-6" d="M26.67,34.28l-.06,0,.62.17,0-.09-.67.66c1.95.92,5.14,1.29,7.11.35a.64.64,0,0,0,0-1.09,8.81,8.81,0,0,0-3.71-.52c-1,0-2.49-.27-3.36.24a.63.63,0,0,0-.27.68.57.57,0,0,0,.32.39.45.45,0,0,0,.62-.16l0-.06a.44.44,0,0,0-.6-.6Z" transform="translate(0 -0.67)"/>
        </g>
        <g class="cls-5">
          <path class="cls-6" d="M28.64,35c1.2.74,2.86.6,4.23.65,1.15.05,2.71.32,3.62-.59s.72-2.25.77-3.27a9.63,9.63,0,0,0-.47-4.4c-.41-.91-1.71-.37-1.75.48,0,1.08-.11,2.16-.19,3.24A6.72,6.72,0,0,0,34.92,34a.86.86,0,0,0,1.55.2c1-1.69.55-4.47.45-6.37l-1.85-.25a12.42,12.42,0,0,0-.14,2.86c0,.53,0,1.05-.06,1.57,0,.35,0,.7-.07,1.05s0,.59-.15.39a13.59,13.59,0,0,1-1.5-.05l-1.7.07a5.87,5.87,0,0,0-2.81.58.54.54,0,0,0,0,.91Z" transform="translate(0 -0.67)"/>
        </g>
        <g class="cls-5">
          <path class="cls-6" d="M34.36,30.94A12.33,12.33,0,0,1,34.25,33c0,.5-.27.66-.82.49l-1.4.1c-1.87.13-3.74.17-5.62.15l.34,2.51a16.3,16.3,0,0,1,5.37-.74c1.08,0,2.32.4,3.21-.44s.85-2.44.93-3.56c.11-1.45.23-3.1-.6-4.35a.59.59,0,0,0-1,0c-1.29,1.81-.79,4.45-1.43,6.51l.61-.8c-.38.28-1.25,0-1.72,0a18.83,18.83,0,0,0-2.25.11,19.06,19.06,0,0,0-3.8.81,1.28,1.28,0,0,0,.34,2.5,37.61,37.61,0,0,0,8.22-.45c2.3-.54,1.78-2.47,2.07-4.27.24-1.52-2.07-2.19-2.34-.64Z" transform="translate(0 -0.67)"/>
        </g>
        <g class="cls-5">
          <path class="cls-6" d="M34,27.22c0,1.07-.07,2.14,0,3.22a5.29,5.29,0,0,0,.42,2.93,1.15,1.15,0,0,0,2,0,5,5,0,0,0,.2-2.93c-.09-1.08-.22-2.15-.36-3.22a1.09,1.09,0,0,0-2.17,0Z" transform="translate(0 -0.67)"/>
        </g>
        <g class="cls-5">
          <path class="cls-6" d="M34.43,28.24a10.81,10.81,0,0,0-.74,5.29c.1,1.7,2.73,1.72,2.66,0A25.39,25.39,0,0,0,36,28.44a.87.87,0,0,0-1.58-.2Z" transform="translate(0 -0.67)"/>
        </g>
        <g class="cls-5">
          <path class="cls-6" d="M33.53,31.84a3.16,3.16,0,0,1-2.73,1.47c-1.1,0-2.2.06-3.3,0a1.46,1.46,0,0,0-1,2.47,2.68,2.68,0,0,0,2.65.57,21.42,21.42,0,0,0,4.36-.93,1.31,1.31,0,0,0,1-1.26c0-.11,0-.23,0-.34a1.32,1.32,0,0,0-1.26-1,13.22,13.22,0,0,0-2.72.33l-1.29.23-.52.09c-.52,0-.55.09-.09.22l-1,2.48A21.25,21.25,0,0,0,32.35,36a5.68,5.68,0,0,0,3.33-2.5c.94-1.23-1.17-2.87-2.15-1.67Z" transform="translate(0 -0.67)"/>
        </g>
        <g class="cls-5">
          <path class="cls-6" d="M28.92,34.55v-.09l-.91.7a11.68,11.68,0,0,0,3.59.09c1.21-.06,2.66.2,3.78-.34,1.44-.71,1.78-3.12,1-4.42a.78.78,0,0,0-1.07-.28,2,2,0,0,0-1,1.66c-.12,1,.17.95-.75,1-1.12.1-2.21.21-3.32.37a6.08,6.08,0,0,0-2.48.56.73.73,0,0,0,.56,1.33h.07a.66.66,0,0,0,.46-.6Z" transform="translate(0 -0.67)"/>
        </g>
        <g class="cls-5">
          <path class="cls-6" d="M37.33,18.59c-.84,3.48-.15,7.39.14,10.92.17,2.1,0,4.5,1.81,5.86.4.3.88-.12.91-.53.23-2.71-.51-5.82-.84-8.52s-.49-5.37-1.58-7.78c-.08-.19-.39-.13-.44.05Z" transform="translate(0 -0.67)"/>
        </g>
        <g class="cls-5">
          <path class="cls-6" d="M37.64,27a23.24,23.24,0,0,0-.33,4.49c0,1.31.68,3.9.19,5.09-.58,1.45-3.79,1.12-5,1.21-2,.14-4.08.29-6.13.29l.35,2.58a58.23,58.23,0,0,1,8.09-1.09c2-.09,4.09.27,5.79-.93.71-.5.82-2-.28-2.14-4.52-.63-10,.29-14.3,1.62-1.35.42-1.19,2.72.35,2.59,2.72-.24,5.45-.33,8.17-.56,1.48-.13,3.62.1,4.72-1.06,1.23-1.31.68-3.6.52-5.17A31.13,31.13,0,0,0,38.55,27c-.14-.41-.82-.49-.91,0Z" transform="translate(0 -0.67)"/>
        </g>
        <g class="cls-5">
          <path class="cls-6" d="M26.28,38.05c1.84,1.09,3.92.82,6,.77,2.21-.06,4.74.47,6.88-.08a1.43,1.43,0,0,0,1-1.75l-.06-.25a1,1,0,0,0-.7-.7,29.4,29.4,0,0,0-6.21.15c-2.23.16-4.51.36-6.72.68-.58.08-.6.93-.16,1.18Z" transform="translate(0 -0.67)"/>
        </g>
        <g class="cls-5">
          <path class="cls-6" d="M26.09,21.11a35.21,35.21,0,0,0-5.35,14,1.14,1.14,0,0,0,2.08.87c2.84-4.45,3.69-9.88,6.91-14.11l-2.22-1.3a58.86,58.86,0,0,0-5.26,12.62,1.42,1.42,0,0,0,2.59,1.08,66.62,66.62,0,0,1,7-10.78l-2.28-1.75a94.23,94.23,0,0,0-6.05,12.36c-.68,1.7,1.89,2.54,2.8,1.18l7.37-10.9L31,22.77a68,68,0,0,0-6.52,12.41C24,36.6,26.14,37.92,27.1,36.7q4.38-5.55,8.34-11.4c1.13-1.67-1.56-3.22-2.69-1.58a71.85,71.85,0,0,0-6.18,10.81A1.57,1.57,0,0,0,29,36.42c3.12-2.46,5.36-6.35,7.73-9.48l-2.69-1.57L30.37,32c-.83,1.5-1.65,2.62-1.06,4.31a1.57,1.57,0,0,0,2.6.69l5.51-6.57L35,28.58l-3.62,8c-.69,1.53,1.11,3.22,2.44,1.89,1.56-1.56,3-3.21,4.37-4.91l-2.6-1.51-1.68,5.17c-.56,1.71,1.94,2.67,2.84,1.2.77-1.26,1.49-2.53,2.15-3.85l-2.53-1.07A10.86,10.86,0,0,1,35,37.12c-.88,1.58,1.55,3,2.42,1.42A15.94,15.94,0,0,0,39,34.25a1.39,1.39,0,0,0-2.53-1.07c-.87,1.19-1.68,2.42-2.45,3.67l2.85,1.2,1.68-5.17C39,31.46,37,30.16,36,31.37c-1.4,1.69-2.81,3.35-4.37,4.9L34,38.16l3.62-8c.67-1.47-1.21-3.36-2.45-1.89l-5.5,6.57,2.6.69c-.33-1,1.72-3.65,2.17-4.47q1.14-2.06,2.27-4.11c1-1.81-1.51-3.13-2.69-1.57-2.24,2.95-4.31,6.54-7.24,8.85l2.45,1.89A72.17,72.17,0,0,1,35.44,25.3l-2.69-1.58Q29,29.26,24.89,34.49L27.51,36a65.26,65.26,0,0,1,6.18-11.68c1.06-1.7-1.58-3.2-2.68-1.56L23.68,33.69l2.8,1.18a90.58,90.58,0,0,1,5.6-11.72c.79-1.38-1.19-3.06-2.28-1.76A69,69,0,0,0,22.4,32.8L25,33.89a68,68,0,0,1,4.75-12.07,1.29,1.29,0,0,0-2.22-1.3c-2.94,4.43-4,9.72-6.66,14.27l2.12.57A42.1,42.1,0,0,1,27.26,21.8a.68.68,0,0,0-1.17-.69Z" transform="translate(0 -0.67)"/>
        </g>
        <g class="cls-5">
          <path class="cls-6" d="M37.19,19l.31-.3c.89-.85-.64-2.14-1.38-1.06a34.33,34.33,0,0,0-3,5.75,1.18,1.18,0,0,0,2,1.19c1-1.42,1.9-2.81,2.93-4.18l-2.38-1c-.68,1.78-1.31,3.57-2,5.36-.55,1.56,1.45,2.25,2.48,1.45l2.15-1.7L35.89,23c-.52,2.46-2,6-1.49,8.49.15.66.68,1,.85,1.63a1.1,1.1,0,0,1,.59.83c-.41.74-.8,1.48-1.19,2.24a1.25,1.25,0,0,0,1.69,1.69c1.81-.85,3.31-3.36,2.6-5.43-.23-.68-1-1-1.25-1.52-.61-1.38.78-5.46,1.12-7.12a1.53,1.53,0,0,0-2.53-1.47c-.71.57-1.41,1.15-2.11,1.74l2.48,1.44c.55-1.82,1.1-3.63,1.6-5.46a1.31,1.31,0,0,0-2.38-1c-1,1.4-1.88,2.81-2.71,4.3l2.15.91a60.07,60.07,0,0,1,2.32-5.78L36,18.3l.08.41a.65.65,0,0,0,1.08.28Z" transform="translate(0 -0.67)"/>
        </g>
        <g class="cls-5">
          <path class="cls-6" d="M25.11,33.44l.32-.26-1.35-.55c-.23,2.18.32,4.28,2.9,4.33a9.49,9.49,0,0,0,3.6-1.11,14.15,14.15,0,0,1,5.9-.93c1.88.06,1.83-2.75,0-2.9a14.86,14.86,0,0,0-6.13.8c-.91.33-1.82.94-2.74,1.17-1.59.38-1.47-.6-2.06-1.76s-2.14.25-1.24,1l.33.26a.34.34,0,0,0,.47,0Z" transform="translate(0 -0.67)"/>
        </g>
        <g class="cls-5">
          <path class="cls-6" d="M36.31,33.37a33.69,33.69,0,0,0,.34-5.21,1.13,1.13,0,0,0-2.26,0c0,1.69,0,3.38-.1,5.07h2.76V33l-2.57-.33c.2-.53.07-.55-.37-.07q-.43.28-.9.54a11.87,11.87,0,0,1-1.57.75,13.77,13.77,0,0,1-3.73.87l.71,2.63c1.86-.81,4.31-1.46,5.72-3a1.07,1.07,0,0,0-.75-1.8c-2.18,0-4.44,1.47-6.39,2.33a1.42,1.42,0,0,0,.71,2.63,17,17,0,0,0,6.25-1.76c1.56-.8,3.48-1.87,3-3.9a1.41,1.41,0,0,0-2.56-.33,2.65,2.65,0,0,0-.28,2c.35,1.49,2.85,1.21,2.71-.36s-.3-3.38-.4-5.07H34.39a31.26,31.26,0,0,1-.17,4.93c-.13,1.17,1.92,1.46,2.09.28Z" transform="translate(0 -0.67)"/>
        </g>
        <g class="cls-5">
          <path class="cls-6" d="M24.68,31.5a2,2,0,0,1,.06-.9A.82.82,0,1,0,23.23,30c-.44,1.33-.18,2.84-.42,4.22-.26,1.56,2.13,2.21,2.38.66a16.25,16.25,0,0,0-.05-5.39c-.26-1.45-2.51-1.06-2.52.34l0,3.23a1.31,1.31,0,0,0,2.56.34,3.42,3.42,0,0,1,.45-1.06L23.19,32c.33,1,.08,2.17.59,3.09a1.09,1.09,0,0,0,1.69.22c1-1,.68-2.79.26-4a1.33,1.33,0,0,0-2.4-.31,5.85,5.85,0,0,0-.69,1.7l2.55.35c0-1.08,0-2.15,0-3.23l-2.51.34a14.3,14.3,0,0,1,.1,4.38l2.42-.33c-.22-1.38.06-2.88-.36-4.22l-1.39.8a1.71,1.71,0,0,1,.39.84c.12.46.89.38.85-.11Z" transform="translate(0 -0.67)"/>
        </g>
        <g class="cls-5">
          <path class="cls-6" d="M24.91,30.79l.15-.21a.73.73,0,1,0-1.23-.71c-.77,2.36-1.73,7.15,2.06,6.94,2.12-.12,4.2-.89,6.32-1.09,1.46-.14,3.68.49,4.74-.75a1.38,1.38,0,0,0,.21-1.63L37,33.11a1.18,1.18,0,0,0-2,0,51.46,51.46,0,0,0-6.36.48L27,33.93c-.93.2-1,.45-1.41-.33s-.06-2.67-.33-3.73l-1.08.83.27.15a.41.41,0,0,0,.47-.06Z" transform="translate(0 -0.67)"/>
        </g>
        <g class="cls-5">
          <path class="cls-6" d="M34.64,27.53a22,22,0,0,0-.64,6c0,1.47,2.35,1.86,2.62.36.37-2.06-1.39-2.8-3.13-2.28a41.65,41.65,0,0,1-4.1,1.17c-1.48.28-3.09.11-4.41.86a1.07,1.07,0,0,0,0,1.85c1.43.7,2.92.37,4.45.11A23.7,23.7,0,0,0,32.2,35c.45-.13.9-.29,1.35-.45.74,0,.89-.35.45-1h2.67a37.85,37.85,0,0,0-.76-6,.66.66,0,0,0-1.27,0Z" transform="translate(0 -0.67)"/>
        </g>
        <g class="cls-5">
          <path class="cls-6" d="M25.33,33.61a15.52,15.52,0,0,0,5.36.25c1.63-.07,3.41.07,4.85-.8a.81.81,0,0,0-.19-1.46c-1.67-.64-3.67-.12-5.41.06a15.53,15.53,0,0,0-4.75.87c-.5.22-.3.94.14,1.08Z" transform="translate(0 -0.67)"/>
        </g>
        <g class="cls-5">
          <path class="cls-6" d="M22.31,12.18h0a.42.42,0,0,0,.51-.29v0a.5.5,0,0,0-.61-.61l-.12,0a.69.69,0,0,0-.51.66,33.48,33.48,0,0,0,0,3.88c0,1.29,2,1.66,2.33.31.14-.59.26-1.18.35-1.78L21.77,14c.18,2.3.29,3.88,2.87,4.24,2.77.38,5.47-1,8.2,0V15.29a9.64,9.64,0,0,1-7.14-.35l-.77,2.84c2,.16,4,.24,6,.21,1.29,0,3.12.22,4.32-.4,2.5-1.3.14-4.64,0-6.46a1.17,1.17,0,0,0-2.33,0c-.19,1.62-.28,3.24-.35,4.88s2.47,2,2.92.39a12.42,12.42,0,0,0,.47-3c.06-1.6-2.63-2-2.85-.39l-.33,2.35c-.25,1.82,2.55,2.61,2.8.77.11-.78.22-1.57.32-2.35L33,13.38a5.86,5.86,0,0,1-.43,2.23l2.92.4c0-1.63-.12-3.26-.29-4.88l-2.29.3A30.33,30.33,0,0,1,33.18,15c.27-.27-1.81-.05-1.82-.05a62.69,62.69,0,0,1-6.43-.2c-1.47-.12-2.14,2.22-.77,2.84a12.76,12.76,0,0,0,9.48.63,1.52,1.52,0,0,0,0-2.91A9.56,9.56,0,0,0,29.1,15c-.91.12-1.81.3-2.73.38-.57,0-1.15.05-1.73,0-.1-.58-.22-1.17-.34-1.75-.31-1.53-2.39-1-2.53.34a18.15,18.15,0,0,0-.15,1.81L24,15.49c-.29-1.24-.34-3.11-1.22-4.13l-.22.84-.46-.28a.4.4,0,0,0,.26.26Z" transform="translate(0 -0.67)"/>
        </g>
        <g class="cls-5">
          <path class="cls-6" d="M33.39,14.22c-.69.6-1.51,1.68-2.51,1.78a8.67,8.67,0,0,1-2.83-.68c-1.65-.44-3.31-.81-5-1.15l.61,2.29L24,16.2a1,1,0,0,0-.2-1.59l-.4-.3c-1.58-1.18-3.09,2.1-1,2.51,2.62.52,5.51,1.77,8.19,1.81,2.34,0,3.58-1.52,4.19-3.63a.81.81,0,0,0-1.34-.78Z" transform="translate(0 -0.67)"/>
        </g>
        <g class="cls-7">
          <path class="cls-4" d="M17.37,3.92C15.46,5.3,14.72,7,13.94,9.21a1.64,1.64,0,0,0,2.39,1.84A24.31,24.31,0,0,0,21,7.53l-2.57-2L16.16,10.4a1.64,1.64,0,0,0,1.4,2.44c1.56-.09,2.5-1.54,3.85-1.67l-1.51-2c-1.51,4.39-4.83,10.34,2,9l-1.74-1.32c-.27,4.44-4.85,9-1.81,13.21a1.28,1.28,0,0,0,2.31-.3,65.72,65.72,0,0,0,2.24-12.91,1.38,1.38,0,0,0-1.37-1.37c-1.71,0-.37.29-.42-.7-.06-1.33,1.32-3.56,1.78-4.76a1.58,1.58,0,0,0-1.51-2c-1.53.06-2.52,1.48-3.85,1.55L19,12l2.3-4.84a1.65,1.65,0,0,0-2.57-2,23.72,23.72,0,0,1-4,3l2.39,1.84c.5-1.71,1.37-3.23,1.9-4.93.27-.86-.81-1.8-1.6-1.23Z" transform="translate(0 -0.67)"/>
        </g>
        <g class="cls-7">
          <path class="cls-4" d="M19.9,3.6a67.9,67.9,0,0,0-3,8.56A1.68,1.68,0,0,0,19.32,14,26.58,26.58,0,0,0,24,10.38L21,9.13c.17,3.4-3.92,8.47-1.62,11.6a2,2,0,0,0,2.2.89c1.88-.4.52-.86-.92.44-.64.57-1.22,2.6-1.57,3.48a11.74,11.74,0,0,0-1,7.25c.35,1.81,2.78,1.43,3.32,0A84,84,0,0,0,25,22.18c.32-1.48.45-3.17-.89-4.21a5.11,5.11,0,0,0-1.86-.62c-1.35-.38-1,1.8.51.36,1.19-1.14,1.85-7,1.71-8.58a1.8,1.8,0,0,0-3-1.25,23.39,23.39,0,0,1-3.84,3.29l2.5,1.43c.29-2.8.88-5.54,1.41-8.3.18-.93-1.2-1.69-1.65-.7Z" transform="translate(0 -0.67)"/>
        </g>
        <g class="cls-7">
          <path class="cls-4" d="M21.09,4.86l.84-1.09L19.61,2.42a50.57,50.57,0,0,0-2.79,6c-.62,1.32.44,3.49,2.16,2.81,2.81-1.1,4.28-3.7,6.89-5.06l-2.7-2.7a69.24,69.24,0,0,0-4.38,6.73,2.32,2.32,0,0,0,2,3.46c3.06.21,5.89-3.76,7.93-5.6L25.5,4.82a39.08,39.08,0,0,0-4.14,6.32,2.42,2.42,0,0,0,3.79,2.91C28,11.7,30.67,9.2,33.31,6.63L29.64,3.79a39.88,39.88,0,0,0-4.86,8.6c-.88,2.28,1.93,3.65,3.7,2.84,4-1.82,6.19-5.7,9.55-8.36L34.26,4a36.1,36.1,0,0,0-3.52,5.58c-1,2.19,1.77,4.94,3.62,2.79a49,49,0,0,0,4-5.95C40,3.9,36.62,1.9,34.63,3.47c-3,2.37-5.24,5.65-8.69,7.42l3.69,2.84a32.71,32.71,0,0,1,4.05-7.58c1.49-2.27-1.8-4.62-3.68-2.83-2.66,2.54-5.44,4.95-8.26,7.33l3.78,2.92a35.87,35.87,0,0,1,3.55-6c1.6-2.2-1.74-4.34-3.57-2.75C24.78,5.44,21.71,9,20.78,9l2,3.46a48.57,48.57,0,0,1,3.82-7.06c1.14-1.74-1-3.56-2.7-2.7-2.45,1.28-3.94,3.7-6.38,5l2.82,2.16a51.38,51.38,0,0,0,1.75-6.4c.24-1.66-2.2-2.44-2.59-.71l-.3,1.32a1,1,0,0,0,1.91.8Z" transform="translate(0 -0.67)"/>
        </g>
        <g class="cls-7">
          <path class="cls-4" d="M20,5.07l.38-.27c2.1-1.43-.66-4.28-2.16-2.16-.86,1.21-1.61,2.45-2.37,3.72-1,1.75,1.46,3.79,2.87,2.21a19,19,0,0,0,3-4.37,1.93,1.93,0,0,0-3.34-1.95A41.9,41.9,0,0,0,14.9,8.08a2.13,2.13,0,0,0,2.37,3.09c2.31-.41,3.53-2,5.59-3L19.71,5.72c-.6,2.56-1.79,5.44-1.86,8.08-.06,1.89.55,1.91,1.34,3.37,2.66,4.92-2.52,9.78-1.45,15.12.29,1.49,2.37,1.56,3.09.4,1.37-2.21,1.69-4.73,2.57-7.17.79-2.2,1.92-4.43,1.69-6.85A8.43,8.43,0,0,0,23.63,15c-1.48-2.6-.6.8-.94-2.43-.17-1.66.83-4.07,1.16-5.66A2.17,2.17,0,0,0,20.7,4.44c-1.51.74-2.9,2.34-4.54,2.67l2.37,3.1c1-2.05,2.06-4,3.12-6L18.31,2.25A11.38,11.38,0,0,1,16.09,6L19,8.2c.7-1.31,1.36-2.6,1.95-4H18.17l.27.43a1.12,1.12,0,0,0,1.51.4Z" transform="translate(0 -0.67)"/>
        </g>
        <g class="cls-7">
          <path class="cls-4" d="M19.72,7.62c1.23,3.41.37,7.79.17,11.31a99.2,99.2,0,0,0-.35,12.31c.1,1.5,2.4,2,2.76.37A71.83,71.83,0,0,0,23.68,17c.06-3.54.33-7.32-1.89-10.29-.7-.93-2.54-.44-2.07.88Z" transform="translate(0 -0.67)"/>
        </g>
        <g class="cls-7">
          <path class="cls-4" d="M19.52,6.51c-3.09,1.42-2,7.32-2.09,10.07-.14,5.14-1.55,11.84.87,16.51a1.49,1.49,0,0,0,2.54,0c2.16-3.7,1.35-8.42,1.09-12.57-.17-2.6-.34-5.3-.77-7.87-.28-1.69-1.37-3.91-1-5.64a.45.45,0,0,0-.65-.5Z" transform="translate(0 -0.67)"/>
        </g>
        <g class="cls-7">
          <path class="cls-4" d="M16.24,5.79c-1,5.24-.65,10.72-.19,16,.42,4.86.66,10.31,2.86,14.73.93,1.86,3.51.79,3.63-1,.33-4.73-1.21-9.69-1.91-14.36-.77-5.12-1.08-10.38-2.38-15.4a1,1,0,0,0-2,0Z" transform="translate(0 -0.67)"/>
        </g>
        <g class="cls-7">
          <path class="cls-4" d="M20.24,8.12c-.79-1.17,5-1.76,5.24-1.76A34.26,34.26,0,0,1,30.83,7c2.6.39,4.74,1.08,6.81-.8a1.63,1.63,0,0,0,0-2.29c-2.06-1.82-4.77-1.49-7.42-1.82a20.72,20.72,0,0,0-8.08.14c-3.59,1-7.8,4.41-4.71,8.07,1.3,1.54,3.95-.49,2.81-2.17Z" transform="translate(0 -0.67)"/>
        </g>
        <g class="cls-7">
          <path class="cls-4" d="M34.77,3.78C28.83.35,22.45,3.28,16.83,6c-1.87.9-.56,4,1.4,3.35,3.44-1.09,2.51,17.35,3,19.26a1.08,1.08,0,0,0,2,.25c2.44-4.52,3.72-26.29-5.9-23l1.41,3.34c5-2.51,9.6-4.29,15.27-3.4,1.13.18,2-1.31.83-2Z" transform="translate(0 -0.67)"/>
        </g>
        <g class="cls-8">
          <path class="cls-6" d="M1.2,22.23c3,.1,6.06.13,9.08.22,1.7.05,1.65-2.48,0-2.61a57.34,57.34,0,0,0-9.08-.1,1.25,1.25,0,0,0,0,2.49Z" transform="translate(0 -0.67)"/>
        </g>
        <g class="cls-8">
          <path class="cls-6" d="M7.1,19.31a8.07,8.07,0,0,0,3.83,2.86L10.65,20c-1,.82-2,1.68-2.94,2.52-1.36,1.17.63,3.18,2,2,1-.86,1.93-1.71,2.88-2.58a1.38,1.38,0,0,0-.6-2.27c-1.25-.44-2.29-1.24-3.5-1.75-.85-.36-1.94.42-1.37,1.37Z" transform="translate(0 -0.67)"/>
        </g>
      </g>
    </g>
  </g>
</svg>
