<svg xmlns="http://www.w3.org/2000/svg" viewBox="0 0 133.08 136.93">
  <defs>
    <style>
      .cls-1 {
        fill: #cc9c25;
      }
    </style>
  </defs>
  <title>Ресурс 22frame</title>
  <g id="Слой_2" data-name="Слой 2">
    <g id="круги">
      <path class="cls-1" d="M84.78,5C82.14,3.52,80.54,2,77.42,1.63c-3.55-.47-7.27.07-10.8.52A109.52,109.52,0,0,0,39.92,9,74.1,74.1,0,0,0,21.23,20.57c-5.83,4.73-9.4,11.25-12.55,18-3,6.33-6.53,12.76-7.94,19.67C-.84,65.94.31,74.09,2.38,81.64c4,14.64,9.73,30.3,21.53,40.42s27,14.58,42.4,14.86c16.15.29,30.11-9.22,43.66-17s19.22-21.6,21.95-36.49c2.87-15.58.32-30.75-6.78-44.91-2.27-4.54-5.36-8.59-8.07-12.87a72.73,72.73,0,0,0-7.21-9.87C104.3,9.57,97.88,6,89.88,4,86,2.94,82.33,1.06,78.46.24c-4.52-1-8.24,1.27-12.54,2.2-4.1.89-8.37.11-12.46,1A21.56,21.56,0,0,0,43.22,9.7a1.23,1.23,0,0,0,1.49,1.93c3.32-2,6.92-3.82,10.87-4,3.19-.12,6.36.57,9.54.35s6.15-1.8,9.32-2.14c4-.44,7.92,2,11.75,3,6.21,1.62,11.51,3.31,16.36,7.8,5.26,4.87,8.94,11.09,12.48,17.27,7.13,12.45,12.84,25.2,12.48,39.79-.34,13.75-5.42,27.27-15.16,37.16-4.4,4.46-10.29,7-15.56,10.27-6.06,3.74-11.93,8-18.84,10-13.25,3.93-30.74-.67-42.48-7.47a51.15,51.15,0,0,1-15.54-13.59c-4-5.43-6.19-11.87-8.55-18.14-5.26-14-9-27.41-2.77-41.72,2.86-6.58,5.8-13.51,9.9-19.42,4.27-6.16,11-10.66,17.45-14.25,7.54-4.17,16.24-6.34,24.6-8.25a84.09,84.09,0,0,1,13.1-2,18.48,18.48,0,0,1,5.46.08c1.43.38,2.81,1.43,4.22,2,2,.76,3.29-2.43,1.44-3.43Z"/>
    </g>
  </g>
</svg>
