<?xml version="1.0" encoding="utf-8"?>
<!-- Generator: Adobe Illustrator 22.0.0, SVG Export Plug-In . SVG Version: 6.00 Build 0)  -->
<svg version="1.1" xmlns="http://www.w3.org/2000/svg" xmlns:xlink="http://www.w3.org/1999/xlink" x="0px" y="0px"
	 viewBox="0 0 137.7 142.3" style="enable-background:new 0 0 137.7 142.3;" xml:space="preserve">
<style type="text/css">
	.st0{fill:url(#SVGID_1_);}
	.st1{opacity:7.000000e-02;fill:#E5E5E5;}
	.st2{opacity:7.000000e-02;}
	.st3{fill:#E5E5E5;}
	.st4{fill:#ADADAD;}
	.st5{opacity:0.33;}
	.st6{fill:#FFFFFF;}
	.st7{opacity:0.23;}
	.st8{fill:url(#SVGID_2_);}
	.st9{fill:url(#SVGID_3_);}
	.st10{fill:#8E8E8E;}
	.st11{fill:#444444;}
	.st12{fill:#565656;}
	.st13{fill:#9B9B9B;}
	.st14{fill:#555454;}
	.st15{fill:#3A3A3A;}
	.st16{opacity:3.000000e-02;}
	.st17{fill:#C1C1C1;}
	.st18{fill:#D6D6D6;}
	.st19{fill:#2C2C2C;}
	.st20{fill:#505050;}
	.st21{fill:#19110C;}
	.st22{fill:#110D0B;}
	.st23{fill:#5B5B5B;}
	.st24{fill:#3F3F3F;}
	.st25{fill:#808080;}
	.st26{fill:#6D6D6D;}
	.st27{fill:#606060;}
	.st28{opacity:0.1;}
	.st29{fill:#2A2A2A;}
	.st30{opacity:5.000000e-02;}
	.st31{fill:#A2A2A2;}
	.st32{fill:#333333;}
	.st33{fill:#494949;}
	.st34{fill:#636363;}
	.st35{fill:#2F2F2F;}
	.st36{fill:#C4C4C4;}
	.st37{fill:#232323;}
	.st38{fill:#D4D4D4;}
	.st39{opacity:0.25;}
	.st40{fill:#776C82;}
	.st41{fill:#686868;}
	.st42{fill:#7C7C7C;}
	.st43{fill:#AAAAAA;}
	.st44{fill:#848484;}
	.st45{fill:#4C4C4C;}
	.st46{opacity:1.000000e-02;}
	.st47{fill:#D8D8D8;}
	.st48{fill:#878787;}
	.st49{fill:#D3D3D3;}
	.st50{opacity:0.2;}
	.st51{fill:#999999;}
	.st52{opacity:0.7;}
	.st53{fill:#7F7F7F;}
	.st54{fill:#A3A3A3;}
	.st55{fill:#E2E2E2;}
	.st56{fill:#353535;}
	.st57{fill:#111111;}
	.st58{fill:#CCCCCC;}
	.st59{fill:#383838;}
	.st60{fill:#50465B;}
	.st61{fill:#58485B;}
	.st62{opacity:0.15;}
	.st63{fill:#4F4F4F;}
	.st64{opacity:0.35;}
	.st65{opacity:0.4;}
	.st66{fill:#6B6B6B;}
	.st67{display:none;}
	.st68{display:inline;opacity:0.15;fill:#020201;}
	.st69{display:inline;opacity:0.2;}
	.st70{fill:#6B2B72;}
	.st71{opacity:9.000000e-02;}
	.st72{fill:#46214C;}
	.st73{opacity:2.000000e-02;}
	.st74{fill:#F7E8F7;}
	.st75{opacity:2.000000e-02;fill:#F7E8F7;}
	.st76{fill:#4D2353;}
	.st77{fill:#1C1C1C;}
	.st78{fill:#331938;}
	.st79{opacity:0.45;}
	.st80{fill:#4E2254;}
	.st81{fill:#B4A1B7;}
	.st82{fill:#472F4C;}
	.st83{fill:#440A4C;}
	.st84{fill:#201600;}
	.st85{fill:#726175;}
	.st86{fill:#37213A;}
	.st87{fill:#907793;}
	.st88{fill:#8F8691;}
	.st89{fill:#C6C6C6;}
	.st90{fill:#BAACBC;stroke:#BAACBC;stroke-width:0.9255;stroke-miterlimit:10;}
	.st91{opacity:0.11;}
	.st92{fill:#B8ABBA;}
	.st93{fill:#B29E9B;}
	.st94{fill:#AA8BAF;}
	.st95{fill:#BAACBC;}
	.st96{fill:#6F4E75;}
	.st97{fill:#D1BAD6;}
	.st98{fill:#E0D7E2;}
	.st99{display:inline;fill:#6B2B72;}
	.st100{display:inline;}
	.st101{fill:#E0E0E0;}
	.st102{opacity:9.000000e-02;fill:#46214C;}
	.st103{fill:#371E41;}
	.st104{fill:#DEDEDE;}
	.st105{fill:#5B4069;}
	.st106{fill:#312637;}
	.st107{fill:#9261A8;}
	.st108{fill:#4E3A5A;}
	.st109{fill:#A78AB6;}
	.st110{fill:#B2B2B2;}
	.st111{fill:#634A72;}
	.st112{fill:#41314C;}
	.st113{fill:#AEA1B7;}
</style>
<g id="Слой_4_копия_2">
	<g id="Слой_11_копия_2">
	</g>
	<g id="Слой_12_копия_2">
	</g>
	<g id="Слой_13_копия_2">
	</g>
	<g id="Слой_10_копия_2">
	</g>
	<g id="Слой_19_копия_2">
	</g>
</g>
<g id="Слой_4__x28_копия_x29_">
	<g id="Слой_11__x28_копия_x29_">
	</g>
	<g id="Слой_12__x28_копия_x29_">
	</g>
	<g id="Слой_13__x28_копия_x29_">
	</g>
	<g id="Слой_10__x28_копия_x29_">
	</g>
	<g id="Слой_19__x28_копия_x29_">
	</g>
</g>
<g id="Слой_4">
	<g id="Слой_11">
	</g>
	<g id="Слой_12">
		<g class="st2">
			<path class="st3" d="M1.3-613.2c-15.1-3.7-29.5-3.6-44.5-1.5c-23-0.5-46.7,17-65.7,28c-21.2,12.3-42.1,25-63.2,37.2
				c-8.5,4.9-17,10-25.5,15.2c0.8-8.8-1.5-17.8-7.8-25.7c-12.9-16.2-31.3-17.6-49.4-9.9c-32.2,13.6-64,28.1-95.5,43.3
				c3.9-7.7,4.9-16.9,3.3-25.5c7.8-6.6,15.6-13.3,23.3-19.9c11.6-9.9,11.4-29.5,2.4-40.8c-10.1-12.7-25.7-14.9-40-8
				c-21.8,10.6-43.7,21.1-65.5,31.7c-6.5,1.6-12.9,3.8-19.2,6.4c-9.6-4.2-20.5-3.9-31.4-0.2c-0.4-1.5-0.9-3-1.5-4.4
				c-2.6-6.2-7.1-11.6-12.7-15.5c5.3-2.6,10.6-5.2,15.9-7.8c15.2-7.4,20-27.9,13.9-42.4c-6-14.1-24.4-26-40.1-19.7
				c-48.4,19.6-96.4,40-144,61.4c-0.9-4.4-2.8-8.6-5.4-12.3c7.1-3.3,14.2-6.6,21.3-9.8c14.8-6.7,19.5-29.2,11.1-42.2
				c-9.8-15.3-26.4-18.2-42.2-11.1c-6.6,2.9-13.1,5.9-19.6,8.8c-23.9,10.8-47.7,21.5-71.6,32.3c-0.2-0.8-0.5-1.5-0.8-2.2
				c-4.5-10.6-17.6-18.7-29.3-14.4c-5.6,2.1-11.2,4.1-16.7,6.1c-3.4,1.2-6.8,2.5-10.1,3.9c-4.5,1.9-3.7,1.7-2.6,1.2
				c-1.7,0.7-3.4,1.3-5.1,2c-12.6,5-25,10.3-37.4,15.6c-18.9,8.2-37.7,16.8-56.2,25.8c-0.9-3-2.1-5.9-3.6-8.5
				c-8.1-13.9-29-25-45-18.3c-4,1.7-8.1,3.4-12.1,5.1c-2-20.7-24.7-39.2-46.6-25.4c-32,20.3-64.1,40.5-96.1,60.8
				c-6.1,0-12.2,1.7-17.8,5.3c-8.4,5.5-16.8,11-25.1,16.5c-2.6,0.2-5.3,0.8-7.9,1.7c-5.8,2.1-11.7,4.3-17.5,6.4
				c-11.6-6-25.9-6.3-37.8,0.8c-9.8,5.8-19.4,11.7-29.1,17.7c1.1-7.7-0.2-15.6-4.9-22.9c-10.4-16.1-34.4-25.7-51.8-13.6
				c-7.1,5-14.1,10-21.2,14.9c0.4-9.6-2.6-19.5-7.9-26.4c-11-14.3-33-20.2-48.9-9.8c-52.2,34.1-103.2,70.1-152.8,107.9
				c0.2-4.7-0.4-9.4-2-14c2-2.4,4.1-4.9,6.1-7.4c7.4-9.1,10-20.9,3.9-31c0,0,0,0,0,0c13.8-14.3,15.3-39.6,0-53.7
				c-16.4-15-37.3-13.5-53.7,0c-15.6,12.8-31,25.7-46.4,38.7c0.2-1,0.4-2.1,0.5-3.1c8.7-14.8-2.1-31-16.5-35.5
				c-5.4-3.5-11.1-5.5-16.9-6c0.6-7.2-1.4-14.7-6-20.4c-8.2-10.3-25.5-16.1-37.3-7.4c-24.4,17.8-48.7,35.7-73.1,53.5
				c-6-1.8-12.7-1.5-19.4,2c-11.1,5.7-22.1,11.6-32.9,17.7c-12.4-3-25.8,0.4-35.7,9.8c-11.6,10.9-23,22-34.3,33.1
				c-0.7,0.5-1.5,1-2.3,1.5c-0.2,0.1-0.3,0.2-0.5,0.3c3.6-6.5,7.1-13.1,10.6-19.7c5.2-9.8,6.2-20.8,3.1-30.5c0.7-0.6,1.3-1.3,2-1.9
				c10.5-10.1,10.2-28,0-38.2c-11.3-11.3-26.8-9.1-38.2,0c-3.5,2.8-7.1,5.7-10.6,8.5c-12.9-7.6-29.9-8.2-42.4,4.7
				c-12,12.5-23.7,25.1-35.3,37.9c-4,1.6-8.1,3.3-12,5.1c1.8-10.4-2.5-21.8-11-28.2c-10.5-7.9-29.1-9.2-38.2,2.3
				c-5.1,6.4-10.1,12.8-15.2,19.3c-0.4-1.7-1-3.3-1.8-4.9c0.5-0.6,1-1.2,1.5-1.8c17.3-20.7-3.9-48.7-28.5-37
				c-8.2,3.9-16.5,7.9-24.7,11.8c-0.8-3.9-2.5-7.7-4.8-10.9c8.4-11,16.7-21.9,24.9-33c7.4-9.8-9.5-23-17.2-13.3
				c-10,12.7-20.1,25.4-30.2,38.1c-0.5,0.2-1.1,0.4-1.6,0.6c-25,9.9-49.7,20.5-74.1,31.7c-1.7,0.1-3.4,0.6-5.1,1.4
				c0-0.1-0.1-0.2-0.1-0.2c-2.4,1.2-4.6,2.7-6.7,4.3c-23.7,11.1-47.1,22.8-70.2,35c-0.5-7.9-3.3-15.7-8.1-22
				c-5-6.5-12.2-12.2-20.5-14.1c-9.7-2.2-22-2.2-30.3,4c-4.9,3.6-9.8,7.3-14.6,10.9c-2.3,0-4.7,0.7-6.8,2.4
				c-7.3,5.7-14.2,11.9-20.8,18.2c0,0,0,0,0,0c7.4-7.5,14.8-15,22.3-22.4c8.1-8.1,11.3-19.4,9.5-30.1c10.5-15.4,21.2-30.7,32.1-45.8
				c8.9-12.3-11.3-23.7-20.2-11.8c-8.6,11.6-17.1,23.2-25.5,34.9c-3.4-2.6-7.2-4.7-11.3-5.6c-8.6-2-19.5-1.9-26.9,3.5
				c-3.9,2.8-7.7,5.7-11.5,8.6c-0.5-0.4-1-0.8-1.6-1.2c-0.3-0.2-0.5-0.3-0.8-0.5c-7.8-5.2-19.2-3-25.6,3.3c3.2-3.2-0.2,0.1-1.2,0.8
				c-1.4,1-2.8,1.9-4.2,2.9c-4.1,2.9-8.2,5.5-11.8,8.9c-4.7,4.4-9.1,9.1-13.6,13.8c-9.5,10-18.4,20.4-27.4,30.8
				c-19.1,22.2-36.3,45.8-51.4,70.9c-3,5-4.4,11.1-4.3,17.1c-15.6,21.3-30.1,43.3-43.5,66.1c-5.1,8.7-6.3,18.5-4.3,27.6
				c-5.7,3.3-11.3,6.8-16.5,10.7c-16.7,12.2-24.9,33.2-13.7,52.4c2.3,3.9,5.4,7.3,9.2,10.2c-3.2,11.8,5,25.1,16.5,29.1
				c-4.7,4-6.9,8.8-7.2,13.8c-15.8,20.3-29.7,41.9-38.5,66.4c-4.1,11.3,11.4,24.4,21.6,16.6c13.6-10.5,27.1-21.2,40.5-32
				c0.1,0.2,0.3,0.5,0.5,0.7c-2.6,6.6-5.2,13.2-7.8,19.7c-11.4,15.2-21.8,31.2-30.3,48.2c-9.8,19.4,9.5,36.4,28.2,28.2
				c14-6.2,27.7-13.2,41-20.8c-12.5,11.6-24.7,23.5-36.6,35.6c-16.4,16.8-0.1,48.8,23.8,40.9c55.3-18.3,105.8-48.1,153.2-82.7
				c4.2-1.6,8.1-3.9,11.5-7.2c4.4-1.2,8.7-2.7,13-4.4c-0.5,2-1,4.1-1.5,6.1c-11.8,11-23.5,22.2-34.9,33.6
				c-18.1,18.2,2.1,50.4,24.4,43.3c-65.1,32-128.9,66.6-191.1,104.1c-14.1,8.5-19.3,27.3-10.9,41.7c8.2,14.1,27.5,19.5,41.7,10.9
				c75.9-45.8,154.1-87.9,234.4-125.7c-17.2,15.4-34.1,31-50.8,47c-26.2,25.1,7.1,65.1,37.7,48.9c35.4-18.7,70.7-37.4,106.1-56.1
				c-4.2,4.7-8.3,9.5-12.4,14.3c-10.2,11.9-12.7,28.5-2.5,41.4c9.9,12.4,26.6,15.8,40.7,8.1c31.6-17.2,63.3-34.4,95.1-51.4
				c-111.6,85.6-223.8,170.5-335.4,256.1c-34.5,26.5-69,52.9-103.5,79.4c-11.1,8.5-17,22.3-9.3,35.5c2.8,4.8,7.8,8.8,13.4,11.1
				l-26.6,22.8c-23.3,20,7,59,32.8,42.5c77-49.5,154-98.9,231.1-148.4c-42.3,37.8-84.3,75.8-126.1,114.1
				c-39.6,36.3-78.9,72.9-118.1,109.7c-10.6,9.9-11.1,27.5-2.3,38.6c8.4,10.6,25.8,16.2,37.9,7.6
				c106.7-76.2,213.3-152.5,319.9-228.9c-66,56.9-130.7,115.4-189.7,179.7c-48.2,52.5-92.6,108.9-130.3,169.4
				c-7.6,12.2-3.7,29.3,7.5,37.7c12.4,9.2,26.8,7.2,38.4-2.3c103.3-85.1,206.2-170.7,309.9-255.3c20.7-16.9,41.5-33.8,62.4-50.4
				c-76.9,68.6-152.4,138.8-225.5,211.6c-53.8,53.6-106.2,108.6-156.9,165.2c-10.4,11.6-11.5,29.4,0,40.8
				c11.8,11.8,28.9,10.1,40.8,0c110.6-94.1,221.2-188.2,334.2-279.4c34.2-27.6,68.6-55,103.4-82c-52.2,48.1-103.4,97.3-153.2,148
				c-49.9,50.8-98.3,103.1-144.8,157.1c-24.2,28.1,13.1,66.1,40.9,40.9c117-106.1,233.9-212.3,354.6-314.2
				c71.4-60.3,144.1-119,218.7-175.1c-2,1.7-4.1,3.4-6.1,5.2c-114.2,96.5-228.8,192.6-340.2,292.3
				c-62.8,56.2-124.5,113.6-184.4,172.8c-26.2,25.9,13.3,64.8,40.2,40.2c118.5-107.9,237.1-215.8,361.2-317.3
				c122.7-100.3,251.2-194,388.6-273.3c38.6-22.3,77.7-44,118.2-62.7c8.4-3.9,17-7.6,25.7-11.1
				c-178.8,162.9-357.5,325.7-536.3,488.6c-58,52.9-116.1,105.8-174.1,158.6c-11.4,10.4-10.5,29.8,0,40.4c11.7,11.7,28.5,9.9,40.4,0
				c118.8-99.5,237.5-199,358.7-295.5c119.6-95.3,241.8-187.5,368.4-273.5c39.5-26.9,79.5-53.1,119.9-78.6
				c-10,8.6-20.1,17.3-30.1,25.9c-46.8,40.3-93.7,80.6-140.5,120.9c-94.2,81.1-188.5,162.2-282.7,243.3l-158.7,136.6
				c-11.5,9.9-10.2,29.6,0,39.8c11.5,11.5,28.1,9.8,39.8,0c113.4-95.5,228.5-188.8,345.5-279.9c106.7-83,213.9-166.7,329.3-237.4
				c1.4,1,2.9,1.9,4.4,2.6c-102.4,88.8-204.8,177.7-307.2,266.5c-45.7,39.6-91.4,79.2-137,118.9c-11.4,9.9-10.1,29.4,0,39.6
				c11.5,11.5,27.9,9.7,39.6,0c174.9-145.4,351.7-291.8,552.7-400.4c-8.8,5.3-17.6,10.6-26.3,15.9c-38,22.9-75.9,46-113.6,69.3
				c-11.4,7-16.7,23.1-9.2,34.9c7.6,11.7,22.5,16.2,34.9,9.2c15.2-8.7,30.5-17.1,46-25.4c-77.1,69.2-157.2,135.8-228.1,210.4
				c-40.5,42.6-78.2,88.2-110.9,137.1c-7.7,11.5-3.3,28.3,7.2,36.2c11.9,8.9,25.7,6.9,36.9-2.2c21-17.2,42.1-34.4,63.1-51.5
				c-2.1,1.9-4.2,3.8-6.3,5.7c-11.1,10.2-10.4,29.2,0,39.6c11.3,11.2,28.2,10,39.6,0c30.6-27,61.2-53.8,92-80.5
				c56.8-47.2,115.7-91.8,176.5-133.6c4.5,0.6,9.3-0.3,14-2.4c42.5-19.1,85.5-37.3,128.8-54.6C-814.3,578-865,627.1-915.7,676.2
				c-34.5,33.4-69,66.8-103.5,100.2c-9.9,9.6-10.7,26.1-2.2,36.7c8.1,10.1,24.5,15.3,36.1,7.2c88-61.8,177.7-121.1,269.2-177.6
				c-10.9,8.5-21.7,17.1-32.6,25.6c-7.1,5.5-7.4,17.8-3.2,25c4.4,7.5,14.8,12.5,23.3,9.5c5.4-1.9,10.8-3.8,16.1-5.6
				c-6.9,6.9-13.9,13.8-20.8,20.8c-15.7,15.6-6.9,36.4,9,43.3c0.2,4.7,2.1,9.3,5.9,13.1c7.5,7.5,22.3,8.7,29.6,0
				c10.1-12,20.5-23.6,31.3-34.8c38-18.7,75.9-37.5,113.8-56.4c-27.9,42.6-63.2,80.5-104.8,109.7c-9.6,6.7-14.1,19-7.8,29.7
				c5.5,9.5,20.1,14.6,29.7,7.8c70.4-49.4,127.8-113.8,163.9-192.3c10.7-23.2-10.9-45.3-34.3-34.3c-4.4,2.1-8.8,4.1-13.2,6.2
				c-0.2-2-0.7-4-1.5-6c-3.1-6.9-10.3-12.5-18-12.8c42.9-43,85.9-86,128.8-129c21.9-21.9-5.8-55.8-32.3-41.9
				c-74.4,39-147.9,79.5-220.5,121.8c33.8-21.5,67.5-43.1,101.3-64.6l77.3-49.3c8.8-5.6,12.9-16.5,8.6-26.3
				c-4.1-9.4-14.6-15.3-24.9-12.2c-23.5,7-46.8,14.3-70.1,21.8c16.4-15.9,32.8-31.8,49.3-47.7c9.9-9.6,10.7-26.1,2.2-36.7
				c-1.9-2.4-4.1-4.4-6.3-6c2.9-5.7,3.3-12.7,0.8-18.6c-4.4-9.9-14.7-15.1-25.4-12.5c-20.7,5-41.2,10.6-61.5,16.7
				c-0.4-3.4-1.3-6.7-2.7-9.6c24.7-14.5,49.4-29,74.1-43.5c21.9-12.9,7.3-46.5-17.1-40.6c-50.7,12.4-101.1,26.8-150.8,43.1
				c28.1-17,56.2-34,84.3-50.9c38-22.9,76-45.8,113.9-68.7c11.3-6.8,15.9-20.8,10.8-32.9c-4.7-11.1-18.8-20-31.1-15.3l-58.9,22.5
				l8.1-4.3c27.5-14.7,8.7-60.1-21.3-50.6c-83.1,26.2-165.2,55.9-245.9,88.7c-3.7-4.5-8.5-7.9-13.9-9.4
				C-774,84.1-694.8,33-615.6-18.2c45.5-29.4,91-58.9,136.4-88.3c7.4-4.8,12.6-11.8,14.9-19.6c27.1-16.7,54.2-33.3,81.4-49.8
				c41-24.9,82.1-49.9,123.1-74.8c26.9-16.4,53.4-33.3,79.9-50.3c9.3,7.8,24.4,8.5,32.9-5.2c6.5-10.5,13-21.1,19.5-31.6
				c12.9-20.9-12.2-43.3-32.4-32.4c-42.4,22.8-84.7,45.2-126.4,69.2c-31.7,18.2-63.4,36.4-95,54.6c21.9-18.4,42.1-38.3,62.6-58.3
				c44-42.7,87.4-85.9,131-129.1c5.1-5.1,8.1-12,8.7-19.1c3.5-4.8,5.6-10.1,6.4-15.6c10.1-6.8,20.2-13.6,30.2-20.5
				c20.2-13.9,40.6-27.4,61.1-41c3.8-2.5,7.5-5,11.3-7.5c-0.5,6.4,5.9,13.8,12.7,11C-30.6-537.3-7.1-554,11-576.7
				C20.6-588.8,18.8-609,1.3-613.2z M-1001.9,520.9c3.7-3.3,7.4-6.6,11.2-9.8c0.4,0.2,0.8,0.4,1.2,0.6
				C-993.6,514.7-997.7,517.8-1001.9,520.9z M-1966.2,88.8c-76.5,54.8-153,109.6-229.5,164.4c15.4-13.5,30.9-26.9,46.3-40.3
				c40.6-35.1,81.4-70,122.5-104.7c21-17.7,0.5-50.4-22.6-48.5c30.6-15.1,61.1-30.3,91.7-45.4c-7.7,9.6-14.8,19.9-21,30.9
				C-1988.5,62.5-1980.7,80.8-1966.2,88.8z M-2075.9-20.6c-12.5,9.4-24.9,18.9-37.2,28.6c-2.8-2.1-6-3.7-9.4-4.6
				C-2107-4.8-2091.5-12.8-2075.9-20.6z M-1755.1-57.9c46-28.9,92.1-57.6,138.2-86.1c1.9,9.6,8.8,17.9,19,20.5
				c-72.5,36.7-143.9,76.1-217.7,107.7c-1,0.4-1.5,0.6-1.6,0.7c-0.6,0.2-1.2,0.5-2.1,0.9c-3.3,1.3-6.5,2.7-9.8,4
				c-1.3,0.5-2.7,1.1-4.1,1.6C-1807.5-25.7-1781.1-41.6-1755.1-57.9z M-1425.4-202.5c-3.1,2.2-6.1,4.4-9.1,6.6
				c-1.1,0.4-2.3,0.8-3.4,1.2c3.7-2.5,7.4-5,11-7.5C-1426.4-202.3-1425.9-202.4-1425.4-202.5z M-1387.1-121
				c16.5-8.4,33.2-16.4,50-24c3,3.2,6.6,5.6,10.5,7.1c-54.6,23.4-108.4,48.5-161.8,74.5C-1455.9-84.1-1422.1-103.3-1387.1-121z
				 M-1203.3-92.4c33.8-20.5,68-40.3,102.5-59.5c-4.7,4.8-9.3,9.7-13.6,14.8c-4.2,4.9-7.2,10.4-8.8,16.1
				c-72,37.2-143.4,75.5-214.2,114.9C-1293.4-36-1248.7-64.8-1203.3-92.4z M-1068.4-183.6c1,0.1,2,0.1,3,0.1
				c-1.2,0.9-2.3,1.9-3.5,2.8C-1068.6-181.7-1068.5-182.7-1068.4-183.6z M-637.6-114.7c2.3-1.5,4.7-3.1,7-4.6c-1.1,1-2.1,2-3.2,3.1
				C-635-115.7-636.3-115.2-637.6-114.7z M-2592.6-472.8c-0.7,0.9-1.4,1.8-2.1,2.8c-1.3,1.7-2.7,3.4-4,5.1
				C-2596.7-467.6-2594.6-470.2-2592.6-472.8z M-2448.9-59.2c0.1,0,0.1-0.1,0.2-0.1c6.2-4.2,12.4-8.4,18.6-12.6
				c1.6,0.6,3.2,1,4.9,1.3C-2433.2-66.8-2441.1-63-2448.9-59.2z M-2359.3-100.9c16.2-11.4,31.1-24.6,45-38.8
				c0.6,0.2,1.2,0.4,1.8,0.6c4.5,1.3,9,2.2,13.4,2.7c0.8,2.4,2,4.7,3.4,6.8c0,0.5,0,1,0,1.6C-2317-119.3-2338.2-110.2-2359.3-100.9z
				 M-2266,196.5c-1.3-1.1-2.8-2-4.4-2.6c11.6-10,23.1-20,34.7-29.9c27.4-23.7,54.9-47.3,82.4-71c9.8,6.7,22.4,7.1,33.9,1.4
				c15.8-7.8,31.5-15.6,47.3-23.4C-2136.7,112.8-2201.3,154.6-2266,196.5z M-2314.7,500.9c10.7-10.1,21.6-20.1,32.5-30
				c92.6-84,190.8-161.5,283.8-245.1c52.6-47.3,103.4-96.5,150.3-149.5c3.6-4.1,6.1-8.8,7.4-13.8c55.4-20.2,109-45.8,161.5-72.4
				c9.4-4.8,18.9-9.6,28.4-14.5c-7.9,6.5-15.7,13-23.4,19.7c-30.8,26.6-60.3,54.8-88.3,84.3c-11.7,12.3-11.2,27.7-4,39
				c-2.6,0.6-5.2,1.5-7.7,2.8C-1971.7,221.1-2144.6,360.6-2314.7,500.9z M-1624,203.5c6.6-5.5,13.3-11,19.9-16.5
				c0.2-0.2,0.4-0.4,0.7-0.6c0.5,0.8,1,1.5,1.6,2.2C-1609.3,193.6-1616.7,198.5-1624,203.5z M-1531.9,56.5
				c-29.8,25.8-55.1,56.1-70.3,92.4c-8.8-10.8-24.4-14.5-36.8-7.1c-120.1,71.2-235.6,149.9-347.8,233c24.1-20.7,48.3-41.3,72.5-61.7
				c58.1-49.1,116.5-97.8,174.9-146.5c9.4-7.8,10.3-22.5,5.2-33c3.4-0.6,6.9-1.8,10.4-3.6c97.3-51.6,194.9-103.5,294.3-151.2
				c-2.6,1.9-5.2,3.7-7.8,5.6C-1469.3,7.5-1502,30.6-1531.9,56.5z M-1399.7,335.5c1.8-1.6,3.5-3.2,5.3-4.8l174-158.7
				c1.6-1.4,2.9-3,4-4.7c8.7,8.5,21.7,13.4,33.3,8.7c22.5-9,45-18,67.5-27.1C-1212.8,207.3-1307.3,269.9-1399.7,335.5z M-1097.5,177
				c-0.3-1,0.2-1.3,0.4-0.7C-1097.2,176.5-1097.4,176.7-1097.5,177z M-1210.1,112c-6.3,4.5-11.2,10.2-14.1,16.6
				c-4.4-3.3-9.9-5.3-16.1-4.9c-85.5,5.3-162.6,44.9-236.3,85.6c-1.7,0.9-3.4,1.9-5.1,2.9c42.2-35.6,84.4-71.2,126.5-106.8
				c8.4-7.1,10-19.6,6.4-29.7c17.3-9.8,34.6-19.5,51.9-29.1c10.5,10.5,26.7,13.3,40.2,5.6c36.8-20.9,73.7-41.9,110.6-62.7
				c0.5,4.4,2,8.7,4.7,12.9c11,17.1,30.5,21.3,48.2,12.7c35.8-17.4,71.9-34,108.3-49.8c4.5-1.9,8.9-3.9,13.4-5.8
				c2-0.9,4.1-1.7,6.1-2.6c0.2-0.1,0.4-0.2,0.6-0.3c0.1,0,0.2-0.1,0.3-0.1c-36.7,20.6-73,41.9-108.8,64
				C-1119.9,49.4-1165.7,79.7-1210.1,112z M-679.1,447.2c-2.4,2.3-4.8,4.7-7.2,7c-5.8,2.1-11.6,4.2-17.3,6.4
				C-695.5,456.1-687.3,451.6-679.1,447.2z M-831.8,363.4c4.8-5,9.6-10,14.3-15c23.7-10.1,47.1-19.5,71.9-28.7
				c12.2-4.5,24.4-8.8,36.7-13.1c-54,31.8-107.9,63.6-161.9,95.4C-857.5,389.4-844.5,376.5-831.8,363.4z M-880,77.8
				c-37.2,24.5-75.5,47.8-110.7,75.1c-17.9,13.9-35.1,28.7-49,46.7c-0.1,0.2-0.2,0.3-0.3,0.4c0.1-0.1,0.1-0.1,0.2-0.2
				c-0.1,0.1-0.2,0.2-0.2,0.3c-4,5.2-1.8,2.1-0.3,0.4c-2,2.2-3.7,4.8-5.5,7.2c-1.5,1.9-2.9,3.9-4.3,5.9c-2.9,4.3-5.7,8.7-8.1,13.3
				c-0.1,0.2-0.2,0.5-0.4,0.7c-1.9,1.1-3.8,2.2-5.7,3.3c22.3-27.6,33.1-62.4,7.8-92.1c-3.5-4.2-8.7-6.7-14.2-7.7
				c43-17.3,86-34.5,129.1-51.8c2.2-0.5,4.4-1.4,6.5-2.6c8-3.2,16-6.4,24-9.6c40.5-16.3,81.1-32.5,121.6-48.8L-880,77.8z"/>
		</g>
	</g>
	<g id="Слой_13">
	</g>
	<g id="Слой_10">
	</g>
	<g id="Слой_19">
	</g>
</g>
<g id="Слой_1">
</g>
<g id="Слой_63__x28_копия_x29_">
	<g id="Слой_64__x28_копия_x29_">
	</g>
	<g id="Слой_65__x28_копия_x29_">
	</g>
	<g id="Слой_66__x28_копия_x29_">
	</g>
</g>
<g id="Слой_61">
</g>
<g id="Слой_137">
</g>
<g id="Слой_135">
</g>
<g id="Слой_135__x28_копия_x29_">
</g>
<g id="Слой_193">
</g>
<g id="Слой_140">
</g>
<g id="Слой_62">
</g>
<g id="Слой_63">
	<g id="Слой_64">
	</g>
	<g id="Слой_65">
	</g>
	<g id="Слой_66">
	</g>
</g>
<g id="Слой_71">
</g>
<g id="Слой_2">
	<g id="Слой_15">
	</g>
	<g id="Слой_20">
	</g>
	<g id="Слой_16">
	</g>
	<g id="Слой_18">
	</g>
	<g id="Слой_17">
	</g>
</g>
<g id="Слой_60">
</g>
<g id="Слой_71__x28_копия_x29_">
</g>
<g id="Слой_71__x28_копия2_x29_">
</g>
<g id="Слой_192">
</g>
<g id="Слой_2__x28_копия_x29_">
	<g id="Слой_15__x28_копия_x29_">
	</g>
	<g id="Слой_20__x28_копия_x29_">
	</g>
	<g id="Слой_16__x28_копия_x29_">
	</g>
	<g id="Слой_18__x28_копия_x29_">
	</g>
	<g id="Слой_17__x28_копия_x29_">
	</g>
</g>
<g id="Слой_191">
</g>
<g id="Слой_139">
</g>
<g id="Слой_9">
</g>
<g id="Слой_5">
</g>
<g id="Слой_8">
</g>
<g id="Слой_6">
</g>
<g id="Слой_138">
</g>
<g id="Слой_187">
</g>
<g id="Слой_84__x28_копия_x29_">
	<g id="Слой_86__x28_копия_x29_">
		<g id="Слой_85__x28_копия_x29_" class="st67">
		</g>
	</g>
</g>
<g id="Слой_107">
	<g id="Слой_110">
	</g>
	<g id="Слой_116">
	</g>
	<g id="Слой_108">
	</g>
	<g id="Слой_109">
	</g>
	<g id="Слой_111">
	</g>
	<g id="Слой_112">
	</g>
	<g id="Слой_114">
	</g>
	<g id="Слой_113">
	</g>
	<g id="Слой_117">
	</g>
	<g id="Слой_115">
	</g>
</g>
<g id="Слой_107__x28_копия_x29_">
	<g id="Слой_110__x28_копия_x29_">
	</g>
	<g id="Слой_116__x28_копия_x29_">
	</g>
	<g id="Слой_108__x28_копия_x29_">
	</g>
	<g id="Слой_109__x28_копия_x29_">
	</g>
	<g id="Слой_111__x28_копия_x29_">
	</g>
	<g id="Слой_112__x28_копия_x29_">
	</g>
	<g id="Слой_114__x28_копия_x29_">
	</g>
	<g id="Слой_113__x28_копия_x29_">
	</g>
	<g id="Слой_117__x28_копия_x29_">
	</g>
	<g id="Слой_115__x28_копия_x29_">
	</g>
</g>
<g id="Слой_84">
	<g id="Слой_86">
		<g id="Слой_85" class="st67">
		</g>
	</g>
	<g id="Слой_121">
	</g>
</g>
<g id="Слой_34">
	<g id="Слой_36">
	</g>
	<g id="Слой_37">
	</g>
	<g id="Слой_38">
	</g>
	<g id="Слой_40">
	</g>
	<g id="Слой_39">
	</g>
	<g id="Слой_41">
	</g>
	<g id="Слой_143">
	</g>
	<g id="Слой_35">
	</g>
</g>
<g id="Слой_34__x28_копия_x29_">
	<g id="Слой_36__x28_копия_x29_">
	</g>
	<g id="Слой_37__x28_копия_x29_">
	</g>
	<g id="Слой_38__x28_копия_x29_">
	</g>
	<g id="Слой_40__x28_копия_x29_">
	</g>
	<g id="Слой_39__x28_копия_x29_">
	</g>
	<g id="Слой_41__x28_копия_x29_">
	</g>
	<g id="Слой_143__x28_копия_x29_">
	</g>
	<g id="Слой_35__x28_копия_x29_">
	</g>
</g>
<g id="Слой_142">
</g>
<g id="Слой_50">
</g>
<g id="Слой_3">
	<g id="Слой_31">
	</g>
	<g id="Слой_186">
	</g>
	<g id="Слой_188">
	</g>
	<g id="Слой_183">
		<g id="Слой_184">
		</g>
		<g id="Слой_185">
		</g>
	</g>
	<g id="Слой_32">
	</g>
	<g id="Слой_26">
	</g>
	<g id="Слой_25">
	</g>
	<g id="Слой_23">
	</g>
	<g id="Слой_24">
	</g>
	<g id="Слой_28">
	</g>
	<g id="Слой_22">
	</g>
	<g id="Слой_27">
	</g>
	<g id="Слой_29">
		<g id="Слой_21">
		</g>
	</g>
	<g id="Слой_33">
	</g>
	<g id="Слой_53">
	</g>
	<g id="Слой_189">
	</g>
</g>
<g id="Слой_141">
</g>
<g id="Слой_54">
</g>
<g id="Слой_30">
</g>
<g id="Слой_129">
	<g id="Слой_130">
	</g>
	<g id="Слой_132">
	</g>
	<g id="Слой_131">
	</g>
	<g id="Слой_133">
	</g>
	<g id="Слой_134">
	</g>
</g>
<g id="Слой_128">
</g>
<g id="Слой_107_копия_2">
	<g id="Слой_110_копия_2">
	</g>
	<g id="Слой_116_копия_2">
	</g>
	<g id="Слой_108_копия_2">
	</g>
	<g id="Слой_109_копия_2">
	</g>
	<g id="Слой_111_копия_2">
	</g>
	<g id="Слой_112_копия_2">
	</g>
	<g id="Слой_114_копия_2">
	</g>
	<g id="Слой_113_копия_2">
	</g>
	<g id="Слой_117_копия_2">
	</g>
	<g id="Слой_115_копия_2">
	</g>
</g>
<g id="Слой_107__x28_копия2_x29_" class="st67">
	<g id="Слой_110__x28_копия2_x29_" class="st100">
	</g>
	<g id="Слой_116__x28_копия2_x29_" class="st100">
	</g>
	<g id="Слой_108__x28_копия2_x29_" class="st100">
	</g>
	<g id="Слой_109__x28_копия2_x29_" class="st100">
	</g>
	<g id="Слой_111__x28_копия2_x29_" class="st100">
	</g>
	<g id="Слой_112__x28_копия2_x29_" class="st100">
	</g>
	<g id="Слой_114__x28_копия2_x29_" class="st100">
	</g>
	<g id="Слой_113__x28_копия2_x29_" class="st100">
	</g>
	<g id="Слой_117__x28_копия2_x29_" class="st100">
	</g>
	<g id="Слой_115__x28_копия2_x29_" class="st100">
	</g>
</g>
<g id="Слой_129__x28_копия_x29_">
	<g id="Слой_130__x28_копия_x29_">
	</g>
	<g id="Слой_132__x28_копия_x29_">
	</g>
	<g id="Слой_131__x28_копия_x29_">
	</g>
	<g id="Слой_133__x28_копия_x29_">
	</g>
	<g id="Слой_134__x28_копия_x29_">
	</g>
</g>
<g id="Слой_128__x28_копия_x29_">
</g>
<g id="Слой_84__x28_копия2_x29_">
	<g id="Слой_86__x28_копия2_x29_">
		<g id="Слой_85__x28_копия2_x29_" class="st67">
		</g>
	</g>
</g>
<g id="Слой_73">
	<g id="Слой_76">
	</g>
	<g id="Слой_77">
	</g>
	<g id="Слой_74">
	</g>
	<g id="Слой_75">
	</g>
	<g id="Слой_79">
	</g>
	<g id="Слой_80">
	</g>
	<g id="Слой_82">
	</g>
	<g id="Слой_81">
	</g>
	<g id="Слой_91">
	</g>
	<g id="Слой_83">
	</g>
	<g id="Слой_89">
	</g>
	<g id="Слой_78">
	</g>
</g>
<g id="Слой_73__x28_копия_x29_">
	<g id="Слой_76__x28_копия_x29_">
	</g>
	<g id="Слой_77__x28_копия_x29_">
	</g>
	<g id="Слой_74__x28_копия_x29_">
	</g>
	<g id="Слой_75__x28_копия_x29_">
	</g>
	<g id="Слой_79__x28_копия_x29_">
	</g>
	<g id="Слой_80__x28_копия_x29_">
	</g>
	<g id="Слой_82__x28_копия_x29_">
	</g>
	<g id="Слой_81__x28_копия_x29_">
	</g>
	<g id="Слой_83__x28_копия_x29_">
	</g>
	<g id="Слой_92">
	</g>
	<g id="Слой_88">
	</g>
	<g id="Слой_90">
	</g>
	<g id="Слой_78__x28_копия_x29_">
	</g>
</g>
<g id="Слой_73__x28_копия2_x29_">
	<g id="Слой_76__x28_копия2_x29_">
	</g>
	<g id="Слой_77__x28_копия2_x29_">
	</g>
	<g id="Слой_74__x28_копия2_x29_">
	</g>
	<g id="Слой_75__x28_копия2_x29_">
	</g>
	<g id="Слой_79__x28_копия2_x29_">
	</g>
	<g id="Слой_80__x28_копия2_x29_">
	</g>
	<g id="Слой_82__x28_копия2_x29_">
	</g>
	<g id="Слой_81__x28_копия2_x29_">
	</g>
	<g id="Слой_83__x28_копия2_x29_">
	</g>
	<g id="Слой_92__x28_копия_x29_">
	</g>
	<g id="Слой_88__x28_копия_x29_">
	</g>
	<g id="Слой_90__x28_копия_x29_">
	</g>
	<g id="Слой_78__x28_копия2_x29_">
	</g>
</g>
<g id="Слой_182">
	<g id="Слой_154">
	</g>
	<g id="Слой_155">
	</g>
	<g id="Слой_156">
	</g>
	<g id="Слой_157">
	</g>
	<g id="Слой_158">
	</g>
	<g id="Слой_159">
	</g>
</g>
<g id="Слой_153">
	<g>
		<g>
			<path class="st76" d="M86.8,6.8c-2.7-1.5-4.3-3-7.5-3.5c-4-0.6-8.2,0.1-12.2,0.6c-8.7,1.2-17.6,3.5-25.7,6.7
				c-7,2.8-13.2,7-19.1,11.8c-5.9,4.8-9.5,11.4-12.7,18.1c-3,6.4-6.6,12.9-8,19.9C0,68.3,1.1,76.6,3.2,84.3
				c4,14.8,9.8,30.6,21.7,40.8c12.1,10.4,27.3,14.8,43,15c16.4,0.2,30.3-9.2,44.1-16.9c6.1-3.4,11.1-8.1,14.9-14
				c4.3-6.6,6-15.5,7.5-23.1c3-15.8,0.5-31.3-6.7-45.7c-2.3-4.6-5.4-8.5-8.2-12.8c-2.2-3.5-4.6-7-7.4-10.1
				c-5.7-6.3-12.3-9.9-20.4-12.1c-3.9-1-7.6-2.9-11.4-3.7c-4.7-1-8.6,1.2-13,2.3C63.3,4.9,59,4.2,54.9,5.2c-4.1,1-7.5,3.6-10.3,6.6
				c-1.2,1.4,0.3,3.5,2,2.6c3.3-1.8,6.8-3.5,10.7-3.6c3.2-0.1,6.4,0.7,9.5,0.5c3.3-0.2,6.3-1.8,9.6-2.1c3.8-0.4,7.6,2,11.2,3
				c6.1,1.6,11.2,3.2,15.9,7.6c5.2,4.8,8.9,11,12.3,17.1c3.3,6,6.3,11.9,8.9,18.2c2.8,6.9,3.8,13.6,3.6,21
				c-0.3,13.6-5.5,26.6-15,36.4c-4.3,4.5-10.1,7-15.3,10.3c-6,3.7-11.8,8-18.6,10.1c-13,3.9-30.3-0.9-41.8-7.5
				c-5.7-3.3-10.8-7.5-14.8-12.7c-4.3-5.5-6.5-12.1-8.9-18.5c-5.2-13.8-9-27-2.9-41.1c2.9-6.6,5.8-13.5,9.9-19.4
				c4.2-6,10.8-10.4,17.2-13.9c7.5-4.1,16.1-6.3,24.4-8.2c4.2-1,8.5-1.7,12.9-2c3.7-0.3,6.1,0.6,9.5,1.8
				C87.5,12.4,89.2,8.2,86.8,6.8L86.8,6.8z"/>
		</g>
	</g>
</g>
<g id="Слой_160">
</g>
<g id="Слой_161">
</g>
<g id="Слой_190">
</g>
</svg>
