<?xml version="1.0" encoding="utf-8"?>
<!-- Generator: Adobe Illustrator 21.1.0, SVG Export Plug-In . SVG Version: 6.00 Build 0)  -->
<svg version="1.1" id="Слой_2" xmlns="http://www.w3.org/2000/svg" xmlns:xlink="http://www.w3.org/1999/xlink" x="0px" y="0px"
	 viewBox="0 0 60 56" style="enable-background:new 0 0 60 56;" xml:space="preserve">
<style type="text/css">
	.st0{fill:#643E6B;}
</style>
<g>
	<g>
		<path class="st0" d="M33.3-57c0.9,5,6.1,10.3,9,14.3c2.8,3.9,5.7,9.8,10,12.1c1.1,0.6,2.3-0.4,2-1.6c-0.9-4.3-5.2-8.4-7.9-11.9
			C45-46.1,43.6-48,42.1-50c-1.7-2.3-4.5-5.2-5.5-8C35.9-60.1,32.9-59.2,33.3-57L33.3-57z"/>
	</g>
</g>
<g>
	<g>
		<path class="st0" d="M9.8,25.8c-2.6-0.3-5.1-0.3-7.7-0.4c0.3,0.8,0.6,1.6,1,2.3c8.6-7.8,17-16,25.1-24.3c-0.6,0.1-1.1,0.1-1.7,0.2
			c9.9,7.2,19.8,14.6,29.7,21.9c0.3-1,0.6-2.1,0.8-3.1c-5.6-0.4-11.2,0.5-12.7,6.7c-0.7,3.1-0.2,6.5,0,9.5c0.3,4.8,0.6,9.7,0.9,14.5
			c0.4-0.6,0.9-1.1,1.3-1.7c-10.3,2.2-20.7-3.4-30.8,0.8c0.7,0.4,1.5,0.8,2.2,1.3c-2.3-8.1-3.7-16.3-4.3-24.7
			c-0.1-2.2-3.5-2.2-3.4,0c0.5,8.7,1.9,17.2,4.3,25.7c0.2,0.8,1.3,1.6,2.2,1.3c9.9-4.1,20.6,1.4,30.8-0.9c0.7-0.2,1.3-1,1.3-1.7
			c-0.4-5.4-0.8-10.9-1.2-16.3c-0.1-2.2-0.6-4.7,0-6.8c1.2-4.5,5.7-4.5,9.4-4.3c1.8,0.1,2.1-2.2,0.8-3.1c-10-7.1-20-14.2-29.9-21.4
			c-0.5-0.4-1.3-0.2-1.7,0.2C18.1,9.8,9.7,17.8,1.1,25.8c-0.9,0.8-0.2,2.3,1,2.3c2.6,0,5.2,0.1,7.7-0.1C11.3,27.9,11.2,26,9.8,25.8
			L9.8,25.8z"/>
	</g>
</g>
<g>
	<g>
		<path class="st0" d="M10.3,27.4c6.5,1.7,13.9,1.2,20.6,0.9c6.8-0.2,14-0.4,20.7-1.9c1.6-0.3,1.2-2.8-0.4-2.8
			c-7.1,0.2-14.2,1.2-21.3,1.5c-6.5,0.3-13.3-0.3-19.6,0.9C9.6,26.2,9.6,27.2,10.3,27.4L10.3,27.4z"/>
	</g>
</g>
<g>
	<g>
		<path class="st0" d="M29.4,50.7c0.2-1.9-0.5-3.9-0.6-5.8c0-0.5-0.1-1-0.1-1.5c-0.2-0.7,0-1,0.7-0.9c0.6-0.3,1.9-0.2,2.6-0.2
			c0.4,0,2.3-0.4,2.6-0.2c0.4,0.4,0.5,1.9,0.6,2.4c0.4,2,0.8,4.1,1.3,6.2c0.5,1.9,3.3,1.1,2.9-0.8c-0.4-1.7-0.8-3.3-1.2-4.9
			c-0.3-1.4-0.5-3.2-1.2-4.5c-1-1.8-4.7-0.6-6.4-0.5c-2,0.2-4.1,0.1-4.2,2.7c-0.1,2.5,0.1,6.4,1.6,8.5
			C28.4,51.8,29.3,51.5,29.4,50.7L29.4,50.7z"/>
	</g>
</g>
<g>
	<g>
		<path class="st0" d="M28.1,100.3c-0.9-0.7-1.3-0.8-1.2-0.1c0,0.7,0,1.5-0.1,2.2c-0.1,1.6-0.2,3.2-0.3,4.8
			c-0.2,3.5-0.3,7.1-0.5,10.6c-0.3,7.1-0.5,14.2-0.7,21.3c0,0.8,0.7,1.5,1.5,1.5c8-0.6,15.9-0.4,23.8,0.6c0.7,0.1,1.5-0.7,1.4-1.4
			c-1-14-1.1-28-0.4-42c0-0.7-0.7-1.6-1.5-1.5c-7.3,0.8-14.7,1.1-22,0.8c-2-0.1-2,3,0,3c7.4,0.3,14.7,0,22-0.8c-0.5-0.5-1-1-1.5-1.5
			c-0.6,14-0.4,28,0.6,42c0.5-0.5,0.9-0.9,1.4-1.4c-7.9-1-15.8-1.3-23.8-0.7c0.5,0.5,1,1,1.5,1.5c0.4-8.4,0.8-16.8,1.1-25.2
			c0.1-3.9,0.3-7.7,0.3-11.6c0-1.6,0.4-3-1.1-3.9c-0.4-0.2-1-0.2-1.4,0.2c-0.1,0.1-0.2,0.2-0.3,0.3c-0.3,0.3-0.3,0.7-0.1,1
			c0.1,0.1,0.1,0.2,0.2,0.3C27.2,100.7,27.8,100.7,28.1,100.3L28.1,100.3z"/>
	</g>
</g>
<g>
	<g>
		<path class="st0" d="M10.1,102.9c1.7,1.8,5.3-0.2,7.3-0.7c1.8-0.5,3.6-1.1,5.4-1.5c1.4-0.4,2.8-0.4,4.1-1.2c0.8-0.5,0.6-2.1-0.5-2
			c-5.3,0.5-11.2,2.6-16.1,4.7C9.9,102.3,9.9,102.7,10.1,102.9L10.1,102.9z"/>
	</g>
</g>
<g>
	<g>
		<path class="st0" d="M9.8,103.1c-1.6,6.9-0.5,14.9-0.4,21.9c0.1,7.9,0.3,15.9,0.4,23.8c0,1.2,1.5,1.9,2.4,1
			c3.8-3.9,8.1-6.6,13.2-8.5c1.7-0.6,1-3.3-0.7-2.7c-5.6,2-10.3,5-14.5,9.2c0.8,0.3,1.6,0.7,2.4,1c-0.2-7.9-0.3-15.9-0.6-23.8
			c-0.2-7.1,0.5-15.1-1.4-21.9C10.5,102.7,9.9,102.7,9.8,103.1L9.8,103.1z"/>
	</g>
</g>
<g>
	<g>
		<path class="st0" d="M13.6,105.6c-0.4,0.9-0.8,1.8-1.3,2.5c0.8-0.1,1.5-0.2,2.3-0.3c-0.2-0.2-0.5-0.4-0.6-0.7c0,0.6,0,1.1,0,1.7
			c0.7-1,1.3-2,2-3c0.9-1.4-0.9-3.3-2.3-2.3c-1.1,0.7-2,1.6-2.6,2.8c-0.4,0.8-0.2,1.7,0.5,2.3c0.6,0.5,1.7,0.5,2.3-0.1
			c0.6-0.7,1.2-1.5,1.9-2.2c-1-0.3-2-0.5-3-0.8c0-0.1,0-0.1,0-0.2c-0.1,0.9,0.1,1.7,1,2.1c0.8,0.3,1.7,0,2.2-0.7
			c0.4-0.6,0.5-1.4,0.2-2.1c-0.4-1.1-2.1-2-3-0.8c-0.6,0.8-1.2,1.5-1.8,2.3c0.9,0.7,1.8,1.4,2.8,2.1c0.3-0.6,0.7-1.2,1.3-1.6
			c-0.8-0.8-1.6-1.6-2.3-2.3c-0.6,1-1.2,2.1-1.9,3.1c-0.6,1,0,2.1,1,2.4c0.2,0.1,0.5,0.4,0.7,0.6c0.8,0.6,1.9-0.1,2.1-0.9
			c0.3-0.9,0.7-1.8,1-2.7C16.5,105.2,14.2,104.2,13.6,105.6L13.6,105.6z"/>
	</g>
</g>
<g>
	<g>
		<path class="st0" d="M13.9,103.2c0.1,4.2-0.3,8.5-0.9,12.6c1.1,0.2,2.3,0.3,3.4,0.5c0.1-3.2-0.2-6.2-0.8-9.3
			c-0.4-2.2-3.5-1.5-3.7,0.5c-0.3,3.7-0.5,7.4-0.4,11.2c0,2.5,3.7,2.5,3.8,0c0.2-4.3,2-11-0.6-14.7c-0.6,1-1.1,2-1.7,2.9
			c4.6,0.4,8.7-0.5,12.7-2.7c-1-0.6-2-1.1-3-1.7c-0.4,6.7-0.7,13.4-1.1,20c-0.2,3.2-0.1,6.4-0.5,9.5c-0.8,5.9-4.2,7.5-8.4,10.8
			c1,0.6,2,1.1,3,1.7c-0.3-6.7-0.5-13.4,0.1-20c0.6-5.8,1.3-14.8,7.2-17.8c-1-0.6-2-1.2-3-1.7c0.5,5.2-0.5,9.9-3.2,14.4
			c1.2,0.7,2.3,1.4,3.5,2.1c1.2-2.7,2.5-5.4,3.7-8.1c0.9-2-1.5-4.4-3.2-2.5c-1.7,1.8-3,3.7-4.1,6c1.3,0.4,2.6,0.7,3.9,1.1
			c0.1-1.2,0.2-2.5,0.3-3.7c0.2-2.5-3.3-2.6-4.1-0.6c-1.9,4.7-2.2,9.5-2.5,14.5c-0.1,2.5,3.4,2.7,4.2,0.6c1.5-4.3,2-8.4,1.6-12.9
			c-0.2-1.9-2.2-2.7-3.7-1.5c-2.8,2.3-2.9,5.9-3,9.3c-0.1,2,0,4.1,0.3,6.1c0.4,1.9,2.7,5.4,1.5,7.1c1.3,0.6,2.7,1.1,4,1.7
			c4-12.5,7.2-25.2,9.4-38.2c0.4-2.7-3.6-3.9-4.1-1.1c-2.4,12.9-5.5,25.7-9.5,38.2c-0.8,2.4,2.7,3.7,4,1.7c1.5-2.3,0.9-4.3,0-6.8
			c-1.2-3.5-3.2-12,0.3-14.9c-1.2-0.5-2.4-1-3.7-1.5c0.4,4.1-0.1,7.9-1.4,11.8c1.4,0.2,2.8,0.4,4.2,0.6c0.2-4.6,0.6-9,2.3-13.4
			c-1.4-0.2-2.7-0.4-4.1-0.6c-0.1,1.2-0.2,2.5-0.3,3.7c-0.2,2,3,2.9,3.9,1.1c1-2,1.9-3.4,3.4-5.2c-1.1-0.8-2.2-1.7-3.2-2.5
			c-1.2,2.7-2.4,5.4-3.6,8.2c-1,2.3,2.2,4.4,3.5,2.1c2.9-5.1,4.2-10.6,3.6-16.5c-0.1-1.5-1.6-2.4-3-1.7c-5.7,2.9-7.3,9.3-8.3,15.1
			c-1.5,8.6-1.2,17.4-1,26.2c0,1.3,1.7,2.6,3,1.7c2.8-2.1,6.6-4.1,8.7-7c1.9-2.6,1.7-6,1.9-9.1c0.5-9.2,1-18.4,1.5-27.7
			c0.1-1.5-1.7-2.4-3-1.7c-3.4,1.9-6.8,2.6-10.7,2.2c-1.4-0.1-2.5,1.8-1.7,2.9c1.8,2.5,0.3,9.8,0.1,12.8c1.3,0,2.6,0,3.8,0
			c-0.1-3.7,0-7.4,0.3-11.2c-1.2,0.2-2.5,0.3-3.7,0.5c0.5,2.8,0.8,5.5,0.9,8.3c0.1,2.3,3.3,2.2,3.5,0c0.4-4.5,0.3-8.6-0.1-13.1
			C16.2,101.7,13.9,101.7,13.9,103.2L13.9,103.2z"/>
	</g>
</g>
<g>
	<g>
		<path class="st0" d="M60.5,116.7c-4-0.3-8.1,0.1-12.1-0.1c-3.9-0.2-7.7-0.7-11.6-0.6c-1.2,0-1.6,2-0.3,2.2
			c7.3,1.1,17.2,2.4,24.3,0.2C61.6,118.1,61.4,116.8,60.5,116.7L60.5,116.7z"/>
	</g>
</g>
<g>
	<g>
		<path class="st0" d="M42.3,112c-2.7,1.2-5.1,2.9-7.7,4.1c-0.9,0.4-1.1,1.9-0.3,2.6c1.6,1.4,3.3,2.7,4.9,4.1c2,1.6,4.2-1.2,2.2-2.8
			c-1.7-1.3-3.4-2.6-5.1-3.8c0,0.9,0,1.9,0,2.8c2.6-1.3,5.6-2.8,7.7-4.9C45,113,43.6,111.5,42.3,112L42.3,112z"/>
	</g>
</g>
<g>
	<g>
		<path class="st0" d="M34-57.6c4.4-2.3,5.5-7.4,6.2-12c0.7-4.6,1.3-10.1-1.6-14.1c-7-9.6-24.3-5.8-30.7,2.3
			C4-76.5,3.5-70.6,3.4-64.7c-0.1,5.4,0.6,9.9,5.8,12.6c8.1,4.2,25.7,3.5,26.9-8.6c0.1-1.4-1.8-2.1-2.7-1.1c-2.6,3-4.2,6-8.2,7.5
			c-3.9,1.4-8.3,1-12.2-0.3c-6.2-2.1-6-7-5.8-12.4c0.2-4.3,0.8-8.6,3.6-12.1c5.1-6.5,20.1-10.2,25.4-1.8c3.6,5.8,0.9,16.9-3.4,21.6
			C31.9-58.4,32.9-57,34-57.6L34-57.6z"/>
	</g>
</g>
<g>
	<g>
		<path class="st0" d="M29.9,46c-0.1,0.7-0.1,1.5-0.1,2.2c0,1.2,1.5,1.8,2.3,0.9c1-1,1.5-2.2,1.4-3.6c-0.1-1.4-1.9-2-2.6-0.7
			c-0.8,1.4-0.8,2.9,0,4.3c0.6,0.9,2,1,2.6,0c0.7-1.2,1-2.5,1-3.9c0-1.6-2.7-2.1-3-0.4c-0.1,0.9-0.3,1.7-0.4,2.6
			c-0.2,1.2,1,2.5,2.2,1.7c1.5-1.1,2.3-2.5,2.3-4.4c0-1.2-1.4-2-2.3-1.3c-1.6,1-1.6,3.2,0.1,4.1c1,0.5,2.4,0.1,2.6-1.1
			c0.4-2.3-0.3-5-2.8-5.8c-2.7-0.8-4.9,1.2-5,3.8c-0.1,2.5,0.3,6.4,2.4,8c1,0.8,2.2,1,3.3,0.3c0.6-0.3,0.9-0.8,1.1-1.5
			c0.1-0.3,0.2-0.6,0.2-1c0-0.2,0-0.3,0-0.5c0-0.6-0.3-0.4-0.9,0.7c-0.5-0.1-1.1-0.1-1.6-0.2c0.4,0.2,1,1,1.3,1.4
			c1.3,1.7,3.6,1.1,3.9-1.1c0-0.4,0.1-0.7,0.1-1.1c-1.4,0.2-2.7,0.4-4.1,0.6c0.2,0.5,0.4,1,0.5,1.4c0.8,2.2,4,1.9,4.1-0.6
			c0.1-1.5-0.1-2.9-0.5-4.4c-0.7-2.6-4.8-1.5-4.1,1.1c0.3,1.1,0.4,2.1,0.4,3.3c1.4-0.2,2.8-0.4,4.1-0.6c-0.2-0.5-0.4-1-0.5-1.4
			c-0.9-2.3-3.9-1.8-4.1,0.6c0,0.4-0.1,0.7-0.1,1.1c1.2-0.5,2.4-1,3.6-1.5c-1-1.3-2.3-3.1-4.2-2.6c-0.8,0.2-1.4,0.7-1.7,1.5
			c-0.4,0.8,0,1.6-0.3,2.3c0.3-0.4,0.6-0.8,0.9-1.2c1,0.4,1.3,0.2,0.9-0.4c-0.1-0.4-0.2-0.8-0.3-1.1c-0.2-0.8-0.3-1.6-0.4-2.4
			c-0.1-1.9,0.7-0.8,0.5,0.1c0.9-0.4,1.8-0.7,2.6-1.1c0.3,0.3,0.4,0.7,0.2,1.1c-1-0.3-1.9-0.5-2.9-0.8c0,0.7-0.1,1.3-0.8,1.8
			c0.7,0.6,1.5,1.1,2.2,1.7c0.1-0.9,0.3-1.7,0.4-2.6c-1-0.1-2-0.3-3-0.4c0,0.9-0.1,1.6-0.5,2.4c0.9,0,1.7,0,2.6,0
			c-0.3-0.5-0.4-0.8-0.2-1.4c-0.9-0.2-1.8-0.5-2.6-0.7c0.1,0.7,0,1.1-0.5,1.7c0.8,0.3,1.5,0.6,2.3,0.9c-0.1-0.9-0.2-1.7-0.3-2.5
			C31.9,44.4,30,44.8,29.9,46L29.9,46z"/>
	</g>
</g>
</svg>
