<?xml version="1.0" encoding="utf-8"?>
<!-- Generator: Adobe Illustrator 21.1.0, SVG Export Plug-In . SVG Version: 6.00 Build 0)  -->
<svg version="1.1" id="Слой_1" xmlns="http://www.w3.org/2000/svg" xmlns:xlink="http://www.w3.org/1999/xlink" x="0px" y="0px"
	 viewBox="0 0 58 45" style="enable-background:new 0 0 58 45;" xml:space="preserve">
<style type="text/css">
	.st0{fill:#371E41;}
</style>
<g>
	<g>
		<path class="st0" d="M3.5,5.2c-1.4,0.1-2,0.4-2.8,1.6C0.1,7.6,0.4,8.9,1.1,9.6c2.7,2.5,6.1,1.1,9.4,0.7c4.5-0.6,8.9-1.1,13.4-1.5
			c4.5-0.4,8.9-0.9,13.4-1.2c4.6-0.3,9.6,0,14-1.3c1.9-0.6,2.1-3.6,0-4c-7.4-1.4-16.1,0.4-23.6,1.1c-3.8,0.4-7.7,0.8-11.5,1.3
			c-1.5,0.2-3,0.4-4.5,0.6C10,5.3,5.5,6.8,3.9,6C4.2,6.6,4.6,7.3,5,8c0-0.2,0-0.4,0-0.6C4.7,8,4.3,8.6,4,9.2C4.1,9.1,4.3,9,4.5,8.9
			C6.1,7.9,5.5,5.1,3.5,5.2L3.5,5.2z"/>
	</g>
</g>
<g>
	<g>
		<path class="st0" d="M2.9,26.4c8.4,0,16.9-1.2,25.4-1.9c7.7-0.6,16.5-0.3,23.9-2.5c2.2-0.6,1.6-3.6-0.5-3.8
			c-8.1-0.8-17.2,1.2-25.4,2c-7.9,0.8-16,1.2-23.9,2.7C0.4,23.3,1,26.4,2.9,26.4L2.9,26.4z"/>
	</g>
</g>
<g>
	<g>
		<path class="st0" d="M3.9,44.6c8.4,0.3,17.1-1.8,25.5-2.2c8.6-0.4,17.1-0.2,25.6,0c3.1,0.1,3-4.6,0-4.8
			c-8.8-0.6-17.8-0.4-26.6,0.2c-8,0.5-17.4,0.7-25,3.5C1.8,42,2,44.5,3.9,44.6L3.9,44.6z"/>
	</g>
</g>
</svg>
