<svg xmlns="http://www.w3.org/2000/svg" viewBox="0 0 46.07 30.29">
  <defs>
    <style>
      .cls-1 {
        fill: #e0e0e0;
      }

      .cls-2 {
        fill: #6b2b72;
      }

      .cls-3, .cls-5 {
        opacity: 0.09;
      }

      .cls-4, .cls-5 {
        fill: #46214c;
      }

      .cls-6 {
        fill: #fff;
      }

      .cls-7 {
        fill: #4d2353;
      }

      .cls-8 {
        opacity: 0.02;
      }

      .cls-9 {
        fill: #f7e8f7;
      }

      .cls-10 {
        opacity: 0.9;
      }

      .cls-11 {
        fill: #422047;
      }
    </style>
  </defs>
  <title>Ресурс 26regestration</title>
  <g id="Слой_2" data-name="Слой 2">
    <g id="Слой_73_копия_" data-name="Слой 73 (копия)">
      <circle class="cls-1" cx="31.95" cy="15.33" r="13.5"/>
      <g id="Слой_76_копия_" data-name="Слой 76 (копия)">
        <path class="cls-2" d="M42.74,18.85a28,28,0,0,0-2.06-3.49c-1.15-2.18-1.74-5.89-4.4-6.78s-6.34-1.3-8.84.41a6.81,6.81,0,0,0-2.34,3.08,12,12,0,0,0-.7,2,.18.18,0,0,0-.16.13,8.37,8.37,0,0,1-1,2.48,12.86,12.86,0,0,0-1.13,1.76A7.75,7.75,0,0,0,21.75,23c.66,2.86,4.15,4.77,6.75,5.49a24,24,0,0,0,4.83.78,6.16,6.16,0,0,0,4.2-1.36,13.26,13.26,0,0,0,4.8-5.77A4,4,0,0,0,42.74,18.85Z"/>
      </g>
      <g id="Слой_77_копия_" data-name="Слой 77 (копия)">
        <g class="cls-3">
          <path class="cls-4" d="M25.61,21.54c-.87,1.16.12,1.84,1,2.62a6.15,6.15,0,0,1,1.27,1.69,4,4,0,0,0,1.26,1.79A1.08,1.08,0,0,0,30.67,27C31,25.67,30,24.45,29,23.66a7.59,7.59,0,0,0-1.47-1c-.47-.23-1.75-.5-1.81-1.13a0,0,0,0,0-.09,0Z"/>
        </g>
        <g class="cls-3">
          <path class="cls-4" d="M25.35,22a13.63,13.63,0,0,0,2.33,2.35,9.65,9.65,0,0,1,.93,1.25,1.36,1.36,0,0,0,.45.41l.23.1c-.19-.45-.27-.4-.25.13a1.35,1.35,0,0,0,2.46,1l-.08.09-2-1.51v.05a1.56,1.56,0,0,0,1.74,2.27l.2-.05L30.22,28,30,27.69c.86,1.34,3.27.51,2.69-1.13a1.88,1.88,0,0,0-1.9-1.43l1.49,1.13a3,3,0,0,0-.58-1A1.33,1.33,0,0,0,30.07,25a2.74,2.74,0,0,0-.9.86l2.51.68a2,2,0,0,0-.87-2,6.12,6.12,0,0,0-1-.32c.17.19.16.14,0-.14l-.26-.34a8.33,8.33,0,0,0-3.78-2.28c-.28-.09-.57.26-.39.5Z"/>
        </g>
        <g class="cls-3">
          <path class="cls-4" d="M31.36,25.63a1.52,1.52,0,0,0-1.25.6c-1.15,1.2.78,3.06,1.81,1.81.52-.64.88-1.15.58-2a4.15,4.15,0,0,0-.88-1.47,4.59,4.59,0,0,0-3.23-1.38,1.33,1.33,0,0,0-1.31,1.31,1.35,1.35,0,0,0,1.31,1.31c.39,0,1-.07,1.25.22a1.08,1.08,0,0,1,.23.51,5,5,0,0,0,.3.92l.2-1.58a2.38,2.38,0,0,0-.46.62l2.38.64a2,2,0,0,0,0-.81,1,1,0,0,0-.91-.69Z"/>
        </g>
        <g class="cls-3">
          <path class="cls-4" d="M26.72,21.77q0-.15-.06.06H25c-.05-.22-.07-.24-.07-.07a.66.66,0,0,0,.06.31,1,1,0,0,0,1.21.69c.52-.07.83-.73.93-1.19a.92.92,0,0,0-1.34-1,2,2,0,0,0-.67.76l.59-.45h0l1.11.45,0,0,.14.49a1.49,1.49,0,0,0-.41-1.09,1,1,0,0,0-1.59.42,1.18,1.18,0,0,0,.45,1.45.9.9,0,0,0,1.35-.77Z"/>
        </g>
        <g class="cls-3">
          <path class="cls-4" d="M26.75,21.29c-.34-.32-.69,0-.88.33-.35.55-.72,1.49-.31,2.09a.57.57,0,0,0,1,0,2.11,2.11,0,0,0,.22-1.22c0-.13-.06-1-.05-1a.12.12,0,0,0,.05-.2Z"/>
        </g>
        <g class="cls-3">
          <path class="cls-4" d="M26.08,21c-.28.38-.58.61-.58,1.15a1.2,1.2,0,0,0,.81,1.23.66.66,0,0,0,.73-.29A1.31,1.31,0,0,0,27.12,22c-.1-.33-.39-.55-.5-.86a.3.3,0,0,0-.54-.07Z"/>
        </g>
        <g class="cls-3">
          <path class="cls-4" d="M26.77,22.63a10.19,10.19,0,0,0,.68,1.87c.15.28.3.56.47.82a2,2,0,0,0,.78.56.28.28,0,0,0,.41-.32,2.71,2.71,0,0,0-.22-.8c-.17-.27-.37-.51-.55-.78-.34-.53-.72-1-1-1.58a.3.3,0,0,0-.54.23Z"/>
        </g>
        <g class="cls-3">
          <path class="cls-4" d="M27.59,23.24a3.21,3.21,0,0,1,.48.55c.26.3.53.57.82.85a3,3,0,0,0,1.77,1.16.62.62,0,0,0,.61-.61c-.05-1.13-1.49-2.13-2.43-2.54a1,1,0,0,0-1.15.08c-.1.1-.27.4-.1.51Z"/>
        </g>
        <g class="cls-3">
          <path class="cls-4" d="M27.94,23.65a13.72,13.72,0,0,1,1.89,1.42c.55.5.89,1.24,1.59,1.52L31,26.25v-.19a.82.82,0,0,0,.13,1l.07.09a.66.66,0,0,0,.78.1l.12-.06a.82.82,0,0,0,.29-1.1c.09.18.11-.32.11-.39a1.47,1.47,0,0,0-.14-.69,3.57,3.57,0,0,0-1-1.29,6.05,6.05,0,0,0-3-1,.53.53,0,0,0-.41,1Z"/>
        </g>
        <g class="cls-3">
          <path class="cls-4" d="M31.22,27.11l.19.2-.29-.7c0,.37.17-.09-.05.16a1.23,1.23,0,1,0,2.06.54,1.69,1.69,0,0,0-.18-.47l-.56,1h.12l-.35-1.28a2.18,2.18,0,0,0-1.31,1.39,1.4,1.4,0,1,0,2.7.74,2.06,2.06,0,0,0-.45-1.89A.71.71,0,0,0,32,26.63l-.09.08.79-.1a1.47,1.47,0,0,0-1.1-.16l1.56,1.19c0-.34,0-.69-.09-1l-.13.5.12-.24a1.18,1.18,0,1,0-1.86.24Z"/>
        </g>
        <path class="cls-5" d="M39.32,21.26a.38.38,0,0,0-.13-.18l0,0,0,0a1.24,1.24,0,0,0-1.83-1.2,5.14,5.14,0,0,0-1.78,1.59,1.12,1.12,0,0,0-.12,1l-.11.06a.75.75,0,0,0-.39.49l-.38.26a1.33,1.33,0,0,0-.82,0,4.76,4.76,0,0,0-.89.33,2.71,2.71,0,0,0-2,1.21.84.84,0,0,0-.28.2l0,0a1.06,1.06,0,0,0-.27,1,2.07,2.07,0,0,0,2.21,1.31,1,1,0,0,0,1,.71c.56,0,.83.32,1.4,0a1.07,1.07,0,0,0,.56-.73,1.18,1.18,0,0,0,0-.59,1.93,1.93,0,0,0,.58-.92,3.42,3.42,0,0,0,.72-.57,1,1,0,0,0,.25-.17,3.54,3.54,0,0,0,.79-1,1.05,1.05,0,0,0,.14-.5,1.63,1.63,0,0,0,.17-.2,1,1,0,0,0,.63-.32c.17-.16.33-.33.5-.5A1,1,0,0,0,39.32,21.26Z"/>
        <g class="cls-3">
          <path class="cls-4" d="M37.52,22.64l-.36-.17V24c.33-.18.51-.5.84-.67a.93.93,0,0,0-.22-1.67,3.48,3.48,0,0,0-.91-.1,1.25,1.25,0,1,0,.63,2.34,3.51,3.51,0,0,0,.65-.5c.16-.17.28-.37.45-.52a1.07,1.07,0,0,0,.17-1.28.42.42,0,0,0-.09-.16L38.46,23c.44-.46,1-1,1-1.64a1.29,1.29,0,0,0-1.62-1.23l-1.31.53a1.33,1.33,0,1,0,1,2.43,3.12,3.12,0,0,1,1-.49l-1.62-1.24v.05l.38-.9a6.53,6.53,0,0,1-.7.58,1.35,1.35,0,1,0,2.12,1.63l.09-.12L37.1,21.34a1.67,1.67,0,0,1-.57.23L38,23.41c-.17.24.2-.24,0-.12l-1.34-1-.09.28.37-.47a2.39,2.39,0,0,0-.82.54A.85.85,0,0,0,36.39,24a.87.87,0,0,0,1.2-.78l0-.38a.25.25,0,0,0-.12-.2Z"/>
        </g>
        <g class="cls-3">
          <path class="cls-4" d="M37,22.32a5,5,0,0,1-.6.17l.36.15-.22-.17c-1.11-.83-2.09,1.65-.45,1.68A2.44,2.44,0,0,0,37,24l-.92-1.59a2.15,2.15,0,0,1-.85.5l1.13,1.48A1.33,1.33,0,0,1,36.7,24c.87-.48.1-1.75-.77-1.32a7.71,7.71,0,0,1-1.36.65l.69,1.64.55-.4a.93.93,0,0,0-.71-1.69A2.3,2.3,0,0,0,33.62,24c-.39.59.26,1.15.82,1.07a2.23,2.23,0,0,0,1.7-.92l-1.45-1.12c-.17.14-.35.28-.52.44-.85.77.47,2.1,1.27,1.27A5.29,5.29,0,0,1,36.7,24l-.77-1.32a5.7,5.7,0,0,1-.73.25,1,1,0,0,0-.59,1.48,1,1,0,0,0,1.57.2,8.69,8.69,0,0,1,1-.69,1,1,0,0,0-.73-1.74,2.69,2.69,0,0,0-.88.34l1.23.33,0-.06v.51a1.81,1.81,0,0,1,.4-.52.25.25,0,0,0-.24-.41Z"/>
        </g>
        <g class="cls-3">
          <path class="cls-4" d="M34.08,24c-.46.21-.93.42-1.38.65-.86.43-.08,1.81.76,1.3a6.34,6.34,0,0,1,1.66-.74l-.76-1a3.67,3.67,0,0,1-1.6,1.08.72.72,0,0,0,.55,1.32,7.75,7.75,0,0,0,.94-.39l-.79-1.34a7.28,7.28,0,0,0-1,.63.83.83,0,0,0-.34,1,.82.82,0,0,0,1,.48c.39-.15.79-.28,1.19-.39l-1.08-1.08c0,.07-.32.37-.41.54a1,1,0,0,0,.81,1.4l-.14,0a1,1,0,0,0,1.37-1.38,1.74,1.74,0,0,0-1.23-.45l.9,1.19c0-.06.19-.23.24-.32a1.51,1.51,0,0,0,.19-.71.88.88,0,0,0-1.11-.85c-.47.18-.92.36-1.37.58l1,1.3a8,8,0,0,1,.81-.59c.83-.54.07-1.87-.79-1.34l-.7.41.87,1.13c.55-.45,1.07-.88,1.65-1.29s.24-1.54-.52-1.23c-.31.12-.6.28-.92.39s-.64.17-1,.27l.58,1.38c.44-.24.88-.5,1.31-.76.79-.45.1-1.56-.69-1.19Z"/>
        </g>
        <g class="cls-3">
          <path class="cls-4" d="M33.49,27.24a12.09,12.09,0,0,0,2.28-.8c1.15-.57.13-2.32-1-1.73-.39.2-.77.4-1.17.58l1.14,1.47a11.87,11.87,0,0,1,1.75-1.41,1,1,0,0,0-1-1.67c-.5.23-1,.49-1.46.74l1.11,1.44a8.65,8.65,0,0,1,2-1.16c.93-.4.45-1.95-.51-1.89a5.28,5.28,0,0,0-1,.14l.82,1.94A11.75,11.75,0,0,0,38,23.61c.79-.75-.07-1.8-1-1.66a1.83,1.83,0,0,1-.57,0l.91.7,0-.15-.1.73a2.91,2.91,0,0,1,.86-.92.64.64,0,0,0-.45-1.08,7.64,7.64,0,0,1-1,0l.45,1.09a1.09,1.09,0,0,1,.62-.49c.6-.27.16-1.16-.43-1a2.08,2.08,0,0,0-1.1.61.65.65,0,0,0,.46,1.09c.32,0,.64,0,1,0l-.32-1.18c-.73.44-1.89.5-1.83,1.59a1,1,0,0,0,.69.92,4.43,4.43,0,0,0,1.09,0l-.5-1.85c-.46.35-.94.66-1.4,1-.86.67-.43,2.35.81,1.93a5.27,5.27,0,0,1,.68-.19L36.1,23c-.67.51-1.37,1-2.05,1.47A.91.91,0,0,0,35,26l1.51-.65-1.17-1.52c-.65.53-1.3,1-1.91,1.6-.84.8.23,1.87,1.14,1.48l1-.37L34.4,25.07c-.42.58-.79,1.19-1.2,1.78a.26.26,0,0,0,.29.39Z"/>
        </g>
        <g class="cls-3">
          <path class="cls-4" d="M37.72,21.27s0,0,0,0,0,0,0,0Z"/>
        </g>
        <g class="cls-3">
          <path class="cls-4" d="M37.12,21.25l-.45,0c-.63-.07-.54,1.17.23.83l.66-.26-.41-.71-1.2.92c-.29.21-.24.8.2.75l1-.11-.41-.7A4.91,4.91,0,0,1,35,23.35a.45.45,0,0,0,.23.82,1.77,1.77,0,0,1,.46,0l-.46-.8a2,2,0,0,1-1.1.79l.26.95.58-.21-.7-.91a1.59,1.59,0,0,1-1.17.85l.23.82c.26-.15.51-.29.76-.46a.53.53,0,1,0-.64-.84,3.12,3.12,0,0,1-.93.61c-.57.24-.21,1,.29,1.07a8.14,8.14,0,0,0,1,0l-.72-1a1.42,1.42,0,0,1-.73.68c-.82.44-.24,1.64.62,1.45.3-.06.6-.12.89-.2l-1-1-.21.19c-.63.45-.47,1.61.43,1.57l1.1-.05a.93.93,0,1,0-.25-1.84l-1.07.24.82,1.41c.22-.23.39-.46.6-.7a.86.86,0,0,0-.83-1.42l-.87.31.9,1.17a3.33,3.33,0,0,1,.74-.92c.52-.4.46-1.47-.38-1.4a2.1,2.1,0,0,0-1.39.54l.9.7.66-.51-.41-1a2.54,2.54,0,0,0-.77.69c-.34.43.21,1,.63.62A2.74,2.74,0,0,1,35,24.91c.89-.18.28-1.74-.6-1a1.88,1.88,0,0,0-.46.43c-.35.39.13,1.13.6.77a6.16,6.16,0,0,1,1.33-.91.53.53,0,1,0-.42-1l-.31.11.34.81a7.27,7.27,0,0,0,2.15-1.64c.24-.35-.15-.77-.53-.68L36,22l.31.74c.43-.33.87-.64,1.31-1s.16-.92-.33-.78a6,6,0,0,0-.78.27l.51.65.27-.22a.26.26,0,0,0-.21-.48Z"/>
        </g>
        <g class="cls-3">
          <path class="cls-4" d="M37.91,21.71v-.15l-.18.43.14-.13a.64.64,0,0,0-.61-1.06l-.71.21.53,1.26a2.48,2.48,0,0,1,.49-.18l-.46-.35,0,0c.13.85,1.53.65,1.5-.2a1.31,1.31,0,0,0-.07-.44.8.8,0,0,0-.74-.57,2.62,2.62,0,0,0-1.39.51.69.69,0,0,0,.69,1.19l.67-.31-.87-.87-.12.16.37-.29L37,21a.74.74,0,1,0,.94.72Z"/>
        </g>
        <g class="cls-3">
          <path class="cls-4" d="M33.35,23.86c-1.08.23-2.57.73-3.68.42l.5.38-.06-.1-.13,1c.55-.54,2.33-.32,3-.35a4.93,4.93,0,0,0,2.38-.46l-.78-1.34c-1.13.6-2.29,1.1-3.42,1.68a.53.53,0,0,0,.26,1c.71,0,1.86-.57,2.5-.4l-.43-.43c0-.24-.82.39-1,.51a.79.79,0,0,0,.4,1.45c.49,0,.62-.42.86-.73s1-.77,1-1.39a.62.62,0,0,0-.45-.58c-.92-.21-1.9.43-2.82.53l.27,1a10.21,10.21,0,0,1,3.48-1.16c.84-.17.63-1.24,0-1.5-1-.41-2.41,0-3.44.16a6.19,6.19,0,0,0-3,.9.85.85,0,0,0-.13,1C29,26.08,30,26,30.6,26a18.69,18.69,0,0,0,3.25-.36c1.18-.19.7-2.07-.5-1.81Z"/>
        </g>
      </g>
      <g id="Слой_75_копия_" data-name="Слой 75 (копия)">
        <path class="cls-2" d="M32.54,27.17a1.2,1.2,0,0,0-.29-.38,1.22,1.22,0,0,0-.43-1.42c-.27-.19-.59-.29-.87-.46a3.17,3.17,0,0,1-.46-.36A3.6,3.6,0,0,0,30,24,9.46,9.46,0,0,0,27.62,23c-1-.37-1.82-.87-2.75-1.29a2.06,2.06,0,0,0-2.5.61.75.75,0,0,0-.18.3.16.16,0,0,0,0,.07.16.16,0,0,0,0,.1,2.89,2.89,0,0,0,.11,1.41,4.76,4.76,0,0,0,2.92,2.66A17.93,17.93,0,0,1,28.09,28c.76.51.73,1.52,1.42,2a.74.74,0,0,0,.92,0,.82.82,0,0,0,.28-.81,1.37,1.37,0,0,0,.64.16.24.24,0,0,0,.23-.18,1.87,1.87,0,0,0,.05-.93C32.29,28.38,32.93,28,32.54,27.17Z"/>
        <path class="cls-2" d="M42.23,21.92c-.13-1.72-1.57-1.87-2.9-1.49a.43.43,0,0,0-.27.08c-.79,1.15-1,.94-2.47,2.41a8.88,8.88,0,0,0-.87.63,5.67,5.67,0,0,0-.89.73c-.7.75-1.37,2.27-.76,3.15a1.13,1.13,0,0,0,.58.76,1.83,1.83,0,0,0,.3.54.78.78,0,0,0,.74.2c.65-.1,1.19-.91,1.67-1.3.74-.6,1.53-1.14,2.27-1.74C40.75,25,42.35,23.51,42.23,21.92Z"/>
      </g>
      <g id="Слой_79_копия_" data-name="Слой 79 (копия)">
        <path class="cls-6" d="M31.45,12.37c.56-1.57-2.08-1.91-3.06-1.65-1.33.36-2.44,1.55-1.84,2.95A2.58,2.58,0,0,0,30,15.2c.89-.42,1.77-1.76,1.36-2.71Z"/>
        <path class="cls-6" d="M37.46,11.51c-.43-.87-2.27-.87-3-.45a2.51,2.51,0,0,0-1,3.29c.63,1.39,2.52,1.32,3.62.57S38.75,12.29,37.46,11.51Z"/>
        <path class="cls-2" d="M28.45,16.57a.3.3,0,0,0,.15-.2.09.09,0,0,0-.06-.11c-.13,0-.23.14-.24.25s.07.11.12.1.17-.15.22-.26,0-.16-.07-.17h0a.12.12,0,0,0-.14.05.37.37,0,0,0-.09.19.14.14,0,0,0,.1.12c.13.06.2-.09.26-.19a.13.13,0,0,0-.08-.19l-.07,0c-.14,0-.23.18-.1.24l.07,0-.05-.18-.08.19.13.1-.09,0s0,.05,0,0Z"/>
        <path class="cls-6" d="M27,16.62c.07-.06.41-.28.45-.11a.25.25,0,0,0-.12-.1.41.41,0,0,0-.34.09.06.06,0,0,0,0,.08.67.67,0,0,0,.4.2.08.08,0,0,0,.09-.05c.06-.25-.4-.26-.49-.37s0-.23-.21-.3a.36.36,0,0,0-.27,0c.07,0-.3.17-.22.17s-.08.08,0,.1a1.77,1.77,0,0,0,.59.23.05.05,0,0,0,.05,0c.16-.29-.43-.56-.54-.3a0,0,0,0,0,0,.06,1,1,0,0,0,.44.21s.05,0,.05,0-.11-.17-.2-.19-.07.06,0,.08c.2.07.09-.1,0-.09.1,0,.08,0-.05.08l-.26-.11,0,.11c.19,0,.56,0,.54.19a.05.05,0,0,0,.05.05c.12.05.3,0,.36,0s.15.16.23.22a.07.07,0,0,0,.11,0c.24-.38-.44-.63-.67-.22,0,.07,0,.12.1.08Z"/>
        <path class="cls-6" d="M26.67,16.27a.16.16,0,0,0-.2-.08s0,0,0,.06a.21.21,0,0,0,.2.06s0,0,0,0Z"/>
        <path class="cls-6" d="M33.67,17.24c0-.19,0-.25.24-.19s.29,0,.07,0l-.15,0c.06-.11,0-.13-.11-.05s0,.17,0,.14.25,0,.32-.12a.06.06,0,0,0,0-.08.29.29,0,0,0-.47.2.06.06,0,0,0,0,.06,1.23,1.23,0,0,0,.53-.11.06.06,0,0,0,0-.07c-.08-.43-.69-.27-.66.16,0,.07.12.07.12,0Z"/>
      </g>
      <g id="Слой_80_копия_" data-name="Слой 80 (копия)">
        <g>
          <path class="cls-2" d="M31.21,14.79a.63.63,0,0,1-.3-.14.47.47,0,0,0-.43,0,.34.34,0,0,0-.18.38.45.45,0,0,0,.24.25l.1,0a.38.38,0,0,0,.18,0,12.37,12.37,0,0,1,1.67-.42,2.42,2.42,0,0,1,1.46.07.26.26,0,0,1,.12.11.15.15,0,0,1-.06.16.35.35,0,0,1-.17.06,3.59,3.59,0,0,1-1.45-.14,5.23,5.23,0,0,1-.77-.23c-.17-.07-.36-.16-.52-.08"/>
          <path class="cls-2" d="M31.37,14.63c-.94-1.19-2,.79-.77,1a3.88,3.88,0,0,0,1.29-.28,8.43,8.43,0,0,1,.9-.18l.45,0q.63-.3.24-.27c-.13-.1-.66-.07-.87-.11s-.51-.12-.76-.2a1,1,0,0,0-.92-.05c-.34.14-.12.6.17.63.89.08,1.68.64,2.62.53.41,0,1-.32.7-.84s-1.31-.44-1.78-.37a5.76,5.76,0,0,0-1.64.38c-.18.1-.4.15,0,.21a.77.77,0,0,0,.3,0,.24.24,0,0,0,.1-.39Z"/>
        </g>
      </g>
      <g id="Слой_82_копия_" data-name="Слой 82 (копия)">
        <path d="M35.32,12.76c-.79.45.72,1.27,1.08.46s-1.36-.91-1.27-.15a.26.26,0,0,0,.13.22.52.52,0,0,0,.58,0c.15-.12.13-.43-.12-.41a.82.82,0,0,1-.27,0l.18.18a.21.21,0,0,0,.21.08c.22,0,.14,0-.23-.1-.19-.08-.09,0-.12-.15a.11.11,0,0,0-.17-.07Z"/>
        <path d="M28,12.44c-.42.81.89,1.16,1.43.78a.75.75,0,0,0,.24-.88C29.52,12,29,11.9,28.59,12c-.89.11-.62,1.27.23,1.12s.47-1.11-.25-.73a.29.29,0,0,0-.13.23v0a.27.27,0,0,0,.19.26h.05c.32.11.46-.4.14-.51h0l.2.25v0l-.13.23s-.3-.72.27-.29c.14.11.19.23-.11.34s-.62-.19-.81-.43a.11.11,0,0,0-.16,0Z"/>
      </g>
      <g id="Слой_81_копия_" data-name="Слой 81 (копия)">
        <path class="cls-2" d="M31.28,10.35a3.28,3.28,0,0,0-3.76-.11,2.89,2.89,0,0,0-1.23,1.31c-.15.34-.38.87-.06,1.15,0,0,0,.05,0,.06h.11c.93.08,1.86.11,2.79.14l1.25,0a4.44,4.44,0,0,0,1.15,0C32.88,12.53,31.86,10.9,31.28,10.35Z"/>
        <path class="cls-2" d="M37.82,10.5A4.05,4.05,0,0,0,34,10.08a2.18,2.18,0,0,0-1.12,1.38,2,2,0,0,0-.1,1.28l-.15,0a.06.06,0,0,0,0,.11h.24l.06.06a.12.12,0,0,0,.13,0l0,0,0,0c.8,0,1.62,0,2.43,0L37,13a4.53,4.53,0,0,0,1.22,0C39.63,12.66,38.46,11,37.82,10.5Z"/>
      </g>
      <g id="Слой_83_копия_" data-name="Слой 83 (копия)">
        <path class="cls-7" d="M33.73,7.67A6.16,6.16,0,0,0,33.22,6a8.94,8.94,0,0,0-.44-.8c-.07-.11-.16-.34-.29-.4s-.35.12-.46.33c-.51,1-1.16,2.24-.69,3.4a.08.08,0,0,0,.05.05,8.2,8.2,0,0,0-.07,1s0,0,0,0a.1.1,0,0,0,.07.1,3.21,3.21,0,0,0,.75.21,4.53,4.53,0,0,0,.72-.08c.52-.07.7,0,.63-.53a5.4,5.4,0,0,0-.1-.58l.18-.09C33.9,8.41,33.78,8,33.73,7.67Z"/>
      </g>
      <g id="Слой_92" data-name="Слой 92">
        <path class="cls-2" d="M26.24,10.54a1.9,1.9,0,0,0-.81.09c-.29,0-.61,0-.89.09-.45.1-.4.78-.46,1.14a.32.32,0,0,0,.3.4,1.24,1.24,0,0,1,.84.23c.31.23.65-.15.59-.46s.16-.42.17-.67a.45.45,0,0,0-.21-.37A1,1,0,0,0,25,11l.34.79.24-.12-.45-.75-.4.27c-.39.25-.15,1,.34.8a4.4,4.4,0,0,0,.81-.41c.47-.3,0-1.07-.45-.76a2.66,2.66,0,0,1-.6.32l.34.8.41-.27a.44.44,0,0,0-.45-.75l-.23.12a.44.44,0,0,0,.33.8c.09,0,.13,0,.14-.09l-.21-.36c0-.14,0-.16,0,0a1.71,1.71,0,0,0-.09.3,1.18,1.18,0,0,0,0,.59l.5-.49c-.11,0-.25-.12-.39-.15a3.9,3.9,0,0,0-.76,0l.31.4c0-.13.06-.65.09-.7s.54-.07.65-.1c.32-.1.76-.28.85-.62a.06.06,0,0,0,0-.07Z"/>
        <path class="cls-2" d="M37.53,10.52c.35.57,1.15.42,1.7.62l-.29-.22a1.61,1.61,0,0,1,.19.5l.23-.41a4.3,4.3,0,0,0-.94.71l.82.22c-.05-.26.13-.53.14-.79a.73.73,0,0,0-.24-.61A.85.85,0,0,0,38,10.48a.43.43,0,0,0,0,.6c.19.19.38.18.6.31l-.24-.31c.06.16-.07.42-.08.59a1.59,1.59,0,0,0,0,.53.49.49,0,0,0,.82.21,1.72,1.72,0,0,1,.44-.41c.15-.1.32-.14.43-.29.24-.31,0-.79-.15-1.1s-.38-.4-.73-.44a3.73,3.73,0,0,0-1.41,0,.27.27,0,0,0-.16.39Z"/>
      </g>
      <g id="Слой_88" data-name="Слой 88">
        <g class="cls-3">
          <path class="cls-4" d="M23.91,15.6c-1,1.48-1.28,3.57-1.61,5.3-.27,1.46-.54,3.24.72,4.28.24.2.71,0,.58-.33a10.67,10.67,0,0,0-.76-1.51c-1-1.84-.22-2.71.77-4.27a5.6,5.6,0,0,0,.94-3.3.34.34,0,0,0-.64-.17Z"/>
        </g>
        <g class="cls-3">
          <path class="cls-4" d="M23.15,17c-.24,1.39-1,2.69-1.13,4.09a5.44,5.44,0,0,0,1,3.29c.05.08.18,0,.15-.06-.46-1.52-1.06-2.67-.63-4.33a8.58,8.58,0,0,0,.65-3s0,0,0,0Z"/>
        </g>
        <g class="cls-3">
          <path class="cls-4" d="M22.32,19.53c-.31,2.24-.58,4.88,1.21,6.61.24.23.66-.07.47-.36a6.87,6.87,0,0,1-1.34-3.15,18.39,18.39,0,0,1,0-3.06c0-.18-.3-.22-.33,0Z"/>
        </g>
        <g class="cls-3">
          <path class="cls-4" d="M39.65,14.28c.48,1.64,1.88,2.87,2.19,4.59s-.49,3.86-1,5.42a.33.33,0,0,0,.55.32C42.56,23.45,43,21,42.83,19.4c-.2-2.14-2.27-3.35-3.09-5.16,0-.05-.11,0-.09,0Z"/>
        </g>
        <g class="cls-3">
          <path class="cls-4" d="M41.08,17.69c.5,2.72.47,5.43-1.48,7.61-.21.24.15.6.35.35,2-2.46,3.33-5.17,1.62-8.16a.27.27,0,0,0-.49.2Z"/>
        </g>
        <g class="cls-3">
          <path class="cls-4" d="M39.64,25.37c2.54-1.88,3.9-5.59,1.14-7.91-.18-.15-.54,0-.44.26.55,1.45,1.48,2.37.94,4.1a14.87,14.87,0,0,1-1.73,3.45c0,.06,0,.14.09.1Z"/>
        </g>
        <g class="cls-3">
          <path class="cls-4" d="M24.85,12.16l.11-.05a.15.15,0,0,0,0-.27l-.12-.05c-.33-.13-.33.57.05.37Z"/>
        </g>
        <g class="cls-3">
          <path class="cls-4" d="M24.45,12.08a.49.49,0,0,0,.47.06.17.17,0,0,0,.14-.17v-.08s0,0,0,0a.48.48,0,0,0-.61.14.07.07,0,0,0,0,.09Z"/>
        </g>
        <g class="cls-3">
          <path class="cls-4" d="M24.86,11.9l0-.06s0-.09-.06-.07l-.06,0a.05.05,0,0,0,0,0v.08s0,0,.05,0h.06a0,0,0,0,0,0-.06Z"/>
        </g>
        <g class="cls-3">
          <path class="cls-4" d="M25,11.78s0,0,0,0,0,0,0,0Z"/>
        </g>
        <g class="cls-3">
          <path class="cls-4" d="M24.76,11.89,24.6,12a0,0,0,0,0,0,.07h.18c.13,0,.09-.23,0-.16Z"/>
        </g>
        <g class="cls-3">
          <path class="cls-4" d="M39.5,11.53a.86.86,0,0,0-.39.06l.2.49.31-.17c.22-.12.14-.54-.14-.5s-.32,0-.42.26a.19.19,0,0,0,.11.28.53.53,0,0,0,.39,0l-.21-.49-.31.16c-.3.17,0,.66.27.47a2.67,2.67,0,0,0,.32-.24.18.18,0,0,0-.13-.31Z"/>
        </g>
        <g class="cls-3">
          <path class="cls-4" d="M39.5,11.71a.58.58,0,0,0-.48.06c-.11,0,0,.2.07.18a1.2,1.2,0,0,0,.42-.22s0,0,0,0Z"/>
        </g>
        <g class="cls-3">
          <path class="cls-4" d="M39.45,11.42c-.27.07-.41.1-.55.34A.16.16,0,0,0,39,12a1.07,1.07,0,0,0,.53-.15.23.23,0,0,0-.12-.44Z"/>
        </g>
        <g class="cls-3">
          <path class="cls-4" d="M39.46,11.56c-.4,0-.81.51-.41.83.05,0,.14.06.18,0a4.34,4.34,0,0,0,.3-.7.08.08,0,0,0-.07-.13Z"/>
        </g>
        <g class="cls-3">
          <path class="cls-4" d="M39.38,11.66h0a.13.13,0,0,0-.13,0c-.17.07-.21.1-.24.29s.14.27.25.15.24-.27.13-.4Z"/>
        </g>
        <g class="cls-3">
          <path class="cls-4" d="M39.48,10.85a.47.47,0,0,0,.1.57c.12.14.3,0,.28-.16a3.17,3.17,0,0,0-.12-.41.14.14,0,0,0-.26,0Z"/>
        </g>
        <g class="cls-3">
          <path class="cls-4" d="M39.44,10.9a.91.91,0,0,0,.22.67.13.13,0,0,0,.22-.09,1.89,1.89,0,0,0-.2-.65c0-.12-.25-.06-.24.07Z"/>
        </g>
        <g class="cls-3">
          <path class="cls-4" d="M24.33,11.24c-.1.16-.1.17,0,.36a.09.09,0,0,0,.18,0,.34.34,0,0,0,0-.36.06.06,0,0,0-.1,0Z"/>
        </g>
      </g>
      <g id="Слой_90" data-name="Слой 90">
        <g class="cls-8">
          <path class="cls-9" d="M29.87,12.62c-.21-.51-.95-.35-1.36-.52l-.1.67a11,11,0,0,0,1.28,0V12l-1.6.17.1.79,1.5-.42a.38.38,0,0,0-.1-.74c-.37,0-.72.1-1.09.05l.27.65a3.45,3.45,0,0,1,.71-.43.28.28,0,0,0,0-.48c-.27-.19-.77,0-1.07,0l.16.58a5.45,5.45,0,0,1,.68-.35c.28-.12.36-.56,0-.65a1.51,1.51,0,0,0-.7,0l.26.63a5.05,5.05,0,0,1,.58-.36c.29-.15.13-.55-.15-.57a1,1,0,0,0-.68.21c-.15.09-.11.37.09.35a1.73,1.73,0,0,1,.51,0v-.59a5.47,5.47,0,0,0-.69.33.34.34,0,0,0,.17.63,3,3,0,0,1,.52,0L29,11.2a4.5,4.5,0,0,0-.73.43.31.31,0,0,0,.23.56c.06,0,.7-.16.65-.2l.12-.47a4.15,4.15,0,0,0-1,.34.39.39,0,0,0,.09.7,9.48,9.48,0,0,0,1.19-.05l-.11-.74-1.5.38c-.42.1-.35.83.11.78s1.13-.13,1.7-.21.33-.82-.1-.76l-1.28.13a.34.34,0,0,0,0,.68,8.21,8.21,0,0,0,1.4-.07s.08,0,.06-.08Z"/>
        </g>
        <g class="cls-8">
          <path class="cls-9" d="M28.88,12.61l.11-.07c.21-.12.06-.39-.15-.36-.51.07-1,.11-1.54.14l.12.41a2.9,2.9,0,0,1,.64-.24A.24.24,0,0,0,28,12a3.57,3.57,0,0,0-.65.06l.2.48a1.21,1.21,0,0,1,.43-.17.31.31,0,0,0,.16-.57l-.07-.05-.08.65.88-.33c.37-.13.35-.75-.1-.74a2.78,2.78,0,0,0-.71.12l.2.74a5.44,5.44,0,0,0,.86-.37.36.36,0,0,0-.09-.66.87.87,0,0,0-.84.08.33.33,0,0,0,0,.46c.16.2.43.09.65.16l-.09-.67a3.38,3.38,0,0,1-.69.26.38.38,0,0,0,.2.74,2.88,2.88,0,0,1,.51-.1l-.19-.7-.86.36c-.42.18-.06.8.35.61l.07,0-.31-.53c-.18.1-.37.18-.54.29a.26.26,0,0,0,.2.47A3,3,0,0,1,28,12.5L27.94,12a4.13,4.13,0,0,0-.75.32c-.18.1-.11.43.11.41.55,0,1.1-.11,1.64-.2l-.24-.24,0,.12a.15.15,0,0,0,.22.17Z"/>
        </g>
        <g class="cls-8">
          <path class="cls-9" d="M28.23,12.39a8,8,0,0,0-1.39-.14v.57c.69-.07,1.37-.14,2.06-.18l-.1-.73a3.72,3.72,0,0,1-.74.08l.19.73c.34-.16.68-.33,1-.48s.13-.65-.19-.68a3.94,3.94,0,0,0-.84,0l.37.64c.2-.2.43-.25.6-.49a.35.35,0,0,0-.3-.52h-.34l.23.57.24-.24c.12-.15.1-.44-.13-.48l-.29,0,.18.43s.12-.11.14-.14A.31.31,0,0,0,29,11l0,0-.11.44a.75.75,0,0,0,.24-.15.19.19,0,0,0,0-.27.51.51,0,0,0-.32-.17c-.3-.05-.57.31-.31.54l0,0-.08-.31c0-.07-.09.12-.1.16a.3.3,0,0,0,.28.37h.22l-.13-.47-.15.08c-.38.09-.27.63.09.65l.34,0-.29-.51c-.08.11-.36.16-.47.24a.39.39,0,0,0,.29.7,2.79,2.79,0,0,1,.64,0l-.18-.68c-.31.15-.63.27-1,.4a.39.39,0,0,0,.11.76,3.4,3.4,0,0,0,.94-.14.37.37,0,0,0-.2-.72c-.68.14-1.35.25-2,.35-.31.05-.24.57.07.56s.89,0,1.34,0c.22,0,.28-.35.05-.39Z"/>
        </g>
        <g class="cls-8">
          <path class="cls-9" d="M29.11,11.25c-.07.21-.21.21-.24.44a.22.22,0,0,0,.12.2,3.54,3.54,0,0,0,.74.23l-.15-.54c-.15.15-.35.19-.49.37s-.15.59.17.64l.54.07L29.53,12a4.12,4.12,0,0,1-.28.31.39.39,0,0,0,0,.55c.32.37,1.22.19,1.53-.11a.3.3,0,0,0-.13-.49.71.71,0,0,0-.37-.06c-.06,0-.53.07-.49.11v.55c.1-.1.19-.21.28-.32a.38.38,0,0,0-.27-.65l-.44-.06.33.58c.15-.22.36-.22.44-.52a.33.33,0,0,0-.32-.41h-.46c-.06.08-.08.08-.05,0s0-.24,0-.24-.14,0-.16,0Z"/>
        </g>
        <g class="cls-8">
          <path class="cls-9" d="M35.78,11.14a.79.79,0,0,0-.4-.1.2.2,0,0,0,0,.4l.32.05-.09-.37a1.44,1.44,0,0,1-.43.28c-.18.07-.13.32,0,.4s.37.07.59.12l-.11-.41a2.13,2.13,0,0,1-.78.35.27.27,0,0,0,.07.52l.54,0-.08-.6-.33.12a.35.35,0,0,0,.1.68,1.22,1.22,0,0,0,.38,0l-.18-.67-1,.2.19.69.27-.07a.36.36,0,0,0-.1-.7,3.37,3.37,0,0,0-1,.15l.2.74.08,0a.39.39,0,1,0-.3-.71l-.08,0c-.44.24,0,.87.39.67a1.47,1.47,0,0,1,.71-.15l-.09-.69-.27.06c-.45.1-.26.79.19.69l1-.22c.45-.1.25-.74-.18-.67h-.2l.17.64a2.9,2.9,0,0,0,.29-.19.31.31,0,0,0-.23-.56,1,1,0,0,1-.46,0l.14.5a2.19,2.19,0,0,0,.95-.54.24.24,0,0,0-.14-.36c-.15,0-.37,0-.49,0v.4a1.55,1.55,0,0,0,.51-.37.22.22,0,0,0-.1-.37,1.4,1.4,0,0,0-.5,0l.16.36a.49.49,0,0,1,.29-.13.08.08,0,0,0,0-.14Z"/>
        </g>
        <g class="cls-8">
          <path class="cls-9" d="M36,11.1,35.67,11a.29.29,0,0,0-.15.56l.14.05L35.59,11a1.92,1.92,0,0,1-.31.18.38.38,0,0,0,.09.68,2.09,2.09,0,0,0,.55.08l-.19-.73-.38.23a.42.42,0,0,0,.21.77l.57,0-.22-.8-.47.24a.44.44,0,0,0,0,.76,1.27,1.27,0,0,0,.64.13l-.32-.76,0,0a.45.45,0,0,0,.23.84l.74,0-.12-.91-.36.14c-.55.22-.34,1.1.25.91a8.89,8.89,0,0,1,1-.19c.45-.07.34-.8-.1-.78a9.4,9.4,0,0,1-1.06,0l.13.92.47-.2c.43-.18.2-.89-.24-.87l-.74,0,.23.85a1.37,1.37,0,0,0,.23-.19c.23-.26.09-.81-.32-.77a.34.34,0,0,1-.31,0l.11.81.46-.25a.44.44,0,0,0-.21-.81h-.57l.21.77.35-.26c.28-.21.23-.76-.2-.73a.84.84,0,0,1-.35,0l.17.63a1.18,1.18,0,0,0,.23-.27c.16-.19.08-.57-.22-.54h-.16l.15.54a2.83,2.83,0,0,0,.28-.2.14.14,0,0,0,0-.25Z"/>
        </g>
        <g class="cls-8">
          <path class="cls-9" d="M35.61,11.29v0a.12.12,0,0,0,.14.14l.21-.07c.1,0,.16-.2,0-.25a1.14,1.14,0,0,0-.85,0c-.26.07-.22.52.06.49l.65-.08L35.79,11l-.81.2a.33.33,0,0,0,0,.63,3.23,3.23,0,0,0,.76,0l-.25-.59c-.18.23-.58.22-.81.45a.38.38,0,0,0,.27.63,4.19,4.19,0,0,0,.5,0l-.1-.72a8.87,8.87,0,0,0-.87.29.34.34,0,1,0,.26.63l.17-.08-.24-.55a1.23,1.23,0,0,0-.78.51.22.22,0,0,0,.19.33,4.74,4.74,0,0,0,.75-.26.31.31,0,0,0-.08-.6h-.18l.09.67.89-.25c.38-.1.31-.75-.1-.71a4.18,4.18,0,0,1-.5,0l.26.63c.23-.25.6-.24.82-.55a.34.34,0,0,0-.29-.52,2.86,2.86,0,0,1-.58,0v.63a6.59,6.59,0,0,0,.84-.32c.3-.13.08-.57-.21-.51l-.64.14.13.48c.23-.09.46-.15.68-.24l-.1-.25-.2.12.17.09v0c0-.11-.19-.16-.21,0Z"/>
        </g>
        <g class="cls-8">
          <path class="cls-9" d="M35.31,11.05c-.28.16-.52.38-.8.54s-.51.2-.67.46a.24.24,0,0,0,.09.33c.64.32,1.53-.5,1.69-1.09a.21.21,0,0,0-.31-.24Z"/>
        </g>
        <g class="cls-8">
          <path class="cls-9" d="M35.77,11.31l0,0,.09-.23a1.73,1.73,0,0,0-.46.21.3.3,0,0,0,.07.53c.16,0,.65,0,.75.08l.16-.6c-.34.14-.67.3-1,.46s-.17.74.2.75h.67l-.4-.52c-.27.87,1.27.78,1.71.53a.32.32,0,0,0,0-.55c-.39-.22-.76-.07-1.18-.15l.24.19,0-.06,0,.32v-.06a.42.42,0,0,0-.39-.53l-.67,0,.2.74c.3-.16.59-.31.88-.49a.36.36,0,0,0,0-.62,2.08,2.08,0,0,0-1.11-.09l.25.44a3.48,3.48,0,0,1,.23-.38c.1-.16-.11-.28-.24-.19l0,0a.08.08,0,0,0,0,.11Z"/>
        </g>
        <g class="cls-8">
          <path class="cls-9" d="M31.1,14.66l0,0a.18.18,0,0,0-.14-.08c-.33,0-.63.23-.5.59a.24.24,0,0,0,.34.14c.12-.08.18-.31.24-.42s.14-.11.09-.19Z"/>
        </g>
        <g class="cls-8">
          <path class="cls-9" d="M30.9,14.48a.54.54,0,0,0-.39.81.22.22,0,0,0,.2.12c.36,0,.21-.53.33-.75a.12.12,0,0,0-.14-.18Z"/>
        </g>
        <g class="cls-8">
          <path class="cls-9" d="M33.44,14.8c.19.15.12.49.2.72s.16.19.26.11c.45-.34.15-1.26-.44-1a.08.08,0,0,0,0,.13Z"/>
        </g>
        <g class="cls-8">
          <path class="cls-9" d="M33.63,15.09l.09.1c.05.05.14,0,.1-.08L33.75,15c0-.09-.19,0-.12.09Z"/>
        </g>
        <g class="cls-8">
          <path class="cls-9" d="M28.53,8.88A8.12,8.12,0,0,0,27,10.11a4,4,0,0,0-1.1,1.55.26.26,0,0,0,.43.25c.42-.39.68-1,1.08-1.39A7.43,7.43,0,0,1,28.8,9.34a.27.27,0,0,0-.27-.46Z"/>
        </g>
        <g class="cls-8">
          <path class="cls-9" d="M29,8.69c-2.11,0-4.2,3.53-4.28,5.34,0,.24.29.27.41.11.67-.89.92-2.07,1.51-3A8,8,0,0,1,29,8.75s0-.06,0-.06Z"/>
        </g>
        <g class="cls-8">
          <path class="cls-9" d="M25.66,11.28c-.3.94-.6,1.88-.93,2.81a17.1,17.1,0,0,0-1,2.79.19.19,0,0,0,.35.15,9.87,9.87,0,0,0,1.11-2.58c.35-1,.65-2,.91-3a.24.24,0,0,0-.47-.13Z"/>
        </g>
        <g class="cls-8">
          <path class="cls-9" d="M24.16,16a15.81,15.81,0,0,1,1.75-4.34,6.09,6.09,0,0,1,1.47-1.76c.58-.43,1.24-.51,1.73-1,.08-.09,0-.29-.14-.23a6.49,6.49,0,0,0-3.45,2.59A9.41,9.41,0,0,0,24,16c0,.1.15.12.17,0Z"/>
        </g>
        <g class="cls-8">
          <path class="cls-9" d="M38.76,22.08c-.68.57-1.28,1.23-2,1.79-.54.43-1.39,1-1.48,1.71,0,.2.22.28.37.21a4.05,4.05,0,0,0,.92-.84c.32-.3.66-.57,1-.84a3.79,3.79,0,0,0,1.51-1.83.2.2,0,0,0-.33-.2Z"/>
        </g>
        <g class="cls-8">
          <path class="cls-9" d="M39.24,20.07A5.84,5.84,0,0,0,38.71,23a.19.19,0,0,0,.34.05,8,8,0,0,0,.76-2.82.3.3,0,0,0-.57-.16Z"/>
        </g>
        <g class="cls-8">
          <path class="cls-9" d="M39.27,20.13a1.08,1.08,0,0,1-.43,1.1c-.26.3.08.8.44.57s.51-.32.76-.48.12-.78-.26-.63a5.11,5.11,0,0,0-1.22.65.39.39,0,0,0,.3.71l.79-.21-.27-.65a16.73,16.73,0,0,0-1.52,1.14c-.32.27,0,.71.3.74A2.36,2.36,0,0,0,39,23l-.34-.81c-.62.47-1.27.9-1.94,1.31s-.07,1,.47.81a9.9,9.9,0,0,1,1-.37L38,23a7.26,7.26,0,0,0-1.85,1.07c-.38.3,0,1,.47.81a6.84,6.84,0,0,1,.72-.25L37,23.82a9.27,9.27,0,0,0-1.78,1,.51.51,0,1,0,.62.8,8.66,8.66,0,0,1,1.61-1.07c.45-.23.13-.92-.34-.8a6.69,6.69,0,0,1-.75.16l.37.89a9.58,9.58,0,0,1,1.64-.95c.5-.22.14-1-.37-.88a10.61,10.61,0,0,0-1.26.49l.47.81c.66-.43,1.29-.89,1.92-1.35a.45.45,0,0,0-.34-.81,1.59,1.59,0,0,1-.65.07l.31.73a11.47,11.47,0,0,1,1.27-1.14.36.36,0,0,0-.28-.65l-.81.15L39,22a4.61,4.61,0,0,1,1-.63l-.34-.6-.78.45.49.5c.25-.36.76-1.12.31-1.53-.16-.15-.3-.22-.46,0Z"/>
        </g>
        <g class="cls-8">
          <path class="cls-9" d="M39.82,20.06a8.19,8.19,0,0,1-1.17,2.13c-.57.77-1.35,1.26-1.95,2-.21.25,0,.7.34.59a5.23,5.23,0,0,0,2.36-2.11c.4-.58,1.29-1.88.79-2.57A.23.23,0,0,0,39.9,20s-.07,0-.08.07Z"/>
        </g>
        <g class="cls-8">
          <path class="cls-9" d="M39.36,21.63a25.41,25.41,0,0,0-4,3c-.83.74-1.37,1.77-.66,2.8.21.31.85.25.79-.22a2.27,2.27,0,0,1,.41-1.8,12.42,12.42,0,0,1,1.2-1.09,27.41,27.41,0,0,0,2.42-2.4.17.17,0,0,0-.21-.27Z"/>
        </g>
        <g class="cls-8">
          <path class="cls-9" d="M34.6,27.1a1.21,1.21,0,0,0,1.07-.19c.34-.23.14-.82-.29-.69a3.12,3.12,0,0,0-.73.3c-.4.22,0,.81.36.61s1-.54,1-1a.18.18,0,0,0-.18-.18c-.42,0-.83.43-1.2.61l.36.61a.88.88,0,0,1,.47-.16l-.19-.71a1.69,1.69,0,0,1-.69.22c-.34.05-.27.53,0,.62Z"/>
        </g>
        <g class="cls-8">
          <path class="cls-9" d="M35.71,26c-.39.34-1.35.89-1.28,1.5a.41.41,0,0,0,.28.37,1.48,1.48,0,0,0,1.53-1.18.26.26,0,0,0-.26-.26.74.74,0,0,0-.5.22l-.28.24s-.33.22-.28.23l.27.27,0-.09,0,.29c.25-.47.59-.91.87-1.36.12-.19-.14-.36-.29-.23Z"/>
        </g>
        <g class="cls-8">
          <path class="cls-9" d="M36.19,26.55a2.53,2.53,0,0,0-.79.77c-.13.23,0,.61.33.57a2.07,2.07,0,0,0,.41-.07l-.49-.37c0,.27-.24.43-.06.7a.48.48,0,0,0,.5.19A2.24,2.24,0,0,0,37.26,27c.07-.19-.15-.3-.3-.23-.45.2-.75.59-1.17.82l.3,0,.08,0,.09.38a2.31,2.31,0,0,0,.16-.57.39.39,0,0,0-.49-.37,1.07,1.07,0,0,1-.3.06l.48.37a3.73,3.73,0,0,1,.31-.78c0-.13-.12-.27-.23-.18Z"/>
        </g>
        <g class="cls-8">
          <path class="cls-9" d="M35.36,28.4a3.21,3.21,0,0,0,1.3-.75,2.38,2.38,0,0,0,1-1.13.22.22,0,0,0-.26-.27,2.61,2.61,0,0,0-1.27.85,3.48,3.48,0,0,0-.92,1.14c0,.1.08.18.17.16Z"/>
        </g>
        <g class="cls-8">
          <path class="cls-9" d="M40.53,20.36a14,14,0,0,0-1.65,1.11.32.32,0,0,0,.24.59l.55-.08-.34-.26c0,.07-1.59,1.35-1.77,1.49-.36.28,0,.73.4.68a7.45,7.45,0,0,0,.82-.17l-.49-.49c0,.28-.87.71-1.09.87a1.53,1.53,0,0,0-.58.63.26.26,0,0,0,.29.38,4.15,4.15,0,0,0,1.53-.94c.29-.21.55-.36.62-.73a.4.4,0,0,0-.49-.49c-.28.06-.55.11-.83.15l.4.68c.51-.49,1-1,1.53-1.48.23-.23.45-.42.34-.77a.38.38,0,0,0-.34-.26,2.6,2.6,0,0,0-.72.17l.31.53c.45-.5,1-.93,1.44-1.39.13-.11,0-.3-.17-.22Z"/>
        </g>
        <g class="cls-8">
          <path class="cls-9" d="M24,19.68a4.07,4.07,0,0,0,.63,2.82,3.53,3.53,0,0,0,2.21,1.65.16.16,0,0,0,.15-.26c-.48-.61-1.16-1-1.69-1.56A4.24,4.24,0,0,1,24,19.68s0,0,0,0Z"/>
        </g>
        <g class="cls-8">
          <path class="cls-9" d="M24,21.71c1.15,1.41,2.69,2.48,3.9,3.85l.53-.53c-.51-.57-1-1.12-1.55-1.68a.37.37,0,0,0-.62.36,3.63,3.63,0,0,0,.58,1.1.39.39,0,0,0,.72-.2,3.2,3.2,0,0,0-.06-1.11l-.79.22A12,12,0,0,0,27.16,25,.46.46,0,0,0,28,25a2.1,2.1,0,0,0,.24-1.07l-.94.13c.23.65.32,1.58,1,1.92a.52.52,0,0,0,.78-.44l.12-.87h-1c.16.53.37,1.41,1,1.52a.5.5,0,0,0,.51-.13,2.5,2.5,0,0,0,.39-.69h-.89c.2.39.39.79.58,1.19a.51.51,0,0,0,.86,0c.12-.27.2-.48.3-.76H30l.24.71c.12.33.68.51.85.11s.14-.31-.07-.08-.27.35,0,.62c.22.53,1.08.29.86-.24a4.94,4.94,0,0,0-.51-1.12.47.47,0,0,0-.5-.21c-.32.05-.43.29-.58.56l.85.11L31,25.55a.49.49,0,0,0-.93,0l-.23.51h.86c-.19-.4-.37-.81-.55-1.21a.52.52,0,0,0-.89,0q.51.42,0-.45c-.14-.47-.91-.54-1,0a10.77,10.77,0,0,0-.15,1.14l.78-.45c-.24-.11-.5-1.06-.59-1.29a.48.48,0,0,0-.93.13l-.16.83.82-.11a5.75,5.75,0,0,1-.46-1.15.41.41,0,0,0-.79.22l.07.89.66-.27L27,23.52l-.62.36c.51.56,1,1.13,1.55,1.68.33.35.86-.18.53-.53a21.22,21.22,0,0,0-4.26-3.54c-.15-.09-.27.1-.17.22Z"/>
        </g>
        <g class="cls-8">
          <path class="cls-9" d="M25.2,22a9.83,9.83,0,0,0,2.28,2.08c1.11.79,2.77,1.17,3.54,2.32l.42-.55,0,0-.63.27a11,11,0,0,1,.54,1.22.38.38,0,0,0,.73-.2L32,26.71a.33.33,0,0,0-.64.08,2.8,2.8,0,0,0,0,.71l.76-.1L32,27a.39.39,0,0,0-.7-.1l-.2.29.6-.08c-.34-.43-.65-.87-.95-1.33-.1-.16-.39-.06-.32.14a12.52,12.52,0,0,0,.67,1.66.39.39,0,0,0,.66,0l.2-.29-.7-.09.12.39a.38.38,0,0,0,.74-.2,2.85,2.85,0,0,1-.15-.69l-.64.08v.45l.75-.1a7.56,7.56,0,0,0-.67-1.37.35.35,0,0,0-.64.27.73.73,0,0,0,.35.47.38.38,0,0,0,.56-.42c-.44-1.16-1.56-1.39-2.59-1.9-1.33-.67-2.41-1.74-3.73-2.4-.11-.05-.28.07-.19.19Z"/>
        </g>
        <g class="cls-8">
          <path class="cls-9" d="M24.74,22c.33.5,1.11,1.63,1.82,1.64a2.71,2.71,0,0,0,.49-.13c.45.26.69,1.17,1.22,1.5.74.47,1.81.32,2.23,1.29.11.26.48.19.61,0-.09.13.5.56.61.63a.27.27,0,0,0,.36-.36c-.31-.57-.89-1.47-1.52-.7l.55.07a3.22,3.22,0,0,0-1.43-1.28c-.7-.28-.36.35-1.36-.28a6.52,6.52,0,0,1-1.15-1.25.12.12,0,0,0-.17,0c-.51.35-1.79-.9-2.14-1.2a.08.08,0,0,0-.12.09Z"/>
        </g>
        <g class="cls-8">
          <path class="cls-9" d="M30.74,28.7c-.07-.35-.12-.28-.16.19s.34.61.48.28a4.73,4.73,0,0,1,.29-.6l-.59-.25-.07.17.56.15a2.43,2.43,0,0,1-.08-.54c0-.23-.31-.39-.47-.2a2.55,2.55,0,0,0-.29.38l.55.07a3.38,3.38,0,0,0-.39-1c-.1-.14-.25-.18-.3-.24a.21.21,0,0,0-.28,0l0,.05a.27.27,0,0,0,0,.37l.06.06a.27.27,0,0,0,.31,0c-.13.07,0,.71.06.92a.3.3,0,0,0,.55.07,2,2,0,0,1,.2-.35l-.52-.14a4.42,4.42,0,0,0,0,.63.34.34,0,0,0,.63.17,1,1,0,0,0,.16-.41c.06-.33-.4-.59-.58-.24a2,2,0,0,0-.26.78h.56c0-.26,0-.65-.21-.81a.17.17,0,0,0-.17,0,.62.62,0,0,0-.25.44.14.14,0,1,0,.27,0Z"/>
        </g>
        <g class="cls-8">
          <path class="cls-9" d="M30,27.09a.81.81,0,0,0-.05.68.18.18,0,0,0,.3.08c.4-.37.34.58.52.8s.16.11.23.17c.26.21.18.4.22.69,0,.11.15.2.24.1a.6.6,0,0,0,.18-.66c-.14-.36-.54-.43-.71-.77s-.12-.63-.33-.76-.41.07-.56.15l.21,0a.6.6,0,0,1-.21-.51s0,0,0,0Z"/>
        </g>
        <g class="cls-8">
          <path class="cls-9" d="M29.52,27.51h-.07a.17.17,0,0,0-.16.12c-.1.3-.22.59-.34.88s.54.61.68.18a1.22,1.22,0,0,1,.14-.33l-.66-.18c0,.28-.1.73.13,1s.38.08.6.09l-.27-.11.07.09L29.53,29c0,.21,0,.42,0,.64a.41.41,0,0,0,.29.28h.06c.28.06.62-.18.5-.49a.48.48,0,0,0-.34-.31l.28.29c-.1-.27,0-.57-.26-.77a.45.45,0,0,0-.26-.12c-.05,0-.34,0-.24.05l.26.26a2.09,2.09,0,0,1,0-.61c0-.34-.5-.51-.66-.18a3.89,3.89,0,0,0-.21.51h.68a1.08,1.08,0,0,1,0-.79l-.29,0,0,.07c.18.41.66-.35.18-.32Z"/>
        </g>
        <g class="cls-8">
          <path class="cls-9" d="M29.55,27.91a1.05,1.05,0,0,0-.17,1.23.65.65,0,0,0,.53.34,1.18,1.18,0,0,0,.59-.18l-.26,0,0,0L30.12,29q.22.48.06.09A1.37,1.37,0,0,0,30,29a.21.21,0,0,0-.34.09c-.07.29,0,.76.36.83s.49-.45.67-.72a.35.35,0,0,0-.12-.46l-.06,0a.37.37,0,0,0-.38,0c-.18.11-.21.07-.31-.12a.85.85,0,0,1-.16-.55.07.07,0,0,0-.12-.07Z"/>
        </g>
        <g class="cls-8">
          <path class="cls-9" d="M29.69,29c-.14-.39.5-1.24-.25-1.34a.24.24,0,0,0-.28.16A1.84,1.84,0,0,0,29.49,29c.06.1.25,0,.2-.09Z"/>
        </g>
        <g class="cls-8">
          <path class="cls-9" d="M25.47,16.62c.13.31.51.4.79.53a5.53,5.53,0,0,0,1.1.45.19.19,0,0,0,.19-.32,3.5,3.5,0,0,0-1.09-.59c-.31-.12-.66-.31-1-.14a.05.05,0,0,0,0,.07Z"/>
        </g>
        <g class="cls-8">
          <path class="cls-9" d="M26.77,17.28a11.83,11.83,0,0,0,3.12.89.22.22,0,0,0,.11-.41,10.42,10.42,0,0,0-1.47-.45c-.55-.16-1.09-.33-1.63-.51-.31-.11-.44.37-.13.48Z"/>
        </g>
        <g class="cls-8">
          <path class="cls-9" d="M25.74,16.61c2,.84,4,2.11,6.18,1.43a.13.13,0,0,0,0-.26A9.67,9.67,0,0,1,29,17.45c-1-.38-2-.85-3-1.27-.29-.13-.55.3-.25.43Z"/>
        </g>
        <g class="cls-8">
          <path class="cls-9" d="M30.6,18.33A18.25,18.25,0,0,0,34,18.22c.22,0,.23-.42,0-.45a22.56,22.56,0,0,0-3.39,0,.29.29,0,0,0,0,.58Z"/>
        </g>
        <g class="cls-8">
          <path class="cls-9" d="M32.4,18.29c.49-.12,1-.12,1.5-.23a10.4,10.4,0,0,0,1.44-.44c.15-.05.15-.32,0-.3a6.82,6.82,0,0,0-1.42.25c-.53.16-1,.44-1.5.63a0,0,0,0,0,0,.09Z"/>
        </g>
        <g class="cls-8">
          <path class="cls-9" d="M25.62,16.53c1.84.84,3.7,2.28,5.86,1.93.14,0,.11-.21,0-.25-1.18-.45-2.44-.55-3.62-1.07-.72-.32-1.41-1-2.21-.82a.11.11,0,0,0,0,.21Z"/>
        </g>
        <g class="cls-8">
          <path class="cls-9" d="M32.11,6.74c-.28.21-.26.58-.29.9A2.15,2.15,0,0,0,31.91,9a.2.2,0,0,0,.33,0,2,2,0,0,0,.16-1.24c0-.32,0-.75-.23-1,0,0,0,0-.06,0Z"/>
        </g>
        <g class="cls-8">
          <path class="cls-9" d="M32.25,6.77a1.4,1.4,0,0,0-.26.81c-.06.4-.1.81-.16,1.21l.58.08a4.76,4.76,0,0,0,0-1.88c-.08-.26-.26-.47-.21,0a1.39,1.39,0,0,0,.21.67.16.16,0,0,0,.29,0,1.06,1.06,0,0,0-.4-1.08s0,0-.06,0a2.92,2.92,0,0,1-.21.53,2.94,2.94,0,0,0-.12.59c-.06.4-.09.8-.11,1.2s.56.37.59,0c.05-.56.28-1.63-.12-2.1Z"/>
        </g>
        <g class="cls-8">
          <path class="cls-9" d="M32.38,6.71V6.64s-.05-.07-.09,0c-.22.12-.24.24-.29.49s.32.47.46.2a.92.92,0,0,0,.13-.54c0-.28-.44-.36-.5-.07-.1.51-.36,1.33,0,1.76a.13.13,0,0,0,.2,0c.28-.4.14-1.12.25-1.59l-.5-.07L32,7l.47.06a2.16,2.16,0,0,0-.11-.47l-.07.09,0,0Z"/>
        </g>
        <g class="cls-8">
          <path class="cls-9" d="M32,7.31a10.39,10.39,0,0,1-.3,1.77.2.2,0,0,0,.36.15,3.83,3.83,0,0,0,.41-1.92.24.24,0,0,0-.47,0Z"/>
        </g>
        <g class="cls-8">
          <path class="cls-9" d="M31.82,9.16a3.07,3.07,0,0,0,.6-1.61.12.12,0,0,0-.22,0,3.1,3.1,0,0,0-.4,1.66Z"/>
        </g>
        <g class="cls-8">
          <path class="cls-9" d="M32.14,7a1.94,1.94,0,0,0,.08.64.21.21,0,0,0,.4-.06,5.72,5.72,0,0,0,0-.58.23.23,0,0,0-.46,0Z"/>
        </g>
        <g class="cls-8">
          <path class="cls-9" d="M24.82,11.27a.48.48,0,0,0,.59-.13.1.1,0,0,0-.06-.16.59.59,0,0,0-.55.21s0,.06,0,.08Z"/>
        </g>
        <g class="cls-8">
          <path class="cls-9" d="M24.68,11.19a.72.72,0,0,0,.88-.13c0-.06,0-.14-.09-.11a2.36,2.36,0,0,1-.65.14.12.12,0,0,0,0,.24c.38,0,.81,0,.94-.37a.14.14,0,0,0-.09-.16c-.35-.08-.59.17-.91.31l.09.22a5.21,5.21,0,0,1,.66-.24l0-.15a.92.92,0,0,0-.81.24Z"/>
        </g>
        <g class="cls-8">
          <path class="cls-9" d="M25,11.22c.38,0,.83,0,1-.36.06-.1,0-.2-.13-.21-.37,0-.65.25-1,.41a.09.09,0,0,0,.05.16Z"/>
        </g>
        <g class="cls-8">
          <path class="cls-9" d="M24.6,11.24c.29.33,1,.12,1.27-.14s0-.41-.16-.39-1,.18-1.12.5a0,0,0,0,0,0,0Z"/>
        </g>
        <g class="cls-8">
          <path class="cls-9" d="M37.35,9.51c-.12.27.29.63.45.83s.5.57.9.52c.11,0,.14-.15.1-.23s-1.31-1.46-1.45-1.12Z"/>
        </g>
        <g class="cls-8">
          <path class="cls-9" d="M37.6,10.25a2.32,2.32,0,0,0,1.87.85.37.37,0,0,0,0-.73,1.88,1.88,0,0,0-.94.1.14.14,0,0,0,0,.24c.21.13.5.14.68.28l.36-.61A7.92,7.92,0,0,1,37.76,10c-.17-.06-.26.17-.16.28Z"/>
        </g>
        <g class="cls-8">
          <path class="cls-9" d="M39.33,10.67a1.77,1.77,0,0,0-1.4-.29c-.2,0-.19.3,0,.39a1.26,1.26,0,0,0,1.45,0,.08.08,0,0,0,0-.11Z"/>
        </g>
        <g class="cls-8">
          <path class="cls-9" d="M39,10.32a6.88,6.88,0,0,0-.91,0c-.13,0-.14.18-.07.26A1.1,1.1,0,0,0,39,11c.4-.05.43-.67,0-.65Z"/>
        </g>
        <g class="cls-8">
          <path class="cls-9" d="M39.09,10.4a2.24,2.24,0,0,1-.73-.24c-.24-.16-.3-.42-.49-.63A.67.67,0,0,0,37,9.32a.21.21,0,0,0-.08.28c.1.18.23.23.37.35s.29.43.49.61a1.72,1.72,0,0,0,1.22.32c.27,0,.35-.42.07-.48Z"/>
        </g>
      </g>
      <g id="Слой_78_копия_" data-name="Слой 78 (копия)">
        <polygon points="35.83 25.84 35.83 25.84 35.83 25.84 35.83 25.84"/>
        <path d="M22,21.61a4.43,4.43,0,0,0,1.77,4c1.47,1.13,3.59,1,4.94,2.35l0,0a7,7,0,0,0-3.27-1.53A4.64,4.64,0,0,1,22,21.61Z"/>
        <path d="M30.27,29.48c.5.14.24-.8.17-1h0c.06.17.33,1.08-.16,1Z"/>
        <path d="M31.16,29.08c.33-.18.23-.87.15-1.15h0c.07.26.17.94-.14,1.14Z"/>
        <path d="M31.84,28.06a.74.74,0,0,0,.27-1.18s0,0,0,0a.75.75,0,0,1-.26,1.17Z"/>
        <path d="M26.43,22.88a22.21,22.21,0,0,0,2.73,1.54c1.14.53,2.32.92,2.92,2.13,0,0,0,0,0,0a3.85,3.85,0,0,0-2.18-1.81,27,27,0,0,1-3.49-1.84Z"/>
        <path d="M29.36,23a10.43,10.43,0,0,1,4.93.27s0,0,0,0A9.71,9.71,0,0,0,29.36,23Z"/>
        <path d="M32.63,23.36a3.58,3.58,0,0,1,1.48.28s0,0,0,0a3,3,0,0,0-1.48-.28Z"/>
        <path d="M31.5,15.23h-.09c-.12-.12-.12-.17,0-.14s.38.05.49.07.48.12.72.16a1.45,1.45,0,0,0,1-.18s0,0,0,0a.53.53,0,0,0-.5.14s0,0,0,0,.31-.07.15,0a1.27,1.27,0,0,1-.43.05,5.85,5.85,0,0,1-.93-.17c-.2,0-.53-.15-.71,0h0c0,.16.15.12.3.11s0,0,0,0Z"/>
        <path d="M31.16,14.45c-.2-.4-.86,0-1,.24a.7.7,0,0,0,.43,1s0,0,0,0a.63.63,0,0,1-.41-.77c.09-.33.65-.84,1-.41,0,0,0,0,0,0Z"/>
        <path d="M33.41,14.49c.05-.13.55.07.62.1.33.19.53.83,0,1.05,0,0,0,0,0,0,.82-.17.16-1.56-.64-1.2h0v0Z"/>
        <path d="M27.94,10.29a2.84,2.84,0,0,0-1.66,2.22,2.79,2.79,0,0,0,1.44,2.62s0,0,0,0a2.78,2.78,0,0,1-1.39-2.72A2.82,2.82,0,0,1,28,10.32s0,0,0,0Z"/>
        <path d="M31.07,11.2a4.33,4.33,0,0,1,.38,1.33,2.55,2.55,0,0,1-.27,1.62,0,0,0,1,0,0,0,3,3,0,0,0-.11-3s0,0,0,0Z"/>
        <path d="M26.31,12.72a11.8,11.8,0,0,0,3.14.11s0,0,0,0a15.59,15.59,0,0,1-3.13-.11s0,0,0,0Z"/>
        <path d="M34.08,10.73a3.46,3.46,0,0,0-.6,3.68s0,0,0,0a3.63,3.63,0,0,1,.6-3.65s0,0,0,0Z"/>
        <path d="M37.32,10.84a2.72,2.72,0,0,1,.81,2.43A2.55,2.55,0,0,1,36.94,15s0,0,0,0a2.54,2.54,0,0,0,1.24-1.76,2.58,2.58,0,0,0-.87-2.43Z"/>
        <path d="M33.21,12.92c.64-.1,1.32,0,2-.06,0,0,0,0,0,0a12.8,12.8,0,0,0-2,.07s0,0,0,0Z"/>
        <path d="M26.22,16.29l.67.31s0,0,0,0c.08-.24.11-.47-.15-.57a.43.43,0,0,0-.57.24s0,0,0,0Z"/>
        <path d="M26.94,16.58l.58.23s0,0,0,0c.14-.52-.39-.76-.63-.25a0,0,0,1,0,0,0Z"/>
        <path d="M31.39,9.41c.08-.73.35-1.43.49-2.15l.09-.5c.07-.29,0-.36.35-.42s.29,0,.36.3.08.4.11.6h0c0-.25-.12-1.51-.58-1.27s-.39,1.32-.45,1.66a13.5,13.5,0,0,0-.41,1.78Z"/>
        <path d="M32,9.7c.36.06.64.19.93,0,0,0,0,0,0,0-.25.19-.63.09-.91.06,0,0,0,0,0,0Z"/>
        <path d="M31.19,7.52c.08-.4.83-2.82,1.4-2.47,0,0,0,0,0,0a1.14,1.14,0,0,1-.23-.15h0a4.6,4.6,0,0,0-.71,1.24,4.29,4.29,0,0,0-.46,1.39Z"/>
        <path d="M38.59,21.82a10.57,10.57,0,0,1-2.84,2.26,2.75,2.75,0,0,0-1.5,1.79h0c.26-1.28,1.59-1.8,2.58-2.47a7,7,0,0,0,1.76-1.59s0,0,0,0Z"/>
        <path d="M34.31,26.35c.2.45.73-.07,1-.23,0,0,0,0,0,0-.17.1-.77.6-1,.23Z"/>
        <path d="M34.6,27.41c.35.71.83-.24,1.12-.53h0a3.34,3.34,0,0,0-.45.47c-.18.22-.47.43-.67.06Z"/>
        <path d="M35.26,28.07c.06.18.13.41.36.4s.4-.29.52-.4c.28-.26.54-.53.8-.81,0,0,0,0,0,0-.2.21-.4.41-.61.61a3.45,3.45,0,0,1-.28.26c-.18.18-.55.6-.78-.06a0,0,0,0,0,0,0Z"/>
        <path d="M25.41,16a14.38,14.38,0,0,0,13.26-.22s0,0,0,0A14.79,14.79,0,0,1,25.41,16Z"/>
        <path d="M25.42,15.62a2,2,0,0,1-.21.71s0,0,0,0a1.39,1.39,0,0,0,.2-.72Z"/>
        <path d="M38.62,15.38a1.18,1.18,0,0,0,.22.89s0,0,0,0a1.82,1.82,0,0,1-.24-.88Z"/>
        <path d="M33.55,17.25c.32-.34.54-.38.65-.11,0,0,0,0,0,0-.15-.45-.74-.38-.7.12,0,0,0,0,0,0Z"/>
        <path d="M25.62,10.71a3.14,3.14,0,0,1-1.17.24s0,0,0,0a1.14,1.14,0,0,1,0,1s0,0,0,0a1.1,1.1,0,0,0,.15-.44c0-.1-.08-.37-.05-.45s.91-.28,1.1-.37c0,0,0,0,0,0Z"/>
        <path d="M24.34,11.09a2.45,2.45,0,0,0-.05,1s0,0,0,0a4.41,4.41,0,0,1,0-1s0,0,0,0Z"/>
        <path d="M26,10.56c.82-1.65,2.74-2.31,4.41-2.61,0,0,0,0,0,0-1.61.2-3.7,1-4.41,2.62Z"/>
        <path d="M25,12.47a43,43,0,0,1-1.8,4.39s0,0,0,0A24.3,24.3,0,0,0,25,12.48Z"/>
        <path d="M38.21,10.19l.76.12c.32,0,.5,0,.51.39s-.12.59.14.85c0,0,.05,0,0,0-.27-.29-.13-.83-.09-1.18h0l-1.33-.17s0,0,0,0Z"/>
        <path d="M39.62,10.68a1,1,0,0,1,.23.89h0a.88.88,0,0,0-.23-.91s0,0,0,0Z"/>
        <path d="M39.08,12a18.52,18.52,0,0,1,.85,2.44,15.9,15.9,0,0,0,1.41,2.47s0,0,0,0a15.76,15.76,0,0,1-1.45-2.64A12,12,0,0,0,39.09,12s0,0,0,0Z"/>
      </g>
    </g>
    <g id="иконки_входа" data-name="иконки входа">
      <g id="Слой_236" data-name="Слой 236">
        <g class="cls-10">
          <path class="cls-11" d="M1.2,16.84c3,.09,6.06.12,9.08.21,1.7.05,1.65-2.47,0-2.61a57.34,57.34,0,0,0-9.08-.1,1.25,1.25,0,0,0,0,2.5Z"/>
        </g>
        <g class="cls-10">
          <path class="cls-11" d="M7.1,13.91a8,8,0,0,0,3.83,2.86l-.28-2.12c-1,.82-2,1.67-2.94,2.51-1.36,1.17.63,3.18,2,2,1-.86,1.93-1.7,2.88-2.58A1.37,1.37,0,0,0,12,14.3c-1.25-.44-2.29-1.25-3.5-1.76-.85-.36-1.94.43-1.37,1.37Z"/>
        </g>
        <path class="cls-11" d="M28.18,1.11C21,2.79,15,12.42,18.39,19.64s10,13.19,18.43,9.53c7.51-3.26,11.61-13.63,7.81-20.93C40.7.67,29.16-3.65,22.92,4.07c-.52.65-.06,2,.94,1.61,2.41-.95,4.52-2.26,7.15-2.56A10.46,10.46,0,0,1,41.4,8.4c3.44,6,.54,15-6.11,17.71-6.39,2.58-12.46-2-14.5-8.11-2.18-6.53,2.87-12.2,8.12-15.15a1,1,0,0,0-.73-1.74Z"/>
      </g>
    </g>
  </g>
</svg>
