<svg xmlns="http://www.w3.org/2000/svg" viewBox="0 0 33.23 49.03">
  <defs>
    <style>
      .cls-1 {
        fill: #6b2b72;
      }

      .cls-2, .cls-4 {
        fill: #c384cc;
      }

      .cls-2, .cls-3 {
        opacity: 0.1;
      }

      .cls-5 {
        opacity: 0.07;
      }

      .cls-6 {
        fill: #422047;
      }

      .cls-7 {
        opacity: 0.02;
      }
    </style>
  </defs>
  <title>Ресурс 19enter</title>
  <g id="Слой_2" data-name="Слой 2">
    <g id="иконки_входа" data-name="иконки входа">
      <g id="Слой_237" data-name="Слой 237">
        <path class="cls-1" d="M33,45.64C30.81,31.93,31.08,18,31.43,4.21a2.66,2.66,0,0,0-2.6-2.6C20.39.66,12.06,3.18,3.62,2.13c-2.24-.28-2.94,2-2.16,3.65-1.38,13.51,1.46,27.37,1.48,41a2.25,2.25,0,0,0,2.2,2.2c8.46.32,16.93.18,25.4-.1A2.57,2.57,0,0,0,33,45.64ZM12.6,26.77c-.63.9-3.51,1.48-4.22.58a2.73,2.73,0,0,1,1.4-4.16c1.5-.6,2.18.12,2.9,1.08C12.58,24.89,12.92,26.32,12.6,26.77Z" transform="translate(0 -0.82)"/>
      </g>
      <g id="Слой_236" data-name="Слой 236">
        <path class="cls-2" d="M25.47,6.29A5.55,5.55,0,0,0,23.63,6h-.09a34,34,0,0,0-9.63,1c-1.41,0-3.15.09-4.11.88a3.17,3.17,0,0,0-1,2.15.66.66,0,0,0,0,.34c-.06.76,0,1.53,0,2.16s0,1.38,0,2.08c-.2,1.9-.07,3.85,1,5.14.52,1.38,2.83.9,2.85-.65,0-.73,0-1.5-.08-2.29a14.41,14.41,0,0,0-.22-4.13,9.49,9.49,0,0,1,.11-1.85c2.51-.54,5.59,0,8.05-.15,2.1-.13,4-.22,4.81-2.39a.72.72,0,0,0,0-.19,4.59,4.59,0,0,0,.51-.35A.92.92,0,0,0,25.47,6.29Z" transform="translate(0 -0.82)"/>
        <path class="cls-2" d="M31.38,7.41c-.16-1.58-.07-4.5-1.52-5.53-1.21-.86-3.75-.66-5.19-.7a44.59,44.59,0,0,0-6.08.37C14.34.36,8.44.53,4.51,2.76a3.83,3.83,0,0,0-1.81.62A2.18,2.18,0,0,0,1,5.51a1.93,1.93,0,0,0-.23.61,6.11,6.11,0,0,0,.4,2.31,21,21,0,0,1,.26,4.68A22.51,22.51,0,0,0,2,19.78a8.49,8.49,0,0,0,.14.88,37.8,37.8,0,0,0,.28,6.72c.11.68,1.06.54,1.25,0a29,29,0,0,0,1.25-5.57,1.5,1.5,0,0,0,.92-1.59l-.48-7.16a1.7,1.7,0,0,0-.36-1c0-.54,0-1.07-.1-1.6-.05-1-.1-1.89-.13-2.79a1.21,1.21,0,0,0-.35-.85A3.75,3.75,0,0,1,5.64,6.4c2-.46,4-.23,6-.65a1,1,0,0,0,.65-.45,36.61,36.61,0,0,0,5.41-.55A.32.32,0,0,0,18,4.56l1.1.11a1.19,1.19,0,0,0,1.09-.42L23,4.13a20.7,20.7,0,0,1,5,.11c.77,3.46-.53,7.26,1.16,10.53a.76.76,0,0,0,1.3,0C31.89,12.58,31.65,10,31.38,7.41Z" transform="translate(0 -0.82)"/>
        <path class="cls-2" d="M25.85,27.2H24.1a35.35,35.35,0,0,0-8.6.41,9,9,0,0,0-4.24,1.12.75.75,0,0,0-.15,1.18,2.88,2.88,0,0,0,.27.22,1.42,1.42,0,0,0-.22.28.72.72,0,0,0-1.12.74,30.33,30.33,0,0,1,.09,6,6.4,6.4,0,0,0,.51,3.15c0,.26.09.52.15.76.1,1.3.11,2.51,1.29,3.29a1.13,1.13,0,0,0,1.36-.17A2.69,2.69,0,0,0,14.08,42a18.79,18.79,0,0,0,0-4.37,39,39,0,0,0-.59-5.6,1.16,1.16,0,0,0-.14-.34A33,33,0,0,0,17,31.48c1.63-.08,3.25,0,4.69-.87a.77.77,0,0,0,.18-.18c1.33,0,2.65.07,4,.06A1.65,1.65,0,0,0,25.85,27.2Z" transform="translate(0 -0.82)"/>
        <g class="cls-3">
          <path class="cls-4" d="M1.61,4.56c-.74,2.13-.41,4.5-.31,6.71A32.05,32.05,0,0,0,2.13,18c.17.65,1.31.74,1.42,0a35.23,35.23,0,0,0,.11-7.26c-.13-2.13-.11-4.38-1-6.34-.22-.47-.88-.28-1,.13Z" transform="translate(0 -0.82)"/>
        </g>
        <g class="cls-3">
          <path class="cls-4" d="M2.36,5.11C1,6.9,1.36,9.88,1.37,12c0,3.55-.11,7.06.83,10.49a.77.77,0,0,0,1.48,0c1.16-5.7-.31-11.37-.55-17.07,0-.35-.51-.65-.77-.32Z" transform="translate(0 -0.82)"/>
        </g>
        <g class="cls-3">
          <path class="cls-4" d="M2.79,4.39l0-.12L2,4.87c2.22-.08,4.44-.46,6.67-.61,1.78-.13,3.58.11,5.22-.64a.57.57,0,0,0,0-1c-1.74-.87-3.78-.55-5.67-.42a26.91,26.91,0,0,0-6.44,1,.83.83,0,0,0-.49,1.2,1.55,1.55,0,0,0,.7.75c.54.35,1-.32.81-.82Z" transform="translate(0 -0.82)"/>
        </g>
        <g class="cls-3">
          <path class="cls-4" d="M3.36,3.79c2.11.82,4.49.78,6.73.93,2.57.18,5.14.4,7.7.72V2.55C13.52,2.4,8,2.37,4,4c-.73.3-1,1.55,0,1.75,4.44.89,9.31-.54,13.83-.35,1.92.08,1.79-2.65,0-2.89C13.37,2,7.43,1,3.27,3.12c-.3.15-.18.56.09.67Z" transform="translate(0 -0.82)"/>
        </g>
        <g class="cls-3">
          <path class="cls-4" d="M3.34,4.86c-.22,4.79-1.5,9.67-1.25,14.46a1,1,0,0,0,2,.27c1.58-4.65,1-9.94.66-14.73a.72.72,0,0,0-1.44,0Z" transform="translate(0 -0.82)"/>
        </g>
        <g class="cls-3">
          <path class="cls-4" d="M9.39,10A11.2,11.2,0,0,0,9,13.58a9.74,9.74,0,0,0,.23,3.62,1,1,0,0,0,1.89,0,9.74,9.74,0,0,0,.22-3.62A10.92,10.92,0,0,0,10.94,10a.81.81,0,0,0-1.55,0Z" transform="translate(0 -0.82)"/>
        </g>
        <g class="cls-3">
          <path class="cls-4" d="M9.12,11.13a15.84,15.84,0,0,1,0,3.23H11c-.09-1.25-.46-2.69.74-3.62.95-.74,3.11-.93,4.2-1,1.71-.17,3.78.36,5.27-.57a.6.6,0,0,0,0-1c-1.33-.95-3.32-.63-4.89-.52a16.79,16.79,0,0,0-4.71.9c-3,1.12-3.29,3.18-2.49,6.13.33,1.22,2,.68,1.85-.51A21.2,21.2,0,0,0,10.22,11c-.18-.57-1.15-.51-1.1.15Z" transform="translate(0 -0.82)"/>
        </g>
        <g class="cls-3">
          <path class="cls-4" d="M18.06,7.22a26.13,26.13,0,0,0-4.42.3c-1.06.17-2.93.37-3.71,1.2s-.34,2.09-.29,3a12.24,12.24,0,0,0,.63,4.39.83.83,0,0,0,1.5-.19,10.46,10.46,0,0,0,0-3.06,8.28,8.28,0,0,1,0-2.76l-.7.54a20.65,20.65,0,0,1,7-1.08,1.19,1.19,0,0,0,0-2.38Z" transform="translate(0 -0.82)"/>
        </g>
        <g class="cls-3">
          <path class="cls-4" d="M10,32.29c.11,3.31-.48,7.29.46,10.47a.72.72,0,0,0,1.38,0c1.06-3.13.42-7.23.26-10.47-.06-1.34-2.14-1.36-2.1,0Z" transform="translate(0 -0.82)"/>
        </g>
        <g class="cls-3">
          <path class="cls-4" d="M10.5,34.82l.09,3.53a6.36,6.36,0,0,0,.46,3.19,1.21,1.21,0,0,0,2.08,0,6.15,6.15,0,0,0,.32-3.19l-.09-3.53c0-1.84-2.91-1.84-2.86,0Z" transform="translate(0 -0.82)"/>
        </g>
        <g class="cls-3">
          <path class="cls-4" d="M10.6,31.84c0,1.67,0,3.33,0,5,0,1.39-.19,2.86.55,4.08a.85.85,0,0,0,1.45,0c.69-1.25.45-2.68.41-4.08,0-1.66-.13-3.32-.2-5a1.09,1.09,0,0,0-2.17,0Z" transform="translate(0 -0.82)"/>
        </g>
        <g class="cls-3">
          <path class="cls-4" d="M12.84,31.39c.06-1,8.25-1.33,9.21-1.44l-.85-2.07c-.81.69-4,.36-5.08.3-1.54-.07-3.08-.41-4.56.18l.14,1c2.13,0,4.3.63,6.4.19a.71.71,0,0,0,0-1.35c-2.09-.45-4.28.17-6.4.15a.51.51,0,0,0-.36.86c1.5,1.52,3.89,1.51,5.9,1.49,1.76,0,4.27.14,5.67-1.09a1.22,1.22,0,0,0-.86-2.07c-2.8.33-5.62.57-8.41,1-1.71.27-3,1-3.1,2.87-.07,1.49,2.22,1.48,2.3,0Z" transform="translate(0 -0.82)"/>
        </g>
        <g class="cls-3">
          <path class="cls-4" d="M11.87,30.05c0,2.22-.41,4.62.12,6.79a.88.88,0,0,0,1.68,0c.67-2.14.2-4.61-.05-6.79-.13-1.09-1.75-1.15-1.75,0Z" transform="translate(0 -0.82)"/>
        </g>
        <g class="cls-3">
          <path class="cls-4" d="M2.85,29.23c-.52,2,0,4.38.06,6.44,0,2.27-.11,4.66.75,6.8.26.66,1.36.65,1.33-.18-.09-2.52-.31-5-.42-7.57-.08-1.82-.05-4-1.08-5.57a.36.36,0,0,0-.64.08Z" transform="translate(0 -0.82)"/>
        </g>
        <g class="cls-3">
          <path class="cls-4" d="M2.73,39q.4,4.35.37,8.73a1.41,1.41,0,0,0,1,1.31c1.38.52,2.69,0,4.09-.23,1.57-.27,3.5.08,4.82-.93a1,1,0,0,0,.19-1.48c-1.13-1-2.39-.9-3.83-.7s-3.28,1.16-4.55.71l1,1.32q0-4.38-.52-8.73c-.17-1.63-2.74-1.67-2.58,0Z" transform="translate(0 -0.82)"/>
        </g>
        <g class="cls-3">
          <path class="cls-4" d="M12.84,47.05a22.46,22.46,0,0,0-3.56-.83c-2.21-.29-3.3-.55-3.45-3S6.18,38.26,5,36a.44.44,0,0,0-.8.1c-.64,2.06-.39,4.32-.51,6.46a8.17,8.17,0,0,0,.46,4.22c1.48,3,6.07,1.91,8.67,1.42.59-.11.51-.95,0-1.11Z" transform="translate(0 -0.82)"/>
        </g>
        <g class="cls-3">
          <path class="cls-4" d="M4.17,32c.1,2.41.19,4.81.29,7.22a22.27,22.27,0,0,0,.66,6.37c.2.58,1.18.71,1.32,0,.79-4.22-.55-9.34-1-13.59-.08-.81-1.33-.85-1.29,0Z" transform="translate(0 -0.82)"/>
        </g>
        <g class="cls-3">
          <path class="cls-4" d="M1.3,25.13c.41,3.47.75,6.93,1.08,10.4.26,2.72.22,5.56,1.32,8.08.31.7,1.38.44,1.57-.21.77-2.7.23-5.79,0-8.56-.3-3.25-.69-6.48-1.11-9.71-.22-1.77-3-1.81-2.83,0Z" transform="translate(0 -0.82)"/>
        </g>
        <g class="cls-3">
          <path class="cls-4" d="M1.62,29.75c.39,3.07.8,6.12,1.25,9.18.4,2.68.28,7.24,1.65,9.58A2.41,2.41,0,0,0,6.9,49.85a20.53,20.53,0,0,0,7.9-1.66c.93-.4.35-1.7-.48-1.76a20.44,20.44,0,0,0-4.6.49c-.73.1-2.29.63-3,.14-.51-.37-.54-3.09-.63-3.67Q5,36.6,4.14,29.75c-.2-1.58-2.72-1.6-2.52,0Z" transform="translate(0 -0.82)"/>
        </g>
        <g class="cls-5">
          <path class="cls-6" d="M13.41,19.63a12,12,0,0,0,3.22.65,10.43,10.43,0,0,0,3.05.16c.55-.09.41-.81,0-1A10.85,10.85,0,0,0,16.57,19a11,11,0,0,0-3.08,0,.36.36,0,0,0-.08.66Z" transform="translate(0 -0.82)"/>
        </g>
        <g class="cls-5">
          <path class="cls-6" d="M14.33,20.34a88.34,88.34,0,0,0,8.91.33L23,19a18.87,18.87,0,0,1-7.52-.14l-.24,1.78c1.82,0,3.64.11,5.47.13,1.25,0,2.2,0,3.12-.89a.58.58,0,0,0-.25-1c-2.61-.65-5.67-.09-8.34-.08-1,0-1.28,1.62-.24,1.78,2.84.43,5.63.78,8.44,0A.83.83,0,0,0,23.24,19q-4.45.22-8.91,0c-.83,0-.81,1.21,0,1.28Z" transform="translate(0 -0.82)"/>
        </g>
        <g class="cls-5">
          <path class="cls-6" d="M23.09,19.52c-1.77.33-3.89-1-5.61-1.37S14,17.6,12.32,17.4V20c3.85.09,7.76.37,11.61.24,2.3-.08,3.23-1.86,2.37-4a1.16,1.16,0,0,0-2.21,0c-.53,1.94-3.53,1.13-5.21,1.14-2.18,0-4.37,0-6.56.07a1.29,1.29,0,0,0,0,2.57,73.93,73.93,0,0,1,7.43.94,5.59,5.59,0,0,0,3.71-.51c.51-.27.14-1-.37-.88Z" transform="translate(0 -0.82)"/>
        </g>
        <g class="cls-5">
          <path class="cls-6" d="M23.39,13.76a44.18,44.18,0,0,0-.43,5h2.72l.06-4.17H22.91c0,1,.5,2.83.12,3.74s.24.13-.55.55a7,7,0,0,1-1.85.38c-2.3.36-4.28-.57-6.54-.56a1.58,1.58,0,0,0,0,3.15l5.48.26a10.6,10.6,0,0,0,4.24-.18c1.87-.71,1.06-3.76-.84-3-1.24.47-2.87.09-4.18,0l-4.7-.22v3.15c1.6,0,3.11.66,4.72.69a15.31,15.31,0,0,0,5.07-.83c3.11-1.08,2-4.53,1.86-7.12a1.42,1.42,0,0,0-2.83,0c0,1.39,0,2.78.05,4.17a1.36,1.36,0,0,0,2.72,0,40.12,40.12,0,0,1,.24-4.65c.15-1.43-2.33-1.78-2.53-.35Z" transform="translate(0 -0.82)"/>
        </g>
        <g class="cls-5">
          <path class="cls-6" d="M24,18.4a89.76,89.76,0,0,0-12.38-.25c-1.92.15-2,3.08,0,3,2.63,0,5.25-.08,7.88-.05,1.62,0,4.16.62,5.64,0a2.23,2.23,0,0,0,1.39-2.09c.3-2,.48-4.42-1-5.88a.89.89,0,0,0-1.25,0,3.13,3.13,0,0,0-1,2.73c0,.43.26,2.82,0,3.15C24.17,17.87,22.71,18,22,18c-3.44,0-6.89,0-10.34.18l.41,3c4-.79,8.25.22,12.15-1.43A.67.67,0,0,0,24,18.4Z" transform="translate(0 -0.82)"/>
        </g>
        <g class="cls-5">
          <path class="cls-6" d="M23,14c-.24,1.87-.88,4.7.1,6.43a.94.94,0,0,0,1.62,0,6.89,6.89,0,0,0,.52-3c.07-1.14.1-2.29.2-3.43.14-1.59-2.25-1.53-2.44,0Z" transform="translate(0 -0.82)"/>
        </g>
        <g class="cls-5">
          <path class="cls-6" d="M15.63,41.8l-.08,0,.77.2-.06-.11-.81.81c2.36,1.11,6.29,1.62,8.66.42a.78.78,0,0,0,0-1.33,10.18,10.18,0,0,0-4.52-.64c-1.19,0-3-.33-4.09.3a.77.77,0,0,0-.34.83.76.76,0,0,0,.39.48.57.57,0,0,0,.77-.2l0-.07a.54.54,0,0,0-.73-.73Z" transform="translate(0 -0.82)"/>
        </g>
        <g class="cls-5">
          <path class="cls-6" d="M18,42.68c1.45.92,3.48.74,5.15.81,1.41.06,3.31.39,4.42-.73,1-.95.89-2.75.95-4A11.76,11.76,0,0,0,28,33.39c-.5-1.12-2.11-.46-2.16.59-.06,1.32-.13,2.64-.23,4a8.26,8.26,0,0,0,.08,3.57,1.07,1.07,0,0,0,1.92.25c1.21-2.07.67-5.46.55-7.78l-2.28-.31a15.15,15.15,0,0,0-.18,3.5c0,.64,0,1.27-.07,1.91,0,.43-.05.85-.09,1.28s0,.72-.16.46a15.08,15.08,0,0,1-1.83-.06c-.69,0-1.38,0-2.07.08a7,7,0,0,0-3.42.73.65.65,0,0,0,0,1.11Z" transform="translate(0 -0.82)"/>
        </g>
        <g class="cls-5">
          <path class="cls-6" d="M25,37.72a16.7,16.7,0,0,1-.14,2.53c0,.6-.32.79-1,.58L22.17,41c-2.28.15-4.57.2-6.85.18l.41,3.08a19.91,19.91,0,0,1,6.55-.9c1.32,0,2.83.49,3.91-.53s1-3,1.15-4.36c.13-1.75.29-3.8-.74-5.3a.72.72,0,0,0-1.22,0c-1.62,2.16-1,5.44-1.77,7.93l.76-1c-.47.34-1.52,0-2.09,0a21.1,21.1,0,0,0-2.75.13,24.46,24.46,0,0,0-4.63,1,1.58,1.58,0,0,0,.42,3.09c3.21,0,6.87.18,10-.56,2.81-.66,2.18-3,2.53-5.21.3-1.87-2.54-2.69-2.87-.79Z" transform="translate(0 -0.82)"/>
        </g>
        <g class="cls-5">
          <path class="cls-6" d="M24.56,33.19c0,1.31-.08,2.61-.06,3.92s-.16,2.51.52,3.59a1.41,1.41,0,0,0,2.41,0c.6-1.18.35-2.31.25-3.59s-.26-2.62-.44-3.92a1.34,1.34,0,0,0-2.68,0Z" transform="translate(0 -0.82)"/>
        </g>
        <g class="cls-5">
          <path class="cls-6" d="M25.08,34.42a13.07,13.07,0,0,0-.9,6.47c.12,2.08,3.35,2.1,3.26,0A30.55,30.55,0,0,0,27,34.68a1.08,1.08,0,0,0-2-.26Z" transform="translate(0 -0.82)"/>
        </g>
        <g class="cls-5">
          <path class="cls-6" d="M24,38.82a3.84,3.84,0,0,1-3.32,1.78c-1.34.06-2.68.07-4,0a1.8,1.8,0,0,0-1.26,3c.9,1,2,.9,3.24.7A25.93,25.93,0,0,0,24,43.26a1.62,1.62,0,0,0-.43-3.16,16.2,16.2,0,0,0-3.32.4l-1.58.28-.63.11c-.63,0-.67.11-.09.28l-1.26,3a26,26,0,0,0,5.91-.29c1.85-.39,3-1.62,4.07-3.06s-1.44-3.53-2.65-2Z" transform="translate(0 -0.82)"/>
        </g>
        <g class="cls-5">
          <path class="cls-6" d="M18.37,42.13V42l-1.12.85a13.69,13.69,0,0,0,4.38.13c1.48-.07,3.24.24,4.61-.43,1.73-.84,2.26-3.85,1.28-5.4a1,1,0,0,0-1.31-.34,2.43,2.43,0,0,0-1.21,2c-.14,1.18.22,1.15-.89,1.25-1.36.12-2.7.25-4.06.44a7.43,7.43,0,0,0-3,.7.89.89,0,0,0,.68,1.62l.08,0a.76.76,0,0,0,.56-.72Z" transform="translate(0 -0.82)"/>
        </g>
        <g class="cls-5">
          <path class="cls-6" d="M28.63,22.67c-1,4.25-.2,9,.15,13.31.21,2.55,0,5.52,2.22,7.14.5.37,1.07-.14,1.11-.63.33-3.29-.6-7.12-1-10.4s-.61-6.53-1.94-9.49a.3.3,0,0,0-.54.07Z" transform="translate(0 -0.82)"/>
        </g>
        <g class="cls-5">
          <path class="cls-6" d="M29,32.89a28,28,0,0,0-.42,5.49c0,1.58.82,4.75.23,6.2-.71,1.75-4.62,1.35-6.14,1.45-2.49.18-5,.36-7.47.36l.43,3.18a68.31,68.31,0,0,1,9.86-1.33c2.44-.11,5,.33,7.06-1.14.88-.62,1-2.45-.34-2.64-5.52-.77-12.15.36-17.44,2-1.67.51-1.47,3.35.43,3.18,3.31-.28,6.64-.39,10-.68,1.82-.15,4.43.13,5.77-1.3,1.51-1.59.83-4.39.64-6.3a37.77,37.77,0,0,0-1.46-8.45c-.16-.49-1-.59-1.1,0Z" transform="translate(0 -0.82)"/>
        </g>
        <g class="cls-5">
          <path class="cls-6" d="M15.16,46.4c2.21,1.37,4.79,1,7.28,1,2.71-.07,5.79.57,8.4-.1a1.78,1.78,0,0,0,1.22-2.15L32,44.79a1.19,1.19,0,0,0-.86-.86,35.75,35.75,0,0,0-7.59.18c-2.71.19-5.51.41-8.19.84-.71.12-.72,1.12-.19,1.45Z" transform="translate(0 -0.82)"/>
        </g>
        <g class="cls-5">
          <path class="cls-6" d="M14.92,25.74a42.52,42.52,0,0,0-6.54,17,1.41,1.41,0,0,0,2.56,1.08c3.48-5.43,4.5-12,8.44-17.21L16.64,25A71.3,71.3,0,0,0,10.23,40.4a1.75,1.75,0,0,0,3.18,1.34A80.25,80.25,0,0,1,22,28.6l-2.8-2.17a113.22,113.22,0,0,0-7.38,15.09c-.84,2.08,2.32,3.11,3.44,1.45l9-13.29-3.29-1.92A83.32,83.32,0,0,0,13,42.89c-.65,1.75,2,3.37,3.21,1.87Q21.51,38,26.34,30.86c1.39-2.06-1.92-4-3.31-1.94A86.77,86.77,0,0,0,15.5,42.1a1.93,1.93,0,0,0,3,2.32c3.8-3,6.53-7.74,9.43-11.56l-3.31-1.94-4.5,8.14c-1,1.84-2,3.2-1.3,5.27.43,1.24,2.21,2,3.2.84l6.72-8-3-2.32L21.32,44.6c-.85,1.89,1.37,4,3,2.32a79.41,79.41,0,0,0,5.32-6l-3.19-1.86L24.4,45.39c-.68,2.1,2.39,3.28,3.5,1.47.94-1.53,1.81-3.08,2.62-4.69L27.4,40.86a13.34,13.34,0,0,1-1.62,4.4c-1.09,1.94,1.9,3.68,3,1.74a19.81,19.81,0,0,0,1.93-5.23,1.72,1.72,0,0,0-3.12-1.32c-1.06,1.45-2,2.95-3,4.48l3.49,1.47,2.06-6.3c.57-1.75-2-3.35-3.2-1.86-1.71,2.06-3.43,4.09-5.33,6l3,2.32,4.42-9.77c.81-1.81-1.5-4.13-3-2.32l-6.71,8,3.2.85c-.4-1.15,2.09-4.44,2.64-5.44l2.77-5c1.23-2.22-1.86-3.85-3.31-1.94-2.73,3.6-5.26,8-8.83,10.79l3,2.32a88.9,88.9,0,0,1,7.53-13.17L23,28.92c-3,4.49-6.22,8.87-9.58,13.12l3.21,1.87A79.43,79.43,0,0,1,24.2,29.68c1.3-2.1-1.93-3.94-3.29-1.92L12,41.07l3.44,1.45a110,110,0,0,1,6.83-14.28c1-1.7-1.46-3.77-2.8-2.17a84.31,84.31,0,0,0-9,13.91l3.17,1.34a82.69,82.69,0,0,1,5.8-14.71A1.59,1.59,0,0,0,16.64,25c-3.58,5.4-4.83,11.85-8.12,17.4l2.62.7a52.09,52.09,0,0,1,5.21-16.53.83.83,0,0,0-1.43-.84Z" transform="translate(0 -0.82)"/>
        </g>
        <g class="cls-5">
          <path class="cls-6" d="M28.45,23.15l.39-.35c1.12-1-.77-2.66-1.7-1.31a41.45,41.45,0,0,0-3.61,7A1.46,1.46,0,0,0,26,30c1.15-1.73,2.31-3.44,3.56-5.1l-2.92-1.23c-.84,2.17-1.6,4.35-2.38,6.54-.68,1.92,1.78,2.76,3.05,1.77.88-.68,1.75-1.37,2.62-2.07l-3.11-1.81c-.64,3-2.5,7.28-1.82,10.35.18.81.84,1.28,1.05,2a1.32,1.32,0,0,1,.7,1c-.49.9-1,1.8-1.44,2.72a1.53,1.53,0,0,0,2.08,2.08c2.22-1,4-4.09,3.18-6.63-.29-.84-1.26-1.25-1.53-1.86-.74-1.68,1-6.66,1.37-8.67a1.88,1.88,0,0,0-3.11-1.81c-.87.69-1.73,1.4-2.57,2.12l3,1.78c.67-2.22,1.35-4.43,2-6.66a1.61,1.61,0,0,0-2.93-1.23c-1.18,1.71-2.3,3.42-3.31,5.24l2.65,1.12a73.86,73.86,0,0,1,2.83-7l-2-.26.11.49a.79.79,0,0,0,1.31.34Z" transform="translate(0 -0.82)"/>
        </g>
        <g class="cls-5">
          <path class="cls-6" d="M13.65,40.84l.28-.22-1.47-.84c-.29,2.67.4,5.24,3.54,5.3,1.59,0,3-.79,4.41-1.35a17,17,0,0,1,7.18-1.14c2.31.08,2.26-3.38,0-3.56a18,18,0,0,0-7.48,1c-1.1.39-2.21,1.14-3.34,1.42-1.92.47-1.78-.74-2.49-2.14s-2.75.3-1.34,1.33l.3.22a.4.4,0,0,0,.41,0Z" transform="translate(0 -0.82)"/>
        </g>
        <g class="cls-5">
          <path class="cls-6" d="M27.4,40.69a41,41,0,0,0,.41-6.35,1.4,1.4,0,0,0-2.79,0c0,2.06-.05,4.12-.11,6.17H28.3V40.2l-3.16-.41c.25-.66.1-.69-.45-.1-.35.23-.72.45-1.1.66a13.37,13.37,0,0,1-1.91.91,16.58,16.58,0,0,1-4.54,1.06L18,45.55c2.27-1,5.26-1.77,7-3.62a1.31,1.31,0,0,0-.92-2.22c-2.67,0-5.42,1.8-7.81,2.85-1.55.68-.79,3.39.88,3.23a20.61,20.61,0,0,0,7.63-2.15c1.91-1,4.25-2.29,3.7-4.77a1.74,1.74,0,0,0-3.15-.41A3.28,3.28,0,0,0,25,41c.43,1.82,3.51,1.48,3.33-.46s-.37-4.11-.49-6.17H25a37.58,37.58,0,0,1-.2,6c-.16,1.46,2.37,1.81,2.58.35Z" transform="translate(0 -0.82)"/>
        </g>
        <g class="cls-5">
          <path class="cls-6" d="M13.21,38.4a2.1,2.1,0,0,1,.08-1.08c.76-1.24-1.39-2.24-1.87-.79-.53,1.64-.22,3.47-.51,5.16-.32,1.91,2.62,2.72,2.92.8a19.58,19.58,0,0,0-.05-6.57c-.32-1.79-3.09-1.31-3.1.42,0,1.31,0,2.62,0,3.93a1.61,1.61,0,0,0,3.15.43,4.14,4.14,0,0,1,.55-1.3l-3-.39c.4,1.24.09,2.64.71,3.78a1.35,1.35,0,0,0,2.09.26c1.28-1.21.84-3.41.32-4.9a1.64,1.64,0,0,0-3-.39,7.33,7.33,0,0,0-.84,2.08l3.14.43c0-1.31,0-2.62,0-3.93l-3.1.42a17,17,0,0,1,.13,5.33l3-.4c-.26-1.69.08-3.52-.43-5.16l-1.71,1a1.94,1.94,0,0,1,.48,1c.15.56,1.09.47,1-.14Z" transform="translate(0 -0.82)"/>
        </g>
        <g class="cls-5">
          <path class="cls-6" d="M13.48,37.54l.2-.24c1-1.16-1.06-2.27-1.52-.89-1,2.9-2.11,8.74,2.52,8.48,2.58-.14,5.12-1.08,7.71-1.32,1.78-.17,4.48.6,5.78-.93a1.68,1.68,0,0,0,.26-2l-.2-.28a1.46,1.46,0,0,0-2.49,0c.12-.21-6.73.37-7.75.58-.66.13-1.31.27-2,.42-1.13.25-1.21.55-1.7-.4s-.07-3.25-.41-4.55l-1.33,1,.33.17a.48.48,0,0,0,.57-.07Z" transform="translate(0 -0.82)"/>
        </g>
        <g class="cls-5">
          <path class="cls-6" d="M25.35,33.57a25.74,25.74,0,0,0-.8,7.33c-.05,1.81,2.9,2.29,3.23.43.46-2.51-1.7-3.43-3.84-2.79a47.55,47.55,0,0,1-5,1.42c-1.81.34-3.77.14-5.38,1a1.33,1.33,0,0,0,0,2.29c1.75.86,3.57.45,5.44.13a26.3,26.3,0,0,0,3.38-.79c.55-.16,1.1-.35,1.64-.55.92,0,1.1-.44.53-1.19h3.29a41.77,41.77,0,0,0-.94-7.33.81.81,0,0,0-1.55,0Z" transform="translate(0 -0.82)"/>
        </g>
        <g class="cls-5">
          <path class="cls-6" d="M14,41c2,.69,4.46.42,6.53.33s4.16.08,5.92-1a1,1,0,0,0-.24-1.8c-2-.79-4.47-.15-6.59.07-1.93.19-4,.24-5.79,1.07-.61.29-.36,1.14.17,1.32Z" transform="translate(0 -0.82)"/>
        </g>
        <g class="cls-5">
          <path class="cls-6" d="M10.31,14.85h0a.52.52,0,0,0,.63-.36v0a.62.62,0,0,0-.75-.75l-.15,0a.87.87,0,0,0-.63.82,39.12,39.12,0,0,0,0,4.72c0,1.59,2.5,2.05,2.87.39a19.79,19.79,0,0,0,.42-2.17l-3.11-.42c.22,2.81.36,4.75,3.51,5.18,3.38.46,6.68-1.18,10-.05V18.63a11.65,11.65,0,0,1-8.68-.43l-1,3.49c2.43.2,4.85.3,7.28.26,1.58,0,3.81.27,5.27-.49,3.06-1.59.18-5.66,0-7.89a1.44,1.44,0,0,0-2.87,0c-.22,2-.34,4-.42,5.95s3,2.44,3.59.48a14.85,14.85,0,0,0,.56-3.69c.08-2-3.22-2.49-3.5-.47L23,18.7c-.31,2.24,3.13,3.22,3.44.95l.4-2.87-3.51-.47A7.23,7.23,0,0,1,22.85,19l3.59.49c-.06-2-.15-4-.36-5.95L23.27,14a38.72,38.72,0,0,1,.28,4.32c.38-.39-2.18-.08-2.2-.08a76,76,0,0,1-7.84-.25c-1.81-.14-2.63,2.73-.95,3.5a15.57,15.57,0,0,0,11.57.76,1.87,1.87,0,0,0,0-3.57,11.81,11.81,0,0,0-5.54-.37c-1.1.15-2.21.37-3.32.47q-1,.06-2.1.06c-.13-.72-.27-1.43-.42-2.14-.38-1.88-2.94-1.23-3.11.42a20.38,20.38,0,0,0-.18,2.2l2.87-.38c-.34-1.46-.4-3.89-1.5-5l-.27,1c.13-.05-1.06-.22-.25,0Z" transform="translate(0 -0.82)"/>
        </g>
        <g class="cls-5">
          <path class="cls-6" d="M23.82,17.32c-.84.74-1.84,2.05-3.05,2.18-1.05.11-2.45-.56-3.46-.83-2-.54-4-1-6.06-1.4L12,20.08l.4-.32a1.26,1.26,0,0,0-.26-2l-.48-.36C9.71,16,7.84,20,10.35,20.52c3.2.64,6.73,2.17,10,2.21,2.86,0,4.38-1.85,5.13-4.44a1,1,0,0,0-1.66-1Z" transform="translate(0 -0.82)"/>
        </g>
        <g class="cls-7">
          <path class="cls-4" d="M4.3,4.78C2,6.46,1.06,8.53.1,11.23-.49,12.92,1.59,14.3,3,13.48a30.3,30.3,0,0,0,5.71-4.3L5.59,6.76,2.81,12.68a2,2,0,0,0,1.71,3c2,0,3.05-2,4.7-2L7.37,11.21c-.82,2.43-4.09,7.61-2.7,10.23,1.14,2.16,3.46,1,5.18.71L7.73,20.54C7.5,26,1.39,31.94,5.77,37a1.55,1.55,0,0,0,2.57-.68c.83-2.63.86-5.44,1.5-8.13a39.21,39.21,0,0,0,1.23-7.61A1.68,1.68,0,0,0,9.4,18.88c-1.83,0-.87.15-.37-1.24.66-1.82,1.32-3.62,2-5.42A1.92,1.92,0,0,0,9.22,9.81c-1.94,0-3.08,1.88-4.7,1.89l1.71,3L9,8.78A2,2,0,0,0,5.9,6.36,29.78,29.78,0,0,1,1,10.05l2.91,2.24c.61-2.09,1.67-3.94,2.32-6,.32-1-1-2.19-1.95-1.5Z" transform="translate(0 -0.82)"/>
        </g>
        <g class="cls-7">
          <path class="cls-4" d="M7.38,4.39A78.72,78.72,0,0,0,3.7,14.82a2,2,0,0,0,3,2.29,32.66,32.66,0,0,0,5.69-4.45L8.68,11.13c.21,4.17-4.82,10.32-2,14.16A2.54,2.54,0,0,0,9.4,26.4c2.73-.58-.25-.37-1.06.26-1,.75-1.56,3.36-2.06,4.58C5,34.35,4.37,36.69,5.18,40c.55,2.2,3.32,1.76,4.05,0,1.18-2.9,1.9-5.94,3-8.88.72-1.92,2.07-4.37,1.76-6.53-.5-3.55-3.17-3.38-5.86-2.82l2.35.62c-.19-.24,1.63-5.38,1.8-6A13.85,13.85,0,0,0,13,11.13c-.15-1.76-2.3-3-3.68-1.52a30,30,0,0,1-4.68,4l3,1.74C8,11.94,8.73,8.61,9.39,5.24c.22-1.14-1.47-2.06-2-.85Z" transform="translate(0 -0.82)"/>
        </g>
        <g class="cls-7">
          <path class="cls-4" d="M8.83,5.93l1-1.33L7,3A67.72,67.72,0,0,0,3.59,10.2c-.78,1.65.56,4.28,2.67,3.47,3.44-1.32,5.23-4.51,8.41-6.16L11.33,4.16A86.74,86.74,0,0,0,6,12.37a2.87,2.87,0,0,0,2.45,4.27c3.75.26,7.2-4.59,9.7-6.83l-4-4a47,47,0,0,0-5,7.71,3,3,0,0,0,4.67,3.6c3.46-2.87,6.74-5.92,10-9.06L19.22,4.61A48.9,48.9,0,0,0,13.29,15.1c-1.08,2.81,2.38,4.5,4.56,3.5,4.89-2.22,7.56-7,11.65-10.2L24.85,4.81a45,45,0,0,0-4.29,6.8c-1.21,2.7,2.18,6.1,4.47,3.45A61,61,0,0,0,30,7.8c2-3.06-2.2-5.53-4.66-3.59-3.66,2.89-6.38,6.88-10.59,9l4.56,3.5A40.14,40.14,0,0,1,24.2,7.52C26.05,4.71,22,1.82,19.67,4,16.42,7.12,13,10.06,9.6,13l4.66,3.6a44.12,44.12,0,0,1,4.32-7.32c2-2.71-2.14-5.35-4.4-3.39-.87.76-4.61,5.06-5.74,5.11l2.46,4.27a59,59,0,0,1,4.65-8.6c1.41-2.16-1.3-4.41-3.34-3.34-3,1.56-4.81,4.49-7.77,6.06L7.91,12A69.33,69.33,0,0,0,10,4.21c.29-2-2.68-3-3.16-.87L6.5,5a1.28,1.28,0,0,0,2.33,1Z" transform="translate(0 -0.82)"/>
        </g>
        <g class="cls-7">
          <path class="cls-4" d="M7.43,6.18l.47-.32C10.47,4.11,7.1.63,5.27,3.22c-1,1.48-2,3-2.9,4.53-1.3,2.15,1.76,4.6,3.51,2.71A20.5,20.5,0,0,0,9.54,5.14,2.4,2.4,0,0,0,5.4,2.72,46.41,46.41,0,0,0,1.25,9.84C.16,12,1.94,14,4.18,13.66,7,13.26,8.51,11.08,11,10L7.11,7c-.74,3.16-2.05,6.6-2.27,9.85-.17,2.38.85,2.63,1.94,4.36,3.5,5.56-3.88,12-2,18.19a2.09,2.09,0,0,0,3.77.49c1.76-2.37,2-5.36,2.94-8.12s2.35-5.32,2.3-8.27c-.05-2.64-1.18-3.62-2.29-5.74-.76-1.43-1-1-.55-2.92.49-2.13.86-4.29,1.31-6.44a2.69,2.69,0,0,0-3.89-3C6.47,6.24,4.86,8.3,2.8,8.64l2.94,3.82C6.91,10,8.27,7.59,9.54,5.14L5.16,3.29a13.08,13.08,0,0,1-2.44,4L6.23,10c.84-1.6,1.64-3.18,2.36-4.84H5.27l.32.53a1.36,1.36,0,0,0,1.84.48Z" transform="translate(0 -0.82)"/>
        </g>
        <g class="cls-7">
          <path class="cls-4" d="M7.16,9.29c1.56,4.32.43,9.88.15,14.37a112.22,112.22,0,0,0-.37,14.43c.11,1.83,2.92,2.44,3.36.45A85,85,0,0,0,12,21.73c.1-4.57.57-9.66-2.3-13.51-.85-1.14-3.1-.54-2.52,1.07Z" transform="translate(0 -0.82)"/>
        </g>
        <g class="cls-7">
          <path class="cls-4" d="M7,7.89C3.31,9.35,4.46,16.24,4.37,19.26c-.12,3.84-.19,7.68-.27,11.53C4,34.2,3.4,37.47,5.42,40.34c.59.84,2.05,1.36,2.83.36C11.51,36.52,10.17,30.05,9.88,25c-.18-3-.52-6-.9-8.94-.19-1.46-2-6.06-1.32-7.4.2-.38-.15-1-.62-.79Z" transform="translate(0 -0.82)"/>
        </g>
        <g class="cls-7">
          <path class="cls-4" d="M2.91,7.06C1.7,13.41,2.08,20,2.62,26.41c.5,5.87.67,12.91,3.52,18.16,1.24,2.28,4.27,1,4.49-1.22.59-5.74-1.51-12-2.36-17.7C7.34,19.47,6.9,13.13,5.37,7.06a1.29,1.29,0,0,0-2.46,0Z" transform="translate(0 -0.82)"/>
        </g>
        <g class="cls-7">
          <path class="cls-4" d="M7.79,9.9c-.92-1.4,6.07-2.1,6.4-2.11a43.29,43.29,0,0,1,6.51.76c3.14.48,5.85,1.38,8.3-1a2,2,0,0,0,0-2.79c-2.43-2.3-5.84-1.86-9-2.25s-6.6-.72-9.87.16C5.74,3.85.5,8.1,4.36,12.55,6,14.41,9.15,12,7.79,9.9Z" transform="translate(0 -0.82)"/>
        </g>
        <g class="cls-7">
          <path class="cls-4" d="M25.5,4.61C18.29.44,10.46,4,3.62,7.28c-2.31,1.1-.69,4.88,1.73,4.12,4.13-1.3,3,21,3.61,23.46a1.32,1.32,0,0,0,2.39.31c3.11-5.39,4.51-32.11-7.2-28.12l1.74,4.12C12,8.09,17.58,5.91,24.49,7c1.39.22,2.39-1.6,1-2.39Z" transform="translate(0 -0.82)"/>
        </g>
      </g>
    </g>
  </g>
</svg>
