<svg xmlns="http://www.w3.org/2000/svg" viewBox="0 0 36.42 36.32">
  <defs>
    <style>
      .cls-1 {
        fill: #6b2b72;
      }

      .cls-2 {
        opacity: 0.07;
      }

      .cls-3 {
        fill: #422047;
      }

      .cls-4 {
        opacity: 0.02;
      }

      .cls-5 {
        fill: #c384cc;
      }

      .cls-6 {
        opacity: 0.1;
      }
    </style>
  </defs>
  <title>Ресурс 20settings</title>
  <g id="Слой_2" data-name="Слой 2">
    <g id="иконки_входа" data-name="иконки входа">
      <g id="Слой_236" data-name="Слой 236">
        <path class="cls-1" d="M33.78,18.3c.95-.81,2.36-1.86,2.59-2.84.29-1.23-.7-3.17-1.18-4.24S33.7,7.69,32.47,7.05c-.93-.5-2.82-.3-4.17-.12a3.41,3.41,0,0,0-.7-.63,9,9,0,0,0-1.11-.58.32.32,0,0,0,0-.13C26,4.36,25.86,2.05,25,1.12S21.52.27,20.4.15,16.7-.18,15.58.6c-1,.68-1.83,2.64-2.52,3.83h0A4.22,4.22,0,0,0,11.72,5a3.12,3.12,0,0,0-.65.45c-.74-.25-1.56,0-2.32-.31a5.25,5.25,0,0,0-2.17-.59.42.42,0,0,0-.35.25h0c-2.63,1.32-3.5,4-4.54,6.56-.49,1.2-1,2-.63,3.24a15,15,0,0,0,2.44,3.94,3.8,3.8,0,0,0-.14,1.85c0,.09,0,.18,0,.27C2,22.09.4,23.54,1.24,25.6c1,2.5,3.46,4.81,5.36,6.62a.3.3,0,0,0,.3.08,25.5,25.5,0,0,1,3.33-1.11l0,0a2.17,2.17,0,0,0,.36.31,9.46,9.46,0,0,0,1.52.81c.11,1.09.23,2.78.95,3.37,1,.86,4.15.43,5.39.47,1.62,0,4.11.5,5.63-.11s2.07-3.34,2.65-4.71v0a10.06,10.06,0,0,0,.83-.67,10.24,10.24,0,0,0,.93-.85c.68.13,1.36.25,2,.42.41.1.84.36,1.27.24,1-.28,2-2.41,2.41-3.19a13.54,13.54,0,0,0,1.61-4.1c.23-1.49-1.26-2.59-2.19-3.61,0-.15.05-.31.07-.46A4.06,4.06,0,0,0,33.78,18.3Zm-19.2-4.62c.48-.7,2.14-1.06,3-1.09a10.39,10.39,0,0,1,2.08.19,5,5,0,0,1,3.87,2.4c2.05,3.35.44,7-2.86,8.44s-7,.2-8-3.45a7.14,7.14,0,0,1,.42-5.05,6.35,6.35,0,0,1,1-1.16A.65.65,0,0,0,14.58,13.68Z" transform="translate(0 -0.03)"/>
        <g class="cls-2">
          <path class="cls-3" d="M18.63,11.25l0-.22a.74.74,0,0,0-.5-.5c-3.29-1-8.94,4.38-8.21,7.67a.87.87,0,0,0,1.44.38,6.79,6.79,0,0,0,1.22-2,9.71,9.71,0,0,1,3.89-3.84,18.75,18.75,0,0,0,2-1,.43.43,0,0,0,.19-.46Z" transform="translate(0 -0.03)"/>
        </g>
        <g class="cls-2">
          <path class="cls-3" d="M17.46,10.63C15,9.19,12.74,12.05,12,14.14c-1,2.8-1.08,7.15.91,9.5a.81.81,0,0,0,1.35-.35c.93-3.55-2.54-10.21,3.11-11.6a.58.58,0,0,0,.13-1.06Z" transform="translate(0 -0.03)"/>
        </g>
        <g class="cls-2">
          <path class="cls-3" d="M11.61,16.17C10.93,19,12.64,22,14,24.34l1.72-1.72a7.52,7.52,0,0,1-3.24-4.17c-.47-1.62-.08-3.26-.36-4.89a.79.79,0,0,0-1.31-.35c-3.35,3.54.26,9.54,3.64,11.58a1.27,1.27,0,0,0,1.72-1.72c-1.39-2.29-2.43-4.64-3.63-7a.51.51,0,0,0-.91.12Z" transform="translate(0 -0.03)"/>
        </g>
        <g class="cls-2">
          <path class="cls-3" d="M19.66,10.67a7.63,7.63,0,0,0-7.26,1C11,12.64,8,15.4,9.91,17.1a.79.79,0,0,0,1.21-.16,7.83,7.83,0,0,1,3.09-3.66A12.48,12.48,0,0,1,19.3,12c.61-.06,1.08-1,.36-1.32Z" transform="translate(0 -0.03)"/>
        </g>
        <g class="cls-2">
          <path class="cls-3" d="M16.34,10.69c-4.83-3.48-8.23,9-4.77,11.91.52.43,1.55.2,1.48-.61-.23-2.69-1.57-10.49,3.08-10.5a.43.43,0,0,0,.21-.8Z" transform="translate(0 -0.03)"/>
        </g>
        <g class="cls-2">
          <path class="cls-3" d="M10.63,15.2c-1,3,.11,6.52,1.44,9.27l2.09-1.62a7.29,7.29,0,0,1-.29-8.15c1.65-2.37,5-1.32,7.26-2.55a1,1,0,0,0,0-1.71c-3.38-1.45-8.37.28-10,3.58a9.79,9.79,0,0,0,1.13,10.72c1,1.21,2.75-.33,2.09-1.62-1.33-2.6-1.89-5.37-3-8-.14-.33-.62-.19-.72.09Z" transform="translate(0 -0.03)"/>
        </g>
        <g class="cls-2">
          <path class="cls-3" d="M14.6,12.48a18.4,18.4,0,0,1,3.06,0A8.88,8.88,0,0,1,21.1,14c.87.51,1.84.92,2.23,1.92.26.69.25,1.06.94,1.51a1,1,0,0,0,1,0l.24-.14a1.47,1.47,0,0,0,.65-1.6c-.42-2.61-2.64-3.52-4.77-4.59a6.81,6.81,0,0,0-7.08.29.61.61,0,0,0,.31,1.12Z" transform="translate(0 -0.03)"/>
        </g>
        <g class="cls-2">
          <path class="cls-3" d="M25.83,14.84c-1-2.17-2-4.38-4.55-4.83-2.37-.41-6.21-.26-8.08,1.38a.74.74,0,0,0,.32,1.22c1.88.43,3.82-.28,5.73-.31,1.14,0,2.12-.14,3,.72a20.58,20.58,0,0,1,2.07,2.7.87.87,0,0,0,1.51-.88Z" transform="translate(0 -0.03)"/>
        </g>
        <g class="cls-2">
          <path class="cls-3" d="M17.07,9.81a19.16,19.16,0,0,0-4.32,1.1,7.09,7.09,0,0,0-2.52,2.69c-1.26,2-2.36,5.09-.57,7.09A.78.78,0,0,0,11,20.14c-.11-2.2-.09-3.84,1.09-5.8,1.3-2.18,3.16-2.31,5.46-2.86,1.08-.26.62-1.91-.46-1.67Z" transform="translate(0 -0.03)"/>
        </g>
        <g class="cls-2">
          <path class="cls-3" d="M12.49,12.4c-2.24.35-3.39,4.06-3.55,6-.21,2.65.71,6.11,3.36,7.19.7.29,1.34-.54,1.17-1.18C13,22.46,11.62,21,11.42,19A10,10,0,0,1,13,13.05a.45.45,0,0,0-.5-.65Z" transform="translate(0 -0.03)"/>
        </g>
        <g class="cls-2">
          <path class="cls-3" d="M10.25,20.1a17.55,17.55,0,0,0,5.12,6.14l1.52-2a13.47,13.47,0,0,1-3.54-2.93c-.85-1-1.4-2.56-2.43-3.36a.69.69,0,0,0-1.07.14c-1.07,1.47.36,3.46,1.26,4.62a11.9,11.9,0,0,0,4.51,3.7,1.26,1.26,0,0,0,1.27-2.17c-2.12-1.41-3.75-3.6-6-4.82a.48.48,0,0,0-.65.65Z" transform="translate(0 -0.03)"/>
        </g>
        <g class="cls-2">
          <path class="cls-3" d="M18.76,10.44c-2.58-1.58-5.84.58-7.39,2.69-1.88,2.55-2.69,6.48-1.21,9.37a.54.54,0,0,0,1-.13c.57-2.34.23-4.77,1.27-7C13.72,12.53,16,12,18.67,11.11a.37.37,0,0,0,.09-.67Z" transform="translate(0 -0.03)"/>
        </g>
        <g class="cls-2">
          <path class="cls-3" d="M12.66,13.46c-2.74-1.2-2.51,4.74-2.25,6.08.59,3,2.83,8,6.59,7.37a1,1,0,0,0,.44-1.68c-1.43-1.43-2.92-2.08-3.93-4-.37-.7-2.78-6.87-1.06-7,.36,0,.61-.58.21-.75Z" transform="translate(0 -0.03)"/>
        </g>
        <g class="cls-2">
          <path class="cls-3" d="M16.46,24.83c-1.73-1.18-3.55-1.84-4.3-4s.08-4.32.15-6.55a.72.72,0,0,0-1.22-.51c-2,2.29-2.06,6.11-.67,8.74,1.1,2.06,3.63,4.24,6,3.09a.45.45,0,0,0,0-.77Z" transform="translate(0 -0.03)"/>
        </g>
        <g class="cls-2">
          <path class="cls-3" d="M25.75,31.12A3.05,3.05,0,0,0,28.69,30a1,1,0,0,0-.88-1.54,3,3,0,0,0-2.06,1,1.11,1.11,0,0,0,1.33,1.73,3.39,3.39,0,0,0,1.7-1.27,1.05,1.05,0,0,0-1.18-1.53,6.62,6.62,0,0,0-1.62.9l1.5,1.5a.85.85,0,0,1,.6-.32L26.93,29c-.1.17-.33.24-.52.32a3,3,0,0,0-1,.64.73.73,0,0,0,.31,1.2Z" transform="translate(0 -0.03)"/>
        </g>
        <g class="cls-2">
          <path class="cls-3" d="M28,28.59A3.73,3.73,0,0,0,25.44,30a1.82,1.82,0,0,0-.12.95,3.47,3.47,0,0,1-.44,2l1.9.25a6.76,6.76,0,0,1,.1-1.26.74.74,0,0,0-1.37-.37c-.58,1.21-1.15,2.42-1.67,3.66h1.73c-.15-.39.34-1.21.43-1.6a2,2,0,0,0,0-1.26.51.51,0,0,0-.74-.3,3.63,3.63,0,0,0-1.29,3.85c.34.8,1.4.41,1.64-.21.47-1.18.88-2.37,1.28-3.57l-1.41-.39a3.43,3.43,0,0,1-.4,1A1,1,0,1,0,26.68,34,4,4,0,0,0,27,30l.09.71c.19-.45.93-.83,1.31-1.07A.59.59,0,0,0,28,28.59Z" transform="translate(0 -0.03)"/>
        </g>
        <g class="cls-2">
          <path class="cls-3" d="M26.1,30.3c-1.79.59-1.76,2.81-2.56,4.19l1.94.82c.27-1,.66-2.05.94-3.09.17-.65.35-1.8-.49-2.07-1.67-.53-2.27,3.62-2.49,4.59-.26,1.13,1.35,1.92,1.93.82A22.7,22.7,0,0,0,26.78,31a.56.56,0,0,0-.68-.68Z" transform="translate(0 -0.03)"/>
        </g>
        <g class="cls-2">
          <path class="cls-3" d="M25.19,33.35a17,17,0,0,1,1.27-1.59,21.41,21.41,0,0,0,1.93-1.34c.72-.77-.2-2.09-1.15-1.5l-1.68,1a2.35,2.35,0,0,0-1,.92,7.26,7.26,0,0,0-.25,1.56,10.78,10.78,0,0,0-.41,1.92,1,1,0,0,0,1.92.52,5.17,5.17,0,0,0,.58-2.66c0-.56,0-.45.5-.76l1.35-.9-1.15-1.5a8.85,8.85,0,0,1-1.37,1,4.88,4.88,0,0,0-1,1.07c-.41.6-1,1.67-.26,2.25a.53.53,0,0,0,.73,0Z" transform="translate(0 -0.03)"/>
        </g>
        <g class="cls-2">
          <path class="cls-3" d="M24.36,31.63c-.2.7-.39,1.41-.58,2.11l2.1.29a4.1,4.1,0,0,1,1.29-3c.32-.31.57-.23,1-.35a1.3,1.3,0,0,0,.91-.93,1.11,1.11,0,0,0-.29-1.12c-1.23-1-2.54.12-3.52.95S23,31.78,24.15,33a.93.93,0,0,0,1.32,0,8.86,8.86,0,0,1,1-1.4,9.06,9.06,0,0,1,.76-.63,3.34,3.34,0,0,1,.4-.25c.32-.13.38-.17.18-.14L27,30.2l.12.1-.3-1.12,0,.1.81-.8a5.75,5.75,0,0,0-1.54.5,5.22,5.22,0,0,0-1.26,1.35,5,5,0,0,0-1,4c.24,1,1.89,1.07,2.06,0l.36-2.17c.2-1.19-1.51-1.72-1.84-.51Z" transform="translate(0 -0.03)"/>
        </g>
        <g class="cls-2">
          <path class="cls-3" d="M32.21,18.37c0,.08-.06.28-.13.33a1.06,1.06,0,0,0-.36,1.39,5,5,0,0,0,2.17,2.25,1.15,1.15,0,0,0,1.15-2c-.25-.14-.5-.27-.76-.39a1.1,1.1,0,0,0-1.11,1.9,7.44,7.44,0,0,0,.72.47l1.15-2a5.2,5.2,0,0,1-1.73-1.5v1.43a2,2,0,0,0,.47-1.92.82.82,0,0,0-1.57,0Z" transform="translate(0 -0.03)"/>
        </g>
        <g class="cls-2">
          <path class="cls-3" d="M32,20.28a13.58,13.58,0,0,0,1.84,2.49L35.26,21a2.25,2.25,0,0,1-.8-.67L32.6,21.75,34,22.89,35.42,21a3,3,0,0,1-1.08-.93,5.66,5.66,0,0,0-1.23-1.56,1.16,1.16,0,0,0-1.72,1,4,4,0,0,0,1.13,2.2,4.89,4.89,0,0,0,1.68,1.38,1.23,1.23,0,0,0,1.56-.31,1.19,1.19,0,0,0-.1-1.58l-1.39-1.12A1.19,1.19,0,0,0,32.72,20a1.17,1.17,0,0,0-.31,1.53A4.56,4.56,0,0,0,34.11,23a1.16,1.16,0,0,0,1.47-.3,1.12,1.12,0,0,0-.09-1.49,12.75,12.75,0,0,0-2.38-1.95A.79.79,0,0,0,32,20.28Z" transform="translate(0 -0.03)"/>
        </g>
        <g class="cls-2">
          <path class="cls-3" d="M32.61,18.61l.41-.33-.49-.85a5.37,5.37,0,0,0-1.23,2c-.48,1,.81,2.27,1.7,1.3l.44-.48-1.94-.8a4.61,4.61,0,0,0,2.86,4A1.38,1.38,0,0,0,36.19,23a1.36,1.36,0,0,0-.48-1.83,16.37,16.37,0,0,1-2.45-1.52c-1.37-1-2.68,1.29-1.32,2.26a4.43,4.43,0,0,0,2.49.84c1.38,0,1.75-2.22.33-2.48a3.07,3.07,0,0,1-1.5-.62L31.94,22a12.69,12.69,0,0,0,2.42,1.57l1.35-2.31a4,4,0,0,1-2.09-2.29,1.15,1.15,0,0,0-2,0l-.36.55,2,.83a6.1,6.1,0,0,0,.11-2.65.52.52,0,0,0-1,0c-.07.32-.17.59-.21.9s.35.28.43.06Z" transform="translate(0 -0.03)"/>
        </g>
        <g class="cls-2">
          <path class="cls-3" d="M6.83,31.69a5.41,5.41,0,0,0,1.45,0c1.1-.09,1.06-1.84,0-1.7a8.7,8.7,0,0,0-2,.44c-1.12.4-.64,2.19.49,1.79L7.57,32l-.74-1.75-.54.31c-.94.54-.31,2.15.75,1.79a13.34,13.34,0,0,1,2.85-.7l-.28-2.08-.39.11a1.09,1.09,0,0,0,.29,2.13,3.14,3.14,0,0,1,1.45.26L11.23,30a2.76,2.76,0,0,1-.55.19v1.64l.56.13a.91.91,0,1,0,.46-1.72,1.58,1.58,0,0,0-1,.18.7.7,0,0,0-.14,1.08,1.69,1.69,0,0,0,.9.55l.24-1.81-.57-.05c-.66-.15-1.43.61-1,1.25a1.4,1.4,0,0,0,1.06.72A1.12,1.12,0,0,0,11.82,30a5.05,5.05,0,0,0-2.31-.38l.54,2,.37-.17c1.16-.51.28-2.14-.81-1.93a15.65,15.65,0,0,0-3.09.9l.76,1.78.52-.35a1,1,0,0,0-1-1.65l-.73.32L7,32.17a8.63,8.63,0,0,1,1.47-.46l-.65-1.56a5.51,5.51,0,0,0-1.22.78.45.45,0,0,0,.2.76Z" transform="translate(0 -0.03)"/>
        </g>
        <g class="cls-2">
          <path class="cls-3" d="M10.24,30l-.09-.38-1.24.33a8.54,8.54,0,0,0,1.23,1.25l1.09-1.41a5.83,5.83,0,0,0-4.3-.4,1,1,0,0,0-.73,1,.86.86,0,0,0,.29.69,1,1,0,0,0,1,.26,5.7,5.7,0,0,1,3.09.13.9.9,0,0,0,.69-1.64,3.37,3.37,0,0,0-1.75-.84c-.86-.07-.83,1.23,0,1.33l.22.13a.34.34,0,0,0,.54-.41Z" transform="translate(0 -0.03)"/>
        </g>
        <g class="cls-2">
          <path class="cls-3" d="M6.54,31.41c.72.22,1.57-.33,2.23-.58l-.72-1.7-1.57,1a1,1,0,0,0,.75,1.77c.43-.14.85-.29,1.27-.46l.55-.24c.33-.19.4-.21.2-.07s-.13.16.15.24a5.71,5.71,0,0,1,.48.38c.29.26.57.51.88.75.82.61,2-.61,1.42-1.42a5.83,5.83,0,0,0-2.49-1.92c-1-.37-2,.53-3,.87l.75,1.77,1.53-1a.93.93,0,0,0-.94-1.61c-.72.34-1.86,1-1.78,1.93a.38.38,0,0,0,.27.35Z" transform="translate(0 -0.03)"/>
        </g>
        <g class="cls-2">
          <path class="cls-3" d="M10.94,31l.1.31,1-.56c-.86-.58-1.61-1.47-2.67-1.65a4,4,0,0,0-3.22,1.39c-.89.79.24,1.95,1.18,1.53l2.3-1c.91-.4.41-1.82-.49-1.81H8.75L9.24,31a3.72,3.72,0,0,0,1.16-1,.61.61,0,0,0-.22-.82,1.61,1.61,0,0,0-1.92.14,1,1,0,0,0,.49,1.81h.37l-.49-1.81-2.31,1,1.19,1.53c.76-.67,1.32-1.05,2.28-.58a3.89,3.89,0,0,0,1.9.67c1-.06.72-1.54-.17-1.28h-.33a.23.23,0,0,0-.25.33Z" transform="translate(0 -0.03)"/>
        </g>
        <g class="cls-2">
          <path class="cls-3" d="M24.46,1c-.71.2-.64.9-.62,1.5a8.25,8.25,0,0,0,.26,2.27.91.91,0,0,0,1.77-.24,6.65,6.65,0,0,0-.24-1.59,6.81,6.81,0,0,1-.31-1.28A.69.69,0,0,0,24.46,1Z" transform="translate(0 -0.03)"/>
        </g>
        <g class="cls-2">
          <path class="cls-3" d="M24.35,2.07c-.56.11-.6.83-.6,1.28a3.49,3.49,0,0,0,.11.91c.06.23.23.52.15.74l1.22-.69-.13,0A.9.9,0,0,0,24,5.12v.15a1,1,0,0,0,.87,1,1,1,0,0,0,1.09-.71c.3-.75-.2-1.55-.49-2.23-.19-.46-.42-1.38-1.09-1.23Z" transform="translate(0 -0.03)"/>
        </g>
        <g class="cls-2">
          <path class="cls-3" d="M23.57,2.55a7.78,7.78,0,0,0,1.27,3.9,5.41,5.41,0,0,0,3.3,2.14L28.5,6c-.89.12-1.53,0-2.23.63a1,1,0,0,0,0,1.37c.61.57,1.09.48,1.87.6A1.33,1.33,0,0,0,28.85,6a3,3,0,0,1-2.13-1.56,11.11,11.11,0,0,0-1.48-2.62,1,1,0,0,0-1.67.7Z" transform="translate(0 -0.03)"/>
        </g>
        <g class="cls-2">
          <path class="cls-3" d="M27.8,7.06a7.07,7.07,0,0,1-1.4-1,11.48,11.48,0,0,1-1-1.42.92.92,0,0,0-1-.41.64.64,0,0,0-.21.09.84.84,0,0,0-.44.77,4.05,4.05,0,0,0,3.69,3.27.68.68,0,0,0,.34-1.26Z" transform="translate(0 -0.03)"/>
        </g>
        <g class="cls-2">
          <path class="cls-3" d="M23.8,2.65a8.06,8.06,0,0,0-.18,1.63c-.05,1,1.68,1.3,1.82.25a4.3,4.3,0,0,0-.55-2.85,1,1,0,0,0-1.8.75c.25.93.5,1.86.74,2.78a1,1,0,0,0,1.9-.52c-.2-.84-.39-1.69-.57-2.54-.22-1-1.74-.74-1.78.24a6.89,6.89,0,0,0,.91,4.12A3.24,3.24,0,0,0,28,7.93a1,1,0,0,0,.23-1.79,4,4,0,0,0-1.28-.35c-.57-.06-.74-.22-1.06-.73a4.26,4.26,0,0,1-.67-2.67H23.38a20.45,20.45,0,0,0,.45,2.82l1.9-.52c-.25-.92-.5-1.85-.74-2.78l-1.8.76a3.49,3.49,0,0,1,.43,1.61L25.44,4a7.27,7.27,0,0,0-.32-1.38.69.69,0,0,0-1.32,0Z" transform="translate(0 -0.03)"/>
        </g>
        <g class="cls-2">
          <path class="cls-3" d="M26.16,6.69c.39.4,1,1.06,1.61.81a.56.56,0,0,0,.38-.67c-.17-.59-.85-.71-1.33-1a.55.55,0,0,0-.66.87Z" transform="translate(0 -0.03)"/>
        </g>
        <g class="cls-2">
          <path class="cls-3" d="M32.22,8.76c0,1,1.17,2,1.62,2.89s.58,2.48,1.4,3.29a.32.32,0,0,0,.5-.06c.69-1.11-.07-2.73-.61-3.76s-1.44-2.7-2.64-2.63a.29.29,0,0,0-.27.27Z" transform="translate(0 -0.03)"/>
        </g>
        <g class="cls-2">
          <path class="cls-3" d="M31.89,9.12a13,13,0,0,1,2.13,4c.3.93.33,2.14,1.36,2.51a.48.48,0,0,0,.47-.12c1-.85.09-2.54-.33-3.48A16.76,16.76,0,0,0,33,8c-.65-.77-1.7.33-1.09,1.1Z" transform="translate(0 -0.03)"/>
        </g>
        <g class="cls-2">
          <path class="cls-3" d="M31.41,8.48a16.31,16.31,0,0,1,2.41,4.14c.42,1.19.48,3,1.41,3.92a.46.46,0,0,0,.64,0c1.26-1.27,0-3.69-.68-5s-1.9-3.19-3.66-3.25a.15.15,0,0,0-.12.22Z" transform="translate(0 -0.03)"/>
        </g>
        <g class="cls-2">
          <path class="cls-3" d="M32.16,9.35a8.51,8.51,0,0,1,1.7,2.34,22.55,22.55,0,0,0,1,2.58.75.75,0,0,0,1.35-.18,4.91,4.91,0,0,0-.8-3.1,9.54,9.54,0,0,0-2.14-2.71c-.73-.66-1.78.38-1.08,1.07Z" transform="translate(0 -0.03)"/>
        </g>
        <g class="cls-2">
          <path class="cls-3" d="M34.62,23.31c-.49.18-.46.82-.54,1.27a5.48,5.48,0,0,0-.1,1.89.32.32,0,0,0,.57.07A5.75,5.75,0,0,0,35,24.36c0-.13.14-1.23-.34-1.05Z" transform="translate(0 -0.03)"/>
        </g>
        <g class="cls-2">
          <path class="cls-3" d="M34.48,22.8a25.26,25.26,0,0,0-1,2.38,6.11,6.11,0,0,0-.6,2.21.48.48,0,0,0,.82.34c1.13-1.13,1.43-3.23,1.43-4.77a.32.32,0,0,0-.6-.16Z" transform="translate(0 -0.03)"/>
        </g>
        <g class="cls-2">
          <path class="cls-3" d="M34,23c-.29.81-.42,1.68-.63,2.52a10.6,10.6,0,0,0-.41,2.37.47.47,0,0,0,.86.23,9.3,9.3,0,0,0,1.22-5A.53.53,0,0,0,34,23Z" transform="translate(0 -0.03)"/>
        </g>
        <g class="cls-2">
          <path class="cls-3" d="M33.88,25.15s0,0,0,0,0,0,0,0Z" transform="translate(0 -0.03)"/>
        </g>
        <g class="cls-2">
          <path class="cls-3" d="M31.42,8.62c1.81.76,2,3.32,3,4.75a.47.47,0,0,0,.85-.11c.46-2.06-1.4-5.38-3.68-5.4-.37,0-.59.6-.21.76Z" transform="translate(0 -0.03)"/>
        </g>
        <g class="cls-4">
          <path class="cls-5" d="M7,6.92C5.84,5.22,4,7,3.15,8.07,1.9,9.6,1,11.6,1.54,13.55a1.47,1.47,0,0,0,2.66.35,32.82,32.82,0,0,0,1.28-3.39A19.11,19.11,0,0,1,7,7.88a.94.94,0,0,0,0-1Z" transform="translate(0 -0.03)"/>
        </g>
        <g class="cls-4">
          <path class="cls-5" d="M6.13,7.68s.06-.09,0-.09a0,0,0,0,0,0,.09Z" transform="translate(0 -0.03)"/>
        </g>
        <g class="cls-4">
          <path class="cls-5" d="M4,8.28C2.88,10,1,13.52,2.54,15.41a1.09,1.09,0,0,0,1.55,0c.78-.73.7-1.84,1-2.82A10,10,0,0,1,6.45,9.7C7.45,8.2,5,6.8,4,8.28Z" transform="translate(0 -0.03)"/>
        </g>
        <g class="cls-4">
          <path class="cls-5" d="M1.6,13.73c.53,1.52,1.27,2.92,1.88,4.41l2.84-1.65c-.68-.86-.86-2-1.46-2.93-1.3-2-4.38-.23-3.2,1.86l1.73,3.06,3.32-1.93c-.93-1.41-2.3-2.6-3-4.16L4,14c.59-2.11,3-3.26,2.6-5.62a1.25,1.25,0,0,0-.91-.91C3.07,6.89,1,10.19.19,12.25c-.92,2.37,1.74,5.26,3.5,6.62,1.59,1.24,4.27-.31,3-2.32l-1.85-3-3.2,1.86c.94,1.31,1.11,2.88,2.6,3.73s3.36-.88,2.32-2.32a17,17,0,0,0-3.74-4,.85.85,0,0,0-1.24,1Z" transform="translate(0 -0.03)"/>
        </g>
        <g class="cls-4">
          <path class="cls-5" d="M3.15,16.28c.45,1,.88,1.93,1.26,2.92s.77,2.14,2,2.46a1.34,1.34,0,0,0,1.29-.34c.92-.95.65-2.16.34-3.32s-.65-2.24-1-3.34a2.09,2.09,0,1,0-3.83,1.62Z" transform="translate(0 -0.03)"/>
        </g>
        <g class="cls-4">
          <path class="cls-5" d="M3.82,21.2c-.2.27-.38.57-.6.82a9.19,9.19,0,0,1-.73.67l.64-.37-.27.06,1.95,2.54a8.56,8.56,0,0,1,.69-1.21,1.84,1.84,0,0,0-.66-2.51,1.88,1.88,0,0,0-2.5.66,3.64,3.64,0,0,0-.69,1.73,1.78,1.78,0,0,0,.44,1.68,1.82,1.82,0,0,0,1.23.51A1.75,1.75,0,0,0,5,23.59l-.08-.26v.77a7.73,7.73,0,0,1,.23-1,9.83,9.83,0,0,1,.43-.93,1,1,0,0,0-1.75-1Z" transform="translate(0 -0.03)"/>
        </g>
        <g class="cls-6">
          <path class="cls-5" d="M22.72,13.44c.08,1.58,1,3.13,1.06,4.8.06,1.93-1,3.65-.66,5.56a1,1,0,0,0,1.24.71c4.14-1.6,3.46-10.28-.5-11.78A.86.86,0,0,0,23,13c-.12.14-.28.28-.27.48Z" transform="translate(0 -0.03)"/>
        </g>
        <g class="cls-6">
          <path class="cls-5" d="M23.38,18.64a7,7,0,0,1-1.77,3.95c-.9,1-2.5.94-3.11,2.21a1.15,1.15,0,0,0,.68,1.66c4.24.87,6.65-4.42,6.75-7.82.05-1.68-2.37-1.6-2.55,0Z" transform="translate(0 -0.03)"/>
        </g>
        <g class="cls-6">
          <path class="cls-5" d="M17.17,24.58a5.33,5.33,0,0,0,6.92,0c1.42-1.05,3.59-4.29,1.84-5.92a.6.6,0,0,0-.71-.09c-1.14.6-1.72,2.32-2.68,3.21a9.45,9.45,0,0,1-5,2c-.37.05-.71.54-.34.84Z" transform="translate(0 -0.03)"/>
        </g>
        <g class="cls-6">
          <path class="cls-5" d="M24.64,16.16c-1,1.47-.63,3.57-1.63,5.16s-2.76,2.11-4.15,3.26l1.61,2.09c2.15-1.39,5.08-3.14,4.83-6.08A.82.82,0,0,0,23.93,20c-1.67,1.41-3,3.05-4.8,4.36-.8.59-.94,2.22.32,2.42,2.65.43,5.12-1.63,6.37-3.84,1-1.83,1.94-5.71-.34-7a.64.64,0,0,0-.84.22Z" transform="translate(0 -0.03)"/>
        </g>
        <g class="cls-6">
          <path class="cls-5" d="M24.58,17.22c-.66,1.76-1,3.43-2.26,4.93-1,1.16-2.2,1.94-2.3,3.55a.8.8,0,0,0,.58.76c2.23.51,4-1.8,4.93-3.55s1.39-4.24,0-5.94c-.3-.37-.83-.11-1,.25Z" transform="translate(0 -0.03)"/>
        </g>
        <g class="cls-6">
          <path class="cls-5" d="M13.17,6.1c1.33-.23,1.75-1.89,3-2.39C18.08,3,20,3.13,21.93,3.1a1,1,0,0,0,.5-1.82c-1.94-1.15-5.16-.57-7.13.3-1.35.59-3.48,2.47-2.8,4.14a.57.57,0,0,0,.67.38Z" transform="translate(0 -0.03)"/>
        </g>
        <g class="cls-6">
          <path class="cls-5" d="M16.56,1.27c-1.25.29-2,2.3-2.6,3.31a.77.77,0,0,0,1.33.78c.47-.78,1-1.55,1.46-2.31S16.06,1.28,15.33,2a5.43,5.43,0,0,0-1.51,2.21l2.06.56C16.34,3.13,17.3,3,18.84,3c1.16.05,2.32.45,3.19-.5a1,1,0,0,0,.16-1.23c-.94-1.67-3.75-1-5.29-.61a4,4,0,0,0-3.08,3.47,1.07,1.07,0,0,0,2.06.56,5.22,5.22,0,0,1,.87-1.67l-1.57-.92c-.4.82-.8,1.64-1.22,2.45l1.33.78c.26-.58.54-1.14.82-1.71.19-.41.38-1.26.84-1.46s.14-1-.39-.92Z" transform="translate(0 -0.03)"/>
        </g>
        <g class="cls-6">
          <path class="cls-5" d="M20.67,1C18.7.23,14.83.6,14,2.85a.76.76,0,0,0,.53.92,5.83,5.83,0,0,0,2.92-.51c1.07-.29,2.19-.32,3.27-.54s.71-1.39,0-1.68Z" transform="translate(0 -0.03)"/>
        </g>
        <g class="cls-6">
          <path class="cls-5" d="M27.58,10A10.7,10.7,0,0,1,29,9.89a5.28,5.28,0,0,0,1.53-.38,1.11,1.11,0,0,0,.77-.76,1.08,1.08,0,0,0,0-.59,1.17,1.17,0,0,0-1.06-.8,3.75,3.75,0,0,0-1.79.11c-.55.2-1.06.46-1.6.7a1,1,0,0,0-.4,1.22,1,1,0,0,0,1.16.57Z" transform="translate(0 -0.03)"/>
        </g>
        <g class="cls-6">
          <path class="cls-5" d="M27.45,10.3c-.11,0,.19.08.31.1s.52,0,.78.09V8.2a5.67,5.67,0,0,1-2,.32l.32,2.37a9.08,9.08,0,0,1,2.44-.18L28.93,8l-.14,0a1.35,1.35,0,0,0,0,2.59l.14,0a1.38,1.38,0,1,0,.37-2.72,8.19,8.19,0,0,0-3.08.63,1.21,1.21,0,0,0,.32,2.36,5.82,5.82,0,0,0,2.91-.56,1.19,1.19,0,0,0,.49-1.48,1.21,1.21,0,0,0-1.4-.69,2.22,2.22,0,0,0-1.74.92.8.8,0,0,0,.12,1,.76.76,0,0,0,.53.23Z" transform="translate(0 -0.03)"/>
        </g>
        <g class="cls-6">
          <path class="cls-5" d="M26.87,9.93a14.61,14.61,0,0,0,2.47.39c.32,0,1.16.27.71-.12s.25.82.33,1c.73,1.39,1.24,3.64,2.7,4.39a1.09,1.09,0,0,0,1.57-.64c.41-1.16-.21-2.24-.69-3.3a13.63,13.63,0,0,0-1.83-3.38C30.61,6.53,28,8,26.64,9.09a.51.51,0,0,0,.23.84Z" transform="translate(0 -0.03)"/>
        </g>
        <g class="cls-6">
          <path class="cls-5" d="M30.46,9.67a9,9,0,0,0,.57,2.9,17,17,0,0,0,1.06,3.06c.93,1.76,3.66-.45,1.78-1.78l0,0a1.24,1.24,0,0,0-1.69.44l0,.06,2.38.31a12.33,12.33,0,0,0-1.63-3,7.14,7.14,0,0,0-2-2.17.28.28,0,0,0-.42.24Z" transform="translate(0 -0.03)"/>
        </g>
        <g class="cls-6">
          <path class="cls-5" d="M32.42,13.22a2.16,2.16,0,0,0,.19-2c-.23-.68-1-1.4-1-2.13l-.4.95.1-.09-1,.4h.13c1.63.21,1.64-2.14.36-2.65s-2.67.18-3.84.47l.73,2.65a6.65,6.65,0,0,1,1.52-.45,5.4,5.4,0,0,1,.8-.07c.54,0,.53,0,0-.16l1.2,2.7c.31.72.83,1.61,1.72,1.63a1.25,1.25,0,0,0,1.22-1.08,4.62,4.62,0,0,0-.61-2.89,8,8,0,0,0-1.32-2.49c-1.31-1.38-3.78-.45-5.24.16s-1,3.11.73,2.65c.58-.15,1.82-.73,2.39-.52l.36-2.65c-1.56-.17-1.77,1.65-1.26,2.69a11.28,11.28,0,0,0,2.4,2.92.52.52,0,0,0,.82-.1Z" transform="translate(0 -0.03)"/>
        </g>
        <g class="cls-6">
          <path class="cls-5" d="M21.5,2.4a4,4,0,0,0,0,1.73c0,.27.09.53.15.79a2.35,2.35,0,0,1,.17.64h2.44a15.59,15.59,0,0,0-.64-2.3,1.38,1.38,0,0,0-1.39-.74,1.23,1.23,0,0,0-.4.23c-.18.15-.17.21,0,0A1.55,1.55,0,0,0,21.17,4a5.72,5.72,0,0,0,.75,2.5,1.27,1.27,0,0,0,1.43.58,1.33,1.33,0,0,0,.93-1.22A4.06,4.06,0,0,0,23.82,4a11.12,11.12,0,0,0-.66-1.86.92.92,0,0,0-1.66.22Z" transform="translate(0 -0.03)"/>
        </g>
        <g class="cls-6">
          <path class="cls-5" d="M21.72,1.79a6.53,6.53,0,0,0-.23,2.29A4,4,0,0,0,22,6.2c.77,1.29,3.07.45,2.52-1.07S23.73.9,21.72.62L21.08,3a2.48,2.48,0,0,1,1.07.33l-.58-.75c.3,1.14.06,2.46,1.11,3.22a1,1,0,0,0,1.21-.16A1.85,1.85,0,0,0,24.31,4a17.26,17.26,0,0,0-.24-1.88C23.8.89,22.53.66,21.4.58c-1.56-.11-1.54,2.3,0,2.42q-.18-.15-.06,0l-.16-.59a8.06,8.06,0,0,0,.09,2A6.63,6.63,0,0,0,22,6.2l2.16-1.68a6.2,6.2,0,0,1-.63-1.38,6.85,6.85,0,0,0-.82-1.62c-.32-.4-.88-.11-1,.27Z" transform="translate(0 -0.03)"/>
        </g>
        <g class="cls-6">
          <path class="cls-5" d="M31.13,21.94a1.4,1.4,0,0,0,1.13,1.4.68.68,0,0,0,.66-1.14,2.45,2.45,0,0,0-1.28-.65.41.41,0,0,0-.51.39Z" transform="translate(0 -0.03)"/>
        </g>
        <g class="cls-6">
          <path class="cls-5" d="M31.23,23.17c.05,0,1,.87.88.46a12.39,12.39,0,0,1-.7,1.17,13.16,13.16,0,0,0-.81,2.61c-.21,1.06,1.16,2.15,2,1.16a4.91,4.91,0,0,0,.94-1.76,12.06,12.06,0,0,1,1-2c.75-1.41-.31-2.71-1.37-3.57-1.34-1.08-3.25.82-1.9,1.91Z" transform="translate(0 -0.03)"/>
        </g>
        <g class="cls-6">
          <path class="cls-5" d="M31.43,27c.44,0,.45,0,0-.07H31a6.6,6.6,0,0,0-.77,0,8.55,8.55,0,0,0-1.79.39L29,29.24c.91-.16,1.92.23,2.85.16a1.46,1.46,0,0,0,0-2.91,7.18,7.18,0,0,0-3.39.81,1,1,0,0,0-.74,1,1,1,0,0,0,.74,1,8,8,0,0,0,3.23,0,1.3,1.3,0,0,0,.7-2.15.77.77,0,0,0-.93-.13Z" transform="translate(0 -0.03)"/>
        </g>
        <g class="cls-6">
          <path class="cls-5" d="M29.2,28c.29,1,1.09,1.28,1.91,1.79a1.6,1.6,0,0,0,2.33-.95c.36-2.08,3.09-3.24,2.46-5.54-.31-1.15-2.38-3.21-3.67-2.66a1.25,1.25,0,0,0-.72,1.32,17.2,17.2,0,0,0,1.12,2.44q0-1.08-.45-.24c-.18.18-.34.37-.5.56A6.88,6.88,0,0,0,30.76,26a4,4,0,0,0-.38,2.83l1.53-2a3.26,3.26,0,0,0-2.53.49.68.68,0,0,0-.18.68Z" transform="translate(0 -0.03)"/>
        </g>
        <g class="cls-6">
          <path class="cls-5" d="M31.91,22.48l.7.8c.45.52,1.2,0,1.08-.63l-.23-1.07a.93.93,0,1,0-1.55.9Z" transform="translate(0 -0.03)"/>
        </g>
        <g class="cls-6">
          <path class="cls-5" d="M31.46,23.13c-.08,1.83-1,3.7-1.52,5.43a.68.68,0,0,0,1.24.52A15,15,0,0,0,33,24.3L32.25,24c-.32.74-.67,1.46-1,2.2s-.84,1.87-1.84,1.68l-.2,1.48a15.89,15.89,0,0,0,2.39,0,1,1,0,0,0,0-2L31,27.3l.51,1.87a3.78,3.78,0,0,0,2.05-2.32,13,13,0,0,0,1-3.1,1,1,0,0,0-1.2-.9,2.74,2.74,0,0,0-1.63,2c-.14.41-.22.83-.32,1.25a1.68,1.68,0,0,1-.89,1.36,1,1,0,0,0,.5,1.87h.66l-.27-1.94c-.78.14-1.54.35-2.32.49s-.63,1.23,0,1.46c2.81,1,4.42-3.06,3.95-5.24a.4.4,0,0,0-.66-.18,15.17,15.17,0,0,0-2.38,4.65l1.31.36c.59-1.86,1.46-3.82,1.53-5.79,0-.85-1.29-.85-1.32,0Z" transform="translate(0 -0.03)"/>
        </g>
        <g class="cls-6">
          <path class="cls-5" d="M13.06,30.89c-.61.53-.24,1.59-.05,2.23.25.8.54,1.82,1.32,2.23a1.05,1.05,0,0,0,1.52-.62c.32-.93-.33-2.08-.79-2.88s-1.12-1.73-2-1Z" transform="translate(0 -0.03)"/>
        </g>
        <g class="cls-6">
          <path class="cls-5" d="M13,31a4.26,4.26,0,0,0,.88,3.7c1.13,1.2,2.9.65,4.34.64s3.36.89,4.67.22c1.13-.59.94-2.44.31-3.33a.55.55,0,0,0-.85-.11c-.21.18-.91,1.43-.64,1.26-.4.25-2.56-.45-3.16-.45-.81,0-2.38.59-3.06.2-.52-.3-.89-1.77-1.15-2.31A.74.74,0,0,0,13,31Z" transform="translate(0 -0.03)"/>
        </g>
        <g class="cls-6">
          <path class="cls-5" d="M21.82,31.11a3.94,3.94,0,0,0-.55,2.94,1.38,1.38,0,0,0,1.29,1,1.4,1.4,0,0,0,1.29-1,4,4,0,0,0-.41-2.94,1,1,0,0,0-1.62,0Z" transform="translate(0 -0.03)"/>
        </g>
        <g class="cls-6">
          <path class="cls-5" d="M21.68,31.23c-.17.72-.13,1.44-.27,2.15l.47-.62c-.88.6-2.2.45-3.21.47s-2.29.07-3.41.2c-.61.07-1.09,1-.36,1.33a9.76,9.76,0,0,0,6.67.49c.69-.22,1.58-.56,1.84-1.32s-.27-2.05-.65-2.84a.59.59,0,0,0-1.08.14Z" transform="translate(0 -0.03)"/>
        </g>
        <g class="cls-6">
          <path class="cls-5" d="M13.67,31.86c-.12.77-.17,2.27.84,2.48a.48.48,0,0,0,.53-.22c.37-.8-.39-1.67-.76-2.34a.34.34,0,0,0-.61.08Z" transform="translate(0 -0.03)"/>
        </g>
        <g class="cls-6">
          <path class="cls-5" d="M13.77,31.21c-.58,1.34-.7,3.32.88,4.09.94.46,2.37.19,3.35.11a22.25,22.25,0,0,1,4.38-.24,1.16,1.16,0,0,0,1.12-.85c.23-1,.49-1.53,0-2.42a.6.6,0,0,0-.79-.21c-.93.42-1,1.08-1.42,2l1.42-.81c-1.66-.37-3.35.08-5,.22-.63.05-1.83.37-2.39.07a18.41,18.41,0,0,1-1.32-2c0-.06-.15-.08-.18,0Z" transform="translate(0 -0.03)"/>
        </g>
        <g class="cls-6">
          <path class="cls-5" d="M22.05,31.67c-.21.73-.57,1.9.47,2.18s1.34-.89,1.56-1.62a1.05,1.05,0,0,0-2-.56Z" transform="translate(0 -0.03)"/>
        </g>
        <g class="cls-6">
          <path class="cls-5" d="M22.56,32.49a0,0,0,0,0,0-.09s0,.09,0,.09Z" transform="translate(0 -0.03)"/>
        </g>
        <g class="cls-6">
          <path class="cls-5" d="M21.82,32.63c-1.36.08-2.69.36-4.05.54a4.78,4.78,0,0,0-3.13,1.14.7.7,0,0,0,.14,1.07c1.13.74,2.31.53,3.58.3a18.28,18.28,0,0,0,4-1.13c.94-.42.46-2-.52-1.92Z" transform="translate(0 -0.03)"/>
        </g>
        <g class="cls-6">
          <path class="cls-5" d="M15.82,35c.75,0,1.52.16,2.27.27a3,3,0,0,0,2-.08.88.88,0,0,0,.18-1.37c-1.18-1.08-3.33-.28-4.62.26a.47.47,0,0,0,.13.92Z" transform="translate(0 -0.03)"/>
        </g>
        <g class="cls-6">
          <path class="cls-5" d="M21.21,12.25c-.23,1,1,2.08,1.51,2.83a33.14,33.14,0,0,0,2.2,3.17.42.42,0,0,0,.7-.18A5.4,5.4,0,0,0,24.2,13.5c-.26-.29-2.68-2.52-3-1.25Z" transform="translate(0 -0.03)"/>
        </g>
        <g class="cls-6">
          <path class="cls-5" d="M21.37,13.89a11,11,0,0,1,2.36,2.46A1.36,1.36,0,0,0,26.08,15a13.28,13.28,0,0,0-3-3.29,1.4,1.4,0,1,0-1.7,2.2Z" transform="translate(0 -0.03)"/>
        </g>
        <g class="cls-6">
          <path class="cls-5" d="M19.54,11.46c1.15,1,2.3,2,3.46,3s2.63,1.95,3.16,3.51a.19.19,0,0,0,.32.08c1-1.21-.45-2.94-1.21-3.88A11.65,11.65,0,0,0,20.1,10.5a.58.58,0,0,0-.56,1Z" transform="translate(0 -0.03)"/>
        </g>
        <g class="cls-6">
          <path class="cls-5" d="M14.46,25a6.38,6.38,0,0,0,4.06,1.09c1.36.05,3.46.15,4.37-1a.91.91,0,0,0-.18-1.4c-1.23-.74-2.83-.16-4.19,0a11.1,11.1,0,0,0-4,.67.43.43,0,0,0-.08.66Z" transform="translate(0 -0.03)"/>
        </g>
        <g class="cls-6">
          <path class="cls-5" d="M15.57,25.35c2.1.55,8.11,2.58,8.5-1.16a1,1,0,0,0-.5-.88c-1.24-.56-2.35.18-3.63.33-1.46.18-2.91.14-4.37.37-.71.11-.63,1.18,0,1.34Z" transform="translate(0 -0.03)"/>
        </g>
        <g class="cls-6">
          <path class="cls-5" d="M16.76,25.76c2.41.66,7.87.78,8.11-2.76a.75.75,0,0,0-.95-.72c-1,.38-2,.95-3,1.28-1.4.42-2.77.82-4.13,1.36a.44.44,0,0,0,0,.84Z" transform="translate(0 -0.03)"/>
        </g>
        <g class="cls-6">
          <path class="cls-5" d="M4.64,6.85A12.23,12.23,0,0,0,2.49,12a.52.52,0,0,0,.87.36A35,35,0,0,0,6.18,7.75c.6-1-.94-1.87-1.54-.9Z" transform="translate(0 -0.03)"/>
        </g>
        <g class="cls-6">
          <path class="cls-5" d="M2.73,10.74C1,12.67,2.52,16.58,4.28,18a.46.46,0,0,0,.77-.2c.3-1.16-1.92-2.71-2.66-3.3l-.34.34c.79,1,1.58,2,2.3,3l1.11-.64c-.55-1.05-1.61-1.64-2.18-2.63-.66-1.16.43-2.37.58-3.56a.58.58,0,0,0-.87-.5c-1.07.77-2.14,2.7-1.81,4,.38,1.56,2.18,2.65,3.4,3.51.61.44,1.27-.5.78-1a20.15,20.15,0,0,0-3-2.59c-.23-.16-.48.19-.29.38s2.24,2.5,2.23,2.51l.77.21a12.4,12.4,0,0,0-1.58-2.9,6,6,0,0,1-.41-3.7.2.2,0,0,0-.33-.19Z" transform="translate(0 -0.03)"/>
        </g>
        <g class="cls-6">
          <path class="cls-5" d="M2.55,11.2l-.34,1.08c-.07.21.26.29.34.09l.4-1c.1-.25-.32-.38-.4-.12Z" transform="translate(0 -0.03)"/>
        </g>
        <g class="cls-6">
          <path class="cls-5" d="M2.59,9.76a11.57,11.57,0,0,0-1.18,4.83A4.58,4.58,0,0,0,3.83,18a.67.67,0,0,0,1-.75c-.3-1.13-1.53-1.75-1.67-2.9a10.21,10.21,0,0,1,.74-4c.25-.74-1-1.27-1.28-.54Z" transform="translate(0 -0.03)"/>
        </g>
        <g class="cls-6">
          <path class="cls-5" d="M2.44,10a9.75,9.75,0,0,0-.94,2.85,8.38,8.38,0,0,0-.62,2.52c.16,1.51,1.65,3.71,3.28,3.7a.71.71,0,0,0,.7-.69,2.25,2.25,0,0,0-.42-1.35c-.34-.55-1.19-1.21-1.32-1.82a6.77,6.77,0,0,1,.37-1.82A8,8,0,0,1,4.1,11C4.64,9.91,3,8.94,2.44,10Z" transform="translate(0 -0.03)"/>
        </g>
        <g class="cls-6">
          <path class="cls-5" d="M2.26,15.65a26.48,26.48,0,0,0,2,2.34c.53.55,1.56-.2,1.08-.83-.81-1.05-2.81-2.59-2.49-3.94s1.52-2.33,1.59-3.71A.4.4,0,0,0,4,9.12c-1.45.47-2.57,2.73-2.84,4.15C.75,15.23,3,16.87,4.28,18l1-1a23.91,23.91,0,0,1-2-2.17c-.45-.56-1.46.21-1,.79Z" transform="translate(0 -0.03)"/>
        </g>
        <g class="cls-6">
          <path class="cls-5" d="M4.16,7.11a24.52,24.52,0,0,0-1.8,3.1c-.42,1-1,2.13-.56,3.22a.63.63,0,0,0,1,.27,5.4,5.4,0,0,0,1.33-2.78c.36-1.1.58-2.32,1-3.39.23-.58-.68-.93-1-.42Z" transform="translate(0 -0.03)"/>
        </g>
        <g class="cls-6">
          <path class="cls-5" d="M4.19,6.9c-1.08,1.75-3.45,4.3-3,6.56.28,1.46,2.33,3.94,3.76,4.32a.42.42,0,0,0,.45-.18C6,16.36,5,15.54,4.13,14.69a2.16,2.16,0,0,1-.83-1.58A2.15,2.15,0,0,1,3.71,11C4.32,9.92,4.9,8.78,5.49,7.65a.75.75,0,0,0-1.3-.75Z" transform="translate(0 -0.03)"/>
        </g>
        <g class="cls-6">
          <path class="cls-5" d="M5.42,6.73a2.26,2.26,0,0,0,1.22.75,3.16,3.16,0,0,0,2.08,0A1,1,0,0,0,9,5.64a3.1,3.1,0,0,0-3.23.08.79.79,0,0,0-.35.87.58.58,0,0,0,0,.14Z" transform="translate(0 -0.03)"/>
        </g>
        <g class="cls-6">
          <path class="cls-5" d="M8.75,5.25a14.09,14.09,0,0,0-2.83,0,1.26,1.26,0,0,0,0,2.51C7.14,7.89,8.36,8,9.58,8c1.58.08,1.57-2.37,0-2.46-1.28-.07-2.74-.43-3.91.27A4.19,4.19,0,0,0,3.49,8.48,1.3,1.3,0,0,0,4.37,10a1.26,1.26,0,0,0,1-.13c.54-.32.55-1,1-1.4a1.56,1.56,0,0,1,1.18-.62A20.92,20.92,0,0,1,9.58,8V5.55c-1.22-.08-2.44-.17-3.66-.29V7.77a14.87,14.87,0,0,1,2.83,0c1.61.16,1.6-2.36,0-2.52Z" transform="translate(0 -0.03)"/>
        </g>
        <g class="cls-6">
          <path class="cls-5" d="M5.2,6A16.29,16.29,0,0,0,3.1,8.46,2.05,2.05,0,0,0,2.59,10c0-.32,0,.39,0,.4a1.7,1.7,0,0,0,.07.63.54.54,0,0,0,.65.37,6.07,6.07,0,0,0,.9-.59,2.66,2.66,0,0,0,.49-.27,2.33,2.33,0,0,0,.41-.61A13.9,13.9,0,0,1,6.8,7.62,1.13,1.13,0,0,0,5.2,6Z" transform="translate(0 -0.03)"/>
        </g>
        <g class="cls-6">
          <path class="cls-5" d="M4.48,6.3A9.65,9.65,0,0,0,2.71,8.79c-.27.67-.81,2-.14,2.57s1.42-.31,1.86-.82c.68-.77,1.19-1.66,1.85-2.44,1.06-1.24-.71-3-1.8-1.8Z" transform="translate(0 -0.03)"/>
        </g>
        <g class="cls-6">
          <path class="cls-5" d="M4.74,21.2c-.45,0-.83.56-1.13.85a3.87,3.87,0,0,0-1.06,1.22.22.22,0,0,0,.26.26A3.86,3.86,0,0,0,4,22.46c.29-.3.88-.69.84-1.14a.13.13,0,0,0-.12-.12Z" transform="translate(0 -0.03)"/>
        </g>
        <g class="cls-6">
          <path class="cls-5" d="M4.23,20.86c-.8.79-2.44,1.89-2.38,3.15a5.84,5.84,0,0,0,.64,1.84c.33.76.51,1.48,1.24,1.91a.34.34,0,0,0,.5-.21c.18-1-.44-1.88-.83-2.77-.3-.69-.42-1,0-1.6a16.38,16.38,0,0,1,1.43-1.69.45.45,0,0,0-.63-.63Z" transform="translate(0 -0.03)"/>
        </g>
        <g class="cls-6">
          <path class="cls-5" d="M1.57,23.83c0,1.26,1,2.43,1.67,3.42a13.15,13.15,0,0,0,2.91,3.26.71.71,0,0,0,1-1c-1.43-2.07-3.6-3.63-4.72-5.94a.44.44,0,0,0-.82.22Z" transform="translate(0 -0.03)"/>
        </g>
        <g class="cls-6">
          <path class="cls-5" d="M2.27,25.51a32.61,32.61,0,0,0,2,2.89A14.82,14.82,0,0,0,5.9,30.79c.8.73,3.09.61,3.74-.23a.64.64,0,0,0,0-.9c-.21-.21-.36-.17-.63-.17-1,0-1.78.78-2.47-.13a25.34,25.34,0,0,0-3.73-4.27.35.35,0,0,0-.54.42Z" transform="translate(0 -0.03)"/>
        </g>
        <g class="cls-6">
          <path class="cls-5" d="M8.7,29.41c-1,.44-1.58.59-2.4-.14A26.71,26.71,0,0,1,4.35,27.1a3.51,3.51,0,0,1-1.27-2.69A6.58,6.58,0,0,1,4,22.36a.4.4,0,0,0-.45-.58C1.3,22.33,1.35,25.42,2.44,27A22.28,22.28,0,0,0,4.25,29,9.09,9.09,0,0,0,6.05,31c1,.55,2.3-.21,3.13-.71.55-.32.07-1.07-.48-.83Z" transform="translate(0 -0.03)"/>
        </g>
        <g class="cls-6">
          <path class="cls-5" d="M3.8,20.62a11.41,11.41,0,0,0-1.59,1.94c-.32.47.41,1,.8.61s1-1.07,1.46-1.61l-.77-.78C2.76,21.9,1.39,22.85,2,24.39a13,13,0,0,0,3.39,5.06c.47.39,1.25-.1.89-.69-.66-1.07-1.53-2-2.2-3.07a6.86,6.86,0,0,1-.81-1.41c-.34-1.2.58-1.93,1.22-2.72.44-.54-.31-1.32-.77-.78L2.29,22.46l.85.49A8.48,8.48,0,0,1,4.29,21c.21-.3-.24-.61-.49-.38Z" transform="translate(0 -0.03)"/>
        </g>
        <g class="cls-6">
          <path class="cls-5" d="M2,24a26.27,26.27,0,0,0,2.33,3.83,21,21,0,0,0,2.52,3.26c.39.37,1.09-.12.77-.6-.81-1.24-1.88-2.35-2.79-3.53s-1.59-2.2-2.47-3.24c-.18-.21-.46.06-.36.28Z" transform="translate(0 -0.03)"/>
        </g>
        <g class="cls-6">
          <path class="cls-5" d="M1.55,24.67A7.53,7.53,0,0,0,3.26,28a14.74,14.74,0,0,0,1.36,1.49c.4.38.68.83,1.21,1a.38.38,0,0,0,.47-.26c.28-1-1.1-1.79-1.74-2.43-1-1-1.67-2.29-2.67-3.28-.11-.11-.36,0-.34.14Z" transform="translate(0 -0.03)"/>
        </g>
        <g class="cls-6">
          <path class="cls-5" d="M1.39,24.44A30.24,30.24,0,0,0,3.89,28a14.83,14.83,0,0,0,3,3.16c.28.2.61-.18.45-.45a20.74,20.74,0,0,0-2.62-3.16c-1-1.12-1.94-2.27-3-3.35a.21.21,0,0,0-.32.25Z" transform="translate(0 -0.03)"/>
        </g>
        <g class="cls-6">
          <path class="cls-5" d="M20.56,25.21c3,.34,4.92-3.53,4.67-6.09,0-.24-.37-.48-.56-.23a13.53,13.53,0,0,0-1.38,3.25,5.53,5.53,0,0,1-2.86,2.61.25.25,0,0,0,.13.46Z" transform="translate(0 -0.03)"/>
        </g>
        <g class="cls-6">
          <path class="cls-5" d="M24.67,15.34c-.29,1.21.12,2.41.13,3.65s-.61,2.47-.54,3.7c0,.37.46.73.82.47,2.21-1.61,1.18-5.67.51-7.82a.48.48,0,0,0-.92,0Z" transform="translate(0 -0.03)"/>
        </g>
        <g class="cls-6">
          <path class="cls-5" d="M23.27,14.58l-.16-.37-.87.24c.81,1.29,1.74,2.32,2.06,3.87.27,1.32-.27,3,.41,4.12a.46.46,0,0,0,.72.09c1.27-1.09.75-3.73.29-5.14a5.52,5.52,0,0,0-2.95-3.63c-.57-.21-.85.78-.25.91l.37.2c.2.17.55-.06.38-.29Z" transform="translate(0 -0.03)"/>
        </g>
        <g class="cls-6">
          <path class="cls-5" d="M22.34,13.52c1,1.94,2.39,3,2,5.44-.32,2.09-1.55,3.38-2.51,5.14a.54.54,0,0,0,.73.74c4.11-2.09,4.81-9.95.06-11.71-.22-.08-.39.2-.29.39Z" transform="translate(0 -0.03)"/>
        </g>
      </g>
    </g>
  </g>
</svg>
